<svg width="6243" height="5076" xmlns="http://www.w3.org/2000/svg" xmlns:xlink="http://www.w3.org/1999/xlink"><defs><ellipse id="a" cx="407.659" cy="407.477" rx="407.659" ry="407.477"/><ellipse id="c" cx="873.554" cy="873.165" rx="873.554" ry="873.165"/><linearGradient x1="50%" y1="100%" x2="50%" y2="0%" id="e"><stop stop-color="#E3E3E3" offset="0%"/><stop stop-color="#EFEFEF" offset="100%"/></linearGradient><ellipse id="f" cx="582.369" cy="582.11" rx="582.369" ry="582.11"/><linearGradient x1="50%" y1="100%" x2="50%" y2="0%" id="h"><stop stop-color="#3FB3EE" offset="0%"/><stop stop-color="#86D0F5" offset="100%"/></linearGradient><path id="i" d="M292.635 527.235l-60.76-9.86-55.442-24.268-47.09-29.58-44.81-54.604L59.22 382.15l-24.48-9.01-6.473 15.8 11.32 16.318 2.543 23.01 7.583-.306 8.285-7.546-2.235 23.44-9.184 6.15.278 8.933-21.754-12.29-19.7-23.21L1.297 402.7l8.424-16.61 7.858-28.22 15.98-7.555 16.81.824 15.938 9.248-10.632-53.846 10.632-59.915-11.704-27.664-38.334-41.243 6.816-24.64 18.16-28.555 34.24-24.063 18.163-2.483 20.193-.684-12.598-51.645 46.33-18.96 57.722-7.584 19.745 12.89 1.52 34.888 22.025 36.404 1.52 28.82 53.163-3.793 49.367 4.55-49.367-29.577 8.355-35.645 31.138-48.536L373.143 6.21l24.303 9.86 9.874 19.718 50.884 38.678 9.874-8.343 79.746-3.032 15.95 12.893 1.52 22.753-5.317 9.858-3.798 61.43-26.583 53.09 4.556 23.51 15.95-8.342 44.81-41.713 22.025-1.517 24.303 9.86 24.306 18.2 12.15 39.438L749.09 258l43.29 16.686 34.937 32.61 25.063 47.023 6.077 55.36-5.317 64.466-13.67 57.638-13.673 18.202-18.985 6.07-33.42-36.405-30.378-10.617-26.582 43.987-26.582 24.27-14.432 9.1-57.72 47.78-46.33 25.027-46.33 3.793-53.922-9.1-47.09-17.445L391.37 609.9l-25.823-31.094-26.582-7.584"/><ellipse id="j" cx="407.659" cy="407.477" rx="407.659" ry="407.477"/><linearGradient x1="50%" y1="100%" x2="50%" y2="0%" id="l"><stop stop-color="#DEDEDE" offset="0%"/><stop stop-color="#EDEDED" offset="100%"/></linearGradient><linearGradient x1="91.002%" y1="93.175%" x2="8.998%" y2="12.222%" id="m"><stop stop-color="#CA1DA5" offset="0%"/><stop stop-color="#E13185" offset="50.878%"/><stop stop-color="#D7334E" offset="100%"/></linearGradient><radialGradient cx="88.043%" cy="87.201%" fx="88.043%" fy="87.201%" id="n"><stop stop-color="#0000E3" offset="0%"/><stop stop-color="#0000E3" stop-opacity="0" offset="100%"/></radialGradient><radialGradient cx="8.369%" cy="16.067%" fx="8.369%" fy="16.067%" r="77.723%" id="o"><stop stop-color="#FFD800" offset="0%"/><stop stop-color="#FFD800" stop-opacity=".826" offset="46.482%"/><stop stop-color="#FFD800" stop-opacity="0" offset="100%"/></radialGradient><radialGradient cx="90.4%" cy="92.205%" fx="90.4%" fy="92.205%" id="p"><stop stop-color="#80A" offset="0%"/><stop stop-color="#80A" stop-opacity="0" offset="100%"/></radialGradient><radialGradient fx="50%" fy="50%" id="q"><stop stop-color="#0000E3" offset="0%"/><stop stop-color="#0000E3" stop-opacity="0" offset="100%"/></radialGradient><ellipse id="r" cx="232.948" cy="232.844" rx="232.948" ry="232.844"/><ellipse id="t" cx="873.554" cy="873.165" rx="873.554" ry="873.165"/><linearGradient x1="50%" y1="100%" x2="50%" y2="0%" id="v"><stop stop-color="#0F76A1" offset="0%"/><stop stop-color="#35A0CD" offset="100%"/></linearGradient><ellipse id="w" cx="267.89" cy="267.771" rx="267.89" ry="267.771"/><linearGradient x1="50%" y1="100%" x2="50%" y2="0%" id="y"><stop stop-color="#4BA6BD" offset="0%"/><stop stop-color="#94CCDA" offset="100%"/></linearGradient><path id="z" d="M0 1747.175h1358.473V0H0z"/><path id="B" d="M0 1747.175h1358.473V0H0z"/><path id="D" d="M.017 138.825h195.98V1.663H.017z"/><path id="F" d="M0 1747.175h1358.473V0H0z"/><path id="H" d="M0 1747.175h1358.473V0H0z"/><path id="J" d="M0 1747.175h1358.473V0H0z"/><path id="L" d="M0 1747.175h1358.473V0H0z"/><path id="N" d="M.448 102.31h101.884V1.146H.448z"/><path id="P" d="M0 1747.175h1358.473V0H0z"/><path id="R" d="M.895 137.19H472.37V.815H.894z"/><path id="T" d="M0 1747.175h1358.473V0H0z"/><path id="V" d="M1.153 164.667h442.57V1.822H1.153v162.845z"/></defs><g fill="none" fill-rule="evenodd"><g transform="translate(2841.963 814.954)"><mask id="b" fill="#fff"><use xlink:href="#a"/></mask><use fill="#FFF" xlink:href="#a"/><g mask="url(#b)"><path stroke="#326DE6" stroke-width="93.058" fill="#326DE6" d="M414.142 107.174L657.95 222.94l60.703 262.778-168.11 211.91-270.335 1.47-168.99-210.077 59.605-263.43z"/><g stroke="#FFF"><path d="M376.533 248.507c91.854-21.1 183.44 36.35 204.565 128.316 21.124 91.966-36.214 183.623-128.068 204.72-91.854 21.1-183.44-36.35-204.565-128.315-21.124-91.966 36.214-183.623 128.068-204.72z" stroke-width="38.423"/><g fill="#FFF"><g stroke-width=".502"><path d="M398.992 219.5l18.792.044 1.195 138.115-27.81.26z"/><path d="M430.54 219.497l-18.792.048-1.162 138.114 27.81.253z"/></g><g stroke-width=".5"><path d="M429.39 167.35c0 8.975-6.546 16.25-14.623 16.25-8.077.002-14.626-7.272-14.627-16.246 0-8.974 6.546-16.25 14.623-16.25 8.077-.002 14.626 7.272 14.627 16.246z"/><path d="M400.15 167.136c0 1.286-.064 3.134-.018 4.372.193 5.176 1.328 9.145 2.007 13.914 1.23 10.207 2.264 18.666 1.627 26.53-.577 3.936-2.857 5.485-4.76 7.306l23.066 15.263-3.463-67.27-18.46-.114z"/><path d="M429.387 167.136c0 1.286.063 3.134.016 4.372-.192 5.176-1.327 9.145-2.006 13.914-1.23 10.207-2.265 18.666-1.63 26.53.58 3.936 2.86 5.485 4.762 7.306L407.46 234.52l3.464-67.27 18.46-.114z"/></g></g><path stroke-width="37.852" d="M452.195 445.036l-37.608 18.02-37.507-18.138-9.162-40.64 26.08-32.538 41.686.066 25.9 32.62z"/><g fill="#FFF"><g stroke-width=".502"><path d="M251.907 305.42l11.75-14.665 108.73 85.178-17.136 21.904z"/><path d="M271.574 280.752l-11.68 14.722 107.26 87.02 17.536-21.583z"/></g><g stroke-width=".5"><path d="M230.087 249.14c7.016 5.594 8.623 15.25 3.588 21.564-5.035 6.315-14.806 6.9-21.823 1.305-7.016-5.595-8.623-15.25-3.588-21.565 5.035-6.315 14.806-6.9 21.823-1.306z"/><path d="M211.688 271.867c1.006.8 2.41 2.003 3.408 2.74 4.167 3.076 7.977 4.663 12.13 7.105 8.746 5.402 16.005 9.868 21.756 15.268 2.717 2.906 2.507 5.654 2.745 8.278l26.315-8.52-54.754-39.233-11.6 14.362z"/><path d="M229.917 249.008c1.005.802 2.49 1.905 3.43 2.713 3.926 3.38 6.32 6.74 9.626 10.245 7.213 7.325 13.182 13.408 19.727 17.814 3.437 2 6.07 1.185 8.68.832l-2.448 27.55-50.436-44.65 11.42-14.504z"/></g></g><g fill="#FFF"><g stroke-width=".502"><path d="M227.67 474.085l-4.14-18.33 134.385-31.902 6.442 27.054z"/><path d="M220.645 443.328l4.228 18.31 134.91-29.602-5.94-27.168z"/></g><g stroke-width=".5"><path d="M170.062 456.055c8.75-1.998 17.3 2.765 19.097 10.64 1.797 7.874-3.837 15.877-12.586 17.875-8.75 1.998-17.3-2.766-19.097-10.64-1.798-7.874 3.836-15.877 12.585-17.875z"/><path d="M176.36 484.61c1.254-.287 3.07-.636 4.266-.957 5.004-1.34 8.62-3.33 13.12-5.052 9.675-3.47 17.693-6.36 25.5-7.49 3.966-.314 5.984 1.564 8.184 3.015l9.747-25.886-64.814 18.346 3.997 18.024z"/><path d="M169.854 456.105c1.253-.286 3.04-.76 4.26-.99 5.088-.963 9.21-.74 14.01-1.14 10.224-1.07 18.702-1.945 26.227-4.315 3.71-1.44 4.712-4.007 6.065-6.268l20.013 19.092-66.354 11.594-4.22-17.973z"/></g></g><g fill="#FFF"><g stroke-width=".502"><path d="M344.166 598.36l-16.913-8.19L386.1 465.21l25.168 11.83z"/><path d="M315.74 584.677l16.95 8.11 60.972-123.934-24.946-12.294z"/></g><g stroke-width=".5"><path d="M294.152 632.16c3.893-8.087 12.948-11.802 20.225-8.298 7.278 3.504 10.022 12.9 6.13 20.985-3.893 8.085-12.948 11.8-20.226 8.297-7.276-3.504-10.02-12.9-6.128-20.985z"/><path d="M320.405 645.04c.557-1.16 1.415-2.797 1.91-3.933 2.073-4.747 2.773-8.816 4.23-13.407 3.32-9.73 6.058-17.8 10.043-24.61 2.228-3.295 4.954-3.7 7.46-4.517l-14.16-23.76-26.067 62.113 16.585 8.113z"/><path d="M294.06 632.353c.56-1.158 1.305-2.85 1.884-3.946 2.42-4.58 5.163-7.663 7.844-11.665 5.537-8.662 10.14-15.835 12.978-23.197 1.187-3.796-.195-6.18-1.12-8.648l27.405-3.744-32.306 59.107-16.683-7.907z"/></g></g><g fill="#FFF"><g stroke-width=".502"><path d="M513.88 584.434l-16.95 8.115-61.007-123.917 24.942-12.3z"/><path d="M485.457 598.127l16.91-8.197-58.882-124.94-25.165 11.838z"/></g><g stroke-width=".5"><path d="M509.12 644.61c-3.894-8.086-1.152-17.48 6.124-20.987 7.277-3.505 16.333.207 20.228 8.292 3.895 8.085 1.153 17.48-6.123 20.986-7.278 3.506-16.334-.206-20.23-8.29z"/><path d="M535.56 632.114c-.56-1.158-1.305-2.85-1.884-3.946-2.42-4.58-5.164-7.663-7.845-11.665-5.536-8.66-10.14-15.834-12.978-23.195-1.187-3.797.195-6.182 1.12-8.65l-27.406-3.74 32.31 59.104 16.683-7.908z"/><path d="M509.216 644.8c-.557-1.158-1.416-2.795-1.912-3.93-2.072-4.748-2.772-8.816-4.23-13.407-3.32-9.73-6.058-17.8-10.043-24.61-2.228-3.294-4.954-3.7-7.46-4.516l14.16-23.76 26.07 62.11-16.584 8.114z"/></g></g><g fill="#FFF"><g stroke-width=".502"><path d="M608.895 442.987L604.67 461.3l-134.917-29.564 5.933-27.17z"/><path d="M601.88 473.746l4.134-18.332-134.395-31.862-6.436 27.056z"/></g><g stroke-width=".5"><path d="M652.975 484.226c-8.75-1.996-14.386-9.997-12.59-17.872 1.796-7.875 10.345-12.64 19.094-10.645 8.75 1.994 14.385 9.996 12.59 17.87-1.797 7.875-10.346 12.64-19.095 10.646z"/><path d="M659.69 455.765c-1.255-.285-3.042-.758-4.26-.99-5.09-.962-9.21-.74-14.01-1.138-10.225-1.07-18.703-1.945-26.228-4.314-3.71-1.44-4.712-4.007-6.064-6.268l-20.013 19.093 66.355 11.59 4.22-17.973z"/><path d="M653.184 484.27c-1.253-.286-3.07-.635-4.266-.956-5.003-1.34-8.62-3.33-13.118-5.052-9.677-3.47-17.695-6.36-25.503-7.49-3.966-.312-5.983 1.565-8.183 3.016l-9.748-25.885 64.814 18.344-3.996 18.024z"/></g></g><g fill="#FFF"><g stroke-width=".502"><path d="M557.852 280.473l11.684 14.72-107.233 87.05-17.543-21.578z"/><path d="M577.527 305.136l-11.755-14.662-108.703 85.21 17.14 21.898z"/></g><g stroke-width=".5"><path d="M617.578 271.72c-7.016 5.598-16.786 5.016-21.823-1.298-5.037-6.314-3.433-15.97 3.583-21.566 7.015-5.597 16.785-5.015 21.822 1.3 5.037 6.313 3.433 15.97-3.582 21.565z"/><path d="M599.513 248.727c-1.005.802-2.49 1.905-3.43 2.713-3.925 3.378-6.32 6.74-9.625 10.244-7.213 7.326-13.18 13.41-19.726 17.816-3.437 2.002-6.07 1.186-8.68.833l2.45 27.55 50.432-44.652-11.42-14.503z"/><path d="M617.744 271.586c-1.006.8-2.41 2.002-3.408 2.738-4.167 3.077-7.978 4.665-12.13 7.107-8.746 5.403-16.005 9.87-21.756 15.27-2.717 2.906-2.506 5.654-2.744 8.278l-26.315-8.517 54.753-39.236 11.6 14.362z"/></g></g><path d="M391.802 341.41c-.29 6.863-5.94 12.343-12.875 12.343-2.84 0-5.463-.912-7.594-2.468l-3.344 1.593 6.843 14.157 30-14.47-6.812-14.155-6.218 3zm-48.964 45.698c5.184 4.507 5.947 12.34 1.623 17.763a12.803 12.803 0 0 1-6.663 4.398l-.84 3.608 15.336 3.476 7.392-32.476-15.315-3.5-1.532 6.732zm5.144 66.742c6.756-1.243 13.356 3.044 14.9 9.805.632 2.77.326 5.53-.717 7.953l2.298 2.905 12.278-9.822-20.78-26.027-12.286 9.792 4.308 5.395zm55.391 37.567c3.24-6.057 10.707-8.544 16.955-5.536a12.826 12.826 0 0 1 5.77 5.52l3.705.015-.024-15.724-33.308.022-.004 15.71 6.904-.005zm63.847-20.103c-2.715-6.31-.003-13.7 6.244-16.708a12.8 12.8 0 0 1 7.913-1.07l2.32-2.888-12.307-9.784-20.75 26.053 12.28 9.798 4.3-5.4zm24.38-62.424c-6.625-1.81-10.71-8.538-9.168-15.3a12.817 12.817 0 0 1 4.096-6.853l-.81-3.614-15.324 3.522 7.43 32.467 15.32-3.492-1.543-6.73zm-33.605-57.88c-5.548 4.053-13.354 3.054-17.678-2.368a12.814 12.814 0 0 1-2.805-7.476l-3.33-1.62-6.8 14.177 30.016 14.432 6.82-14.152-6.223-2.992z" fill="#FFF"/></g></g></g><path d="M3727.11 1106.99c531.944.034 962.98 430.55 962.98 961.912-.438 43.736-3.77 87.416-10.053 130.723l-1.49 10.17 10.316.44c525.43 8.72 947.11 436.228 947.11 961.105 0 531.38-431.116 961.968-963.122 961.968H2098.003c-531.993 0-963.046-430.59-963.046-961.968.57-448.68 311.537-837.263 749.57-936.748l9.173-2.06-2.456-9.102a590.887 590.887 0 0 1-20.502-154.283c0-328.452 266.405-594.513 595.235-594.513 145.678.44 286.173 53.755 394.943 150.536l8.708 7.7 5.362-10.242c166.11-316.593 494.203-515.368 852.05-515.393l.07-.246z" stroke="#B3B3B3" stroke-width="20" fill="#FFF"/><g transform="translate(4006.7)"><mask id="d" fill="#fff"><use xlink:href="#c"/></mask><use fill="#D8D8D8" xlink:href="#c"/><g mask="url(#d)"><path d="M0 1275.532V615.215C0 81.883 76.026 5.692 608.213 5.692h660.836c532.184 0 608.21 76.19 608.21 609.523v660.317c0 533.333-76.026 609.523-608.21 609.523H608.212C76.026 1885.055 0 1808.865 0 1275.532z" fill="url(#e)" transform="translate(-60.267 -85.63)"/><path d="M878.363 252.866c-334.794 0-606.2 271.708-606.2 606.878 0 199.792 96.23 376.997 245.047 487.582 30.8-40.194 44.214-68.09 48.276-83.2 4.73-17.593 3.663-20.592-.61-34.872-3.784-12.642-20.46-31.456-47.055-67.907-.373-.513-.843-1.316-1.22-1.835-.185-.223-.428-.39-.612-.612-20.683-25.09-37.98-52.913-53.164-81.977-33.964-65.016-53.776-138.726-53.776-217.18 0-138.013 59.955-261.527 154.605-347.486 83.306-75.656 193.374-122.354 314.71-122.354 121.498 0 231.977 46.52 315.32 122.354a470.692 470.692 0 0 1 31.777 31.812c.287.318.325.904.61 1.223 75.228 83.325 121.608 193.29 121.608 314.45 0 113.526-39.99 217.94-106.94 299.157-.147.202-.466.41-.612.612-.463.56-.755 1.277-1.222 1.835-26.594 36.45-43.27 55.265-47.053 67.907-4.273 14.28-5.34 17.28-.61 34.87 4.062 15.112 17.477 43.008 48.275 83.202 148.817-110.585 245.046-287.79 245.046-487.582 0-335.17-271.403-606.878-606.197-606.878zm0 254.497c-69.004.117-136.793 20.615-194.326 58.73C522.723 672.963 478 892.198 584.43 1053.675c.156.24.455.375.61.612 33.124 50.096 74.61 86.378 91.053 141.32 14.886 49.738 15.81 112.215-58.053 212.284 42.153 20.1 86.992 35.316 133.828 45.272 70.205-113.684 79.563-216.67 55.61-296.71-29.265-97.776-99.513-163.944-108.775-178.025h.61c-66.15-99.84-39.347-232.397 60.5-298.544 35.11-23.26 76.443-35.365 118.55-35.483h.61c42.05.117 82.878 12.227 117.94 35.483 99.71 66.135 127.17 198.722 61.11 298.544-9.263 14.08-79.51 80.25-108.774 178.026-23.956 80.038-14.597 183.025 55.608 296.71 46.835-9.957 91.675-25.172 133.828-45.272-73.863-100.068-72.94-162.545-58.053-212.284 16.443-54.94 57.93-91.223 91.052-141.32 106.92-161.56 62.384-381.154-98.996-488.193-57.47-38.116-124.79-58.61-193.716-58.73h-.61zm0 254.497c-54 0-97.774 43.824-97.774 97.884s43.774 97.883 97.773 97.883c54 0 97.774-43.824 97.774-97.883 0-54.06-43.775-97.884-97.774-97.884zm0 698.643c-.99 2.03-2.047 4.09-3.056 6.118 1.025.006 2.03 0 3.056 0 1.025 0 2.03.006 3.055 0-1.01-2.028-2.067-4.087-3.055-6.117z" fill="#F05C56"/><path d="M878.363 252.866c-334.794 0-606.2 271.708-606.2 606.878 0 2.453-.028 4.894 0 7.34 6.54-329.496 275.507-594.64 606.2-594.64 330.693 0 599.66 265.144 606.198 594.64.03-2.446 0-4.887 0-7.34 0-335.17-271.403-606.878-606.197-606.878zm0 254.497c-69.004.117-136.793 20.615-194.326 58.73-104.673 69.345-159.997 185.952-157.05 303.44 3.387-110.673 58.248-218.407 157.05-283.863 57.533-38.115 125.322-58.613 194.326-58.73h.61c68.927.12 136.248 20.614 193.716 58.73 98.517 65.344 152.884 172.823 156.437 283.25 2.712-117.212-52.09-233.615-156.438-302.827-57.47-38.116-124.79-58.61-193.716-58.73h-.61zm0 254.497c-54 0-97.774 43.824-97.774 97.884 0 3.378.276 6.497.61 9.788 5.007-49.358 46.54-88.095 97.163-88.095 50.624 0 92.156 38.737 97.163 88.095.334-3.29.61-6.41.61-9.788 0-54.06-43.774-97.884-97.773-97.884zM409.048 867.085c-.105 4.08 0 8.13 0 12.235 0 78.453 19.812 152.164 53.776 217.18 15.183 29.064 32.48 56.886 53.164 81.977.182.22.435.388.61.61.38.52.85 1.324 1.223 1.837 26.596 36.45 43.272 55.265 47.055 67.906.935 3.126 1.844 5.637 2.445 7.953 2.38-11.175 1.112-15.643-2.445-27.53-3.783-12.64-20.46-31.455-47.054-67.906-.373-.513-.843-1.316-1.22-1.835-.185-.223-.428-.39-.612-.612-20.683-25.09-37.98-52.913-53.164-81.977-32.904-62.988-52.584-134.123-53.776-209.838zm938.02 0c-1.7 110.658-40.838 212.367-106.33 291.815-.147.202-.466.41-.612.612-.463.56-.755 1.277-1.222 1.835-26.594 36.45-43.27 55.265-47.053 67.907-3.557 11.886-4.823 16.354-2.444 27.53.6-2.317 1.51-4.828 2.445-7.954 3.784-12.64 20.46-31.455 47.054-67.906.466-.558.76-1.276 1.222-1.836.145-.2.475-.41.612-.61 66.95-81.217 106.94-185.633 106.94-299.158 0-4.096-.506-8.166-.61-12.235zm-683.197 3.67c-1.576 43.43 9.382 87.913 35.444 127.25h-.61c9.26 14.08 79.51 80.248 108.773 178.025 7.325 24.476 11.303 51.11 11.61 79.53 1.84-35.823-2.627-69.093-11.61-99.107-29.264-97.777-99.512-163.945-108.774-178.026h.61c-22.13-33.4-33.372-70.66-35.442-107.672zm429.596 0c-1.964 37.014-13.343 74.278-35.443 107.672-9.263 14.08-79.51 80.25-108.774 178.026-8.984 30.014-13.45 63.284-11.612 99.107.308-28.42 4.285-55.054 11.61-79.53 29.265-97.777 99.512-163.946 108.774-178.026 26.027-39.328 37.15-83.816 35.444-127.25zm-410.04 390.31c-3.22 38.695-20.357 85.82-65.386 146.826 3.353 1.6 7.002 2.747 10.388 4.283 44.01-64.014 56.478-111.915 54.998-151.107zm389.874 0c-1.48 39.193 10.988 87.094 54.998 151.108 3.386-1.536 7.035-2.683 10.388-4.282-45.03-61.005-62.165-108.13-65.386-146.824zm-194.937 199.438c-.99 2.03-2.047 4.09-3.056 6.118 1.025.006 2.03 0 3.056 0 1.025 0 2.03.006 3.055 0-1.01-2.028-2.067-4.087-3.055-6.117z" fill="#DD322B"/></g></g><g transform="translate(5078.26 2957.12)"><mask id="g" fill="#fff"><use xlink:href="#f"/></mask><use fill="#D8D8D8" xlink:href="#f"/><g mask="url(#g)"><path d="M9.28 1237.726V756.784c0-388.453 55.514-443.947 444.123-443.947h482.55c388.607 0 444.122 55.494 444.122 443.947v480.942c0 388.453-55.515 443.946-444.122 443.946h-482.55c-388.61 0-444.124-55.493-444.124-443.946z" fill="url(#h)" transform="translate(-92.87 -404.006)"/><path d="M246.237 678.975c-3.744 10.178-7.494 20.36-11.24 30.544-9.274 9.163-18.547 18.345-27.824 27.514-10.14 10.032-12.32 9.963-9.94 24.152 2.798 16.672 10.825 33.853 25.603 48.65 15.537 15.55 48.16 37.56 71.634 27.186-2.182 7.877-5.078 16.135-8.765 24.21-15.74 34.465 22.62 41.216 49.468 48.466 22.312 6.025 77.068 22.078 84.97-7.204 3.554-13.176 4.105-20.256 2.84-32.836 6.943-15.475 9.16-17.942 14.907-26.458 7.886-11.68 7.32-16.124 5.594-30.618-.333-2.794-.74-5.84-1.21-9.04 26.57 3.99 52.115 3.942 78.153.717-7.906 4.598-15.834 8.626-26.29 13.995-24.816 12.738-1.43 50.318 9.265 66.776 22.447 34.542 42.574 58.307 80.493 37.817 12.738-6.885 13.72-14.22 21.67-26.072 4.392-2.406 27.023-21.625 40.482-32.482 5.1 6.11 14.865 7.236 29.672 8.305 7.45.54 36.67.356 44.415.406 23.237.145 37.182-2.263 39-27.55.86-11.992.345-14.543-5.563-25.025-.357-13.23-.71-26.46-1.063-39.685-.406-14.9-3.255-24.04-9.11-37.96-5.324-12.64-8.306-23.43-14.523-35.69.853-4.807 1.53-9.767 1.99-14.95 7.9 7.6 15.797 15.203 23.697 22.803 15.06 14.485 27.503 26.315 50.465 25.232 23.912-1.125 51.288-19.937 58.3-42.947 2.336-7.68 4.666-15.36 7.004-23.038 36.06 6.805 78.206 5.247 109.605-11.482 46.18-24.61 67.786-74.09 73.097-126.43 4.297-42.342-3.974-113.543-24.19-152.177-5.944-11.36-32.787-25.735-44.554-13.828-8.866 8.974-14.955 22.644-24.527 30.81-7.414 6.326-16.597 9.458-24.644 12.77-6.23-16.796-15.184-29.85-26.148-42.893-8.718-10.367-16.932-15.533-28.43-22.722-22.718-14.207-40.347-32.14-61.02-49.16-62.553-51.503-116.27-49.923-194.21-17.166-37.185 15.63-55.12 36.842-77.927 67.306-13.782.718-23.25 3.384-37.82 16.222-10.753 9.477-20.765 19.227-30.456 29.33-72.854 11.593-118.1 25.457-165.97 67.833-19.478 17.245-33.638 36.355-44.683 57.837-10.253 11.314-20.448 22.913-33.986 28.118-9.53 3.66-9.353 3.65-12.71-5.3 11.33-8.505 11.152-24.513 12.2-39.002 7.15.342 9.83 8.35 14.69 14.476 2.87-12.812 4.533-32.71-8.97-39.693 2.195-5.86 4.68-11.768 6.955-18.232-19.917 3.454-88.202 49.414-51.768 84.467 2.4 9.733 4.287 16.438 7.455 23.02 8.337 17.31 27.08 20.278 43.415 13.917-4.476 20.493-5.383 42.79-2.69 74.093.647 7.504 1.732 15.075 3.19 22.668" fill="#000"/><path d="M250.565 680.56c-1.504 4.09-3.014 8.187-4.52 12.28l-8.654-3.17c1.507-4.092 3.018-8.19 4.52-12.28l8.655 3.17zm-4.52 12.28c-2.24 6.084-4.482 12.177-6.72 18.263l-8.654-3.17c2.238-6.085 4.482-12.178 6.72-18.262l8.656 3.17zm-6.72 18.263l-1.083 1.673-3.244-3.257 4.326 1.583zm-1.083 1.673c-4.913 4.856-9.83 9.72-14.746 14.58l-6.488-6.514c4.914-4.86 9.832-9.725 14.745-14.58l6.49 6.514zm-14.746 14.58c-4.357 4.312-8.72 8.627-13.08 12.936l-6.488-6.515c4.36-4.31 8.722-8.624 13.08-12.935l6.488 6.515zm-13.08 12.936c-1.992 1.97-2.668 2.62-3.268 3.197l-6.382-6.66c1.33-1.28 2.8-2.695 3.162-3.053l6.49 6.515zm-3.268 3.197c-5.903 5.674-7.07 6.8-5.37 16.94l-9.088 1.513c-2.506-14.94-.758-16.623 8.076-25.114l6.382 6.66zm-5.37 16.94c1.37 8.163 4.088 16.493 8.355 24.6l-8.185 4.286a91.08 91.08 0 0 1-9.258-27.373l9.087-1.514zm8.355 24.6c3.962 7.532 9.235 14.825 15.965 21.565l-6.524 6.48c-7.47-7.48-13.287-15.512-17.626-23.76l8.185-4.284zm15.965 21.565c8.612 8.62 22.67 19.302 37.3 24.853l-3.245 8.607c-15.99-6.067-31.258-17.65-40.58-26.98l6.525-6.48zm37.3 24.853c10.177 3.862 20.548 5.19 29.215 1.36l3.713 8.427c-11.18 4.94-23.93 3.467-36.173-1.18l3.244-8.607zm29.215 1.36l8.905-3.935-2.595 9.374-4.453-1.225-1.857-4.213zm6.31 5.44a173.186 173.186 0 0 1-4.068 12.767l-8.69-3.134c1.477-4.08 2.76-8.136 3.852-12.082l8.906 2.45zm-4.068 12.767c-1.454 4.01-3.1 8.076-4.948 12.126l-8.402-3.816c1.716-3.76 3.27-7.602 4.66-11.443l8.69 3.135zm-4.948 12.126c-7.798 17.072.374 26.06 13.04 31.83l-3.824 8.39c-17.33-7.89-28.463-20.29-17.618-44.036l8.402 3.817zm13.04 31.83c8.093 3.685 17.887 6.232 26.988 8.6l-2.307 8.893c-9.563-2.486-19.852-5.164-28.505-9.103l3.824-8.39zm26.988 8.6c2.405.622 4.736 1.23 6.41 1.682l-2.343 8.893a588.468 588.468 0 0 0-6.374-1.682l2.307-8.893zm6.41 1.682c10.975 2.963 29.95 8.397 47.007 9.476l-.58 9.217c-17.872-1.132-37.44-6.74-48.77-9.8l2.343-8.893zm47.007 9.476c15.414.975 29.157-1.618 32.338-13.404l8.906 2.34c-4.72 17.49-22.313 21.516-41.823 20.28l.58-9.216zm32.338-13.404c1.683-6.244 2.66-11.066 3.065-15.848l9.23.755c-.44 5.196-1.52 10.505-3.39 17.434l-8.905-2.34zm3.065-15.848c.408-4.805.24-9.47-.35-15.386l9.157-.865c.667 6.66.86 11.832.422 17.006l-9.23-.754zm-.35-15.386l.36-2.304 4.218 1.872-4.58.432zm.36-2.304c6.208-13.84 8.767-17.578 13.286-24.187l7.607 5.185c-4.177 6.11-6.543 9.57-12.455 22.744l-8.438-3.744zM432.05 843.6c.462-.676.856-1.25 2.02-2.973l7.64 5.147c-.292.436-1.254 1.84-2.053 3.01l-7.606-5.185zm2.02-2.973c3.522-5.22 5.142-8.706 5.66-12.31l9.123 1.26c-.74 5.162-2.785 9.74-7.142 16.197l-7.64-5.147zm5.66-12.31c.542-3.786-.003-8.305-.825-15.212l9.158-1.046c.902 7.583 1.504 12.542.79 17.518l-9.122-1.26zm-.825-15.212a389.27 389.27 0 0 0-.54-4.355l9.122-1.152c.276 2.072.467 3.534.576 4.46l-9.158 1.047zm-.54-4.355c-.104-.782-.333-2.354-.652-4.543l9.122-1.333c.143.98.357 2.51.652 4.724l-9.123 1.152zm-.652-4.543l-.9-6.146 6.146.926-.686 4.555-4.56.667zm5.246-5.22a270.785 270.785 0 0 0 38.608 3.012l-.036 9.215a280.076 280.076 0 0 1-39.943-3.12l1.37-9.11zm38.608 3.012c12.782.08 25.496-.726 38.317-2.314l1.083 9.146c-13.212 1.635-26.298 2.466-39.436 2.383l.036-9.216zm38.317-2.314l2.85 8.57-2.308-3.997-.542-4.574zm2.85 8.57c-7.45 4.333-14.885 8.15-24.372 13.017l-4.217-8.21c9.363-4.802 16.7-8.57 23.974-12.8l4.614 7.992zm-24.372 13.017l-2.117 1.086-4.217-8.21c.714-.366 1.424-.732 2.116-1.086l4.217 8.21zm-2.117 1.086c-9.75 5.004-9.838 15.513-6.395 26.52l-8.795 2.736c-4.718-15.08-4.09-29.733 10.974-37.466l4.216 8.21zm-6.395 26.52c3.907 12.49 12.203 25.636 17.41 33.65l-7.717 5.004c-5.486-8.442-14.235-22.32-18.488-35.918l8.796-2.737zm17.41 33.65c10.9 16.774 21.18 30.897 32.985 38.12l-4.796 7.85c-13.35-8.17-24.364-23.203-35.907-40.966l7.718-5.005zm32.985 38.12c11.153 6.828 24.195 7.46 41.468-1.872l4.363 8.138c-20.642 11.156-36.628 10.152-50.627 1.583l4.795-7.85zm41.468-1.872c8.163-4.412 10.903-9.202 14.593-15.658l8.04 4.536c-4.458 7.8-7.77 13.584-18.27 19.26l-4.363-8.138zm14.593-15.658c1.468-2.57 3.08-5.383 5.438-8.9l7.643 5.11c-1.888 2.816-3.538 5.7-5.04 8.326l-8.04-4.536zm5.438-8.9l1.605-1.495 2.216 4.05-3.822-2.556zm1.605-1.495c2.693-1.477 14.203-10.97 25.397-20.208l5.878 7.092c-11.575 9.552-23.483 19.374-26.843 21.214l-4.433-8.1zm25.397-20.208c5.763-4.754 11.448-9.445 14.398-11.824l5.804 7.2c-5.4 4.356-9.843 8.02-14.325 11.716l-5.878-7.093zm14.398-11.824l3.535-2.85 2.92 3.498-3.553 2.953-2.902-3.6zm6.454.648c1.84 2.205 4.75 3.568 8.706 4.514l-2.127 8.965c-5.9-1.41-10.428-3.673-13.685-7.574l7.104-5.905zm8.706 4.514c4.542 1.085 10.51 1.617 17.738 2.136l-.65 9.216c-7.577-.546-13.902-1.118-19.215-2.387l2.126-8.966zm17.738 2.136c5.67.41 23.78.4 35.474.397v9.216c-11.948.006-30.45.014-36.124-.397l.65-9.216zm35.474.397c3.71-.002 6.79-.002 8.635.01l-.038 9.215c-1.84-.01-4.907-.01-8.6-.01v-9.215h.003zm8.635.01c10.898.066 19.538-.418 25.242-3.645l4.544 8.03c-7.53 4.258-17.487 4.906-29.822 4.83l.037-9.216h-.002zm25.242-3.645c5.213-2.95 8.345-8.76 9.125-19.623l9.23.648c-1.036 14.42-5.79 22.464-13.81 27.003l-4.545-8.028zm9.125-19.623c.4-5.582.493-8.91-.135-11.764l9.013-1.982c.89 4.038.81 7.986.35 14.394l-9.228-.65zm-.135-11.764c-.628-2.857-2.108-5.82-4.85-10.686l8.075-4.502c3.163 5.612 4.9 9.173 5.788 13.206l-9.013 1.982zm-4.85-10.686l-.578-2.143 4.615-.108-4.038 2.25zm-.578-2.143c-.177-6.612-.358-13.23-.532-19.842l9.23-.216c.173 6.61.354 13.23.532 19.842l-9.23.215zm-.532-19.842c-.176-6.613-.357-13.23-.53-19.84l9.23-.218c.173 6.61.354 13.23.53 19.842l-9.23.215zm-.53-19.84c-.192-7.102-.96-12.8-2.367-18.34l8.942-2.233c1.582 6.23 2.442 12.558 2.654 20.355l-9.23.217zm-2.367-18.34c-1.418-5.58-3.53-11.164-6.382-17.947l8.508-3.565c3 7.133 5.244 13.087 6.816 19.28l-8.942 2.232zm-6.382-17.947c-2.02-4.795-3.75-9.455-5.446-14.022l8.655-3.17c1.615 4.354 3.264 8.795 5.3 13.627l-8.51 3.565zm3.21-17.21v.02l-4.328 1.583 4.327-1.6zm-8.656 3.206c-2.637-7.104-5.196-13.995-8.952-21.4l8.257-4.14c3.942 7.772 6.606 14.942 9.35 22.335l-8.655 3.204zm-8.952-21.4l-.415-2.862 4.544.792-4.13 2.07zm-.415-2.862c.454-2.57.836-4.955 1.125-7.116l9.123 1.152a179.411 179.411 0 0 1-1.16 7.548l-9.087-1.584zm1.125-7.116c.26-1.962.527-4.42.793-7.417l9.23.754c-.193 2.18-.498 4.803-.9 7.814l-9.122-1.152zm.793-7.417l.86-9.637 6.947 6.683-3.19 3.33-4.616-.377zm7.807-2.954c4.52 4.346 9.042 8.7 13.56 13.047l-6.382 6.66c-4.52-4.348-9.04-8.7-13.56-13.047l6.382-6.66zm13.56 13.047l10.138 9.754-6.382 6.66-10.138-9.754 6.383-6.66zm10.138 9.754c7.318 7.04 14.003 13.436 21.422 17.807l-4.686 7.958c-8.306-4.894-15.38-11.66-23.117-19.104l6.382-6.66zm21.422 17.807c7.134 4.204 15.18 6.64 25.635 6.148l.434 9.216c-12.506.59-22.167-2.346-30.755-7.406l4.687-7.958zm25.635 6.148c11.282-.53 23.466-5.365 33.595-12.826l5.48 7.415c-11.535 8.5-25.544 14.01-38.64 14.628l-.435-9.216zm33.595-12.826c9.666-7.12 17.373-16.566 20.503-26.846l8.836 2.666c-3.74 12.275-12.698 23.373-23.858 31.595l-5.48-7.414zM858.91 695.9l3.238-10.646 8.835 2.665c-1.077 3.546-2.158 7.098-3.237 10.646l-8.836-2.666zm3.238-10.646c1.253-4.13 2.513-8.265 3.768-12.392l8.835 2.666c-1.254 4.127-2.513 8.262-3.767 12.39l-8.835-2.664zm3.768-12.392l1.203-3.953 4.06.767-.846 4.518-4.418-1.333zm5.264-3.185c18.688 3.527 39.038 4.758 58.596 2.71l.9 9.147c-20.447 2.14-41.695.856-61.19-2.822l1.694-9.035zm58.596 2.71c17.182-1.798 33.754-6.154 48-13.743l4.327 8.138c-15.305 8.155-33.052 12.827-51.426 14.752l-.9-9.146zm48-13.743c20.865-11.12 36.535-27.544 47.818-47.06l8.004 4.572c-12.123 20.97-28.993 38.635-51.495 50.626l-4.328-8.138zm47.818-47.06v-.02l4.002 2.304-4.002-2.286zm0-.02c12.893-22.3 20.114-48.61 22.864-75.715l9.158.863c-2.882 28.414-10.468 56.024-24.018 79.46l-8.004-4.61zm22.864-75.715c2.24-22.09 1-52.215-3.632-81.35l9.088-1.44c4.75 29.88 6.013 60.863 3.702 83.653l-9.158-.864zm-3.632-81.35c-4.083-25.7-10.8-50.552-20.072-68.27l8.186-4.25c9.73 18.594 16.743 44.45 20.974 71.08l-9.088 1.44zm-20.072-68.27c-.725-1.39-1.932-2.905-3.482-4.432l6.454-6.59c2.225 2.196 4.028 4.5 5.214 6.772l-8.186 4.25zm-3.482-4.432c-3.956-3.898-9.834-7.59-15.922-9.68l2.992-8.714c7.395 2.54 14.55 7.042 19.384 11.804l-6.454 6.59zm-15.922-9.68c-5.648-1.942-11.34-2.477-15.404-.355l-4.256-8.174c6.558-3.424 14.818-2.876 22.652-.186l-2.992 8.713zm-15.404-.355a9.362 9.362 0 0 0-2.354 1.737l-6.6-6.445a18.758 18.758 0 0 1 4.698-3.466l4.256 8.173zm-2.354 1.737c-3.773 3.82-7.085 8.65-10.404 13.49l-7.607-5.185c3.586-5.232 7.166-10.45 11.413-14.75l6.6 6.445zm-10.404 13.49c-4.366 6.368-8.752 12.765-14.43 17.608l-5.984-7.02c4.8-4.097 8.814-9.95 12.807-15.773l7.608 5.185zm-14.43 17.608c-6.95 5.93-15.008 9.158-22.49 12.155l-3.426-8.567c6.805-2.724 14.13-5.66 19.932-10.61l5.984 7.022zm-22.49 12.155c-1.306.52-2.585 1.035-3.398 1.37l-3.496-8.533c1.433-.59 2.454-.998 3.468-1.404l3.425 8.567zm-3.398 1.37l-4.407 1.812-1.668-4.495 4.327-1.584 1.748 4.266zm-6.075-2.683c-2.984-8.046-6.646-15.233-10.884-21.99l7.825-4.895c4.535 7.228 8.47 14.97 11.714 23.716l-8.655 3.17zm-10.884-21.99c-4.282-6.828-9.137-13.19-14.47-19.534l7.068-5.905c5.627 6.696 10.738 13.39 15.227 20.545l-7.824 4.895zm-14.47-19.534c-4.12-4.9-8.116-8.568-12.432-11.85l5.587-7.31c4.842 3.684 9.316 7.79 13.913 13.255l-7.068 5.906zm-12.432-11.85c-4.308-3.277-9.203-6.348-14.915-9.918l4.902-7.812c5.783 3.615 10.747 6.73 15.6 10.42l-5.587 7.31zm-14.915-9.918c-16.09-10.06-29.578-21.876-43.337-33.93l6.056-6.947c13.47 11.802 26.673 23.366 42.183 33.066l-4.902 7.812zm-43.337-33.93c-5.793-5.072-11.637-10.192-18.17-15.57l5.878-7.13c6.046 4.98 12.227 10.392 18.348 15.753l-6.056 6.948zm-18.17-15.57c-30.48-25.095-58.705-37.254-88.687-39.14l.577-9.215c31.998 2.01 61.915 14.82 93.987 41.225l-5.88 7.13zm-88.687-39.14c-30.206-1.897-62.482 6.55-100.802 22.656l-3.57-8.496c39.615-16.65 73.173-25.37 104.95-23.375l-.58 9.216zm-100.802 22.656c-18.06 7.59-31.424 16.518-43.02 27.227l-6.238-6.77c12.366-11.42 26.567-20.917 45.687-28.952l3.57 8.496zm-43.02 27.227c-11.685 10.79-21.73 23.537-32.995 38.586l-7.39-5.508c11.537-15.414 21.87-28.51 34.147-39.847l6.237 6.77zm-32.995 38.586l-1.303 1.742-2.16.112-.233-4.608 3.696 2.754zm-3.462 1.854c-6.417.333-11.79 1.108-17.135 3.242l-3.425-8.568c6.47-2.584 12.727-3.51 20.093-3.89l.468 9.216zm-17.135 3.242c-5.426 2.165-11.02 5.79-17.87 11.828l-6.094-6.912c7.713-6.797 14.148-10.93 20.54-13.484l3.425 8.568zm-17.87 11.828a459.76 459.76 0 0 0-15.466 14.287l-6.42-6.625a469.106 469.106 0 0 1 15.79-14.574l6.095 6.912zm-15.466 14.287l-.018.02-3.192-3.33 3.21 3.31zm-.018.02c-5 4.827-9.883 9.747-14.686 14.754l-6.67-6.373a552.715 552.715 0 0 1 14.973-15.04l6.382 6.66zm-14.686 14.754l-2.614 1.35-.72-4.536 3.334 3.187zm-2.614 1.35c-36.074 5.742-65.308 12.042-91.418 22.14l-3.316-8.605c26.695-10.324 56.515-16.756 93.293-22.608l1.442 9.074zm-91.418 22.14c-25.885 10.013-48.73 23.815-72.225 44.614l-6.096-6.912c24.37-21.574 48.092-35.898 75.004-46.307l3.316 8.606zm-72.225 44.614c-9.522 8.428-17.732 17.298-24.894 26.663l-7.32-5.58c7.545-9.867 16.16-19.18 26.118-27.995l6.095 6.912zm-24.894 26.663c-7.165 9.37-13.322 19.29-18.728 29.806l-8.22-4.176c5.634-10.962 12.085-21.344 19.63-31.21l7.318 5.58zm-18.728 29.806l-.685.99-3.426-3.078 4.11 2.088zm-.685.99c-5.25 5.79-10.486 11.66-16.104 16.71l-6.166-6.877c5.423-4.877 10.415-10.47 15.418-15.99l6.85 6.157zm-16.104 16.71c-5.89 5.294-12.274 9.795-19.652 12.633l-3.315-8.607c6.156-2.37 11.646-6.27 16.8-10.904l6.166 6.877zm-19.652 12.633h-.018l-1.64-4.303 1.658 4.303zm-.018 0c-5.92 2.272-8.816 3.412-12.095 2.024l3.57-8.497c.15.063 1.637-.75 5.245-2.134l3.28 8.606zm-12.095 2.024l-.018-.02 1.803-4.23-1.785 4.25zm-.018-.02c-3.46-1.464-4.425-4.3-6.565-10.007l8.654-3.204c1.215 3.242 1.19 4.613 1.517 4.75l-3.606 8.46zm-6.565-10.007l-1.204-3.21 2.773-2.082 2.76 3.69-4.328 1.603zm1.57-5.292c8.48-6.362 9.283-19.034 10.055-31.238l9.23.577c-.902 14.27-1.845 29.093-13.77 38.04L219 539.57zm10.055-31.238c.1-1.597.202-3.185.29-4.396l9.228.65c-.12 1.667-.206 3-.29 4.323l-9.228-.578zm.29-4.396l.327-4.496 4.503.213-.216 4.608-4.614-.324zm4.83-4.283c7.613.36 11.08 5.725 14.822 11.51l-7.753 4.97c-2.39-3.698-4.61-7.127-7.503-7.264l.433-9.217zM249 511.163c1.043 1.614 2.12 3.277 3.257 4.71l-7.21 5.725c-1.434-1.808-2.634-3.662-3.8-5.466l7.752-4.97zm4.158 8.563l-2.11 9.43-6-7.558 3.603-2.862 4.508.99zm-9.013-1.98c1.558-6.96 2.753-16.087 1.065-23.557l8.978-2.018c2.062 9.124.74 19.65-1.03 27.554l-9.013-1.98zm1.065-23.557c-1.072-4.75-3.37-8.835-7.64-11.043l4.218-8.21c7.06 3.653 10.763 9.985 12.4 17.235l-8.978 2.017zm-7.64-11.043l-3.648-1.887 1.43-3.82 4.327 1.602-2.11 4.105zm-2.218-5.706c.682-1.82 1.674-4.347 2.694-6.944l8.58 3.35c-.798 2.033-1.6 4.077-2.62 6.8l-8.654-3.205zm2.694-6.944c1.36-3.466 2.757-7.02 4.227-11.197l8.725 3.022c-1.314 3.73-2.865 7.68-4.372 11.524l-8.58-3.35zm7.814-14.223l7.74-1.34-2.602 7.39-4.363-1.513-.775-4.537zm1.55 9.075c-8.935 1.55-28.615 12.576-42.9 27.382l-6.672-6.373c15.586-16.153 37.722-28.3 48.022-30.084l1.55 9.075zm-42.9 27.382c-5.18 5.367-9.568 11.163-12.34 17.07l-8.363-3.854c3.267-6.962 8.244-13.59 14.03-19.59l6.672 6.374zm-12.34 17.07c-2.645 5.632-3.852 11.397-2.88 16.994l-9.087 1.55c-1.318-7.586.205-15.158 3.604-22.398l8.363 3.853zm-2.88 16.994c.883 5.085 3.618 10.197 8.77 15.152l-6.384 6.66c-6.676-6.424-10.26-13.278-11.473-20.263l9.088-1.55zm8.77 15.152l1.28 2.23-4.473 1.1 3.192-3.33zm1.28 2.23c1.17 4.762 2.22 8.787 3.364 12.424l-8.796 2.736c-1.19-3.79-2.288-7.992-3.51-12.96l8.94-2.2zm3.364 12.424c1.093 3.48 2.286 6.607 3.782 9.716l-8.328 3.96c-1.67-3.47-3.01-6.994-4.25-10.94l8.796-2.736zm3.782 9.716c3.32 6.894 8.57 11.09 14.623 13.032l-2.813 8.783c-8.366-2.682-15.602-8.433-20.14-17.855l8.33-3.96zm14.623 13.032c7.06 2.263 15.275 1.57 22.95-1.418l3.355 8.567c-9.595 3.736-20.005 4.555-29.118 1.634l2.812-8.782zm22.95-1.418l8.014-3.122-1.83 8.377-4.507-.972-1.677-4.283zm6.183 5.255c-2.173 9.96-3.485 20.396-3.925 32.183l-9.23-.322c.46-12.31 1.844-23.274 4.143-33.804l9.013 1.943zm-3.925 32.183c-.44 11.792.008 25.02 1.345 40.56l-9.23.756c-1.355-15.76-1.803-29.336-1.345-41.638l9.23.322zm1.345 40.56c.34 3.956.75 7.6 1.217 10.932l-9.122 1.223c-.58-4.135-1.028-7.946-1.325-11.4l9.23-.755zm1.217 10.932c.517 3.672 1.15 7.43 1.882 11.25l-9.048 1.73c-.742-3.863-1.4-7.784-1.956-11.757l9.122-1.223zm1.882 11.25l-.197 2.448-4.328-1.584 4.525-.865z" fill="#000"/><path stroke="#1F1917" stroke-width=".5" fill="#FF0" d="M481.644 402.113l-60.76 9.86-55.442 24.268-47.09 29.58-44.81 54.605-25.315 26.773-24.477 9.01-6.474-15.8 11.32-16.318 2.543-23.01 7.58.305 8.286 7.546-2.234-23.438-9.184-6.15.28-8.933-21.756 12.288-19.7 23.208-4.106 20.743 8.423 16.61 7.857 28.22 15.98 7.554 16.81-.824 15.938-9.248-10.632 53.847 10.632 59.913-11.704 27.664-38.333 41.244 6.815 24.642 18.16 28.554 34.242 24.063 18.162 2.48 20.193.684-12.6 51.646 46.33 18.96 57.723 7.584 19.745-12.892 1.52-34.886 22.026-36.404 1.52-28.82 53.163 3.793 49.367-4.55-49.367 29.577 8.355 35.645 31.138 48.537 30.38 12.894 24.304-9.86 9.874-19.718 50.885-38.678 9.874 8.342 79.746 3.033 15.95-12.892 1.52-22.753-5.317-9.858-3.8-61.43-26.58-53.09 4.555-23.51 15.952 8.34 44.81 41.715 22.024 1.514 24.304-9.86 24.305-18.2 12.15-39.437 71.393 4.55 43.29-16.685 34.938-32.61 25.063-47.023 6.076-55.363-5.318-64.466-13.67-57.636-13.672-18.202-18.985-6.07-33.418 36.405-30.38 10.618-26.582-43.987-26.58-24.27-14.433-9.1-57.72-47.78-46.33-25.027-46.33-3.792-53.922 9.1-47.09 17.444-32.657 26.544-25.822 31.096-26.582 7.584z"/><path d="M305.426 538.99c-52.046 60.616-40.485 134.134-26.06 206.16-7.698-19.42-15.398-38.84-23.095-58.262-2.835-17.803-5.67-35.606-8.508-53.41.81-18.207 1.62-36.414 2.432-54.62 7.293-17.398 14.586-34.795 21.878-52.194l32.822-48.553c17.017-14.16 34.035-28.32 51.052-42.482 18.638-7.686 37.277-15.375 55.915-23.062l65.642-8.496c-20.26 23.06-40.52 46.125-60.78 69.186-48.8 15.806-77.58 26.45-111.296 65.734" fill="#FFC"/><path d="M550.434 354.303c-36.182 35.25-55.945 61.835-78.97 103.11-16.47 29.524-34.946 57.96-52.262 87.07-8.76 14.737-9.586 27.094-12.204 44.085l-25.526-30.344 12.156-36.415 41.328-74.043 87.52-86.18c9.32-2.43 18.638-4.856 27.958-7.284M729.12 266.91c-28.98 10.85-77.105 14.422-80.443 47.636-2.378 23.586 1.78 35.438 16.018 60.392-35.165-36.336-43.862-30.713-111.83-19.42l29.173-41.272 51.054-31.558 65.64-14.566c10.13-.405 20.26-.81 30.388-1.213" fill="#FFC"/><path d="M809.083 716.17c9.648 5.945 9.44 10.253 7.827 14.33 7.61-3.042 15.22-6.08 22.83-9.12l14.79-19.83 10.98-28.258c-4.677-3.51-9.352-7.022-14.03-10.534l-61.313 7.816-4.568 12.376 1.306 17.587c1.956 3.473 3.914 6.95 5.87 10.42 3.045 1.522 6.09 3.042 9.13 4.56 2.396.22 4.786.437 7.177.652m-5.707-104.709c-30.734 8.86-30.494 11.3-39.57 41.748 11.98-19.196 20.852-28.883 39.57-41.747m204.36-227.853c-5.463 2.52-10.782 3.734-14.197 8.726-7.353 10.742-13.654 19.778-25.813 27.32-6.124 3.8-12.46 6.26-18.953 8.28-5.387 1.673-8.62.18-13.206 3.47 2.72.474 5.44.95 8.16 1.426h17.992l22.18-13.68 13.045-13.678c3.597-7.288 7.194-14.578 10.792-21.864M518.16 451.717c-12.092 33.038-22.656 61.36-40.975 91.274 23.473-25.252 37.7-46.715 51.144-75.265 5.22-11.09 6.207-24.104 20.752-19.264.653 11.075 2.998 22.147 3.65 33.22 7.86-56.256 30.02-79.78 81.537-101.61-14.57 1.738-29.138 3.473-43.704 5.21-13.7 3.04-27.397 6.08-41.095 9.118-6.74 9.77-13.48 19.542-20.22 29.31l-11.09 28.01m99.801-1.305c11.11 52.214 27.105 102.323 34.054 155.366 4.513 34.467 5.007 51.026-12.36 80.76-18.98-1.224-30.762.913-49.12 6.92-73.084 23.923-114.997 59.096-164.24-11.776 15.72 7.396 31.44 14.794 47.16 22.194l33.62-6.6 59.358-34.52 46.31-9.12c5.003-20.842 10.002-41.686 15.004-62.528l-11.09-82.724c-.432-13.027-.867-26.054-1.304-39.082.872-6.297 1.74-12.593 2.61-18.89M743.854 773.49c-6.14 42.42 14.135 65.225 5.742 76.938-2.378 3.318-5.6 9.104-9.195 10.69-12.846 5.667-30.506-1.06-31.77 2.26h-42.4c-5.65-2.392-11.304-4.78-16.958-7.167 8.697-10.204 17.395-20.41 26.092-30.612l25.44-55.366c5.436-18.672 10.872-37.343 16.305-56.016h8.48c6.09 19.758 12.177 39.515 18.264 59.273" fill="#CC0"/><path d="M672.592 650.167c3.443 19.262 9.424 23.838 18.497 42.483-6.04 30.416-15.742 66.59-27.417 93.427-4.923 11.318-8.898 17.558-17.578 26.304-14.656 14.78-29.472 27.653-46.094 40.462-11.96 9.21-20.312 4.59-35.074 2.503-6.277 11.364-8.012 17.677-19.566 23.446-17.77 8.873-33.673-10.247-47.62-21.492 10.07 15.705 20.138 31.41 30.205 47.113l20.875 19.543c5.87.867 11.74 1.735 17.612 2.606 7.827-4.78 15.654-9.556 23.48-14.332 4.133-7.817 8.265-15.633 12.395-23.448 8.697-6.514 17.396-13.027 26.09-19.542l31.964-27.356c6.742-9.555 13.48-19.107 20.222-28.66 6.086-11.29 12.176-22.582 18.263-33.872 7.828-23.447 15.655-46.897 23.484-70.345.65-8.904 1.303-17.805 1.955-26.705-9.785-4.345-19.568-8.687-29.353-13.03-7.175-6.73-15.164-12.373-22.34-19.103m-234.01 135.695c32.923 0 67.69-1.824 97.843-15.632 8.534-12.784 16.956-23.223 27.398-34.52-9.503 17.92-12.483 28.05-15.003 48.2-3.263 4.773-6.523 9.55-9.786 14.328l-74.36 1.955c-8.046-.87-16.092-1.738-24.136-2.606-.87-.87-1.74-1.74-2.61-2.606.22-3.04.438-6.08.654-9.12m-4.567-22.797c-.85-7.706-1.703-15.415-2.556-23.125-5.625 33.808-4.273 56.464-19.854 86.748-11.64 13.468-25.97 25.722-42.384 32.28 1.386 8.302 1.8 13.49.996 19.578-2.892 21.897-46.76 12.224-64.803 11.352 28.952 7.444 57.904 14.885 86.853 22.33l19.57-7.817c2.175-12.59 4.35-25.185 6.523-37.777 6.09-11.29 12.178-22.582 18.264-33.87l3.263-20.844-5.872-48.854M385.093 572.22c-.91 16.438-1.974 23.292 5.286 37.81 9.228 18.455 20.562 35.79 30.59 54.03l3.26-36.476c-13.045-18.456-26.09-36.91-39.137-55.364M251.19 696.396c-2.822 6.002-5.646 12.005-8.47 18.006 7.772 26.14 14.68 42.7 29.48 65.535-2.578 9.253-4.507 13.3-10.438 20.843-13.024-2-24.588-2.58-37.785-2.54 14.57 11.29 29.14 22.58 43.705 33.87l21.525-3.907 21.526-21.495c-10.222-15.85-20.44-31.7-30.657-47.55-9.63-20.92-19.258-41.843-28.885-62.762M1007.83 374.96c8.872 39.86 20.315 76.64 19.253 117.464-1.303 50.085-11.078 113.35-57.55 143.552C917.49 669.8 856.4 653.802 799.298 639.31c23.267 9.552 46.532 19.104 69.795 28.658 21.744 1.087 43.488 2.17 65.23 3.258 14.787-4.344 29.57-8.686 44.356-13.027 11.523-9.555 23.047-19.108 34.57-28.66 8.697-18.238 17.394-36.478 26.092-54.715 3.26-21.062 6.523-42.123 9.783-63.18l-7.827-61.88-14.35-61.228c-6.37-4.527-12.744-9.05-19.117-13.577M231.175 493.76c-23.628 15.356-32.907 22.098-30.317 50.556 2.353 8.523 4.708 17.05 7.064 25.57 3.335 2.256 6.67 4.51 10.007 6.763 4.12 1.37 8.24 2.74 12.362 4.113l22.37-5.29 11.48-35.566-31.79 15.578h-7.358l-8.242-12.638 10.008-14.696 5.298-27.922 6.77 2.056c2.747 2.157 5.495 4.31 8.242 6.467-.392-4.898-.784-9.797-1.178-14.696l-5.593-9.405-5.593-4.705-3.532 13.816m530.07-224.254c20.967 19.443 46.704 36.344 63.475 60.106 6.49 9.2 13.703 13.903-.11 26.894 14.594-4.162 20.017-3.71 31.7-2.296 21.25 2.57 41.17 32.736 42.442 54.355-.25 2.022-5.904 6.61-22.336 11.14-.326.63-9.274-1.223-9.05-.618 1.706 4.666 3.988 5.38 7.472 7.564.757 5.19 1.243 13.192 4.782 18.866 10.34-.18 20.445.943 30.57 2.945 3.408 5.645 2.893 11.288 2.61 16.936l11.74-1.953c-1.088-8.904-2.174-17.805-3.26-26.705a38717.03 38717.03 0 0 1 10.436-17.587c-5.003-11.29-10.003-22.58-15.003-33.87l-28.7-27.358c-.92-.044-1.844-.092-2.764-.137-10.76-6.595-21.517-13.186-32.274-19.78-17.548-14.335-35.097-28.673-52.645-43.01-13.03-8.496-26.056-16.993-39.084-25.488m35.321 160.483c-1.106 1.932-2.776 5.02-4.916 7.157 8.733 8.25 13.042 13.775 16.155 25.442l-29.62 14.686-25.062 23.992c-10.995-5.91-13.736-10.45-19.057-21.718-6.196 1.638-12.067 3.215-17.184 1.34 3.246.025 5.24-.785 8.484-2.788l15.95-16.547 28.17-21.303 18.435-6c2.347-.963 6.296-3.294 8.645-4.26" fill="#CC0"/><path d="M823.818 459.416c-31.412 16.89-61.498 33.875-77.56 65.95 0-40.713 40.94-58.635 77.56-65.95m-83.795-80.088c-23.324 15.88-39.818 47.928-37.745 79.162-7.598-27.045-4.905-52.6 18.423-71.28 3.938-1.91 7.873-3.822 11.808-5.732 2.506-.716 5.01-1.432 7.515-2.15" fill="#CC0"/><path d="M784.606 620.43c4.82-2.62 13.572-6.223 18.393-8.843-4.96.836-13.85 2.656-18.81 3.49-13.246 2.234-14.804 5.414-16.86 18.437-.97 6.132-2.303 13.74-3.272 19.875 2.597-6.936 5.72-14.997 8.746-21.61 3.202-6.996 5.006-7.656 11.802-11.35zm-245.77-335.4c10.41-15.59 16.403-20.662 32.42-30.54-21.75 5.232-25.896 9.254-32.42 30.54zm-3.426 34.35c18.216-36.566 32.008-50.03 70.145-67.99-43.136 10.558-55.816 18.066-70.145 67.99zM145.33 509.713c3.998-18.31 7.724-25.218 19.03-40.248-18.34 12.794-20.73 18.05-19.03 40.248zm408.3 306.455c-.553-4.443-1.107-8.89-1.662-13.333-1-8.05-.96-14.592-.318-22.695.62-7.844 1.236-15.686 1.853-23.53-2.288 7.972-6.86 15.943-9.146 23.915-.914 3.19-1.672 5.77-2.105 8.156-34.132 6.965-68.016 7.4-102.158 1.32-2.177-12.622-4.83-25.775-7.053-35.202-.673 10.56-.24 39.752-.294 56.096-.042 12.665-.577 17-7.115 27.773-6.122 10.086-8.716 12.374-17.286 29.414.712 10.752.725 17.862-2.135 28.067-4.76 16.963-52.75 3.82-65.412.358-15.59-4.26-47.825-10.595-39.72-31.35 7.136-18.266 11.657-37.524 15.143-63.085-28.564-41.09-55.13-97.402-60.226-147.294-3.958-38.74-1.583-62.585 6.812-86.282 13.302-37.545 31.91-70.045 61.773-96.216 40.277-35.292 77.93-49.47 136.886-58.43-14.177 15.848-28.203 32.607-43.492 50.575-15.476 18.193-24.674 36.566-34.5 56.463-13.576 27.482-13.285 37.94 4.713 62.064 15.508 20.79 23.88 30.152 30.65 50.493-5.59 11.512-7.624 21.238-9.505 36.957 18.99 20.725 33.1 34.93 51.537 39.305 18.084 4.292 33.187 3.46 49.365-4.798 35.936-18.347 69.185-42.034 109.72-43.014 18.754-46.04 16.86-84.507 7.855-129.05-6.148-30.42-8.613-59.225-10.527-90.24-7.603 31.94-9.03 60.028-3.39 91.84 6.8 38.342 12.087 80.7-6.83 114.396-36.652 2.8-68.066 25.07-101.103 42.154-13.278 6.87-27.103 7.538-41.802 3.51-13.643-3.742-22.85-12.754-37.547-29.682-.23-16.994 3.61-24.84 11.426-40.228 12.557-24.717 26.418-47.724 41.627-72.045-18.625 22.45-36.27 41.202-50.928 63.77-5.603-15.94-13.613-24.034-26.885-41.982-12.964-17.53-14.322-25.208-4.63-45.494 9.746-20.387 18.012-38.307 34.6-56.192 28.662-30.908 54.918-65.307 86.262-95.745 17.018-16.527 23.927-15.956 46.502-19.373 20.402-3.087 40.325-6.987 61.133-11.815-20.125 1.873-39.577 2.562-59.168 3.047-.205.006-.406.013-.61.013 19.277-24.582 30.463-38.28 61.77-51.862 77.076-33.428 126.05-37.043 186.597 13.78 15.69 13.172 29.397 25.96 45.31 37.324-5.77.492-10.742 1.525-17.317 4.104 8.002-1.522 17.244-.012 25.55 1.503 2.33 1.51 4.725 2.982 7.182 4.428 11.23 6.607 17.605 10.257 25.2 20.827 8.03 11.17 14.722 22.33 20.62 34.63-3.864-1.378-7.105-2.544-9.994-3.402a21.443 21.443 0 0 0-6.892-1.85 21.54 21.54 0 0 0-13.38 3.105c-.155.073-.31.144-.468.22-6.212 3.02-15.837 6.464-22.278 7.508 3.283 1.132 10.55 1.556 13.977.202.46-.183.927-.32 1.406-.436a21.404 21.404 0 0 0-2.867 8.833c-.41 4.273.46 8.374 2.3 11.935.005.012.01.025.018.037.582 1.366 1.39 2.628 2.28 3.536-2.947 1.08-5.95 2.32-9.048 3.663 14.363-2.185 27.314-2.56 41.333-.716.924 4.413 1.856 9.09 2.72 13.846-1.74.138-3.47.27-5.207.405l-.423.04c-6.632-5.295-14.023-4.405-24.118-2.104-30.702 6.99-23.487 24.195-37.614 50.116 14.666-17.903 13.58-36.632 37.48-42.285 5.568-1.316 9.36-2.963 13.13-2.397-6.786 3.408-12.656 9.056-14.983 15.616-6.56 18.497-2.486 34.083-9.692 51.36 8.927-15.444 9.465-30.518 17.447-46.767 2.867-5.84 13.507-15.182 20.038-15.326l5.376-.115c1.574 10.282 2.53 20.49 1.92 28.957-1.112 15.45-5.132 38.385-7.54 47.16 8.087-10.38 11.77-32.363 15.322-47.837 3.7-16.116 2.765-35.452-.472-52.762-4.443-23.753 20.054-19.89 34.276-31.083 10.454-8.23 17.65-21.37 27.235-30.68 9.51-9.23 24.474 4.334 28.212 13.36 16.217 39.17 23.604 100.8 19.32 140.287-4.805 44.31-26.24 92.683-65.378 114.498-49.893 27.807-108.72 10.818-158.29-5.857-10.58-3.56-17.936-8.747-27.237-14.597 2.533 11.385 3.683 23.436.315 34.807-5.348 18.04-13.984 47.56 10.546 53.003 9.336 2.072 13.57 1.772 26.75-5.02-10.668 2.41-16.046 1.82-23.378.467-6.645-1.223-10.168-5.44-12.024-10.41 2.32 1.676 6.107 2.587 12.576 4.143 18.186 4.376 35.515-4.364 38.904-16.958 1.977-7.357 1.64-11.22 5.827-21.245a195.988 195.988 0 0 0 11.642 3.18c-2.25 7.332-4.505 14.673-6.757 22.005-5.845 19.038-28.615 34.39-48.722 34.038-18.587-.33-30.37-11.956-43.2-23.354a10146.84 10146.84 0 0 0-25.78-22.812c-23.133-7.288-41.674-15.806-63.143-31.677 15.277 17.93 25.643 27.856 46.95 36.778-3.1 31.565-14.085 54.578-23.45 84.786-4.238 13.66-37.703 68.39-46.977 73.727-6.613 3.803-48.03 38.642-55.824 43.236-5.804 7.696-10.897 18.33-19.62 22.933-26.585 14.036-43.668-12.84-57.975-35.543-6.516-10.34-24.602-40.127-8.834-48.47 14.91-7.888 23.26-13.52 38.47-23.49 2.234 4.066 6.07 7.99 8.57 12.054v.003zm92.418 48.126c-13.458 10.857-36.09 30.076-40.482 32.484-7.952 11.85-8.933 19.185-21.672 26.07-37.92 20.49-58.045-3.273-80.492-37.816-10.695-16.46-34.08-54.037-9.265-66.777 10.456-5.367 18.38-9.39 26.286-13.987-26.034 3.226-51.585 3.264-78.153-.727.47 3.2.88 6.246 1.212 9.04 1.727 14.495 2.294 18.94-5.592 30.62-5.75 8.518-7.964 10.983-14.907 26.458 1.263 12.58.715 19.66-2.84 32.836-7.902 29.28-62.658 13.23-84.97 7.204-26.847-7.25-65.21-14-49.468-48.466 3.69-8.075 6.585-16.333 8.765-24.21-23.475 10.375-56.097-11.633-71.634-27.188-14.778-14.795-22.805-31.976-25.602-48.648-2.382-14.19-.2-14.12 9.94-24.152 9.276-9.17 18.55-18.35 27.824-27.515 3.745-10.182 7.496-20.353 11.24-30.526-1.46-7.6-2.544-15.18-3.19-22.688-2.694-31.3-1.79-53.59 2.69-74.083-16.335 6.364-35.078 3.383-43.414-13.927-3.17-6.58-5.058-13.284-7.453-23.016-36.435-35.056 31.846-81.015 51.765-84.47-2.277 6.46-4.772 12.372-6.968 18.233 13.51 6.983 11.853 26.88 8.984 39.69-4.858-6.122-7.544-14.13-14.69-14.474-1.048 14.487-.867 30.496-12.198 39.002 3.355 8.953 3.18 8.96 12.712 5.3 13.54-5.204 23.733-16.8 33.99-28.116 11.044-21.484 25.202-40.595 44.68-57.838 47.862-42.374 93.103-56.238 165.95-67.83 9.697-10.105 19.718-19.854 30.474-29.334 14.572-12.84 24.033-15.507 37.815-16.224 22.806-30.46 40.75-51.675 77.932-67.303 77.936-32.758 131.656-34.337 194.21 17.167 20.672 17.018 38.3 34.952 61.02 49.16 11.497 7.188 19.713 12.356 28.43 22.72 10.96 13.044 19.914 26.09 26.145 42.878 8.05-3.308 17.232-6.426 24.646-12.753 9.572-8.168 15.66-21.838 24.527-30.812 11.767-11.907 38.61 2.467 44.554 13.828 20.216 38.634 28.487 109.835 24.19 152.176-5.31 52.34-26.918 101.82-73.098 126.43-31.4 16.73-73.543 18.288-109.608 11.48-2.338 7.68-4.666 15.36-7.004 23.04-7.012 23.01-34.386 41.82-58.3 42.95-22.96 1.08-35.404-10.75-50.462-25.234-7.9-7.6-15.805-15.195-23.705-22.795a172.82 172.82 0 0 1-1.99 14.947c6.22 12.262 9.206 23.043 14.53 35.685 5.855 13.922 8.706 23.06 9.11 37.96.352 13.227.707 26.458 1.062 39.684 5.908 10.48 6.425 13.032 5.565 25.027-1.82 25.28-15.763 27.692-39.002 27.547-7.742-.05-36.965.13-44.414-.406-14.807-1.07-24.57-2.198-29.672-8.305zm78.357-137.91c-4.674 16.672-10.958 32.408-16.694 50.445-5.427 17.075-33.267 66.656-49.654 78.672 3.19 2.372 9.044 3.3 19.473 4.2 7.378.635 36.466.77 43.77.896 16.08.28 22.182-.927 23.808-19.21.795-8.95.094-10.624-4.39-18.47l-1.19-41.986c-.373-13.268-2.924-20.91-8.147-33.274-3.126-7.4-4.823-14.306-6.975-21.272zM234.62 497.372c3.61-.41 5.842 1.482 8.634 4.268-.517-6.656-1.748-11.592-6.43-14.313a100.835 100.835 0 0 0-.927 3.263c-.566 2.143-.97 4.42-1.277 6.783zm22.68 48.098c-2.598 6.714-5.008 13.633-7.278 20.783a188.22 188.22 0 0 0-1.088 3.556c-13.73 5.815-31.785 9.51-38.696-4.9-3.356-6.992-5.25-13.855-7.698-22.695-22.61-23.39 11.19-54.272 29.6-65.35-2.664 5.72-4.556 10.05-5.848 14.508-5.598 19.318 2.534 36.56-15.025 50.565 8.252 16.627 7.872 23.258 27.07 15.574 7.407-2.963 13.514-7.122 18.964-12.04zm-5.29 157.417c10.407 35.943 28.13 71.26 47.78 100.95 0 .172-.003.342-.004.517-1.23 5.105-2.656 10.08-5.64 14.073-14.045 18.762-49.772-8.78-60.113-19.322-11.304-11.526-18.87-25.176-20.67-37.976-1.31-9.338-.04-9.565 6.484-16.17 8.793-8.89 17.595-17.784 26.384-26.67 1.925-5.137 3.856-10.268 5.78-15.402zm665.05-288.49a21.796 21.796 0 0 1 4.734 6.937 23.246 23.246 0 0 1 1.936-1.582 232.378 232.378 0 0 0-2.516-5.477c-1.424.03-2.806.07-4.155.12zm-172.036 64.652a28.034 28.034 0 0 1-2.74-11.88c-6.74 5.378-14.07 10.476-21.675 13.422 10.5-9.365 24.762-31.448 35.097-38.42 11.728-7.912 27.645-6.372 41.32-12.69-4.67 4.237-10.652 7.65-16.743 10.9 6.71 2.452 12.51 7.415 15.818 14.34a28.024 28.024 0 0 1 2.566 9.024c9.187-3.013 18.208-4.44 25.828-4.33-27.257 7.64-56.25 25.51-76.24 49.172 2.245-6.17 5.384-11.74 9.164-16.713a28.084 28.084 0 0 1-12.396-12.826zM618.63 380.585c-15.052 5.864-28.78 10.265-43.454 13.946-13.388 17.572-21.543 26.675-24.624 50.225-3.625-23.168-4.38-27.47 5.947-44.762-2.993 1.52-5.776 3.607-9.764 7.012-14.426 12.318-33.23 60.724-40.75 78.03 4.773-20.83 19.702-72.898 35.077-88.074 10.112-9.98 12.404-9.752 26.662-11.1 16.982-1.606 33.93-3.36 50.904-5.275zm314.158 50.508c12.21 1.153 19.19 3.035 30.123-2.365 20.38-10.07 35.374-26.51 45.097-46.173-5.948 23.46-17.917 43.393-42.746 52.235-12.193 4.338-20.055-.142-32.472-3.697zm-234.33 2.29c4.6-20.342 12.767-39.942 44.407-55.106-41.936 10.485-49.798 28.072-44.408 55.107zM154.692 542.942c3.598-40.68 11.52-58.243 40.467-88.858-36.307 25.546-45.367 37.154-40.467 88.86z" fill="#000"/><path d="M750.495 485.595c-2.803-5.852-.297-12.904 5.578-15.696 5.876-2.795 12.953-.298 15.755 5.558a11.7 11.7 0 0 1 .65 1.697c-5.61 4.156-10.756 9.057-15.067 14.732-2.906-1.166-5.476-3.286-6.915-6.292M881.78 434.88c.47-4.85 4.61-8.424 9.465-7.956 4.854.47 8.438 4.803 7.97 9.652a8.74 8.74 0 0 1-.797 2.89c-4.445.756-8.888 2.058-13.467 3.74-1.914-1.958-3.438-5.53-3.17-8.326" fill="#FFC"/></g></g><g transform="translate(4053.29 4261.046)"><mask id="k" fill="#fff"><use xlink:href="#j"/></mask><use fill="#D8D8D8" xlink:href="#j"/><g mask="url(#k)"><path d="M0 574.824V276.27C0 35.13 34.403.68 275.223.68h299.035c240.82 0 275.222 34.45 275.222 275.59v298.554c0 241.14-34.403 275.588-275.222 275.588H275.223C34.403 850.412 0 815.964 0 574.824z" fill="url(#l)" transform="translate(-31.426 -6.017)"/><path d="M2.423 22.138c6.18-9.63 26.825-23.212 45.905-21.69 22.02 1.757 48.636 8.132 76.444 18.06 15.482 5.527 3.25 42.013 3.25 42.013s8.704-14.48 11.843-36.32c43.048 17.096 87.452 42.065 121 71.084 9.013 7.797 6.454 46.777 6.454 46.777s4.23-13.91 5.35-34.837c28.222 22.57 50.195 43.432 70.02 61.05 22.36 19.867 15.747 37.108 15.747 37.108s8.288-3.972 11.19-16.74c74.53 76.505 66.117 112.75 58.664 133.998-27.78 10.917-58.432 18.504-88.132 11.998-32.44-7.106-68.23-30.158-94.73-58.505 22.21.106 28.77-3.952 28.77-3.952s-42.486-3.645-54.606-13.85c-19.21-16.174-36.538-33.805-53.846-47.93-37.375-30.508-72.79-55.878-105.337-86.342 14.502-3.148 20.683-8.233 20.683-8.233S60.4 119.1 48.925 112.958c38.606-4.57 56.406-21.887 56.406-21.887-7.873 6.86-57.616 18.733-65.46 12.578C28.437 94.675 20.225 81.77 10.9 69.385 1.277 56.605-2.023 29.067 2.423 22.138z" fill="url(#m)" transform="matrix(-1 0 0 1 680.822 184.474)"/><path d="M421.898 317.25s-69.14 19.228-135.488-33.495c23.563-1.24 35.81-8.684 35.81-8.684s-24.493-1.86-49.917-19.847c0 0-63.093-43.264-89.136-76.758 13.02 3.72 27.128 0 27.128 0s-26.353-4.962-32.554-12.405c-32.243-32.254-41.08-79.86-41.08-79.86C300.363 178 421.9 317.25 421.9 317.25z" fill="url(#n)" opacity=".471" transform="matrix(-1 0 0 1 680.822 184.474)"/><path d="M44.76.32C26.746.59 8.207 13.124 2.413 22.154c-4.446 6.928-1.134 34.428 8.49 47.21 9.324 12.384 17.52 25.297 28.953 34.27 7.844 6.155 57.615-5.727 65.488-12.586 0 0-17.837 17.314-56.443 21.885 11.475 6.14 32.19 2.88 32.19 2.88s-6.165 5.093-20.67 8.24c.62.58 1.25 1.142 1.87 1.72 40.538-12.15 70.97-47.73 75.494-91.035-3.834 15.816-9.752 25.78-9.752 25.78s12.197-36.478-3.285-42.005C96.94 8.588 70.365 2.227 48.346.47 47.154.375 45.96.3 44.76.32z" fill="url(#o)" transform="matrix(-1 0 0 1 680.822 184.474)"/><path d="M426.084 314.148s21.082-31.013-53.327-120.332c0 0-6.82 16.748-17.363 22.95 0 0 1.86-19.848-3.1-31.013 0 0-9.3-15.507-65.11-62.027 0 0-1.86 26.672-6.2 41.558 0 0 0-31.013-3.1-44.66 0 0-7.44 24.19-13.022 32.255 0 0-2.48-34.116-6.2-39.078 0 0-10.426-30.626-129.597-32.874 188.504 99.863 297.02 233.22 297.02 233.22z" fill="url(#p)" transform="matrix(-1 0 0 1 680.822 184.474)"/><path d="M420.717 309.308c-5.35 6.34-56.093-27.706-113.338-76.042-57.246-48.337-99.316-92.66-93.966-99 5.35-6.34 56.094 27.705 113.34 76.04 57.244 48.338 99.313 92.662 93.963 99.002z" fill="url(#q)" transform="matrix(-1 0 0 1 680.822 184.474)"/><path d="M644.198 224.106C346.074 324.948 153.994 618.508 153.994 618.508s24.63-2.206 31.49-12.115c0 0 118.202-222.326 458.714-382.287z" fill="#000"/><path d="M540.728 278.877C353.734 387.424 259.948 504.11 259.948 504.11s142.036-142.272 280.78-225.233z" fill-opacity=".871" fill="#D92F5A"/></g></g><g transform="translate(1816.993 4261.046)"><mask id="s" fill="#fff"><use xlink:href="#r"/></mask><use fill="#D8D8D8" xlink:href="#r"/><g mask="url(#s)"><path d="M-38.073 328.073V128.488c0-161.204 23.006-184.233 184.05-184.233H345.95c161.044 0 184.05 23.03 184.05 184.233v199.585c0 161.204-23.006 184.233-184.05 184.233H145.978c-161.044 0-184.05-23.03-184.05-184.233z" fill-opacity=".933" fill="#333" opacity=".7"/><text fill="#FFF" font-family="Ubuntu-Medium, Ubuntu" font-size="295.595" font-weight="400" transform="translate(56.606 33.013)"><tspan x="109.496" y="278.811">z</tspan></text><path opacity=".7" d="M56.606 38.93h378.716v378.7H56.606z"/></g></g><g transform="translate(0 1932.606)"><mask id="u" fill="#fff"><use xlink:href="#t"/></mask><use fill="#D8D8D8" xlink:href="#t"/><g mask="url(#u)"><path d="M0 1204.398V578.37C0 72.733 72.174.5 577.392.5h627.35c505.216 0 577.39 72.233 577.39 577.87v626.028c0 505.637-72.174 577.87-577.39 577.87H577.39C72.174 1782.27 0 1710.036 0 1204.4z" fill="url(#v)" transform="translate(-17.654 -17.785)"/><path d="M543.516 483.47c-13.774-.254-23.514 1.504-33.816 3.75v1.88h1.883c6.57 13.497 18.167 22.182 26.293 33.808 6.26 13.146 12.518 26.292 18.786 39.43.62-.622 1.255-1.25 1.874-1.87 11.632-8.196 16.962-21.31 16.904-41.318-4.66-4.902-5.347-11.054-9.39-16.905-5.372-7.794-15.765-12.222-22.534-18.775zm839.597 715.5c-66.057-1.79-116.516 4.352-159.653 22.54-12.26 5.17-31.807 5.304-33.807 20.665 6.736 7.06 7.782 17.603 13.138 26.287 10.302 16.666 27.69 38.996 43.205 50.708 16.954 12.792 34.426 26.48 52.6 37.557 32.327 19.71 68.418 30.964 99.548 50.708 18.342 11.638 36.568 26.296 54.467 39.43 8.845 6.493 14.795 16.59 26.292 20.657v-1.874c-6.04-7.688-7.598-18.263-13.146-26.295l-24.418-24.413c-23.874-31.683-54.183-59.51-86.4-82.626-25.69-18.44-83.195-43.346-93.914-73.24-.627-.626-1.248-1.254-1.883-1.88 18.218-2.05 39.55-8.644 56.36-13.145 28.242-7.572 53.48-5.615 82.643-13.144 13.146-3.757 26.292-7.522 39.447-11.27v-7.513c-14.745-15.126-25.255-35.14-41.33-48.826-42.058-35.808-87.965-71.582-135.236-101.413-26.217-16.545-58.618-27.297-86.4-41.317-9.347-4.715-25.765-7.166-31.94-15.025-14.595-18.605-22.544-42.183-33.8-63.85-23.58-45.395-46.735-94.972-67.62-142.727-14.252-32.567-23.557-64.684-41.323-93.9C914.655 564.87 822.85 480.25 680.635 397.077c-30.26-17.688-66.693-24.674-105.194-33.8-20.653-1.25-41.322-2.508-61.982-3.758-12.61-5.27-25.732-20.696-37.565-28.17-47.112-29.758-167.954-94.483-202.85-9.39-22.032 53.712 32.93 106.124 52.586 133.34 13.798 19.093 31.462 40.5 41.32 61.97 6.485 14.11 7.607 28.262 13.155 43.197 13.656 36.782 25.53 76.8 43.195 110.797 8.93 17.198 18.77 35.32 30.058 50.704 6.92 9.437 18.778 13.595 20.653 28.17-11.597 16.227-12.26 41.416-18.777 61.973-29.355 92.545-18.284 207.574 24.418 276.066 13.105 21.025 43.966 66.12 86.4 48.826 37.12-15.118 28.828-61.96 39.448-103.29 2.4-9.37.928-16.26 5.63-22.533v1.878l33.816 67.597c25.02 40.292 69.43 82.4 107.06 110.812 19.515 14.733 34.88 40.208 60.11 48.826v-1.883h-1.884c-4.887-7.62-12.536-10.776-18.778-16.9-14.703-14.407-31.045-32.32-43.204-48.826-34.226-46.458-64.476-97.31-92.032-150.238-13.163-25.27-24.602-53.156-35.698-78.876-4.276-9.92-4.226-24.91-13.138-30.05-12.15 18.85-30.05 34.086-39.447 56.342-15.03 35.573-16.97 78.957-22.535 123.944-3.297 1.18-1.832.368-3.765 1.874-26.16-6.308-35.355-33.233-45.07-56.33-24.594-58.417-29.163-152.482-7.523-219.723 5.598-17.394 30.903-72.192 20.66-88.263-4.887-16.038-21.02-25.31-30.05-37.566-11.17-15.15-22.325-35.092-30.057-52.584-20.125-45.55-29.523-96.68-50.71-142.72-10.126-22.01-27.255-44.282-41.322-63.85-15.572-21.674-33.01-37.64-45.077-63.857-4.293-9.315-10.126-24.226-3.758-33.8 2.025-6.464 4.88-9.16 11.272-11.268 10.895-8.4 41.238 2.793 52.585 7.508 30.125 12.508 55.262 24.42 80.776 41.317 12.25 8.12 24.636 23.824 39.44 28.17H509.7c26.443 6.08 56.066 1.888 80.77 9.388 43.663 13.27 82.792 33.907 118.33 56.342C817.067 536.79 905.585 634.08 966.136 750.14c9.74 18.684 13.957 36.52 22.535 56.34 17.313 39.97 39.12 81.1 56.342 120.185 17.188 38.998 33.94 78.354 58.233 110.806 12.778 17.06 62.107 26.21 84.525 35.68 15.715 6.643 41.464 13.562 56.35 22.53 28.435 17.15 55.983 37.565 82.652 56.348 13.33 9.387 54.3 29.976 56.34 46.943z" stroke="#FFF" stroke-width=".5" fill="#FFF"/></g></g><g transform="translate(1560.75 768.385)"><mask id="x" fill="#fff"><use xlink:href="#w"/></mask><use fill="#D8D8D8" xlink:href="#w"/><g mask="url(#x)"><path d="M53.106 365.63V175.536C53.106 22.002 75.152.07 229.482.07h191.636C575.448.07 597.493 22 597.493 175.536V365.63c0 153.534-22.046 175.467-176.375 175.467H229.482c-154.33 0-176.376-21.933-176.376-175.468z" fill="url(#y)" transform="translate(-58.53 4.084)"/><g transform="matrix(1 0 0 -1 -58.454 1756.65)"><mask id="A" fill="#fff"><use xlink:href="#z"/></mask><path d="M301.883 88.24C305.4 47.537 240.94 8.794 157.913 1.715 74.888-5.366 4.73 21.9 1.22 62.604c-3.517 40.713 60.94 79.453 143.968 86.532 83.027 7.077 153.183-20.183 156.695-60.895" fill="#BBE6FB" transform="translate(166.21 1434.985)" mask="url(#A)"/></g><g transform="matrix(1 0 0 -1 -58.454 1756.65)"><mask id="C" fill="#fff"><use xlink:href="#B"/></mask><g mask="url(#C)"><g transform="translate(213.094 1440.537)"><mask id="E" fill="#fff"><use xlink:href="#D"/></mask><path d="M102.107 138.98c-31.67.512-68.73-11.986-96.307-23.688a78.742 78.742 0 0 1-4.415-26.025c0-48.286 43.87-87.434 97.99-87.434s97.99 39.148 97.99 87.434c0 15.28-4.404 29.638-12.127 42.137-22.06 3.41-52.405 7.08-83.13 7.576" fill="#FFF" transform="translate(-1.367 -.17)" opacity=".35" mask="url(#E)"/></g></g></g><g transform="matrix(1 0 0 -1 -58.454 1756.65)"><mask id="G" fill="#fff"><use xlink:href="#F"/></mask><path d="M79.91 123.538C62.377 124.6 32.155 115.51 6.954 106.44A74.004 74.004 0 0 1 1 77.32C1 35.01 39.594.714 80.424.714c40.56 0 76.448 34.352 79.426 76.604.97 13.758-3.797 26.723-10.414 37.9-26.126 4.574-53.852 7.367-69.526 8.318" fill="#FFF" transform="translate(231.19 1455.82)" mask="url(#G)"/></g><g transform="matrix(1 0 0 -1 -58.454 1756.65)"><mask id="I" fill="#fff"><use xlink:href="#H"/></mask><g mask="url(#I)" fill="#373535"><path d="M266.105 1538.694c2.15 4.734 5.41 7.052 8.566 11.02-.35.94-1.118 4.014-1.118 5.08 0 4.755 3.882 8.616 8.67 8.616 1.13 0 2.21-.223 3.197-.613 14.35 10.87 33.24 15.607 52.227 11.39 1.733-.39 3.434-.86 5.103-1.375-18.764 2.585-39.913-4.02-54.3-15.56.44-1.03 1.66-3.974 1.66-5.16 0-4.757-3.1-5.916-7.888-5.916a8.696 8.696 0 0 0-3.087.572c-3.25-4.337-7.232-12.6-9.18-17.763 7.954-7.073 15.142-9.636 24.51-13.115-.025.443.32.854.32 1.306 0 14.346 12.71 26.005 27.146 26.005 12.937 0 23.65-9.35 25.74-21.614 6.456 4.08 12.698 7.21 17.455 13.258-1.11 1.346-2.307 5.156-2.307 7.03 0 4.318 3.525 7.82 7.87 7.82.614 0 1.205-.09 1.78-.222a68.149 68.149 0 0 1 5.402 15.553c-22.574 16.61-66.252 14.343-66.252 14.343s-34.756 1.803-58.286-9.594c1.57-11.275 6.096-21.994 12.773-31.06"/><path d="M374.003 1545.165c1.596-1.43 2.466-2.685 3.152-3.907 2.11-3.772-2.124-7.224-6.468-7.224-.442 0-.868.06-1.292.13-4.894-7.602-13.467-17.35-21.083-22.257 11.678-1.902 22.69-6.55 31.454-13.732 6.38 11.363 11.276 27.77 11.276 41.71 0 10.608-4.713 18.384-11.827 24.09-.373-5.684-3.425-13.632-5.212-18.81m-94.796-71.972c3.89 10.68 13.462 18.955 22.516 26.235-1.325 1.802-3.31 6.265-4.14 8.378a63.41 63.41 0 0 0-28.392 17.856c-.054-.24-.123-.475-.18-.715-1.428-6.356-1.69-12.724-.98-18.937 5.288-.98 9.29-5.583 9.29-11.122 0-3.285-2.897-8.046-5.146-10.117 2.444-5.24 4.11-7.77 7.033-11.577"/><path d="M278.522 1464.228c-4.642 4.587-7.852 13.735-10.864 19.48a11.449 11.449 0 0 0-1.73-.146c-6.296 0-12.89 5.25-11.4 11.326.826 3.362 3.16 5.56 6.964 7.397-.866 6.964-1.1 16.975.526 24.215.466 2.072 1.454 3.042 2.11 5.014-6.947 10.102-11.435 23.36-11.435 36.515 0 .48.024.954.035 1.43-11.738-5.85-20.54-15.067-20.54-29.576 0-32.093 18.6-63.575 46.274-75.916.02.086.037.174.06.26m68.048 44.369c-3.577-10.108-13.246-17.368-24.64-17.368a26.113 26.113 0 0 0-16.13 5.56c-9.162-7.09-17.472-19.544-21.697-30.35 1.896-2.027 3.217-3.695 5.343-5.493 6.41-1.66 15.234 0 22.17 0 27.903 0 52.615 12.336 66.784 33.97-9.42 6.482-20.533 12.653-31.83 13.68"/></g></g><g transform="matrix(1 0 0 -1 -58.454 1756.65)"><mask id="K" fill="#fff"><use xlink:href="#J"/></mask><g mask="url(#K)" fill="#1287B1"><path d="M265.39 1534.943a62.635 62.635 0 0 0 8.002 13.084 8.594 8.594 0 0 0-.555 3.015c0 4.757 3.882 8.617 8.67 8.617 1.13 0 2.21-.224 3.196-.614 14.35 10.87 33.243 15.608 52.228 11.39a66.798 66.798 0 0 0 5.105-1.375c-18.764 2.587-38.15-3.13-52.537-14.67.44-1.03.68-2.163.68-3.348 0-4.758-3.883-8.616-8.67-8.616a8.73 8.73 0 0 0-3.09.57 57.915 57.915 0 0 1-7.854-14.294c6.832-7.317 15.218-13.104 24.583-16.583-.022.443-.07.882-.07 1.334 0 14.346 11.702 25.976 26.14 25.976 12.935 0 23.648-9.35 25.74-21.615 6.454 4.08 12.19 9.323 16.944 15.372-1.11 1.346-1.797 3.042-1.797 4.917 0 4.317 3.525 7.818 7.87 7.818.614 0 1.204-.088 1.78-.22a68.14 68.14 0 0 1 5.402 15.552c-22.575 16.61-66.252 14.344-66.252 14.344s-34.757 1.802-58.286-9.594c1.57-11.275 6.096-21.994 12.773-31.06"/><path d="M375.222 1543.885c1.596-1.43 2.62-3.478 2.62-5.782 0-4.317-3.526-7.82-7.87-7.82-.442 0-.868.06-1.292.13a63.47 63.47 0 0 0-19-18.99 63.8 63.8 0 0 0 30.618-13.68 78.151 78.151 0 0 1 10.03 38.39c0 10.61-4.714 18.386-11.828 24.09a62.54 62.54 0 0 0-3.278-16.338m-94.815-73.257a63.036 63.036 0 0 0 19.707 27.54 25.868 25.868 0 0 0-3.245 5.888 63.404 63.404 0 0 0-28.394 17.855c-.055-.24-.126-.473-.182-.714-1.43-6.355-1.69-12.724-.98-18.936 5.287-.98 9.29-5.584 9.29-11.123 0-3.285-1.417-6.24-3.666-8.31a67.891 67.891 0 0 1 7.47-12.2"/><path d="M278.49 1464.36a63.174 63.174 0 0 0-11.546 15.595 11.504 11.504 0 0 0-1.73-.143c-6.296 0-11.4 5.07-11.4 11.326 0 4.482 2.63 8.347 6.43 10.183a62.423 62.423 0 0 0 1.06 21.43 63.302 63.302 0 0 0 1.69 6.064 62.36 62.36 0 0 0-11.015 35.464c0 .48.02.956.032 1.43-11.738-5.848-20.54-15.067-20.54-29.574 0-32.096 19.286-59.695 46.96-72.036.02.086.037.174.06.26m67.363 40.486c-3.576-10.108-13.246-17.368-24.64-17.368a26.117 26.117 0 0 0-16.13 5.56c-9.16-7.09-16.075-16.754-20.297-27.56a70.145 70.145 0 0 1 6.044-5.734 79.976 79.976 0 0 1 20.072-2.548c27.902 0 52.432 14.317 66.6 35.947-9.42 6.486-20.35 10.675-31.648 11.703"/></g></g><g transform="matrix(1 0 0 -1 -58.454 1756.65)"><mask id="M" fill="#fff"><use xlink:href="#L"/></mask><g mask="url(#M)"><g transform="translate(268.587 1460.39)"><mask id="O" fill="#fff"><use xlink:href="#N"/></mask><path fill="#FFF" d="M79.91 50.74l24.15 5.723-24.24 1.23 19.726 14.982L77.162 64.7l15.212 20.95-21.01-13.877 7.345 24.525-14.43-20.214-.327 25.543-9.494-22.753-7.917 23.025.43-27.124L33.29 99.088l7.404-25.815-22.19 16.038 17.382-21.706-27.55 10.068L30.08 61.685 2.2 60.833l28.505-7.31-28.53-6.13 28.162-2.03L6.587 30.25l24.456 8.81-16.968-21.357 21.44 17.185-7.72-28.658 16.553 23.322-2.32-27.545 9.396 24.97L59.422.733l1.945 26.325 11.87-22.46-7.014 25.69L87.96 13.552 73.93 34.888l23.85-9.234-18.236 17.81 24.452-1.91" transform="translate(-1.727 .413)" mask="url(#O)"/></g></g></g><g transform="matrix(1 0 0 -1 -58.454 1756.65)"><mask id="Q" fill="#fff"><use xlink:href="#P"/></mask><g mask="url(#Q)"><g transform="translate(88.79 1464.803)"><mask id="S" fill="#fff"><use xlink:href="#R"/></mask><path d="M0 0c74.894 74.43 134.71 97.407 188.994 107.897 7.183 1.387 8.542 16.986 8.542 16.986s1.005-11.49 6.033-12.987c5.024-1.5 11.557 17.984 11.557 17.984s-6.03-17.485 0-18.484c6.033-1 17.09 16.984 17.09 16.984s-4.522-15.484-1.505-16.484c3.012-1 18.09 22.478 18.09 22.478s-9.047-15.484-.5-16.985c8.547-1.498 21.013 10.57 21.013 10.57s-9.802-11.043-5.434-12.567c18.6-6.497 33.65 17.527 33.65 17.527s-3.487-10.534-12.535-22.023c19.6-4.994 34.16 24.352 34.16 24.352l-14.56-29.347c7.54-4 37.702 30.47 37.702 30.47s-15.582-26.976-24.63-32.47c5.026-3.996 23.12 11.99 23.12 11.99S326.212 97.91 331.74 96.91c8.042-6.494 37.696 33.47 37.696 33.47s-11.558-23.478-28.648-41.962c14.284-7.102 49.762 38.464 49.762 38.464s-1.006-14.487-26.64-37.465c19.1 2.497 43.73 38.464 43.73 38.464s-9.048-26.974-30.664-45.955c18.755 1.94 48.754 47.955 48.754 47.955s-11.558-31.97-35.18-50.454c26.137-5.745 63.835 32.97 63.835 32.97s-14.828-27.477-34.182-38.715c21.616-8.24 51.27 25.728 51.27 25.728s-29.654-45.46-76.9-43.46c-15.504.654-62.395 46.74-162.858 42.96C99.02 93.91 70.875 37.963 0 0" transform="translate(.895 .816)" opacity=".35" mask="url(#S)" fill="#373535"/></g><path d="M92.754 1471.273c74.893 74.43 134.706 97.405 188.992 107.897 7.185 1.387 8.543 16.984 8.543 16.984s1.003-11.49 6.033-12.987c5.025-1.498 11.558 17.98 11.558 17.98s-6.03-17.484 0-18.48c6.034-.998 17.09 16.984 17.09 16.984s-4.52-15.484-1.51-16.483c3.018-1 18.096 22.48 18.096 22.48s-9.047-15.487-.5-16.985c8.542-1.5 21.013 10.567 21.013 10.567s-9.804-11.042-5.435-12.566c18.6-6.495 33.644 17.527 33.644 17.527s-3.488-10.533-12.53-22.022c19.6-4.997 34.158 24.354 34.158 24.354l-14.56-29.35c7.54-3.996 37.7 30.47 37.7 30.47s-15.58-26.972-24.627-32.467c5.026-3.998 23.122 11.987 23.122 11.987s-14.577-17.983-9.048-18.98c8.042-6.497 37.695 33.467 37.695 33.467s-11.563-23.48-28.648-41.962c14.284-7.103 49.76 38.465 49.76 38.465s-1.004-14.49-26.64-37.468c19.1 2.5 43.73 38.467 43.73 38.467s-9.046-26.975-30.662-45.958c18.754 1.94 48.754 47.954 48.754 47.954s-11.558-31.97-35.18-50.45c26.137-5.746 63.834 32.965 63.834 32.965s-14.827-27.47-34.18-38.71c21.615-8.243 51.27 25.726 51.27 25.726s-29.655-45.46-76.907-43.462c-15.497.657-62.39 46.743-162.853 42.96-132.694-4.994-160.842-60.942-231.713-98.905" fill="#373535"/></g></g><g transform="matrix(1 0 0 -1 -58.454 1756.65)"><mask id="U" fill="#fff"><use xlink:href="#T"/></mask><g mask="url(#U)"><g transform="translate(86.57 1354.502)"><mask id="W" fill="#fff"><use xlink:href="#V"/></mask><path d="M0 101.477c39.582-19.733 75.775 2.996 121.388-9.78 34.68-9.714 76.902-21.69 134.2-13.447 57.3 8.24 106.31 32.967 129.685 77.178 7.288 19.73 36.94-4.498 36.94-4.498s-21.61 8.992-21.106 4.745c.5-4.244 32.42-18.98 32.42-18.98s-28.904 8.99-27.144 2.247c1.76-6.743 36.186-33.72 36.186-33.72s-38.953 29.474-42.218 25.48c-3.27-4 16.586-20.235 16.586-20.235s-32.923 20.234-44.486 14.266c-8.315-4.286 34.182-32 34.182-32s-27.647 20.983-34.182 15.488c-6.532-5.496 31.165-50.453 31.165-50.453s-42.727 45.958-46.996 43.71c-4.274-2.248 11.81-24.228 11.81-24.228s-21.11 22.98-26.887 18.98c-5.78-3.996 30.157-63.69 30.157-63.69s-38.954 61.192-55.038 50.956C341.92 28.42 332.495 20.55 332.495 20.55s-3.223 56.19-34.683 54.702c-15.833-.75 7.538-41.96 7.538-41.96S283.84 70.93 269.513 70.18C295.916 20.52 286.505.322 286.505.322s4.366 42.413-31.445 66.016C268.63 54.352 246.545.322 246.545.322s19.427 79.618-14.328 64.438c-5.334-2.393-.378-39.713-.378-39.713s-6.786 42.713-16.962 40.463c-5.933-1.308-37.7-59.194-37.7-59.194s26.014 62.567 18.098 59.944c-5.767-1.912-16.588-27.725-16.588-27.725s5.276 25.477 0 26.975c-5.276 1.5-34.683-26.975-34.683-26.975S165.87 64.012 162.1 69.258c-5.714 7.95-12.41 8.32-20.357 5.244-11.563-4.478-27.14-25.475-27.14-25.475s15.528 21.26 12.814 29.223c-4.358 12.795-49.005-24.727-49.005-24.727S104.8 78.25 98.77 83.496c-6.032 5.244-38.782 3.622-49.008 3.65C19.605 87.24 9.154 94.27 0 101.477" transform="translate(1.153 1.5)" opacity=".35" mask="url(#W)" fill="#373535"/></g><path d="M86.216 1461.976c39.582-19.733 75.773 2.996 121.386-9.782 34.678-9.71 76.904-21.69 134.204-13.445 57.3 8.24 106.305 32.968 129.68 77.174 7.29 19.73 36.942-4.493 36.942-4.493s-21.61 8.99-21.107 4.744c.502-4.245 32.42-18.98 32.42-18.98s-28.903 8.99-27.143 2.245c1.76-6.743 36.19-33.718 36.19-33.718s-38.956 29.475-42.22 25.475c-3.266-3.995 16.587-20.23 16.587-20.23s-32.925 20.23-44.486 14.267c-8.317-4.288 34.18-32 34.18-32s-27.647 20.98-34.18 15.486c-6.535-5.498 31.167-50.454 31.167-50.454s-42.73 45.958-47 43.71c-4.27-2.25 11.813-24.227 11.813-24.227s-21.114 22.977-26.892 18.98c-5.78-3.995 30.158-63.69 30.158-63.69s-38.954 61.193-55.04 50.952c25.26-55.073 15.835-62.942 15.835-62.942s-3.224 56.188-34.684 54.7c-15.834-.752 7.538-41.96 7.538-41.96s-21.512 37.64-35.836 36.89c26.406-49.66 16.99-69.86 16.99-69.86s4.366 42.416-31.444 66.018c13.57-11.987-8.515-66.017-8.515-66.017s19.43 79.62-14.325 64.44c-5.334-2.397-.378-39.714-.378-39.714s-6.79 42.71-16.963 40.463c-5.935-1.31-37.702-59.195-37.702-59.195s26.013 62.567 18.098 59.942c-5.767-1.908-16.588-27.72-16.588-27.72s5.278 25.474 0 26.972c-5.277 1.497-34.68-26.974-34.68-26.974s21.865 25.475 18.092 30.72c-5.714 7.95-12.41 8.32-20.355 5.242-11.566-4.476-27.144-25.473-27.144-25.473s15.53 21.262 12.817 29.224c-4.36 12.79-49.005-24.73-49.005-24.73s26.388 24.73 20.355 29.972c-6.03 5.246-38.78 3.623-49.007 3.654-30.158.095-40.606 7.123-49.76 14.33" fill="#373535"/></g></g></g></g></g></svg>