<svg xmlns="http://www.w3.org/2000/svg" width="365" height="290"><path fill="#D63023" d="M273 107h-16L197 0h16z"/><path fill="#FFF" d="M289 107h-16L213 0h16z"/><path opacity=".2" fill="#AEA79F" d="M289 107h-16L213 0h16z"/><path fill="#255E6E" d="M305 107h-16L229 0h16z"/><linearGradient id="a" gradientUnits="userSpaceOnUse" x1="279.545" y1="73.006" x2="234.733" y2="42.384"><stop offset="0" stop-opacity=".3"/><stop offset="1" stop-opacity="0"/></linearGradient><path fill="url(#a)" d="M305 107h-48L197 0h48z"/><path fill="#AEA79F" d="M310 107c2.168 0 4 1.832 4 4v4c0 2.168-1.832 4-4 4h-60c-2.168 0-4-1.832-4-4v-4c0-2.168 1.832-4 4-4h60m0-6h-60c-5.5 0-10 4.5-10 10v4c0 5.5 4.5 10 10 10h60c5.5 0 10-4.5 10-10v-4c0-5.5-4.5-10-10-10zM271 125h18v6h-18z"/><path fill="#D63023" d="M257 107h16L333 0h-16z"/><path fill="#FFF" d="M273 107h16L349 0h-16z"/><path opacity=".2" fill="#AEA79F" d="M273 107h16L349 0h-16z"/><path fill="#255E6E" d="M289 107h16L365 0h-16z"/><linearGradient id="b" gradientUnits="userSpaceOnUse" x1="251" y1="107" x2="251"><stop offset="0" stop-opacity="0"/><stop offset=".8" stop-opacity="0"/><stop offset="1" stop-opacity=".1"/></linearGradient><path fill="url(#b)" d="M305 107h-48L197 0h48z"/><linearGradient id="c" gradientUnits="userSpaceOnUse" x1="-3633" y1="107" x2="-3633" gradientTransform="matrix(-1 0 0 1 -3322 0)"><stop offset="0" stop-opacity="0"/><stop offset=".8" stop-opacity="0"/><stop offset="1" stop-opacity=".1"/></linearGradient><path fill="url(#c)" d="M257 107h48L365 0h-48z"/><path fill="#DD4814" d="M76 107H60L0 0h16z"/><path fill="#FFF" d="M92 107H76L16 0h16z"/><path opacity=".2" fill="#AEA79F" d="M92 107H76L16 0h16z"/><path fill="#77216F" d="M108 107H92L32 0h16z"/><linearGradient id="d" gradientUnits="userSpaceOnUse" x1="82.545" y1="73.006" x2="37.733" y2="42.384"><stop offset="0" stop-opacity=".3"/><stop offset="1" stop-opacity="0"/></linearGradient><path fill="url(#d)" d="M108 107H60L0 0h48z"/><path fill="#AEA79F" d="M113 107c2.168 0 4 1.832 4 4v4c0 2.168-1.832 4-4 4H53c-2.168 0-4-1.832-4-4v-4c0-2.168 1.832-4 4-4h60m0-6H53c-5.5 0-10 4.5-10 10v4c0 5.5 4.5 10 10 10h60c5.5 0 10-4.5 10-10v-4c0-5.5-4.5-10-10-10zM74 125h18v6H74z"/><path fill="#DD4814" d="M60 107h16L136 0h-16z"/><path fill="#FFF" d="M76 107h16L152 0h-16z"/><path opacity=".2" fill="#AEA79F" d="M76 107h16L152 0h-16z"/><path fill="#77216F" d="M92 107h16L168 0h-16z"/><linearGradient id="e" gradientUnits="userSpaceOnUse" x1="54" y1="107" x2="54"><stop offset="0" stop-opacity="0"/><stop offset=".8" stop-opacity="0"/><stop offset="1" stop-opacity=".1"/></linearGradient><path fill="url(#e)" d="M108 107H60L0 0h48z"/><linearGradient id="f" gradientUnits="userSpaceOnUse" x1="-3436" y1="107" x2="-3436" gradientTransform="matrix(-1 0 0 1 -3322 0)"><stop offset="0" stop-opacity="0"/><stop offset=".8" stop-opacity="0"/><stop offset="1" stop-opacity=".1"/></linearGradient><path fill="url(#f)" d="M60 107h48L168 0h-48z"/><path fill="#D63023" d="M361 210c0 44.179-35.817 80-80 80-44.184 0-80-35.821-80-80 0-44.184 35.818-80 80-80 44.183 0 80 35.816 80 80z"/><path fill="#FFF" d="M244.982 168.441a5.529 5.529 0 0 0-5.541 5.54v19.394h16.623v-5.54a2.764 2.764 0 0 1 2.771-2.771h44.329a2.766 2.766 0 0 1 2.77 2.771v5.54h16.623v-19.394a5.529 5.529 0 0 0-5.54-5.54h-72.035zm-5.541 30.476v22.166h16.623v-22.166h-16.623zm66.494 0v22.166h16.623v-22.166h-16.623zm-66.494 27.707v19.395a5.53 5.53 0 0 0 5.541 5.54h72.035a5.53 5.53 0 0 0 5.54-5.54v-19.395h-16.623v5.539a2.766 2.766 0 0 1-2.77 2.771h-44.329a2.764 2.764 0 0 1-2.771-2.771v-5.539h-16.623z"/><path fill="#DD4814" d="M164 210c0 44.179-35.816 80-80 80S4 254.179 4 210c0-44.183 35.819-80 80-80 44.184 0 80 35.817 80 80z"/><path fill="#FFF" d="M29.602 199.314c-5.901 0-10.681 4.785-10.681 10.686 0 5.898 4.78 10.679 10.681 10.679 5.898 0 10.68-4.781 10.68-10.679 0-5.902-4.782-10.686-10.68-10.686zM105.862 247.86c-5.106 2.951-6.859 9.48-3.906 14.586 2.947 5.107 9.474 6.863 14.583 3.912 5.108-2.951 6.86-9.482 3.911-14.592-2.951-5.101-9.481-6.851-14.588-3.906z"/><path fill="#FFF" d="M52.803 210c0-10.554 5.243-19.878 13.266-25.527l-7.809-13.081c-9.346 6.248-16.299 15.796-19.188 26.969 3.372 2.756 5.53 6.944 5.53 11.64 0 4.688-2.158 8.877-5.53 11.634 2.888 11.179 9.841 20.725 19.188 26.975l7.809-13.086c-8.024-5.646-13.266-14.965-13.266-25.524zM84 178.798c16.3 0 29.67 12.497 31.075 28.434l15.221-.223c-.751-11.768-5.89-22.329-13.788-30.094-4.062 1.53-8.752 1.3-12.807-1.041a14.95 14.95 0 0 1-7.305-10.59A46.615 46.615 0 0 0 84 163.604a46.23 46.23 0 0 0-20.563 4.799l7.421 13.299A31.085 31.085 0 0 1 84 178.798zM84 241.196a31.097 31.097 0 0 1-13.14-2.9l-7.423 13.297A46.19 46.19 0 0 0 84 256.403c4.296 0 8.452-.599 12.396-1.693a14.965 14.965 0 0 1 7.305-10.588 14.979 14.979 0 0 1 12.807-1.042c7.898-7.766 13.037-18.327 13.788-30.094l-15.228-.221C113.67 228.704 100.3 241.196 84 241.196z"/><path fill="#FFF" d="M105.859 172.134c5.109 2.945 11.639 1.201 14.585-3.906 2.953-5.11 1.204-11.636-3.906-14.587-5.109-2.952-11.636-1.202-14.589 3.907-2.946 5.108-1.194 11.636 3.91 14.586z"/><defs><path id="g" d="M22-360h984V53H22z"/></defs></svg>