<svg xmlns="http://www.w3.org/2000/svg" viewBox="11 11 22 22"><path fill="#888" d="M33.1 21.8l-.7-3.6-1.9.4c-.3-.8-.8-1.6-1.4-2.3l1.3-1.6-2.8-2.3-1.3 1.6c-.8-.4-1.6-.7-2.5-.9v-2.3l-3.6.6v1.7c-.9.2-1.6.5-2.4.9l-1.4-1.6-2.7 2.3 1.3 1.6c-.3.3-.6.7-.8 1.1s-.4.9-.6 1.3l-1.9-.4-.6 3.6 1.9.4c0 .9.2 1.7.5 2.6l-1.7 1 1.8 3.1 1.7-1c.6.7 1.3 1.3 2 1.7l-.7 1.8 3.4 1.3.7-1.8c.5.1.9.1 1.4.1s.9 0 1.4-.1l.7 1.8 3.4-1.3-.8-1.8c.8-.5 1.5-1.1 2-1.7l1.7 1 1.7-3.1-1.7-1c.3-.9.5-1.7.5-2.6l2.1-.5zM19 27c-2.8-1.6-3.8-5.2-2.1-8.1C18 17 19.9 16 22 16c1.1 0 2 .3 3 .8 2.8 1.6 3.8 5.3 2.2 8.1-1.1 1.8-3 3-5.1 3-1.1-.1-2.1-.3-3.1-.9z"/></svg>