<svg xmlns="http://www.w3.org/2000/svg" height="122.28" viewBox="0 0 532 122.281" width="532"><path fill="#bbb" d="M87.381 86.34h-5.906V52.484c0-2.672.164-5.929.492-9.774h-.141c-.562 2.274-1.066 3.902-1.512 4.887L63.123 86.34H60.24L43.014 47.879c-.469-1.031-.973-2.754-1.512-5.168h-.141c.188 2.016.281 5.297.281 9.844V86.34h-5.695V35.926h7.805l15.469 35.156c1.172 2.672 1.934 4.688 2.285 6.047h.246c1.172-3.234 1.98-5.296 2.426-6.188l15.785-35.016h7.418V86.34zM104.63 37.438c0 1.078-.375 1.975-1.125 2.689a3.74 3.74 0 0 1-2.672 1.072c-1.055 0-1.945-.346-2.672-1.037s-1.09-1.6-1.09-2.725c0-1.007.357-1.881 1.072-2.619s1.611-1.108 2.689-1.108 1.98.364 2.707 1.09c.73.727 1.09 1.606 1.09 2.638zm-.98 48.902h-5.766v-36h5.766v36zM137.63 84.688c-2.789 1.687-6.082 2.531-9.879 2.531-3.281 0-6.229-.756-8.842-2.268s-4.646-3.65-6.1-6.416c-1.453-2.765-2.18-5.871-2.18-9.316 0-5.953 1.705-10.734 5.115-14.344 3.41-3.609 7.951-5.414 13.623-5.414 3.141 0 5.918.61 8.332 1.828v5.906c-2.695-1.875-5.555-2.812-8.578-2.812-3.727 0-6.756 1.331-9.088 3.99-2.332 2.66-3.498 6.1-3.498 10.318 0 4.196 1.107 7.512 3.322 9.949 2.215 2.438 5.186 3.656 8.912 3.656 3.141 0 6.094-1.031 8.859-3.094v5.486zM163.18 56.176c-1.031-.773-2.496-1.16-4.395-1.16-2.555 0-4.629 1.201-6.223 3.604s-2.391 5.525-2.391 9.369V86.34h-5.766v-36h5.766v7.418h.141c.797-2.484 2.027-4.447 3.691-5.889 1.664-1.441 3.574-2.162 5.73-2.162 1.5 0 2.648.164 3.445.492v5.977zM199.28 68.199c0 5.719-1.623 10.318-4.869 13.799s-7.6 5.221-13.061 5.221c-5.32 0-9.568-1.693-12.744-5.08s-4.764-7.845-4.764-13.377c0-5.953 1.629-10.658 4.887-14.115s7.746-5.186 13.465-5.186c5.344 0 9.527 1.67 12.551 5.01 3.01 3.34 4.53 7.916 4.53 13.728zm-5.91.211c0-4.523-1.002-7.992-3.006-10.406s-4.869-3.621-8.596-3.621c-3.703 0-6.633 1.236-8.789 3.709s-3.234 5.959-3.234 10.459c0 4.312 1.084 7.682 3.252 10.107 2.168 2.426 5.092 3.639 8.771 3.639 3.75 0 6.621-1.195 8.613-3.586 2-2.391 3-5.824 3-10.301zM225.92 76.707c0 3.117-1.201 5.649-3.604 7.594-2.402 1.946-5.596 2.918-9.58 2.918-3.398 0-6.375-.727-8.93-2.18v-6.188c2.836 2.297 5.953 3.445 9.352 3.445 4.57 0 6.855-1.675 6.855-5.027 0-1.359-.445-2.466-1.336-3.322-.891-.855-2.918-2.009-6.082-3.463-3.188-1.359-5.438-2.818-6.75-4.377s-1.969-3.626-1.969-6.205c0-2.976 1.195-5.461 3.586-7.453s5.426-2.988 9.106-2.988c2.836 0 5.402.562 7.699 1.688v5.801c-2.344-1.71-5.062-2.566-8.156-2.566-1.898 0-3.428.469-4.588 1.406-1.16.938-1.74 2.145-1.74 3.621 0 1.594.445 2.818 1.336 3.674s2.73 1.869 5.52 3.041c3.422 1.454 5.824 2.977 7.207 4.57 1.36 1.594 2.06 3.598 2.06 6.011zM265.1 68.199c0 5.719-1.623 10.318-4.869 13.799s-7.6 5.221-13.061 5.221c-5.32 0-9.568-1.693-12.744-5.08s-4.764-7.845-4.764-13.377c0-5.953 1.629-10.658 4.887-14.115s7.746-5.186 13.465-5.186c5.344 0 9.527 1.67 12.551 5.01 3.02 3.34 4.53 7.916 4.53 13.728zm-5.9.211c0-4.523-1.002-7.992-3.006-10.406s-4.869-3.621-8.596-3.621c-3.703 0-6.633 1.236-8.789 3.709s-3.234 5.959-3.234 10.459c0 4.312 1.084 7.682 3.252 10.107 2.168 2.426 5.092 3.639 8.771 3.639 3.75 0 6.621-1.195 8.613-3.586 2-2.391 3-5.824 3-10.301zM288.58 38.106c-1.125-.633-2.402-.949-3.832-.949-4.031 0-6.047 2.543-6.047 7.629v5.555h8.438v4.887h-8.438V86.34h-5.766V55.227h-6.117V50.34h6.117v-5.836c0-3.656 1.078-6.609 3.234-8.859s4.898-3.375 8.227-3.375c1.758 0 3.152.211 4.184.633v5.203z"/><path fill="#bbb" d="M308.08 85.988c-1.383.773-3.188 1.16-5.414 1.16-6.281 0-9.422-3.539-9.422-10.617V55.227h-6.188V50.34h6.188v-8.789l5.766-1.863V50.34h9.07v4.887h-9.07v20.32c0 2.414.41 4.131 1.23 5.15.82 1.02 2.191 1.529 4.113 1.529 1.43 0 2.672-.387 3.727-1.16v4.922zM368.46 86.34h-6.539l-5.309-14.098h-21.41l-5.027 14.098h-6.539l19.266-50.414h6.117l19.44 50.414zm-13.82-19.442l-7.91-21.445c-.188-.515-.457-1.652-.809-3.41h-.141c-.211 1.477-.469 2.614-.773 3.41l-7.84 21.445h17.47zM400.81 51.992l-21.34 29.461h21.094v4.887h-29.566v-1.793l21.305-29.32h-19.301V50.34h27.809v1.652zM435.36 86.34h-5.766v-5.695h-.141c-2.391 4.383-6.082 6.574-11.074 6.574-8.602 0-12.902-5.121-12.902-15.363V50.34h5.766v20.602c0 7.571 2.906 11.355 8.719 11.355 2.859 0 5.18-1.037 6.961-3.111s2.672-4.775 2.672-8.104V50.34h5.766v36zM463.86 56.176c-1.031-.773-2.496-1.16-4.395-1.16-2.555 0-4.629 1.201-6.223 3.604s-2.391 5.525-2.391 9.369V86.34h-5.766v-36h5.766v7.418h.141c.797-2.484 2.027-4.447 3.691-5.889 1.664-1.441 3.574-2.162 5.73-2.162 1.5 0 2.648.164 3.445.492v5.977zM495.92 69.781h-25.418c.094 4.055 1.166 7.154 3.217 9.299s4.893 3.217 8.525 3.217c4.078 0 7.793-1.312 11.145-3.938v5.379c-3.141 2.32-7.312 3.48-12.516 3.48-5.133 0-9.141-1.658-12.023-4.975-2.883-3.316-4.324-7.904-4.324-13.764 0-3.563.721-6.815 2.162-9.756s3.428-5.221 5.959-6.838 5.344-2.426 8.438-2.426c4.664 0 8.303 1.518 10.916 4.553 2.613 3.036 3.92 7.283 3.92 12.744v3.025zm-5.91-4.886c-.047-3.328-.85-5.912-2.408-7.752-1.559-1.84-3.756-2.76-6.592-2.76-2.672 0-4.957.961-6.855 2.883s-3.094 4.465-3.586 7.629h19.44z"/></svg>