<svg xmlns="http://www.w3.org/2000/svg" xmlns:xlink="http://www.w3.org/1999/xlink" enable-background="new 0 0 859.89 613.28" height="99.456" width="99.457" id="Layer_1"><defs id="defs218"><linearGradient id="linearGradient3979" gradientUnits="userSpaceOnUse" y1="613.281" x2="1" y2="613.281" gradientTransform="matrix(0 -96 96 0 -58427.906 368.03)"><stop offset="0" id="stop3981" stop-color="#6abe2c"/><stop offset="1" id="stop3983" stop-color="#89bf4a"/></linearGradient><linearGradient id="linearGradient3973" gradientUnits="userSpaceOnUse" y1="613.281" x2="1" y2="613.281" gradientTransform="matrix(0 -96 96 0 -58427.906 368.03)"><stop offset="0" id="stop3975" stop-color="#69be2a"/><stop offset="1" id="stop3977" stop-color="#89bf4a"/></linearGradient><defs id="defs5"><path id="SVGID_1_" d="M0 0h859.89v613.28H0z"/></defs><clipPath id="SVGID_2_"><use height="100%" width="100%" xlink:href="#SVGID_1_" overflow="visible" id="use9"/></clipPath><defs id="defs43"><path d="M430.103 272C402.888 272 399 275.892 399 303.135v33.73c0 27.243 3.888 31.135 31.103 31.135h33.795c27.215 0 31.103-3.892 31.103-31.135v-33.73c0-27.243-3.888-31.135-31.103-31.135h-33.795z" id="SVGID_9_"/></defs><clipPath id="SVGID_10_"><use height="100%" width="100%" id="use47" overflow="visible" xlink:href="#SVGID_9_"/></clipPath><linearGradient xlink:href="#linearGradient3979" gradientTransform="matrix(0 -96 96 0 -58427.906 368.03)" y2="613.281" x2="1" y1="613.281" gradientUnits="userSpaceOnUse" id="SVGID_11_"><stop id="stop50" offset="0" stop-color="#6eb532"/><stop id="stop52" offset="1" stop-color="#89bf4a"/></linearGradient><filter height="1.036" y="-.018" width="1.036" x="-.018" id="filter4272" color-interpolation-filters="sRGB"><feGaussianBlur id="feGaussianBlur4274" stdDeviation=".72"/></filter><clipPath id="SVGID_10_-3"><use height="100%" width="100%" id="use47-4" overflow="visible" xlink:href="#SVGID_9_"/></clipPath><linearGradient id="Background"><stop id="stop4178" offset="0" stop-color="#22779e"/><stop id="stop4180" offset="1" stop-color="#2991c0"/></linearGradient><filter id="filter1121" color-interpolation-filters="sRGB"><feFlood flood-opacity=".6" flood-color="#000" result="flood" id="feFlood1123"/><feComposite in="flood" in2="SourceGraphic" operator="out" result="composite1" id="feComposite1125"/><feGaussianBlur in="composite1" stdDeviation="1" result="blur" id="feGaussianBlur1127"/><feOffset dy="2" result="offset" id="feOffset1129"/><feComposite in="offset" in2="SourceGraphic" operator="atop" result="composite2" id="feComposite1131"/></filter><filter id="filter950" color-interpolation-filters="sRGB"><feFlood flood-opacity=".25" flood-color="#000" result="flood" id="feFlood952"/><feComposite in="flood" in2="SourceGraphic" operator="in" result="composite1" id="feComposite954"/><feGaussianBlur in="composite1" stdDeviation="1" result="blur" id="feGaussianBlur956"/><feOffset dy="1" result="offset" id="feOffset958"/><feComposite in="SourceGraphic" in2="offset" result="composite2" id="feComposite960"/></filter><clipPath id="clipPath873"/><style id="style867"></style><clipPath id="clipPath16"><path id="path18" d="M-9-9h614v231H-9V-9z"/></clipPath><clipPath id="clipPath116"><path id="path118" d="M91.737 146.325l-9.704-1.577-8.855-3.881-7.52-4.73-7.157-8.734-4.043-4.282-3.91-1.441-1.034 2.527 1.808 2.61.407 3.68 1.21-.05 1.324-1.206-.357 3.749-1.467.984.045 1.428-3.475-1.965-3.146-3.712-.656-3.318 1.345-2.657 1.255-4.513 2.552-1.208 2.685.132 2.546 1.479-1.698-8.613 1.698-9.582-1.87-4.425-6.122-6.596 1.089-3.941 2.9-4.567 5.469-3.849 2.9-.397 3.225-.109-2.012-8.26 7.4-3.033 9.218-1.213 3.154 2.062.243 5.58 3.517 5.822.243 4.61 8.491-.607 7.884.728-7.884-4.73 1.334-5.702 4.973-7.763 4.852-2.062 3.882 1.577 1.577 3.154 8.127 6.186 1.577-1.334 12.736-.485 2.547 2.062.243 3.639-.85 1.576-.606 9.826-4.245 8.49.728 3.76 2.547-1.333 7.157-6.672 3.517-.242 3.882 1.577 3.881 2.91 1.941 6.308 11.402-.728 6.914 2.669 5.58 5.216 4.003 7.52.97 8.855-.85 10.31-2.182 9.219-2.184 2.911-3.032.97-5.337-5.822-4.852-1.698-4.246 7.035-4.245 3.882-2.305 1.456-9.219 7.641-7.399 4.003-7.4.607-8.611-1.456-7.52-2.79-5.216-4.245-4.125-4.973-4.245-1.213"/></clipPath><clipPath id="clipPath128"><path id="path130" d="M91.737 146.325l-9.704-1.577-8.855-3.881-7.52-4.73-7.157-8.734-4.043-4.282-3.91-1.441-1.034 2.527 1.808 2.61.407 3.68 1.21-.05 1.324-1.206-.357 3.749-1.467.984.045 1.428-3.475-1.965-3.146-3.712-.656-3.318 1.345-2.657 1.255-4.513 2.552-1.208 2.685.132 2.546 1.479-1.698-8.613 1.698-9.582-1.87-4.425-6.122-6.596 1.089-3.941 2.9-4.567 5.469-3.849 2.9-.397 3.225-.109-2.012-8.26 7.4-3.033 9.218-1.213 3.154 2.062.243 5.58 3.517 5.822.243 4.61 8.491-.607 7.884.728-7.884-4.73 1.334-5.702 4.973-7.763 4.852-2.062 3.882 1.577 1.577 3.154 8.127 6.186 1.577-1.334 12.736-.485 2.547 2.062.243 3.639-.85 1.576-.606 9.826-4.245 8.49.728 3.76 2.547-1.333 7.157-6.672 3.517-.242 3.882 1.577 3.881 2.91 1.941 6.308 11.402-.728 6.914 2.669 5.58 5.216 4.003 7.52.97 8.855-.85 10.31-2.182 9.219-2.184 2.911-3.032.97-5.337-5.822-4.852-1.698-4.246 7.035-4.245 3.882-2.305 1.456-9.219 7.641-7.399 4.003-7.4.607-8.611-1.456-7.52-2.79-5.216-4.245-4.125-4.973-4.245-1.213"/></clipPath><linearGradient id="linearGradient3850"><stop id="stop3852" offset="0"/><stop id="stop3854" offset="1" stop-opacity="0"/></linearGradient><clipPath id="clipPath3095"><path d="M976.648 389.551H134.246v839.999h842.402V389.551" id="path3097"/></clipPath><clipPath id="clipPath3195"><path d="M611.836 756.738l-106.34 105.207c-8.473 8.289-13.617 20.102-13.598 33.379l106.403-105.117c-.031-13.418 5.094-25.031 13.535-33.469" id="path3197"/></clipPath><clipPath id="clipPath3235"><path d="M1095.64 1501.81c35.46-35.07 70.89-70.11 106.35-105.17 4.4-4.38 7.11-10.53 7.11-17.55l-106.37 105.21c0 7-2.71 13.11-7.09 17.51" id="path3237"/></clipPath><clipPath id="clipPath4591"><path d="M1106.6 730.437l-.035 21.648c-.01 3.509-2.868 6.614-6.404 6.926l-83.65 7.331c-3.52.308-6.381-2.3-6.367-5.814l.036-21.648 20.117-1.766-.011 4.637c0 1.84 1.484 3.2 3.326 3.04l49.527-4.34c1.843-.166 3.343-1.781 3.354-3.626l.01-4.63 20.1-1.758" id="path4593" fill="#f0f"/></clipPath><radialGradient gradientUnits="userSpaceOnUse" gradientTransform="matrix(-1.4334 -2.27428 1.17318 -.73941 -174.08 98.374)" r="20.407" fy="93.399" fx="-26.509" cy="93.399" cx="-26.509" id="radialGradient3856" xlink:href="#linearGradient3850"/><linearGradient gradientTransform="translate(-318.48 212.32)" gradientUnits="userSpaceOnUse" y2="993.197" x2="-51.88" y1="593.116" x1="348.201" id="linearGradient3895" xlink:href="#linearGradient3850"/><clipPath id="clipPath3906"><path transform="scale(1 -1)" style="marker:none" id="rect3908" opacity=".8" color="#000" fill="#f0f" stroke-width="4" overflow="visible" enable-background="accumulate" d="M357.982-1725.815h1019.137v1019.137H357.982z"/></clipPath><filter id="filter1121-7" color-interpolation-filters="sRGB"><feFlood flood-opacity=".6" flood-color="#000" result="flood" id="feFlood1123-8"/><feComposite in="flood" in2="SourceGraphic" operator="out" result="composite1" id="feComposite1125-4"/><feGaussianBlur in="composite1" stdDeviation="1" result="blur" id="feGaussianBlur1127-8"/><feOffset dy="2" result="offset" id="feOffset1129-7"/><feComposite in="offset" in2="SourceGraphic" operator="atop" result="composite2" id="feComposite1131-8"/></filter><clipPath id="clipPath4336"><path d="M0 64.865v-33.73C0 3.892 3.888 0 31.103 0h33.794C92.112 0 96 3.892 96 31.135v33.73C96 92.108 92.112 96 64.897 96H31.103C3.888 96 0 92.108 0 64.865z" id="path4338" opacity=".063" fill="#df382c"/></clipPath></defs><use transform="translate(-397.272 -270.272)" xlink:href="#SVGID_9_" overflow="visible" id="use4792" width="100%" height="100%" opacity=".15" filter="url(#filter4272)"/><g transform="translate(-397.272 -272.272)" clip-path="url(#SVGID_2_)" id="g11"><defs id="defs13"><path id="SVGID_3_" d="M0 0h859.89v613.28H0z"/></defs><clipPath id="SVGID_4_"><use xlink:href="#SVGID_3_" overflow="visible" id="use17" width="100%" height="100%"/></clipPath><g clip-path="url(#SVGID_4_)" id="g19" opacity=".3"><g id="g21"><defs id="defs23"><path id="SVGID_5_" d="M396 270h102.24v102.24H396z"/></defs><clipPath id="SVGID_6_"><use xlink:href="#SVGID_5_" overflow="visible" id="use27" width="100%" height="100%"/></clipPath><g clip-path="url(#SVGID_6_)" id="g29"><defs id="defs31"><path id="SVGID_7_" d="M396 270h102.24v102.24H396z"/></defs><clipPath id="SVGID_8_"><use xlink:href="#SVGID_7_" overflow="visible" id="use35" width="100%" height="100%"/></clipPath></g></g></g></g><path transform="translate(-397.272 -272.272)" id="rect54" clip-path="url(#SVGID_10_)" fill="#6abe2a" d="M399 272h96v96h-96z"/><g transform="translate(-397.272 -272.272)" clip-path="url(#SVGID_2_)" id="g56"><defs id="defs58"><path id="SVGID_12_" d="M430.103 272C402.888 272 399 275.892 399 303.135v33.73c0 27.243 3.888 31.135 31.103 31.135h33.795c27.215 0 31.103-3.892 31.103-31.135v-33.73c0-27.243-3.888-31.135-31.103-31.135h-33.795z"/></defs><clipPath id="SVGID_13_"><use xlink:href="#SVGID_12_" overflow="visible" id="use62" width="100%" height="100%"/></clipPath><g clip-path="url(#SVGID_13_)" id="g64" opacity=".134"><g id="g66"><defs id="defs68"><path id="SVGID_14_" d="M374.202 199.768h165.319v214.578H374.202z"/></defs><clipPath id="SVGID_15_"><use xlink:href="#SVGID_14_" overflow="visible" id="use72" width="100%" height="100%"/></clipPath><g clip-path="url(#SVGID_15_)" id="g74"><defs id="defs76"><path id="SVGID_16_" d="M538.924 312.404l-71.048 101.942-84.245-50.616-9.429-56.016 18.243-22.926z"/></defs><clipPath id="SVGID_17_"><use xlink:href="#SVGID_16_" overflow="visible" id="use80" width="100%" height="100%"/></clipPath><defs id="defs82"><filter id="Adobe_OpacityMaskFilter" filterUnits="userSpaceOnUse" x="351.67" y="256.141" width="209.786" height="186.852"><feColorMatrix values="1 0 0 0 0 0 1 0 0 0 0 0 1 0 0 0 0 0 1 0" id="feColorMatrix85"/></filter></defs><mask maskUnits="userSpaceOnUse" x="351.67" y="256.141" width="209.786" height="186.852" id="SVGID_18_"><g id="g88" filter="url(#Adobe_OpacityMaskFilter)"><linearGradient id="SVGID_19_" gradientUnits="userSpaceOnUse" y1="613.174" x2="1" y2="613.174" gradientTransform="rotate(100.177 16943.604 20473.101) scale(65.6526)"><stop offset="0" id="stop91" stop-color="#fff"/><stop offset="1" id="stop93"/></linearGradient><path clip-path="url(#SVGID_17_)" id="polygon95" fill="url(#SVGID_19_)" d="M561.456 288.833l-182.111-32.692-27.675 154.16 182.111 32.692z"/></g></mask><linearGradient id="SVGID_20_" gradientUnits="userSpaceOnUse" y1="613.174" x2="1" y2="613.174" gradientTransform="rotate(100.177 16943.604 20473.101) scale(65.6526)"><stop offset="0" id="stop98" stop-color="#4e9a34"/><stop offset="1" id="stop100" stop-color="#4e9a34"/></linearGradient><path clip-path="url(#SVGID_17_)" mask="url(#SVGID_18_)" id="polygon102" fill="url(#SVGID_20_)" d="M561.456 288.833l-182.111-32.692-27.675 154.16 182.111 32.692z"/></g><g clip-path="url(#SVGID_15_)" id="g104"><defs id="defs106"><path id="SVGID_21_" d="M432.56 199.768l-40.115 85.02 146.479 27.616.597-65.422z"/></defs><clipPath id="SVGID_22_"><use xlink:href="#SVGID_21_" overflow="visible" id="use110" width="100%" height="100%"/></clipPath><defs id="defs112"><filter id="Adobe_OpacityMaskFilter_1_" filterUnits="userSpaceOnUse" x="372.739" y="174.037" width="186.489" height="164.099"><feColorMatrix values="1 0 0 0 0 0 1 0 0 0 0 0 1 0 0 0 0 0 1 0" id="feColorMatrix115"/></filter></defs><mask maskUnits="userSpaceOnUse" x="372.739" y="174.037" width="186.489" height="164.099" id="SVGID_23_"><g id="g118" filter="url(#Adobe_OpacityMaskFilter_1_)"><linearGradient id="SVGID_24_" gradientUnits="userSpaceOnUse" y1="613.12" x2="1" y2="613.12" gradientTransform="rotate(-79.759 -16330.201 13858.75) scale(45.6174)"><stop offset="0" id="stop121" stop-color="#fff"/><stop offset="1" id="stop123"/></linearGradient><path clip-path="url(#SVGID_22_)" id="polygon125" fill="url(#SVGID_24_)" d="M372.739 308.844l162.134 29.292 24.355-134.807-162.134-29.292z"/></g></mask><linearGradient id="SVGID_25_" gradientUnits="userSpaceOnUse" y1="613.122" x2="1" y2="613.122" gradientTransform="rotate(-79.759 -16330.203 13858.75) scale(45.6174)"><stop offset="0" id="stop128" stop-color="#c6d872"/><stop offset="1" id="stop130" stop-color="#c6d872"/></linearGradient><path clip-path="url(#SVGID_22_)" mask="url(#SVGID_23_)" id="polygon132" fill="url(#SVGID_25_)" d="M372.739 308.844l162.134 29.292 24.355-134.807-162.134-29.292z"/></g></g></g><g clip-path="url(#SVGID_13_)" id="g134" opacity=".138"><g id="g136"><defs id="defs138"><path id="SVGID_26_" d="M319.662 214.449h209.604v190.483H319.662z"/></defs><clipPath id="SVGID_27_"><use xlink:href="#SVGID_26_" overflow="visible" id="use142" width="100%" height="100%"/></clipPath><g clip-path="url(#SVGID_27_)" id="g144"><defs id="defs146"><path id="SVGID_28_" d="M466.523 242.43l62.743 107.254-81.281 55.249-54.806-14.936-13.161-26.176z"/></defs><clipPath id="SVGID_29_"><use xlink:href="#SVGID_28_" overflow="visible" id="use150" width="100%" height="100%"/></clipPath><defs id="defs152"><filter id="Adobe_OpacityMaskFilter_2_" filterUnits="userSpaceOnUse" x="303.691" y="172.329" width="301.9" height="302.704"><feColorMatrix values="1 0 0 0 0 0 1 0 0 0 0 0 1 0 0 0 0 0 1 0" id="feColorMatrix155"/></filter></defs><mask maskUnits="userSpaceOnUse" x="303.691" y="172.329" width="301.9" height="302.704" id="SVGID_30_"><g id="g158" filter="url(#Adobe_OpacityMaskFilter_2_)"><linearGradient id="SVGID_31_" gradientUnits="userSpaceOnUse" y1="613.157" x2="1" y2="613.157" gradientTransform="scale(65.6525) rotate(34.975 969.005 319.175)"><stop offset="0" id="stop161" stop-color="#fff"/><stop offset="1" id="stop163"/></linearGradient><path clip-path="url(#SVGID_29_)" id="polygon165" fill="url(#SVGID_31_)" d="M429.057 172.329L303.692 351.538l176.536 123.495 125.365-179.209z"/></g></mask><linearGradient id="SVGID_32_" gradientUnits="userSpaceOnUse" y1="613.157" x2="1" y2="613.157" gradientTransform="scale(65.6525) rotate(34.975 969.004 319.175)"><stop offset="0" id="stop168" stop-color="#4e9a34"/><stop offset="1" id="stop170" stop-color="#4e9a34"/></linearGradient><path clip-path="url(#SVGID_29_)" mask="url(#SVGID_30_)" id="polygon172" fill="url(#SVGID_32_)" d="M429.057 172.329L303.691 351.538l176.536 123.495 125.365-179.209z"/></g><g clip-path="url(#SVGID_27_)" id="g174"><defs id="defs176"><path id="SVGID_33_" d="M319.662 291.746l60.356 72.075 86.505-121.391-59.14-27.981z"/></defs><clipPath id="SVGID_34_"><use xlink:href="#SVGID_33_" overflow="visible" id="use180" width="100%" height="100%"/></clipPath><defs id="defs182"><filter id="Adobe_OpacityMaskFilter_3_" filterUnits="userSpaceOnUse" x="249.446" y="145.414" width="287.293" height="287.443"><feColorMatrix values="1 0 0 0 0 0 1 0 0 0 0 0 1 0 0 0 0 0 1 0" id="feColorMatrix185"/></filter></defs><mask maskUnits="userSpaceOnUse" x="249.446" y="145.414" width="287.293" height="287.443" id="SVGID_35_"><g id="g188" filter="url(#Adobe_OpacityMaskFilter_3_)"><linearGradient id="SVGID_36_" gradientUnits="userSpaceOnUse" y1="613.151" x2="1" y2="613.151" gradientTransform="scale(-45.6175) rotate(35.038 977.295 288.62)"><stop offset="0" id="stop191" stop-color="#fff"/><stop offset="1" id="stop193"/></linearGradient><path clip-path="url(#SVGID_34_)" id="polygon195" fill="url(#SVGID_36_)" d="M418.115 432.856l118.624-169.171L368.07 145.414 249.446 314.586z"/></g></mask><linearGradient id="SVGID_37_" gradientUnits="userSpaceOnUse" y1="613.151" x2="1" y2="613.151" gradientTransform="scale(-45.6175) rotate(35.038 977.296 288.62)"><stop offset="0" id="stop198" stop-color="#c6d872"/><stop offset="1" id="stop200" stop-color="#c6d872"/></linearGradient><path clip-path="url(#SVGID_34_)" mask="url(#SVGID_35_)" id="polygon202" fill="url(#SVGID_37_)" d="M418.115 432.856l118.624-169.171L368.07 145.414 249.446 314.586z"/></g></g></g></g><g transform="translate(-397.272 -272.272)" clip-path="url(#SVGID_2_)" id="g204"><defs id="defs206"><path id="SVGID_38_" d="M0 0h859.89v613.28H0z"/></defs><clipPath id="SVGID_39_"><use xlink:href="#SVGID_38_" overflow="visible" id="use210" width="100%" height="100%"/></clipPath><path clip-path="url(#SVGID_39_)" d="M445.604 293.493a.48.48 0 0 0-.172.035c-.42-.01-.864.011-1.374.205-.941.358-1.454 1.105-1.778 1.74a2.486 2.486 0 0 0-.336.631l-.006.016-.007.019-1.177 3.473-16.127 3.699a.5.5 0 0 0-.201.1c-.412.092-.857.184-1.317.498-.566.386-.88.835-1.074 1.103l-6.34 8.78.018-.022c-.686.847-1.049 1.788-1.25 2.539l-3.688 13.774.059.002c-.584 0-1.652.147-2.395 1.067-.565.699-.628 1.365-.629 1.724a2.538 2.538 0 0 0-.013.251v1.02c0 .454.065 1.486.943 2.279.854.771 1.788.748 2.123.748h2.725l-.364 5.151-.003.032h.002l-.002.019a.508.508 0 0 0 .015.164c-.086.863-.057 1.981.85 2.921 1.001 1.038 2.205 1.032 2.846 1.032h3.501c.773 0 1.817-.155 2.665-.905.834-.737 1.095-1.664 1.23-2.316l.004-.022.002-.019.707-3.662 1.379 4.121.002.006a.466.466 0 0 0 .082.146c.25.726.686 1.521 1.492 2.037.87.558 1.751.614 2.395.614h4.146c.822 0 1.948-.331 2.658-1.274.677-.897.734-1.885.674-2.652l-.74-9.397 3.959-1.069.021-.006h.004a.245.245 0 0 0 .029-.008l.816-.232-.688 10.609a.526.526 0 0 0 .012.137c-.048.694-.057 1.758.799 2.729.923 1.046 2.158 1.164 3.004 1.164h2.771c.815 0 2.05-.258 2.838-1.218.72-.877.792-1.68.9-2.243l.738-3.834 2.381 4.387c.355.7.803 1.526 1.715 2.151.929.636 1.975.757 2.855.757h3.412c.421 0 .936-.045 1.5-.287a3.127 3.127 0 0 0 1.523-1.424c.596-1.185.31-2.165.15-2.757l-.002-.008-.002-.01-4.855-17.818 1.607.06-.014-.002.031.002.031.002 2.043.033a4.15 4.15 0 0 0 1.254-.149c.185-.052.28-.192.428-.287l.504 6.146a.059.059 0 0 1 .002.013c.063.719.172 1.464.594 2.223.38.683.931 1.064 1.391 1.363a.498.498 0 0 0 .178.192l.016.01.004.002.027.015 3.525 2.166.014.008c1.157.665 2.098.874 3.283 1.029l.039.002 4.129.207c.07.005.133.005.189.004h.002c.327-.008.799-.015 1.375-.194.481-.151.859-.459 1.215-.757a.513.513 0 0 0 .24-.116l1.777-1.608.004-.003c.029-.028.059-.056.086-.084.382-.382.775-.912 1.105-2.069.159-.56.243-1.304.078-2.133l-.858-5.382a3.306 3.306 0 0 0-.741-1.67c-.504-.609-1.382-1.131-2.396-1.129l-1.896.004c-.042-.001-.083 0-.125.002h-.004c-.442.022-1.251.118-1.982.785-.194.177-.26.396-.387.599l.225-7.476V315.971l.045-1.968v-.025c.013-.943-.226-1.62-.57-2.301l-.002-.002c-.02-.037-.039-.073-.061-.109v-.002l-5.858-10.258v-.002a.163.163 0 0 0-.011-.023c-.565-.976-1.684-1.713-2.77-1.965a5.81 5.81 0 0 0-.111-.026l-.008-.002-9.941-1.793h-.002c-.152-.027-.308-.011-.463-.009-.206-.372-.402-.796-.891-1.137-.746-.52-1.438-.643-1.977-.76h-.002l-8.531-1.855c-.345-.087-.734-.202-1.197-.239h-.002a.23.23 0 0 0-.046-.002zm.726 5.24l7.992 1.74.021.004 7.902 18.754-6.848-.246-12.656-9.666 3.589-10.586zm16.037 4.502l1.125.203c-.131.36-.305.698-.305 1.117 0 .431.114.832.25 1.221l-1.07-2.541zm-24.758 2.228l-1.395 4.12a3.168 3.168 0 0 0 1.068 3.521l.002.002.004.002 15.074 11.513c.52.396 1.15.624 1.805.647h.018l1.959.07 4.4 16.155h-1.274c-.033-.06-.048-.07-.096-.164l-.004-.009-.029-.059-.002-.002-5.744-10.59a2.495 2.495 0 0 0-.23-.339l-2.029-3.724-.002-.002c-.009-.015-.019-.027-.027-.043l-.002-.002a3.168 3.168 0 0 0-2.832-1.6h-.002c-.222.006-.433.05-.641.1h-.004a.462.462 0 0 0-.133.021l-7.703 2.19-4.701 1.269a.794.794 0 0 0-.062.015l-.013.004c-.786.239-1.793.687-2.419 1.707-.583.95-.557 1.878-.5 2.545a.483.483 0 0 0-.004.101l.002.024.002.015.672 8.543h-1.811l-6.83-20.429a3.168 3.168 0 0 0-.701-1.17l-1.701-1.803a3.155 3.155 0 0 0-2.213-.98c.03-.037.005-.093.086-.191.028-.035.057-.073.084-.111l.002-.002 6.261-8.668 11.665-2.676zm26.031.793c.639 1.243 1.902 2.129 3.378 2.129.896 0 1.658-.392 2.303-.918l3.682 6.45.035.149.008.025-.039 1.762-.428 14.224-.689-.425c-.004-.036-.005-.033-.01-.088l-.004-.02-.936-11.378v-.002l-.002-.024v-.004c-.139-1.462-1.065-2.894-2.479-3.484a.422.422 0 0 0-.045-.018h-.002l-1.502-.619-3.27-7.759zm-43.669 22.317l1.334 3.989-1.725 8.931h-1.287l.711-10.078c.308-.901.622-1.822.967-2.842m51.65 1.488l-.006.013-.008-.007a.042.042 0 0 1 .014-.006zm-24.668 2.085l1.215 2.23-1.367 7.116h-.455l.607-9.346z" id="path212" fill="#5ba232"/><path clip-path="url(#SVGID_39_)" d="M444.299 296.938l-4.244 12.533c-.266.616.088 1 .523 1.34l13.379 10.216c.438.361.729.434 1.296.455l7.455.269 2.044.033c.854.015 1.123-.278.757-1.189l-.381-.96-8.58-20.361c-.404-.896-.669-1.019-1.695-1.242l-8.592-1.87c-1.237-.309-1.616-.197-1.962.776zm13.973 3.018l6.733 15.978 2.489 1.026c.533.223.887.715.953 1.412l.94 11.415c.104 1.167.338 1.486.98 1.866l3.572 2.193c.516.319 1.042.466 1.038-.391l.525-17.537.043-1.974c.004-.313-.118-.778-.303-1.141l-5.862-10.268c-.238-.412-.562-.647-1.17-.787l-9.938-1.792zm-16.86 2.07l-16.227 3.722c-.627.107-.778.25-1.123.727l-6.406 8.87c-.457.562-.613.985-.779 1.608l-3.835 14.332 1.958.021c.426-1.24.891-2.603 1.389-4.076a2217.7 2217.7 0 0 0 2.409-7.18.66.66 0 0 1 1.108-.243l1.703 1.804a.65.65 0 0 1 .146.245l7.037 21.047c.246.866.694 1.088 1.599 1.088h4.146c.577 0 .912-.331.841-1.228l-.793-10.051c-.096-1.015.088-1.438 1.156-1.762l4.718-1.271 7.72-2.196a.663.663 0 0 1 .763.321l2.246 4.12.012-.062 5.744 10.589c.612 1.204 1.008 1.54 2.343 1.54h3.412c.859 0 .994-.448.758-1.327l-5.383-19.758-3.814-.137a.664.664 0 0 1-.377-.136l-15.076-11.513a.662.662 0 0 1-.224-.737l2.829-8.357zm25.605 1.2a1.33 1.33 0 1 1 0 2.658 1.33 1.33 0 0 1 0-2.658m-47.316 18.293c-.276.828-1.018 3.056-2.058 6.137a677.466 677.466 0 0 1-1.112 3.259l-.817 11.637c-.173 1.21.223 1.441 1.218 1.441h3.501c.946 0 1.26-.33 1.446-1.227l2.004-10.372-3.336-9.979-.846-.896zm62.476 3.062l-1.896.003c-.388.021-.572.159-.555.535l.323 4.632 3.655.924-.866-5.429c-.043-.286-.25-.667-.661-.665zm-34.146 4.321l-3.436.978-.827 12.746c-.082.979.146 1.366 1.317 1.366h2.772c.911 0 1.071-.327 1.284-1.432l1.65-8.592-2.76-5.066zm28.268 1.012l-.206 4.606 4.135.207c.573-.016.854-.062 1.215-.423l1.775-1.608c.409-.408.469-.724-.031-.892l-6.888-1.89zm-66.003 3.219v1.014c0 .428.13.528.567.528h2.941a.633.633 0 0 1 .08-.209l.042-.106c.042-.108.103-.27.177-.474.111-.309.278-.785.443-1.26l-3.712-.041c-.484 0-.538.186-.538.548z" id="path214" fill="#f2f7eb"/></g></svg>