<?xml version="1.0" encoding="UTF-8" standalone="no"?>
<!-- Created with Inkscape (http://www.inkscape.org/) -->
<svg id="svg5918" xmlns:rdf="http://www.w3.org/1999/02/22-rdf-syntax-ns#" xmlns="http://www.w3.org/2000/svg" height="16" viewBox="0 0 16 15.999999" width="16" version="1.1" xmlns:cc="http://creativecommons.org/ns#" xmlns:dc="http://purl.org/dc/elements/1.1/">
 <metadata id="metadata5923">
  <rdf:RDF>
   <cc:Work rdf:about="">
    <dc:format>image/svg+xml</dc:format>
    <dc:type rdf:resource="http://purl.org/dc/dcmitype/StillImage"/>
    <dc:title/>
   </cc:Work>
  </rdf:RDF>
 </metadata>
 <g id="layer1" transform="translate(-182.94 -560.72)">
  <g id="g5346" transform="translate(-769.06 404.36)">
   <g id="g4809" transform="matrix(.66667 0 0 .66667 610.67 -102.55)">
    <rect id="rect4811" style="color:#000000;enable-background:accumulate" height="24" width="24" y="388.36" x="512" fill="none"/>
    <rect id="rect4813" style="color:#000000;enable-background:accumulate" height="24" width="24" y="388.36" x="512" fill="none"/>
    <path id="path4815" style="color:#000000;enable-background:accumulate" d="m519.27 405.09 9.454-9.454" stroke="#808080" stroke-width="2.1944" fill="none"/>
    <path id="path4817" style="enable-background:accumulate;color-rendering:auto;text-decoration-color:#000000;color:#000000;isolation:auto;shape-rendering:auto;block-progression:tb;text-decoration-line:none;text-decoration-style:solid;image-rendering:auto;text-indent:0;text-transform:none" d="m530.23 388.36c-0.16752 0.005-0.33261 0.0248-0.49522 0.0573-1.3009 0.26025-2.1282 1.1723-2.8469 1.891l-2.1562 2.1562c-0.71867 0.71867-1.6301 1.5459-1.8903 2.8469-0.11121 0.55598-0.0648 1.1414 0.14465 1.7508l2.654-2.6546c0.15414-0.16888 0.32382-0.3447 0.50694-0.5278l2.1562-2.1562c0.71867-0.71867 1.3288-1.2444 1.8245-1.3436 0.062-0.0125 0.12712-0.0214 0.19614-0.0248 0.069-0.003 0.14188-0.001 0.21959 0.008 0.46627 0.0546 1.1042 0.37115 2.0936 1.3606 1.3192 1.3192 1.4421 2.0136 1.343 2.5093-0.0993 0.49568-0.62494 1.1052-1.3436 1.8238l-2.1555 2.1562c-0.18485 0.18483-0.36199 0.3555-0.53237 0.51085l-2.6507 2.6507c0.60963 0.20967 1.1953 0.25592 1.7515 0.14466 1.3009-0.26026 2.1282-1.1723 2.8468-1.891l2.1562-2.1562c0.71867-0.71867 1.63-1.546 1.8903-2.8469 0.26025-1.3009-0.33515-2.7624-1.8903-4.3175-1.1664-1.1664-2.28-1.7929-3.3128-1.9235-0.17212-0.0218-0.34204-0.0298-0.50955-0.0241zm-10.78 10.78c-0.1675 0.005-0.33261 0.0248-0.49521 0.0573-1.3009 0.26025-2.1282 1.1723-2.8469 1.8909l-2.1562 2.1555c-0.71867 0.71867-1.63 1.5466-1.8903 2.8475-0.26025 1.3009 0.33516 2.7624 1.8903 4.3175 1.5551 1.5552 3.0166 2.1506 4.3175 1.8903 1.3009-0.26025 2.1282-1.1723 2.8469-1.891l2.1562-2.1561c0.71867-0.71868 1.6301-1.546 1.8903-2.8468 0.11121-0.55618 0.065-1.1419-0.14465-1.7515l-2.6475 2.6475c-0.15606 0.17139-0.32742 0.34957-0.51345 0.53562l-2.1562 2.1561c-0.71867 0.71868-1.3288 1.2438-1.8245 1.343-0.49568 0.0993-1.1901-0.0238-2.5093-1.343s-1.4421-2.0136-1.343-2.5093c0.0993-0.49567 0.62494-1.1052 1.3436-1.8238l2.1555-2.1562c0.18432-0.1843 0.36112-0.35455 0.53106-0.50955l2.6514-2.6514c-0.25289-0.0869-0.50186-0.14766-0.74607-0.17854-0.17213-0.0218-0.34206-0.0298-0.50956-0.0241z" fill="#808080"/>
   </g>
  </g>
 </g>
</svg>
