<svg xmlns="http://www.w3.org/2000/svg" width="96" height="96"><path fill="#86d0f5" d="M48 0A48 48 0 0 0 0 48a48 48 0 0 0 48 48 48 48 0 0 0 48-48A48 48 0 0 0 48 0z"/><g stroke-width=".839"><path fill-rule="evenodd" d="M18.316 55.167l-.94 2.554c-.773.77-1.547 1.54-2.322 2.3-.846.84-1.028.84-.83 2.02.234 1.4.904 2.83 2.138 4.07 1.297 1.3 4.02 3.14 5.98 2.28-.182.66-.424 1.35-.73 2.03-1.316 2.88 1.887 3.45 4.128 4.05 1.863.51 6.434 1.85 7.094-.6.297-1.1.343-1.69.237-2.74.58-1.29.77-1.5 1.25-2.21.66-.98.61-1.35.47-2.56-.03-.23-.06-.49-.1-.75 2.22.34 4.35.33 6.53.06-.66.39-1.32.72-2.19 1.17-2.07 1.07-.12 4.21.78 5.59 1.87 2.89 3.55 4.88 6.72 3.17 1.06-.58 1.15-1.19 1.81-2.18.37-.2 2.26-1.81 3.38-2.72.43.51 1.24.61 2.48.7.63.04 3.07.03 3.71.03 1.94.01 3.11-.19 3.26-2.3.07-1 .03-1.21-.46-2.09l-.09-3.32c-.03-1.24-.27-2.01-.76-3.17-.44-1.05-.69-1.96-1.21-2.98.07-.4.13-.82.17-1.25l1.98 1.91c1.26 1.21 2.3 2.2 4.21 2.11 2-.09 4.28-1.67 4.87-3.59l.59-1.92c3.01.57 6.53.44 9.15-.96 3.86-2.05 5.66-6.19 6.1-10.57.36-3.54-.33-9.49-2.02-12.72-.49-.95-2.73-2.15-3.72-1.15-.74.75-1.24 1.89-2.04 2.57-.62.53-1.39.79-2.06 1.07-.52-1.4-1.27-2.49-2.18-3.58-.72-.87-1.41-1.3-2.37-1.9-1.89-1.19-3.37-2.69-5.09-4.11C60.99 19.13 56.51 19.26 50 22c-3.11 1.31-4.6 3.08-6.51 5.63-1.15.06-1.94.28-3.16 1.355-.9.79-1.734 1.606-2.543 2.45-6.082.97-9.86 2.126-13.856 5.67-1.62 1.44-2.8 3.04-3.73 4.834-.85.95-1.7 1.92-2.83 2.35-.79.31-.78.31-1.06-.44.95-.71.93-2.05 1.02-3.26.6.03.82.7 1.23 1.21.24-1.07.38-2.73-.75-3.32.19-.49.4-.98.59-1.52-1.66.29-7.36 4.13-4.32 7.06.2.81.36 1.37.62 1.92.7 1.45 2.26 1.69 3.63 1.16-.37 1.71-.45 3.58-.22 6.2.06.63.15 1.26.27 1.89"/><path fill="#073c57" d="M18.677 55.3c-.126.34-.252.684-.377 1.026l-.723-.265.377-1.02zm-.377 1.026l-.562 1.527-.722-.265.56-1.527zm-.562 1.527l-.09.14-.27-.272zm-.09.14l-1.23 1.22-.543-.546 1.23-1.22zm-1.23 1.22l-1.093 1.08-.542-.544c.364-.37.73-.73 1.092-1.09zm-1.093 1.08c-.166.165-.223.22-.273.268l-.533-.55.26-.25zm-.273.268c-.493.48-.59.57-.448 1.42l-.76.13c-.208-1.25-.062-1.39.675-2.1zm-.448 1.42c.114.68.34 1.38.698 2.06l-.684.36a7.608 7.608 0 0 1-.773-2.29zm.698 2.06c.33.63.77 1.24 1.332 1.8l-.544.54a8.09 8.09 0 0 1-1.472-1.98zm1.332 1.8c.72.72 1.893 1.62 3.114 2.08l-.27.72c-1.335-.5-2.61-1.47-3.388-2.25zm3.114 2.08c.85.33 1.716.44 2.44.12l.31.71c-.934.42-2 .29-3.02-.1zm2.44.12l.743-.33-.21.79-.37-.1zm.526.46c-.097.35-.21.71-.34 1.07l-.725-.26c.12-.34.23-.68.32-1.01zm-.34 1.07c-.12.34-.258.68-.413 1.02l-.7-.32c.15-.31.28-.63.39-.95zm-.413 1.02c-.65 1.43.04 2.18 1.09 2.66l-.32.7c-1.44-.66-2.37-1.69-1.47-3.68zm1.09 2.66c.68.31 1.5.52 2.26.72l-.19.75c-.79-.2-1.65-.43-2.38-.76zm2.26.72l.54.14-.19.75c-.2-.06-.37-.1-.53-.14zm.54.14c.92.25 2.5.71 3.93.8l-.05.77c-1.49-.09-3.12-.56-4.07-.82zm3.93.8c1.29.08 2.44-.13 2.7-1.12l.75.2c-.39 1.47-1.86 1.8-3.49 1.7zm2.7-1.12c.14-.52.22-.92.26-1.32l.77.06c-.04.44-.13.88-.28 1.46zm.26-1.32c.03-.4.02-.79-.03-1.28l.77-.07c.06.56.07.99.04 1.42zm-.03-1.28l.03-.19.35.16zm.03-.19c.52-1.15.73-1.47 1.11-2.02l.64.44c-.35.51-.54.8-1.04 1.9zm1.11-2.02l.17-.25.64.43-.17.25zm.17-.25c.3-.43.43-.73.47-1.03l.76.11c-.06.43-.23.82-.59 1.36zm.47-1.03c.05-.31 0-.69-.07-1.27l.77-.09c.08.64.13 1.05.07 1.47zm-.07-1.27l-.04-.36.76-.1.05.38zm-.04-.36l-.05-.38.76-.11.06.4zm-.05-.38l-.07-.51.51.08-.06.38zm.44-.44c1.09.17 2.16.25 3.22.26v.77c-1.1-.01-2.21-.09-3.33-.26zm3.22.26c1.07 0 2.13-.06 3.2-.2l.09.77c-1.1.14-2.19.21-3.29.2zm3.2-.2l.24.72-.19-.34zm.24.72c-.62.36-1.24.68-2.03 1.09l-.35-.69c.79-.4 1.4-.72 2-1.07zM39.4 67.1l-.175.09-.35-.69.18-.09zm-.175.09c-.813.42-.82 1.29-.533 2.212l-.73.22c-.397-1.26-.344-2.48.913-3.13zm-.535 2.21c.33 1.04 1.02 2.14 1.457 2.81l-.64.41c-.46-.704-1.19-1.864-1.546-3zm1.457 2.81c.91 1.4 1.77 2.58 2.75 3.18l-.4.654c-1.11-.685-2.03-1.94-2.99-3.427zm2.75 3.18c.93.57 2.02.62 3.46-.16l.37.68c-1.723.93-3.06.85-4.23.13zm3.46-.16c.69-.37.91-.77 1.22-1.31l.67.38c-.37.65-.65 1.133-1.52 1.61zm1.22-1.31c.12-.216.26-.45.46-.746l.64.423c-.16.23-.296.47-.42.69zm.45-.75l.14-.125.18.34zm.14-.125c.22-.123 1.18-.917 2.12-1.69l.49.594c-.97.8-1.96 1.62-2.24 1.77zm2.12-1.69c.48-.397.955-.79 1.2-.99l.485.6c-.45.367-.82.674-1.2.98zm1.2-.99l.296-.24.245.295-.3.24zm.54.055c.15.18.396.3.727.37l-.17.75c-.49-.12-.87-.308-1.14-.63zm.727.37c.38.09.88.14 1.48.18l-.05.77c-.63-.047-1.16-.09-1.6-.2zm1.48.18c.48.033 1.99.032 2.97.032v.77c-1 0-2.54 0-3.02-.035zm2.97.04h.72v.77h-.72V71zm.72 0c.91 0 1.63-.04 2.11-.31l.38.67c-.63.36-1.46.41-2.49.405l.006-.77zm2.11-.31c.438-.248.7-.73.765-1.64l.77.054c-.09 1.208-.49 1.88-1.16 2.26zm.765-1.64c.03-.467.04-.745-.02-.98l.76-.17c.07.34.07.67.03 1.2zm-.02-.98c-.05-.24-.17-.49-.4-.897l.67-.372c.27.47.41.77.49 1.11zm-.4-.897L60.3 67l.388-.01zM60.3 67l-.042-1.66.77-.017.047 1.66zm-.042-1.66l-.05-1.656.77-.02.045 1.66zm-.05-1.656a6.662 6.662 0 0 0-.2-1.535l.75-.19c.13.52.204 1.05.22 1.7zm-.2-1.535c-.116-.47-.292-.94-.53-1.5l.71-.3c.25.59.44 1.09.57 1.61zm-.53-1.5c-.17-.4-.313-.79-.454-1.17l.723-.27c.137.36.275.73.445 1.14zm.27-1.44l-.36.13zm-.724.27c-.22-.6-.433-1.17-.747-1.79l.69-.35c.33.65.55 1.25.78 1.87zm-.747-1.79l-.032-.24.38.06zm-.032-.24c.038-.22.07-.42.094-.6l.76.09c-.03.23-.07.44-.1.63zm.094-.6c.02-.17.04-.37.06-.62l.77.06c-.02.18-.04.4-.08.65zm.06-.62l.07-.81.58.56-.27.28zm.65-.25l1.13 1.09-.54.55-1.14-1.09zm1.13 1.09l.84.81-.54.56-.85-.82zm.84.81c.61.59 1.17 1.12 1.78 1.49l-.39.66c-.7-.41-1.29-.98-1.93-1.6zm1.78 1.49c.59.35 1.27.55 2.14.51l.04.77c-1.05.05-1.85-.2-2.57-.62zm2.14.51c.94-.05 1.96-.45 2.8-1.08l.45.62c-.97.71-2.14 1.17-3.23 1.22zm2.8-1.08c.8-.6 1.45-1.39 1.71-2.25l.73.22c-.31 1.02-1.06 1.95-1.99 2.64zm1.71-2.25l.27-.89.73.22-.27.89zm.27-.89l.31-1.04.73.22-.31 1.03zm.31-1.04l.1-.33.34.06-.07.38zm.44-.27c1.56.29 3.26.4 4.89.22l.07.76c-1.71.18-3.48.07-5.11-.24zm4.89.22c1.43-.15 2.81-.52 4-1.15l.36.68c-1.28.68-2.76 1.07-4.29 1.23zm4-1.15c1.74-.93 3.05-2.3 3.99-3.93l.67.39c-1.01 1.75-2.42 3.23-4.3 4.23zm3.99-3.93l.33.2-.34-.19zm0 0c1.07-1.86 1.68-4.06 1.91-6.33l.76.08c-.24 2.37-.88 4.68-2.01 6.64zm1.91-6.33c.18-1.84.08-4.36-.31-6.8l.76-.12c.39 2.5.5 5.09.31 7zm-.31-6.8c-.34-2.14-.9-4.22-1.68-5.7l.68-.36c.81 1.55 1.4 3.71 1.75 5.94zm-1.67-5.71c-.06-.11-.16-.24-.29-.37l.54-.55c.18.19.33.38.43.57zM83 30.3c-.33-.32-.82-.63-1.33-.81l.25-.73c.62.22 1.216.59 1.62.99zm-1.33-.81c-.47-.16-.946-.2-1.285-.03l-.35-.68c.55-.285 1.24-.24 1.89-.015zm-1.285-.03c-.07.04-.13.09-.19.15l-.55-.54c.115-.12.25-.216.39-.29zm-.19.15c-.32.32-.594.72-.87 1.13l-.636-.436c.3-.44.59-.876.95-1.235zm-.87 1.13c-.365.53-.73 1.064-1.206 1.47l-.5-.59c.4-.34.73-.83 1.07-1.317zm-1.21 1.47c-.58.493-1.25.763-1.876 1.013l-.29-.71c.57-.23 1.18-.474 1.66-.888zm-1.876 1.013l-.29.12-.29-.713.29-.12zm-.29.12l-.37.15-.14-.374.36-.13zm-.51-.224c-.25-.67-.56-1.27-.91-1.84l.65-.41c.38.6.7 1.25.97 1.98zm-.91-1.84c-.36-.57-.76-1.1-1.21-1.63l.59-.5c.47.56.89 1.12 1.27 1.72zm-1.21-1.63c-.35-.41-.68-.72-1.04-.99l.46-.61c.4.31.78.65 1.16 1.11zm-1.04-.99c-.36-.28-.77-.53-1.25-.83l.41-.65c.48.3.9.56 1.3.87zm-1.25-.83c-1.34-.84-2.47-1.83-3.62-2.84l.5-.58c1.12.98 2.22 1.95 3.52 2.76zM67.43 25c-.48-.43-.97-.86-1.516-1.31l.49-.596c.51.42 1.02.87 1.53 1.32zm-1.52-1.31c-2.54-2.1-4.9-3.12-7.4-3.27l.05-.77c2.67.16 5.165 1.23 7.84 3.44zm-7.4-3.27c-2.52-.16-5.22.54-8.42 1.89l-.3-.71c3.307-1.4 6.11-2.12 8.76-1.96zm-8.41 1.89c-1.507.63-2.62 1.38-3.59 2.273l-.52-.56c1.03-.95 2.215-1.75 3.81-2.42zm-3.58 2.29c-.977.9-1.815 1.966-2.756 3.224l-.616-.464c.96-1.28 1.82-2.38 2.85-3.33zm-2.756 3.224l-.11.143-.18.01-.017-.383zm-.29.152c-.534.026-.982.09-1.43.27l-.284-.717c.54-.22 1.066-.29 1.68-.33zm-1.43.27c-.45.18-.92.483-1.49.99l-.51-.58c.645-.568 1.18-.914 1.716-1.127zm-1.49.99c-.44.386-.87.785-1.29 1.192l-.535-.554c.42-.41.86-.82 1.31-1.22zm-1.294 1.19v.002l-.27-.28.27.277zm0 .002c-.42.402-.83.814-1.23 1.232l-.56-.537c.406-.424.82-.843 1.25-1.256zm-1.23 1.234l-.22.11-.06-.38zm-.22.11c-3.01.48-5.45 1.01-7.63 1.85l-.28-.716c2.23-.86 4.715-1.4 7.79-1.89zm-7.63 1.85c-2.16.84-4.07 1.994-6.03 3.73l-.51-.575c2.036-1.806 4.016-3.003 6.26-3.873zm-6.03 3.73c-.794.71-1.48 1.45-2.08 2.23l-.61-.464c.63-.825 1.35-1.604 2.18-2.34zm-2.08 2.23a16.646 16.646 0 0 0-1.56 2.494l-.687-.35c.47-.91 1.01-1.78 1.64-2.6zm-1.563 2.49l-.056.09-.28-.256zm-.056.09c-.44.486-.87.977-1.34 1.4l-.52-.58c.45-.41.87-.874 1.29-1.336zm-1.34 1.4c-.49.44-1.02.82-1.64 1.055l-.28-.72c.51-.197.97-.523 1.4-.91zm-1.64 1.055l-.14-.36zm0 0c-.49.19-.73.286-1.01.17l.3-.71c.02.005.14-.063.44-.18zm-1.01.17l.15-.355-.15.35zm0 0c-.29-.124-.37-.36-.55-.84l.72-.266c.11.27.1.39.13.4zm-.55-.84l-.1-.266.23-.17.23.31zm.13-.44c.71-.534.78-1.59.84-2.61l.77.045c-.07 1.19-.15 2.43-1.15 3.18zm.84-2.61l.02-.37.77.054-.02.36zm.02-.37l.03-.377.38.015-.02.39zm.41-.36c.64.03.93.48 1.24.963l-.64.413c-.2-.31-.39-.6-.63-.61zm1.24.963c.09.132.18.27.27.39l-.6.48c-.12-.15-.22-.305-.31-.456zm.35.713l-.17.79-.5-.636.3-.24zm-.75-.168c.13-.586.23-1.35.09-1.97l.75-.17c.17.76.06 1.64-.08 2.3zm.09-1.97c-.09-.4-.28-.74-.63-.927l.35-.683c.59.303.9.833 1.04 1.44zm-.63-.927l-.3-.16.12-.32.36.14zm-.18-.474c.05-.153.14-.364.22-.58l.72.28c-.07.17-.14.34-.22.567zm.22-.58c.12-.29.23-.59.36-.94l.73.255c-.11.31-.24.64-.36.96zm.66-1.19l.64-.113-.21.62-.36-.13zm.13.76c-.75.13-2.39 1.05-3.58 2.287l-.56-.53c1.3-1.35 3.15-2.37 4.01-2.52zm-3.58 2.28c-.43.45-.8.936-1.03 1.43l-.7-.323c.27-.58.69-1.13 1.17-1.63zm-1.03 1.43c-.22.47-.32.952-.24 1.42l-.76.13c-.11-.634.02-1.267.3-1.873zm-.24 1.42c.07.425.3.853.73 1.267l-.53.56c-.56-.53-.86-1.11-.96-1.69zm.73 1.267l.11.19-.37.09zm.11.19c.1.4.19.74.28 1.04l-.73.23c-.1-.32-.19-.67-.29-1.08zm.28 1.04c.1.29.2.55.32.81l-.69.33c-.14-.29-.25-.58-.35-.91zm.32.81c.28.58.72.93 1.22 1.09l-.23.74c-.7-.22-1.3-.7-1.68-1.49zm1.22 1.09c.59.19 1.28.13 1.92-.12l.28.72c-.8.31-1.67.38-2.43.14zm1.92-.12l.67-.26-.15.7-.37-.08zm.52.44c-.18.84-.29 1.71-.33 2.69l-.77-.02c.04-1.03.16-1.94.35-2.82zm-.33 2.69c-.03.99 0 2.1.12 3.39l-.77.07c-.11-1.32-.15-2.46-.11-3.48zm.12 3.39c.03.33.06.64.1.92l-.76.1c-.05-.35-.08-.66-.11-.95zm.1.92c.05.31.1.62.16.94l-.76.15c-.06-.32-.11-.65-.16-.98zm.16.94l-.02.21-.36-.13"/><path fill="#ff0" fill-rule="evenodd" d="M37.968 32.02l-5.072.825-4.63 2.03-3.93 2.472-3.74 4.565-2.114 2.238-2.044.753-.54-1.32.945-1.365.212-1.924.633.026.692.63-.187-1.96-.766-.513.023-.747-1.816 1.028-1.645 1.94-.35 1.734.7 1.39.66 2.358 1.33.632 1.4-.07 1.33-.772-.89 4.5.88 5.01-.98 2.313-3.2 3.448.57 2.06 1.51 2.39 2.86 2.01 1.51.21 1.68.06-1.06 4.32 3.87 1.59 4.82.64 1.65-1.08.12-2.91 1.84-3.04.12-2.41 4.44.32 4.12-.38-4.12 2.48.7 2.98 2.6 4.06 2.54 1.08 2.03-.82.82-1.65 4.25-3.23.82.7 6.66.26 1.33-1.08.12-1.9-.45-.82-.32-5.13-2.22-4.44.38-1.96 1.33.7 3.74 3.49 1.84.13 2.03-.82 2.03-1.52 1.01-3.3 5.96.38 3.61-1.39 2.91-2.73 2.1-3.93.51-4.63-.44-5.39-1.14-4.82-1.14-1.52-1.59-.51-2.79 3.05-2.54.888-2.22-3.68-2.22-2.03-1.204-.76-4.82-3.997-3.87-2.09-3.87-.32-4.5.76-3.93 1.46-2.73 2.22L44 27.76l-2.22.63z"/><path fill="#fff" fill-rule="evenodd" d="M58.627 20.718l-2.537.1-5.478 1.218c-1.42.88-2.842 1.758-4.263 2.637-.82 1.15-1.63 2.3-2.44 3.45 5.67-.943 6.4-1.414 9.33 1.624-1.19-2.087-1.54-3.077-1.34-5.047.28-2.78 4.29-3.08 6.71-3.99zm-14.915 7.307c-.778.203-1.557.403-2.335.606l-4.74 4.68.985-1.12c-1.827.24-3.652.47-5.48.71-1.555.64-3.113 1.29-4.67 1.93l-4.26 3.56-2.74 4.06-1.826 4.37-.202 4.57.71 4.47c.64 1.63 1.284 3.25 1.927 4.87-1.2-6.02-2.16-12.16 2.18-17.23 2.82-3.28 5.22-4.17 9.29-5.5l.93-1.05-2.85 5.12c-.34 1.01-.67 2.03-1.01 3.04l2.13 2.54c.22-1.42.29-2.45 1.02-3.68 1.45-2.43 2.99-4.81 4.36-7.28 1.92-3.45 3.58-5.67 6.6-8.62z"/><path fill="#cc0" fill-rule="evenodd" d="M61.31 20.935c1.75 1.625 3.898 3.038 5.298 5.024.542.76 1.144 1.16-.01 2.24 1.22-.35 1.674-.31 2.65-.19 1.774.21 3.435 2.73 3.54 4.54-.02.17-.49.55-1.862.93-.027.05-.774-.11-.756-.05.143.39.333.45.624.63.063.43.103 1.1.4 1.57.862-.02 1.705.08 2.55.25.285.47.24.94.217 1.41l.99-.17-.27-2.23.87-1.47-1.25-2.83-2.39-2.29-.23-.01-2.69-1.65-4.39-3.6-3.26-2.13zm20.585 8.815c.74 3.333 1.697 6.408 1.608 9.82-.108 4.188-.925 9.478-4.804 12.004-4.35 2.827-9.45 1.49-14.22.278l5.82 2.396 5.44.27c1.23-.363 2.47-.724 3.7-1.087l2.88-2.39 2.17-4.57.82-5.28-.66-5.17-1.2-5.12-1.6-1.13zm-22.356.366l-.63.18-.99.48c-1.95 1.56-2.17 3.698-1.54 5.96-.18-2.613 1.2-5.292 3.15-6.62zm-8.83.062l-3.65.436-3.43.762-1.69 2.45-.93 2.34c-1.01 2.762-1.89 5.13-3.42 7.632 1.96-2.11 3.15-3.906 4.27-6.293.43-.927.51-2.013 1.73-1.608.05.926.25 1.848.3 2.774.65-4.7 2.5-6.66 6.8-8.49zm31.18.296c-.46.21-.91.312-1.19.73-.62.897-1.14 1.65-2.16 2.282-.51.317-1.05.525-1.59.694-.45.14-.72.015-1.1.29.22.04.45.077.68.117h1.5c.62-.38 1.23-.76 1.85-1.142l1.09-1.143.9-1.828zm-17.64 3.88c-.2.08-.53.273-.72.353l-1.54.5-2.36 1.782-1.34 1.38c-.27.17-.44.23-.71.23.42.15.91.02 1.43-.11.43.91.67 1.3 1.52 1.77-.32.59-.51 1.27-.51 2.05 1.34-2.68 3.85-4.1 6.47-5.52-.57.11-1.14.27-1.71.45.12-.07.24-.13.37-.19-.26-.98-.63-1.44-1.35-2.13.18-.18.32-.44.41-.6zm-14.91 1.704c-.07.526-.15 1.053-.22 1.58.04 1.088.07 2.18.11 3.268.31 2.306.61 4.61.92 6.915l-1.25 5.23-3.87.77-4.95 2.89-2.81.55-3.94-1.85c4.11 5.93 7.61 2.99 13.71.99 1.53-.5 2.51-.68 4.1-.58 1.45-2.49 1.41-3.87 1.03-6.75-.58-4.44-1.91-8.63-2.84-12.99zm-32 2.47l-.3 1.154c-1.97 1.284-2.75 1.848-2.53 4.227.19.71.39 1.42.59 2.13.27.19.56.37.83.56l1.03.34 1.87-.45.96-2.97c-.89.43-1.77.87-2.66 1.3h-.62l-.69-1.06.83-1.23.44-2.34.56.17.69.54-.1-1.23-.47-.79-.47-.4zM29.9 46.24c-.075 1.38-.163 1.95.443 3.17.77 1.54 1.714 2.99 2.55 4.517.09-1.015.18-2.032.273-3.05-1.09-1.542-2.177-3.085-3.266-4.63zm34.92 3.29c-2.566.74-2.544.944-3.302 3.49 1-1.606 1.74-2.415 3.302-3.49zm-10.91 3.23c.288 1.61.787 1.992 1.545 3.55-.505 2.544-1.317 5.568-2.29 7.81-.412.948-.745 1.47-1.47 2.202a37.571 37.571 0 0 1-3.846 3.38c-1 .77-1.7.386-2.93.21-.53.95-.67 1.48-1.64 1.96-1.49.743-2.81-.857-3.98-1.798l2.52 3.94 1.74 1.633c.49.072.97.147 1.46.22l1.96-1.2 1.03-1.96 2.17-1.634 2.67-2.288 1.69-2.393.27-.5c-.24.51-.47 1.022-.71 1.534-.73.853-1.46 1.704-2.18 2.558l1.41.6h3.54c.1-.277 1.58.284 2.65-.19.3-.133.57-.616.77-.894.7-.98-1-2.884-.48-6.43l-1.52-4.957h-.41c.05-.145.1-.29.14-.434l.17-2.24c-.82-.37-1.64-.73-2.45-1.09-.6-.57-1.27-1.04-1.87-1.6zm14.933 1.052l-5.118.653-.38 1.034c.036.49.07.98.108 1.47l.49.87.76.38c.2.02.402.04.6.05.807.49.79.85.655 1.2l1.907-.76 1.233-1.66.917-2.37-1.172-.88zm-50.115 2.812l-.706 1.506c.65 2.186 1.225 3.57 2.46 5.48-.214.772-.374 1.108-.87 1.74-1.087-.168-2.053-.215-3.154-.212 1.216.944 2.43 1.89 3.647 2.833l1.8-.32 1.795-1.79c-.854-1.32-1.708-2.65-2.56-3.97l-2.412-5.24zm26.1 3.287c-.87.95-1.575 1.82-2.287 2.89-2.51 1.16-5.42 1.31-8.16 1.31-.02.26-.03.51-.05.76l.22.22 2.02.22 6.21-.16.82-1.2c.21-1.68.46-2.53 1.25-4.03zm-11.05.36c-.47 2.83-.355 4.72-1.655 7.26-.972 1.13-2.17 2.15-3.54 2.7.116.7.15 1.13.083 1.64-.242 1.83-3.902 1.02-5.41.95 2.418.62 4.833 1.24 7.25 1.87l1.634-.65.545-3.15 1.524-2.83.27-1.74-.49-4.08c-.07-.65-.15-1.29-.22-1.94z"/><path fill="#073c57" fill-rule="evenodd" d="M63.26 50.273c.403-.22 1.134-.52 1.536-.74-.414.07-1.156.223-1.57.292-1.106.187-1.236.453-1.407 1.542-.09.512-.2 1.148-.28 1.66.21-.578.47-1.252.73-1.805.26-.585.42-.64.98-.95zm-20.517-28.04c.87-1.304 1.37-1.728 2.707-2.554-1.816.43-2.162.77-2.707 2.55zm-.286 2.87c1.52-3.056 2.672-4.182 5.856-5.683-3.6.883-4.66 1.51-5.856 5.684zM9.892 41.017c.334-1.53.645-2.108 1.59-3.364-1.532 1.07-1.732 1.51-1.59 3.364zm34.086 25.62l-.138-1.114a8.78 8.78 0 0 1-.027-1.897l.155-1.967c-.19.66-.573 1.33-.764 2-.076.26-.14.48-.176.68-2.85.58-5.678.62-8.528.11a51.931 51.931 0 0 0-.59-2.95c-.055.88-.02 3.32-.024 4.69-.003 1.06-.048 1.42-.594 2.32-.51.84-.727 1.03-1.443 2.46.06.89.06 1.49-.18 2.34-.4 1.42-4.41.32-5.46.03-1.3-.36-4-.89-3.32-2.62.59-1.53.97-3.14 1.26-5.28-2.39-3.44-4.61-8.15-5.03-12.32-.33-3.24-.13-5.23.57-7.22 1.11-3.14 2.66-5.86 5.15-8.05 3.36-2.95 6.5-4.14 11.43-4.89-1.19 1.32-2.36 2.72-3.63 4.22-1.3 1.52-2.06 3.06-2.88 4.72-1.14 2.3-1.11 3.17.39 5.19 1.29 1.74 1.99 2.52 2.56 4.22-.47.97-.64 1.78-.8 3.09 1.58 1.74 2.76 2.92 4.3 3.29 1.51.36 2.77.29 4.12-.4 3-1.53 5.77-3.51 9.16-3.6 1.56-3.85 1.4-7.07.65-10.79-.52-2.55-.72-4.95-.88-7.55-.64 2.67-.75 5.01-.28 7.67.56 3.21 1 6.75-.57 9.56-3.06.23-5.69 2.09-8.44 3.52-1.11.57-2.27.63-3.49.29-1.14-.32-1.91-1.07-3.14-2.49-.02-1.42.3-2.08.95-3.36 1.04-2.07 2.2-3.99 3.47-6.02-1.56 1.87-3.03 3.44-4.25 5.33-.47-1.34-1.14-2.01-2.25-3.51-1.09-1.47-1.2-2.11-.39-3.81.81-1.707 1.5-3.206 2.89-4.7 2.39-2.587 4.58-5.46 7.2-8.007 1.42-1.38 2-1.33 3.88-1.62 1.7-.26 3.36-.58 5.1-.99-1.68.16-3.3.214-4.94.255h-.05c1.61-2.06 2.55-3.2 5.16-4.34 6.43-2.79 10.52-3.096 15.58 1.153 1.31 1.1 2.46 2.17 3.78 3.12-.48.04-.9.13-1.45.34.67-.13 1.44 0 2.13.12.19.12.39.25.6.37.94.55 1.47.85 2.1 1.74.67.93 1.23 1.86 1.72 2.89-.32-.114-.59-.212-.83-.283a1.84 1.84 0 0 0-.58-.155c-.41-.04-.8.06-1.12.26l-.04.02c-.52.25-1.33.54-1.86.625.27.1.88.13 1.16.02.04-.01.08-.03.12-.04-.13.22-.22.47-.24.74-.04.36.04.7.19 1v.01c.05.11.11.22.19.29-.25.09-.5.198-.76.31 1.2-.18 2.28-.21 3.45-.06.07.37.15.76.22 1.16l-.438.03-.04.01c-.55-.44-1.17-.37-2.01-.18-2.568.584-1.96 2.02-3.14 4.19 1.22-1.5 1.13-3.06 3.13-3.536.46-.11.78-.25 1.09-.2-.57.284-1.06.76-1.25 1.305-.55 1.55-.21 2.85-.81 4.295.742-1.29.79-2.55 1.453-3.91.24-.48 1.13-1.27 1.67-1.28l.45-.01c.13.86.21 1.72.16 2.42-.1 1.3-.43 3.21-.63 3.95.67-.87.98-2.71 1.274-4 .31-1.35.23-2.96-.04-4.41-.37-1.99 1.68-1.66 2.87-2.6.87-.69 1.475-1.79 2.275-2.565.79-.77 2.04.36 2.35 1.12 1.353 3.27 1.97 8.42 1.613 11.73-.4 3.7-2.19 7.74-5.46 9.57-4.16 2.32-9.07.9-13.21-.49-.88-.3-1.5-.73-2.27-1.22.21.95.31 1.96.02 2.91-.45 1.5-1.17 3.97.88 4.43.78.17 1.13.15 2.23-.42-.89.2-1.34.15-1.955.04-.553-.11-.85-.46-1.003-.87.195.14.51.21 1.05.34 1.52.36 2.966-.37 3.25-1.42.165-.62.14-.94.49-1.78.31.1.64.19.97.27-.19.61-.38 1.22-.568 1.84-.486 1.59-2.39 2.87-4.066 2.84-1.555-.03-2.538-1-3.61-1.957l-2.146-1.9c-1.93-.61-3.48-1.32-5.27-2.65 1.273 1.5 2.14 2.33 3.92 3.077-.26 2.64-1.18 4.56-1.96 7.09-.354 1.14-3.15 5.72-3.92 6.16-.554.32-4.01 3.23-4.66 3.614-.487.64-.91 1.53-1.64 1.92-2.22 1.17-3.646-1.08-4.84-2.97-.544-.87-2.054-3.36-.74-4.06 1.25-.66 1.944-1.13 3.214-1.96.18.34.5.662.71 1.002zm7.716 4.025c-1.124.908-3.013 2.515-3.38 2.716-.664.99-.746 1.604-1.81 2.18-3.165 1.713-4.845-.274-6.72-3.162-.892-1.376-2.844-4.517-.772-5.582.873-.45 1.534-.786 2.194-1.17-2.173.27-4.306.273-6.524-.06.04.267.073.522.1.755.145 1.21.192 1.58-.466 2.56-.48.71-.665.91-1.245 2.21.11 1.05.06 1.64-.23 2.74-.66 2.45-5.23 1.1-7.09.6-2.24-.61-5.44-1.17-4.13-4.05.31-.68.55-1.37.74-2.03-1.96.87-4.68-.97-5.98-2.27-1.23-1.24-1.9-2.68-2.14-4.07-.2-1.19-.01-1.18.83-2.02l2.33-2.3.94-2.55c-.12-.64-.21-1.27-.26-1.9-.22-2.62-.15-4.48.23-6.2-1.36.53-2.93.28-3.62-1.17-.26-.55-.42-1.11-.62-1.93-3.04-2.93 2.66-6.77 4.32-7.06-.19.54-.39 1.03-.58 1.52 1.13.58.99 2.25.75 3.32-.4-.51-.63-1.18-1.22-1.21-.08 1.21-.07 2.55-1.01 3.26.28.75.26.75 1.06.44 1.13-.44 1.98-1.41 2.84-2.35.92-1.8 2.1-3.4 3.73-4.84 3.99-3.54 7.77-4.7 13.85-5.67.81-.85 1.65-1.66 2.54-2.46 1.22-1.07 2.01-1.3 3.16-1.36 1.91-2.55 3.4-4.32 6.51-5.63 6.51-2.74 10.99-2.87 16.22 1.43 1.72 1.42 3.19 2.92 5.09 4.11.96.6 1.65 1.03 2.37 1.9.92 1.09 1.66 2.18 2.18 3.58.68-.27 1.44-.53 2.06-1.06.8-.68 1.31-1.83 2.05-2.58.99-1 3.23.21 3.72 1.15 1.69 3.23 2.38 9.18 2.02 12.72-.44 4.38-2.25 8.51-6.1 10.57-2.62 1.4-6.14 1.53-9.15.96l-.58 1.93c-.58 1.92-2.87 3.49-4.87 3.59-1.92.09-2.96-.9-4.21-2.11l-1.98-1.91c-.03.43-.09.84-.16 1.25.52 1.02.77 1.92 1.21 2.98.49 1.16.73 1.93.76 3.17l.09 3.31c.49.88.54 1.09.47 2.095-.153 2.113-1.317 2.315-3.257 2.303-.65-.01-3.09.01-3.71-.04-1.235-.09-2.05-.187-2.476-.697zm6.54-11.53c-.39 1.395-.914 2.71-1.392 4.218-.454 1.428-2.778 5.573-4.146 6.577.266.2.755.276 1.626.352.616.05 3.044.06 3.654.07 1.342.02 1.852-.08 1.988-1.61.066-.75.007-.89-.367-1.55l-.1-3.51c-.03-1.11-.243-1.75-.68-2.78-.26-.62-.402-1.2-.582-1.78zM17.347 39.986c.302-.035.488.124.72.356-.042-.555-.145-.968-.536-1.195l-.07.273c-.04.18-.08.37-.1.567zm1.894 4.02c-.21.562-.42 1.14-.6 1.738l-.09.298c-1.14.487-2.65.796-3.23-.41-.28-.584-.44-1.157-.64-1.897-1.89-1.955.94-4.537 2.47-5.463-.22.478-.38.84-.48 1.213-.46 1.615.21 3.056-1.25 4.227.69 1.39.66 1.945 2.26 1.302a5.133 5.133 0 0 0 1.58-1.006zm-.44 13.16c.87 3.006 2.35 5.96 3.99 8.44v.044c-.1.426-.22.842-.47 1.176-1.17 1.568-4.15-.734-5.02-1.616-.94-.963-1.57-2.104-1.72-3.174-.11-.78 0-.8.55-1.352.74-.743 1.47-1.487 2.2-2.23.16-.43.32-.858.49-1.288zM74.32 33.05c.167.164.302.36.395.58.05-.048.105-.09.162-.134l-.21-.458-.347.01zm-14.36 5.404c-.155-.32-.23-.66-.23-.993-.564.45-1.176.88-1.81 1.13.876-.78 2.067-2.63 2.93-3.21.98-.66 2.307-.53 3.45-1.06-.39.36-.89.64-1.4.91a2.366 2.366 0 0 1 1.536 1.96c.767-.25 1.52-.37 2.156-.36-2.274.64-4.695 2.14-6.364 4.12.188-.52.45-.98.765-1.4a2.34 2.34 0 0 1-1.033-1.07zM49.403 30.22a29.47 29.47 0 0 1-3.628 1.167c-1.118 1.47-1.798 2.23-2.056 4.2-.3-1.938-.37-2.298.49-3.743-.25.127-.48.3-.82.586-1.21 1.03-2.78 5.077-3.4 6.523.4-1.74 1.64-6.094 2.93-7.363.84-.834 1.03-.815 2.22-.928 1.42-.134 2.83-.28 4.25-.44zm26.227 4.224c1.02.096 1.603.253 2.516-.198 1.7-.842 2.953-2.216 3.764-3.86-.495 1.96-1.494 3.628-3.567 4.367-1.018.362-1.675-.012-2.71-.31zm-19.562.19c.383-1.7 1.065-3.338 3.706-4.606-3.5.877-4.157 2.347-3.707 4.607zm-45.396 9.16c.3-3.4.96-4.87 3.378-7.428-3.03 2.135-3.787 3.106-3.378 7.43"/><path fill="#fff" fill-rule="evenodd" d="M72.163 34.095a.722.722 0 0 0-.788.665c-.023.234.103.534.263.697.382-.14.754-.25 1.125-.313a.738.738 0 0 0-.6-1.043zm-10.905 3.498a.985.985 0 0 0-.846 1.406c.12.25.334.43.577.52.36-.48.79-.89 1.26-1.24l-.06-.14a.985.985 0 0 0-.94-.56z"/></g></svg>