<svg width="52" height="52" xmlns="http://www.w3.org/2000/svg" xmlns:xlink="http://www.w3.org/1999/xlink"><defs><circle id="a" cx="40" cy="40" r="12"/></defs><g fill="none" fill-rule="evenodd"><use fill="#FFF" xlink:href="#a"/><circle stroke="#CDCDCD" cx="40" cy="40" r="11.5"/><text font-family="Ubuntu" font-size="14" fill="#888"><tspan x="36" y="45">3</tspan></text><g fill-rule="nonzero"><path d="M12 0C5.373 0 0 5.373 0 12s5.373 12 12 12a12 12 0 0 0 12-12c0-6.627-5.373-12-12-12z" fill="#FFF"/><path d="M12 0C5.373 0 0 5.373 0 12s5.373 12 12 12 12-5.373 12-12S18.627 0 12 0z" fill="#326DE6"/><path d="M2.717 14.589c.022.034.046.067.072.099l4.572 5.684c.24.298.603.472.987.472h7.332c.384 0 .748-.174.987-.472l4.57-5.686c.24-.298.33-.688.244-1.06l-1.632-7.09a1.255 1.255 0 0 0-.683-.849L12.56 2.533a1.272 1.272 0 0 0-1.096 0L4.859 5.689a1.255 1.255 0 0 0-.684.85l-1.63 7.09c-.076.33-.014.676.172.96z" stroke="#FFF" fill="#326DE6" stroke-linejoin="round"/><path d="M11.994 4.37a.375.375 0 0 0-.369.38l-.25 6.917-2.715 6.176c-.229.46.478.787.68.314L12 13.27l2.66 4.887c.202.473.909.146.68-.314l-2.715-6.175-.25-6.918a.375.375 0 0 0-.38-.38z" fill="#FFF"/><path fill="#FFF" d="M8.243 15.854l2.88 1.378-2.634 1.806zM15.799 15.854l-2.881 1.378 2.634 1.806zM11.845 11.438l-4.976 1.25-.25-1.155-2.365 2.147 3.042.973-.239-1.1 3.906-.638 1.648-.489z"/><path fill="#FFF" d="M12.13 11.438l4.976 1.25.25-1.155 2.365 2.147-3.042.973.239-1.1-3.906-.638-1.649-.489z"/></g><g fill-rule="nonzero"><path d="M40 .25c-6.627 0-12 5.373-12 12s5.373 12 12 12a12 12 0 0 0 12-12c0-6.627-5.373-12-12-12z" fill="#FFF"/><path d="M40 .25c-6.627 0-12 5.373-12 12s5.373 12 12 12 12-5.373 12-12-5.373-12-12-12z" fill="#326DE6"/><path d="M30.704 14.812c.022.034.046.068.072.1l4.571 5.684c.24.298.604.472.988.472l7.332-.001c.384 0 .747-.174.987-.472l4.57-5.686c.24-.298.33-.688.244-1.06l-1.632-7.088a1.255 1.255 0 0 0-.683-.85l-6.606-3.155a1.272 1.272 0 0 0-1.096 0l-6.605 3.156a1.255 1.255 0 0 0-.684.85l-1.63 7.09c-.076.33-.014.676.172.96z" stroke="#FFF" fill="#326DE6" stroke-linejoin="round"/><path d="M40 5.046c-.216 0-.392.194-.395.434v.001a.488.488 0 0 0 0 .008c0 .034-.002.078 0 .109.004.14.035.247.053.376.034.276.062.505.044.717-.015.107-.077.148-.128.198l.01.006h-.01l-.01.168a5.126 5.126 0 0 0-3.3 1.584l-.135-.096-.006.008v-.012c-.07.01-.141.032-.234-.022-.177-.12-.338-.284-.533-.482-.09-.095-.154-.185-.26-.277-.026-.022-.066-.051-.093-.073-.19-.147-.45-.13-.586.039-.134.169-.093.427.093.579a.488.488 0 0 0 .008.006c.026.022.06.05.084.068.113.083.216.126.328.192.237.146.433.267.588.413.074.078.068.153.075.224l.01-.004-.006.008.125.111a5.106 5.106 0 0 0-.804 3.57l-.166.047.003.01-.009-.008c-.036.06-.064.13-.164.17-.203.063-.432.087-.709.116-.13.01-.241.005-.379.03l-.109.026-.006.001c-.233.057-.382.271-.334.482.048.211.275.34.51.289h.002a.485.485 0 0 0 .007-.002c.034-.007.077-.016.107-.024.135-.036.233-.09.354-.136.262-.094.479-.172.69-.203.107-.008.161.043.22.082l.005-.011.002.01.173-.03a5.156 5.156 0 0 0 2.278 2.85l-.07.17.01.004-.012.001c.025.067.062.131.03.234-.077.199-.201.393-.35.627-.073.108-.148.192-.213.315-.016.03-.036.076-.05.107-.103.218-.028.468.167.562.195.094.437-.004.544-.219a.488.488 0 0 0 .004-.009l.048-.097c.056-.129.075-.239.114-.363.09-.263.164-.48.272-.665.06-.09.133-.1.201-.122l-.006-.01.01.004.088-.16a5.139 5.139 0 0 0 3.65.007l.08.147.01-.005-.006.01c.068.023.141.033.202.123.107.184.181.402.271.665.04.124.059.234.115.362.012.03.034.07.049.101v.001l.002.004c.107.216.35.313.544.22.195-.094.27-.345.168-.562v-.001a.489.489 0 0 0-.004-.008c-.014-.031-.032-.071-.046-.098-.066-.124-.14-.207-.213-.316-.15-.234-.274-.428-.35-.627-.033-.102.005-.167.03-.233l-.012-.002.01-.005-.064-.153a5.114 5.114 0 0 0 2.281-2.866l.161.027.003-.01.004.011c.06-.039.114-.09.22-.081.212.03.429.108.69.202.122.047.22.1.355.137.03.008.076.017.11.024l.005.002c.235.05.463-.079.51-.29.049-.21-.1-.425-.334-.481h-.001a.486.486 0 0 0-.008-.002c-.033-.008-.076-.019-.106-.025-.138-.026-.25-.02-.379-.03-.276-.03-.505-.053-.709-.117-.1-.04-.127-.109-.164-.17l-.008.009.002-.01-.16-.047a5.136 5.136 0 0 0-.824-3.559l.136-.121-.006-.008.01.004c.007-.071.002-.145.075-.224.155-.146.352-.267.588-.413.112-.066.215-.109.328-.192.027-.02.065-.052.092-.074.186-.152.227-.41.092-.58-.135-.168-.395-.185-.585-.038l-.001.001a.489.489 0 0 0-.006.005c-.027.02-.062.047-.085.068-.106.09-.171.182-.26.276-.196.199-.357.363-.534.482-.093.054-.164.032-.234.023v.011l-.006-.008-.15.106a5.153 5.153 0 0 0-3.282-1.583l-.01-.17h-.01l.01-.007c-.051-.05-.113-.092-.129-.198-.017-.212.011-.441.044-.717.019-.129.05-.236.055-.376V5.48c-.004-.24-.18-.434-.396-.434zm-.495 3.067l-.118 2.073-.008.005a.348.348 0 0 1-.553.266l-.004.002-1.698-1.203a4.082 4.082 0 0 1 2.38-1.143zm.99.003a4.106 4.106 0 0 1 2.366 1.141l-1.686 1.196-.006-.003a.348.348 0 0 1-.554-.266h-.002l-.117-2.068zm-3.988 1.916l1.55 1.386-.002.008a.348.348 0 0 1-.136.599l-.002.007-1.99.575a4.088 4.088 0 0 1 .58-2.575zm6.975 0a4.107 4.107 0 0 1 .594 2.567l-1.997-.576-.002-.008h.001a.348.348 0 0 1-.138-.598v-.005l1.542-1.38zm-2.87.152h.002a.349.349 0 0 0 .554.266l.006.004-.257.182-.107-.132h-.179l-.018-.32zm-1.225.003l-.018.316h-.182l-.11.138-.255-.181.004-.002a.349.349 0 0 0 .554-.267l.007-.004zm2.551 1.226l.001.003a.349.349 0 0 0 .137.6l.002.007-.295-.086.039-.17-.117-.146.234-.208zm-3.88.005l.23.207-.113.142.041.179-.298.086.002-.006a.349.349 0 0 0 .136-.6l.002-.008zm1.623.106h.635l.396.495-.141.617-.572.274-.573-.274-.141-.617.396-.495zm1.82 1.642l.303.051-.004.005a.349.349 0 0 0-.383.48l-.002.004-.118-.285.164-.078.04-.177zm-3.003.009l.038.167.17.081-.122.294-.006-.007a.349.349 0 0 0-.384-.48l-.002-.004.306-.051zm3.25.042c.017 0 .035.002.052.005l.005-.004 2.054.347a4.083 4.083 0 0 1-1.646 2.07l-.798-1.929.003-.003a.348.348 0 0 1 .33-.486zm-3.485.008a.348.348 0 0 1 .315.485l.006.008-.79 1.908a4.112 4.112 0 0 1-1.643-2.054l2.04-.345.003.004a.347.347 0 0 1 .069-.006zm1.896.741l.155.28h-.008a.349.349 0 0 0-.615 0l.153-.277.154.074.161-.077zm-.172.097a.346.346 0 0 1 .319.183h.008l1.006 1.817a4.09 4.09 0 0 1-2.632-.005l1.002-1.812h.002a.348.348 0 0 1 .295-.183z" fill="#FFF"/></g><g fill-rule="nonzero"><path d="M12 28.25c-6.627 0-12 5.373-12 12s5.373 12 12 12a12 12 0 0 0 12-12c0-6.627-5.373-12-12-12z" fill="#FFF"/><path d="M12 28.25c-6.627 0-12 5.373-12 12s5.373 12 12 12 12-5.373 12-12-5.373-12-12-12z" fill="#53A2DA"/><path d="M14.317 31.408a5.656 5.656 0 0 0-5.648 5.649v2.704c0 .09.072.162.16.162h1.59a.16.16 0 0 0 .161-.161v-2.705a3.706 3.706 0 0 1 3.737-3.737h1.07a.16.16 0 0 0 .16-.161v-1.59a.16.16 0 0 0-.16-.16h-1.07zm.087 2.72a3.012 3.012 0 0 0-2.996 2.88.16.16 0 0 0 .16.168h1.593a.16.16 0 0 0 .16-.147c.048-.572.494-.99 1.083-.99h.983a.16.16 0 0 0 .16-.16v-1.59a.16.16 0 0 0-.16-.161h-.983zm-7.413 3.324a.16.16 0 0 0-.158.133l-.281 1.606a.16.16 0 0 0 .158.189h1.524a.16.16 0 0 0 .16-.161v-1.606a.16.16 0 0 0-.16-.16H6.991zm4.044 0a.16.16 0 0 0-.161.16v1.607c0 .089.072.16.16.16h4.457a.16.16 0 0 0 .158-.132l.281-1.606a.16.16 0 0 0-.158-.189h-4.737zm.53 2.203a.16.16 0 0 0-.16.16v6.01a3.722 3.722 0 0 1-1.066 2.629.16.16 0 0 0 .001.226l1.116 1.115a.16.16 0 0 0 .227 0 5.632 5.632 0 0 0 1.634-3.97v-6.01a.16.16 0 0 0-.16-.16h-1.591zm-5.056.536a.16.16 0 0 0-.158.133L6.07 41.93a.16.16 0 0 0 .158.188h4.737a.16.16 0 0 0 .16-.16V40.35a.16.16 0 0 0-.16-.16H6.509zm7.256 0a.16.16 0 0 0-.16.16v1.607c0 .088.071.16.16.16h1.244a.16.16 0 0 0 .158-.133l.281-1.606a.16.16 0 0 0-.158-.188h-1.525zM8.83 42.4a.16.16 0 0 0-.16.161v3.193c0 .297-.109.555-.287.747a.16.16 0 0 0 .004.223l1.116 1.116a.16.16 0 0 0 .228-.002 2.99 2.99 0 0 0 .85-2.084v-3.193a.16.16 0 0 0-.16-.16H8.83z" fill="#FFF"/></g></g></svg>