<svg width="50" height="50" xmlns="http://www.w3.org/2000/svg"><defs><linearGradient x1="50%" y1="100%" x2="50%" y2="0%" id="a"><stop stop-color="#E3E3E3" offset="0%"/><stop stop-color="#EFEFEF" offset="100%"/></linearGradient></defs><g fill="none" fill-rule="evenodd"><circle fill="url(#a)" cx="25" cy="25" r="25"/><path d="M25 9.006c-8.917 0-16.146 7.228-16.146 16.145 0 5.316 2.563 10.03 6.527 12.972.82-1.069 1.177-1.811 1.286-2.213.126-.468.097-.548-.017-.928-.1-.336-.545-.837-1.253-1.806l-.032-.05-.017-.016a12.524 12.524 0 0 1-1.416-2.18A12.43 12.43 0 0 1 12.5 25.15c0-3.671 1.597-6.957 4.118-9.244 2.219-2.013 5.15-3.256 8.382-3.256 3.236 0 6.179 1.238 8.398 3.256.296.269.578.55.847.846.007.008.008.024.016.033 2.004 2.216 3.239 5.142 3.239 8.365 0 3.02-1.065 5.799-2.848 7.96-.004.005-.013.01-.017.016-.012.015-.02.034-.032.049-.708.97-1.153 1.47-1.253 1.806-.114.38-.143.46-.017.928.109.402.466 1.144 1.286 2.213a16.115 16.115 0 0 0 6.527-12.972c0-8.917-7.229-16.145-16.146-16.145zm0 6.77a9.424 9.424 0 0 0-5.176 1.563c-4.296 2.843-5.487 8.676-2.653 12.972.004.006.012.01.017.016.882 1.333 1.987 2.298 2.425 3.76.396 1.323.42 2.985-1.547 5.648 1.123.535 2.317.94 3.565 1.204 1.87-3.024 2.119-5.764 1.481-7.894-.78-2.601-2.65-4.361-2.897-4.736h.016a5.7 5.7 0 0 1 1.611-7.943A5.749 5.749 0 0 1 25 19.422h.016a5.697 5.697 0 0 1 3.142.944c2.655 1.76 3.387 5.287 1.627 7.943-.247.375-2.118 2.135-2.897 4.736-.638 2.13-.389 4.87 1.481 7.894a16.018 16.018 0 0 0 3.565-1.204c-1.968-2.663-1.943-4.325-1.547-5.648.438-1.462 1.543-2.427 2.425-3.76 2.848-4.298 1.662-10.14-2.636-12.988a9.372 9.372 0 0 0-5.16-1.563H25zm0 6.771a2.604 2.604 0 1 0 0 5.209 2.604 2.604 0 0 0 0-5.209zm0 18.588l-.081.162h.162L25 41.135z" fill="#F05C56" fill-rule="nonzero"/><path d="M25 9.006c-8.917 0-16.146 7.228-16.146 16.145v.196C9.028 16.58 16.192 9.527 25 9.527s15.972 7.054 16.146 15.82v-.196c0-8.917-7.229-16.145-16.146-16.145zm0 6.77a9.424 9.424 0 0 0-5.176 1.563c-2.788 1.845-4.261 4.947-4.183 8.073.09-2.945 1.552-5.81 4.183-7.552A9.424 9.424 0 0 1 25 16.297h.016a9.372 9.372 0 0 1 5.16 1.563c2.624 1.738 4.072 4.598 4.166 7.536.073-3.119-1.387-6.216-4.166-8.057a9.372 9.372 0 0 0-5.16-1.563H25zm0 6.771a2.604 2.604 0 0 0-2.604 2.604c0 .09.007.173.016.26A2.607 2.607 0 0 1 25 23.069a2.607 2.607 0 0 1 2.588 2.344c.009-.088.016-.17.016-.26A2.604 2.604 0 0 0 25 22.546zm-12.5 2.8c-.003.108 0 .216 0 .325 0 2.087.528 4.049 1.432 5.778.405.774.865 1.514 1.416 2.181.005.006.012.01.017.017.01.013.022.035.032.048.708.97 1.153 1.47 1.253 1.807.025.083.05.15.065.212.064-.298.03-.417-.065-.733-.1-.336-.545-.837-1.253-1.806l-.032-.05-.017-.016a12.524 12.524 0 0 1-1.416-2.18 12.438 12.438 0 0 1-1.432-5.583zm24.984 0c-.045 2.944-1.088 5.65-2.832 7.763-.004.006-.013.011-.017.017-.012.015-.02.034-.032.049-.708.97-1.153 1.47-1.253 1.806-.095.316-.129.435-.065.733.016-.062.04-.129.065-.212.1-.336.545-.837 1.253-1.807.012-.014.02-.034.032-.048.004-.006.013-.011.017-.017a12.465 12.465 0 0 0 2.848-7.959c0-.109-.013-.217-.016-.325zm-18.197.097a5.713 5.713 0 0 0 .944 3.386h-.016c.247.374 2.118 2.135 2.897 4.736.195.651.301 1.36.31 2.116a7.77 7.77 0 0 0-.31-2.637c-.78-2.601-2.65-4.361-2.897-4.736h.016a5.74 5.74 0 0 1-.944-2.865zm11.442 0a5.72 5.72 0 0 1-.944 2.865c-.247.375-2.118 2.135-2.897 4.736a7.77 7.77 0 0 0-.31 2.637 7.648 7.648 0 0 1 .31-2.116c.78-2.601 2.65-4.362 2.897-4.736.693-1.046.99-2.23.944-3.386zM19.808 35.83c-.086 1.029-.542 2.283-1.742 3.906.09.042.187.073.277.114 1.172-1.703 1.504-2.978 1.465-4.02zm10.384 0c-.04 1.042.293 2.317 1.465 4.02.09-.041.187-.072.277-.114-1.2-1.623-1.656-2.877-1.742-3.906zM25 41.135l-.081.162h.162L25 41.135z" fill="#DD322B" fill-rule="nonzero"/></g></svg>