<svg xmlns="http://www.w3.org/2000/svg" xmlns:xlink="http://www.w3.org/1999/xlink" width="96" height="96" id="svg6517"><defs id="defs6519"><linearGradient id="Background"><stop id="stop4178" offset="0" stop-color="#22779e"/><stop id="stop4180" offset="1" stop-color="#2991c0"/></linearGradient><filter id="filter1121" color-interpolation-filters="sRGB"><feFlood flood-opacity=".6" flood-color="#000" result="flood" id="feFlood1123"/><feComposite in="flood" in2="SourceGraphic" operator="out" result="composite1" id="feComposite1125"/><feGaussianBlur in="composite1" stdDeviation="1" result="blur" id="feGaussianBlur1127"/><feOffset dy="2" result="offset" id="feOffset1129"/><feComposite in="offset" in2="SourceGraphic" operator="atop" result="composite2" id="feComposite1131"/></filter><filter id="filter950" color-interpolation-filters="sRGB"><feFlood flood-opacity=".25" flood-color="#000" result="flood" id="feFlood952"/><feComposite in="flood" in2="SourceGraphic" operator="in" result="composite1" id="feComposite954"/><feGaussianBlur in="composite1" stdDeviation="1" result="blur" id="feGaussianBlur956"/><feOffset dy="1" result="offset" id="feOffset958"/><feComposite in="SourceGraphic" in2="offset" result="composite2" id="feComposite960"/></filter><clipPath id="clipPath873"/><style id="style867"><![CDATA[.fil0{fill:#1F1A17}]]></style><clipPath id="clipPath16"><path id="path18" d="M-9-9h614v231H-9z"/></clipPath><clipPath id="clipPath116"><path id="path118" d="M91.737 146.325l-9.704-1.577-8.855-3.881-7.52-4.73-7.157-8.734-4.043-4.282-3.91-1.441-1.034 2.527 1.808 2.61.407 3.68 1.21-.05 1.324-1.206-.357 3.749-1.467.984.045 1.428-3.475-1.965-3.146-3.712-.656-3.318 1.345-2.657 1.255-4.513 2.552-1.208 2.685.132 2.546 1.479-1.698-8.613 1.698-9.582-1.87-4.425-6.122-6.596 1.089-3.941 2.9-4.567 5.469-3.849 2.9-.397 3.225-.109-2.012-8.26 7.4-3.033 9.218-1.213 3.154 2.062.243 5.58 3.517 5.822.243 4.61 8.491-.607 7.884.728-7.884-4.73 1.334-5.702 4.973-7.763 4.852-2.062 3.882 1.577 1.577 3.154 8.127 6.186 1.577-1.334 12.736-.485 2.547 2.062.243 3.639-.85 1.576-.606 9.826-4.245 8.49.728 3.76 2.547-1.333 7.157-6.672 3.517-.242 3.882 1.577 3.881 2.91 1.941 6.308 11.402-.728 6.914 2.669 5.58 5.216 4.003 7.52.97 8.855-.85 10.31-2.182 9.219-2.184 2.911-3.032.97-5.337-5.822-4.852-1.698-4.246 7.035-4.245 3.882-2.305 1.456-9.219 7.641-7.399 4.003-7.4.607-8.611-1.456-7.52-2.79-5.216-4.245-4.125-4.973-4.245-1.213"/></clipPath><clipPath id="clipPath128"><path id="path130" d="M91.737 146.325l-9.704-1.577-8.855-3.881-7.52-4.73-7.157-8.734-4.043-4.282-3.91-1.441-1.034 2.527 1.808 2.61.407 3.68 1.21-.05 1.324-1.206-.357 3.749-1.467.984.045 1.428-3.475-1.965-3.146-3.712-.656-3.318 1.345-2.657 1.255-4.513 2.552-1.208 2.685.132 2.546 1.479-1.698-8.613 1.698-9.582-1.87-4.425-6.122-6.596 1.089-3.941 2.9-4.567 5.469-3.849 2.9-.397 3.225-.109-2.012-8.26 7.4-3.033 9.218-1.213 3.154 2.062.243 5.58 3.517 5.822.243 4.61 8.491-.607 7.884.728-7.884-4.73 1.334-5.702 4.973-7.763 4.852-2.062 3.882 1.577 1.577 3.154 8.127 6.186 1.577-1.334 12.736-.485 2.547 2.062.243 3.639-.85 1.576-.606 9.826-4.245 8.49.728 3.76 2.547-1.333 7.157-6.672 3.517-.242 3.882 1.577 3.881 2.91 1.941 6.308 11.402-.728 6.914 2.669 5.58 5.216 4.003 7.52.97 8.855-.85 10.31-2.182 9.219-2.184 2.911-3.032.97-5.337-5.822-4.852-1.698-4.246 7.035-4.245 3.882-2.305 1.456-9.219 7.641-7.399 4.003-7.4.607-8.611-1.456-7.52-2.79-5.216-4.245-4.125-4.973-4.245-1.213"/></clipPath><linearGradient id="linearGradient3850"><stop id="stop3852" offset="0"/><stop id="stop3854" offset="1" stop-opacity="0"/></linearGradient><clipPath id="clipPath3095"><path d="M976.648 389.551H134.246v839.999h842.402V389.551" id="path3097"/></clipPath><clipPath id="clipPath3195"><path d="M611.836 756.738l-106.34 105.207c-8.473 8.289-13.617 20.102-13.598 33.379l106.403-105.117c-.031-13.418 5.094-25.031 13.535-33.469" id="path3197"/></clipPath><clipPath id="clipPath3235"><path d="M1095.64 1501.81c35.46-35.07 70.89-70.11 106.35-105.17 4.4-4.38 7.11-10.53 7.11-17.55l-106.37 105.21c0 7-2.71 13.11-7.09 17.51" id="path3237"/></clipPath><clipPath id="clipPath4591"><path d="M1106.6 730.437l-.035 21.648c-.01 3.509-2.868 6.614-6.404 6.926l-83.65 7.331c-3.52.308-6.381-2.3-6.367-5.814l.036-21.648 20.117-1.766-.011 4.637c0 1.84 1.484 3.2 3.326 3.04l49.527-4.34c1.843-.166 3.343-1.781 3.354-3.626l.01-4.63 20.1-1.758" id="path4593" fill="#f0f"/></clipPath><radialGradient gradientUnits="userSpaceOnUse" gradientTransform="matrix(-1.4334 -2.27428 1.17318 -.73941 -174.08 98.374)" r="20.407" fy="93.399" fx="-26.509" cy="93.399" cx="-26.509" id="radialGradient3856" xlink:href="#linearGradient3850"/><linearGradient gradientTransform="translate(-318.48 212.32)" gradientUnits="userSpaceOnUse" y2="993.197" x2="-51.88" y1="593.116" x1="348.201" id="linearGradient3895" xlink:href="#linearGradient3850"/><clipPath id="clipPath3906"><path transform="scale(1 -1)" style="marker:none" id="rect3908" color="#000" overflow="visible" opacity=".8" fill="#f0f" stroke-width="4" enable-background="accumulate" d="M357.982-1725.815h1019.137v1019.137H357.982z"/></clipPath></defs><g id="layer1" transform="translate(268 -635.29)"><path d="M48 0A48 48 0 0 0 0 48a48 48 0 0 0 48 48 48 48 0 0 0 48-48A48 48 0 0 0 48 0z" transform="translate(-268 635.29)" id="path6455" fill="#3b3b3b"/><g id="g4357" transform="matrix(.8092 0 0 .8092 -42.568 130.377)"><g id="g4289" transform="matrix(.41416 0 0 .41416 -257.58 644.981)"><g id="g4291"><defs id="defs4293"><circle r="92.5" cy="92.5" cx="92.5" id="SVGID_1_"/></defs><clipPath id="SVGID_2_"><use id="use4297" xlink:href="#SVGID_1_" width="100%" height="100%" overflow="visible"/></clipPath><path clip-path="url(#SVGID_2_)" id="path4299" d="M132.1 52H5.8C2.6 52 0 49.4 0 46.2V5.8C0 2.6 2.6 0 5.8 0h164.7c3.2 0 5.8 2.6 5.8 5.8v2.1c-.1 24.3-19.9 44.1-44.2 44.1z" fill="#efbf1b"/><path clip-path="url(#SVGID_2_)" id="path4301" d="M176.6 185H.5s-.1 0-.1-.1V133s0-.1.1-.1h132.1c24.3 0 44 19.7 44 44v8.1c.1 0 0 0 0 0z" fill="#40beb0"/><path clip-path="url(#SVGID_2_)" id="path4303" d="M121.6 118.5H-9.2v-52h130.9c14.4 0 26 11.7 26 26-.1 14.4-11.7 26-26.1 26z" fill="#0aa5de"/><path clip-path="url(#SVGID_2_)" id="path4305" d="M80.9 66.5H-4.5v52h85.6c1.9-7.8 3-16.5 3-26 0-9.6-1.2-18.2-3.2-26z" fill="#fff"/></g><path id="path4307" d="M46 12.5C30.2 21.7 17.4 35.4 9.3 51.9h68.3c-7.1-15.6-18-29.2-31.6-39.4z" fill="#d7a229"/><path id="path4309" d="M48.7 173.9C62 163.1 72.6 149.1 79.2 133H9.3c8.6 17.4 22.4 31.8 39.4 40.9z" fill="#009b8f"/></g></g></g></svg>