<svg xmlns="http://www.w3.org/2000/svg" width="742" height="698" viewBox="0 0 742 698">
    <defs>
        <filter id="a" width="144.7%" height="148.4%" x="-22.4%" y="-20.3%" filterUnits="objectBoundingBox">
            <feMorphology in="SourceAlpha" operator="dilate" radius=".5" result="shadowSpreadOuter1"/>
            <feOffset dy="21" in="shadowSpreadOuter1" result="shadowOffsetOuter1"/>
            <feGaussianBlur in="shadowOffsetOuter1" result="shadowBlurOuter1" stdDeviation="40"/>
            <feColorMatrix in="shadowBlurOuter1" result="shadowMatrixOuter1" values="0 0 0 0 0.2 0 0 0 0 0.2 0 0 0 0 0.2 0 0 0 0.2 0"/>
            <feMerge>
                <feMergeNode in="shadowMatrixOuter1"/>
                <feMergeNode in="SourceGraphic"/>
            </feMerge>
        </filter>
    </defs>
    <g fill="none" fill-rule="evenodd" filter="url(#a)" transform="translate(76 55)">
        <g stroke="#CDCDCD" stroke-linecap="square">
            <path d="M295.675 273.422L69.7 476.582l225.976-203.16zM294.586 70.262V273.97M296.764 70.262l-227.61 407.41M296.764 70.262l224.343 406.32M296.764 271.788h224.343M70.243 474.404h451.953M296.764 271.788l225.432 204.794M291.319 406.865l230.877-135.077M291.319 406.865l230.877 68.628M291.319 405.776L71.332 476.582"/>
        </g>
        <g transform="translate(287.507 164.489)">
            <ellipse cx="7.079" cy="7.081" fill="#888" rx="7.079" ry="7.081"/>
            <path fill="#FFF" fill-rule="nonzero" d="M10.892 3.862l-.065.057-4.68 4.1-2.744-2.353-.829.938 3.574 3.76 5.435-5.721-.691-.78z"/>
        </g>
        <g transform="translate(176.425 266.886)">
            <ellipse cx="7.079" cy="7.081" fill="#888" rx="7.079" ry="7.081"/>
            <path fill="#FFF" fill-rule="nonzero" d="M10.892 3.862l-.065.057-4.68 4.1-2.744-2.353-.829.938 3.574 3.76 5.435-5.721-.691-.78z"/>
        </g>
        <g transform="translate(175.336 367.104)">
            <ellipse cx="7.079" cy="7.081" fill="#888" rx="7.079" ry="7.081"/>
            <path fill="#FFF" fill-rule="nonzero" d="M10.892 3.862l-.065.057-4.68 4.1-2.744-2.353-.829.938 3.574 3.76 5.435-5.721-.691-.78z"/>
        </g>
        <g transform="translate(174.247 434.643)">
            <ellipse cx="7.079" cy="7.081" fill="#888" rx="7.079" ry="7.081"/>
            <path fill="#FFF" fill-rule="nonzero" d="M10.892 3.862l-.065.057-4.68 4.1-2.744-2.353-.829.938 3.574 3.76 5.435-5.721-.691-.78z"/>
        </g>
        <g transform="translate(289.685 467.323)">
            <ellipse cx="7.079" cy="7.081" fill="#888" rx="7.079" ry="7.081"/>
            <path fill="#FFF" fill-rule="nonzero" d="M10.892 3.862l-.065.057-4.68 4.1-2.744-2.353-.829.938 3.574 3.76 5.435-5.721-.691-.78z"/>
        </g>
        <g transform="translate(399.679 434.643)">
            <ellipse cx="7.079" cy="7.081" fill="#888" rx="7.079" ry="7.081"/>
            <path fill="#FFF" fill-rule="nonzero" d="M10.892 3.862l-.065.057-4.68 4.1-2.744-2.353-.829.938 3.574 3.76 5.435-5.721-.691-.78z"/>
        </g>
        <g transform="translate(402.946 367.104)">
            <ellipse cx="7.079" cy="7.081" fill="#888" rx="7.079" ry="7.081"/>
            <path fill="#FFF" fill-rule="nonzero" d="M10.892 3.862l-.065.057-4.68 4.1-2.744-2.353-.829.938 3.574 3.76 5.435-5.721-.691-.78z"/>
        </g>
        <g transform="translate(399.679 332.246)">
            <ellipse cx="7.079" cy="7.081" fill="#888" rx="7.079" ry="7.081"/>
            <path fill="#FFF" fill-rule="nonzero" d="M10.892 3.862l-.065.057-4.68 4.1-2.744-2.353-.829.938 3.574 3.76 5.435-5.721-.691-.78z"/>
        </g>
        <g transform="translate(401.857 266.886)">
            <ellipse cx="7.079" cy="7.081" fill="#888" rx="7.079" ry="7.081"/>
            <path fill="#FFF" fill-rule="nonzero" d="M10.892 3.862l-.065.057-4.68 4.1-2.744-2.353-.829.938 3.574 3.76 5.435-5.721-.691-.78z"/>
        </g>
        <g transform="translate(0 407.41)">
            <ellipse cx="69.154" cy="69.173" fill="#FFF" stroke="#CDCDCD" rx="68.654" ry="68.673"/>
            <g fill-rule="nonzero">
                <path fill="#FFF" d="M69.699 36.629c-18.044 0-32.672 14.631-32.672 32.68 0 18.048 14.628 32.68 32.672 32.68A32.667 32.667 0 0 0 92.8 92.417a32.684 32.684 0 0 0 9.57-23.108c0-18.049-14.628-32.68-32.672-32.68z"/>
                <path fill="#326DE6" d="M69.699 36.629c-18.044 0-32.672 14.631-32.672 32.68 0 18.048 14.628 32.68 32.672 32.68 18.044 0 32.671-14.632 32.671-32.68 0-18.049-14.627-32.68-32.671-32.68z"/>
                <path fill="#326DE6" stroke="#FFF" stroke-linejoin="round" stroke-width="2" d="M44.388 76.287c.061.093.127.183.196.27l12.448 15.48a3.45 3.45 0 0 0 2.688 1.285l19.961-.002a3.45 3.45 0 0 0 2.689-1.285l12.444-15.484a3.391 3.391 0 0 0 .663-2.886L91.034 54.36a3.417 3.417 0 0 0-1.861-2.314l-17.986-8.59a3.464 3.464 0 0 0-2.983 0L50.22 52.049a3.417 3.417 0 0 0-1.86 2.315L43.92 73.67a3.39 3.39 0 0 0 .468 2.616z"/>
                <path fill="#FFF" d="M69.698 49.69c-.588.001-1.068.527-1.075 1.181v.004a1.33 1.33 0 0 0-.001.02c0 .094-.004.214 0 .298.013.38.097.673.147 1.024.09.752.167 1.374.12 1.953-.043.29-.21.404-.35.538l.026.018h-.028l-.026.458a13.934 13.934 0 0 0-8.983 4.313l-.369-.262-.017.022.003-.032c-.192.026-.386.086-.639-.061-.482-.325-.921-.772-1.452-1.312-.243-.258-.42-.505-.708-.754-.07-.06-.179-.14-.253-.2-.516-.401-1.226-.354-1.593.106-.367.46-.255 1.163.252 1.577h.001a1.327 1.327 0 0 0 .02.017c.072.058.163.135.23.185.307.226.587.343.893.523.643.398 1.178.726 1.601 1.124.2.214.185.416.202.61l.031-.01-.018.021.34.303a13.967 13.967 0 0 0-2.189 9.72l-.452.13.007.027-.024-.022c-.1.166-.173.355-.446.461-.554.175-1.178.24-1.93.318-.354.03-.657.013-1.031.084-.085.016-.207.048-.298.069a.824.824 0 0 0-.002 0l-.014.004c-.636.153-1.041.738-.91 1.312.13.574.75.924 1.39.786h.004a1.329 1.329 0 0 0 .02-.004c.09-.02.208-.044.29-.065.368-.1.634-.246.965-.372.712-.256 1.302-.469 1.877-.552.292-.023.44.115.602.222l.012-.03.006.027.47-.08a14.04 14.04 0 0 0 6.203 7.76l-.191.462.025.012-.032.004c.068.181.17.357.082.636-.209.542-.547 1.07-.955 1.708-.197.295-.4.522-.577.859-.043.08-.098.205-.139.29-.277.593-.073 1.275.458 1.531.53.255 1.19-.01 1.48-.597a1.329 1.329 0 0 0 .012-.023c.041-.083.096-.19.13-.266.152-.35.203-.65.31-.987.245-.716.446-1.31.74-1.812.164-.242.364-.272.549-.332l-.017-.028.025.012.24-.435a13.988 13.988 0 0 0 9.938.018l.221.4.025-.012-.016.027c.184.06.385.09.549.333.293.5.495 1.095.74 1.811.106.338.158.638.31.987.035.08.093.19.134.275v.003c.003.003.005.008.007.012.291.586.951.851 1.482.596.53-.256.734-.937.457-1.53V85.1a1.328 1.328 0 0 0-.011-.023c-.04-.083-.088-.192-.127-.266-.178-.337-.38-.564-.578-.859-.407-.637-.746-1.165-.955-1.707-.087-.28.014-.455.082-.637l-.032-.005.026-.012-.173-.418a13.924 13.924 0 0 0 6.21-7.805l.44.074.006-.026.01.03c.163-.107.311-.246.603-.223.575.083 1.165.296 1.877.552.331.126.597.273.966.372.083.022.206.046.298.067h.002l.014.003c.64.137 1.259-.213 1.39-.787.13-.574-.276-1.159-.911-1.312h-.004a1.329 1.329 0 0 0-.022-.006c-.09-.021-.206-.051-.288-.067-.375-.07-.678-.054-1.031-.084-.753-.079-1.377-.143-1.93-.317-.274-.106-.348-.295-.447-.462l-.024.023.007-.028-.436-.125a13.99 13.99 0 0 0-2.242-9.693l.369-.33-.017-.022.03.01c.018-.193.002-.395.202-.61.423-.397.958-.726 1.601-1.123.306-.18.586-.297.893-.524.073-.054.177-.142.25-.201.507-.415.62-1.117.252-1.578-.367-.46-1.077-.507-1.593-.105l-.003.003a1.33 1.33 0 0 0-.016.013c-.073.057-.17.129-.233.184-.289.249-.465.496-.708.754-.531.54-.97.987-1.452 1.312-.253.147-.447.087-.64.061l.004.032-.018-.022-.407.29a14.013 14.013 0 0 0-8.937-4.313l-.026-.466h-.028l.027-.017c-.14-.134-.308-.248-.35-.538-.047-.579.029-1.202.12-1.953.05-.351.133-.644.147-1.025.004-.09-.001-.227-.001-.321-.008-.655-.488-1.18-1.076-1.18zm-1.348 8.353l-.32 5.646-.023.011a.948.948 0 0 1-1.505.727l-.012.005-4.622-3.276a11.112 11.112 0 0 1 6.482-3.113zm2.698.007a11.177 11.177 0 0 1 6.441 3.109l-4.591 3.256-.017-.008.001-.002-.003.002a.948.948 0 0 1-1.505-.724l-.006-.003-.32-5.63zm-10.859 5.217l4.22 3.775-.006.024a.948.948 0 0 1-.37 1.63l-.005.02-5.418 1.564a11.137 11.137 0 0 1 1.579-7.013zm18.989.001a11.186 11.186 0 0 1 1.62 6.991l-5.439-1.569-.004-.02.002-.001h-.003a.948.948 0 0 1-.373-1.63l-.002-.012 4.199-3.759zm-7.81.414l.003.002a.95.95 0 0 0 1.509.725l.015.008-.7.497-.29-.361h-.488l-.05-.871zm-3.337.01l-.049.86h-.495l-.3.374-.694-.493.009-.004a.95.95 0 0 0 1.508-.727l.02-.01zm6.945 3.336l.003.01a.95.95 0 0 0 .374 1.632l.004.02-.804-.233.106-.464-.318-.397.636-.568zm-10.565.015l.629.564-.309.385.112.488-.813.235.004-.017a.95.95 0 0 0 .371-1.632l.005-.022zm4.42.29h1.73l1.077 1.347-.385 1.68-1.558.747-1.558-.748-.385-1.68 1.079-1.346zm4.955 4.47l.823.14-.009.011a.95.95 0 0 0-1.043 1.31l-.006.009-.32-.776.444-.213.11-.48zm-8.177.024l.105.456.46.22-.33.802-.016-.02a.95.95 0 0 0-1.044-1.308l-.008-.009.833-.141zm8.847.115a.99.99 0 0 1 .145.015l.01-.013 5.596.947a11.12 11.12 0 0 1-4.483 5.635l-2.172-5.251.007-.009.002.001-.001-.003a.948.948 0 0 1 .896-1.322zm-9.488.022a.948.948 0 0 1 .858 1.322l.016.021-2.148 5.197a11.197 11.197 0 0 1-4.474-5.594l5.553-.942.01.012a.945.945 0 0 1 .185-.016zm5.165 2.019l.42.76h-.02a.95.95 0 0 0-1.674.001h-.002l.416-.753.421.202.439-.21zm-.47.262a.942.942 0 0 1 .868.499h.023l2.738 4.948a11.134 11.134 0 0 1-7.165-.013l2.728-4.933h.005v-.002.001a.948.948 0 0 1 .802-.5z"/>
            </g>
        </g>
        <g transform="translate(247.213 363.836)">
            <ellipse cx="43.562" cy="43.573" fill="#FFF" stroke="#CDCDCD" rx="43.062" ry="43.073"/>
            <g fill-rule="nonzero">
                <path fill="#FFF" d="M43.562 11.56c-18.044 0-32.672 14.333-32.672 32.013s14.628 32.013 32.672 32.013c8.665 0 16.975-3.373 23.102-9.376 6.127-6.004 9.569-14.146 9.569-22.637 0-17.68-14.627-32.013-32.671-32.013z"/>
                <path fill="#53A2DA" d="M43.562 11.56c-18.044 0-32.672 14.333-32.672 32.013s14.628 32.013 32.672 32.013c18.044 0 32.671-14.332 32.671-32.013 0-17.68-14.627-32.013-32.671-32.013z"/>
                <path fill="#FFF" d="M49.87 19.985c-8.476 0-15.378 6.763-15.378 15.069V42.271c0 .237.196.429.437.429h4.33a.433.433 0 0 0 .437-.429V35.054c0-5.57 4.49-9.97 10.175-9.97h2.91a.433.433 0 0 0 .438-.428v-4.242a.433.433 0 0 0-.437-.429H49.87zm.238 7.255c-4.376 0-7.987 3.436-8.158 7.687-.004.116.04.23.122.314a.442.442 0 0 0 .315.131h4.337c.227 0 .416-.17.435-.393.13-1.525 1.344-2.64 2.95-2.64h2.673a.433.433 0 0 0 .437-.428v-4.242a.433.433 0 0 0-.437-.429h-2.674zm-20.184 8.87a.435.435 0 0 0-.431.354l-.765 4.285a.422.422 0 0 0 .096.35.441.441 0 0 0 .335.152h4.15a.433.433 0 0 0 .437-.428v-4.285a.433.433 0 0 0-.438-.429h-3.384zm11.01 0a.433.433 0 0 0-.438.428v4.285c0 .236.196.428.437.428h12.133c.213 0 .395-.15.431-.354l.766-4.285a.422.422 0 0 0-.096-.35.441.441 0 0 0-.335-.153H40.933zm1.446 5.876a.433.433 0 0 0-.438.429v16.032a9.828 9.828 0 0 1-2.901 7.011.422.422 0 0 0 .002.604l3.036 2.974a.442.442 0 0 0 .62-.002c2.747-2.722 4.448-6.465 4.448-10.587V42.414a.433.433 0 0 0-.438-.428h-4.33zm-13.768 1.43a.435.435 0 0 0-.431.354l-.765 4.285a.422.422 0 0 0 .096.35.441.441 0 0 0 .335.152h12.896a.433.433 0 0 0 .437-.428v-4.285a.433.433 0 0 0-.437-.429H28.612zm19.755 0a.433.433 0 0 0-.437.428v4.285c0 .236.196.428.437.428h3.387c.213 0 .395-.15.431-.354l.766-4.285a.422.422 0 0 0-.096-.35.441.441 0 0 0-.335-.153h-4.153zM34.93 49.312a.433.433 0 0 0-.437.429v8.518c0 .792-.295 1.48-.782 1.992a.422.422 0 0 0 .011.595l3.038 2.977a.442.442 0 0 0 .623-.005c1.428-1.442 2.314-3.406 2.314-5.56v-8.517a.433.433 0 0 0-.437-.429h-4.33z"/>
            </g>
        </g>
        <g transform="translate(450.864 407.41)">
            <ellipse cx="69.154" cy="69.173" fill="#FFF" stroke="#CDCDCD" rx="68.654" ry="68.673"/>
            <g fill-rule="nonzero">
                <path fill="#FFF" d="M69.699 36.629c-18.044 0-32.672 14.631-32.672 32.68 0 18.048 14.628 32.68 32.672 32.68A32.667 32.667 0 0 0 92.8 92.417a32.684 32.684 0 0 0 9.57-23.108c0-18.049-14.628-32.68-32.672-32.68z"/>
                <path fill="#326DE6" d="M69.699 36.629c-18.044 0-32.672 14.631-32.672 32.68 0 18.048 14.628 32.68 32.672 32.68 18.044 0 32.671-14.632 32.671-32.68 0-18.049-14.627-32.68-32.671-32.68z"/>
                <path fill="#326DE6" stroke="#FFF" stroke-linejoin="round" stroke-width="2" d="M44.388 76.287c.061.093.127.183.196.27l12.448 15.48a3.45 3.45 0 0 0 2.688 1.285l19.961-.002a3.45 3.45 0 0 0 2.689-1.285l12.444-15.484a3.391 3.391 0 0 0 .663-2.886L91.034 54.36a3.417 3.417 0 0 0-1.861-2.314l-17.986-8.59a3.464 3.464 0 0 0-2.983 0L50.22 52.049a3.417 3.417 0 0 0-1.86 2.315L43.92 73.67a3.39 3.39 0 0 0 .468 2.616z"/>
                <path fill="#FFF" d="M69.698 49.69c-.588.001-1.068.527-1.075 1.181v.004a1.33 1.33 0 0 0-.001.02c0 .094-.004.214 0 .298.013.38.097.673.147 1.024.09.752.167 1.374.12 1.953-.043.29-.21.404-.35.538l.026.018h-.028l-.026.458a13.934 13.934 0 0 0-8.983 4.313l-.369-.262-.017.022.003-.032c-.192.026-.386.086-.639-.061-.482-.325-.921-.772-1.452-1.312-.243-.258-.42-.505-.708-.754-.07-.06-.179-.14-.253-.2-.516-.401-1.226-.354-1.593.106-.367.46-.255 1.163.252 1.577h.001a1.327 1.327 0 0 0 .02.017c.072.058.163.135.23.185.307.226.587.343.893.523.643.398 1.178.726 1.601 1.124.2.214.185.416.202.61l.031-.01-.018.021.34.303a13.967 13.967 0 0 0-2.189 9.72l-.452.13.007.027-.024-.022c-.1.166-.173.355-.446.461-.554.175-1.178.24-1.93.318-.354.03-.657.013-1.031.084-.085.016-.207.048-.298.069a.824.824 0 0 0-.002 0l-.014.004c-.636.153-1.041.738-.91 1.312.13.574.75.924 1.39.786h.004a1.329 1.329 0 0 0 .02-.004c.09-.02.208-.044.29-.065.368-.1.634-.246.965-.372.712-.256 1.302-.469 1.877-.552.292-.023.44.115.602.222l.012-.03.006.027.47-.08a14.04 14.04 0 0 0 6.203 7.76l-.191.462.025.012-.032.004c.068.181.17.357.082.636-.209.542-.547 1.07-.955 1.708-.197.295-.4.522-.577.859-.043.08-.098.205-.139.29-.277.593-.073 1.275.458 1.531.53.255 1.19-.01 1.48-.597a1.329 1.329 0 0 0 .012-.023c.041-.083.096-.19.13-.266.152-.35.203-.65.31-.987.245-.716.446-1.31.74-1.812.164-.242.364-.272.549-.332l-.017-.028.025.012.24-.435a13.988 13.988 0 0 0 9.938.018l.221.4.025-.012-.016.027c.184.06.385.09.549.333.293.5.495 1.095.74 1.811.106.338.158.638.31.987.035.08.093.19.134.275v.003c.003.003.005.008.007.012.291.586.951.851 1.482.596.53-.256.734-.937.457-1.53V85.1a1.328 1.328 0 0 0-.011-.023c-.04-.083-.088-.192-.127-.266-.178-.337-.38-.564-.578-.859-.407-.637-.746-1.165-.955-1.707-.087-.28.014-.455.082-.637l-.032-.005.026-.012-.173-.418a13.924 13.924 0 0 0 6.21-7.805l.44.074.006-.026.01.03c.163-.107.311-.246.603-.223.575.083 1.165.296 1.877.552.331.126.597.273.966.372.083.022.206.046.298.067h.002l.014.003c.64.137 1.259-.213 1.39-.787.13-.574-.276-1.159-.911-1.312h-.004a1.329 1.329 0 0 0-.022-.006c-.09-.021-.206-.051-.288-.067-.375-.07-.678-.054-1.031-.084-.753-.079-1.377-.143-1.93-.317-.274-.106-.348-.295-.447-.462l-.024.023.007-.028-.436-.125a13.99 13.99 0 0 0-2.242-9.693l.369-.33-.017-.022.03.01c.018-.193.002-.395.202-.61.423-.397.958-.726 1.601-1.123.306-.18.586-.297.893-.524.073-.054.177-.142.25-.201.507-.415.62-1.117.252-1.578-.367-.46-1.077-.507-1.593-.105l-.003.003a1.33 1.33 0 0 0-.016.013c-.073.057-.17.129-.233.184-.289.249-.465.496-.708.754-.531.54-.97.987-1.452 1.312-.253.147-.447.087-.64.061l.004.032-.018-.022-.407.29a14.013 14.013 0 0 0-8.937-4.313l-.026-.466h-.028l.027-.017c-.14-.134-.308-.248-.35-.538-.047-.579.029-1.202.12-1.953.05-.351.133-.644.147-1.025.004-.09-.001-.227-.001-.321-.008-.655-.488-1.18-1.076-1.18zm-1.348 8.353l-.32 5.646-.023.011a.948.948 0 0 1-1.505.727l-.012.005-4.622-3.276a11.112 11.112 0 0 1 6.482-3.113zm2.698.007a11.177 11.177 0 0 1 6.441 3.109l-4.591 3.256-.017-.008.001-.002-.003.002a.948.948 0 0 1-1.505-.724l-.006-.003-.32-5.63zm-10.859 5.217l4.22 3.775-.006.024a.948.948 0 0 1-.37 1.63l-.005.02-5.418 1.564a11.137 11.137 0 0 1 1.579-7.013zm18.989.001a11.186 11.186 0 0 1 1.62 6.991l-5.439-1.569-.004-.02.002-.001h-.003a.948.948 0 0 1-.373-1.63l-.002-.012 4.199-3.759zm-7.81.414l.003.002a.95.95 0 0 0 1.509.725l.015.008-.7.497-.29-.361h-.488l-.05-.871zm-3.337.01l-.049.86h-.495l-.3.374-.694-.493.009-.004a.95.95 0 0 0 1.508-.727l.02-.01zm6.945 3.336l.003.01a.95.95 0 0 0 .374 1.632l.004.02-.804-.233.106-.464-.318-.397.636-.568zm-10.565.015l.629.564-.309.385.112.488-.813.235.004-.017a.95.95 0 0 0 .371-1.632l.005-.022zm4.42.29h1.73l1.077 1.347-.385 1.68-1.558.747-1.558-.748-.385-1.68 1.079-1.346zm4.955 4.47l.823.14-.009.011a.95.95 0 0 0-1.043 1.31l-.006.009-.32-.776.444-.213.11-.48zm-8.177.024l.105.456.46.22-.33.802-.016-.02a.95.95 0 0 0-1.044-1.308l-.008-.009.833-.141zm8.847.115a.99.99 0 0 1 .145.015l.01-.013 5.596.947a11.12 11.12 0 0 1-4.483 5.635l-2.172-5.251.007-.009.002.001-.001-.003a.948.948 0 0 1 .896-1.322zm-9.488.022a.948.948 0 0 1 .858 1.322l.016.021-2.148 5.197a11.197 11.197 0 0 1-4.474-5.594l5.553-.942.01.012a.945.945 0 0 1 .185-.016zm5.165 2.019l.42.76h-.02a.95.95 0 0 0-1.674.001h-.002l.416-.753.421.202.439-.21zm-.47.262a.942.942 0 0 1 .868.499h.023l2.738 4.948a11.134 11.134 0 0 1-7.165-.013l2.728-4.933h.005v-.002.001a.948.948 0 0 1 .802-.5z"/>
            </g>
        </g>
        <g transform="translate(450.864 203.705)">
            <ellipse cx="69.154" cy="69.173" fill="#FFF" stroke="#CDCDCD" rx="68.654" ry="68.673"/>
            <g fill-rule="nonzero">
                <path fill="#419EDA" d="M69.699 36.629c-18.044 0-32.672 14.631-32.672 32.68 0 18.048 14.628 32.68 32.672 32.68A32.667 32.667 0 0 0 92.8 92.417a32.684 32.684 0 0 0 9.57-23.108c0-18.049-14.628-32.68-32.672-32.68z"/>
                <g fill="#FFF">
                    <path d="M67.758 68.035a3.22 3.22 0 0 1-3.217 3.218 3.22 3.22 0 0 1-3.217-3.218 3.22 3.22 0 0 1 3.217-3.217c1.775 0 3.217 1.498 3.217 3.217zM71.917 68.035a3.22 3.22 0 0 0 3.217 3.218 3.22 3.22 0 0 0 3.217-3.218 3.22 3.22 0 0 0-3.217-3.217c-1.775 0-3.217 1.498-3.217 3.217z"/>
                    <path d="M93.88 71.53c-.222 0-.444.056-.666.056a9.471 9.471 0 0 1-4.104-.943c.388-2.386.61-4.827.555-7.268a40.461 40.461 0 0 0-4.66-5.547 9.579 9.579 0 0 1 3.273-3.55l.61-.389-.5-.555c-2.44-2.718-5.323-4.826-8.595-6.268l-.666-.278-.222.777c-.388 1.609-1.22 3.051-2.33 4.216-2.162-1.165-4.436-2.052-6.765-2.774a34.045 34.045 0 0 0-6.766 2.774c-1.165-1.165-1.942-2.607-2.33-4.216l-.166-.666-.666.278c-3.272 1.442-6.211 3.606-8.596 6.268l-.5.555.61.388c1.443.833 2.497 2.053 3.273 3.495-1.775 1.72-3.272 3.606-4.659 5.548-.055 2.385.111 4.826.555 7.267a9.414 9.414 0 0 1-4.049.943c-.222 0-.499 0-.72-.055l-.666-.056.055.666c.388 3.606 1.442 6.99 3.272 10.152l.389.61.554-.444c1.276-1.054 2.773-1.775 4.382-2.052a39.79 39.79 0 0 0 3.715 6.102c2.274.832 4.66 1.387 7.1 1.775.221 1.609.055 3.273-.61 4.826l-.278.666.666.167a25.17 25.17 0 0 0 5.324.554l5.324-.554.665-.167-.277-.666c-.665-1.553-.832-3.273-.61-4.881 2.44-.389 4.825-.943 7.1-1.776 1.441-1.886 2.661-3.938 3.715-6.157 1.608.277 3.106.998 4.381 2.052l.555.444.388-.61a22.836 22.836 0 0 0 3.272-10.152l.056-.666-.388.111zm-16.417 8.71a29.884 29.884 0 0 1-7.653.998c-2.551 0-5.103-.388-7.654-.998a30.05 30.05 0 0 1-3.272-6.88 28.363 28.363 0 0 1-1.387-7.544c1.609-2.052 3.494-3.772 5.547-5.27 2.052-1.498 4.325-2.718 6.766-3.661a31.943 31.943 0 0 1 6.766 3.661c2.052 1.498 3.882 3.273 5.546 5.27-.111 2.608-.61 5.104-1.387 7.545a30.05 30.05 0 0 1-3.272 6.879z"/>
                </g>
            </g>
        </g>
        <g transform="translate(225.432 203.705)">
            <ellipse cx="69.154" cy="69.173" fill="#FFF" stroke="#CDCDCD" rx="68.654" ry="68.673"/>
            <g fill-rule="nonzero">
                <path fill="#F68122" d="M69.699 37.235c-18.044 0-32.672 14.632-32.672 32.68 0 18.049 14.628 32.68 32.672 32.68 18.044 0 32.671-14.631 32.671-32.68 0-18.048-14.627-32.68-32.671-32.68z"/>
                <path fill="#FFF" d="M69.684 48.131c-1.798.002-3.04.133-4.66.49a21.804 21.804 0 0 0-14.11 10.257c-1.706 2.9-2.69 6.11-2.944 9.616-.343 4.734 1.017 9.707 3.746 13.7 1.709 2.5 4.029 4.715 6.537 6.245.289.176.54.321.555.32.016 0 .194-.29.393-.64.198-.352.589-1.032.866-1.512.817-1.412 2.929-5.07 3.465-6 .191-.334.345-.629.345-.658 0-.028-.233-.207-.52-.397-.708-.468-1.039-.738-1.702-1.387-.671-.656-1.07-1.127-1.554-1.848-2.6-3.866-2.587-8.97.03-12.872.577-.86 1.524-1.892 2.36-2.573 1.135-.926 2.782-1.749 4.271-2.139 1.106-.29 1.658-.359 2.947-.359 1.29 0 1.843.07 2.949.36 1.493.39 3.108 1.199 4.271 2.138.419.337 1.365 1.272 1.715 1.698a11.713 11.713 0 0 1 2.258 4.48c.284 1.135.333 1.55.333 2.852 0 1.303-.05 1.716-.333 2.85a11.719 11.719 0 0 1-2.258 4.483c-.371.451-1.314 1.377-1.75 1.724-.169.135-.542.403-.83.593-.288.19-.521.37-.521.397 0 .047 2.258 3.99 3.704 6.466.579.992 1.31 2.268 1.326 2.317.027.08.215-.026 1.165-.66 1.423-.951 2.118-1.524 3.346-2.745 1.863-1.853 3.252-3.817 4.318-6.1 1.44-3.084 2.078-5.936 2.078-9.325 0-2.312-.28-4.233-.926-6.351a22.073 22.073 0 0 0-3.794-7.217c-2.95-3.697-7.033-6.356-11.546-7.515-1.988-.511-3.445-.69-5.53-.688zm.052 14.576c-1.413 0-2.853.439-4.055 1.238-.602.4-1.523 1.325-1.923 1.928a7.208 7.208 0 0 0 0 8.058c.4.604 1.324 1.527 1.929 1.93.258.172.727.435 1.045.585.362.17.566.293.55.336-.014.037-.158.854-.324 1.814l-.55 3.163c-.137.78-.317 1.818-.402 2.313-.296 1.716-.598 3.47-.891 5.151-.162.93-.28 1.708-.26 1.729.018.02.424.134.903.252.884.218 1.759.36 2.698.44 1.136.096 2.336.055 3.677-.132.692-.097 1.99-.386 2.062-.458.028-.029-.052-.674-.197-1.566-.136-.835-.339-2.08-.448-2.77-.109-.69-.242-1.537-.3-1.882a236.65 236.65 0 0 1-.268-1.66c-.09-.57-.3-1.895-.469-2.945-.169-1.049-.36-2.262-.427-2.694l-.123-.784.166-.06c.375-.134 1.26-.591 1.656-.858.538-.36 1.49-1.317 1.847-1.848a8.122 8.122 0 0 0 1.17-2.805c.094-.434.094-2.126 0-2.56a8.135 8.135 0 0 0-1.17-2.808c-.353-.526-1.309-1.483-1.835-1.836-1.207-.81-2.678-1.271-4.061-1.271z"/>
            </g>
        </g>
        <g transform="translate(225.432)">
            <ellipse cx="69.154" cy="69.173" fill="#FFF" stroke="#CDCDCD" rx="68.654" ry="68.673"/>
            <g fill-rule="nonzero">
                <path fill="#FFF" d="M69.699 36.629c-18.044 0-32.672 14.631-32.672 32.68 0 18.048 14.628 32.68 32.672 32.68A32.667 32.667 0 0 0 92.8 92.417a32.684 32.684 0 0 0 9.57-23.108c0-18.049-14.628-32.68-32.672-32.68z"/>
                <path fill="#326DE6" d="M69.699 36.629c-18.044 0-32.672 14.631-32.672 32.68 0 18.048 14.628 32.68 32.672 32.68 18.044 0 32.671-14.632 32.671-32.68 0-18.049-14.627-32.68-32.671-32.68z"/>
                <path fill="#326DE6" stroke="#FFF" stroke-linejoin="round" stroke-width="2" d="M44.424 76.358c.061.094.127.184.196.27L57.068 92.11a3.45 3.45 0 0 0 2.688 1.284l19.961-.002a3.45 3.45 0 0 0 2.689-1.285L94.85 76.623a3.391 3.391 0 0 0 .663-2.886L91.07 54.43a3.417 3.417 0 0 0-1.86-2.314l-17.986-8.59a3.464 3.464 0 0 0-2.984 0L50.256 52.12a3.417 3.417 0 0 0-1.86 2.314l-4.44 19.307a3.39 3.39 0 0 0 .468 2.617z"/>
                <path fill="#FFF" d="M69.683 48.529a1.021 1.021 0 0 0-1.005 1.036l-.68 18.838-7.394 16.817c-.621 1.255 1.302 2.143 1.854.857l7.24-13.31 7.242 13.31c.552 1.286 2.475.398 1.853-.857L71.4 68.404l-.68-18.84a1.021 1.021 0 0 0-1.037-1.035z"/>
                <path fill="#FFF" d="M59.47 79.804l7.843 3.754-7.173 4.917zM80.04 79.804l-7.842 3.754 7.173 4.917zM69.277 67.78L55.73 71.184l-.683-3.148-6.436 5.848 8.28 2.65-.649-2.995L66.875 71.8l4.489-1.332z"/>
                <path fill="#FFF" d="M70.052 67.78L83.6 71.184l.683-3.148 6.436 5.848-8.28 2.65.649-2.995L72.454 71.8l-4.488-1.332z"/>
            </g>
        </g>
    </g>
</svg>
