<svg width="52" height="52" xmlns="http://www.w3.org/2000/svg" xmlns:xlink="http://www.w3.org/1999/xlink"><defs><circle id="a" cx="40" cy="40" r="12"/></defs><g fill="none" fill-rule="evenodd"><use fill="#FFF" xlink:href="#a"/><circle stroke="#CDCDCD" cx="40" cy="40" r="11.5"/><text font-family="Ubuntu" font-size="14" fill="#888"><tspan x="32" y="45">13</tspan></text><path d="M40 .25c-6.627 0-12 5.373-12 12s5.373 12 12 12a12 12 0 0 0 12-12c0-6.627-5.373-12-12-12z" fill="#ED1843" fill-rule="nonzero"/><path d="M34.3 5.25c-.715 0-1.3.585-1.3 1.3V17.95c0 .715.585 1.3 1.3 1.3h11.4c.715 0 1.3-.585 1.3-1.3V6.55c0-.715-.585-1.3-1.3-1.3H34.3zm5.7 3a2.5 2.5 0 0 1 2.5 2.5 2.5 2.5 0 0 1-1.5 2.288v3.212h-2v-3.21a2.5 2.5 0 0 1 1-4.79z" fill="#FFF" fill-rule="nonzero"/><path d="M12 28C5.373 28 0 33.373 0 40s5.373 12 12 12a12 12 0 0 0 12-12c0-6.627-5.373-12-12-12z" fill="#F2F2F2" fill-rule="nonzero"/><path d="M12 28.25c-6.627 0-12 5.373-12 12 0 3.95 1.905 7.454 4.85 9.641.61-.795.876-1.346.956-1.645.094-.348.073-.407-.012-.69-.075-.25-.405-.622-.931-1.342-.008-.01-.017-.026-.024-.037-.004-.004-.009-.007-.012-.012a9.309 9.309 0 0 1-1.053-1.62A9.239 9.239 0 0 1 2.71 40.25c0-2.729 1.187-5.171 3.06-6.871a9.24 9.24 0 0 1 6.23-2.42 9.25 9.25 0 0 1 6.871 3.049c.006.006.006.018.012.024a9.241 9.241 0 0 1 2.407 6.218c0 2.245-.791 4.31-2.117 5.915l-.012.012c-.009.011-.015.026-.024.037-.526.72-.856 1.092-.931 1.342-.085.283-.106.342-.012.69.08.299.345.85.955 1.645A11.977 11.977 0 0 0 24 40.25c0-6.627-5.373-12-12-12zm0 5.032a7.004 7.004 0 0 0-3.847 1.162c-3.193 2.113-4.078 6.448-1.972 9.64.004.005.01.008.013.013.655.99 1.476 1.708 1.802 2.794.295.984.313 2.219-1.15 4.198.835.397 1.723.698 2.65.895 1.39-2.248 1.575-4.284 1.1-5.867-.579-1.933-1.97-3.242-2.152-3.52h.012a4.236 4.236 0 0 1 1.197-5.903c.695-.46 1.513-.7 2.347-.702h.012c.833.002 1.64.242 2.335.702a4.243 4.243 0 0 1 1.21 5.903c-.184.278-1.574 1.587-2.154 3.52-.474 1.583-.289 3.619 1.101 5.867a11.905 11.905 0 0 0 2.65-.895c-1.463-1.979-1.445-3.214-1.15-4.198.326-1.086 1.147-1.804 1.802-2.794 2.117-3.195 1.235-7.537-1.96-9.653a6.966 6.966 0 0 0-3.834-1.162H12zm0 5.032a1.935 1.935 0 1 0 0 3.871 1.935 1.935 0 0 0 0-3.87zm0 13.815l-.06.121h.12l-.06-.121z" fill="#F05C56" fill-rule="nonzero"/><path d="M12 .25c-6.627 0-12 5.373-12 12s5.373 12 12 12a12 12 0 0 0 12-12c0-6.627-5.373-12-12-12z" fill-opacity=".996" fill="#F7771D" fill-rule="nonzero"/><path d="M6.404 6.25A.403.403 0 0 0 6 6.654v11.192c0 .224.18.404.404.404h11.192c.224 0 .404-.18.404-.404v-6.504a.403.403 0 0 0-.404-.405h-4.659V6.654a.403.403 0 0 0-.404-.404h-1.441a.403.403 0 0 0-.405.404v4.284H8.25V6.654a.403.403 0 0 0-.404-.404H6.404zm7.313 7.313h1.441c.225 0 .405.18.405.404v1.441c0 .225-.18.405-.405.405h-1.441a.403.403 0 0 1-.405-.405v-1.441c0-.225.18-.405.405-.405z" fill="#FFF" fill-rule="nonzero" opacity=".99"/></g></svg>