<?xml version="1.0" encoding="UTF-8" standalone="no"?>
<svg width="18px" height="18px" viewBox="0 0 18 18" version="1.1" xmlns="http://www.w3.org/2000/svg" xmlns:xlink="http://www.w3.org/1999/xlink">
    <!-- Generator: Sketch 50.2 (55047) - http://www.bohemiancoding.com/sketch -->
    <title>play-icon--white-on-black</title>
    <desc>Created with Sketch.</desc>
    <defs></defs>
    <g id="Homepage-update-May-2018" stroke="none" stroke-width="1" fill="none" fill-rule="evenodd">
        <g id="Homepage-with-promo-for-Reseller-update" transform="translate(-561.000000, -498.000000)" fill-rule="nonzero">
            <g id="INTRODUCTION">
                <g id="TEXT-&amp;-CTA" transform="translate(181.000000, 96.000000)">
                    <g id="JUJU-IN-ACTION-01" transform="translate(0.000000, 278.000000)">
                        <g id="BTN" transform="translate(233.000000, 124.000000)">
                            <g id="play-icon--white-on-black" transform="translate(148.000000, 1.000000)">
                                <path d="M7.968,-0.390410959 C12.6432771,-0.390410959 16.436,3.35035688 16.436,7.968 C16.436,12.5867417 12.643496,16.327726 7.968,16.327726 C3.29287549,16.327726 -0.5,12.5862312 -0.5,7.968 C-0.5,3.35094357 3.29368317,-0.390410959 7.968,-0.390410959 Z" id="Shape" stroke="#666666" fill="#FFFFFF"></path>
                                <path d="M5.31222222,4.27682192 C5.31222222,3.87353425 5.60333333,3.70652055 5.95933333,3.90334247 L12.2655556,7.39221918 C12.6211111,7.58882192 12.6211111,7.9110137 12.2655556,8.10783562 L5.95933333,11.5971507 C5.60377778,11.794411 5.31222222,11.6256438 5.31222222,11.2232329 L5.31222222,4.27682192 Z" id="Shape" fill="#666666"></path>
                            </g>
                        </g>
                    </g>
                </g>
            </g>
        </g>
    </g>
</svg>