<svg width="96" height="96" xmlns="http://www.w3.org/2000/svg"><g fill="none" fill-rule="evenodd"><path d="M48 0C21.49 0 0 21.49 0 48s21.49 48 48 48 48-21.49 48-48S74.51 0 48 0z" fill="#FFF" fill-rule="nonzero"/><path d="M66.135 64.414c.448-3.597.314-4.125 3.095-3.542l.706.06c2.139.094 4.936-.331 6.58-1.067 3.538-1.581 5.636-4.222 2.147-3.528-7.957 1.582-8.505-1.014-8.505-1.014 8.403-12.01 11.916-27.256 8.884-30.987-8.27-10.18-22.585-5.366-22.824-5.241l-.076.014c-1.573-.315-3.332-.502-5.31-.533-3.6-.057-6.333.91-8.405 2.424 0 0-25.537-10.135-24.35 12.745.254 4.867 7.243 36.83 15.58 27.175 3.047-3.53 5.992-6.515 5.992-6.515a7.955 7.955 0 0 0 5.049 1.242l.142-.117c-.045.439-.025.867.056 1.375-2.147 2.311-1.516 2.717-5.81 3.569-4.344.862-1.792 2.398-.126 2.799 2.02.486 6.693 1.176 9.852-3.082l-.126.485c.842.65.786 4.667.905 7.537.12 2.87.32 5.55.926 7.128.608 1.58 1.325 5.647 6.968 4.482 4.716-.974 8.321-2.375 8.65-15.41" stroke="#000" stroke-width="7.582" fill="#000" fill-rule="nonzero"/><path d="M78.664 56.337c-7.958 1.581-8.506-1.014-8.506-1.014 8.403-12.011 11.916-27.257 8.885-30.988-8.27-10.179-22.586-5.365-22.825-5.24l-.076.013c-1.573-.314-3.332-.501-5.31-.533-3.601-.056-6.333.91-8.405 2.424 0 0-25.538-10.134-24.35 12.746.253 4.867 7.242 36.83 15.58 27.175 3.047-3.53 5.99-6.515 5.99-6.515a7.955 7.955 0 0 0 5.049 1.242l.143-.117c-.045.439-.024.867.057 1.375-2.148 2.311-1.517 2.717-5.81 3.569-4.345.862-1.793 2.398-.126 2.799 2.02.486 6.693 1.176 9.851-3.082l-.126.485c.842.65 1.432 4.224 1.333 7.464-.099 3.24-.165 5.464.498 7.201.663 1.738 1.324 5.647 6.968 4.482 4.717-.974 7.16-3.497 7.5-7.705.242-2.992.788-2.55.822-5.224l.438-1.267c.505-4.055.08-5.364 2.986-4.755l.706.06c2.139.093 4.937-.332 6.58-1.067 3.538-1.582 5.635-4.222 2.148-3.528z" fill="#336791" fill-rule="nonzero"/><path d="M49.153 58.662c-.22 7.546.055 15.145.821 16.992.767 1.847 2.409 5.44 8.053 4.274 4.716-.974 6.432-2.858 7.176-7.018.549-3.06 1.606-11.56 1.742-13.302M42.387 20.83S16.833 10.77 18.021 33.65c.252 4.867 7.242 36.83 15.58 27.175 3.046-3.53 5.801-6.3 5.801-6.3M56.19 18.994c-.884.267 14.216-5.317 22.797 5.245 3.031 3.732-.482 18.978-8.884 30.989" stroke="#FFF" stroke-width="2.527" stroke-linecap="round" stroke-linejoin="round"/><path d="M70.103 55.228s.547 2.596 8.506 1.014c3.487-.694 1.388 1.947-2.148 3.529-2.903 1.297-9.41 1.63-9.516-.163-.274-4.626 3.425-3.221 3.158-4.38-.242-1.044-1.895-2.069-2.99-4.624-.955-2.23-13.099-19.332 3.368-16.792.604-.12-4.294-15.089-19.706-15.332-15.407-.244-14.902 18.252-14.902 18.252" stroke="#FFF" stroke-width="2.527" stroke-linecap="round" stroke-linejoin="bevel"/><path d="M44.84 56.81c-2.149 2.311-1.517 2.717-5.81 3.569-4.345.862-1.792 2.398-.127 2.799 2.02.487 6.694 1.176 9.852-3.083.961-1.297-.006-3.366-1.327-3.894-.638-.254-1.492-.574-2.588.609z" stroke="#FFF" stroke-width="2.527" stroke-linecap="round" stroke-linejoin="round"/><path d="M44.699 56.77c-.217-1.36.463-2.977 1.192-4.869 1.095-2.838 3.622-5.677 1.6-14.682-1.506-6.71-11.611-1.397-11.618-.487-.006.91.457 4.612-.169 8.923-.816 5.626 3.717 10.384 8.936 9.897" stroke="#FFF" stroke-width="2.527" stroke-linecap="round" stroke-linejoin="round"/><path d="M42.294 36.596c-.045.31.591 1.14 1.42 1.25.829.112 1.537-.536 1.582-.847.045-.31-.59-.653-1.42-.764-.829-.111-1.538.05-1.581.36z" stroke="#FFF" stroke-width=".842" fill="#FFF" fill-rule="nonzero"/><path d="M67.517 35.962c.045.311-.59 1.14-1.42 1.251-.829.111-1.537-.537-1.583-.847-.044-.31.592-.653 1.42-.764.83-.112 1.538.05 1.583.36z" stroke="#FFF" stroke-width=".5" fill="#FFF" fill-rule="nonzero"/><path d="M70.481 33.812c.137 2.437-.545 4.098-.63 6.692-.128 3.772 1.866 8.09-1.138 12.412" stroke="#FFF" stroke-width="2.527" stroke-linecap="round" stroke-linejoin="round"/></g></svg>