<svg xmlns="http://www.w3.org/2000/svg" width="96" height="96"><defs><filter id="a" color-interpolation-filters="sRGB"><feFlood flood-opacity=".6" flood-color="#000" result="flood"/><feComposite in="flood" in2="SourceGraphic" operator="out" result="composite1"/><feGaussianBlur in="composite1" stdDeviation="1" result="blur"/><feOffset dy="2" result="offset"/><feComposite in="offset" in2="SourceGraphic" operator="atop" result="composite2"/></filter><clipPath id="b"/><filter id="c"><feGaussianBlur stdDeviation=".72"/></filter></defs><path d="M-268 700.156v-33.73c0-27.243 3.888-31.135 31.103-31.135h33.794c27.215 0 31.103 3.892 31.103 31.135v33.73c0 27.243-3.888 31.135-31.103 31.135h-33.794c-27.215 0-31.103-3.892-31.103-31.135z" fill="#fff" filter="url(#a)" transform="translate(268 -635.29)"/><g fill="none" stroke="#fff" stroke-width="12.465" stroke-linecap="round" stroke-linejoin="round"><path d="M323.205 324.227c2.833-23.601 1.984-27.062 19.563-23.239l4.463.392c13.517.615 31.199-2.174 41.587-7 22.362-10.376 35.622-27.7 13.572-23.148-50.297 10.376-53.755-6.655-53.755-6.655 53.111-78.803 75.313-178.836 56.149-203.322-52.27-66.789-142.748-35.206-144.262-34.386l-.482.089c-9.938-2.062-21.06-3.294-33.554-3.496-22.761-.374-40.032 5.967-53.133 15.904 0 0-161.408-66.498-153.899 83.628 1.597 31.936 45.777 241.655 98.47 178.31 19.259-23.163 37.871-42.748 37.871-42.748 9.242 6.14 20.307 9.272 31.912 8.147l.897-.765c-.281 2.876-.157 5.689.359 9.019-13.572 15.167-9.584 17.83-36.723 23.416-27.457 5.659-11.326 15.734-.797 18.367 12.768 3.193 42.305 7.716 62.268-20.224l-.795 3.188c5.325 4.26 4.965 30.619 5.72 49.452.756 18.834 2.017 36.409 5.856 46.771 3.839 10.36 8.369 37.05 44.036 29.406 29.809-6.388 52.6-15.582 54.677-101.107" fill="#000" stroke="#000" stroke-width="37.395" stroke-linecap="butt" stroke-linejoin="miter" transform="matrix(.20651 0 0 .19893 3.108 4.514)"/><path d="M86.208 58.47c-10.388 2.064-11.102-1.324-11.102-1.324 10.968-15.678 15.553-35.578 11.596-40.448-10.795-13.286-29.48-7.002-29.792-6.84l-.1.018c-2.053-.41-4.35-.655-6.93-.696-4.701-.074-8.267 1.187-10.972 3.164 0 0-33.333-13.228-31.783 16.637.33 6.353 9.453 48.073 20.335 35.471 3.978-4.607 7.82-8.504 7.82-8.504 1.91 1.222 4.194 1.845 6.59 1.621l.186-.152c-.058.572-.031 1.132.075 1.794-2.804 3.017-1.98 3.547-7.584 4.658-5.67 1.126-2.34 3.13-.165 3.654 2.637.635 8.737 1.535 12.86-4.023l-.165.634c1.098.848 1.87 5.513 1.74 9.742-.13 4.229-.215 7.132.65 9.4.866 2.268 1.728 7.37 9.095 5.85 6.156-1.271 9.346-4.564 9.79-10.057.315-3.906 1.028-3.328 1.073-6.82l.571-1.653c.66-5.293.105-7.001 3.898-6.207l.921.078c2.792.122 6.445-.432 8.59-1.392 4.616-2.065 7.355-5.51 2.802-4.605z" fill="#336791" stroke="none"/><path d="M215.866 286.484c-1.385 49.516.348 99.377 5.193 111.495 4.848 12.118 15.223 35.688 50.9 28.045 29.806-6.39 40.651-18.756 45.357-46.051 3.466-20.082 10.148-75.854 11.005-87.281M173.104 38.256S11.583-27.76 19.092 122.365c1.597 31.938 45.779 241.664 98.473 178.316 19.256-23.166 36.671-41.335 36.671-41.335M260.349 26.207c-5.591 1.753 89.848-34.889 144.087 34.417 19.159 24.484-3.043 124.519-56.153 203.329" transform="matrix(.20651 0 0 .19893 3.108 4.514)"/><path d="M348.282 263.953s3.461 17.036 53.764 6.653c22.04-4.552 8.776 12.774-13.577 23.155-18.345 8.514-59.474 10.696-60.146-1.069-1.729-30.355 21.647-21.133 19.96-28.739-1.525-6.85-11.979-13.573-18.894-30.338-6.037-14.633-82.796-126.849 21.287-110.183 3.813-.789-27.146-99.002-124.553-100.599-97.385-1.597-94.19 119.762-94.19 119.762" stroke-linejoin="bevel" transform="matrix(.20651 0 0 .19893 3.108 4.514)"/><path d="M188.604 274.334c-13.577 15.166-9.584 17.829-36.723 23.417-27.459 5.66-11.326 15.733-.797 18.365 12.768 3.195 42.307 7.718 62.266-20.229 6.078-8.509-.036-22.086-8.385-25.547-4.034-1.671-9.428-3.765-16.361 3.994z" transform="matrix(.20651 0 0 .19893 3.108 4.514)"/><path d="M187.715 274.069c-1.368-8.917 2.93-19.528 7.536-31.942 6.922-18.626 22.893-37.255 10.117-96.339-9.523-44.029-73.396-9.163-73.436-3.193-.039 5.968 2.889 30.26-1.067 58.548-5.162 36.913 23.488 68.132 56.479 64.938" transform="matrix(.20651 0 0 .19893 3.108 4.514)"/><path d="M172.517 141.7c-.288 2.039 3.733 7.48 8.976 8.207 5.234.73 9.714-3.522 9.998-5.559.284-2.039-3.732-4.285-8.977-5.015-5.237-.731-9.719.333-9.996 2.367z" fill="#fff" stroke-width="4.155" stroke-linecap="butt" stroke-linejoin="miter" transform="matrix(.20651 0 0 .19893 3.108 4.514)"/><path d="M331.941 137.543c.284 2.039-3.732 7.48-8.976 8.207-5.238.73-9.718-3.522-10.005-5.559-.277-2.039 3.74-4.285 8.979-5.015 5.239-.73 9.718.333 10.002 2.368z" fill="#fff" stroke-width="2.078" stroke-linecap="butt" stroke-linejoin="miter" transform="matrix(.20651 0 0 .19893 3.108 4.514)"/><path d="M350.676 123.432c.863 15.994-3.445 26.888-3.988 43.914-.804 24.748 11.799 53.074-7.191 81.435" transform="matrix(.20651 0 0 .19893 3.108 4.514)"/></g></svg>