<svg width="92" height="90" xmlns="http://www.w3.org/2000/svg"><g transform="translate(1.305 1.406)" fill="none" fill-rule="evenodd"><ellipse fill="#B9B9B9" cx="44.385" cy="43.66" rx="44.385" ry="43.66"/><path d="M44.886 0C20.097 0 0 19.546 0 43.657 0 67.77 20.097 87.316 44.886 87.316c24.79 0 44.886-19.547 44.886-43.659C89.772 19.546 69.675 0 44.886 0zm0 81.71c-7.053 0-12.77-4.583-12.77-10.234h25.542c0 5.65-5.719 10.234-12.772 10.234zM65.98 68.087H23.79v-7.441h42.191v7.44zm-.151-11.271H23.911c-.14-.156-.282-.31-.417-.47-4.319-5.1-5.336-7.762-6.323-10.476-.017-.09 5.236 1.044 8.961 1.86 0 0 1.917.43 4.72.928-2.691-3.068-4.289-6.968-4.289-10.955 0-8.751 6.901-16.399 4.412-22.58 2.423.192 5.014 4.974 5.19 12.451 2.575-3.462 3.654-9.785 3.654-13.662 0-4.014 2.719-8.677 5.439-8.836-2.425 3.887.628 7.219 3.342 15.485 1.018 3.105.888 8.33 1.674 11.644.26-6.883 1.477-16.925 5.966-20.392-1.98 4.366.293 9.83 1.848 12.456 2.508 4.238 4.03 7.448 4.03 13.52 0 4.071-1.546 7.904-4.153 10.9 2.964-.54 5.01-1.028 5.01-1.028l9.626-1.827c.001 0-1.398 5.594-6.772 10.982z" stroke="#EEE" fill="#EEE" fill-rule="nonzero"/></g></svg>