<svg xmlns="http://www.w3.org/2000/svg" width="418" height="740"><g fill="none" fill-rule="evenodd"><path stroke="#3B3B3B" d="M246.987 312.028h-32l-24-24-24 24 24 24 24-24"/><path stroke="#888" stroke-width="2" d="M208.987 593.024h112c64 0 96-32 96-88s-32-88-96-88h-28m-168 0h-28c-64 0-96-32-96-88s32-88 96-88h112m0 0h112c64 0 96-32 96-88s-32-87.998-96-87.998h-70"/><ellipse cx="208.988" cy="593.025" fill="#FFF" fill-rule="nonzero" stroke="#666" stroke-width="2" transform="rotate(180 208.988 593.025)" rx="8" ry="8"/><ellipse cx="208.988" cy="417.026" fill="#FFF" fill-rule="nonzero" stroke="#666" stroke-width="2" transform="rotate(180 208.988 417.026)" rx="8" ry="8"/><ellipse cx="208.988" cy="241.028" fill="#FFF" fill-rule="nonzero" stroke="#666" stroke-width="2" transform="rotate(180 208.988 241.028)" rx="8" ry="8"/><ellipse cx="300.994" cy="417.026" fill="#FFF" fill-rule="nonzero" stroke="#666" stroke-width="2" transform="rotate(180 300.994 417.026)" rx="8" ry="8"/><ellipse cx="116.982" cy="417.026" fill="#FFF" fill-rule="nonzero" stroke="#666" stroke-width="2" transform="rotate(180 116.982 417.026)" rx="8" ry="8"/><ellipse cx="256.991" cy="65.027" fill="#FFF" fill-rule="nonzero" stroke="#666" stroke-width="2" transform="rotate(180 256.99 65.027)" rx="8" ry="8"/><ellipse cx="160.984" cy="65.027" fill="#FFF" fill-rule="nonzero" stroke="#666" stroke-width="2" transform="rotate(180 160.984 65.027)" rx="8" ry="8"/><ellipse cx="232.988" cy="65.023" fill="#666" fill-rule="nonzero" transform="rotate(180 232.988 65.023)" rx="1" ry="1"/><ellipse cx="228.987" cy="65.023" fill="#666" fill-rule="nonzero" transform="rotate(180 228.987 65.023)" rx="1" ry="1"/><ellipse cx="224.986" cy="65.023" fill="#666" fill-rule="nonzero" transform="rotate(180 224.986 65.023)" rx="1" ry="1"/><ellipse cx="220.985" cy="65.023" fill="#666" fill-rule="nonzero" transform="rotate(180 220.985 65.023)" rx="1" ry="1"/><ellipse cx="216.984" cy="65.023" fill="#666" fill-rule="nonzero" transform="rotate(180 216.984 65.023)" rx="1" ry="1"/><ellipse cx="212.983" cy="65.023" fill="#666" fill-rule="nonzero" transform="rotate(180 212.983 65.023)" rx="1" ry="1"/><ellipse cx="208.982" cy="65.023" fill="#666" fill-rule="nonzero" transform="rotate(180 208.982 65.023)" rx="1" ry="1"/><ellipse cx="204.981" cy="65.023" fill="#666" fill-rule="nonzero" transform="rotate(180 204.98 65.023)" rx="1" ry="1"/><ellipse cx="200.98" cy="65.023" fill="#666" fill-rule="nonzero" transform="rotate(180 200.98 65.023)" rx="1" ry="1"/><ellipse cx="196.979" cy="65.023" fill="#666" fill-rule="nonzero" transform="rotate(180 196.98 65.023)" rx="1" ry="1"/><ellipse cx="196.987" cy="417.023" fill="#666" fill-rule="nonzero" transform="rotate(180 196.987 417.023)" rx="1" ry="1"/><ellipse cx="192.986" cy="417.023" fill="#666" fill-rule="nonzero" transform="rotate(180 192.986 417.023)" rx="1" ry="1"/><ellipse cx="188.985" cy="417.023" fill="#666" fill-rule="nonzero" transform="rotate(180 188.985 417.023)" rx="1" ry="1"/><ellipse cx="184.984" cy="417.023" fill="#666" fill-rule="nonzero" transform="rotate(180 184.984 417.023)" rx="1" ry="1"/><ellipse cx="180.983" cy="417.023" fill="#666" fill-rule="nonzero" transform="rotate(180 180.983 417.023)" rx="1" ry="1"/><ellipse cx="176.982" cy="417.023" fill="#666" fill-rule="nonzero" transform="rotate(180 176.982 417.023)" rx="1" ry="1"/><ellipse cx="172.981" cy="417.023" fill="#666" fill-rule="nonzero" transform="rotate(180 172.98 417.023)" rx="1" ry="1"/><ellipse cx="168.98" cy="417.023" fill="#666" fill-rule="nonzero" transform="rotate(180 168.98 417.023)" rx="1" ry="1"/><ellipse cx="164.979" cy="417.023" fill="#666" fill-rule="nonzero" transform="rotate(180 164.98 417.023)" rx="1" ry="1"/><ellipse cx="160.978" cy="417.023" fill="#666" fill-rule="nonzero" transform="rotate(180 160.978 417.023)" rx="1" ry="1"/><ellipse cx="156.981" cy="417.023" fill="#666" fill-rule="nonzero" transform="rotate(180 156.98 417.023)" rx="1" ry="1"/><ellipse cx="152.98" cy="417.023" fill="#666" fill-rule="nonzero" transform="rotate(180 152.98 417.023)" rx="1" ry="1"/><ellipse cx="148.979" cy="417.023" fill="#666" fill-rule="nonzero" transform="rotate(180 148.98 417.023)" rx="1" ry="1"/><ellipse cx="144.978" cy="417.023" fill="#666" fill-rule="nonzero" transform="rotate(180 144.978 417.023)" rx="1" ry="1"/><ellipse cx="140.977" cy="417.023" fill="#666" fill-rule="nonzero" transform="rotate(180 140.977 417.023)" rx="1" ry="1"/><ellipse cx="136.978" cy="417.023" fill="#666" fill-rule="nonzero" transform="rotate(180 136.978 417.023)" rx="1" ry="1"/><ellipse cx="132.977" cy="417.023" fill="#666" fill-rule="nonzero" transform="rotate(180 132.977 417.023)" rx="1" ry="1"/><ellipse cx="128.976" cy="417.023" fill="#666" fill-rule="nonzero" transform="rotate(180 128.976 417.023)" rx="1" ry="1"/><ellipse cx="196.987" cy="417.023" fill="#666" fill-rule="nonzero" transform="rotate(180 196.987 417.023)" rx="1" ry="1"/><ellipse cx="192.986" cy="417.023" fill="#666" fill-rule="nonzero" transform="rotate(180 192.986 417.023)" rx="1" ry="1"/><ellipse cx="188.985" cy="417.023" fill="#666" fill-rule="nonzero" transform="rotate(180 188.985 417.023)" rx="1" ry="1"/><ellipse cx="184.984" cy="417.023" fill="#666" fill-rule="nonzero" transform="rotate(180 184.984 417.023)" rx="1" ry="1"/><ellipse cx="180.983" cy="417.023" fill="#666" fill-rule="nonzero" transform="rotate(180 180.983 417.023)" rx="1" ry="1"/><ellipse cx="176.982" cy="417.023" fill="#666" fill-rule="nonzero" transform="rotate(180 176.982 417.023)" rx="1" ry="1"/><ellipse cx="172.981" cy="417.023" fill="#666" fill-rule="nonzero" transform="rotate(180 172.98 417.023)" rx="1" ry="1"/><ellipse cx="168.98" cy="417.023" fill="#666" fill-rule="nonzero" transform="rotate(180 168.98 417.023)" rx="1" ry="1"/><ellipse cx="164.979" cy="417.023" fill="#666" fill-rule="nonzero" transform="rotate(180 164.98 417.023)" rx="1" ry="1"/><ellipse cx="160.978" cy="417.023" fill="#666" fill-rule="nonzero" transform="rotate(180 160.978 417.023)" rx="1" ry="1"/><ellipse cx="156.981" cy="417.023" fill="#666" fill-rule="nonzero" transform="rotate(180 156.98 417.023)" rx="1" ry="1"/><ellipse cx="152.98" cy="417.023" fill="#666" fill-rule="nonzero" transform="rotate(180 152.98 417.023)" rx="1" ry="1"/><ellipse cx="148.979" cy="417.023" fill="#666" fill-rule="nonzero" transform="rotate(180 148.98 417.023)" rx="1" ry="1"/><ellipse cx="144.978" cy="417.023" fill="#666" fill-rule="nonzero" transform="rotate(180 144.978 417.023)" rx="1" ry="1"/><ellipse cx="140.977" cy="417.023" fill="#666" fill-rule="nonzero" transform="rotate(180 140.977 417.023)" rx="1" ry="1"/><ellipse cx="136.978" cy="417.023" fill="#666" fill-rule="nonzero" transform="rotate(180 136.978 417.023)" rx="1" ry="1"/><ellipse cx="132.977" cy="417.023" fill="#666" fill-rule="nonzero" transform="rotate(180 132.977 417.023)" rx="1" ry="1"/><ellipse cx="128.976" cy="417.023" fill="#666" fill-rule="nonzero" transform="rotate(180 128.976 417.023)" rx="1" ry="1"/><ellipse cx="288.991" cy="417.023" fill="#666" fill-rule="nonzero" transform="rotate(180 288.99 417.023)" rx="1" ry="1"/><ellipse cx="284.99" cy="417.023" fill="#666" fill-rule="nonzero" transform="rotate(180 284.99 417.023)" rx="1" ry="1"/><ellipse cx="280.989" cy="417.023" fill="#666" fill-rule="nonzero" transform="rotate(180 280.99 417.023)" rx="1" ry="1"/><ellipse cx="276.988" cy="417.023" fill="#666" fill-rule="nonzero" transform="rotate(180 276.988 417.023)" rx="1" ry="1"/><ellipse cx="272.987" cy="417.023" fill="#666" fill-rule="nonzero" transform="rotate(180 272.987 417.023)" rx="1" ry="1"/><ellipse cx="268.986" cy="417.023" fill="#666" fill-rule="nonzero" transform="rotate(180 268.986 417.023)" rx="1" ry="1"/><ellipse cx="264.985" cy="417.023" fill="#666" fill-rule="nonzero" transform="rotate(180 264.985 417.023)" rx="1" ry="1"/><ellipse cx="260.984" cy="417.023" fill="#666" fill-rule="nonzero" transform="rotate(180 260.984 417.023)" rx="1" ry="1"/><ellipse cx="256.983" cy="417.023" fill="#666" fill-rule="nonzero" transform="rotate(180 256.983 417.023)" rx="1" ry="1"/><ellipse cx="252.982" cy="417.023" fill="#666" fill-rule="nonzero" transform="rotate(180 252.982 417.023)" rx="1" ry="1"/><ellipse cx="248.985" cy="417.023" fill="#666" fill-rule="nonzero" transform="rotate(180 248.985 417.023)" rx="1" ry="1"/><ellipse cx="244.984" cy="417.023" fill="#666" fill-rule="nonzero" transform="rotate(180 244.984 417.023)" rx="1" ry="1"/><ellipse cx="240.983" cy="417.023" fill="#666" fill-rule="nonzero" transform="rotate(180 240.983 417.023)" rx="1" ry="1"/><ellipse cx="236.982" cy="417.023" fill="#666" fill-rule="nonzero" transform="rotate(180 236.982 417.023)" rx="1" ry="1"/><ellipse cx="232.981" cy="417.023" fill="#666" fill-rule="nonzero" transform="rotate(180 232.98 417.023)" rx="1" ry="1"/><ellipse cx="228.982" cy="417.023" fill="#666" fill-rule="nonzero" transform="rotate(180 228.982 417.023)" rx="1" ry="1"/><ellipse cx="224.981" cy="417.023" fill="#666" fill-rule="nonzero" transform="rotate(180 224.98 417.023)" rx="1" ry="1"/><ellipse cx="220.98" cy="417.023" fill="#666" fill-rule="nonzero" transform="rotate(180 220.98 417.023)" rx="1" ry="1"/><ellipse cx="288.991" cy="417.023" fill="#666" fill-rule="nonzero" transform="rotate(180 288.99 417.023)" rx="1" ry="1"/><ellipse cx="284.99" cy="417.023" fill="#666" fill-rule="nonzero" transform="rotate(180 284.99 417.023)" rx="1" ry="1"/><ellipse cx="280.989" cy="417.023" fill="#666" fill-rule="nonzero" transform="rotate(180 280.99 417.023)" rx="1" ry="1"/><ellipse cx="276.988" cy="417.023" fill="#666" fill-rule="nonzero" transform="rotate(180 276.988 417.023)" rx="1" ry="1"/><ellipse cx="272.987" cy="417.023" fill="#666" fill-rule="nonzero" transform="rotate(180 272.987 417.023)" rx="1" ry="1"/><ellipse cx="268.986" cy="417.023" fill="#666" fill-rule="nonzero" transform="rotate(180 268.986 417.023)" rx="1" ry="1"/><ellipse cx="264.985" cy="417.023" fill="#666" fill-rule="nonzero" transform="rotate(180 264.985 417.023)" rx="1" ry="1"/><ellipse cx="260.984" cy="417.023" fill="#666" fill-rule="nonzero" transform="rotate(180 260.984 417.023)" rx="1" ry="1"/><ellipse cx="256.983" cy="417.023" fill="#666" fill-rule="nonzero" transform="rotate(180 256.983 417.023)" rx="1" ry="1"/><ellipse cx="252.982" cy="417.023" fill="#666" fill-rule="nonzero" transform="rotate(180 252.982 417.023)" rx="1" ry="1"/><ellipse cx="248.985" cy="417.023" fill="#666" fill-rule="nonzero" transform="rotate(180 248.985 417.023)" rx="1" ry="1"/><ellipse cx="244.984" cy="417.023" fill="#666" fill-rule="nonzero" transform="rotate(180 244.984 417.023)" rx="1" ry="1"/><ellipse cx="240.983" cy="417.023" fill="#666" fill-rule="nonzero" transform="rotate(180 240.983 417.023)" rx="1" ry="1"/><ellipse cx="236.982" cy="417.023" fill="#666" fill-rule="nonzero" transform="rotate(180 236.982 417.023)" rx="1" ry="1"/><ellipse cx="232.981" cy="417.023" fill="#666" fill-rule="nonzero" transform="rotate(180 232.98 417.023)" rx="1" ry="1"/><ellipse cx="228.982" cy="417.023" fill="#666" fill-rule="nonzero" transform="rotate(180 228.982 417.023)" rx="1" ry="1"/><ellipse cx="224.981" cy="417.023" fill="#666" fill-rule="nonzero" transform="rotate(180 224.98 417.023)" rx="1" ry="1"/><ellipse cx="220.98" cy="417.023" fill="#666" fill-rule="nonzero" transform="rotate(180 220.98 417.023)" rx="1" ry="1"/><path stroke="#666" stroke-width="2" d="M232.988 151.026v-50c0-4 1-6 4-6h40c-3 0-4 2-4 6v50h-40z"/><path stroke="#666" stroke-width="2" d="M276.988 95.027c3 0 4 2 4 6h-8"/><path stroke="#CDCDCD" stroke-width="2" d="M240.988 108.027h24m-24 6h24m-24 6h24"/><ellipse cx="192.98" cy="65.023" fill="#666" fill-rule="nonzero" transform="rotate(180 192.98 65.023)" rx="1" ry="1"/><ellipse cx="188.979" cy="65.023" fill="#666" fill-rule="nonzero" transform="rotate(180 188.98 65.023)" rx="1" ry="1"/><ellipse cx="184.98" cy="65.023" fill="#666" fill-rule="nonzero" transform="rotate(180 184.98 65.023)" rx="1" ry="1"/><ellipse cx="180.979" cy="65.023" fill="#666" fill-rule="nonzero" transform="rotate(180 180.98 65.023)" rx="1" ry="1"/><g transform="translate(89.5 454.8)"><path stroke="#3B3B3B" stroke-width="2" d="M8.477 60.228h38c4.01 0 5 1 5 5v6c0 4-.99 5-5 5h-38c-3.99 0-5-1-5-5v-6c0-4 1.01-5 5-5z"/><path fill="#3B3B3B" fill-rule="nonzero" d="M.488 63.228h1v10h-1zm53.002 0h1v10h-1z"/><ellipse cx="20.487" cy="68.228" fill="#FFB95A" fill-rule="nonzero" rx="4" ry="4"/><ellipse cx="10.486" cy="68.228" fill="#DC3023" fill-rule="nonzero" rx="4" ry="4"/><ellipse cx="30.488" cy="68.228" fill="#8DB255" fill-rule="nonzero" rx="4" ry="4"/><path stroke="#3B3B3B" stroke-width="2" d="M100.477 60.228h38c4.01 0 5 1 5 5v6c0 4-.99 5-5 5h-38c-3.99 0-5-1-5-5v-6c0-4 1.01-5 5-5z"/><path fill="#3B3B3B" fill-rule="nonzero" d="M92.488 63.228h1v10h-1zm53.002 0h1v10h-1z"/><ellipse cx="112.487" cy="68.228" fill="#DC3023" fill-rule="nonzero" rx="4" ry="4"/><ellipse cx="102.486" cy="68.228" fill="#DC3023" fill-rule="nonzero" rx="4" ry="4"/><ellipse cx="122.488" cy="68.228" fill="#DC3023" fill-rule="nonzero" rx="4" ry="4"/><path stroke="#5D5D5D" stroke-width="2" d="M100.477 40.228h38c4.01 0 5 1 5 5v6c0 4-.99 5-5 5h-38c-3.99 0-5-1-5-5v-6c0-4 1.01-5 5-5z"/><path fill="#3B3B3B" fill-rule="nonzero" d="M92.488 43.228h1v10h-1zm53.002 0h1v10h-1z"/><ellipse cx="112.487" cy="48.228" fill="#FFB95A" fill-rule="nonzero" rx="4" ry="4"/><ellipse cx="102.486" cy="48.228" fill="#FFB95A" fill-rule="nonzero" rx="4" ry="4"/><ellipse cx="122.488" cy="48.228" fill="#8DB255" fill-rule="nonzero" rx="4" ry="4"/><path stroke="#787878" stroke-width="2" d="M100.477 20.228h38c4.01 0 5 1 5 5v6c0 4-.99 5-5 5h-38c-3.99 0-5-1-5-5v-6c0-4 1.01-5 5-5z"/><path fill="#3B3B3B" fill-rule="nonzero" d="M92.488 23.228h1v10h-1zm53.002 0h1v10h-1z"/><ellipse cx="112.487" cy="28.228" fill="#48929B" fill-rule="nonzero" rx="4" ry="4"/><ellipse cx="102.486" cy="28.228" fill="#8DB255" fill-rule="nonzero" rx="4" ry="4"/><ellipse cx="122.488" cy="28.228" fill="#48929B" fill-rule="nonzero" rx="4" ry="4"/><path stroke="#A0A0A0" stroke-width="2" d="M100.477.228h38c4.01 0 5 1 5 5v6c0 4-.99 5-5 5h-38c-3.99 0-5-1-5-5v-6c0-4 1.01-5 5-5z"/><path fill="#3B3B3B" fill-rule="nonzero" d="M92.488 3.228h1v10h-1zm53.002 0h1v10h-1z"/><ellipse cx="112.487" cy="8.228" fill="#A87CA0" fill-rule="nonzero" rx="4" ry="4"/><ellipse cx="102.486" cy="8.228" fill="#A87CA0" fill-rule="nonzero" rx="4" ry="4"/><path stroke="#3B3B3B" stroke-width="2" d="M192.478 60.228h38c4.01 0 5 1 5 5v6c0 4-.99 5-5 5h-38c-3.99 0-5-1-5-5v-6c0-4 1.01-5 5-5z"/><path fill="#3B3B3B" fill-rule="nonzero" d="M184.49 63.228h1v10h-1zm53.002 0h1v10h-1z"/><ellipse cx="204.488" cy="68.228" fill="#DC3023" fill-rule="nonzero" rx="4" ry="4"/><ellipse cx="194.487" cy="68.228" fill="#DC3023" fill-rule="nonzero" rx="4" ry="4"/><ellipse cx="214.489" cy="68.228" fill="#DC3023" fill-rule="nonzero" rx="4" ry="4"/><path stroke="#5D5D5D" stroke-width="2" d="M192.478 40.228h38c4.01 0 5 1 5 5v6c0 4-.99 5-5 5h-38c-3.99 0-5-1-5-5v-6c0-4 1.01-5 5-5z"/><path fill="#3B3B3B" fill-rule="nonzero" d="M184.49 43.228h1v10h-1zm53.002 0h1v10h-1z"/><ellipse cx="204.488" cy="48.228" fill="#FFB95A" fill-rule="nonzero" rx="4" ry="4"/><ellipse cx="194.487" cy="48.228" fill="#DC3023" fill-rule="nonzero" rx="4" ry="4"/><ellipse cx="214.489" cy="48.228" fill="#FFB95A" fill-rule="nonzero" rx="4" ry="4"/><path stroke="#787878" stroke-width="2" d="M192.478 20.228h38c4.01 0 5 1 5 5v6c0 4-.99 5-5 5h-38c-3.99 0-5-1-5-5v-6c0-4 1.01-5 5-5z"/><path fill="#3B3B3B" fill-rule="nonzero" d="M184.49 23.228h1v10h-1zm53.002 0h1v10h-1z"/><ellipse cx="204.488" cy="28.228" fill="#FFB95A" fill-rule="nonzero" rx="4" ry="4"/><ellipse cx="194.487" cy="28.228" fill="#FFB95A" fill-rule="nonzero" rx="4" ry="4"/><ellipse cx="214.489" cy="28.228" fill="#FFB95A" fill-rule="nonzero" rx="4" ry="4"/><path stroke="#A0A0A0" stroke-width="2" d="M192.478.228h38c4.01 0 5 1 5 5v6c0 4-.99 5-5 5h-38c-3.99 0-5-1-5-5v-6c0-4 1.01-5 5-5z"/><path fill="#3B3B3B" fill-rule="nonzero" d="M184.49 3.228h1v10h-1zm53.002 0h1v10h-1z"/><ellipse cx="204.488" cy="8.228" fill="#8DB255" fill-rule="nonzero" rx="4" ry="4"/><ellipse cx="194.487" cy="8.228" fill="#8DB255" fill-rule="nonzero" rx="4" ry="4"/><ellipse cx="214.489" cy="8.228" fill="#8DB255" fill-rule="nonzero" rx="4" ry="4"/><path stroke="#5D5D5D" stroke-width="2" d="M8.477 40.228h38c4.01 0 5 1 5 5v6c0 4-.99 5-5 5h-38c-3.99 0-5-1-5-5v-6c0-4 1.01-5 5-5z"/><path fill="#3B3B3B" fill-rule="nonzero" d="M.488 43.228h1v10h-1zm53.002 0h1v10h-1z"/><ellipse cx="20.487" cy="48.228" fill="#A87CA0" fill-rule="nonzero" rx="4" ry="4"/><ellipse cx="10.486" cy="48.228" fill="#48929B" fill-rule="nonzero" rx="4" ry="4"/><path stroke="#3B3B3B" stroke-width="2" d="M246.477 60.228h38c4.01 0 5 1 5 5v6c0 4-.99 5-5 5h-38c-3.99 0-5-1-5-5v-6c0-4 1.01-5 5-5z"/><path fill="#3B3B3B" fill-rule="nonzero" d="M238.488 63.228h1v10h-1zm53.002 0h1v10h-1z"/><ellipse cx="258.487" cy="68.228" fill="#8DB255" fill-rule="nonzero" rx="4" ry="4"/><ellipse cx="248.486" cy="68.228" fill="#8DB255" fill-rule="nonzero" rx="4" ry="4"/><ellipse cx="268.488" cy="68.228" fill="#48929B" fill-rule="nonzero" rx="4" ry="4"/><path stroke="#5D5D5D" stroke-width="2" d="M246.477 40.228h38c4.01 0 5 1 5 5v6c0 4-.99 5-5 5h-38c-3.99 0-5-1-5-5v-6c0-4 1.01-5 5-5z"/><path fill="#3B3B3B" fill-rule="nonzero" d="M238.488 43.228h1v10h-1zm53.002 0h1v10h-1z"/><ellipse cx="258.487" cy="48.228" fill="#48929B" fill-rule="nonzero" rx="4" ry="4"/><ellipse cx="248.486" cy="48.228" fill="#48929B" fill-rule="nonzero" rx="4" ry="4"/><ellipse cx="268.488" cy="48.228" fill="#A87CA0" fill-rule="nonzero" rx="4" ry="4"/><path stroke="#787878" stroke-width="2" d="M246.477 20.228h38c4.01 0 5 1 5 5v6c0 4-.99 5-5 5h-38c-3.99 0-5-1-5-5v-6c0-4 1.01-5 5-5z"/><path fill="#3B3B3B" fill-rule="nonzero" d="M238.488 23.228h1v10h-1zm53.002 0h1v10h-1z"/><ellipse cx="258.487" cy="28.228" fill="#A87CA0" fill-rule="nonzero" rx="4" ry="4"/><ellipse cx="248.486" cy="28.228" fill="#A87CA0" fill-rule="nonzero" rx="4" ry="4"/></g><g stroke-width="2"><path stroke="#5D5D5D" d="M146.987 112.836c0 1.816-.272 3.457-.813 4.922-.54 1.465-1.307 2.725-2.298 3.78a10.071 10.071 0 0 1-3.47 2.46c-1.354.556-2.827.835-4.42.835-1.594 0-3.067-.272-4.42-.835a10.512 10.512 0 0 1-3.515-2.46c-.96-1.055-1.71-2.315-2.25-3.78-.54-1.465-.81-3.106-.81-4.922 0-1.787.27-3.412.81-4.878.54-1.494 1.29-2.77 2.26-3.823a10.1 10.1 0 0 1 3.52-2.417c1.35-.587 2.83-.88 4.42-.88 1.6 0 3.07.292 4.42.88a9.461 9.461 0 0 1 3.47 2.417c1 1.054 1.76 2.33 2.3 3.823.54 1.466.82 3.09.82 4.878z"/><path stroke="#3B3B3B" d="M156.985 146.834c0-12.183-3.32-15.997-20.99-15.997-17.668 0-20.983 3.814-21.008 15.997"/></g><path stroke="#CDCDCD" stroke-width="2" d="M144 272.028h127c14.5 0 16 2 16 16v48c0 14-1.5 16-16 16H144c-14.5 0-16-2-16-16v-48c0-14 1.5-16 16-16z"/><ellipse cx="166.988" cy="312.026" fill="#FFB95A" fill-rule="nonzero" stroke="#FFF" stroke-width="2" rx="8" ry="8"/><ellipse cx="214.989" cy="312.026" fill="#48929B" fill-rule="nonzero" stroke="#FFF" stroke-width="2" rx="8" ry="8"/><ellipse cx="246.989" cy="312.026" fill="#A87CA0" fill-rule="nonzero" stroke="#FFF" stroke-width="2" rx="8" ry="8"/><ellipse cx="190.988" cy="288.026" fill="#8DB255" fill-rule="nonzero" stroke="#FFF" stroke-width="2" rx="8" ry="8"/><ellipse cx="190.988" cy="336.026" fill="#DC3023" fill-rule="nonzero" stroke="#FFF" stroke-width="2" rx="8" ry="8"/><g stroke-width="2"><path stroke="#5D5D5D" d="M196.987 112.836c0 1.816-.272 3.457-.813 4.922-.54 1.465-1.307 2.725-2.298 3.78a10.071 10.071 0 0 1-3.47 2.46c-1.354.556-2.827.835-4.42.835-1.594 0-3.067-.272-4.42-.835a10.512 10.512 0 0 1-3.515-2.46c-.96-1.055-1.71-2.315-2.25-3.78-.54-1.465-.81-3.106-.81-4.922 0-1.787.27-3.412.81-4.878.54-1.494 1.29-2.77 2.26-3.823a10.1 10.1 0 0 1 3.52-2.417c1.35-.587 2.83-.88 4.42-.88 1.6 0 3.07.292 4.42.88a9.461 9.461 0 0 1 3.47 2.417c1 1.054 1.76 2.33 2.3 3.823.54 1.466.82 3.09.82 4.878z"/><path stroke="#3B3B3B" d="M206.985 146.834c0-12.183-3.32-15.997-20.99-15.997-17.668 0-20.983 3.814-21.008 15.997"/></g><ellipse cx="244.989" cy="65.023" fill="#666" fill-rule="nonzero" transform="rotate(180 244.99 65.023)" rx="1" ry="1"/><ellipse cx="240.988" cy="65.023" fill="#666" fill-rule="nonzero" transform="rotate(180 240.988 65.023)" rx="1" ry="1"/><ellipse cx="236.987" cy="65.023" fill="#666" fill-rule="nonzero" transform="rotate(180 236.987 65.023)" rx="1" ry="1"/><ellipse cx="176.98" cy="65.023" fill="#666" fill-rule="nonzero" transform="rotate(180 176.98 65.023)" rx="1" ry="1"/><ellipse cx="172.979" cy="65.023" fill="#666" fill-rule="nonzero" transform="rotate(180 172.98 65.023)" rx="1" ry="1"/><path fill="#DC3023" fill-rule="nonzero" stroke="#DC3023" stroke-width="2" d="M252.99 145.323v18l5-4 5 4v-18"/><path fill="#FF8936" fill-rule="nonzero" stroke="#FF8936" stroke-width="2" d="M261.307 148.116l-3.315-1.182-3.31 1.197-1.986-2.9-3.38-.97.1-3.52-2.16-2.77 2.148-2.78-.116-3.51 3.377-.99 1.973-2.91 3.314 1.18 3.31-1.2 1.987 2.91 3.38.98-.11 3.52 2.16 2.78-2.15 2.79.11 3.52-3.38 1z"/><ellipse cx="257.969" cy="137.929" fill="#FFB95A" fill-rule="nonzero" rx="7.674" ry="7.674"/><path stroke="#FFF" stroke-width="2" d="M252.99 137.324l4 4 6-6"/><g transform="translate(94.5 622.8)"><path stroke="#48929B" stroke-width="2" d="M153.19.593c6.748 0 12.48 4.16 15.217 10.1l.182.397.43.038c6.23.454 11.15 5.837 11.15 12.39 0 6.848-5.36 12.47-11.99 12.47H139.2c-4.967 0-8.983-4.22-8.983-9.334a9.228 9.228 0 0 1 5.63-8.535l.43-.19.04-.47C136.74 8.12 144.087.6 153.204.6l-.015-.007z" opacity=".3"/><path stroke="#48929B" stroke-width="2" d="M51.352 6.64c-7.132 0-13.672 4-16.983 10.372a11.87 11.87 0 0 0-7.92-3.047c-6.59 0-11.93 5.388-11.93 12.033 0 1.055.13 2.105.41 3.123C6.21 31.13.01 38.95 0 47.97c0 10.69 8.594 19.36 19.193 19.36h5.168c.41-6.473 5.77-11.6 12.35-11.6 1.07 0 2.13.14 3.16.417A19.725 19.725 0 0 1 59.03 41.035c10.89 0 19.722 8.832 19.723 19.727 0 1.633-.22 3.21-.59 4.728a19.35 19.35 0 0 0 11.068-17.517c0-10.56-8.4-19.164-18.87-19.34.13-.87.2-1.75.2-2.632 0-10.69-8.59-19.35-19.19-19.35z" opacity=".5"/><path fill="#DC3023" fill-rule="nonzero" d="M115.454 35.984a14.763 14.763 0 0 0-14.762 14.762c.004 1.758.32 3.5.937 5.148-.09-.234-.18-.47-.25-.71 2.7 8.11 8.13 23.552 14.07 35.306v-.002.002c5.93-11.754 11.37-27.195 14.07-35.305a14.758 14.758 0 0 0-3.65-14.877 14.771 14.771 0 0 0-10.44-4.324z"/><ellipse cx="115.454" cy="50.427" fill="#FFF" fill-rule="nonzero" rx="8" ry="8"/><path stroke="#6DA8AF" stroke-width="2" d="M59.017 41.032c10.895 0 19.727 8.833 19.728 19.728 0 10.896-8.832 19.73-19.728 19.73H36.704c-6.838 0-12.38-5.544-12.382-12.382 0-6.838 5.544-12.38 12.382-12.38 1.065 0 2.125.14 3.155.416a19.725 19.725 0 0 1 19.15-15.11v-.002z"/></g><path fill="#3B3B3B" fill-rule="nonzero" d="M99.125 375.97c-.42 1.34-.845 2.58-1.275 3.72-.43 1.14-.86 2.25-1.29 3.33h-1.455c-.53-1.53-1-3.144-1.41-4.844-.4-1.7-.775-3.55-1.125-5.55h1.53c.14.78.285 1.56.435 2.34.15.78.305 1.54.465 2.28.16.73.32 1.43.48 2.1.16.67.325 1.29.495 1.86.4-1.05.825-2.2 1.275-3.45.45-1.26.87-2.56 1.26-3.9h1.26c.39 1.34.815 2.64 1.275 3.9.46 1.25.89 2.4 1.29 3.45.16-.56.32-1.175.48-1.845.16-.67.315-1.37.465-2.1.16-.74.315-1.5.465-2.28.15-.79.295-1.57.435-2.35h1.485c-.36 2-.745 3.85-1.155 5.55-.4 1.7-.86 3.32-1.38 4.85h-1.455c-.44-1.08-.87-2.19-1.29-3.33-.42-1.14-.84-2.38-1.26-3.72zm9.565 7.05h-1.394v-7.8h1.395v7.8zm-.704-9.21a.938.938 0 0 1-.645-.24c-.17-.17-.25-.394-.25-.674s.09-.5.26-.66c.18-.17.4-.255.65-.255s.46.09.63.26c.18.16.27.38.27.66s-.09.51-.27.68c-.17.16-.38.24-.63.24zm4.424 1.41h2.954v1.17h-2.955v3.6c0 .39.03.716.09.976.06.25.15.45.27.6.12.14.27.24.45.3s.39.09.63.09c.42 0 .75-.045 1-.135.26-.1.44-.17.54-.21l.27 1.16c-.14.07-.39.16-.74.26-.35.11-.75.17-1.2.17-.53 0-.97-.06-1.32-.19a1.98 1.98 0 0 1-.83-.61c-.21-.27-.36-.6-.45-.99-.08-.4-.12-.86-.12-1.38v-6.96l1.39-.24v2.42zm4.73 7.8v-11.4l1.394-.24v3.99c.26-.1.535-.174.825-.224.3-.06.59-.09.88-.09.62 0 1.13.09 1.54.27.41.17.73.415.97.735.25.31.42.69.52 1.13.1.44.15.93.15 1.46v4.38h-1.4v-4.08c0-.48-.04-.89-.11-1.23-.06-.34-.17-.61-.32-.82-.15-.21-.35-.36-.6-.45-.25-.1-.56-.15-.93-.15-.15 0-.31.01-.47.03-.16.02-.32.05-.47.08-.14.02-.27.05-.39.08-.11.03-.19.06-.24.08v6.48h-1.39zm18.896-3.9c0 .62-.09 1.18-.27 1.68-.18.5-.435.93-.765 1.29-.32.36-.7.64-1.15.84-.45.19-.94.286-1.47.286s-1.02-.095-1.47-.285c-.45-.2-.84-.48-1.17-.84-.32-.36-.57-.79-.75-1.29-.18-.5-.27-1.06-.27-1.68 0-.61.09-1.16.27-1.66.18-.51.43-.94.75-1.3.33-.36.72-.63 1.17-.82.45-.2.94-.3 1.47-.3s1.02.1 1.47.3c.45.19.84.47 1.16.83.33.36.59.8.77 1.31.18.5.27 1.06.27 1.67zm-1.455 0c0-.88-.2-1.574-.6-2.084-.39-.52-.92-.78-1.6-.78s-1.22.26-1.62.78c-.39.51-.58 1.205-.58 2.085 0 .88.2 1.58.59 2.1.4.51.94.77 1.62.77.68 0 1.22-.25 1.61-.76.4-.52.6-1.22.6-2.1zm8.84.016c0-.91-.22-1.61-.67-2.1-.45-.49-1.05-.735-1.8-.735-.42 0-.75.02-.99.05-.23.03-.41.07-.55.11v4.92c.17.14.42.28.74.41s.67.2 1.05.2c.4 0 .74-.07 1.02-.21.29-.15.53-.35.71-.6.18-.26.31-.56.39-.9.08-.35.12-.72.12-1.12zm1.46 0c0 .59-.08 1.135-.24 1.635-.15.5-.37.93-.67 1.29-.3.36-.67.64-1.11.84-.43.2-.92.3-1.48.3-.45 0-.85-.06-1.2-.18-.34-.12-.59-.23-.76-.34v3.12H138v-10.34c.33-.08.74-.16 1.23-.25.5-.1 1.074-.15 1.724-.15.6 0 1.14.1 1.62.29.48.19.89.46 1.23.81.34.35.6.78.78 1.29.19.5.285 1.07.285 1.7zm1.54 0c0-.69.1-1.29.3-1.8.2-.52.47-.95.8-1.29.33-.34.71-.595 1.14-.765.43-.17.87-.25 1.32-.25 1.05 0 1.86.33 2.42.99.56.65.84 1.65.84 2.99v.24c0 .09 0 .18-.01.26h-5.34c.06.81.3 1.43.71 1.85.41.42 1.05.63 1.92.63.49 0 .9-.04 1.23-.12.34-.09.6-.17.77-.25l.2 1.17c-.17.09-.47.19-.9.29-.42.1-.9.15-1.44.15-.68 0-1.27-.1-1.77-.3-.49-.21-.89-.49-1.21-.85-.32-.36-.56-.78-.72-1.27-.15-.5-.22-1.04-.22-1.63zm5.36-.765c.01-.63-.15-1.14-.48-1.54-.32-.41-.76-.61-1.33-.61-.32 0-.6.07-.85.2-.24.12-.44.28-.61.48-.17.2-.3.43-.4.69-.09.26-.15.53-.18.8h3.87zm3.46-2.92c.32-.08.75-.16 1.28-.25s1.14-.13 1.83-.13c.62 0 1.14.09 1.55.27.41.17.74.42.98.74.25.31.43.69.53 1.13.1.44.15.93.15 1.46v4.38h-1.39v-4.08c0-.48-.03-.89-.1-1.23-.06-.34-.16-.61-.31-.82-.15-.21-.35-.36-.6-.45-.25-.1-.56-.15-.93-.15-.15 0-.3.01-.46.02-.16.01-.31.03-.46.05-.14.01-.27.03-.39.05-.11.02-.19.04-.24.05v6.59h-1.39v-7.58zm13.89 6.57c.57 0 .99-.07 1.26-.22.28-.15.42-.39.42-.72 0-.34-.13-.61-.4-.81-.27-.2-.71-.42-1.33-.67-.3-.12-.59-.24-.87-.36-.27-.13-.5-.28-.7-.45-.2-.17-.36-.37-.48-.61s-.18-.53-.18-.88c0-.69.26-1.23.77-1.63.51-.41 1.21-.61 2.09-.61.22 0 .44.02.66.05.22.02.43.05.62.09.19.03.36.07.5.11.15.04.27.08.35.11l-.25 1.2c-.15-.08-.38-.16-.7-.24-.32-.09-.7-.13-1.15-.13-.39 0-.73.08-1.02.24-.29.15-.43.39-.43.72 0 .17.03.32.09.45.07.13.17.25.3.36.14.1.31.2.51.29.2.09.44.19.72.29.37.14.7.28.99.42.29.13.54.29.74.47.21.18.37.4.48.66.11.25.16.56.16.93 0 .72-.27 1.27-.81 1.64-.53.37-1.29.56-2.28.56-.69 0-1.23-.06-1.62-.18-.39-.11-.65-.19-.79-.25l.26-1.2c.16.06.42.15.77.27.35.12.82.18 1.4.18zm11.75-2.89c0 .62-.09 1.18-.27 1.68-.18.5-.43.93-.76 1.29-.32.36-.7.64-1.15.84-.45.19-.94.29-1.47.29s-1.02-.09-1.47-.28c-.45-.2-.84-.48-1.17-.84-.32-.36-.57-.79-.75-1.29-.18-.5-.27-1.06-.27-1.68 0-.61.09-1.16.27-1.66.18-.51.43-.94.75-1.3.33-.36.72-.63 1.17-.82.45-.2.94-.3 1.47-.3s1.02.1 1.47.3c.45.19.84.47 1.16.83.33.36.59.8.77 1.31.18.5.27 1.06.27 1.67zm-1.45 0c0-.88-.2-1.57-.6-2.08-.39-.52-.92-.78-1.6-.78s-1.22.26-1.62.78c-.39.51-.58 1.21-.58 2.09 0 .88.2 1.58.59 2.1.4.51.94.77 1.62.77.68 0 1.22-.25 1.61-.76.4-.52.6-1.22.6-2.1zm9.63 3.68c-.32.08-.74.17-1.27.26-.52.09-1.12.14-1.81.14-.6 0-1.1-.08-1.51-.25-.41-.18-.74-.43-.99-.75s-.43-.69-.54-1.12c-.11-.44-.16-.92-.16-1.45v-4.38h1.4v4.08c0 .95.15 1.63.45 2.04.3.41.81.62 1.52.62.15 0 .31 0 .47-.01l.45-.03c.14-.02.27-.03.38-.04.12-.02.2-.04.25-.06v-6.58h1.4v7.58zm5.29-7.74c.12 0 .25.01.4.03.16.01.32.03.47.06.15.02.29.05.41.08.13.02.23.04.29.06l-.24 1.22c-.11-.04-.29-.08-.55-.13a4.26 4.26 0 0 0-.97-.09c-.26 0-.52.03-.78.09-.25.05-.41.09-.49.11v6.56h-1.39v-7.47c.33-.12.74-.23 1.23-.33a7.57 7.57 0 0 1 1.65-.16zm6.31 8.15c-.63 0-1.18-.1-1.66-.3-.47-.2-.87-.48-1.2-.84-.32-.36-.56-.78-.72-1.27-.16-.5-.24-1.05-.24-1.65 0-.6.09-1.15.26-1.65.18-.5.43-.93.75-1.29.32-.37.71-.65 1.17-.85.47-.21.99-.31 1.56-.31.35 0 .7.03 1.05.09.35.06.69.15 1.01.28l-.31 1.19c-.21-.1-.45-.18-.73-.24-.27-.06-.56-.09-.87-.09-.78 0-1.38.25-1.8.74-.41.49-.61 1.21-.61 2.15 0 .42.05.81.14 1.16.1.35.25.65.45.9.21.25.48.45.8.59.32.13.71.2 1.17.2.37 0 .71-.03 1.01-.1.3-.07.53-.14.7-.22l.2 1.17c-.08.05-.19.1-.34.15-.15.04-.32.08-.51.11-.19.04-.4.07-.62.09-.21.03-.41.05-.61.05zm3.15-4.06c0-.69.1-1.29.3-1.8.2-.52.46-.95.79-1.29.33-.34.71-.59 1.14-.76.43-.17.87-.25 1.32-.25 1.05 0 1.86.33 2.42.99.56.65.84 1.64.84 2.98v.24c0 .09 0 .18-.01.26h-5.34c.06.81.3 1.43.71 1.85.41.42 1.05.63 1.92.63.49 0 .9-.04 1.23-.12.34-.09.6-.17.77-.25l.2 1.17c-.17.09-.47.19-.9.29-.42.1-.9.15-1.44.15-.68 0-1.27-.1-1.77-.3-.49-.21-.89-.49-1.21-.85-.32-.36-.56-.78-.72-1.27-.15-.5-.22-1.04-.22-1.63zm5.35-.76c.01-.63-.15-1.14-.48-1.54-.32-.41-.76-.62-1.33-.62-.32 0-.6.07-.85.2-.24.12-.44.28-.61.48-.17.2-.3.43-.4.69-.09.26-.15.53-.18.8h3.87zm13.8.75c0 .62-.09 1.18-.27 1.68-.18.5-.43.93-.76 1.29-.32.36-.7.64-1.15.84-.45.19-.94.29-1.47.29s-1.02-.09-1.47-.28c-.45-.2-.84-.48-1.17-.84-.32-.36-.57-.79-.75-1.29-.18-.5-.27-1.06-.27-1.68 0-.61.09-1.16.27-1.66.18-.51.43-.94.75-1.3.33-.36.72-.63 1.17-.82.45-.2.94-.3 1.47-.3s1.02.1 1.47.3c.45.19.84.46 1.16.82.33.36.59.8.77 1.31.18.5.27 1.06.27 1.67zm-1.45 0c0-.88-.2-1.57-.6-2.08-.39-.52-.92-.78-1.6-.78s-1.22.26-1.62.78c-.39.51-.58 1.21-.58 2.09 0 .88.2 1.58.59 2.1.4.51.94.77 1.62.77.68 0 1.22-.25 1.61-.76.4-.52.6-1.22.6-2.1zm8.83.02c0-.91-.22-1.61-.67-2.1-.45-.49-1.05-.73-1.8-.73-.42 0-.75.02-.99.05-.23.03-.41.07-.55.11v4.92c.17.14.42.28.74.41s.67.19 1.05.19c.4 0 .74-.07 1.02-.21.29-.15.52-.35.7-.6.18-.26.31-.56.39-.9.08-.35.12-.72.12-1.12zm1.46 0c0 .59-.08 1.14-.24 1.64-.15.5-.37.93-.67 1.29-.3.36-.67.64-1.11.84-.43.2-.92.3-1.48.3-.45 0-.85-.06-1.2-.18-.34-.12-.6-.23-.77-.34v3.12h-1.4V375.5c.33-.08.74-.166 1.23-.256.5-.1 1.08-.15 1.73-.15.6 0 1.14.094 1.62.284.48.19.89.46 1.23.81.34.35.6.78.78 1.29.19.5.29 1.066.29 1.696zm1.55 0c0-.69.1-1.29.3-1.8.2-.52.47-.95.8-1.29.33-.34.71-.59 1.14-.76.43-.17.87-.25 1.32-.25 1.05 0 1.86.33 2.42.99.56.65.84 1.65.84 2.99v.24c0 .09 0 .18-.01.26h-5.34c.06.81.3 1.42.71 1.84.41.42 1.05.63 1.92.63.49 0 .9-.04 1.23-.12.34-.09.6-.17.77-.25l.2 1.17c-.17.09-.47.19-.9.29-.42.1-.9.15-1.44.15-.68 0-1.27-.1-1.77-.3-.49-.21-.89-.49-1.21-.85-.32-.36-.56-.78-.72-1.27-.15-.5-.23-1.04-.23-1.63zm5.36-.76c.01-.63-.15-1.14-.48-1.54-.32-.41-.76-.61-1.33-.61-.32 0-.6.07-.85.2-.24.12-.44.28-.61.48-.17.2-.3.43-.4.69-.09.26-.15.52-.18.79h3.87zm6.34-3.31c.12 0 .26.01.41.03.16.01.32.03.47.06.15.02.29.05.41.08.13.02.22.04.28.06l-.24 1.22c-.11-.04-.29-.08-.55-.13-.25-.06-.58-.09-.98-.09-.26 0-.52.03-.78.09-.25.05-.41.09-.49.11v6.56h-1.39v-7.47c.33-.12.74-.23 1.23-.33a7.57 7.57 0 0 1 1.65-.16zm5.56 6.96c.33 0 .62 0 .87-.01.26-.02.48-.05.65-.09v-2.33c-.1-.05-.26-.09-.49-.12-.22-.04-.49-.06-.81-.06-.21 0-.43.02-.67.05-.23.03-.45.1-.65.2-.19.09-.35.22-.48.39-.13.16-.19.38-.19.65 0 .5.16.85.48 1.05.32.19.76.29 1.31.29zm-.12-6.99c.56 0 1.03.08 1.41.23.39.14.7.35.93.62.24.26.41.58.51.95.1.36.15.76.15 1.2v4.88c-.12.02-.29.05-.51.09a23.494 23.494 0 0 1-1.6.17c-.31.03-.62.05-.93.05-.44 0-.84-.05-1.21-.14a2.8 2.8 0 0 1-.96-.42c-.27-.2-.48-.46-.63-.78-.15-.32-.22-.7-.22-1.15 0-.43.08-.8.25-1.11.18-.31.42-.56.72-.75.3-.19.65-.33 1.05-.42.4-.09.82-.13 1.26-.13.14 0 .29.01.44.03.15.01.29.03.42.06.14.02.26.04.36.06.1.02.17.04.21.05v-.39c0-.23-.02-.45-.07-.67-.05-.23-.14-.43-.27-.6-.13-.18-.31-.32-.54-.42-.22-.11-.51-.16-.87-.16-.46 0-.87.03-1.22.1-.34.06-.59.13-.76.2l-.16-1.15c.18-.08.48-.15.9-.22.42-.08.88-.12 1.37-.12zm6.61.2h2.96v1.17h-2.96v3.6c0 .39.03.72.09.98.06.25.15.45.27.6.12.14.27.24.45.3s.39.09.63.09c.42 0 .75-.04 1-.13.26-.1.44-.17.54-.21l.27 1.16c-.14.07-.38.16-.73.26-.35.11-.75.17-1.2.17-.53 0-.97-.06-1.32-.19a1.98 1.98 0 0 1-.83-.61c-.21-.27-.36-.6-.45-.99-.08-.4-.12-.86-.12-1.38v-6.96l1.4-.24v2.42zm6.13 7.8h-1.4v-7.8h1.4v7.8zm-.7-9.21a.95.95 0 0 1-.65-.24c-.17-.17-.25-.39-.25-.67s.08-.5.25-.66c.18-.17.4-.25.65-.25s.46.09.63.26c.18.16.27.38.27.66s-.09.51-.27.68c-.17.16-.38.24-.63.24zm10 5.31c0 .62-.09 1.18-.27 1.68-.18.5-.44.93-.77 1.29-.32.36-.7.64-1.15.84-.45.19-.94.29-1.47.29s-1.02-.09-1.47-.28c-.45-.2-.84-.48-1.17-.84-.32-.36-.57-.79-.75-1.29-.18-.5-.27-1.06-.27-1.68 0-.61.09-1.16.27-1.66.18-.51.43-.94.75-1.3.33-.36.72-.63 1.17-.82.45-.2.94-.3 1.47-.3s1.02.1 1.47.3c.45.19.84.47 1.16.83.33.36.59.8.77 1.31.18.5.27 1.06.27 1.67zm-1.46 0c0-.88-.2-1.57-.6-2.08-.39-.52-.92-.78-1.6-.78s-1.22.26-1.62.78c-.39.51-.58 1.21-.58 2.09 0 .88.2 1.58.59 2.1.4.51.94.77 1.62.77.68 0 1.21-.25 1.6-.76.4-.52.6-1.22.6-2.1zm3.42-3.67c.32-.08.75-.16 1.28-.25s1.14-.13 1.83-.13c.62 0 1.14.09 1.55.27.41.17.74.42.98.74.25.31.43.69.53 1.13.1.44.15.93.15 1.46v4.38h-1.39V379c0-.48-.03-.89-.1-1.23-.06-.34-.16-.613-.31-.823-.15-.21-.35-.36-.6-.45-.25-.1-.56-.15-.93-.15-.15 0-.3.007-.46.017-.16.01-.31.02-.46.04-.14.01-.27.03-.39.05-.11.02-.19.04-.24.05v6.587h-1.4v-7.58zm10.43 6.57c.57 0 .99-.07 1.26-.22.28-.15.42-.39.42-.72a.96.96 0 0 0-.41-.81c-.27-.2-.72-.42-1.34-.67-.3-.12-.59-.24-.87-.36-.27-.13-.5-.28-.7-.45-.2-.17-.36-.37-.48-.61s-.18-.53-.18-.88c0-.69.26-1.23.77-1.63.51-.41 1.2-.61 2.08-.61.22 0 .44.02.66.05.22.02.43.05.62.09.19.03.35.06.49.1.15.04.26.08.34.11l-.25 1.2c-.15-.08-.38-.16-.7-.24-.32-.09-.71-.13-1.16-.13-.39 0-.73.08-1.02.24a.76.76 0 0 0-.44.72c0 .17.03.32.09.45.07.13.17.25.3.36.14.1.31.2.51.29.2.09.44.19.72.29.37.14.7.28.99.42.29.13.54.29.74.47.21.18.37.4.48.66.11.25.17.56.17.93 0 .72-.27 1.27-.81 1.64-.53.37-1.29.56-2.28.56-.69 0-1.23-.06-1.62-.18-.39-.11-.65-.19-.79-.25l.258-1.2c.16.06.42.15.77.27.35.12.814.18 1.394.18zm11.71 1.18c-.63 0-1.18-.1-1.66-.3-.47-.2-.87-.48-1.2-.84-.32-.36-.56-.78-.72-1.27-.16-.5-.24-1.05-.24-1.65 0-.6.09-1.15.26-1.65.18-.5.43-.93.75-1.29.32-.37.71-.65 1.17-.85.47-.21.99-.31 1.56-.31.35 0 .7.03 1.05.09.35.06.69.16 1.01.29l-.31 1.19c-.21-.1-.45-.18-.73-.24-.27-.06-.56-.09-.87-.09-.78 0-1.38.24-1.8.73-.41.49-.61 1.21-.61 2.15 0 .42.05.8.14 1.15.1.35.25.65.45.9.21.25.48.45.8.59.32.13.71.2 1.17.2.37 0 .71-.04 1.01-.11.3-.07.53-.14.7-.22l.19 1.17c-.08.05-.194.1-.344.15-.15.04-.32.08-.51.11-.19.04-.4.07-.62.09-.21.03-.42.04-.62.04zm10.26-4.08c0 .62-.09 1.18-.27 1.68-.18.5-.44.93-.77 1.29-.32.36-.7.64-1.15.84-.45.19-.94.29-1.47.29s-1.02-.09-1.47-.28c-.45-.2-.84-.48-1.17-.84-.32-.36-.57-.79-.75-1.29-.18-.5-.27-1.06-.27-1.68 0-.61.09-1.16.27-1.66.18-.51.43-.94.75-1.3.33-.36.72-.63 1.17-.82.45-.2.94-.3 1.47-.3s1.02.1 1.47.3c.45.19.83.46 1.15.82.33.36.59.8.77 1.31.18.5.27 1.05.27 1.66zm-1.46 0c0-.88-.2-1.57-.6-2.08-.39-.52-.92-.78-1.6-.78s-1.22.26-1.62.78c-.39.51-.59 1.21-.59 2.09 0 .88.2 1.58.59 2.1.4.51.94.77 1.62.77.68 0 1.22-.25 1.61-.76.4-.52.6-1.22.6-2.1zm8.46-2.25c-.17-.14-.41-.27-.73-.4s-.67-.19-1.05-.19c-.4 0-.75.08-1.04.23-.28.14-.51.34-.69.6-.18.25-.31.55-.39.9-.08.35-.12.73-.12 1.13 0 .91.23 1.62.68 2.12.45.49 1.05.73 1.8.73.38 0 .7-.01.95-.04.26-.04.46-.08.6-.12v-4.94zm0-5.25l1.4-.24v11.41c-.32.09-.73.18-1.23.27-.5.09-1.08.14-1.73.14-.6 0-1.14-.09-1.62-.28-.48-.19-.89-.46-1.23-.81-.34-.35-.6-.77-.79-1.27-.18-.51-.27-1.08-.27-1.71 0-.6.08-1.15.23-1.65.16-.5.39-.93.69-1.29.3-.36.67-.64 1.1-.84.44-.2.94-.3 1.5-.3.45 0 .85.06 1.19.18.35.12.61.24.78.35v-3.94zm3.38 7.52c0-.69.1-1.29.3-1.8.2-.52.46-.95.79-1.29.33-.34.71-.59 1.14-.76.43-.17.87-.25 1.32-.25 1.05 0 1.86.33 2.42.99.56.65.84 1.65.84 2.99v.24c0 .09 0 .18-.01.26h-5.34c.06.81.3 1.42.71 1.84.41.42 1.05.63 1.92.63.49 0 .9-.04 1.23-.12.34-.09.59-.17.76-.25l.19 1.17c-.17.09-.47.18-.9.28-.42.1-.9.15-1.44.15-.68 0-1.27-.1-1.77-.3-.49-.21-.89-.49-1.21-.85-.32-.36-.56-.78-.72-1.27-.15-.5-.22-1.05-.22-1.64zm5.35-.76c.01-.63-.15-1.14-.48-1.54-.32-.41-.76-.61-1.33-.61-.32 0-.6.07-.85.2-.24.12-.44.28-.61.48-.17.2-.31.43-.41.69-.09.26-.15.52-.18.79h3.87zM118.66 557.25c-.17-.45-.33-.89-.48-1.32-.15-.44-.305-.885-.465-1.335h-4.71l-.94 2.66h-1.516c.4-1.1.78-2.115 1.13-3.045.35-.94.69-1.83 1.02-2.67.34-.84.67-1.64 1-2.4.33-.77.67-1.53 1.03-2.28h1.33c.36.75.7 1.51 1.03 2.28.33.76.66 1.56.99 2.4.34.84.69 1.73 1.04 2.67.35.93.72 1.946 1.12 3.046h-1.59zm-1.365-3.855c-.32-.87-.64-1.71-.96-2.52-.31-.82-.63-1.6-.97-2.35-.35.75-.686 1.535-1.006 2.355-.31.81-.62 1.65-.93 2.52h3.87zm4.264-3.72c.32-.08.74-.16 1.27-.25s1.14-.136 1.83-.136c.62 0 1.13.09 1.54.27.41.17.73.41.97.73.25.31.42.68.52 1.12.1.44.15.92.15 1.45v4.38h-1.4v-4.08c0-.48-.04-.89-.11-1.23-.06-.34-.17-.62-.32-.83-.15-.21-.35-.36-.6-.45-.25-.1-.56-.15-.93-.15a7.528 7.528 0 0 0-.94.05c-.14.01-.27.02-.39.04l-.24.05v6.58h-1.4v-7.58zm13.65 1.43c-.17-.14-.42-.276-.74-.406s-.67-.2-1.05-.2c-.4 0-.75.07-1.04.22-.28.14-.51.34-.69.6-.18.25-.31.55-.39.9-.08.35-.12.72-.12 1.12 0 .91.22 1.61.67 2.11.45.49 1.05.73 1.8.73.38 0 .7-.02.95-.05.26-.04.46-.08.6-.12v-4.94zm0-5.25l1.39-.24v11.414c-.32.09-.73.18-1.23.27-.5.09-1.08.13-1.73.13-.6 0-1.14-.1-1.62-.29-.48-.19-.89-.46-1.23-.81-.34-.35-.61-.78-.8-1.28-.18-.51-.27-1.08-.27-1.71 0-.6.08-1.15.23-1.65.16-.5.39-.93.69-1.29.3-.36.66-.64 1.09-.84.44-.2.94-.3 1.5-.3.45 0 .84.06 1.18.18.35.12.61.23.78.34v-3.95zm7.26 3.823c.32-.08.74-.163 1.26-.253.53-.09 1.14-.136 1.83-.136.5 0 .92.07 1.26.21.34.13.62.32.85.58.07-.05.18-.12.33-.21.15-.09.33-.18.55-.26.22-.09.46-.17.73-.23.27-.07.56-.11.87-.11.6 0 1.09.09 1.47.27.38.17.67.41.88.73.22.32.36.7.43 1.14.08.44.12.92.12 1.44v4.38h-1.39v-4.08c0-.46-.02-.86-.07-1.19-.04-.33-.12-.61-.25-.83-.12-.22-.29-.38-.51-.48-.21-.11-.49-.17-.83-.17-.47 0-.86.07-1.17.2-.3.12-.5.23-.61.33.08.26.14.54.18.85.04.31.06.63.06.97v4.38h-1.39v-4.08c0-.46-.03-.86-.08-1.19-.05-.33-.14-.61-.27-.83-.12-.22-.29-.38-.51-.48-.21-.11-.48-.17-.81-.17a7.063 7.063 0 0 0-.92.05c-.14.01-.27.03-.39.05s-.2.03-.24.04v6.59h-1.39v-7.57zm19.8 3.677c0 .62-.09 1.18-.27 1.68-.18.5-.44.93-.77 1.29-.32.36-.71.64-1.16.84-.45.19-.94.284-1.47.284s-1.02-.1-1.47-.29c-.45-.2-.84-.48-1.17-.84-.32-.36-.57-.79-.75-1.29-.18-.5-.27-1.06-.27-1.68 0-.61.09-1.17.27-1.67.18-.51.43-.95.75-1.31.33-.36.72-.64 1.17-.83.45-.2.94-.3 1.47-.3s1.02.1 1.47.3c.45.19.83.46 1.15.82.33.36.58.79.76 1.3.18.5.27 1.05.27 1.66zm-1.46 0c0-.88-.2-1.576-.6-2.086-.39-.52-.93-.78-1.61-.78s-1.22.26-1.62.78c-.39.51-.59 1.2-.59 2.08 0 .88.19 1.58.58 2.1.4.51.94.76 1.62.76.68 0 1.22-.26 1.61-.77.4-.52.6-1.22.6-2.1zm8.46-2.25c-.17-.14-.42-.276-.74-.406s-.67-.2-1.05-.2c-.4 0-.75.07-1.04.22-.28.14-.51.34-.69.6-.18.25-.31.55-.39.9-.08.35-.12.72-.12 1.12 0 .91.22 1.61.67 2.11.45.49 1.05.73 1.8.73.38 0 .69-.02.94-.05.26-.04.46-.08.6-.12v-4.94zm0-5.25l1.39-.24v11.414c-.32.09-.73.18-1.23.27-.5.09-1.08.13-1.73.13-.6 0-1.14-.1-1.62-.29-.48-.19-.89-.46-1.23-.81-.34-.35-.61-.78-.8-1.28-.18-.51-.27-1.08-.27-1.71 0-.6.07-1.15.22-1.65.16-.5.39-.93.69-1.29.3-.36.66-.64 1.09-.84.44-.2.94-.3 1.5-.3.45 0 .84.06 1.18.18.35.12.61.23.78.34v-3.95zm3.37 7.513c0-.69.1-1.29.3-1.8.2-.52.46-.95.79-1.29.33-.34.71-.593 1.14-.763.43-.17.87-.255 1.32-.255 1.05 0 1.86.33 2.42.99.56.65.84 1.647.84 2.987v.24c0 .09-.01.174-.02.254h-5.34c.06.81.29 1.43.7 1.85.41.42 1.05.63 1.92.63.49 0 .9-.04 1.23-.12.34-.09.59-.17.76-.25l.2 1.17c-.17.09-.47.19-.9.29-.42.1-.9.15-1.44.15-.68 0-1.27-.1-1.77-.3-.49-.21-.9-.49-1.22-.85-.32-.36-.56-.78-.72-1.27-.15-.5-.23-1.04-.23-1.63zm5.35-.763c.01-.63-.15-1.145-.48-1.545-.32-.41-.76-.613-1.33-.613-.32 0-.61.064-.86.194-.24.12-.45.28-.62.48-.17.2-.31.43-.41.69-.09.26-.15.53-.18.8H178zm5.8 4.8c-.86-.02-1.47-.205-1.83-.555-.36-.35-.54-.893-.54-1.633v-9.36l1.39-.24v9.374c0 .23.02.42.06.57.04.15.1.27.19.36.09.09.21.16.36.21.15.04.33.08.55.11l-.2 1.17zm.95-5.296h3.71v1.3h-3.71m10.33-2.31c-.17-.14-.42-.28-.74-.41s-.67-.19-1.05-.19c-.4 0-.75.07-1.04.22-.28.14-.51.34-.69.6-.18.25-.31.55-.39.9-.08.35-.12.72-.12 1.12 0 .91.23 1.61.68 2.11.45.49 1.05.73 1.8.73.38 0 .7-.01.95-.04.26-.04.46-.08.6-.12v-4.94zm0-5.25l1.39-.24v11.41c-.32.09-.73.18-1.23.27-.5.09-1.08.14-1.73.14-.6 0-1.14-.1-1.62-.29-.48-.19-.89-.46-1.23-.81-.34-.35-.6-.78-.79-1.28-.18-.51-.27-1.08-.27-1.71 0-.6.08-1.15.23-1.65.16-.5.39-.93.69-1.29.3-.36.66-.64 1.09-.84.44-.2.94-.3 1.5-.3.45 0 .84.06 1.18.18.35.12.61.23.78.34v-3.95zm6.68 3.43c.12 0 .25.01.4.03.16.01.31.03.46.06.15.02.28.04.4.07.13.02.22.04.28.06l-.24 1.21c-.11-.04-.3-.09-.56-.14-.25-.06-.58-.09-.98-.09-.26 0-.52.03-.78.09-.25.05-.42.08-.5.1v6.55h-1.4v-7.47c.33-.12.74-.23 1.23-.33a7.54 7.54 0 0 1 1.65-.17zm4.31 7.96h-1.39v-7.8h1.4v7.8zm-.7-9.21a.95.95 0 0 1-.65-.24c-.17-.17-.26-.4-.26-.68s.09-.5.26-.66c.18-.17.39-.26.64-.26s.46.08.63.25c.18.16.27.38.27.66s-.09.5-.27.67c-.17.16-.38.24-.63.24zm9.21 1.41c-.39 1.46-.85 2.86-1.38 4.2-.52 1.34-1.03 2.54-1.52 3.6h-1.26c-.49-1.06-1-2.26-1.53-3.6-.52-1.34-.97-2.74-1.36-4.2h1.5c.12.49.26 1.01.42 1.57.17.55.34 1.1.52 1.65.19.54.38 1.06.57 1.57.19.51.37.96.54 1.36.17-.4.35-.86.54-1.37.19-.51.37-1.04.55-1.58.19-.55.36-1.1.52-1.65.17-.56.31-1.09.43-1.58h1.44zm.8 3.91c0-.69.1-1.29.3-1.8.2-.52.46-.95.79-1.29.33-.34.71-.59 1.14-.76.43-.17.87-.26 1.32-.26 1.05 0 1.86.33 2.42.99.56.65.84 1.64.84 2.98v.24c0 .09-.01.17-.02.25h-5.34c.06.81.29 1.42.7 1.84.41.42 1.05.63 1.92.63.49 0 .9-.04 1.23-.12.34-.09.59-.18.76-.26l.2 1.17c-.17.09-.47.19-.9.29-.42.1-.9.15-1.44.15-.68 0-1.27-.1-1.77-.3-.49-.21-.9-.5-1.22-.86-.32-.36-.56-.78-.72-1.27-.15-.5-.23-1.04-.23-1.63zm5.35-.76c.01-.63-.15-1.15-.48-1.55-.32-.41-.76-.62-1.33-.62-.32 0-.61.06-.86.19-.24.12-.45.28-.62.48-.17.2-.31.43-.41.69-.09.26-.15.52-.18.79h3.87zm3.46-2.93c.32-.08.74-.17 1.27-.26s1.14-.14 1.83-.14c.62 0 1.13.09 1.54.27.41.17.73.42.97.74.25.31.42.68.52 1.12.1.44.15.92.15 1.45v4.38h-1.39v-4.08c0-.48-.04-.89-.11-1.23-.06-.34-.17-.62-.32-.83-.15-.21-.35-.36-.6-.45-.25-.1-.56-.15-.93-.15-.15 0-.31.01-.47.02-.16.01-.32.02-.47.04-.14.01-.27.02-.39.04l-.24.04v6.59h-1.39v-7.58zm18.95 3.67c0 .62-.09 1.18-.27 1.68-.18.5-.44.93-.77 1.29-.32.36-.71.64-1.16.84-.45.19-.94.28-1.47.28s-1.02-.09-1.47-.28c-.45-.2-.84-.48-1.17-.84-.32-.36-.57-.79-.75-1.29-.18-.5-.27-1.06-.27-1.68 0-.61.09-1.17.27-1.67.18-.51.43-.95.75-1.31.33-.36.72-.64 1.17-.83.45-.2.94-.3 1.47-.3s1.02.1 1.47.3c.45.19.83.47 1.15.83.33.36.58.79.76 1.3.18.5.27 1.05.27 1.66zm-1.46 0c0-.88-.2-1.58-.6-2.09-.39-.52-.93-.78-1.61-.78s-1.22.26-1.62.78c-.39.51-.59 1.21-.59 2.09 0 .88.19 1.58.58 2.1.4.51.94.76 1.62.76.68 0 1.22-.26 1.61-.77.4-.52.6-1.22.6-2.1zm8.83.01c0-.91-.23-1.61-.68-2.1-.45-.49-1.05-.74-1.8-.74-.42 0-.75.01-.99.04-.23.03-.41.07-.55.11v4.92c.17.14.41.27.73.4s.67.19 1.05.19c.4 0 .74-.07 1.02-.21.29-.15.52-.35.7-.6.18-.26.31-.56.39-.9.08-.35.12-.73.12-1.13zm1.45 0c0 .59-.08 1.13-.24 1.63-.15.5-.37.93-.67 1.29-.3.36-.67.64-1.11.84-.43.2-.93.3-1.49.3-.45 0-.85-.06-1.2-.18-.34-.12-.6-.24-.77-.35V560h-1.39v-10.34c.33-.08.74-.163 1.23-.253.5-.1 1.07-.15 1.72-.15.6 0 1.14.095 1.62.285.48.19.89.46 1.23.81.34.35.6.78.78 1.29.19.5.29 1.064.29 1.694zm1.55 0c0-.69.1-1.29.3-1.8.2-.52.46-.95.79-1.29.33-.34.71-.6 1.14-.77.43-.17.87-.26 1.32-.26 1.05 0 1.85.33 2.41.99.56.65.84 1.65.84 2.99v.24c0 .09-.01.17-.02.25H255c.06.81.296 1.42.706 1.84.41.42 1.05.63 1.92.63.49 0 .9-.04 1.23-.12.34-.09.597-.18.767-.26l.195 1.17c-.17.09-.47.18-.9.28-.42.1-.9.15-1.44.15-.68 0-1.27-.1-1.77-.3-.49-.21-.895-.5-1.215-.86-.32-.36-.56-.79-.72-1.28-.15-.5-.223-1.04-.223-1.63zm5.35-.77c.01-.63-.15-1.15-.48-1.55-.32-.41-.77-.61-1.34-.61-.32 0-.61.06-.86.19-.24.12-.45.28-.62.48-.17.2-.3.43-.4.69-.09.26-.15.52-.18.79h3.87zm6.34-3.32c.12 0 .25.01.4.03.16.01.32.03.47.06.15.02.28.05.4.08.13.02.23.04.29.06l-.24 1.21c-.11-.04-.3-.08-.56-.13a4.26 4.26 0 0 0-.97-.09c-.26 0-.52.03-.78.09-.25.05-.42.08-.5.1v6.55h-1.4v-7.47c.33-.12.74-.23 1.23-.33a7.54 7.54 0 0 1 1.65-.17zm5.56 6.96c.33 0 .62 0 .87-.01.26-.02.47-.05.64-.09v-2.32c-.1-.05-.27-.09-.5-.12-.22-.04-.49-.06-.81-.06-.21 0-.44.02-.68.05-.23.03-.44.09-.64.19-.19.09-.35.22-.48.39-.13.16-.2.37-.2.64 0 .5.16.85.48 1.05.32.19.75.28 1.3.28zm-.12-6.99c.56 0 1.03.08 1.41.23.39.14.7.34.93.61.24.26.41.58.51.95.1.36.15.76.15 1.2v4.87c-.12.02-.29.05-.51.09-.21.03-.45.06-.72.09-.27.03-.57.05-.89.07-.31.03-.62.04-.93.04-.44 0-.85-.05-1.22-.14a2.8 2.8 0 0 1-.96-.42c-.27-.2-.48-.46-.63-.78-.15-.32-.23-.71-.23-1.16 0-.43.09-.8.26-1.11.18-.31.42-.56.72-.75.3-.19.65-.33 1.05-.42.4-.09.82-.14 1.26-.14.14 0 .28.01.43.03.15.01.29.03.42.06.14.02.26.04.36.06.1.02.17.03.21.04v-.39c0-.23-.03-.46-.08-.68-.05-.23-.14-.43-.27-.6-.13-.18-.31-.32-.54-.42-.22-.11-.51-.16-.87-.16-.46 0-.86.04-1.21.11-.34.06-.6.12-.77.19l-.168-1.16c.18-.08.48-.15.9-.22.42-.08.87-.12 1.36-.12zm6.6.2h2.96v1.17h-2.95v3.6c0 .39.03.71.09.97.06.25.15.45.27.6.12.14.27.24.45.3s.39.09.63.09c.42 0 .76-.04 1.01-.13.26-.1.44-.17.54-.21l.27 1.15c-.14.07-.39.15-.74.25-.35.11-.75.16-1.2.16-.53 0-.97-.07-1.32-.2-.34-.14-.61-.35-.82-.62-.21-.27-.36-.6-.45-.99-.08-.4-.12-.86-.12-1.38v-6.96l1.4-.24v2.41zm6.13 7.8H282v-7.8h1.4v7.8zm-.7-9.21c-.25 0-.46-.08-.64-.24-.17-.17-.26-.4-.26-.68s.09-.5.26-.66c.18-.17.4-.25.65-.25s.46.08.63.25c.18.16.27.38.27.66s-.09.5-.27.67c-.17.16-.38.24-.63.24zm10.01 5.31c0 .62-.09 1.18-.27 1.68-.18.5-.44.93-.77 1.29-.32.36-.7.64-1.15.84-.45.19-.94.28-1.47.28s-1.02-.09-1.47-.28c-.45-.2-.84-.48-1.17-.84-.32-.36-.57-.79-.75-1.29-.18-.5-.27-1.06-.27-1.68 0-.61.09-1.17.27-1.67.18-.51.43-.95.75-1.31.33-.36.72-.64 1.17-.83.45-.2.94-.3 1.47-.3s1.02.1 1.47.3c.45.19.83.46 1.15.82.33.36.59.79.77 1.3.18.5.27 1.05.27 1.66zm-1.46 0c0-.88-.2-1.58-.6-2.09-.39-.52-.92-.78-1.6-.78s-1.22.26-1.62.78c-.39.51-.59 1.21-.59 2.09 0 .88.2 1.58.59 2.1.4.51.94.76 1.62.76.68 0 1.22-.26 1.61-.77.4-.52.6-1.22.6-2.1zm3.42-3.68c.32-.08.74-.17 1.27-.26s1.14-.13 1.83-.13c.62 0 1.14.09 1.55.27.41.17.73.41.97.73.25.31.42.68.52 1.12.1.44.15.92.15 1.45v4.38h-1.4v-4.08c0-.48-.04-.89-.11-1.23-.06-.34-.17-.62-.32-.83-.15-.21-.35-.36-.6-.45-.25-.1-.56-.15-.93-.15-.15 0-.31.01-.47.02-.16.01-.31.02-.46.04-.14.01-.27.03-.39.05l-.24.05v6.58h-1.4v-7.58zm10.43 6.57c.57 0 .99-.08 1.26-.23.28-.15.42-.39.42-.72a.96.96 0 0 0-.41-.81c-.27-.2-.71-.42-1.33-.67-.3-.12-.59-.24-.87-.36-.27-.13-.5-.28-.7-.45-.2-.17-.36-.38-.48-.62s-.18-.54-.18-.89c0-.69.25-1.24.76-1.64.51-.41 1.2-.62 2.08-.62.22 0 .44.02.66.05.22.02.42.05.61.09.19.03.35.06.49.1.15.04.26.08.34.11l-.257 1.2c-.15-.08-.39-.16-.71-.24-.32-.09-.7-.13-1.15-.13-.39 0-.73.08-1.02.24a.76.76 0 0 0-.44.72c0 .17.03.32.09.45.07.13.17.25.3.36.14.1.31.19.51.28.2.09.44.18.72.28.37.14.7.28.99.42.29.13.534.28.734.46.21.18.37.4.48.66.11.25.16.56.16.93 0 .72-.27 1.26-.81 1.63-.53.37-1.29.55-2.28.55-.69 0-1.23-.06-1.62-.18-.39-.11-.65-.195-.79-.255l.257-1.2c.16.06.42.15.77.27.35.12.81.18 1.39.18zM130.59 736.77c-.17-.45-.33-.89-.48-1.32-.15-.44-.305-.887-.465-1.337h-4.71l-.943 2.653h-1.512a293.847 293.847 0 0 1 2.146-5.72c.34-.84.674-1.64 1.004-2.4.33-.77.678-1.53 1.038-2.28H128a73.619 73.619 0 0 1 2.026 4.68c.34.84.685 1.73 1.035 2.67.35.93.73 1.944 1.13 3.044h-1.59zm-1.365-3.857c-.32-.87-.64-1.71-.96-2.52-.31-.82-.633-1.607-.973-2.357-.35.75-.682 1.53-1.002 2.35-.31.81-.62 1.65-.93 2.52h3.87zm5.57-3.946h2.954v1.17h-2.96v3.6c0 .39.03.715.09.975.06.25.15.45.27.6.12.14.27.24.45.3s.39.09.63.09c.42 0 .75-.045 1-.135.26-.1.44-.17.54-.21l.27 1.15c-.14.07-.39.153-.74.253-.35.11-.75.163-1.2.163-.53 0-.97-.06-1.32-.19-.34-.14-.62-.346-.83-.616-.21-.27-.36-.6-.45-.99-.08-.4-.12-.86-.12-1.38v-6.96l1.39-.24v2.415zm10.825 6.795c.33 0 .62-.005.87-.015.26-.02.473-.05.643-.09v-2.33c-.1-.05-.267-.09-.497-.12-.22-.04-.49-.06-.81-.06-.21 0-.43.013-.67.043-.23.03-.447.093-.647.193-.19.09-.35.22-.48.39-.13.16-.2.38-.2.65 0 .5.16.85.48 1.05.32.19.75.284 1.3.284zm-.12-6.99c.56 0 1.03.075 1.41.225.39.14.7.34.93.61.24.26.41.573.51.943.1.36.15.76.15 1.2v4.873c-.12.02-.29.05-.51.09a23.494 23.494 0 0 1-1.607.17c-.31.03-.62.044-.93.044-.44 0-.847-.045-1.217-.135a2.8 2.8 0 0 1-.96-.42c-.27-.2-.48-.46-.63-.78-.15-.32-.22-.707-.22-1.157 0-.43.083-.8.253-1.11.18-.31.42-.56.72-.75.3-.19.65-.33 1.05-.42.4-.09.82-.138 1.26-.138.14 0 .28.01.43.03.15.01.29.03.42.06a6.709 6.709 0 0 1 .57.104v-.39c0-.23-.03-.46-.08-.68-.05-.23-.14-.43-.27-.6-.13-.18-.31-.32-.54-.42-.22-.11-.51-.16-.87-.16-.46 0-.87.04-1.22.11-.34.06-.6.13-.77.2l-.17-1.15c.18-.08.48-.15.9-.22.42-.08.88-.12 1.37-.12zm5.3.42c.32-.08.745-.165 1.275-.255s1.14-.14 1.83-.14c.62 0 1.137.09 1.547.27.41.17.736.413.976.733.25.31.427.683.527 1.123.1.44.15.93.15 1.46v4.38h-1.396v-4.08c0-.48-.04-.89-.11-1.23-.06-.34-.17-.616-.32-.826-.15-.21-.35-.36-.6-.45-.25-.1-.56-.15-.93-.15a7.617 7.617 0 0 0-.94.058c-.14.01-.27.022-.39.042l-.24.044v6.58h-1.4v-7.57zm7.435 9.03c.11.05.25.095.42.135.18.05.357.07.527.07.55 0 .98-.127 1.29-.377.31-.24.59-.637.84-1.187-.63-1.2-1.22-2.47-1.77-3.81-.54-1.35-.99-2.71-1.35-4.09h1.5c.11.45.24.934.39 1.454.16.52.336 1.055.526 1.605s.397 1.1.617 1.65c.22.55.45 1.08.69 1.59.38-1.05.71-2.09.99-3.12.28-1.03.544-2.09.794-3.18h1.44c-.36 1.47-.76 2.883-1.2 4.243-.44 1.35-.92 2.612-1.43 3.792-.2.45-.41.834-.63 1.154-.21.33-.45.6-.71.81a2.6 2.6 0 0 1-.89.46c-.32.1-.69.15-1.1.15-.11 0-.23-.01-.35-.03-.12-.01-.24-.03-.36-.06-.11-.02-.22-.04-.32-.07-.09-.03-.16-.05-.2-.07l.25-1.12zm13.63-2.46c.57 0 .99-.075 1.26-.225.28-.15.42-.39.42-.72 0-.34-.135-.61-.405-.81-.27-.2-.71-.43-1.33-.68-.3-.12-.59-.24-.87-.36-.27-.13-.506-.28-.706-.45-.2-.17-.36-.377-.48-.617s-.18-.537-.18-.887c0-.69.253-1.23.763-1.63.51-.41 1.202-.616 2.082-.616.22 0 .44.015.66.045.22.02.42.05.61.09.19.03.35.063.49.103.15.04.26.072.34.102l-.26 1.2c-.15-.08-.39-.16-.71-.24-.32-.09-.7-.136-1.15-.136-.39 0-.73.08-1.02.24a.76.76 0 0 0-.44.72c0 .17.03.32.09.45.07.13.17.25.3.36.14.1.31.19.51.28.2.09.44.19.72.29.37.14.7.28.99.42.29.13.53.29.73.47.21.18.37.4.48.66.11.25.16.56.16.93 0 .72-.27 1.27-.81 1.64-.53.37-1.29.56-2.28.56-.69 0-1.23-.06-1.62-.18a8.28 8.28 0 0 1-.8-.25l.25-1.2c.16.06.41.15.76.27.35.12.81.18 1.39.18zm8.254 1.186c-.63 0-1.19-.1-1.67-.3-.47-.2-.87-.48-1.2-.84-.32-.36-.56-.786-.72-1.276-.16-.5-.24-1.05-.24-1.65 0-.6.08-1.15.25-1.65.18-.5.43-.93.75-1.29.32-.37.71-.656 1.17-.856.47-.21.99-.32 1.56-.32.35 0 .7.03 1.05.09.35.06.69.156 1.01.286l-.32 1.183c-.21-.1-.46-.18-.74-.24-.27-.06-.56-.09-.87-.09-.78 0-1.38.247-1.8.737-.41.49-.62 1.205-.62 2.145 0 .42.04.804.13 1.154.1.35.25.65.45.9.21.25.47.45.79.59.32.13.71.19 1.17.19.37 0 .7-.03 1-.1.3-.07.53-.15.7-.23l.19 1.17c-.08.05-.19.1-.34.15-.15.04-.32.08-.51.11-.19.04-.4.07-.62.09-.21.03-.41.05-.61.05zm6.22-1.186c.33 0 .62-.006.87-.016.26-.02.47-.05.64-.09v-2.33c-.1-.05-.27-.09-.5-.12-.22-.04-.49-.06-.81-.06-.21 0-.44.016-.68.046-.23.03-.45.093-.65.193-.19.09-.35.22-.48.39-.13.16-.2.377-.2.647 0 .5.16.85.48 1.05.32.19.75.285 1.3.285zm-.12-6.99c.56 0 1.03.074 1.41.224.39.14.7.34.93.61.24.26.41.576.51.946.1.36.15.76.15 1.2v4.873c-.12.02-.29.05-.51.09-.21.03-.45.06-.72.09-.27.03-.57.057-.89.077-.31.03-.62.045-.93.045-.44 0-.85-.046-1.22-.136a2.8 2.8 0 0 1-.96-.42c-.27-.2-.48-.46-.63-.78-.15-.32-.23-.7-.23-1.15 0-.43.08-.8.25-1.11.18-.31.42-.56.72-.75.3-.19.65-.33 1.05-.42.4-.09.82-.14 1.26-.14.14 0 .28.01.43.03.15.01.29.03.42.06.14.02.26.04.36.06.1.02.17.04.21.05v-.39c0-.23-.03-.46-.08-.68-.05-.23-.14-.43-.27-.6-.13-.18-.31-.32-.54-.42-.22-.11-.51-.16-.87-.16-.46 0-.87.04-1.22.11-.34.06-.6.13-.77.2l-.17-1.15c.18-.08.48-.15.9-.22.42-.08.87-.12 1.36-.12zm7.64 8.145c-.86-.02-1.47-.208-1.83-.558-.36-.35-.54-.9-.54-1.64v-9.36l1.39-.24v9.37c0 .23.02.42.06.57.04.15.11.27.2.36.09.09.21.16.36.21.15.04.33.07.55.1l-.2 1.17zm1.32-4.038c0-.69.1-1.29.3-1.8.2-.52.46-.95.79-1.29.33-.34.71-.6 1.14-.77.43-.17.87-.26 1.32-.26 1.05 0 1.85.33 2.41.99.56.65.84 1.64.84 2.98v.24c0 .09-.01.17-.02.25h-5.34c.06.81.3 1.43.71 1.85.41.42 1.05.63 1.92.63.49 0 .9-.04 1.23-.12.34-.09.59-.18.76-.26l.19 1.17c-.17.09-.47.18-.9.28-.42.1-.9.15-1.44.15-.68 0-1.27-.1-1.77-.3-.49-.21-.9-.5-1.22-.86-.32-.36-.56-.79-.72-1.28-.15-.5-.23-1.05-.23-1.64zm5.35-.77c.01-.63-.15-1.15-.48-1.55-.32-.41-.77-.62-1.34-.62-.32 0-.61.06-.86.19-.24.12-.44.28-.61.48-.17.2-.31.43-.41.69-.09.26-.15.53-.18.8h3.87zm4.93 2.94c.01.08.01.16.01.24v.22c0 .63-.09 1.25-.28 1.86-.18.62-.43 1.21-.75 1.77l-1.08-.35c.25-.51.41-1.03.49-1.56.08-.52.12-1.01.12-1.47 0-.13-.01-.26-.02-.38 0-.12-.01-.24-.02-.35h1.51zm12.56-2.19c0 .62-.09 1.18-.27 1.68-.18.5-.44.93-.77 1.29-.32.36-.71.64-1.16.84-.45.19-.94.28-1.47.28s-1.02-.1-1.47-.29c-.45-.2-.84-.48-1.17-.84-.32-.36-.57-.79-.75-1.29-.18-.5-.27-1.06-.27-1.68 0-.61.09-1.17.27-1.67.18-.51.43-.95.75-1.31.33-.36.72-.64 1.17-.83.45-.2.94-.3 1.47-.3s1.02.1 1.47.3c.45.19.83.46 1.15.82.33.36.58.79.76 1.3.18.5.27 1.05.27 1.66zm-1.46 0c0-.88-.2-1.58-.6-2.09-.39-.52-.93-.78-1.61-.78s-1.22.26-1.62.78c-.39.51-.59 1.2-.59 2.08 0 .88.19 1.58.58 2.1.4.51.94.76 1.62.76.68 0 1.21-.26 1.6-.77.4-.52.6-1.22.6-2.1zm3.41-3.68c.32-.08.74-.17 1.27-.26s1.14-.14 1.83-.14c.62 0 1.13.09 1.54.27.41.17.73.41.97.73.25.31.42.68.52 1.12.1.44.15.92.15 1.45v4.38h-1.4v-4.08c0-.48-.03-.89-.1-1.23-.06-.34-.17-.62-.32-.83-.15-.21-.35-.36-.6-.45-.25-.1-.56-.15-.93-.15-.15 0-.3 0-.46.01-.16.01-.32.02-.47.04-.14.01-.27.02-.39.04l-.24.04v6.58H220v-7.58zm14.71 6.57c.33 0 .62-.01.87-.02.26-.02.47-.05.64-.09v-2.33c-.1-.05-.27-.09-.5-.12-.22-.04-.49-.06-.81-.06-.21 0-.44.01-.68.04-.23.03-.44.09-.64.19-.19.09-.35.22-.48.39-.13.16-.2.37-.2.64 0 .5.16.85.48 1.05.32.19.75.28 1.3.28zm-.12-6.99c.56 0 1.03.07 1.41.22.39.14.7.34.93.61.24.26.41.57.51.94.1.36.15.76.15 1.2v4.87c-.12.02-.29.05-.51.09-.21.03-.45.06-.72.09-.27.03-.57.05-.89.07-.31.03-.62.04-.93.04-.44 0-.85-.05-1.22-.14a2.8 2.8 0 0 1-.96-.42c-.27-.2-.48-.46-.63-.78-.15-.32-.23-.71-.23-1.16 0-.43.09-.8.26-1.11.18-.31.42-.56.72-.75.3-.19.65-.33 1.05-.42.4-.09.82-.14 1.26-.14.14 0 .28.01.43.03.15.01.29.03.42.06.14.02.26.04.36.06.1.02.17.03.21.04v-.39c0-.23-.03-.46-.08-.68-.05-.23-.14-.43-.27-.6-.13-.18-.31-.32-.54-.42-.22-.11-.51-.17-.87-.17-.46 0-.86.03-1.21.1-.34.06-.6.12-.77.19l-.17-1.16c.18-.08.48-.16.9-.23.42-.08.88-.12 1.37-.12zm5.3.42c.32-.08.74-.17 1.27-.26s1.14-.14 1.83-.14c.62 0 1.14.09 1.55.27.41.17.73.41.97.73.25.31.43.68.53 1.12.1.44.15.92.15 1.45v4.38h-1.4v-4.08c0-.48-.04-.89-.11-1.23-.06-.34-.17-.62-.32-.83-.15-.21-.35-.36-.6-.45-.25-.1-.56-.15-.93-.15a7.528 7.528 0 0 0-.94.05c-.14.01-.27.02-.39.04l-.24.04v6.58h-1.4v-7.58zm7.43 9.03c.11.05.25.09.42.13.18.05.36.07.53.07.55 0 .98-.13 1.29-.38.31-.24.59-.64.84-1.19-.63-1.2-1.22-2.47-1.77-3.81a34.47 34.47 0 0 1-1.35-4.1h1.5c.11.45.24.93.39 1.45.16.52.33 1.05.52 1.6s.4 1.1.62 1.65c.22.55.45 1.08.69 1.59.38-1.05.71-2.09.99-3.12.28-1.03.54-2.09.79-3.18h1.44c-.36 1.47-.76 2.88-1.2 4.24-.44 1.35-.92 2.61-1.43 3.79-.2.45-.41.83-.63 1.15-.21.33-.45.6-.71.81a2.6 2.6 0 0 1-.89.46c-.32.1-.69.15-1.1.15-.11 0-.23-.01-.35-.03-.12-.01-.24-.03-.36-.06-.11-.02-.22-.05-.32-.08-.09-.03-.16-.06-.2-.08l.25-1.13zm15.2-1.27c-.63 0-1.18-.1-1.66-.3-.47-.2-.87-.48-1.2-.84-.32-.36-.56-.79-.72-1.28-.16-.5-.24-1.05-.24-1.65 0-.6.08-1.15.25-1.65.18-.5.43-.93.75-1.29.32-.37.71-.66 1.17-.86.47-.21.99-.32 1.56-.32.35 0 .7.03 1.05.09.35.06.68.15 1 .28l-.32 1.18c-.21-.1-.46-.18-.74-.24-.27-.06-.56-.09-.87-.09-.78 0-1.38.24-1.8.73-.41.49-.62 1.2-.62 2.14 0 .42.04.8.13 1.15.1.35.25.65.45.9.21.25.47.44.79.58.32.13.71.19 1.17.19.37 0 .71-.04 1.01-.11.3-.07.53-.15.7-.23l.19 1.17c-.08.05-.2.1-.35.15-.15.04-.32.07-.51.1-.19.04-.4.07-.62.09-.21.03-.42.04-.62.04zm5.92-.03c-.86-.02-1.47-.21-1.83-.56-.36-.35-.54-.9-.54-1.64v-9.36l1.39-.24v9.37c0 .23.02.42.06.57.04.15.11.27.2.36.09.09.21.16.36.21.15.04.33.07.55.1l-.2 1.17zm8.64-4.05c0 .62-.09 1.18-.27 1.68-.18.5-.44.93-.77 1.29-.32.36-.71.64-1.16.84-.45.19-.94.28-1.47.28s-1.02-.1-1.47-.29c-.45-.2-.84-.48-1.17-.84-.32-.36-.57-.79-.75-1.29-.18-.5-.27-1.06-.27-1.68 0-.61.09-1.17.27-1.67.18-.51.43-.95.75-1.31.33-.36.72-.64 1.17-.83.45-.2.94-.3 1.47-.3s1.02.1 1.47.3c.45.19.83.46 1.15.82.33.36.58.79.76 1.3.18.5.27 1.05.27 1.66zm-1.46 0c0-.88-.2-1.58-.6-2.09-.39-.52-.93-.78-1.61-.78s-1.22.26-1.62.78c-.39.51-.59 1.2-.59 2.08 0 .88.19 1.58.58 2.1.4.51.94.76 1.62.76.68 0 1.21-.26 1.6-.77.4-.52.6-1.22.6-2.1zm9.63 3.67c-.32.08-.75.16-1.28.25-.52.09-1.13.13-1.82.13-.6 0-1.11-.09-1.52-.26-.41-.18-.74-.43-.99-.75s-.43-.7-.54-1.13c-.11-.44-.17-.93-.17-1.46v-4.38h1.39v4.08c0 .95.15 1.63.45 2.04.3.41.81.61 1.52.61.15 0 .3-.01.46-.02l.45-.03c.14-.02.26-.04.37-.05.12-.02.2-.04.25-.06v-6.59h1.394v7.57zm7.44-5.92c-.17-.14-.42-.28-.74-.41s-.67-.2-1.05-.2c-.4 0-.75.07-1.04.22-.28.14-.51.34-.69.6-.18.25-.31.55-.39.9-.08.35-.12.72-.12 1.12 0 .91.22 1.61.67 2.11.45.49 1.05.73 1.8.73.38 0 .69-.02.94-.05.26-.04.46-.08.6-.12v-4.94zm0-5.25l1.39-.24v11.41c-.32.09-.73.18-1.23.27-.5.09-1.08.13-1.73.13-.6 0-1.14-.1-1.62-.29-.48-.19-.89-.46-1.23-.81-.34-.35-.61-.78-.8-1.28-.18-.51-.27-1.08-.27-1.71 0-.6.07-1.15.22-1.65.16-.5.39-.93.69-1.29.3-.36.66-.64 1.09-.84.44-.2.94-.3 1.5-.3.45 0 .84.06 1.18.18.35.12.61.23.78.34v-3.95zM82.37 183.22c-.21 0-.44-.006-.69-.016-.24-.01-.482-.03-.732-.05-.24-.02-.48-.045-.72-.075s-.46-.07-.66-.12v-10.08c.2-.05.42-.09.66-.12.24-.03.48-.06.72-.08.25-.02.49-.04.73-.05.24-.01.46-.02.67-.02.6 0 1.16.04 1.68.13.53.09.983.25 1.363.47.39.21.7.49.92.84.22.35.33.78.33 1.29 0 .57-.13 1.04-.4 1.41-.27.36-.63.63-1.08.81.61.18 1.1.47 1.46.86.36.39.54.94.54 1.65 0 1.04-.38 1.82-1.15 2.35-.76.52-1.97.78-3.63.78zm-1.362-4.936v3.66c.11.01.24.02.39.03.13.01.28.02.45.03h.61c.43 0 .83-.03 1.21-.08a3.6 3.6 0 0 0 1.02-.3c.29-.14.52-.335.69-.585.18-.25.27-.57.27-.95 0-.34-.067-.63-.197-.86-.13-.24-.32-.43-.57-.57a2.62 2.62 0 0 0-.87-.3 6.59 6.59 0 0 0-1.14-.09H81zm0-1.17h1.53c.36 0 .7-.03 1.02-.08.32-.05.59-.14.82-.27.24-.13.42-.3.55-.51.14-.21.21-.475.21-.795 0-.3-.07-.55-.21-.75-.14-.21-.337-.38-.587-.5-.24-.13-.52-.23-.85-.29-.33-.06-.68-.09-1.05-.09s-.66 0-.87.01c-.21.01-.4.02-.57.04v3.21zm7.19 7.47c.11.05.25.09.42.13.18.05.35.074.52.074.55 0 .98-.122 1.29-.372.31-.24.59-.64.84-1.19-.63-1.2-1.22-2.47-1.77-3.81-.54-1.35-.99-2.713-1.35-4.093h1.5c.11.45.24.934.39 1.454.16.52.333 1.054.523 1.604s.4 1.1.62 1.65c.22.55.45 1.08.69 1.59.38-1.05.71-2.09.99-3.12.28-1.03.55-2.09.8-3.18h1.44c-.36 1.47-.76 2.89-1.2 4.25-.44 1.35-.91 2.62-1.42 3.8-.2.45-.41.84-.63 1.16-.21.33-.44.6-.7.81-.26.21-.55.36-.88.46-.32.1-.68.15-1.09.15-.11 0-.22-.01-.34-.03-.12-.01-.24-.03-.36-.06-.11-.02-.21-.04-.31-.07-.09-.03-.15-.05-.19-.07l.26-1.12zm13.63-2.46c.57 0 .99-.08 1.26-.23.28-.15.42-.39.42-.72a.96.96 0 0 0-.41-.81c-.27-.2-.718-.426-1.338-.676-.3-.12-.59-.24-.87-.36-.27-.13-.504-.28-.704-.45-.2-.17-.36-.372-.48-.612s-.18-.54-.18-.89c0-.69.255-1.233.765-1.633.51-.41 1.21-.616 2.09-.616.22 0 .44.014.66.044.22.02.42.05.61.09.19.03.35.07.49.11.15.04.26.08.34.11l-.25 1.2c-.15-.08-.39-.16-.71-.24-.32-.09-.7-.13-1.15-.13-.39 0-.73.08-1.02.24-.29.15-.43.39-.43.72 0 .17.03.32.09.45.07.13.17.25.3.36.14.1.31.19.51.28.2.09.44.19.72.29.37.14.7.28.99.42.29.13.54.29.74.47.21.18.37.4.48.66.11.25.16.56.16.93 0 .72-.27 1.27-.81 1.64-.53.37-1.29.56-2.28.56-.69 0-1.23-.06-1.62-.18-.39-.11-.65-.19-.79-.25l.26-1.2c.16.06.42.15.77.27.35.12.82.18 1.4.18zm10.28-2.88c0-.91-.23-1.61-.68-2.1-.45-.49-1.05-.74-1.8-.74-.42 0-.75.014-.99.044-.23.03-.418.068-.558.108v4.92c.17.14.416.27.736.4s.67.197 1.05.197c.4 0 .74-.07 1.02-.21.29-.15.525-.35.705-.6.18-.26.31-.56.39-.9.08-.35.12-.726.12-1.126zm1.45 0c0 .59-.08 1.13-.24 1.63-.15.5-.378.93-.678 1.29-.3.36-.67.64-1.11.84-.43.2-.924.3-1.484.3-.45 0-.85-.06-1.2-.18a3.79 3.79 0 0 1-.765-.346v3.12h-1.39v-10.33c.33-.08.74-.166 1.23-.256.5-.1 1.07-.15 1.72-.15.6 0 1.14.094 1.62.284.48.19.89.46 1.23.81.34.35.6.78.78 1.29.19.5.28 1.064.28 1.694zm4.86-4.08c.12 0 .25.01.4.03.16.01.314.03.464.06.15.02.29.04.41.07.13.02.22.04.28.06l-.24 1.214a4.134 4.134 0 0 0-.553-.132 4.26 4.26 0 0 0-.97-.09c-.26 0-.52.03-.78.09-.25.05-.42.08-.5.1v6.557h-1.4v-7.47c.33-.12.74-.23 1.23-.33.49-.11 1.04-.166 1.65-.166zm2.483 4.08c0-.69.1-1.29.3-1.8.2-.52.47-.95.8-1.29.33-.34.71-.6 1.14-.77.43-.17.87-.256 1.32-.256 1.05 0 1.86.33 2.42.99.56.65.84 1.648.84 2.988v.24c0 .09-.01.17-.02.25h-5.34c.06.81.29 1.427.7 1.847.41.42 1.05.63 1.92.63.49 0 .9-.04 1.23-.12.34-.09.59-.176.76-.256l.2 1.17c-.17.09-.47.184-.9.284-.42.1-.9.15-1.44.15-.68 0-1.27-.1-1.77-.3-.49-.21-.89-.49-1.21-.85-.32-.36-.56-.78-.72-1.27-.15-.5-.22-1.04-.22-1.63zm5.36-.77c.01-.63-.15-1.146-.48-1.546-.32-.41-.76-.612-1.33-.612-.32 0-.61.06-.86.19-.24.12-.45.28-.62.48-.17.2-.31.43-.41.69-.09.26-.15.527-.18.797h3.87zm6.1 3.643c.33 0 .62 0 .87-.01.26-.02.48-.05.65-.09v-2.33c-.1-.05-.27-.09-.5-.12-.22-.04-.49-.06-.81-.06-.21 0-.43.016-.67.046-.23.03-.44.097-.64.197-.19.09-.35.22-.48.39-.13.16-.19.38-.19.65 0 .5.16.85.48 1.05.32.19.76.285 1.31.285zm-.12-6.99c.56 0 1.03.08 1.41.23.39.14.7.344.93.614.24.26.41.58.51.95.1.36.15.76.15 1.2V183c-.12.02-.29.05-.51.09-.21.03-.45.06-.72.09-.27.03-.56.056-.88.076-.31.03-.62.045-.93.045-.44 0-.85-.04-1.22-.13s-.69-.23-.96-.42c-.27-.2-.48-.46-.63-.78-.15-.32-.22-.7-.22-1.15 0-.43.09-.8.26-1.11.18-.31.42-.56.72-.75.3-.19.65-.33 1.05-.42.4-.09.82-.13 1.26-.13.14 0 .29.01.44.03.15.01.29.03.42.06.14.02.26.04.36.06.1.02.17.04.21.05v-.39c0-.23-.02-.45-.07-.67-.05-.23-.14-.43-.27-.6-.13-.18-.31-.32-.54-.42-.22-.11-.51-.16-.87-.16-.46 0-.86.04-1.21.11-.34.06-.59.13-.76.2l-.16-1.15c.18-.08.48-.15.9-.22.42-.08.88-.12 1.37-.12zm10.35 1.85c-.17-.14-.41-.276-.73-.406s-.67-.19-1.05-.19c-.4 0-.74.08-1.03.23-.28.14-.51.34-.69.6-.18.25-.31.55-.39.9-.08.35-.12.73-.12 1.13 0 .91.23 1.62.68 2.12.45.49 1.05.74 1.8.74.38 0 .7-.01.95-.04.26-.04.46-.08.6-.12V177zm0-5.25l1.4-.24V182.9c-.32.09-.73.18-1.23.27-.5.09-1.07.136-1.72.136-.6 0-1.14-.096-1.62-.286-.48-.19-.89-.46-1.23-.81a3.66 3.66 0 0 1-.79-1.273c-.18-.51-.27-1.08-.27-1.71 0-.6.08-1.15.23-1.65.16-.5.39-.93.69-1.29.3-.36.66-.64 1.09-.84.44-.2.94-.3 1.5-.3.45 0 .85.06 1.19.18.35.12.61.236.78.346v-3.947zm5.21 11.4h-1.4v-7.8h1.4v7.8zm-.71-9.21c-.25 0-.46-.08-.64-.24-.17-.17-.25-.396-.25-.676s.09-.5.26-.66c.18-.17.4-.25.65-.25s.46.09.63.26c.18.16.27.38.27.66s-.09.51-.27.68c-.17.16-.38.24-.63.24zm3.12 1.633c.32-.08.75-.163 1.28-.253s1.14-.132 1.83-.132c.62 0 1.14.09 1.55.27.41.17.74.42.98.74.25.31.43.687.53 1.127.1.44.15.924.15 1.454v4.38h-1.39v-4.08c0-.48-.03-.89-.1-1.23-.06-.34-.16-.61-.31-.82-.15-.21-.35-.36-.6-.45-.25-.1-.56-.15-.93-.15a6.518 6.518 0 0 0-.93.057c-.14.01-.27.025-.39.045l-.24.046v6.586h-1.4v-7.576zm13.51 6.797c-.12.08-.35.188-.7.318-.34.12-.74.18-1.2.18-.47 0-.92-.07-1.34-.22-.41-.15-.77-.38-1.08-.69-.31-.32-.56-.713-.74-1.183-.18-.47-.27-1.03-.27-1.68 0-.57.08-1.09.25-1.56.17-.48.42-.89.74-1.23.33-.35.73-.62 1.2-.81.47-.2 1-.3 1.59-.3.65 0 1.22.05 1.7.15.49.09.9.174 1.23.254v6.96c0 1.2-.31 2.07-.93 2.61-.62.54-1.56.81-2.82.81a8.106 8.106 0 0 1-2.52-.4l.26-1.218c.28.11.62.205 1.02.285.41.09.83.135 1.27.135.83 0 1.43-.164 1.79-.494.37-.33.56-.854.56-1.574v-.33zm-.01-5.79c-.14-.04-.33-.072-.57-.102-.23-.04-.55-.06-.95-.06-.75 0-1.33.25-1.74.74-.4.49-.6 1.14-.6 1.95 0 .45.05.837.16 1.157.12.32.27.584.46.794.2.21.43.37.68.47.26.1.53.15.8.15.37 0 .71-.05 1.02-.15.31-.11.56-.238.74-.378v-4.56zm8.55-1.23h2.96v1.17h-2.95v3.6c0 .39.03.718.09.978.06.25.15.45.27.6.12.14.27.24.45.3s.39.09.63.09c.42 0 .75-.04 1-.13.26-.1.44-.17.54-.21l.27 1.157c-.14.07-.38.154-.73.254-.35.11-.75.17-1.2.17-.53 0-.97-.068-1.32-.198a1.99 1.99 0 0 1-.83-.615c-.21-.27-.36-.6-.45-.99-.08-.4-.12-.86-.12-1.38v-6.96l1.4-.24v2.415zm4.73 7.8v-11.4l1.4-.24v3.99c.26-.1.54-.172.83-.222.3-.06.59-.09.88-.09.62 0 1.14.09 1.55.27.41.17.73.42.97.74.25.31.43.687.53 1.127.1.44.15.924.15 1.454v4.38h-1.4v-4.08c0-.48-.03-.89-.1-1.23-.06-.34-.17-.61-.32-.82-.15-.21-.35-.36-.6-.45-.25-.1-.56-.15-.93-.15-.15 0-.3.01-.46.03-.16.02-.32.042-.47.072-.14.02-.27.045-.39.075-.11.03-.19.055-.24.075v6.48H177zm8.12-3.883c0-.69.1-1.29.3-1.8.2-.52.47-.95.8-1.29.33-.34.71-.594 1.14-.764.43-.17.87-.255 1.32-.255 1.05 0 1.86.33 2.42.99.56.65.84 1.647.84 2.987v.24c0 .09-.01.17-.02.25h-5.34c.06.81.3 1.425.71 1.845.41.42 1.05.63 1.92.63.49 0 .9-.04 1.23-.12.34-.09.59-.174.76-.254l.2 1.17c-.17.09-.47.184-.9.284-.42.1-.9.15-1.44.15-.68 0-1.27-.1-1.77-.3-.49-.21-.9-.495-1.22-.855-.32-.36-.56-.785-.72-1.275-.15-.5-.22-1.044-.22-1.634zm5.36-.764c.01-.63-.15-1.145-.48-1.545-.32-.41-.76-.613-1.33-.613-.32 0-.61.06-.86.19-.24.12-.44.28-.61.48-.17.2-.31.43-.41.69-.09.26-.15.525-.18.795h3.87zm10.31 4.83c-.63 0-1.18-.1-1.66-.3-.47-.2-.87-.48-1.2-.84-.32-.36-.56-.785-.72-1.275-.16-.5-.24-1.05-.24-1.65 0-.6.09-1.15.26-1.65.18-.5.43-.93.75-1.29.32-.37.71-.653 1.17-.853.47-.21.99-.32 1.56-.32.35 0 .7.03 1.05.09.35.06.68.155 1 .285l-.31 1.186c-.21-.1-.46-.18-.74-.24-.27-.06-.56-.09-.87-.09-.78 0-1.38.244-1.8.734-.41.49-.62 1.205-.62 2.145 0 .42.05.805.14 1.155.1.35.25.65.45.9.21.25.48.446.8.586.32.13.71.198 1.17.198.37 0 .71-.03 1.01-.1.3-.07.54-.14.71-.22l.2 1.17c-.08.05-.19.1-.34.15-.15.04-.32.08-.51.11-.19.04-.39.07-.61.09-.21.03-.42.05-.62.05zm10.26-4.08c0 .62-.09 1.18-.27 1.68-.18.5-.43.93-.76 1.29-.32.36-.71.64-1.16.84-.45.19-.94.285-1.47.285s-1.02-.093-1.47-.283c-.45-.2-.84-.48-1.17-.84-.32-.36-.57-.79-.75-1.29-.18-.5-.27-1.06-.27-1.68 0-.61.09-1.17.27-1.67.18-.51.43-.945.75-1.305.33-.36.72-.634 1.17-.824.45-.2.94-.3 1.47-.3s1.02.1 1.47.3c.45.19.84.464 1.16.824.33.36.59.795.77 1.305.18.5.27 1.055.27 1.665zm-1.45 0c0-.88-.2-1.575-.6-2.085-.39-.52-.93-.78-1.61-.78s-1.22.26-1.62.78c-.39.51-.58 1.207-.58 2.087 0 .88.2 1.58.59 2.1.4.51.94.76 1.62.76.68 0 1.22-.255 1.61-.765.4-.52.6-1.22.6-2.1zm5.23 2.894c.57 0 .99-.07 1.26-.22.28-.15.42-.39.42-.72a.96.96 0 0 0-.41-.81c-.27-.2-.71-.422-1.33-.672-.3-.12-.59-.24-.87-.36-.27-.13-.5-.28-.7-.45-.2-.17-.36-.374-.48-.614s-.18-.534-.18-.884c0-.69.26-1.232.77-1.632.51-.41 1.2-.616 2.08-.616.22 0 .44.015.66.045.22.02.43.05.62.09.19.03.35.07.49.11.15.04.26.08.34.11l-.26 1.2c-.15-.08-.39-.16-.71-.24-.32-.09-.71-.13-1.16-.13-.39 0-.73.08-1.02.24-.29.15-.43.39-.43.72 0 .17.03.32.09.45.07.13.17.25.3.36.14.1.31.2.51.29.2.09.44.19.72.29.37.14.7.28.99.42.29.13.53.29.73.47.21.18.37.4.48.66.11.25.17.56.17.93 0 .72-.27 1.26-.81 1.63-.53.37-1.29.55-2.28.55-.69 0-1.23-.06-1.62-.18-.39-.11-.65-.2-.79-.26l.25-1.2c.16.06.42.15.77.27.35.12.81.18 1.39.18zm6.17-6.79h2.95v1.17h-2.95v3.6c0 .39.03.718.09.978.06.25.15.45.27.6.12.14.27.24.45.3s.39.09.63.09c.42 0 .76-.044 1.01-.134.26-.1.44-.17.54-.21l.27 1.156c-.14.07-.38.158-.73.258-.35.11-.75.164-1.2.164-.53 0-.97-.065-1.32-.195a1.98 1.98 0 0 1-.83-.61c-.21-.27-.36-.6-.45-.99-.08-.4-.12-.86-.12-1.38v-6.96l1.4-.24v2.42zm15.07 3.9c0 .62-.09 1.18-.27 1.68-.18.5-.44.93-.77 1.29-.32.36-.7.64-1.15.84-.45.19-.94.288-1.47.288s-1.02-.094-1.47-.284c-.45-.2-.84-.48-1.17-.84-.32-.36-.57-.79-.75-1.29-.18-.5-.27-1.06-.27-1.68 0-.61.09-1.164.27-1.664.18-.51.43-.942.75-1.302.33-.36.72-.636 1.17-.826.45-.2.94-.3 1.47-.3s1.02.1 1.47.3c.45.19.84.465 1.16.825.33.36.59.8.77 1.31.18.5.27 1.06.27 1.67zm-1.46 0c0-.88-.2-1.572-.6-2.082-.39-.52-.92-.78-1.6-.78s-1.22.26-1.62.78c-.39.51-.58 1.206-.58 2.086 0 .88.2 1.58.59 2.1.4.51.94.766 1.62.766.68 0 1.22-.252 1.61-.762.4-.52.6-1.22.6-2.1zm6.47-7.74c.41 0 .76.03 1.05.09.3.06.51.118.63.168l-.26 1.2c-.12-.06-.29-.114-.51-.164-.22-.06-.49-.09-.81-.09-.65 0-1.11.18-1.37.54-.26.35-.39.826-.39 1.426v.678h3v1.17h-3v6.63H238v-8.506c0-1 .246-1.77.736-2.31.49-.55 1.26-.825 2.31-.825zm5.77 7.757c0-.69.1-1.29.3-1.8.2-.52.47-.95.8-1.29.33-.34.71-.59 1.14-.76.43-.17.87-.25 1.32-.25 1.05 0 1.86.33 2.42.99.56.65.84 1.65.84 2.99v.24c0 .09 0 .18-.01.26h-5.34c.06.81.29 1.43.7 1.85.41.42 1.05.63 1.92.63.49 0 .9-.04 1.23-.12.34-.09.59-.17.76-.25l.19 1.17c-.17.09-.47.19-.9.29-.42.1-.9.15-1.44.15-.68 0-1.27-.1-1.77-.3-.49-.21-.89-.49-1.21-.85-.32-.36-.56-.78-.72-1.27-.15-.5-.22-1.04-.22-1.63zm5.36-.76c.01-.63-.15-1.14-.48-1.54-.32-.41-.76-.61-1.33-.61-.32 0-.6.07-.85.2-.24.12-.45.28-.62.48-.17.2-.31.43-.41.69-.09.26-.15.53-.18.8h3.87zm8.13 4.65c-.11-.22-.25-.46-.41-.73-.16-.27-.33-.54-.52-.82-.19-.29-.38-.57-.58-.85-.2-.28-.39-.54-.58-.79-.19.25-.39.52-.59.81-.2.28-.39.57-.58.86-.18.28-.35.56-.51.83-.16.27-.29.51-.4.72h-1.44c.35-.68.77-1.37 1.25-2.07.49-.71.98-1.38 1.46-2.02l-2.58-3.7h1.58l1.86 2.73 1.88-2.73h1.49L259.1 179c.48.65.97 1.34 1.47 2.07.51.72.94 1.43 1.29 2.12h-1.53zm8.42-3.88c0-.91-.22-1.61-.67-2.1-.45-.49-1.05-.73-1.8-.73-.42 0-.75.02-.99.05-.23.03-.41.07-.55.11v4.92c.17.14.42.28.74.41s.67.2 1.05.2c.4 0 .74-.07 1.02-.21.29-.15.53-.35.71-.6.18-.26.31-.56.39-.9.08-.35.12-.72.12-1.12zm1.46 0c0 .59-.08 1.14-.24 1.64-.15.5-.37.93-.67 1.29-.3.36-.67.64-1.11.84-.43.2-.92.3-1.48.3-.45 0-.85-.06-1.2-.18-.34-.12-.59-.23-.76-.34v3.12h-1.39v-10.34c.33-.08.74-.16 1.23-.25.5-.1 1.08-.15 1.73-.15.6 0 1.14.1 1.62.29.48.19.89.46 1.23.81.34.35.6.78.78 1.29.19.5.29 1.07.29 1.7zm1.55 0c0-.69.1-1.29.3-1.8.2-.52.46-.95.79-1.29.33-.34.71-.59 1.14-.76.43-.17.87-.25 1.32-.25 1.05 0 1.85.33 2.41.99.56.65.84 1.65.84 2.99v.24c0 .09 0 .18-.01.26h-5.34c.06.81.3 1.43.71 1.85.41.42 1.05.63 1.92.63.49 0 .9-.04 1.23-.12.34-.09.6-.17.77-.25l.2 1.17c-.17.09-.47.19-.9.29-.42.1-.9.15-1.44.15-.68 0-1.27-.1-1.77-.3-.49-.21-.89-.49-1.21-.85-.32-.36-.56-.78-.72-1.27-.15-.5-.22-1.04-.22-1.63zm5.35-.76c.01-.63-.15-1.14-.48-1.54-.32-.41-.77-.61-1.34-.61-.32 0-.6.07-.85.2-.24.12-.44.28-.61.48-.17.2-.3.43-.4.69-.09.26-.15.53-.18.8h3.87zm6.34-3.31c.12 0 .25.01.4.03.16.01.31.03.46.06.15.02.29.05.41.08.13.02.22.04.28.06l-.24 1.22c-.11-.04-.3-.08-.56-.13-.25-.06-.58-.09-.98-.09-.26 0-.52.03-.78.09-.25.05-.42.08-.5.1v6.56h-1.4v-7.47c.33-.12.74-.23 1.23-.33a7.57 7.57 0 0 1 1.65-.16zm4.22.17h2.96v1.17h-2.96v3.6c0 .39.03.72.09.98.06.25.15.45.27.6.12.14.27.24.45.3s.39.09.63.09c.42 0 .76-.04 1.01-.13.26-.1.44-.17.54-.21l.27 1.15c-.14.07-.39.16-.74.26-.35.11-.75.17-1.2.17-.53 0-.97-.06-1.32-.19-.34-.14-.61-.34-.82-.61-.21-.27-.36-.6-.45-.99-.08-.4-.12-.86-.12-1.38v-6.96l1.39-.24v2.42zm6.13 7.8h-1.4v-7.8h1.4v7.8zm-.71-9.21c-.25 0-.46-.08-.64-.24-.17-.17-.26-.39-.26-.67s.09-.5.26-.66c.18-.17.39-.25.64-.25s.46.08.63.25c.18.16.27.38.27.66s-.09.51-.27.68c-.17.16-.38.24-.63.24zm4.94 8.19c.57 0 .99-.07 1.26-.22.28-.15.42-.39.42-.72 0-.34-.13-.61-.4-.81-.27-.2-.71-.42-1.33-.67-.3-.12-.59-.24-.87-.36-.27-.13-.5-.28-.7-.45-.2-.17-.36-.37-.48-.61s-.18-.53-.18-.88c0-.69.25-1.23.76-1.63.51-.41 1.21-.61 2.09-.61.22 0 .44.01.66.04.22.02.43.05.62.09.19.03.35.07.49.11.15.04.27.08.35.11l-.252 1.2c-.15-.08-.38-.16-.7-.24-.32-.09-.7-.13-1.15-.13-.39 0-.73.08-1.02.24a.76.76 0 0 0-.44.72c0 .17.03.32.09.45.07.13.17.25.3.36.14.1.31.2.51.29.2.09.44.19.72.29.37.14.7.28.99.42.29.13.534.29.734.47.21.18.37.4.48.66.11.25.166.56.166.93 0 .72-.27 1.27-.81 1.64-.53.37-1.29.56-2.28.56-.69 0-1.23-.06-1.62-.18-.39-.11-.65-.19-.79-.25l.26-1.2c.16.06.41.15.76.27.35.12.82.18 1.4.18zm4.43-2.88c0-.69.1-1.29.3-1.8.2-.52.47-.95.8-1.29.33-.34.71-.59 1.14-.76.43-.17.87-.25 1.32-.25 1.05 0 1.86.33 2.42.99.56.65.84 1.65.84 2.99v.24c0 .09 0 .18-.01.26h-5.34c.06.81.29 1.43.7 1.85.41.42 1.05.63 1.92.63.49 0 .9-.04 1.23-.12.34-.09.6-.17.77-.25l.2 1.17c-.17.09-.47.18-.9.28-.42.1-.9.15-1.44.15-.68 0-1.27-.1-1.77-.3-.49-.21-.9-.49-1.22-.85-.32-.36-.56-.78-.72-1.27-.15-.5-.22-1.04-.22-1.63zm5.36-.76c.01-.63-.15-1.14-.48-1.54-.32-.41-.76-.61-1.33-.61-.32 0-.6.07-.85.2-.24.12-.45.28-.62.48-.17.2-.3.43-.4.69-.09.26-.15.53-.18.8h3.87zm9.56 3.65c.33 0 .62 0 .87-.01.26-.02.48-.05.65-.09v-2.32c-.1-.05-.26-.09-.49-.12-.22-.04-.49-.06-.81-.06-.21 0-.43.01-.67.04-.23.03-.45.1-.65.2-.19.09-.35.22-.48.39-.13.16-.19.38-.19.65 0 .5.16.85.48 1.05.32.19.75.29 1.3.29zm-.12-6.99c.56 0 1.03.08 1.41.23.39.14.7.34.93.61.24.26.41.58.51.95.1.36.15.76.15 1.2V183c-.12.02-.29.05-.51.09-.21.03-.45.06-.72.09-.27.03-.56.056-.88.076-.31.03-.62.045-.93.045-.44 0-.84-.04-1.21-.13s-.69-.23-.96-.42c-.27-.2-.48-.46-.63-.78-.15-.32-.22-.7-.22-1.15 0-.43.08-.8.25-1.11.18-.31.42-.56.72-.75.3-.19.65-.33 1.05-.42.4-.09.82-.13 1.26-.13.14 0 .29.01.44.03.15.01.29.03.42.06.14.02.26.04.36.06.1.02.17.04.21.05v-.39c0-.23-.03-.45-.08-.67-.05-.23-.14-.43-.27-.6-.13-.18-.31-.32-.54-.42-.22-.11-.51-.16-.87-.16-.46 0-.87.04-1.22.11-.34.06-.59.13-.76.2l-.16-1.15c.18-.08.48-.15.9-.22.42-.08.878-.12 1.368-.12zm5.31.42c.32-.08.74-.16 1.27-.25s1.14-.14 1.83-.14c.62 0 1.14.09 1.55.27.41.17.73.42.97.74.25.31.42.69.52 1.13.1.44.15.93.15 1.46v4.38h-1.39v-4.08c0-.48-.04-.89-.11-1.23-.06-.34-.16-.62-.31-.83-.15-.21-.35-.36-.6-.45-.25-.1-.56-.15-.93-.15-.15 0-.31.01-.47.02-.16.01-.31.02-.46.04-.14.01-.27.03-.39.05l-.24.05v6.59h-1.39v-7.57zm13.65 1.43c-.17-.14-.41-.28-.73-.41-.32-.13-.67-.19-1.05-.19-.4 0-.74.08-1.03.23-.28.14-.51.34-.69.6-.18.25-.31.55-.39.9-.08.35-.12.73-.12 1.13 0 .91.23 1.61.68 2.11.45.49 1.05.74 1.8.74.38 0 .7-.02.95-.05.26-.04.46-.08.6-.12V177zm0-5.25l1.4-.24v11.41c-.32.09-.73.18-1.23.27-.5.09-1.07.14-1.72.14-.6 0-1.14-.09-1.62-.28-.48-.19-.89-.46-1.23-.81-.34-.35-.61-.77-.8-1.27-.18-.51-.27-1.08-.27-1.71 0-.6.08-1.15.23-1.65.16-.5.39-.93.69-1.29.3-.36.67-.64 1.1-.84.44-.2.94-.3 1.5-.3.45 0 .85.06 1.19.18.35.12.61.23.78.34v-3.94zM99.3 200.13c.33 0 .62-.004.87-.014.26-.02.476-.05.646-.09V197.7c-.1-.05-.265-.09-.495-.12-.22-.04-.49-.06-.81-.06-.21 0-.43.016-.67.046-.23.03-.44.095-.64.195-.19.09-.35.22-.48.39-.13.16-.19.38-.19.65 0 .5.16.85.48 1.05.32.19.76.29 1.31.29zm-.12-6.99c.56 0 1.03.076 1.41.226.39.14.7.345.93.615.24.26.41.58.51.95.1.36.15.76.15 1.2V201c-.12.02-.29.05-.51.09-.21.03-.45.06-.72.09-.27.03-.564.056-.884.076-.31.03-.62.045-.93.045-.44 0-.845-.04-1.215-.13a2.8 2.8 0 0 1-.96-.42c-.27-.2-.48-.46-.63-.78-.15-.32-.22-.7-.22-1.15 0-.43.09-.8.26-1.11.18-.31.42-.56.72-.75.3-.19.65-.33 1.05-.42.4-.09.82-.13 1.26-.13.14 0 .29.01.44.03.15.01.29.03.42.06.14.02.26.04.36.06.1.02.17.04.21.05v-.39c0-.23-.02-.45-.07-.67-.05-.23-.14-.43-.27-.6-.13-.18-.31-.32-.54-.42-.22-.11-.51-.16-.87-.16-.46 0-.86.04-1.21.11-.34.06-.59.13-.76.2l-.16-1.15c.18-.08.48-.15.9-.22.42-.08.88-.12 1.37-.12zm5.303.42c.32-.08.74-.164 1.26-.254.53-.09 1.14-.135 1.83-.135.5 0 .92.07 1.26.21.34.13.625.33.855.59.07-.05.18-.12.33-.21.15-.09.335-.17.555-.25.22-.09.465-.16.735-.22.27-.07.56-.1.87-.1.6 0 1.09.09 1.47.27.38.17.675.42.885.74.22.32.365.7.435 1.14.08.44.12.92.12 1.44v4.38h-1.395v-4.08c0-.46-.025-.85-.075-1.18-.04-.33-.125-.6-.255-.82-.12-.22-.29-.38-.51-.48-.21-.11-.485-.16-.825-.16-.47 0-.86.07-1.17.2-.3.12-.505.23-.615.33.08.26.14.55.18.86.04.31.06.64.06.98v4.38h-1.395v-4.08c0-.46-.025-.85-.075-1.18-.05-.33-.14-.6-.27-.82-.12-.22-.29-.38-.51-.48-.21-.11-.48-.16-.81-.16-.14 0-.29.01-.45.02-.16.01-.315.03-.465.05a4.132 4.132 0 0 0-.63.1v6.59h-1.395v-7.58zm18.335 3.69c0-.91-.225-1.61-.675-2.1-.45-.49-1.05-.734-1.8-.734-.42 0-.75.015-.99.045-.23.03-.415.07-.555.11v4.92c.17.14.415.28.735.41s.67.2 1.05.2c.4 0 .74-.07 1.02-.21.29-.15.525-.35.705-.6.18-.26.31-.56.39-.9.08-.35.12-.72.12-1.12zm1.455 0c0 .59-.08 1.136-.24 1.636-.15.5-.375.93-.675 1.29-.3.36-.67.64-1.11.84-.43.2-.925.3-1.485.3-.45 0-.85-.06-1.2-.18-.34-.12-.595-.235-.765-.345v3.12h-1.395v-10.33c.33-.08.74-.16 1.23-.25.5-.1 1.075-.15 1.725-.15.6 0 1.14.1 1.62.29.48.19.89.46 1.23.81.34.35.6.78.78 1.29.19.5.285 1.07.285 1.7zm4.317 4.036c-.86-.02-1.47-.205-1.83-.555-.36-.35-.54-.89-.54-1.63v-9.36l1.396-.24v9.38c0 .23.02.42.06.57.04.15.105.27.195.36.09.09.21.16.36.21.15.04.34.08.56.11l-.19 1.17zm3.157-.15h-1.395v-7.8h1.395v7.8zm-.705-9.21a.938.938 0 0 1-.645-.24c-.17-.17-.255-.395-.255-.675s.085-.5.255-.66c.18-.17.395-.25.645-.25s.46.09.63.26c.18.16.27.38.27.66s-.09.51-.27.68c-.17.16-.38.24-.63.24zm6.164-2.43c.35 0 .65.025.9.075.25.04.43.08.54.12l-.195 1.2c-.11-.04-.26-.08-.45-.12-.19-.05-.42-.07-.69-.07-.65 0-1.1.18-1.36.54-.26.35-.39.83-.39 1.43v.68h3v1.17h-3v6.63h-1.39v-8.5c0-1 .25-1.77.74-2.31.49-.55 1.26-.82 2.31-.82zm4.2 11.64h-1.395v-7.8h1.4v7.8zm-.705-9.21c-.25 0-.46-.08-.64-.24-.17-.17-.25-.395-.25-.675s.09-.5.26-.66c.18-.17.4-.25.65-.25s.46.09.63.26c.18.16.27.38.27.66s-.09.51-.27.68c-.17.16-.38.24-.63.24zm2.67 5.324c0-.69.1-1.29.3-1.8.2-.52.47-.95.8-1.29.33-.34.71-.594 1.14-.764.43-.17.87-.255 1.32-.255 1.05 0 1.86.33 2.42.99.56.65.84 1.65.84 2.99v.24c0 .09 0 .18-.01.26h-5.34c.06.81.3 1.43.71 1.85.41.42 1.05.63 1.92.63.49 0 .9-.04 1.23-.12.34-.09.6-.17.77-.25l.2 1.17c-.17.09-.47.19-.9.29-.42.1-.9.15-1.44.15-.68 0-1.27-.1-1.77-.3-.49-.21-.89-.49-1.21-.85-.32-.36-.56-.78-.72-1.27-.15-.5-.22-1.04-.22-1.63zm5.36-.764c.01-.63-.15-1.145-.48-1.545-.32-.41-.76-.61-1.33-.61-.32 0-.6.07-.85.2-.24.12-.44.28-.61.48-.17.2-.3.43-.4.69-.09.26-.15.53-.18.8h3.87zm5.27 3.644c.57 0 .99-.074 1.26-.224.28-.15.42-.39.42-.72 0-.34-.13-.61-.4-.81-.27-.2-.71-.425-1.33-.675-.3-.12-.59-.24-.87-.36-.27-.13-.5-.28-.7-.45-.2-.17-.36-.37-.48-.61s-.18-.53-.18-.88c0-.69.26-1.23.77-1.63.51-.41 1.21-.61 2.09-.61.22 0 .44.02.66.05.22.02.43.05.62.09.19.03.36.07.5.11.15.04.27.08.35.11l-.25 1.2c-.15-.08-.38-.16-.7-.24-.32-.09-.71-.13-1.16-.13-.39 0-.73.08-1.02.24-.29.15-.43.39-.43.72 0 .17.03.32.09.45.07.13.17.25.3.36.14.1.31.2.51.29.2.09.44.19.72.29.37.14.7.28.99.42.29.13.54.29.74.47.21.18.37.4.48.66.11.25.16.56.16.93 0 .72-.27 1.27-.81 1.64-.53.37-1.29.56-2.28.56-.69 0-1.23-.06-1.62-.18-.39-.11-.65-.19-.79-.25l.26-1.2c.16.06.42.15.77.27.35.12.81.18 1.39.18zm9.63-6.794h2.96v1.17h-2.95v3.6c0 .39.03.715.09.975.06.25.15.45.27.6.12.14.27.24.45.3s.39.09.63.09c.42 0 .76-.04 1.01-.13.26-.1.44-.17.54-.21l.27 1.16c-.14.07-.38.16-.73.26-.35.11-.75.17-1.2.17-.53 0-.97-.06-1.32-.19-.34-.14-.61-.34-.82-.61-.21-.27-.36-.6-.45-.99-.08-.4-.12-.86-.12-1.38v-6.96l1.4-.24v2.42zm4.73 7.8v-11.4l1.4-.24v3.99c.26-.1.54-.175.83-.225.3-.06.6-.09.89-.09.62 0 1.14.09 1.55.27.41.17.74.42.98.74.25.31.43.69.53 1.13.1.44.15.93.15 1.46v4.38h-1.39v-4.08c0-.48-.03-.89-.1-1.23-.06-.34-.16-.61-.31-.82-.15-.21-.35-.36-.6-.45-.25-.1-.56-.15-.93-.15-.15 0-.3.01-.46.03-.16.02-.31.05-.46.08-.14.02-.27.05-.39.08-.11.03-.19.06-.24.08v6.48h-1.4zm8.12-3.886c0-.69.1-1.29.3-1.8.2-.52.47-.95.8-1.29.33-.34.71-.594 1.14-.764.43-.17.87-.255 1.32-.255 1.05 0 1.86.33 2.42.99.56.65.84 1.65.84 2.99v.24c0 .09 0 .18-.01.26h-5.34c.06.81.3 1.43.71 1.85.41.42 1.05.63 1.92.63.49 0 .9-.04 1.23-.12.34-.09.6-.17.77-.25l.2 1.17c-.17.09-.47.19-.9.29-.42.1-.9.15-1.44.15-.68 0-1.27-.1-1.77-.3-.49-.21-.89-.49-1.21-.85-.32-.36-.56-.78-.72-1.27-.15-.5-.22-1.04-.22-1.63zm5.36-.764c.01-.63-.15-1.145-.48-1.545-.32-.41-.76-.61-1.33-.61-.32 0-.6.07-.85.2-.24.12-.44.28-.61.48-.17.2-.3.43-.4.69-.09.26-.15.53-.18.8h3.87zm12.33.764c0-.91-.22-1.61-.67-2.1-.45-.49-1.05-.734-1.8-.734-.42 0-.75.015-.99.045-.23.03-.41.07-.55.11v4.92c.17.14.42.28.74.41s.67.2 1.05.2c.4 0 .74-.07 1.02-.21.29-.15.53-.35.71-.6.18-.26.31-.56.39-.9.08-.35.12-.72.12-1.12zm1.46 0c0 .59-.08 1.136-.24 1.636-.15.5-.37.93-.67 1.29-.3.36-.67.64-1.11.84-.43.2-.92.3-1.48.3-.45 0-.85-.06-1.2-.18-.34-.12-.59-.235-.76-.345v3.12h-1.39v-10.33c.33-.08.74-.16 1.23-.25.5-.1 1.08-.15 1.73-.15.6 0 1.14.1 1.62.29.48.19.89.46 1.23.81.34.35.6.78.78 1.29.19.5.29 1.07.29 1.7zm8.87-.014c0 .62-.09 1.18-.27 1.68-.18.5-.43.93-.76 1.29-.32.36-.7.64-1.15.84-.45.19-.94.285-1.47.285s-1.02-.09-1.47-.28c-.45-.2-.84-.48-1.17-.84-.32-.36-.57-.79-.75-1.29-.18-.5-.27-1.06-.27-1.68 0-.61.09-1.16.27-1.66.18-.51.43-.94.75-1.3.33-.36.72-.63 1.17-.82.45-.2.94-.3 1.47-.3s1.02.1 1.47.3c.45.19.84.47 1.16.83.33.36.58.8.76 1.31.18.5.27 1.06.27 1.67zm-1.45 0c0-.88-.2-1.575-.6-2.085-.39-.52-.92-.78-1.6-.78s-1.22.26-1.62.78c-.39.51-.58 1.21-.58 2.09 0 .88.19 1.58.58 2.1.4.51.94.77 1.62.77.68 0 1.22-.25 1.61-.76.4-.52.6-1.22.6-2.1zm9.59 3.9c-.28-.72-.58-1.54-.9-2.46-.31-.93-.59-1.895-.85-2.895-.26 1-.54 1.97-.85 2.9-.31.92-.6 1.74-.88 2.46h-1.22c-.46-1.03-.91-2.2-1.35-3.52a61.79 61.79 0 0 1-1.24-4.27h1.5c.1.47.22.98.36 1.53.14.55.29 1.1.44 1.65.16.55.33 1.08.5 1.59.17.51.33.96.48 1.34.17-.47.34-.96.5-1.48.17-.53.33-1.06.48-1.59.15-.54.29-1.06.42-1.57.14-.52.26-1 .36-1.45h1.16c.09.45.2.94.33 1.46.13.51.27 1.04.42 1.58.15.53.31 1.06.47 1.59.17.52.34 1.02.51 1.49.15-.38.3-.82.46-1.33a42.987 42.987 0 0 0 .95-3.24c.14-.55.26-1.06.36-1.53h1.44c-.39 1.53-.8 2.96-1.24 4.28-.44 1.32-.89 2.5-1.35 3.53h-1.21zm4.85-3.886c0-.69.1-1.29.3-1.8.2-.52.47-.95.8-1.29.33-.34.71-.594 1.14-.764.43-.17.87-.255 1.32-.255 1.05 0 1.86.33 2.42.99.56.65.84 1.65.84 2.99v.24c0 .09 0 .18-.01.26h-5.34c.06.81.3 1.43.71 1.85.41.42 1.05.63 1.92.63.49 0 .9-.04 1.23-.12.34-.09.6-.17.77-.25l.2 1.17c-.17.09-.47.19-.9.29-.42.1-.9.15-1.44.15-.68 0-1.27-.1-1.77-.3-.49-.21-.9-.49-1.22-.85-.32-.36-.56-.78-.72-1.27-.15-.5-.23-1.04-.23-1.63zm5.36-.764c.01-.63-.15-1.145-.48-1.545-.32-.41-.76-.61-1.33-.61-.32 0-.6.07-.85.2-.24.12-.44.28-.61.48-.17.2-.3.43-.4.69-.09.26-.15.53-.18.8h3.87zm6.34-3.316c.12 0 .26.01.41.03.16.01.32.03.47.06.15.02.29.046.41.076.13.02.23.04.29.06l-.24 1.215c-.11-.04-.29-.08-.55-.13-.25-.06-.58-.09-.98-.09-.26 0-.52.03-.78.09-.25.05-.41.09-.49.11v6.56h-1.4v-7.47c.33-.12.74-.23 1.23-.33a7.57 7.57 0 0 1 1.65-.16zm13.27 4.066c0 .62-.09 1.18-.27 1.68-.18.5-.43.93-.76 1.29-.32.36-.7.64-1.15.84-.45.19-.94.285-1.47.285s-1.02-.09-1.47-.28c-.45-.2-.84-.48-1.17-.84-.32-.36-.57-.79-.75-1.29-.18-.5-.27-1.06-.27-1.68 0-.61.09-1.16.27-1.66.18-.51.43-.94.75-1.3.33-.36.72-.63 1.17-.82.45-.2.94-.3 1.47-.3s1.02.1 1.47.3c.45.19.84.47 1.16.83.33.36.59.8.77 1.31.18.5.27 1.06.27 1.67zm-1.45 0c0-.88-.2-1.575-.6-2.085-.39-.52-.92-.78-1.6-.78s-1.22.26-1.62.78c-.39.51-.58 1.21-.58 2.09 0 .88.2 1.58.59 2.1.4.51.94.77 1.62.77.68 0 1.22-.25 1.61-.76.4-.52.6-1.22.6-2.1zm6.46-7.74c.41 0 .76.03 1.05.09.3.06.51.115.63.165l-.25 1.2a2.38 2.38 0 0 0-.51-.16c-.22-.06-.49-.09-.81-.09-.65 0-1.11.18-1.37.54-.26.35-.39.83-.39 1.43v.68h3v1.17h-3v6.63h-1.4v-8.5c0-1 .24-1.77.73-2.31.49-.55 1.26-.82 2.31-.82zm5.3 13.094c.11.05.25.096.42.136.18.05.36.075.53.075.55 0 .98-.12 1.29-.37.31-.24.59-.63.84-1.18-.63-1.2-1.22-2.47-1.77-3.81-.54-1.35-.99-2.71-1.35-4.09h1.5c.11.45.24.94.39 1.46.16.52.34 1.06.53 1.61s.4 1.1.62 1.65c.22.55.45 1.08.69 1.59.38-1.05.71-2.09.99-3.12.28-1.03.54-2.09.79-3.18h1.44c-.36 1.47-.76 2.89-1.2 4.25a43.82 43.82 0 0 1-1.43 3.8c-.2.45-.41.84-.63 1.16-.21.33-.44.6-.7.81-.26.21-.55.37-.88.47-.32.1-.68.15-1.09.15-.11 0-.22-.01-.34-.03-.12-.01-.24-.03-.36-.06-.11-.02-.21-.04-.31-.07-.09-.03-.16-.05-.2-.07l.26-1.12zm15.24-5.354c0 .62-.09 1.18-.27 1.68-.18.5-.43.93-.76 1.29-.32.36-.7.64-1.15.84-.45.19-.94.285-1.47.285s-1.02-.09-1.47-.28c-.45-.2-.84-.48-1.17-.84-.32-.36-.57-.79-.75-1.29-.18-.5-.27-1.06-.27-1.68 0-.61.09-1.16.27-1.66.18-.51.43-.94.75-1.3.33-.36.72-.63 1.17-.82.45-.2.94-.3 1.47-.3s1.02.1 1.47.3c.45.19.84.47 1.16.83.33.36.59.8.77 1.31.18.5.27 1.06.27 1.67zm-1.45 0c0-.88-.2-1.575-.6-2.085-.39-.52-.92-.78-1.6-.78s-1.22.26-1.62.78c-.39.51-.58 1.21-.58 2.09 0 .88.2 1.58.59 2.1.4.51.94.77 1.62.77.68 0 1.22-.25 1.61-.76.4-.52.6-1.22.6-2.1zm9.63 3.674c-.32.08-.75.166-1.28.256-.52.09-1.12.135-1.81.135-.6 0-1.11-.08-1.52-.25-.41-.18-.74-.43-.99-.75s-.43-.69-.54-1.12c-.11-.44-.16-.92-.16-1.45v-4.38h1.4v4.08c0 .95.15 1.63.45 2.04.3.41.8.62 1.51.62.15 0 .31 0 .47-.01l.45-.03c.14-.02.27-.03.38-.04.12-.02.21-.04.26-.06v-6.58h1.4v7.58zm5.28-7.74c.12 0 .26.01.41.03.16.01.32.03.47.06.15.02.29.046.41.076.13.02.23.04.29.06l-.24 1.215c-.11-.04-.29-.08-.55-.13a4.26 4.26 0 0 0-.97-.09c-.26 0-.52.03-.78.09-.25.05-.41.09-.49.11v6.56h-1.39v-7.47c.33-.12.74-.23 1.23-.33a7.57 7.57 0 0 1 1.65-.16zm7.69.166h2.96v1.17h-2.96v3.6c0 .39.03.715.09.975.06.25.15.45.27.6.12.14.27.24.45.3s.39.09.63.09c.42 0 .75-.04 1-.13.26-.1.44-.17.54-.21l.27 1.16c-.14.07-.39.16-.74.26-.35.11-.75.17-1.2.17-.53 0-.97-.06-1.32-.19a1.98 1.98 0 0 1-.83-.61c-.21-.27-.36-.6-.45-.99-.08-.4-.12-.86-.12-1.38v-6.96l1.4-.24v2.42zm4.15 3.914c0-.69.1-1.29.3-1.8.2-.52.47-.95.8-1.29.33-.34.71-.594 1.14-.764.43-.17.87-.255 1.32-.255 1.05 0 1.86.33 2.42.99.56.65.84 1.65.84 2.99v.24c0 .09 0 .18-.01.26h-5.34c.06.81.3 1.43.71 1.85.41.42 1.05.63 1.92.63.49 0 .9-.04 1.23-.12.34-.09.6-.17.77-.25l.2 1.17c-.17.09-.47.19-.9.29-.42.1-.9.15-1.44.15-.68 0-1.27-.1-1.77-.3-.49-.21-.89-.49-1.21-.85-.32-.36-.56-.78-.72-1.27-.15-.5-.22-1.04-.22-1.63zm5.36-.764c.01-.63-.15-1.145-.48-1.545-.32-.41-.76-.61-1.33-.61-.32 0-.6.07-.85.2-.24.12-.44.28-.61.48-.17.2-.3.43-.4.69-.09.26-.15.53-.18.8h3.87zm6.1 3.644c.33 0 .62-.004.87-.014.26-.02.47-.05.64-.09V197.7c-.1-.05-.26-.09-.49-.12-.22-.04-.49-.06-.81-.06-.21 0-.43.016-.67.046-.23.03-.44.095-.64.195-.19.09-.35.22-.48.39-.13.16-.2.38-.2.65 0 .5.16.85.48 1.05.32.19.76.29 1.31.29zm-.12-6.99c.56 0 1.03.076 1.41.226.39.14.7.345.93.615.24.26.41.58.51.95.1.36.15.76.15 1.2V201c-.12.02-.29.05-.51.09-.21.03-.45.06-.72.09-.27.03-.57.056-.89.076-.31.03-.62.045-.93.045-.44 0-.84-.04-1.21-.13s-.69-.23-.96-.42c-.27-.2-.48-.46-.63-.78-.15-.32-.22-.7-.22-1.15 0-.43.09-.8.26-1.11.18-.31.42-.56.72-.75.3-.19.65-.33 1.05-.42.4-.09.82-.13 1.26-.13.14 0 .28.01.43.03.15.01.29.03.42.06.14.02.26.04.36.06.1.02.17.04.21.05v-.39c0-.23-.02-.45-.07-.67-.05-.23-.14-.43-.27-.6-.13-.18-.31-.32-.54-.42-.22-.11-.51-.16-.87-.16-.46 0-.86.04-1.21.11-.34.06-.59.13-.76.2l-.16-1.15c.18-.08.48-.15.9-.22.42-.08.87-.12 1.36-.12zm5.3.42c.32-.08.74-.164 1.26-.254.53-.09 1.14-.135 1.83-.135.5 0 .92.07 1.26.21.34.13.63.33.86.59a3.318 3.318 0 0 1 .89-.46c.22-.09.47-.16.74-.22.27-.07.56-.1.87-.1.6 0 1.09.09 1.47.27.38.17.68.42.89.74.22.32.37.7.44 1.14.08.44.12.92.12 1.44v4.38h-1.4v-4.08c0-.46-.02-.85-.07-1.18-.04-.33-.13-.6-.26-.82-.12-.22-.29-.38-.51-.48-.21-.11-.49-.16-.83-.16-.47 0-.86.07-1.17.2-.3.12-.5.23-.61.33.08.26.14.55.18.86.04.31.06.64.06.98v4.38h-1.4v-4.08c0-.46-.03-.85-.08-1.18-.05-.33-.14-.6-.27-.82-.12-.22-.29-.38-.51-.48-.21-.11-.48-.16-.81-.16-.14 0-.29.01-.45.02-.16.01-.32.03-.47.05a4.132 4.132 0 0 0-.63.1v6.59h-1.4v-7.58zm-177-184.77c0 .5-.05.966-.16 1.396-.1.43-.28.81-.55 1.14-.26.32-.61.575-1.06.765-.44.18-.99.27-1.66.27-.34 0-.65-.03-.94-.09-.28-.05-.53-.11-.76-.19-.23-.09-.43-.18-.6-.27-.17-.1-.3-.19-.4-.28l.57-1.15c.21.15.48.31.81.48.34.16.76.24 1.26.24.72 0 1.25-.18 1.58-.54.33-.37.5-1 .5-1.89V1.74h1.45v7.05zm8.63 3.12c-.32.08-.74.166-1.27.256-.52.09-1.12.135-1.81.135-.6 0-1.1-.08-1.51-.25-.41-.18-.74-.43-.99-.75s-.43-.69-.54-1.12c-.11-.44-.16-.92-.16-1.45V4.34h1.4v4.08c0 .95.15 1.63.45 2.04.3.41.81.614 1.52.614.15 0 .31-.004.47-.014l.45-.03c.14-.02.27-.036.38-.046.12-.02.2-.04.25-.06V4.337h1.4v7.575zm1.13 3.03c-.12 0-.27-.014-.46-.044s-.35-.07-.48-.12l.18-1.14c.1.03.22.055.35.075.13.02.25.03.36.03.48 0 .82-.15 1.02-.45.21-.29.31-.72.31-1.29V4.34h1.4v7.65c0 1-.23 1.74-.69 2.22-.45.49-1.11.735-1.98.735zm1.97-12.014c-.25 0-.46-.08-.64-.24-.17-.17-.26-.395-.26-.675s.09-.5.26-.66c.18-.17.4-.25.65-.25s.46.09.63.26c.18.16.27.38.27.66s-.09.51-.27.68c-.17.16-.38.24-.63.24zM154 11.91c-.32.08-.747.166-1.277.256-.52.09-1.13.135-1.82.135-.6 0-1.104-.08-1.514-.25-.41-.18-.74-.43-.99-.75s-.43-.69-.54-1.12c-.11-.44-.17-.92-.17-1.45V4.34h1.39v4.08c0 .95.15 1.63.45 2.04.3.41.8.614 1.51.614.15 0 .3-.004.46-.014l.45-.03c.14-.02.26-.036.37-.046.12-.02.2-.04.25-.06V4.337h1.39v7.575zm7.674-.78c.57 0 .99-.074 1.26-.224.28-.15.42-.39.42-.72a.96.96 0 0 0-.41-.81c-.27-.2-.715-.425-1.335-.675-.3-.12-.59-.24-.87-.36-.27-.13-.51-.28-.71-.45-.2-.17-.36-.37-.48-.61s-.18-.53-.18-.88c0-.69.25-1.23.76-1.63.51-.41 1.2-.61 2.08-.61.22 0 .44.02.66.05.22.02.42.05.61.09.19.03.35.07.49.11.15.04.26.08.34.11l-.26 1.2c-.15-.08-.39-.16-.71-.24-.32-.09-.71-.13-1.16-.13-.39 0-.73.08-1.02.24a.76.76 0 0 0-.44.72c0 .17.03.32.09.45.07.13.17.25.3.36.14.1.31.2.51.29.2.09.44.19.72.29.37.14.7.28.99.42.29.13.54.29.74.47.21.18.37.4.48.66.11.25.16.56.16.93 0 .72-.27 1.27-.81 1.64-.53.37-1.29.56-2.28.56-.69 0-1.23-.06-1.62-.18a8.28 8.28 0 0 1-.8-.25l.25-1.2c.16.06.42.15.77.27.35.12.81.18 1.39.18zm11.75-2.894c0 .62-.09 1.18-.27 1.68-.18.5-.44.93-.77 1.29-.32.36-.705.64-1.155.84-.45.19-.94.285-1.47.285s-1.02-.09-1.47-.28c-.45-.2-.84-.48-1.17-.84-.32-.36-.57-.79-.75-1.29-.18-.5-.27-1.06-.27-1.68 0-.61.09-1.16.27-1.66.18-.51.43-.94.75-1.3.33-.36.72-.63 1.17-.82.45-.2.94-.3 1.47-.3s1.02.1 1.47.3c.45.19.83.47 1.15.83.33.36.58.8.76 1.31.18.5.27 1.06.27 1.67zm-1.46 0c0-.88-.2-1.575-.6-2.085-.39-.52-.925-.78-1.605-.78s-1.22.26-1.62.78c-.39.51-.59 1.21-.59 2.09 0 .88.19 1.58.58 2.1.4.51.94.77 1.62.77.68 0 1.21-.25 1.6-.76.4-.52.6-1.22.6-2.1zm5.76 4.05c-.86-.02-1.47-.205-1.83-.555-.36-.35-.54-.89-.54-1.63V.74l1.394-.24v9.37c0 .23.02.42.06.57.04.15.105.27.195.36.09.09.21.16.36.21.15.04.336.076.556.106l-.2 1.17zm7.85-7.95c-.39 1.46-.85 2.86-1.38 4.2a62.66 62.66 0 0 1-1.515 3.6h-1.26c-.49-1.06-1-2.26-1.53-3.6a40.48 40.48 0 0 1-1.37-4.2h1.5c.12.49.26 1.015.42 1.575.17.55.34 1.1.52 1.65.19.54.38 1.07.57 1.58.19.51.37.97.54 1.37.17-.4.35-.85.54-1.36.19-.51.37-1.03.55-1.57.19-.55.36-1.1.52-1.65.17-.56.31-1.08.43-1.57h1.44zm.8 3.914c0-.69.1-1.29.3-1.8.2-.52.464-.95.794-1.29.33-.34.71-.594 1.14-.764.43-.17.87-.255 1.32-.255 1.05 0 1.855.33 2.415.99.56.65.84 1.65.84 2.99v.24c0 .09-.004.18-.014.26h-5.34c.06.81.29 1.43.7 1.85.41.42 1.05.63 1.92.63.49 0 .9-.04 1.23-.12.34-.09.59-.17.76-.25l.19 1.17c-.17.09-.47.19-.9.29-.42.1-.9.15-1.44.15-.68 0-1.27-.1-1.77-.3-.49-.21-.89-.49-1.21-.85-.32-.36-.56-.78-.72-1.27-.15-.5-.23-1.04-.23-1.63zm5.354-.764c.01-.63-.15-1.145-.48-1.545-.32-.41-.765-.61-1.335-.61-.32 0-.604.07-.854.2-.24.12-.45.28-.62.48-.17.2-.31.43-.41.69-.09.26-.15.53-.18.8h3.87zM197 11.13c.57 0 .99-.074 1.26-.224.28-.15.42-.39.42-.72 0-.34-.134-.61-.404-.81-.27-.2-.715-.425-1.335-.675-.3-.12-.59-.24-.87-.36-.27-.13-.5-.28-.7-.45-.2-.17-.36-.37-.48-.61s-.18-.53-.18-.88c0-.69.26-1.23.77-1.63.51-.41 1.21-.61 2.09-.61.22 0 .44.02.66.05.22.02.43.05.62.09.19.03.36.07.5.11.15.04.27.08.35.11l-.25 1.2c-.15-.08-.38-.16-.7-.24-.32-.09-.7-.13-1.15-.13-.39 0-.73.08-1.02.24-.29.15-.43.39-.43.72 0 .17.03.32.09.45.07.13.17.25.3.36.14.1.31.2.51.29.2.09.44.19.72.29.37.14.7.28.99.42.29.13.54.29.74.47.21.18.37.4.48.66.11.25.17.56.17.93 0 .72-.27 1.27-.81 1.64-.53.37-1.29.56-2.28.56-.69 0-1.23-.06-1.62-.18-.39-.11-.65-.19-.79-.25l.26-1.2c.16.06.42.15.77.27.35.12.82.18 1.4.18zm9.628-6.794h2.955v1.17h-2.955v3.6c0 .39.03.715.09.975.06.25.15.45.27.6.12.14.27.24.45.3s.39.09.63.09c.42 0 .755-.04 1.005-.13.26-.1.44-.17.54-.21l.27 1.16c-.14.07-.385.16-.735.26-.35.11-.75.17-1.2.17-.53 0-.97-.06-1.32-.19-.34-.14-.615-.34-.825-.61-.21-.27-.36-.6-.45-.99-.08-.4-.12-.86-.12-1.38V2.16l1.395-.24v2.416zm4.73 7.8V.736l1.395-.24v3.99c.26-.1.535-.175.825-.225.3-.06.595-.09.885-.09.62 0 1.135.09 1.545.27.41.17.735.42.975.74.25.31.425.69.525 1.13.1.44.15.93.15 1.46v4.38h-1.395V8.06c0-.48-.035-.89-.105-1.23-.06-.34-.165-.616-.315-.826-.15-.21-.35-.36-.6-.45-.25-.1-.56-.15-.93-.15-.15 0-.305.01-.465.03-.16.02-.315.046-.465.076-.14.02-.27.044-.39.074-.11.03-.19.056-.24.076v6.48h-1.395zm9.95 0h-1.395v-7.8h1.395v7.8zm-.705-9.21a.938.938 0 0 1-.645-.24c-.17-.17-.255-.395-.255-.675s.085-.5.255-.66c.18-.17.395-.25.645-.25s.46.09.63.26c.18.16.27.38.27.66s-.09.51-.27.68c-.17.16-.38.24-.63.24zm4.933 8.204c.57 0 .99-.074 1.26-.224.28-.15.42-.39.42-.72 0-.34-.135-.61-.405-.81-.27-.2-.71-.425-1.33-.675-.3-.12-.59-.24-.87-.36-.27-.13-.5-.28-.7-.45-.2-.17-.36-.37-.48-.61s-.18-.53-.18-.88c0-.69.26-1.23.77-1.63.51-.41 1.21-.61 2.09-.61.22 0 .44.02.66.05.22.02.43.05.62.09.19.03.36.07.5.11.15.04.27.08.35.11l-.25 1.2c-.15-.08-.38-.16-.7-.24-.32-.09-.7-.13-1.15-.13-.39 0-.73.08-1.02.24-.29.15-.43.39-.43.72 0 .17.03.32.09.45.07.13.17.25.3.36.14.1.31.2.51.29.2.09.44.19.72.29.37.14.7.28.99.42.29.13.54.29.74.47.21.18.37.4.48.66.11.25.17.56.17.93 0 .72-.27 1.27-.81 1.64-.53.37-1.29.56-2.28.56-.69 0-1.23-.06-1.62-.18-.39-.11-.65-.19-.79-.25l.26-1.2c.16.06.42.15.77.27.35.12.82.18 1.4.18zm13.737-2.88c0-.91-.225-1.61-.675-2.1-.45-.49-1.05-.734-1.8-.734-.42 0-.75.015-.99.045-.23.03-.415.07-.555.11v4.92c.17.14.415.28.735.41s.67.2 1.05.2c.4 0 .74-.07 1.02-.21.29-.15.525-.35.705-.6.18-.26.31-.56.39-.9.08-.35.12-.72.12-1.12zm1.455 0c0 .59-.08 1.136-.24 1.636-.15.5-.375.93-.675 1.29-.3.36-.67.64-1.11.84-.43.2-.925.3-1.485.3-.45 0-.85-.06-1.2-.18-.34-.12-.595-.235-.765-.345v3.12h-1.395V4.58c.33-.08.74-.165 1.23-.255.5-.1 1.075-.15 1.725-.15.6 0 1.14.096 1.62.286.48.19.89.46 1.23.81.34.35.6.78.78 1.29.19.5.285 1.07.285 1.7zm4.858-4.08c.12 0 .255.01.405.03.16.01.32.03.47.06.15.02.29.046.41.076.13.02.23.04.29.06l-.24 1.215c-.11-.04-.29-.08-.55-.13a4.26 4.26 0 0 0-.97-.09c-.26 0-.52.03-.78.09-.25.05-.41.09-.49.11v6.56h-1.39V4.67c.33-.12.74-.23 1.23-.33.49-.11 1.04-.166 1.65-.166zm9.806 4.066c0 .62-.09 1.18-.27 1.68-.18.5-.435.93-.765 1.29-.32.36-.705.64-1.155.84-.45.19-.94.285-1.47.285s-1.02-.09-1.47-.28c-.45-.2-.84-.48-1.17-.84-.32-.36-.57-.79-.75-1.29-.18-.5-.27-1.06-.27-1.68 0-.61.09-1.16.27-1.66.18-.51.43-.94.75-1.3.33-.36.72-.63 1.17-.82.45-.2.94-.3 1.47-.3s1.02.1 1.47.3c.45.19.835.47 1.155.83.33.36.585.8.765 1.31.18.5.27 1.06.27 1.67zm-1.455 0c0-.88-.2-1.575-.6-2.085-.39-.52-.925-.78-1.605-.78-.68 0-1.22.26-1.62.78-.39.51-.585 1.21-.585 2.09 0 .88.195 1.58.585 2.1.4.51.94.77 1.62.77.68 0 1.215-.25 1.605-.76.4-.52.6-1.22.6-2.1zm4.813-3.556c.17-.11.424-.224.764-.344.35-.12.75-.18 1.2-.18.56 0 1.055.1 1.485.3.44.2.81.48 1.11.84.3.36.52.79.67 1.29.16.5.24 1.05.24 1.65 0 .63-.1 1.2-.29 1.71-.18.5-.44.925-.78 1.275-.34.35-.75.62-1.23.81-.48.19-1.02.29-1.62.29-.65 0-1.23-.04-1.73-.13s-.91-.18-1.23-.27V.74l1.39-.24v4.18zm0 6.24c.14.04.334.08.584.12.26.03.58.046.96.046.75 0 1.35-.245 1.8-.735.45-.5.675-1.2.675-2.11 0-.4-.04-.77-.12-1.12a2.46 2.46 0 0 0-.39-.9c-.18-.26-.42-.46-.71-.6-.28-.15-.62-.22-1.02-.22-.38 0-.73.07-1.05.2-.32.13-.57.27-.74.41v4.94zm9.792 1.366c-.86-.02-1.47-.205-1.83-.555-.36-.35-.54-.89-.54-1.63V.74l1.395-.24v9.37c0 .23.02.42.06.57.04.15.105.27.195.36.09.09.21.16.36.21.15.04.335.076.555.106l-.195 1.17zm1.328-4.036c0-.69.1-1.29.3-1.8.2-.52.464-.95.794-1.29.33-.34.71-.594 1.14-.764.43-.17.87-.255 1.32-.255 1.05 0 1.855.33 2.415.99.56.65.84 1.65.84 2.99v.24c0 .09-.01.18-.02.26h-5.34c.06.81.29 1.43.7 1.85.41.42 1.05.63 1.92.63.49 0 .9-.04 1.23-.12.34-.09.59-.17.76-.25l.19 1.17c-.17.09-.47.19-.9.29-.42.1-.9.15-1.44.15-.68 0-1.27-.1-1.77-.3-.49-.21-.9-.49-1.22-.85-.32-.36-.56-.78-.72-1.27-.15-.5-.23-1.04-.23-1.63zm5.354-.764c.01-.63-.15-1.145-.48-1.545-.32-.41-.765-.61-1.335-.61-.32 0-.61.07-.86.2-.24.12-.45.28-.62.48-.17.2-.31.43-.41.69-.09.26-.15.53-.18.8h3.87zm3.458-2.926c.32-.08.74-.164 1.26-.254.53-.09 1.14-.135 1.83-.135.5 0 .92.07 1.26.21.34.13.625.33.855.59.07-.05.18-.12.33-.21.15-.09.335-.17.555-.25.22-.09.465-.16.735-.22.27-.07.56-.1.87-.1.6 0 1.09.09 1.47.27.38.17.675.42.885.74.22.32.365.7.435 1.14.08.44.12.92.12 1.44v4.38h-1.395v-4.1c0-.46-.025-.85-.075-1.18-.04-.33-.125-.6-.255-.82-.12-.22-.29-.38-.51-.48-.21-.11-.485-.16-.825-.16-.47 0-.86.07-1.17.2-.3.12-.505.23-.615.33.08.26.14.55.18.86.04.31.06.64.06.98v4.38h-1.395v-4.1c0-.46-.025-.85-.075-1.18-.05-.33-.14-.6-.27-.82-.12-.22-.29-.38-.51-.48-.21-.11-.48-.16-.81-.16-.14 0-.29.01-.45.02-.16.01-.315.03-.465.05a4.132 4.132 0 0 0-.63.1v6.59h-1.395v-7.6z"/></g></svg>