<?xml version="1.0" encoding="UTF-8" standalone="no"?>
<!-- Created with Inkscape (http://www.inkscape.org/) -->

<svg
   xmlns:dc="http://purl.org/dc/elements/1.1/"
   xmlns:cc="http://creativecommons.org/ns#"
   xmlns:rdf="http://www.w3.org/1999/02/22-rdf-syntax-ns#"
   xmlns:svg="http://www.w3.org/2000/svg"
   xmlns="http://www.w3.org/2000/svg"
   xmlns:sodipodi="http://sodipodi.sourceforge.net/DTD/sodipodi-0.dtd"
   xmlns:inkscape="http://www.inkscape.org/namespaces/inkscape"
   width="32"
   height="32"
   viewBox="0 0 8.4666665 8.4666669"
   version="1.1"
   id="svg4235"
   inkscape:version="0.92pre1 unknown"
   sodipodi:docname="juju-support_documentation.svg">
  <defs
     id="defs4229" />
  <sodipodi:namedview
     id="base"
     pagecolor="#ffffff"
     bordercolor="#666666"
     borderopacity="1.0"
     inkscape:pageopacity="0.0"
     inkscape:pageshadow="2"
     inkscape:zoom="14.073749"
     inkscape:cx="-30.44917"
     inkscape:cy="17.660822"
     inkscape:document-units="px"
     inkscape:current-layer="layer1"
     showgrid="true"
     units="px"
     inkscape:snap-bbox="true"
     inkscape:bbox-paths="true"
     inkscape:bbox-nodes="true"
     inkscape:snap-bbox-edge-midpoints="true"
     inkscape:snap-bbox-midpoints="true"
     inkscape:object-paths="true"
     inkscape:snap-intersection-paths="true"
     inkscape:snap-smooth-nodes="true"
     inkscape:snap-midpoints="true"
     inkscape:snap-object-midpoints="true"
     inkscape:snap-center="true">
    <inkscape:grid
       type="xygrid"
       id="grid4780" />
  </sodipodi:namedview>
  <metadata
     id="metadata4232">
    <rdf:RDF>
      <cc:Work
         rdf:about="">
        <dc:format>image/svg+xml</dc:format>
        <dc:type
           rdf:resource="http://purl.org/dc/dcmitype/StillImage" />
        <dc:title />
      </cc:Work>
    </rdf:RDF>
  </metadata>
  <g
     inkscape:label="Layer 1"
     inkscape:groupmode="layer"
     id="layer1"
     transform="translate(0,-288.53332)">
    <path
       style="color:#000000;font-style:normal;font-variant:normal;font-weight:normal;font-stretch:normal;font-size:medium;line-height:normal;font-family:sans-serif;font-variant-ligatures:normal;font-variant-position:normal;font-variant-caps:normal;font-variant-numeric:normal;font-variant-alternates:normal;font-feature-settings:normal;text-indent:0;text-align:start;text-decoration:none;text-decoration-line:none;text-decoration-style:solid;text-decoration-color:#000000;letter-spacing:normal;word-spacing:normal;text-transform:none;writing-mode:lr-tb;direction:ltr;text-orientation:mixed;dominant-baseline:auto;baseline-shift:baseline;text-anchor:start;white-space:normal;shape-padding:0;clip-rule:nonzero;display:inline;overflow:visible;visibility:visible;opacity:1;isolation:auto;mix-blend-mode:normal;color-interpolation:sRGB;color-interpolation-filters:linearRGB;solid-color:#000000;solid-opacity:1;fill:#DD4814;fill-opacity:1;fill-rule:nonzero;stroke:none;stroke-width:0.99999994;stroke-linecap:butt;stroke-linejoin:miter;stroke-miterlimit:4;stroke-dasharray:none;stroke-dashoffset:0;stroke-opacity:1;marker:none;color-rendering:auto;image-rendering:auto;shape-rendering:auto;text-rendering:auto;enable-background:accumulate"
       d="M 0 2.9960938 L 0 29.003906 L 13.050781 29.003906 C 14.616602 29.003906 15.597656 30.287072 15.597656 30.287109 L 15.988281 30.804688 L 16.394531 30.294922 C 16.394531 30.294922 17.411433 29.032139 18.949219 29.003906 L 32 29.003906 L 32 2.9960938 L 27.003906 2.9960938 L 27.003906 4 L 30.996094 4 L 30.996094 28 L 18.949219 28 L 18.941406 28 C 17.110449 28.026457 16.252834 29.172701 15.996094 29.474609 C 15.735019 29.158641 14.900346 28 13.050781 28 L 0.99609375 28 L 0.99609375 4 L 13.050781 4 C 14.627692 4 15.597656 5.2851562 15.597656 5.2851562 L 15.996094 5.8242188 L 16.402344 5.2851562 C 16.402344 5.2851562 17.372309 4 18.949219 4 L 21 4 L 21 18 L 26 16.199219 L 26 3 L 25.998047 3 L 25.998047 2.9960938 L 18.949219 2.9960938 C 17.090311 2.9960938 16.26198 4.1739001 16.003906 4.4882812 C 15.749019 4.1772261 14.913401 2.9960938 13.050781 2.9960938 L 0 2.9960938 z M 22 4 L 25 4 L 25 15.4375 L 22 16.595703 L 22 4 z M 4.0019531 8.0019531 L 4.0019531 8.9980469 L 13 8.9980469 L 13 8.0019531 L 4.0019531 8.0019531 z M 4.0019531 10.998047 L 4.0019531 12.001953 L 13 12.001953 L 13 10.998047 L 4.0019531 10.998047 z M 4.0019531 14.003906 L 4.0019531 15 L 13 15 L 13 14.003906 L 4.0019531 14.003906 z M 4.0019531 17 L 4.0019531 17.996094 L 13 17.996094 L 13 17 L 4.0019531 17 z M 4.0019531 19.998047 L 4.0019531 21.001953 L 13 21.001953 L 13 19.998047 L 4.0019531 19.998047 z M 4.0019531 23.001953 L 4.0019531 23.998047 L 13 23.998047 L 13 23.001953 L 4.0019531 23.001953 z "
       transform="matrix(0.26458333,0,0,0.26458333,0,288.53332)"
       id="rect4177" />
    <rect
       style="color:#000000;display:inline;overflow:visible;visibility:visible;opacity:1;fill:none;fill-opacity:1;fill-rule:nonzero;stroke:none;stroke-width:0.26458332;stroke-linecap:butt;stroke-linejoin:miter;stroke-miterlimit:4;stroke-dasharray:none;stroke-dashoffset:0;stroke-opacity:1;marker:none;enable-background:accumulate"
       id="rect5925"
       width="8.4666662"
       height="8.4666662"
       x="0"
       y="288.53333" />
  </g>
</svg>
