<?xml version="1.0" encoding="UTF-8" standalone="no"?>
<!-- Created with Inkscape (http://www.inkscape.org/) -->

<svg
   xmlns:dc="http://purl.org/dc/elements/1.1/"
   xmlns:cc="http://creativecommons.org/ns#"
   xmlns:rdf="http://www.w3.org/1999/02/22-rdf-syntax-ns#"
   xmlns:svg="http://www.w3.org/2000/svg"
   xmlns="http://www.w3.org/2000/svg"
   xmlns:sodipodi="http://sodipodi.sourceforge.net/DTD/sodipodi-0.dtd"
   xmlns:inkscape="http://www.inkscape.org/namespaces/inkscape"
   width="32"
   height="32"
   viewBox="0 0 8.4666665 8.4666669"
   version="1.1"
   id="svg4235"
   inkscape:version="0.92pre1 unknown"
   sodipodi:docname="juju-support_request-support.svg">
  <defs
     id="defs4229" />
  <sodipodi:namedview
     id="base"
     pagecolor="#ffffff"
     bordercolor="#666666"
     borderopacity="1.0"
     inkscape:pageopacity="0.0"
     inkscape:pageshadow="2"
     inkscape:zoom="17.592185"
     inkscape:cx="11.400858"
     inkscape:cy="23.185331"
     inkscape:document-units="px"
     inkscape:current-layer="layer1"
     showgrid="true"
     units="px"
     inkscape:snap-bbox="true"
     inkscape:bbox-paths="true"
     inkscape:bbox-nodes="true"
     inkscape:snap-bbox-edge-midpoints="true"
     inkscape:snap-bbox-midpoints="true"
     inkscape:object-paths="true"
     inkscape:snap-intersection-paths="true"
     inkscape:snap-smooth-nodes="false"
     inkscape:snap-midpoints="false"
     inkscape:snap-object-midpoints="false"
     inkscape:snap-center="false"
     inkscape:object-nodes="true"
     inkscape:snap-others="false"
     showguides="true"
     inkscape:guide-bbox="true"
     inkscape:locked="false">
    <inkscape:grid
       type="xygrid"
       id="grid4780" />
    <sodipodi:guide
       position="5.5562499,5.8208335"
       orientation="0,1"
       id="guide4239"
       inkscape:locked="false" />
    <sodipodi:guide
       position="5.8208332,4.2333334"
       orientation="0,1"
       id="guide4241"
       inkscape:locked="false" />
  </sodipodi:namedview>
  <metadata
     id="metadata4232">
    <rdf:RDF>
      <cc:Work
         rdf:about="">
        <dc:format>image/svg+xml</dc:format>
        <dc:type
           rdf:resource="http://purl.org/dc/dcmitype/StillImage" />
        <dc:title />
      </cc:Work>
    </rdf:RDF>
  </metadata>
  <g
     inkscape:label="Layer 1"
     inkscape:groupmode="layer"
     id="layer1"
     transform="translate(0,-288.53332)">
    <path
       style="color:#000000;font-style:normal;font-variant:normal;font-weight:normal;font-stretch:normal;font-size:medium;line-height:normal;font-family:sans-serif;font-variant-ligatures:normal;font-variant-position:normal;font-variant-caps:normal;font-variant-numeric:normal;font-variant-alternates:normal;font-feature-settings:normal;text-indent:0;text-align:start;text-decoration:none;text-decoration-line:none;text-decoration-style:solid;text-decoration-color:#000000;letter-spacing:normal;word-spacing:normal;text-transform:none;writing-mode:lr-tb;direction:ltr;text-orientation:mixed;dominant-baseline:auto;baseline-shift:baseline;text-anchor:start;white-space:normal;shape-padding:0;clip-rule:nonzero;display:inline;overflow:visible;visibility:visible;opacity:1;isolation:auto;mix-blend-mode:normal;color-interpolation:sRGB;color-interpolation-filters:linearRGB;solid-color:#000000;solid-opacity:1;fill:#DD4814;fill-opacity:1;fill-rule:nonzero;stroke:none;stroke-width:0.99999994;stroke-linecap:butt;stroke-linejoin:miter;stroke-miterlimit:4;stroke-dasharray:none;stroke-dashoffset:0;stroke-opacity:1;marker:none;color-rendering:auto;image-rendering:auto;shape-rendering:auto;text-rendering:auto;enable-background:accumulate"
       d="M 0 4 L 0 4.5019531 L 0 10.96875 L 0.50195312 10.96875 C 1.8878262 10.96875 2.996099 12.078628 2.9960938 13.470703 C 2.996099 14.862779 1.8878262 15.980469 0.50195312 15.980469 L 0 15.980469 L 0 23.044922 L 1.4980469 23.044922 L 24.5 23.044922 L 25.998047 23.044922 L 25.998047 21.546875 L 25.998047 5.5058594 L 25.998047 4 L 24.5 4 L 1.4980469 4 L 0 4 z M 0.99609375 4.9980469 L 1.4980469 4.9980469 L 6 4.9980469 L 6 6 L 7 6 L 7 4.9980469 L 24.5 4.9980469 L 25.001953 4.9980469 L 25.001953 5.5058594 L 25.001953 21.546875 L 25.001953 22.048828 L 24.5 22.048828 L 1.4980469 22.048828 L 0.99609375 22.048828 L 0.99609375 16.779297 C 2.656181 16.506415 4.0019596 15.208568 4.0019531 13.470703 C 4.0019596 11.732801 2.656181 10.444795 0.99609375 10.171875 L 0.99609375 4.9980469 z M 6 7 L 6 9 L 7 9 L 7 7 L 6 7 z M 6 10 L 6 12 L 7 12 L 7 10 L 6 10 z M 10.001953 10.046875 L 10.001953 11.050781 L 21.998047 11.050781 L 21.998047 10.046875 L 10.001953 10.046875 z M 27.025391 10.052734 L 27.025391 11.050781 L 30.501953 11.050781 L 31.003906 11.050781 L 31.003906 28.050781 L 30.501953 28.050781 L 7.5 28.050781 L 6.9980469 28.050781 L 6.9980469 27.548828 L 6.9980469 23.976562 L 6.0019531 23.976562 L 6.0019531 27.548828 L 6.0019531 29.046875 L 7.5 29.046875 L 30.501953 29.046875 L 32 29.046875 L 32 10.052734 L 30.501953 10.052734 L 27.025391 10.052734 z M 6 13 L 6 15 L 7 15 L 7 13 L 6 13 z M 10.001953 13.050781 L 10.001953 14.046875 L 21.998047 14.046875 L 21.998047 13.050781 L 10.001953 13.050781 z M 6 16 L 6 18 L 7 18 L 7 16 L 6 16 z M 10.001953 16.046875 L 10.001953 17.050781 L 15.996094 17.050781 L 15.996094 16.046875 L 10.001953 16.046875 z M 6 19 L 6 21 L 7 21 L 7 19 L 6 19 z "
       transform="matrix(0.26458333,0,0,0.26458333,0,288.53332)"
       id="rect4251" />
    <rect
       style="color:#000000;display:inline;overflow:visible;visibility:visible;opacity:1;fill:none;fill-opacity:1;fill-rule:nonzero;stroke:none;stroke-width:0.26458332;stroke-linecap:butt;stroke-linejoin:miter;stroke-miterlimit:4;stroke-dasharray:none;stroke-dashoffset:0;stroke-opacity:1;marker:none;enable-background:accumulate"
       id="rect5943"
       width="8.4666662"
       height="8.4666662"
       x="0"
       y="288.53333" />
  </g>
</svg>
