<?xml version="1.0" encoding="UTF-8" standalone="no"?>
<!-- Created with Inkscape (http://www.inkscape.org/) -->

<svg
   xmlns:dc="http://purl.org/dc/elements/1.1/"
   xmlns:cc="http://creativecommons.org/ns#"
   xmlns:rdf="http://www.w3.org/1999/02/22-rdf-syntax-ns#"
   xmlns:svg="http://www.w3.org/2000/svg"
   xmlns="http://www.w3.org/2000/svg"
   xmlns:sodipodi="http://sodipodi.sourceforge.net/DTD/sodipodi-0.dtd"
   xmlns:inkscape="http://www.inkscape.org/namespaces/inkscape"
   width="32"
   height="32"
   viewBox="0 0 8.4666665 8.4666669"
   version="1.1"
   id="svg4235"
   inkscape:version="0.92pre1 unknown"
   sodipodi:docname="juju-support_known-issues.svg">
  <defs
     id="defs4229" />
  <sodipodi:namedview
     id="base"
     pagecolor="#ffffff"
     bordercolor="#666666"
     borderopacity="1.0"
     inkscape:pageopacity="0.0"
     inkscape:pageshadow="2"
     inkscape:zoom="17.592186"
     inkscape:cx="0.24533781"
     inkscape:cy="23.939036"
     inkscape:document-units="px"
     inkscape:current-layer="layer1"
     showgrid="true"
     units="px"
     inkscape:snap-bbox="true"
     inkscape:bbox-paths="true"
     inkscape:bbox-nodes="true"
     inkscape:snap-bbox-edge-midpoints="true"
     inkscape:snap-bbox-midpoints="true"
     inkscape:object-paths="true"
     inkscape:snap-intersection-paths="true"
     inkscape:snap-smooth-nodes="false"
     inkscape:snap-midpoints="false"
     inkscape:snap-object-midpoints="false"
     inkscape:snap-center="false"
     inkscape:object-nodes="false">
    <inkscape:grid
       type="xygrid"
       id="grid4780" />
  </sodipodi:namedview>
  <metadata
     id="metadata4232">
    <rdf:RDF>
      <cc:Work
         rdf:about="">
        <dc:format>image/svg+xml</dc:format>
        <dc:type
           rdf:resource="http://purl.org/dc/dcmitype/StillImage" />
        <dc:title />
      </cc:Work>
    </rdf:RDF>
  </metadata>
  <g
     inkscape:label="Layer 1"
     inkscape:groupmode="layer"
     id="layer1"
     transform="translate(0,-288.53332)">
    <path
       style="color:#000000;font-style:normal;font-variant:normal;font-weight:normal;font-stretch:normal;font-size:medium;line-height:normal;font-family:sans-serif;font-variant-ligatures:normal;font-variant-position:normal;font-variant-caps:normal;font-variant-numeric:normal;font-variant-alternates:normal;font-feature-settings:normal;text-indent:0;text-align:start;text-decoration:none;text-decoration-line:none;text-decoration-style:solid;text-decoration-color:#000000;letter-spacing:normal;word-spacing:normal;text-transform:none;writing-mode:lr-tb;direction:ltr;text-orientation:mixed;dominant-baseline:auto;baseline-shift:baseline;text-anchor:start;white-space:normal;shape-padding:0;clip-rule:nonzero;display:inline;overflow:visible;visibility:visible;opacity:1;isolation:auto;mix-blend-mode:normal;color-interpolation:sRGB;color-interpolation-filters:linearRGB;solid-color:#000000;solid-opacity:1;fill:#DD4814;fill-opacity:1;fill-rule:nonzero;stroke:none;stroke-width:0.99999994;stroke-linecap:butt;stroke-linejoin:miter;stroke-miterlimit:4;stroke-dasharray:none;stroke-dashoffset:0;stroke-opacity:1;marker:none;color-rendering:auto;image-rendering:auto;shape-rendering:auto;text-rendering:auto;enable-background:accumulate"
       d="M 15.996094 1.0039062 C 7.717725 1.0039062 0.99609371 7.7255315 0.99609375 16.003906 C 0.99609375 24.282281 7.717725 31.003906 15.996094 31.003906 C 24.274462 31.003906 30.996094 24.282281 30.996094 16.003906 C 30.996094 7.7255315 24.274462 1.0039062 15.996094 1.0039062 z M 15.996094 2 C 23.734022 2 30 8.2659661 30 16.003906 C 30 23.741846 23.734022 30 15.996094 30 C 8.2581653 30 2 23.741846 2 16.003906 C 2 8.2659661 8.2581653 2 15.996094 2 z M 15 6 L 15 11.796875 C 15 13.43496 15.047342 14.891773 15.142578 16.167969 C 15.256863 17.444126 15.400838 18.721814 15.572266 19.998047 L 16.427734 19.998047 C 16.503926 19.369436 16.571764 18.739901 16.628906 18.111328 C 16.705098 17.482755 16.770982 16.83464 16.828125 16.167969 C 16.885268 15.501298 16.924311 14.816097 16.943359 14.111328 C 16.981453 13.387511 17 12.615936 17 11.796875 L 17 6 L 15 6 z M 16 22.5 C 15.527273 22.5 15.153587 22.644624 14.880859 22.935547 C 14.626314 23.22647 14.5 23.581833 14.5 24 C 14.5 24.418192 14.626314 24.773555 14.880859 25.064453 C 15.153587 25.355351 15.527273 25.5 16 25.5 C 16.472727 25.5 16.837251 25.355351 17.091797 25.064453 C 17.364524 24.773555 17.5 24.418192 17.5 24 C 17.5 23.581833 17.364524 23.22647 17.091797 22.935547 C 16.837251 22.644624 16.472727 22.5 16 22.5 z "
       transform="matrix(0.26458333,0,0,0.26458333,0,288.53332)"
       id="path4255" />
    <rect
       style="color:#000000;display:inline;overflow:visible;visibility:visible;opacity:1;fill:none;fill-opacity:1;fill-rule:nonzero;stroke:none;stroke-width:0.26458332;stroke-linecap:butt;stroke-linejoin:miter;stroke-miterlimit:4;stroke-dasharray:none;stroke-dashoffset:0;stroke-opacity:1;marker:none;enable-background:accumulate"
       id="rect5930"
       width="8.4666662"
       height="8.4666662"
       x="0"
       y="288.53333" />
  </g>
</svg>
