<svg width="191" height="190" xmlns="http://www.w3.org/2000/svg" xmlns:xlink="http://www.w3.org/1999/xlink"><defs><linearGradient x1="48.937%" y1="90.912%" x2="48.937%" y2="1.373%" id="a"><stop stop-color="#FDE20A" offset="0%"/><stop stop-color="#FAAC16" offset="47.86%"/><stop stop-color="#F8921A" offset="100%"/></linearGradient><linearGradient x1="30.645%" y1="55.88%" x2="95.744%" y2="86.015%" id="b"><stop stop-color="#00A6AE" offset="0%"/><stop stop-color="#30BED6" offset="100%"/></linearGradient><path d="M4.293.219A3.705 3.705 0 0 0 .59 3.926a3.705 3.705 0 1 0 7.41 0A3.707 3.707 0 0 0 4.293.22zm-.124 12a3.5 3.5 0 1 0 3.501 3.499 3.5 3.5 0 0 0-3.5-3.5zm6.122 11.5a2.921 2.921 0 1 0 .002 5.843 2.921 2.921 0 0 0-.002-5.842zm9.85 6.197a2.55 2.55 0 1 0-.001 5.102 2.55 2.55 0 0 0 .002-5.102zm9.953 2.65a2.072 2.072 0 1 0 0 4.146 2.072 2.072 0 1 0 0-4.147zm9.267 3.374a1.941 1.941 0 1 0 0 3.883 1.941 1.941 0 0 0 0-3.883zm6.948 7.878a1.61 1.61 0 1 0 .003 3.22 1.61 1.61 0 0 0-.003-3.22z" id="c"/><linearGradient x1="25.053%" y1="56.678%" x2="97.912%" y2="93.406%" id="e"><stop stop-color="#00A6AE" offset="0%"/><stop stop-color="#30BED6" offset="100%"/></linearGradient><linearGradient x1="57.905%" y1="66.874%" x2="3.935%" y2="-18.828%" id="f"><stop stop-color="#FFF" offset="0%"/><stop stop-color="#FFF" stop-opacity="0" offset="100%"/></linearGradient><path d="M4.617.215a3.707 3.707 0 1 0 .001 7.414A3.707 3.707 0 0 0 4.617.215zm7.032 12.58a4.039 4.039 0 0 0-4.04 4.038 4.039 4.039 0 0 0 8.076 0 4.036 4.036 0 0 0-4.036-4.038zm11.168 7.446a3.543 3.543 0 0 0 0 7.086 3.543 3.543 0 0 0 0-7.086zm10.673 4.718a3.128 3.128 0 1 0-.002 6.256 3.128 3.128 0 0 0 .002-6.256zm10.72 1.058a3.128 3.128 0 0 0 0 6.257 3.128 3.128 0 1 0 0-6.257zm9.663 3.112a2.73 2.73 0 1 0 0 5.46 2.73 2.73 0 0 0 0-5.46zm7.017 4.7a2.533 2.533 0 1 0-.002 5.065 2.533 2.533 0 0 0 .002-5.066z" id="g"/><linearGradient x1="21.486%" y1="63.262%" x2="95.329%" y2="6.724%" id="i"><stop stop-color="#00A6AE" offset="0%"/><stop stop-color="#30BED6" offset="100%"/></linearGradient><linearGradient x1="46.172%" y1="42.315%" x2="52.915%" y2="64.133%" id="j"><stop stop-color="#E4FFFF" offset="0%"/><stop stop-color="#FFF" offset="27.682%"/><stop stop-color="#3AD3FF" stop-opacity=".67" offset="100%"/></linearGradient><linearGradient x1="47.059%" y1="40.378%" x2="39.714%" y2="16.449%" id="k"><stop stop-color="#E4FFFF" offset="0%"/><stop stop-color="#FFF" offset="27.682%"/><stop stop-color="#3AD3FF" stop-opacity=".67" offset="100%"/></linearGradient><path d="M96.959.105a3.918 3.918 0 1 0 0 7.836 3.918 3.918 0 0 0 0-7.836zM82.332 3.283a4.644 4.644 0 0 0-4.644 4.646 4.644 4.644 0 1 0 4.644-4.646zM66.38 6.858a5.373 5.373 0 1 0 .002 10.747 5.373 5.373 0 0 0-.002-10.747zm-18.425 7.473c-3.6 0-6.515 2.92-6.515 6.52a6.517 6.517 0 1 0 13.034 0 6.52 6.52 0 0 0-6.519-6.52zm65.15 1.2a3.053 3.053 0 0 0-3.053 3.055 3.055 3.055 0 1 0 3.053-3.055zm-11.383 4.766a4.644 4.644 0 0 0-4.643 4.646 4.644 4.644 0 1 0 4.643-4.646zM31.292 24.07a6.458 6.458 0 0 0-6.458 6.46 6.46 6.46 0 1 0 12.918 0 6.46 6.46 0 0 0-6.46-6.46zm54.217 3.378a6.3 6.3 0 1 0 0 12.6 6.3 6.3 0 0 0 0-12.6zm22.8 8.522a2.726 2.726 0 0 0 0 5.452 2.726 2.726 0 0 0 0-5.453zm-42.85.112a7.732 7.732 0 0 0-7.731 7.732 7.732 7.732 0 0 0 7.73 7.733c4.27 0 7.731-3.462 7.731-7.733a7.732 7.732 0 0 0-7.73-7.732zm-49.807.02a5.347 5.347 0 0 0-5.348 5.348 5.347 5.347 0 0 0 10.694 0 5.344 5.344 0 0 0-5.346-5.347zm83.012 8.112a5.39 5.39 0 1 0-.001 10.78 5.39 5.39 0 0 0 0-10.78zm-94.758 3.43a3.652 3.652 0 0 0-3.652 3.652 3.654 3.654 0 0 0 7.307 0 3.654 3.654 0 0 0-3.655-3.653zm40.83 1.01a6.83 6.83 0 0 0-6.83 6.83 6.83 6.83 0 1 0 13.66 0 6.83 6.83 0 0 0-6.83-6.83zm42.097 6.731a6.467 6.467 0 0 0-6.466 6.466 6.467 6.467 0 0 0 6.466 6.465 6.465 6.465 0 0 0 6.464-6.465 6.465 6.465 0 0 0-6.464-6.466zm-59.677 4.89a4.966 4.966 0 0 0-4.968 4.966 4.969 4.969 0 0 0 4.968 4.968 4.969 4.969 0 0 0 4.967-4.968 4.966 4.966 0 0 0-4.967-4.966zm43.215 6.454a6.566 6.566 0 0 0-6.566 6.565 6.566 6.566 0 0 0 13.13 0 6.563 6.563 0 0 0-6.564-6.565zM14.02 70.042a3.02 3.02 0 0 0 0 6.04 3.02 3.02 0 0 0 0-6.04zm39.3 5.634a5.72 5.72 0 0 0-5.716 5.722 5.72 5.72 0 1 0 5.717-5.722zM36.31 82.103a4.543 4.543 0 0 0-4.54 4.545 4.543 4.543 0 1 0 9.084 0 4.546 4.546 0 0 0-4.544-4.545zm-13.236 2.504a2.914 2.914 0 0 0 0 5.827 2.914 2.914 0 0 0 0-5.828z" id="l"/><path d="M4.36.203a3.707 3.707 0 1 0 .001 7.414A3.707 3.707 0 0 0 4.36.203zm47.81 10.064c-.935 0-1.695.758-1.695 1.694a1.695 1.695 0 0 0 3.389 0c0-.936-.757-1.694-1.693-1.694zm-40.98.741a3.493 3.493 0 1 0 0 6.989 3.493 3.493 0 1 0 0-6.989zm35.472.369a2.065 2.065 0 1 0 0 4.13 2.065 2.065 0 0 0 0-4.13zm-6.724 3.073a2.065 2.065 0 1 0 .001 4.13 2.065 2.065 0 0 0 0-4.13zm-9.369 3.284a2.702 2.702 0 0 0-2.703 2.7 2.702 2.702 0 0 0 5.403 0 2.7 2.7 0 0 0-2.7-2.7zm-10.062.635a3.496 3.496 0 1 0 .002 6.991 3.496 3.496 0 0 0-.002-6.991z" id="n"/></defs><g fill="none" fill-rule="evenodd"><path d="M245.534.302l-.127.015C215.05.165 142.44 7.938 103.503 78.791c-8.722 3.563-14.999 11.891-14.999 21.847 0 1.153.263 2.19.423 3.278-2.388 3.461-13.397 20.952-5.596 42.599 2.531 7.023 8.302 11.872 15.156 14.588 6.855 2.717 14.92 3.582 23.383 3.121 7.874-.428 11.557 2.117 13.835 4.588 2.277 2.471 2.796 4.73 2.796 4.73l3.804 16.082 5.224-15.677c.784-2.353.981-4.96.493-8.873-.151-1.208-.62-2.583-.989-3.913 5.815.653 11.127.957 15.084 1.696 1.978.37 5.583 1.954 8.38 3.484a70.58 70.58 0 0 1 4.865 2.916l11.068 7.409-3.972-12.714c-2.953-9.452-9.728-15.247-15.619-18.532-.407-.227-.684-.263-1.082-.469 4.768-3.45 8.674-7.661 12.435-11.159 1.453-1.351 5.916-2.422 5.916-2.422l7.093-.962-3.707-6.127c-4.737-7.825-15.107-8.779-21.668-3.74-4.239 3.254-7.484 5.97-10.503 6.199-7.503.569-15.439-5.669-15.014-14.795.139-2.975 1.915-6.273 3.65-7.862.326.074.533.118.927.208 1.837.422 4.343.981 7.214 1.419 5.743.874 13.007 1.37 19.972-1.02 16.684-5.724 36.77-13.917 50.32-27.85 5.663-5.82 8.496-12.698 10.719-17.796 1.111-2.55 2.095-4.668 2.9-5.88.294-.444.238-.272.407-.456l.006.006c.66.667 1.567 1.607 3.078 2.38 1.511.772 3.782 1.146 5.805.593 4.205-1.15 6.941-4.348 8.635-7.624 1.693-3.277 2.514-6.847 2.497-10.264-.01-2.172-.502-3.617-.701-4.455.377-.288 1.2-.595 3.691-.774 1.39-.1 2.98-.13 4.9-.753 1.922-.622 4.456-2.529 5.246-5.178.837-2.806.748-5.683-.16-8.005-.907-2.32-2.404-3.942-3.73-5.177-2.245-2.089-3.378-3.109-3.976-3.868.036-.032.157-.16.157-.16l9.073-6.938-11.326-1.454s-5.286-.67-13.753-.732l-.326-.003zm.26 9.396c3.797.028 3.842.162 5.983.312.034.701.127 1.428.42 2.201 1.767 4.666 5.401 6.554 7.087 8.123.843.785 1.24 1.355 1.384 1.724.07.178-.052.656-.045.916-.474.074-.89.154-1.868.224-2.806.201-7.811.314-11.014 4.678-1.734 2.363-1.59 5.365-1.27 6.953.32 1.588.574 2.46.577 3.018.01 1.712-.536 4.13-1.45 5.9-.745 1.44-1.578 2.18-2.277 2.562-.113-.099-.061-.044-.221-.206-.489-.494-1.121-1.256-2.289-2.096-1.168-.84-3.363-1.742-5.563-1.294-3.287.669-5.565 2.994-7.065 5.256-1.501 2.262-2.556 4.733-3.683 7.318-2.254 5.171-4.697 10.747-8.837 15.003-11.539 11.864-30.423 19.952-46.638 25.515-4.568 1.568-10.512 1.378-15.51.617-2.499-.38-4.747-.88-6.527-1.288-.89-.204-1.658-.385-2.35-.53-.691-.143-.837-.42-2.633-.241l-.934.094-.828.447c-6.328 3.418-9.025 10.313-9.318 16.606-.686 14.729 11.985 25.594 25.106 24.599 4.468-.34 7.757-2.283 10.639-4.398-4.47 4.277-8.692 8.067-13.708 9.345l.311 9.172c.198.037 4.159.896 8.454 3.167-7.058-1.022-14.1-.84-21.648-2.75l-13.242-3.347.717-1.941c-.668-.407-1.247-.756-1.778-1.11-9.808-6.552-12.63-14.806-13.557-20.002l-9.185-.29c-1.15 4.706-2.009 9.59-.846 14.328 1.453 5.922 5.397 10.017 9.647 12.206 4.25 2.188 8.733 2.908 12.529 3.52l2.255-6.121 7.483 8.876c-3.49-1.378-7.715-2.194-12.74-1.92-7.469.406-14.325-.457-19.416-2.474-5.092-2.018-8.29-4.909-9.78-9.043-5.421-15.042.633-27.753 3.591-32.703l4.496.95-1.88-7.331a14.428 14.428 0 0 1-.478-3.605c0-6.684 4.483-12.224 10.566-13.93l4.206-1.179-.572-2.812C149.047 16.212 217.39 9.49 245.794 9.698z" fill="url(#a)" transform="translate(-80)"/><path d="M93.564 105.356s-13.618 17.92-5.817 39.566c4.02 11.157 17.937 15.479 33.867 14.611 18.168-.99 21.458 12.93 21.458 12.93s2.307-15.822-9.177-21.076c-7.108-3.251-23.821-.673-27.146-14.223-2.255-9.19 6.334-27.67 6.334-27.67l-19.519-4.138z" fill="url(#b)" transform="translate(-80)"/><path d="M20.716 112.472c-16.158 37.982 14.138 36.87 14.138 36.87s-21.652-.555-6.463-34.496l-7.675-2.374z" stroke="#00F1FF" stroke-width=".5" fill="#FFF" opacity=".85"/><path d="M51.73 153.1c7.756 6.466 11.311 18.264 11.311 18.264l.162-7.92-3.555-8.404s-5.656-.97-7.918-1.94z" fill="#FFF" opacity=".85"/><path d="M19.418 119.639a3.705 3.705 0 0 0-3.703 3.708 3.705 3.705 0 1 0 7.41 0 3.707 3.707 0 0 0-3.707-3.708zm-.124 12a3.5 3.5 0 1 0 3.501 3.499 3.5 3.5 0 0 0-3.5-3.5zm6.123 11.5a2.921 2.921 0 1 0 0 5.843 2.921 2.921 0 0 0 0-5.842zm9.85 6.197a2.55 2.55 0 1 0-.002 5.102 2.55 2.55 0 0 0 .002-5.102zm9.953 2.65a2.072 2.072 0 1 0 0 4.146 2.072 2.072 0 1 0 0-4.146zm9.266 3.375a1.941 1.941 0 1 0 0 3.882 1.941 1.941 0 0 0 0-3.882zm6.948 7.877a1.61 1.61 0 1 0 .003 3.22 1.61 1.61 0 0 0-.003-3.22z" fill="#0070BA"/><g transform="translate(-31.313 119.42)"><mask id="d" fill="#fff"><use xlink:href="#c"/></mask><g mask="url(#d)" stroke-width=".5" stroke="#FFA4D9"><path d="M54.888-6.241l-3.03 22.83 15.553 14.95 9.897-2.122 9.896 6.768 7.07 9.9"/></g></g><path d="M12.924 103.638l-.592.78s-14.13 18.585-6.041 41.03c2.182 6.054 7.09 10.246 13.354 12.728 6.264 2.482 13.923 3.346 22.052 2.903 8.686-.473 13.496 2.533 16.32 5.598 2.825 3.065 3.55 6.142 3.55 6.142l1.327 5.622 1.66-5.534c.224-.748.393-1.893.456-3.638a26.44 26.44 0 0 0-.52-6.312c-.985-4.714-3.704-10.118-9.952-12.976-4.112-1.882-9.996-1.947-15.238-3.34-5.242-1.391-9.534-3.676-11.047-9.846-.962-3.92.459-10.768 2.291-16.436 1.833-5.668 3.943-10.213 3.943-10.213l.82-1.763-22.383-4.745zm1.36 3.454l16.702 3.541c-.556 1.238-1.813 3.898-3.39 8.773-1.897 5.87-3.645 12.857-2.352 18.127 1.811 7.38 7.538 10.58 13.26 12.1 5.723 1.519 11.75 1.792 14.746 3.163 5.235 2.395 7.355 6.7 8.211 10.796.241 1.153.195 2.089.254 3.13-.503-.744-.719-1.382-1.421-2.144-3.362-3.648-9.28-7.106-18.763-6.59-7.802.425-15.064-.44-20.746-2.691-5.682-2.251-9.744-5.797-11.582-10.9-7.017-19.47 3.601-35.23 5.082-37.305z" fill="#000"/><path d="M71.013 60.867c-5.17-16.55-24.043-19.783-24.043-19.783L8.449 1.777.176 14.837S-1.077 32.124 16.205 43.67c15.77 10.536 29.197 8.1 39.813 10.085 6.068 1.135 14.995 7.112 14.995 7.112z" fill="url(#e)" transform="translate(26.96 104.485)"/><path d="M6.995 15.16s.043 16.378 15.31 25.334c14.906 8.745 33.972 3.435 48.999 20.89-5.656-15.031-24.399-20.85-24.399-20.85L13.781 13.058 6.995 15.16z" stroke="#0FF" stroke-width=".5" fill="url(#f)" transform="translate(26.96 104.485)"/><path d="M35.221 120.183a3.707 3.707 0 1 0 .002 7.415 3.707 3.707 0 0 0-.002-7.415zm7.033 12.58a4.039 4.039 0 0 0-4.04 4.038 4.039 4.039 0 0 0 8.076 0 4.036 4.036 0 0 0-4.036-4.037zm11.168 7.446a3.543 3.543 0 0 0 0 7.086 3.543 3.543 0 0 0 0-7.086zm10.672 4.718a3.128 3.128 0 1 0-.001 6.257 3.128 3.128 0 0 0 .001-6.257zm10.721 1.059a3.128 3.128 0 0 0 0 6.257 3.128 3.128 0 1 0 0-6.257zm9.663 3.111a2.73 2.73 0 1 0 0 5.461 2.73 2.73 0 0 0 0-5.46zm7.017 4.7a2.533 2.533 0 1 0-.002 5.065 2.533 2.533 0 0 0 .002-5.065z" fill="#0070BA"/><g transform="translate(30.605 104.485)"><mask id="h" fill="#fff"><use xlink:href="#g"/></mask><g mask="url(#h)" stroke-width=".5" stroke="#F686C0"><path d="M-.668 9.35l12.32 18.032 27.975 14.445L63.864 53.95"/></g></g><path d="M25.592 119.21s-1.191 18.272 16.713 30.232c16.2 10.822 30.23 8.42 40.389 10.319 2.686.502 6.388 2.218 9.315 3.82a74.51 74.51 0 0 1 5.103 3.057l3.65 2.443-1.31-4.191c-5.473-17.52-25.26-20.846-25.26-20.846l-.523 3.051s14.4 2.61 20.883 14.402c-.533-.31-.454-.304-1.059-.635-3.053-1.671-6.849-3.511-10.23-4.144-11.073-2.07-23.896.4-39.238-9.85-16.66-11.129-15.343-27.435-15.343-27.435l-3.09-.223z" fill="#000"/><path d="M259.015 5.698s-3.304 2.526-2.424 4.85c2.009 5.303 10.88 6.708 8.483 14.747-1.323 4.434-10.112.681-13.547 5.362-1.476 2.011.202 4.255.216 7.164.027 5.13-2.729 11.982-7.675 13.334-3.773 1.032-5.079-4.408-7.882-3.838-6.606 1.344-7.355 16.171-17.158 26.25-12.545 12.897-32.03 21.038-48.479 26.682-11.533 3.957-26.42-1.378-28.075-1.212-4.136 2.234-6.63 7.835-6.857 12.691-.555 11.928 9.747 20.48 20.059 19.697 5.104-.387 9.047-4.116 13.01-7.158 4.358-3.347 11.623-2.782 14.79 2.448 0 0-5.357.73-8.483 3.637-10.275 9.556-18.468 21.533-39.992 13.132-15.239-5.948-18.296-23.73-18.296-23.73-5.162-15.984-9.576-37.89-9.576-37.89 48.474-89.5 151.886-76.166 151.886-76.166z" fill="url(#i)" transform="translate(-80)"/><g><path d="M124.758 78.918s21.771-21.675 46.391-36.555c24.62-14.881 84.893-32.894 84.893-32.894s-41.964 32.94-66.904 46.543c-24.941 13.604-64.38 22.906-64.38 22.906z" fill="url(#j)" transform="translate(-79.3 7.038)"/><path d="M59.47 56.408c32.821-21.15 78.266-37.88 78.266-37.88s-22.704 1.454-39.764 11.364C80.912 39.8 59.47 56.408 59.47 56.408z" fill="#FFF"/><path d="M39.114 78.821s4.696-6.707 35.346-28.095c30.65-21.387 96.57-39.143 96.57-39.143S101.728 40.927 79.825 54.83C57.922 68.733 39.115 78.82 39.115 78.82z" fill="#029DFF" opacity=".7"/><path d="M46.72 95.3s25.7-4.422 66.652-26.77c21.125-11.528 51.252-40.659 58.32-43.184 0 0-10.786 9.094-15.4 14.395-12.096 13.898-4.674 20.202-34.336 43.626C104.465 97.18 46.72 95.299 46.72 95.299z" fill="#E4FFFF"/><path d="M119.52 66.733c34.398-29.358 88.048-53.034 123.394-64.082 0 0-38.228-8.35-77.635 13.89-39.407 22.238-45.76 50.192-45.76 50.192z" fill="url(#k)" transform="translate(-79.3 7.038)"/><path d="M141.495 7.823a3.918 3.918 0 1 0 0 7.836 3.918 3.918 0 0 0 0-7.836zm-14.627 3.178a4.644 4.644 0 0 0-4.644 4.646A4.644 4.644 0 1 0 126.868 11zm-15.951 3.575a5.373 5.373 0 1 0 .002 10.747 5.373 5.373 0 0 0-.002-10.747zm-18.424 7.473c-3.6 0-6.516 2.92-6.516 6.52a6.517 6.517 0 1 0 13.034 0 6.52 6.52 0 0 0-6.518-6.52zm65.15 1.2a3.053 3.053 0 0 0-3.054 3.055 3.055 3.055 0 1 0 3.054-3.055zm-11.383 4.766a4.644 4.644 0 0 0-4.644 4.646 4.644 4.644 0 1 0 4.644-4.646zm-70.432 3.772a6.458 6.458 0 0 0-6.458 6.46 6.46 6.46 0 1 0 12.919 0 6.46 6.46 0 0 0-6.461-6.46zm54.218 3.378a6.3 6.3 0 1 0-.001 12.6 6.3 6.3 0 0 0 0-12.6zm22.799 8.522a2.726 2.726 0 0 0 0 5.452 2.726 2.726 0 0 0 0-5.453zm-42.85.112a7.732 7.732 0 0 0-7.73 7.732 7.732 7.732 0 0 0 7.73 7.733c4.27 0 7.73-3.462 7.73-7.733a7.732 7.732 0 0 0-7.73-7.732zm-49.807.02a5.347 5.347 0 0 0-5.348 5.348 5.347 5.347 0 0 0 10.694 0 5.344 5.344 0 0 0-5.346-5.347zm83.012 8.112a5.39 5.39 0 1 0 0 10.78 5.39 5.39 0 0 0 0-10.78zm-94.757 3.43a3.652 3.652 0 0 0-3.653 3.652 3.654 3.654 0 0 0 7.307 0 3.654 3.654 0 0 0-3.654-3.653zm40.83 1.01a6.83 6.83 0 0 0-6.83 6.83 6.83 6.83 0 1 0 13.66 0 6.83 6.83 0 0 0-6.83-6.83zm42.097 6.731a6.467 6.467 0 0 0-6.467 6.466 6.467 6.467 0 0 0 6.467 6.465 6.465 6.465 0 0 0 6.464-6.465 6.465 6.465 0 0 0-6.464-6.466zm-59.678 4.89a4.966 4.966 0 0 0-4.967 4.966 4.969 4.969 0 0 0 4.967 4.968 4.969 4.969 0 0 0 4.967-4.968 4.966 4.966 0 0 0-4.967-4.966zm43.216 6.454a6.566 6.566 0 0 0-6.567 6.565 6.566 6.566 0 0 0 13.13 0 6.563 6.563 0 0 0-6.563-6.565zM58.556 77.76a3.02 3.02 0 0 0 0 6.04 3.02 3.02 0 0 0 0-6.04zm39.3 5.634a5.72 5.72 0 0 0-5.717 5.722 5.72 5.72 0 1 0 5.717-5.722zm-17.01 6.427a4.543 4.543 0 0 0-4.54 4.545 4.543 4.543 0 1 0 9.085 0 4.546 4.546 0 0 0-4.544-4.545zm-13.235 2.504a2.914 2.914 0 0 0 0 5.827 2.914 2.914 0 0 0 0-5.828z" fill="#0070BA"/><g transform="translate(-79.3 7.718)"><mask id="m" fill="#fff"><use xlink:href="#l"/></mask><g mask="url(#m)" fill="#F08CC0"><path d="M234.835 2.222s-38.235 2.717-67.408 18.94c-29.173 16.224-45.698 44.7-45.698 44.7l113.106-63.64zm21.206 6.568s-57.798 18.642-82.418 33.523c-24.62 14.88-48.865 35.925-48.865 35.925s35.778-13.91 60.719-27.514C210.417 37.121 256.04 8.79 256.04 8.79zm-29.224 26.326l-76.055 48.3s29.596 1.428 50.493-11.68c20.897-13.11 25.562-36.62 25.562-36.62z"/></g></g><path d="M135.873 49.943l41.405-31.719" stroke="#00B0C2" stroke-width=".5" opacity=".6"/><path d="M56.472 88.291c67.03-25.948 100.356-54.296 100.356-54.296s-28.045 25.418-44.497 34.409C94.986 77.882 56.47 88.29 56.47 88.29z" fill="#00B1FC" opacity=".6"/><path d="M158.697 47.923l9.493-16.769" stroke="#00B0C2" stroke-width=".5" opacity=".6"/><path d="M75.723 89.238c38.817-11.68 66.588-37.25 66.588-37.25s-13.565 17.363-28.402 25.886C103.73 83.62 75.723 89.238 75.723 89.238z" fill="#FFBAE3" opacity=".4"/><path d="M34.065 80.715C76.985 33.365 174.501 8.11 174.501 8.11" stroke="#FFF" stroke-width=".5" opacity=".7"/><path fill="#0236FF" opacity=".1" d="M67.833 58.934l67.851-33.777-37.87 15.783z"/><path d="M61.433 59.174c34.045-24.118 85.612-41.594 85.612-41.594s-37.288 10.195-51.567 17.476C81.2 42.337 61.433 59.174 61.433 59.174z" fill="#FFF"/></g><g><path d="M46.973 109.947c7.574 32.072 42.465 23.435 42.465 23.435s-15.3 11.73-28.832 5.354c-13.53-6.375-13.633-28.79-13.633-28.79z" stroke="#00ECFF" stroke-width=".5" fill="#E6FFFF"/><path d="M50.444 113.978a3.707 3.707 0 1 0 .001 7.414 3.707 3.707 0 0 0-.001-7.414zm47.811 10.064c-.936 0-1.696.758-1.696 1.694a1.695 1.695 0 0 0 3.39 0c0-.936-.758-1.694-1.694-1.694zm-40.981.741a3.493 3.493 0 1 0 0 6.989 3.493 3.493 0 1 0 0-6.989zm35.473.369a2.065 2.065 0 1 0 0 4.13 2.065 2.065 0 0 0 0-4.13zm-6.724 3.073a2.065 2.065 0 1 0 0 4.13 2.065 2.065 0 0 0 0-4.13zm-9.37 3.284a2.702 2.702 0 0 0-2.703 2.7 2.702 2.702 0 0 0 5.403 0 2.7 2.7 0 0 0-2.7-2.7zm-10.061.635a3.496 3.496 0 1 0 .001 6.992 3.496 3.496 0 0 0-.001-6.992z" fill="#0070BA"/><g transform="translate(92.523 113.775)"><mask id="o" fill="#fff"><use xlink:href="#n"/></mask><g mask="url(#o)"><path d="M-51.46-8.173s7.802 25.497 21.562 31.114c7.532 3.075 19.19-1.264 19.19-1.264-23.43-1.616-33.642-18.334-40.751-29.85zM4.107 9.62c-3.623 0-8.668 1.206-14.364 5.83l.976 2.615c5.453-4.427 10.305-6.089 13.59-6.089 3.284 0 4.94.23 4.94.23l.744-1.358S7.728 9.62 4.106 9.62z" fill="#F695C8" opacity=".8"/><path d="M-42.287 9.91C-31.178 26.476-12.8 22.84-12.8 22.84" stroke="#FFA4D9" stroke-width=".5"/></g></g><path d="M81.428 130.7c11.763-5.949 14.219-7.5 22.104-4.268-2.973-2.327-4.783-4.008-4.783-4.008l-6.721.647-10.6 7.628z" fill="#FFF" opacity=".8"/></g><path d="M162.12 3.48c-31.685.467-99.645 9.87-136.353 77.646l-.266.493.11.55s4.398 21.84 9.595 37.963c.06.349 3.239 18.553 19.232 24.795 11.056 4.316 19.114 3.42 25.493.097 6.378-3.324 11.065-8.841 16.117-13.54 2.575-2.394 7.637-3.235 7.637-3.235l2.337-.318-1.221-2.017c-3.685-6.086-11.974-6.78-17.058-2.876-4.054 3.113-7.768 6.509-12.184 6.844-9.386.712-18.91-7.078-18.397-18.082.198-4.25 2.51-9.185 5.762-11.165.13.017.113.016.445.085.553.115 1.313.293 2.222.502 1.818.417 4.237.954 6.984 1.373 5.493.837 12.314 1.234 18.475-.88 16.527-5.671 36.211-13.831 49.088-27.07 5.152-5.297 7.852-11.737 10.085-16.86 1.117-2.56 2.125-4.796 3.163-6.36 1.037-1.563 1.995-2.365 3.108-2.591.206-.042.294-.029.674.245.38.273.894.813 1.497 1.421.602.609 1.305 1.297 2.27 1.79a4.962 4.962 0 0 0 3.54.36c3.044-.832 5.238-3.264 6.67-6.036 1.432-2.772 2.161-5.955 2.147-8.8-.01-1.75-.49-3.178-.699-4.219-.21-1.04-.229-1.464.182-2.023 1.227-1.673 3.64-1.944 6.427-2.144 1.394-.1 2.811-.172 4.157-.608s2.717-1.466 3.199-3.082c.678-2.272.58-4.29-.073-5.957-.651-1.667-1.78-2.936-2.944-4.02-2.33-2.167-4.75-3.776-5.503-5.764-.147-.387.084-1.06.656-1.796.572-.737 1.26-1.273 1.26-1.273l2.991-2.283-3.734-.481s-6.53-.84-17.09-.684zm-.042 3.067c6.961-.095 11.163.19 13.802.426-.714 1.093-1.353 2.498-.738 4.122 1.256 3.316 4.279 5.064 6.288 6.935 1.005.935 1.771 1.855 2.171 2.879.4 1.023.51 2.196-.012 3.943-.18.601-.404.766-1.185 1.02-.781.253-2.025.367-3.423.468-2.796.201-6.494.392-8.701 3.4-1.066 1.452-.987 3.157-.723 4.469.265 1.312.632 2.46.638 3.62.013 2.283-.623 5.089-1.799 7.364-1.175 2.275-2.835 3.95-4.737 4.47-.588.16-.887.088-1.315-.13-.429-.22-.936-.662-1.482-1.213-.546-.552-1.119-1.203-1.89-1.757-.77-.554-1.9-1.005-3.095-.762-2.19.445-3.803 2-5.07 3.91-1.268 1.91-2.298 4.264-3.42 6.838-2.243 5.146-4.818 11.156-9.469 15.937-12.213 12.557-31.5 20.68-47.871 26.298-5.372 1.843-11.76 1.55-17.007.75-2.623-.4-4.958-.917-6.757-1.33-.9-.207-1.663-.388-2.286-.518-.622-.129-.947-.263-1.678-.19l-.308.03-.272.148c-4.86 2.625-7.42 8.651-7.667 13.981-.599 12.85 10.482 22.167 21.72 21.315 5.79-.44 9.966-4.504 13.837-7.476 3.027-2.324 7.75-2.247 10.812.32-1.967.533-4.408 1.453-6.503 3.403-5.224 4.858-9.77 10.108-15.438 13.06-5.667 2.954-12.467 3.851-22.934-.235-14.331-5.594-17.336-22.551-17.336-22.551l-.018-.11-.034-.105c-4.999-15.477-9.21-36.181-9.402-37.134C64.84 16.117 131.126 6.97 162.078 6.547z" fill="#000"/><g transform="translate(-48.889 79.71)"><ellipse fill="#FFF" cx="81.261" cy="20.926" rx="19.173" ry="19.178"/><ellipse cx="57.928" cy="11.58" rx="11.396" ry="11.399" transform="translate(25.315 6.194)" fill="#221D1F"/><path d="M81.261.2C69.836.2 60.54 9.498 60.54 20.927c0 11.428 9.297 20.728 20.722 20.728 11.426 0 20.72-9.3 20.72-20.728C101.98 9.497 92.687.2 81.26.2zm0 3.098c9.753 0 17.623 7.873 17.623 17.628 0 9.755-7.87 17.63-17.623 17.63-9.752 0-17.626-7.875-17.626-17.63 0-9.755 7.874-17.628 17.626-17.628z" fill="#000"/></g></g></svg>