<svg width="293" height="214" xmlns="http://www.w3.org/2000/svg"><defs><linearGradient x1="11.949%" y1="60.07%" x2="40.836%" y2="42.062%" id="a"><stop stop-color="#2D3079" stop-opacity=".2" offset="0%"/><stop stop-color="#2D3079" stop-opacity="0" offset="66%"/></linearGradient><linearGradient x1="-16.04%" y1="9.717%" x2="84.356%" y2="79.22%" id="b"><stop stop-color="#2D3079" stop-opacity=".2" offset="0%"/><stop stop-color="#2D3079" stop-opacity=".04" offset="100%"/></linearGradient><linearGradient x1="79.633%" y1="74.213%" x2="52.539%" y2="53.554%" id="c"><stop stop-color="#BE3A26" stop-opacity=".15" offset="0%"/><stop stop-color="#BE3A26" stop-opacity="0" offset="66%"/></linearGradient><linearGradient x1="50.123%" y1=".831%" x2="50.123%" y2="36.594%" id="d"><stop stop-color="#A52822" stop-opacity=".2" offset="0%"/><stop stop-color="#A52822" stop-opacity="0" offset="66%"/></linearGradient><linearGradient x1="-10.315%" y1="36.159%" x2="62.657%" y2="82.138%" id="e"><stop stop-color="#3E2723" stop-opacity=".15" offset="0%"/><stop stop-color="#3E2723" stop-opacity="0" offset="100%"/></linearGradient><linearGradient x1="50.31%" y1=".295%" x2="50.31%" y2="99.006%" id="f"><stop stop-color="#3E2723" stop-opacity=".15" offset="0%"/><stop stop-color="#462823" stop-opacity=".145" offset="3.547%"/><stop stop-color="#712E24" stop-opacity=".112" offset="25.22%"/><stop stop-color="#923325" stop-opacity=".081" offset="46.25%"/><stop stop-color="#AA3726" stop-opacity=".051" offset="66.19%"/><stop stop-color="#B93926" stop-opacity=".023" offset="84.59%"/><stop stop-color="#BE3A26" stop-opacity="0" offset="100%"/></linearGradient><radialGradient cx="6391.57%" cy="-14841.84%" fx="6391.57%" fy="-14841.84%" r="112.232%" gradientTransform="matrix(.89017 0 0 1 7.02 0)" id="g"><stop stop-color="#FFF" stop-opacity=".1" offset="0%"/><stop stop-color="#FFF" stop-opacity="0" offset="100%"/></radialGradient></defs><g fill="none" fill-rule="evenodd"><path d="M75.845 212.947H73.64v-13.12c0-.992 0-2.315.11-3.748a23.73 23.73 0 0 1-.551 1.874l-6.725 14.994H65.37l-6.615-14.883c-.22-.441-.33-1.103-.551-1.985v16.869H56v-19.515h2.977l5.953 13.561c.441.992.772 1.874.882 2.315h.11c.441-1.102.662-1.874.993-2.425l6.063-13.561h2.867v19.624zm5.292-17.529c-.441 0-.772-.11-.992-.441-.22-.331-.441-.662-.441-.992 0-.331.11-.772.44-.993.331-.33.662-.44.993-.44.441 0 .772.11.992.44.331.331.441.662.441.992 0 .441-.11.772-.44.993-.221.33-.552.44-.993.44zm1.102 17.53h-2.205v-14.002h2.205v14.002zm13.231-.662c-1.103.662-2.316.992-3.86.992-1.984 0-3.638-.661-4.85-1.984-1.213-1.323-1.875-2.977-1.875-5.072 0-2.315.662-4.079 1.985-5.512 1.543-1.323 3.197-2.095 5.402-2.095 1.213 0 2.315.22 3.308.772v2.315c-.993-.772-2.095-1.102-3.308-1.102-1.433 0-2.536.55-3.528 1.543-.882.992-1.323 2.315-1.323 3.969s.441 2.867 1.323 3.859c.882.992 1.985 1.433 3.418 1.433 1.213 0 2.315-.441 3.418-1.213v2.095h-.11zm10.032-11.025c-.44-.33-.992-.441-1.764-.441-.992 0-1.764.441-2.425 1.323-.662.882-.992 2.095-.992 3.638v7.166h-2.205v-14.001h2.205v2.866c.33-.992.771-1.764 1.433-2.315.661-.551 1.433-.772 2.205-.772.551 0 .992.11 1.323.22v2.316h.22zm7.166 12.017c-2.094 0-3.748-.661-4.96-1.984-1.214-1.323-1.875-2.977-1.875-5.182 0-2.315.661-4.19 1.874-5.512 1.213-1.323 3.087-1.985 5.292-1.985 2.095 0 3.749.662 4.851 1.874 1.213 1.323 1.764 3.087 1.764 5.292 0 2.205-.661 3.97-1.874 5.292-1.323 1.434-2.977 2.205-5.072 2.205zm.11-12.789c-1.433 0-2.535.441-3.417 1.434-.882.992-1.213 2.315-1.213 4.079 0 1.654.441 2.977 1.213 3.859.882.992 1.984 1.433 3.418 1.433 1.433 0 2.536-.441 3.307-1.434.772-.882 1.213-2.205 1.213-3.969 0-1.763-.441-3.086-1.213-3.968-.771-.882-1.874-1.434-3.307-1.434zm8.821 11.907v-2.425c1.212.882 2.535 1.323 3.969 1.323 1.984 0 2.977-.662 2.977-1.985 0-.33-.11-.661-.221-.992l-.662-.662c-.33-.22-.661-.33-.992-.55-.33-.111-.771-.331-1.212-.442a7.6 7.6 0 0 1-1.654-.772 4.895 4.895 0 0 1-1.213-.881c-.33-.331-.551-.662-.661-1.103-.11-.441-.221-.882-.221-1.433 0-.662.11-1.213.441-1.764.22-.22.551-.662 1.103-.992.55-.331 1.102-.552 1.653-.772a6.243 6.243 0 0 1 1.985-.331c1.213 0 2.315.22 3.197.662v2.205c-.992-.662-2.205-.993-3.528-.993-.441 0-.772 0-1.102.11-.331.11-.662.221-.882.442-.221.22-.441.33-.552.661-.11.22-.22.551-.22.772 0 .33.11.661.22.882.11.22.331.44.552.661.22.22.55.331.882.551.33.11.771.331 1.212.552.662.22 1.213.44 1.654.772.441.22.882.55 1.213.882.33.33.661.661.772 1.102.22.441.33.882.33 1.433 0 .662-.11 1.323-.44 1.764a3.214 3.214 0 0 1-1.214 1.213c-.55.33-1.102.551-1.764.772-.661.11-1.323.22-2.094.22-1.213 0-2.536-.33-3.528-.882zm17.75.882c-2.095 0-3.749-.661-4.961-1.984-1.213-1.323-1.875-2.977-1.875-5.182 0-2.315.662-4.19 1.875-5.512 1.433-1.323 3.087-1.985 5.292-1.985 2.094 0 3.748.662 4.85 1.874 1.213 1.323 1.765 3.087 1.765 5.292 0 2.205-.662 3.97-1.875 5.292-1.323 1.434-2.976 2.205-5.071 2.205zm.11-12.789c-1.433 0-2.535.441-3.418 1.434-.882.992-1.212 2.315-1.212 4.079 0 1.654.44 2.977 1.212 3.859.882.992 1.985 1.433 3.418 1.433s2.536-.441 3.308-1.434c.772-.882 1.213-2.205 1.213-3.969 0-1.763-.441-3.086-1.213-3.968-.662-.882-1.874-1.434-3.308-1.434zm24.145.441v-1.984h-3.528v-4.08l-2.205.772v3.418h-6.064v-2.205c0-1.985.772-2.977 2.316-2.977.55 0 .992.11 1.433.331v-1.985a6.673 6.673 0 0 0-1.654-.22 4.415 4.415 0 0 0-3.197 1.323c-.882.882-1.213 1.985-1.213 3.418v2.205h-2.425v1.874h2.425v12.128h2.205V200.93h6.064v8.269c0 2.756 1.213 4.08 3.638 4.08.882 0 1.543-.111 2.095-.442v-1.874c-.441.33-.882.441-1.433.441-.772 0-1.213-.22-1.544-.551-.33-.441-.441-1.103-.441-1.985v-7.938h3.528zm24.586 12.017h-2.536l-2.095-5.512h-8.268l-1.985 5.513h-2.536l7.608-19.515h2.315l7.497 19.514zm-5.292-7.607l-3.087-8.269c-.11-.22-.22-.661-.331-1.323-.11.552-.22.993-.33 1.323l-2.978 8.27h6.726zm16.868-5.733l-8.269 11.356h8.159v1.985H188.3v-.662l8.269-11.356h-7.497v-1.984h10.694zm13.45 13.34h-2.204v-2.205c-.882 1.654-2.316 2.536-4.3 2.536-3.308 0-4.962-1.984-4.962-5.953v-8.38h2.206v7.939c0 2.977 1.102 4.41 3.417 4.41 1.103 0 1.985-.441 2.646-1.213.662-.772 1.103-1.874 1.103-3.197v-7.938h2.205v14.002h-.11zm11.026-11.686c-.441-.33-.993-.441-1.654-.441-.993 0-1.764.441-2.426 1.323-.661.882-.992 2.095-.992 3.638v7.166h-2.205v-14.001h2.205v2.866c.33-.992.772-1.764 1.433-2.315.662-.551 1.433-.772 2.205-.772.552 0 .993.11 1.323.22v2.316h.11zm12.568 5.182h-9.812c0 1.543.44 2.756 1.213 3.638.771.882 1.874 1.213 3.307 1.213 1.543 0 2.977-.552 4.3-1.544v2.095c-1.213.882-2.867 1.323-4.851 1.323-1.985 0-3.528-.662-4.63-1.874-1.103-1.213-1.654-3.087-1.654-5.292 0-2.205.661-3.97 1.874-5.292 1.213-1.323 2.756-2.095 4.52-2.095 1.764 0 3.197.551 4.19 1.764.992 1.213 1.543 2.867 1.543 4.851v1.213zm-2.315-1.875c0-1.323-.331-2.315-.882-2.976-.662-.662-1.434-1.103-2.536-1.103s-1.984.331-2.646 1.103c-.772.771-1.213 1.764-1.323 2.976h7.387z" fill="#29A5DE" fill-rule="nonzero"/><path d="M117.858 22.28c-3.154 0-6.675 1.216-7.413 5.215-.079.425.202.628.474.69l3.232.388c.3-.015.503-.34.56-.647.276-1.376 1.41-2.025 2.673-2.025.682 0 1.449.234 1.853.862.463.699.43 1.65.43 2.456v.474c-1.92.221-4.45.354-6.248 1.164-2.076.923-3.534 2.8-3.534 5.56 0 3.535 2.166 5.3 4.956 5.3 2.355 0 3.657-.553 5.473-2.456.603.896.796 1.303 1.896 2.24.246.133.557.12.776-.085v.043c.662-.603 1.866-1.703 2.543-2.284.27-.227.21-.598 0-.906-.606-.857-1.25-1.55-1.25-3.146v-5.3c0-2.246.19-4.316-1.422-5.861-1.27-1.251-3.389-1.681-5-1.681zm43.44 0c-3.155 0-6.673 1.216-7.412 5.215-.079.425.201.628.474.69l3.232.388c.3-.015.504-.34.56-.647.278-1.376 1.41-2.025 2.673-2.025.684 0 1.449.234 1.853.862.462.699.388 1.65.388 2.456v.474c-1.921.221-4.408.354-6.206 1.164-2.077.923-3.534 2.8-3.534 5.56 0 3.535 2.167 5.3 4.956 5.3 2.353 0 3.654-.553 5.473-2.456.6.896.796 1.303 1.896 2.24.247.133.557.12.776-.085v.043c.663-.603 1.866-1.703 2.543-2.284.27-.227.208-.598 0-.906-.606-.857-1.25-1.55-1.25-3.146v-5.3c0-2.246.145-4.316-1.465-5.861-1.272-1.251-3.346-1.681-4.956-1.681zm-24.435.173c-2.038 0-3.55 1.029-4.353 3.232h-.043v-2.284a.648.648 0 0 0-.603-.603h-3.103a.655.655 0 0 0-.647.646v17.454a.67.67 0 0 0 .604.604h3.318a.653.653 0 0 0 .647-.647V31.59c0-2.02-.098-4.784 2.284-4.784 2.351 0 2.025 2.84 2.025 4.784v9.265c0 .33.27.625.604.647h3.318a.653.653 0 0 0 .647-.647V31.59c0-.992-.04-2.436.301-3.319.34-.882 1.177-1.465 1.983-1.465.96 0 1.692.335 1.939 1.508.154.698.086 2.542.086 3.276v9.265c0 .33.27.625.604.647h3.318a.653.653 0 0 0 .646-.647V29.823c0-1.875.19-4.002-.862-5.474-.928-1.32-2.445-1.896-3.835-1.896-1.95 0-3.764 1.029-4.568 3.232-.928-2.202-2.237-3.232-4.31-3.232zm56.413 0c-4.795 0-7.456 4.216-7.456 9.654 0 5.4 2.632 9.74 7.456 9.74 4.64 0 7.585-4.24 7.585-9.568 0-5.508-2.667-9.826-7.585-9.826zm18.92 0c-2.291 0-3.6 1.145-4.526 3.534h-.043v-2.672c-.06-.27-.314-.457-.603-.474h-3.06c-.334 0-.616.242-.646.56v17.454c0 .33.27.625.603.647h3.275a.657.657 0 0 0 .647-.647V31.46c0-1.177.1-2.252.56-3.318.37-.846 1.09-1.38 1.896-1.38 2.287 0 2.069 2.787 2.069 4.698v9.481c.033.297.3.541.603.56h3.319a.654.654 0 0 0 .646-.56v-10.99c0-1.688.004-4.035-.862-5.43-.928-1.507-2.397-2.068-3.879-2.068zm-39.822.302c-.336 0-.602.267-.603.646v2.5c.001.374.259.644.603.646h5.69l-6.508 9.61c-.398.62-.431 1.322-.431 1.725v2.542c0 .366.397.765.775.56 3.709-2.024 8.153-1.844 11.507-.043.407.222.819-.194.819-.56V37.71c-.033-.357-.173-.701-.603-.948-1.904-1.095-4.113-1.43-6.206-1.379l5.645-8.274c.523-.744.815-1.192.82-1.552v-2.155c0-.37-.254-.646-.604-.646h-10.904zm20.902 3.275c1.05 0 1.826.469 2.198 1.68.432 1.398.474 3.142.474 4.612 0 2.24-.104 5.947-2.672 5.947-2.597 0-2.586-4.59-2.586-6.723 0-2.127.144-5.516 2.586-5.516zm-73.651 6.378v.733c0 1.325.047 2.441-.604 3.62-.527.959-1.354 1.552-2.284 1.552-1.269 0-2.025-1.03-2.025-2.5 0-2.897 2.517-3.405 4.913-3.405zm43.44 0v.733c0 1.325.048 2.441-.603 3.62-.527.959-1.35 1.552-2.284 1.552-1.27 0-2.025-1.03-2.025-2.5 0-2.897 2.514-3.405 4.913-3.405z" fill="#201C1D"/><path d="M184.57 42.062v2.5h1.681v-2.5h-1.68zm-48.741.43v17.8h1.551v-1.595c.331.632.707 1.104 1.164 1.422.455.319.978.474 1.551.474 1.14 0 2.123-.582 2.974-1.767.85-1.184 1.293-2.902 1.293-5.085 0-1.43-.184-2.616-.56-3.62-.377-1.003-.88-1.747-1.509-2.241-.629-.492-1.343-.776-2.112-.776-.548 0-1.061.144-1.508.431-.448.287-.81.754-1.164 1.336v-6.378h-1.68zm15.945 4.181c-1.17 0-2.097.346-2.758 1.035-.66.686-.991 1.572-.991 2.672 0 .638.144 1.178.388 1.68a3.05 3.05 0 0 0 1.034 1.207c.441.3 1.322.692 2.629 1.12.905.291 1.445.539 1.68.733.343.283.518.653.518 1.164 0 .59-.205 1.082-.603 1.465-.399.385-.953.56-1.681.56-.728 0-1.327-.203-1.767-.646-.44-.443-.677-1.116-.776-2.026l-1.68.345c.38 2.765 1.76 4.139 4.137 4.137 1.268 0 2.24-.359 2.973-1.12.734-.761 1.12-1.785 1.12-3.017 0-.665-.116-1.241-.344-1.724a2.73 2.73 0 0 0-.948-1.12c-.41-.279-1.322-.65-2.715-1.12-1.012-.355-1.605-.615-1.81-.777-.344-.273-.517-.644-.517-1.12 0-.484.16-.896.517-1.207.357-.309.908-.474 1.637-.474 1.286 0 2.004.705 2.155 2.112l1.638-.259c-.113-.89-.307-1.591-.603-2.068a3.22 3.22 0 0 0-1.293-1.164c-.56-.283-1.202-.388-1.94-.388zm10.3 0c-1.346 0-2.484.556-3.361 1.724-.879 1.168-1.293 2.862-1.293 5.085 0 2.142.423 3.82 1.293 4.957.87 1.135 1.998 1.68 3.404 1.68 1.118 0 2.046-.335 2.802-1.034.757-.7 1.306-1.728 1.594-3.103l-1.724-.302c-.495 1.763-1.408 2.627-2.672 2.63-.805 0-1.462-.343-2.025-1.078-.563-.737-.88-1.829-.948-3.275h7.412v-.604c0-2.175-.433-3.807-1.293-4.956-.86-1.149-1.903-1.724-3.189-1.724zm10.214 0c-.403 0-.755.136-1.077.431-.323.295-.69.904-1.078 1.81v-1.982h-1.508v12.886h1.68v-6.723c0-.938.089-1.84.302-2.672.122-.478.35-.855.647-1.12.296-.267.634-.389.991-.389.396 0 .789.159 1.207.474l.56-2.025c-.586-.47-1.161-.69-1.724-.69zm20.6 0c-1.33 0-2.427.561-3.275 1.681-.847 1.12-1.293 2.803-1.293 5.042 0 2.223.453 3.906 1.293 5.043.841 1.135 1.89 1.68 3.189 1.68 1.072 0 1.994-.398 2.758-1.206.766-.809 1.232-1.998 1.422-3.534l-1.637-.259c-.122 1.1-.409 1.89-.862 2.414-.454.52-1 .775-1.638.775-.814 0-1.506-.379-2.025-1.163-.52-.784-.776-2.039-.776-3.793 0-1.699.275-2.926.819-3.706.543-.78 1.24-1.207 2.068-1.207.555 0 1.028.216 1.422.647.398.43.66 1.113.82 1.982l1.637-.345c-.197-1.358-.633-2.381-1.336-3.06-.705-.68-1.56-.99-2.586-.99zm9.61 0c-1.345 0-2.482.556-3.36 1.724-.88 1.168-1.294 2.862-1.294 5.085 0 2.142.423 3.82 1.293 4.957.872 1.135 1.998 1.68 3.405 1.68 1.115 0 2.044-.335 2.801-1.034.756-.7 1.305-1.728 1.595-3.103l-1.724-.302c-.495 1.763-1.369 2.627-2.63 2.63-.805 0-1.505-.343-2.068-1.078-.562-.737-.879-1.829-.948-3.275h7.413v-.604c0-2.175-.434-3.807-1.293-4.956-.858-1.149-1.904-1.724-3.19-1.724zm9.956 0c-1.17 0-2.098.346-2.758 1.035-.662.686-.991 1.572-.991 2.672 0 .638.1 1.178.344 1.68a3.03 3.03 0 0 0 1.035 1.207c.44.3 1.321.692 2.629 1.12.903.291 1.488.539 1.723.733.342.283.518.653.518 1.164 0 .59-.205 1.082-.604 1.465-.397.385-.954.56-1.68.56-.73 0-1.328-.203-1.768-.646-.438-.443-.72-1.116-.818-2.026l-1.681.345c.38 2.765 1.757 4.139 4.137 4.137 1.27 0 2.283-.359 3.017-1.12.734-.761 1.12-1.785 1.12-3.017 0-.665-.117-1.242-.344-1.724-.228-.481-.582-.84-.992-1.12-.408-.279-1.279-.65-2.672-1.12-1.012-.355-1.649-.615-1.853-.777-.343-.273-.517-.644-.517-1.12 0-.484.203-.898.56-1.207.358-.309.91-.474 1.638-.474 1.284 0 2.003.705 2.155 2.112l1.637-.259c-.114-.89-.305-1.591-.603-2.068a3.22 3.22 0 0 0-1.293-1.164c-.558-.283-1.203-.388-1.94-.388zm-38.442.259l3.75 12.886h1.594l3.75-12.886h-1.725l-2.197 7.886c-.267.955-.502 1.777-.647 2.457-.183-.856-.36-1.756-.603-2.629l-2.155-7.714h-1.767zm10.559 0v12.886h1.68V46.932h-1.68zm-55.25.172c-1.333 0-2.406.6-3.275 1.767-.87 1.168-1.336 2.862-1.336 5.086 0 2.141.43 3.778 1.293 4.913.862 1.134 2.012 1.723 3.404 1.723 1.106 0 2.01-.378 2.759-1.077.747-.7 1.264-1.728 1.551-3.103l-1.68-.259c-.49 1.763-1.38 2.627-2.63 2.63-.798 0-1.468-.343-2.025-1.078-.557-.737-.88-1.829-.948-3.275h7.326l.043-.604c0-2.175-.442-3.85-1.293-4.999-.85-1.149-1.917-1.724-3.189-1.724zm-18.92.302l3.018 12.886h1.767l1.982-9.912.345 2.197 1.594 7.715h1.724l3.06-12.886h-1.594l-1.681 7.456-.56 2.5-.518-2.5-1.465-7.456h-1.724l-1.551 7.542-.517 2.672-.604-2.758-1.551-7.456h-1.724zm107.268.13v.603h1.637v4.31h.647v-4.31h1.637v-.604h-3.921zm4.568 0v4.912h.603v-4.18l1.422 4.18h.604l1.422-4.094v4.094h.646v-4.913h-.905l-1.163 3.448c-.118.345-.201.594-.259.776l-.259-.733-1.163-3.49h-.948zm-60.206.904c.837 0 1.528.406 2.069 1.207.372.55.614 1.384.69 2.5h-5.56c.052-1.133.373-2.005.905-2.672.532-.668 1.145-1.035 1.896-1.035zm40.425 0c.834 0 1.528.406 2.068 1.207.371.55.614 1.384.69 2.5h-5.56c.053-1.133.372-2.005.905-2.672.531-.668 1.144-1.035 1.897-1.035zm-73.135.474c.828 0 1.492.406 2.026 1.207.368.55.613 1.384.69 2.5h-5.474c.052-1.133.332-2.048.862-2.716.527-.667 1.15-.99 1.896-.99zm10.688 0c.748 0 1.383.415 1.896 1.207.513.793.733 2.015.733 3.706 0 1.65-.243 2.878-.776 3.707-.532.828-1.166 1.25-1.853 1.25a2.09 2.09 0 0 1-1.379-.518c-.416-.347-.722-.846-.948-1.508-.226-.664-.345-1.683-.345-3.017 0-1.57.28-2.748.819-3.577.54-.829 1.166-1.25 1.853-1.25z" fill="#201C1D" fill-rule="nonzero"/><path d="M86.246 35.253l-6.42 2.758 5.946 2.543 6.896-2.543-6.422-2.758zM76.593 38.7l-.216 12.412 9.395 4.137V42.364l-9.18-3.664zm19.307 0l-8.49 3.233v12.153l8.49-3.448V38.7zM106.028.086l-6.465 2.758 5.99 2.543 6.896-2.543-6.421-2.758zM97.064 3.75v12.412l8.016 2.327.258-11.29-8.274-3.449zm17.928.69l-7.585 3.232v12.196l7.585-3.447V4.439zM75.666 17.555l-6.421 2.758 5.947 2.543 6.896-2.543-6.422-2.758zm-9.653 3.448l-.216 12.411 9.395 4.138V24.666l-9.18-3.663zm19.307 0l-8.49 3.232v12.153l8.49-3.448V21.003zm11.032-3.907l-6.421 2.759 5.947 2.542 6.896-2.542-6.422-2.759zM86.7 20.544l-.216 12.412 9.395 4.137V24.207l-9.18-3.663zm19.307 0l-8.49 3.232V35.93l8.49-3.448V20.544zM126.233.086l-6.421 2.758 5.947 2.543 6.895-2.543-6.42-2.758zm-9.653 3.448l-.216 12.412 9.395 4.137V7.197l-9.18-3.663zm19.307 0l-8.49 3.232V18.92l8.49-3.447V3.534z" fill="#F7A80D"/><g fill-rule="nonzero"><path d="M12.581 115.394h18.253l-2.99-5.157c-.413-.721-1.135-1.237-2.063-1.237H10.313c-.825 0-1.65.412-2.063 1.238l-4.744 8.353 9.075 15.778v-18.975z" fill="#547DBF"/><path d="M12.581 6.394h18.253l-2.99-5.157C27.43.516 26.709 0 25.78 0H10.313c-.825 0-1.65.412-2.063 1.238L3.506 9.59l9.075 15.778V6.394z" fill="url(#a)" transform="translate(0 109)"/><path fill="url(#b)" d="M3.506 9.59l4.64 4.538-.824 2.166z" transform="translate(0 109)"/><path fill-opacity=".1" fill="#2D3079" d="M7.528 125.19l-3.506-6.084-.516-.515 3.816 6.703z"/><path d="M12.581 134.369L3.506 118.59l-2.99 5.156a2.428 2.428 0 0 0 0 2.372l7.734 13.406c.412.722 1.238 1.238 2.063 1.238h9.59l9.178-15.882-16.5 9.488z" fill="#FFCE40"/><path d="M12.581 25.369L3.506 9.59l-2.99 5.156a2.428 2.428 0 0 0 0 2.372L8.25 30.525c.412.722 1.238 1.238 2.063 1.238h9.59l9.178-15.882-16.5 9.488z" fill="url(#c)" transform="translate(0 109)"/><path d="M30.834 115.394H12.581l16.397 9.487-9.178 15.881h5.981c.825 0 1.65-.412 2.063-1.237l7.734-13.51a2.428 2.428 0 0 0 0-2.371l-4.744-8.25z" fill="#DB4436"/><path d="M30.834 6.394H12.581l16.397 9.487L19.8 31.762h5.981c.825 0 1.65-.412 2.063-1.237l7.734-13.51a2.428 2.428 0 0 0 0-2.371l-4.744-8.25z" fill="url(#d)" transform="translate(0 109)"/><path fill="url(#e)" d="M23.512 6.394l12.376 12.375v12.994H19.903l3.61-6.394z" transform="translate(0 109)"/><path fill-opacity=".05" fill="#3E2723" d="M23.409 115.394h7.734v1h-7.734z"/></g><path fill="#EEE" fill-rule="nonzero" d="M23.512 115.394l5.466 9.487-5.466 9.488h-10.93l-5.466-9.488 5.465-9.487h10.931"/><g transform="translate(6.188 115.188)"><path fill="#EEE" fill-rule="nonzero" d="M17.325.206l5.466 9.488-5.466 9.487H6.394L.928 9.694 6.394.206h10.931"/><path fill-opacity=".4" fill="#FFF" fill-rule="nonzero" d="M17.325.412l5.363 9.282h.206L17.325.206H6.394L.928 9.694h.103L6.394.412z"/><path fill-opacity=".05" fill="#262626" fill-rule="nonzero" d="M22.688 9.694l-5.363 9.281H6.394L1.03 9.694H.928l5.466 9.487h10.931l5.569-9.487z"/><path fill-opacity=".05" fill="#BE3A26" fill-rule="nonzero" d="M22.894 9.694l-5.569 9.487H6.394L.928 9.694V9.9l5.466 9.487h10.931L22.894 9.9z"/><ellipse fill="#FFF" cx="12.169" cy="9.9" rx="4.95" ry="4.744"/></g><path fill="url(#f)" fill-rule="nonzero" d="M12.581 25.369l6.394 6.393h.928l3.61-6.393z" transform="translate(0 109)"/><path d="M3.506 118.797l4.744-8.353c.412-.722 1.238-1.238 2.063-1.238H25.78c.825 0 1.65.413 2.063 1.238l2.99 5.156 4.744 8.353c.206.31.31.722.31 1.134 0-.412-.104-.928-.31-1.237l-4.744-8.353-2.99-5.156c-.413-.825-1.135-1.341-2.063-1.341H10.313c-.825 0-1.65.413-2.063 1.238l-4.744 8.353-2.99 5.156c-.207.412-.31.825-.31 1.237 0-.412.103-.721.31-1.134l2.99-5.053zm6.807 21.76c-.825 0-1.65-.413-2.063-1.238l-4.744-8.353-2.99-5.157c-.207-.309-.31-.721-.31-1.134 0 .413.103.928.31 1.238l2.99 5.156 4.744 8.456c.412.722 1.238 1.238 2.063 1.238h9.59l.103-.207h-9.694zm25.575-15.779c0 .413-.104.722-.31 1.134l-4.744 8.354-2.99 5.156c-.413.722-1.238 1.237-2.063 1.237h-5.775l-.103.207h5.878c.825 0 1.65-.413 2.063-1.238l2.99-5.156 4.744-8.353a3.18 3.18 0 0 0 .31-1.34z" fill-opacity=".2" fill="#FFF" fill-rule="nonzero"/><path d="M35.578 14.644L30.834 6.29l-2.99-5.157C27.43.516 26.709 0 25.78 0H10.313c-.825 0-1.65.412-2.063 1.238L3.506 9.59l-2.99 5.156a2.428 2.428 0 0 0 0 2.372L8.25 30.525c.412.722 1.238 1.238 2.063 1.238H25.78c.825 0 1.65-.413 2.063-1.238l7.734-13.51c.413-.721.413-1.546 0-2.371zm-17.634 5.981c-2.578 0-4.744-2.166-4.744-4.744s2.166-4.744 4.744-4.744 4.744 2.166 4.744 4.744a4.731 4.731 0 0 1-4.744 4.744z" fill="url(#g)" fill-rule="nonzero" transform="translate(0 109)"/><g opacity=".54"><path d="M45.478 113.95h246.984v26.916H45.478z"/><path d="M133.547 125.294c0-5.363 4.125-9.488 9.487-9.488 2.785 0 5.054 1.135 6.704 2.99l-1.65 1.548c-1.238-1.547-2.991-2.269-5.054-2.269-3.815 0-7.012 2.784-7.012 7.219 0 4.434 3.197 7.219 7.012 7.219 2.27 0 4.229-1.032 5.57-2.682l1.65 1.65c-1.548 1.856-4.126 3.197-7.22 3.197-5.362.103-9.487-3.919-9.487-9.384zm18.46 9.075v-18.15h2.371v18.15h-2.372zm16.912-6.188c0 3.816-2.682 6.6-6.394 6.6-3.713 0-6.394-2.887-6.394-6.6 0-3.815 2.681-6.6 6.394-6.6 3.712 0 6.394 2.785 6.394 6.6zm-2.372 0c0-2.887-1.96-4.537-4.022-4.537-2.063 0-4.022 1.65-4.022 4.537 0 2.888 1.96 4.538 4.022 4.538 2.063-.103 4.022-1.753 4.022-4.538zm12.89 6.188v-1.753h-.103c-.722 1.134-2.268 2.165-3.918 2.165-3.197 0-4.744-2.165-4.744-5.26v-7.63h2.372v7.218c0 2.579 1.34 3.507 3.093 3.507 2.063 0 3.3-1.96 3.3-3.816v-6.806h2.372v12.478h-2.372v-.103zm4.125-6.188c0-3.815 2.785-6.6 5.879-6.6 1.959 0 3.506 1.032 4.228 2.166h.103l-.103-1.753v-5.775h2.372v18.15h-2.166v-1.753h-.103c-.722 1.134-2.269 2.165-4.228 2.165-3.197 0-5.982-2.784-5.982-6.6zm10.313 0c0-2.887-1.856-4.537-3.919-4.537-2.062 0-3.918 1.65-3.918 4.537 0 2.785 1.856 4.538 3.918 4.538 1.96-.103 3.919-1.753 3.919-4.538zm8.56 6.188v-18.15h6.187c2.99 0 5.672 2.269 5.672 5.362 0 3.094-2.682 5.363-5.672 5.363h-3.816v7.322h-2.372v.103zm6.29-9.59c2.062 0 3.197-1.754 3.197-3.198s-1.135-3.197-3.197-3.197h-3.919v6.394h3.919zm7.219 9.59v-18.15h2.372v18.15h-2.372zm4.331-3.713c0-2.784 2.578-4.331 5.466-4.331 1.65 0 2.887.516 3.403.722v-.31c0-1.856-1.547-2.99-3.197-2.99-1.34 0-2.578.619-2.99 1.753l-2.166-.928c.412-1.135 1.959-2.99 5.053-2.99 3.093 0 5.568 1.856 5.568 5.362v7.528h-2.268v-1.753h-.103c-.722 1.031-1.96 2.165-4.125 2.165-2.475-.103-4.641-1.65-4.641-4.228zm8.869-1.65s-1.032-.825-2.99-.825c-2.476 0-3.404 1.34-3.404 2.475 0 1.34 1.34 1.96 2.578 1.96 1.856 0 3.816-1.547 3.816-3.61zm5.568 1.65v-6.497h-2.165v-2.165h2.165v-3.816h2.372v3.816h3.094v2.165h-3.094v6.394c0 1.444.62 2.063 1.65 2.063.413 0 .722 0 1.032-.207l.825 1.96c-.516.206-1.135.31-1.857.31-2.578-.104-4.022-1.548-4.022-4.023zm15.16-14.231l-.825 1.96c-.31-.104-.619-.207-1.031-.207-1.135 0-2.063.722-2.063 2.166v1.547h3.197v2.165h-3.197v10.313h-2.372v-10.313h-2.268v-2.165h2.371v-1.547c0-2.578 1.753-4.228 4.435-4.228.722 0 1.237.103 1.753.309zm12.787 11.756c0 3.816-2.68 6.6-6.393 6.6-3.713 0-6.394-2.887-6.394-6.6 0-3.815 2.681-6.6 6.394-6.6 3.712 0 6.393 2.785 6.393 6.6zm-2.371 0c0-2.887-1.96-4.537-4.022-4.537-2.063 0-4.022 1.65-4.022 4.537 0 2.888 1.96 4.538 4.022 4.538 2.062-.103 4.021-1.753 4.021-4.538zm4.228 6.188v-12.375h2.268v2.062h.103c.516-1.443 2.27-2.372 3.61-2.372.722 0 1.237.104 1.753.31l-.928 2.165a3.846 3.846 0 0 0-1.238-.206c-1.65 0-3.197 1.34-3.197 3.61v6.806h-2.371zm8.971-12.375h2.27v1.753h.102c.722-1.238 2.372-2.166 3.816-2.166 1.96 0 3.3.928 3.919 2.372.928-1.444 2.372-2.372 4.331-2.372 3.094 0 4.434 2.166 4.434 5.26v7.63h-2.371v-7.218c0-2.578-1.032-3.403-2.785-3.403-1.856 0-3.197 1.96-3.197 3.816v6.909h-2.372v-7.219c0-2.578-1.03-3.403-2.784-3.403-1.856 0-3.197 1.96-3.197 3.816v6.91h-2.372v-12.685h.207zM45.436 124.658c0-5.748 4.817-10.406 10.565-10.406 3.171 0 5.43 1.249 7.135 2.874l-2.021 2.002c-1.21-1.15-2.855-2.042-5.114-2.042-4.182 0-7.453 3.37-7.453 7.552 0 4.182 3.27 7.552 7.453 7.552 2.715 0 4.261-1.09 5.252-2.081.813-.813 1.348-1.982 1.546-3.568h-6.798v-2.834h9.573c.1.515.159 1.11.159 1.783 0 2.141-.575 4.777-2.458 6.64-1.843 1.903-4.182 2.914-7.274 2.914-5.748 0-10.565-4.658-10.565-10.386zm28.007-2.993c-3.706 0-6.72 2.815-6.72 6.7 0 3.864 3.014 6.699 6.72 6.699s6.72-2.835 6.72-6.7c0-3.884-3.014-6.699-6.72-6.699zm0 10.743c-2.022 0-3.786-1.665-3.786-4.063 0-2.419 1.744-4.064 3.786-4.064 2.022 0 3.786 1.645 3.786 4.064 0 2.398-1.764 4.063-3.786 4.063zm14.667-10.743c-3.706 0-6.719 2.815-6.719 6.7 0 3.864 3.013 6.699 6.72 6.699 3.706 0 6.718-2.835 6.718-6.7 0-3.884-3.012-6.699-6.719-6.699zm0 10.743c-2.021 0-3.785-1.665-3.785-4.063 0-2.419 1.744-4.064 3.785-4.064 2.042 0 3.786 1.645 3.786 4.064 0 2.398-1.764 4.063-3.786 4.063zm17.997-10.347v1.09h-.099c-.654-.792-1.922-1.506-3.528-1.506-3.35 0-6.422 2.934-6.422 6.72 0 3.745 3.073 6.679 6.422 6.679 1.606 0 2.874-.714 3.528-1.526h.1v.971c0 2.557-1.368 3.924-3.568 3.924-1.804 0-2.914-1.288-3.37-2.378l-2.557 1.07c.734 1.784 2.696 3.964 5.947 3.964 3.448 0 6.362-2.021 6.362-6.976V122.06h-2.815zm-3.37 10.347c-2.02 0-3.725-1.705-3.725-4.044 0-2.358 1.704-4.083 3.726-4.083 2.002 0 3.568 1.725 3.568 4.083.02 2.359-1.566 4.044-3.568 4.044zm11.633 1.442h-2.934v-19.68h2.934zm7.831-1.624c-1.506 0-2.556-.694-3.25-2.022l8.959-3.706-.298-.753c-.555-1.507-2.26-4.262-5.728-4.262-3.449 0-6.323 2.716-6.323 6.7 0 3.746 2.835 6.699 6.64 6.699 3.073 0 4.837-1.883 5.59-2.973l-2.28-1.526c-.773 1.11-1.803 1.843-3.31 1.843zm-.218-8.166c1.17 0 2.16.575 2.478 1.427l-5.986 2.478c-.08-2.577 2.002-3.905 3.508-3.905z" fill="#000" fill-rule="nonzero"/></g></g></svg>