<svg xmlns="http://www.w3.org/2000/svg" width="600" height="212" viewBox="0 0 600 212">
  <g fill="none">
    <path fill="#000" d="M113.2 94.9L113.2 133.5C113.2 143.4 118 148.2 127.9 148.2L132.2 148.2C142.1 148.2 146.9 143.4 146.9 133.5L146.9 114.6 169.5 114.6 169.5 132.7C169.5 157.5 157 170.3 131.9 170.3L127.1 170.3C102.3 170.3 89.5 157.8 89.5 135.7L89.5 40.9C89.5 13.2 102 .4 127.1.4L131.9.4C156.7.4 169.5 12.9 169.5 38L169.5 94.7 113.3 94.7 113.3 94.9 113.2 94.9zM113.2 72.2L146.5 72.2 146.5 37C146.5 27.1 141.7 22.3 131.8 22.3L128.1 22.3C118.2 22.3 113.4 27.1 113.4 37L113.4 72.2 113.2 72.2zM184.9 2.4L208.3 2.4 208.3 13.1C213.9 7.2 223.5.6 236.8.6 256.8.6 266.6 13.9 266.6 33.4L266.6 137.3C266.6 157 256.7 170.1 236.8 170.1 223.2 170.1 213.9 163.7 208.3 158.1L208.3 211.7 184.9 211.7 184.9 2.4zM208.3 139.4C214.7 145 222.2 147.9 229.9 147.9 238.4 147.9 243.5 143.9 243.5 134.3L243.5 36.3C243.5 26.7 238.7 22.7 229.9 22.7 222.2 22.7 214.7 25.9 208.3 31.2L208.3 139.4zM280.8 110.6C280.8 90.1 287.5 81.8 305.3 75.7L336.7 65 336.7 37C336.7 27.1 331.9 21.8 322 21.8L318.3 21.8C308.4 21.8 303.6 27.1 303.6 37L303.6 60.4 281 60.4 281 37.8C281 13 293.5.2 318.6.2L323.1.2C347.9.2 360.7 12.7 360.7 37.8L360.7 168.1 337.3 168.1 337.3 157.7C330.9 163.8 322.1 170 308.8 170 290.1 170 281.4 159.3 281.4 140.7L281.4 110.6 280.8 110.6zM336.8 140.2L336.8 85.6 315.5 93.6C307 97.1 304 101.3 304 110.9L304 136.2C304 144.2 308 148.2 315.5 148.2 322.6 147.9 329 145.5 336.8 140.2zM454.5 168.2L431.1 168.2 431.1 34.7C431.1 26.4 427.1 22.7 419.9 22.7 413.5 22.7 406.6 25.1 398.3 31L398.3 168.2 374.9 168.2 374.9 2.4 398.3 2.4 398.3 13.1C405 6.7 414 .6 426.8.6 438.8.6 446.8 5.4 451 14.2 459.3 7 469.1.6 482.7.6 500.8.6 510.1 11.8 510.1 29.9L510.1 168.4 486.7 168.4 486.7 34.7C486.7 26.4 482.7 22.7 475.5 22.7 469.1 22.7 462.2 25.1 453.9 31L453.9 168.2 454.5 168.2z"/>
    <polygon fill="#00B5D1" points="59.9 17.6 59.9 48.2 20.7 85.5 59.9 122.3 59.9 153.5 0 97 0 74.6"/>
    <polygon fill="#00B5D1" points="600 74.6 600 97 540.1 153.5 540.1 122.3 579.3 85.5 540.1 48 540.1 17.6"/>
  </g>
</svg>
