<?xml version="1.0" encoding="utf-8"?>
<!-- Generator: Adobe Illustrator 19.2.1, SVG Export Plug-In . SVG Version: 6.00 Build 0)  -->
<svg version="1.1" id="layer" xmlns="http://www.w3.org/2000/svg" xmlns:xlink="http://www.w3.org/1999/xlink" x="0px" y="0px"
	 viewBox="0 0 652 652" style="enable-background:new 0 0 652 652;" xml:space="preserve">
<style type="text/css">
	.st0{fill:#00B5D1;}
</style>
<g>
	<path d="M139.2,314.9v38.6c0,9.9,4.8,14.7,14.7,14.7h4.3c9.9,0,14.7-4.8,14.7-14.7v-18.9h22.6v18.1c0,24.8-12.5,37.6-37.6,37.6
		h-4.8c-24.8,0-37.6-12.5-37.6-34.6v-94.8c0-27.7,12.5-40.5,37.6-40.5h4.8c24.8,0,37.6,12.5,37.6,37.6v56.7h-56.2V314.9z
		 M139.2,292.2h33.3v-35.2c0-9.9-4.8-14.7-14.7-14.7h-3.7c-9.9,0-14.7,4.8-14.7,14.7v35.2H139.2z"/>
	<path d="M210.9,222.4h23.4v10.7c5.6-5.9,15.2-12.5,28.5-12.5c20,0,29.8,13.3,29.8,32.8v103.9c0,19.7-9.9,32.8-29.8,32.8
		c-13.6,0-22.9-6.4-28.5-12v53.6h-23.4V222.4z M234.3,359.4c6.4,5.6,13.9,8.5,21.6,8.5c8.5,0,13.6-4,13.6-13.6v-98
		c0-9.6-4.8-13.6-13.6-13.6c-7.7,0-15.2,3.2-21.6,8.5V359.4z"/>
	<path d="M306.8,330.6c0-20.5,6.7-28.8,24.5-34.9l31.4-10.7v-28c0-9.9-4.8-15.2-14.7-15.2h-3.7c-9.9,0-14.7,5.3-14.7,15.2v23.4
		h-22.6v-22.6c0-24.8,12.5-37.6,37.6-37.6h4.5c24.8,0,37.6,12.5,37.6,37.6v130.3h-23.4v-10.4c-6.4,6.1-15.2,12.3-28.5,12.3
		c-18.7,0-27.4-10.7-27.4-29.3v-30.1H306.8z M362.8,360.2v-54.6l-21.3,8c-8.5,3.5-11.5,7.7-11.5,17.3v25.3c0,8,4,12,11.5,12
		C348.6,367.9,355,365.5,362.8,360.2z"/>
	<path d="M480.5,388.2h-23.4V254.7c0-8.3-4-12-11.2-12c-6.4,0-13.3,2.4-21.6,8.3v137.2h-23.4V222.4h23.4v10.7
		c6.7-6.4,15.7-12.5,28.5-12.5c12,0,20,4.8,24.2,13.6c8.3-7.2,18.1-13.6,31.7-13.6c18.1,0,27.4,11.2,27.4,29.3v138.5h-23.4V254.7
		c0-8.3-4-12-11.2-12c-6.4,0-13.3,2.4-21.6,8.3v137.2H480.5z"/>
	<path class="st0" d="M85.9,237.6v30.6l-39.2,37.3l39.2,36.8v31.2L26,317v-22.4L85.9,237.6z"/>
	<path class="st0" d="M626,294.6V317l-59.9,56.5v-31.2l39.2-36.8L566.1,268v-30.4L626,294.6z"/>
</g>
</svg>
