<svg xmlns="http://www.w3.org/2000/svg" width="24" height="24"><path fill="#151513" fill-rule="evenodd" d="M0 12c0 5.302 3.438 9.8 8.207 11.386.6.11.82-.26.82-.578 0-.284-.012-1.04-.018-2.04-3.34.724-4.046-1.61-4.046-1.61-.546-1.386-1.332-1.755-1.332-1.755-1.09-.744.082-.73.082-.73 1.205.086 1.838 1.238 1.838 1.238 1.07 1.837 2.81 1.308 3.493 1 .11-.775.42-1.304.762-1.603-2.666-.303-5.468-1.333-5.468-5.93 0-1.31.467-2.383 1.235-3.22-.125-.305-.537-1.525.117-3.177 0 0 1.007-.324 3.3 1.23.956-.267 1.983-.4 3.003-.405 1.02.005 2.046.138 3.005.404 2.29-1.555 3.297-1.23 3.297-1.23.655 1.65.243 2.87.12 3.174.77.838 1.233 1.91 1.233 3.22 0 4.61-2.806 5.624-5.478 5.92.43.372.814 1.104.814 2.224 0 1.602-.016 2.897-.016 3.29 0 .32.217.695.825.58C20.565 21.793 24 17.3 24 12c0-6.627-5.373-12-12-12S0 5.373 0 12z"/></svg>