<?xml version="1.0" encoding="UTF-8" standalone="no"?>
<svg width="294px" height="212px" viewBox="0 0 294 212" version="1.1" xmlns="http://www.w3.org/2000/svg" xmlns:xlink="http://www.w3.org/1999/xlink">
    <!-- Generator: Sketch 49.3 (51167) - http://www.bohemiancoding.com/sketch -->
    <title>3 LOGOS</title>
    <desc>Created with Sketch.</desc>
    <defs>
        <linearGradient x1="11.9490566%" y1="60.0703252%" x2="40.8358491%" y2="42.0617886%" id="linearGradient-1">
            <stop stop-color="#2D3079" stop-opacity="0.2" offset="0%"></stop>
            <stop stop-color="#2D3079" stop-opacity="0" offset="66%"></stop>
        </linearGradient>
        <linearGradient x1="-16.04%" y1="9.71692308%" x2="84.3555556%" y2="79.22%" id="linearGradient-2">
            <stop stop-color="#2D3079" stop-opacity="0.2" offset="0%"></stop>
            <stop stop-color="#2D3079" stop-opacity="0.04" offset="100%"></stop>
        </linearGradient>
        <linearGradient x1="79.6328571%" y1="74.2134884%" x2="52.5389286%" y2="53.5544186%" id="linearGradient-3">
            <stop stop-color="#BE3A26" stop-opacity="0.15" offset="0%"></stop>
            <stop stop-color="#BE3A26" stop-opacity="0" offset="66%"></stop>
        </linearGradient>
        <linearGradient x1="50.1225664%" y1="0.830894309%" x2="50.1225664%" y2="36.5943089%" id="linearGradient-4">
            <stop stop-color="#A52822" stop-opacity="0.2" offset="0%"></stop>
            <stop stop-color="#A52822" stop-opacity="0" offset="66%"></stop>
        </linearGradient>
        <linearGradient x1="-10.3154839%" y1="36.1589431%" x2="62.6574194%" y2="82.1378049%" id="linearGradient-5">
            <stop stop-color="#3E2723" stop-opacity="0.15" offset="0%"></stop>
            <stop stop-color="#3E2723" stop-opacity="0" offset="100%"></stop>
        </linearGradient>
        <linearGradient x1="50.3103774%" y1="0.29516129%" x2="50.3103774%" y2="99.0064516%" id="linearGradient-6">
            <stop stop-color="#3E2723" stop-opacity="0.15" offset="0%"></stop>
            <stop stop-color="#462823" stop-opacity="0.1447" offset="3.546852%"></stop>
            <stop stop-color="#712E24" stop-opacity="0.1122" offset="25.22%"></stop>
            <stop stop-color="#923325" stop-opacity="0.08062769" offset="46.25%"></stop>
            <stop stop-color="#AA3726" stop-opacity="0.05071827" offset="66.19%"></stop>
            <stop stop-color="#B93926" stop-opacity="0.02311477" offset="84.59%"></stop>
            <stop stop-color="#BE3A26" stop-opacity="0" offset="100%"></stop>
        </linearGradient>
        <radialGradient cx="6391.5702%" cy="-14841.8403%" fx="6391.5702%" fy="-14841.8403%" r="112.232468%" gradientTransform="translate(63.915702,-148.418403),scale(0.890173,1.000000),translate(-63.915702,148.418403)" id="radialGradient-7">
            <stop stop-color="#FFFFFF" stop-opacity="0.1" offset="0%"></stop>
            <stop stop-color="#FFFFFF" stop-opacity="0" offset="100%"></stop>
        </radialGradient>
    </defs>
    <g id="Page-1" stroke="none" stroke-width="1" fill="none" fill-rule="evenodd">
        <g id="JAAS" transform="translate(-837.000000, -168.000000)">
            <g id="INTRODUCTION" transform="translate(0.000000, 48.000000)">
                <g id="3-LOGOS" transform="translate(837.000000, 120.000000)">
                    <g id="MS" transform="translate(56.000000, 190.000000)" fill="#29A5DE" fill-rule="nonzero">
                        <path d="M19.845,20.9475 L17.64,20.9475 L17.64,7.82775 C17.64,6.8355 17.64,5.5125 17.75025,4.07925 C17.52975,4.96125 17.30925,5.62275 17.199,5.9535 L10.47375,20.9475 L9.37125,20.9475 L2.75625,6.06375 C2.53575,5.62275 2.4255,4.96125 2.205,4.07925 L2.205,7.82775 L2.205,20.9475 L1.77635684e-15,20.9475 L1.77635684e-15,1.43325 L2.97675,1.43325 L8.93025,14.994 C9.37125,15.98625 9.702,16.86825 9.81225,17.30925 L9.9225,17.30925 C10.3635,16.20675 10.584,15.435 10.91475,14.88375 L16.9785,1.323 L19.845,1.323 L19.845,20.9475 Z" id="path5"></path>
                        <path d="M25.137,3.41775 C24.696,3.41775 24.36525,3.3075 24.14475,2.97675 C23.92425,2.646 23.70375,2.31525 23.70375,1.9845 C23.70375,1.65375 23.814,1.21275 24.14475,0.99225 C24.4755,0.6615 24.80625,0.55125 25.137,0.55125 C25.578,0.55125 25.90875,0.6615 26.12925,0.99225 C26.46,1.323 26.57025,1.65375 26.57025,1.9845 C26.57025,2.4255 26.46,2.75625 26.12925,2.97675 C25.90875,3.3075 25.578,3.41775 25.137,3.41775 Z M26.2395,20.9475 L24.0345,20.9475 L24.0345,6.94575 L26.2395,6.94575 L26.2395,20.9475 Z" id="path7"></path>
                        <path d="M39.4695,20.286 C38.367,20.9475 37.15425,21.27825 35.61075,21.27825 C33.62625,21.27825 31.9725,20.61675 30.75975,19.29375 C29.547,17.97075 28.8855,16.317 28.8855,14.22225 C28.8855,11.907 29.547,10.143 30.87,8.70975 C32.4135,7.38675 34.06725,6.615 36.27225,6.615 C37.485,6.615 38.5875,6.8355 39.57975,7.38675 L39.57975,9.702 C38.5875,8.93025 37.485,8.5995 36.27225,8.5995 C34.839,8.5995 33.7365,9.15075 32.74425,10.143 C31.86225,11.13525 31.42125,12.45825 31.42125,14.112 C31.42125,15.76575 31.86225,16.9785 32.74425,17.97075 C33.62625,18.963 34.72875,19.404 36.162,19.404 C37.37475,19.404 38.47725,18.963 39.57975,18.19125 L39.57975,20.286 L39.4695,20.286 Z" id="path9"></path>
                        <path d="M49.50225,9.261 C49.06125,8.93025 48.51,8.82 47.73825,8.82 C46.746,8.82 45.97425,9.261 45.31275,10.143 C44.65125,11.025 44.3205,12.23775 44.3205,13.78125 L44.3205,20.9475 L42.1155,20.9475 L42.1155,6.94575 L44.3205,6.94575 L44.3205,9.81225 C44.65125,8.82 45.09225,8.04825 45.75375,7.497 C46.41525,6.94575 47.187,6.72525 47.95875,6.72525 C48.51,6.72525 48.951,6.8355 49.28175,6.94575 L49.28175,9.261 L49.50225,9.261 Z" id="path11"></path>
                        <path d="M56.6685,21.27825 C54.57375,21.27825 52.92,20.61675 51.70725,19.29375 C50.4945,17.97075 49.833,16.317 49.833,14.112 C49.833,11.79675 50.4945,9.9225 51.70725,8.5995 C52.92,7.2765 54.79425,6.615 56.99925,6.615 C59.094,6.615 60.74775,7.2765 61.85025,8.48925 C63.063,9.81225 63.61425,11.57625 63.61425,13.78125 C63.61425,15.98625 62.95275,17.75025 61.74,19.07325 C60.417,20.5065 58.76325,21.27825 56.6685,21.27825 Z M56.77875,8.48925 C55.3455,8.48925 54.243,8.93025 53.361,9.9225 C52.479,10.91475 52.14825,12.23775 52.14825,14.00175 C52.14825,15.6555 52.58925,16.9785 53.361,17.8605 C54.243,18.85275 55.3455,19.29375 56.77875,19.29375 C58.212,19.29375 59.3145,18.85275 60.08625,17.8605 C60.858,16.9785 61.299,15.6555 61.299,13.8915 C61.299,12.1275 60.858,10.8045 60.08625,9.9225 C59.3145,9.0405 58.212,8.48925 56.77875,8.48925 Z" id="path13"></path>
                        <path d="M65.59875,20.39625 L65.59875,17.97075 C66.8115,18.85275 68.1345,19.29375 69.56775,19.29375 C71.55225,19.29375 72.5445,18.63225 72.5445,17.30925 C72.5445,16.9785 72.43425,16.64775 72.324,16.317 L71.6625,15.6555 C71.33175,15.435 71.001,15.32475 70.67025,15.10425 C70.3395,14.994 69.8985,14.7735 69.4575,14.66325 C68.796,14.44275 68.355,14.22225 67.80375,13.8915 C67.36275,13.671 66.92175,13.34025 66.591,13.0095 C66.26025,12.67875 66.03975,12.348 65.9295,11.907 C65.81925,11.466 65.709,11.025 65.709,10.47375 C65.709,9.81225 65.81925,9.261 66.15,8.70975 C66.3705,8.48925 66.70125,8.04825 67.2525,7.7175 C67.80375,7.38675 68.355,7.16625 68.90625,6.94575 C69.56775,6.72525 70.22925,6.615 70.89075,6.615 C72.1035,6.615 73.206,6.8355 74.088,7.2765 L74.088,9.4815 C73.09575,8.82 71.883,8.48925 70.56,8.48925 C70.119,8.48925 69.78825,8.48925 69.4575,8.5995 C69.12675,8.70975 68.796,8.82 68.5755,9.0405 C68.355,9.261 68.1345,9.37125 68.02425,9.702 C67.914,9.9225 67.80375,10.25325 67.80375,10.47375 C67.80375,10.8045 67.914,11.13525 68.02425,11.35575 C68.1345,11.57625 68.355,11.79675 68.5755,12.01725 C68.796,12.23775 69.12675,12.348 69.4575,12.5685 C69.78825,12.67875 70.22925,12.89925 70.67025,13.11975 C71.33175,13.34025 71.883,13.56075 72.324,13.8915 C72.765,14.112 73.206,14.44275 73.53675,14.7735 C73.8675,15.10425 74.19825,15.435 74.3085,15.876 C74.529,16.317 74.63925,16.758 74.63925,17.30925 C74.63925,17.97075 74.529,18.63225 74.19825,19.07325 C73.8675,19.6245 73.53675,19.95525 72.9855,20.286 C72.43425,20.61675 71.883,20.83725 71.2215,21.05775 C70.56,21.168 69.8985,21.27825 69.12675,21.27825 C67.914,21.27825 66.591,20.9475 65.59875,20.39625 Z" id="path15"></path>
                        <path d="M83.349,21.27825 C81.25425,21.27825 79.6005,20.61675 78.38775,19.29375 C77.175,17.97075 76.5135,16.317 76.5135,14.112 C76.5135,11.79675 77.175,9.9225 78.38775,8.5995 C79.821,7.2765 81.47475,6.615 83.67975,6.615 C85.7745,6.615 87.42825,7.2765 88.53075,8.48925 C89.7435,9.81225 90.29475,11.57625 90.29475,13.78125 C90.29475,15.98625 89.63325,17.75025 88.4205,19.07325 C87.0975,20.5065 85.44375,21.27825 83.349,21.27825 Z M83.45925,8.48925 C82.026,8.48925 80.9235,8.93025 80.0415,9.9225 C79.1595,10.91475 78.82875,12.23775 78.82875,14.00175 C78.82875,15.6555 79.26975,16.9785 80.0415,17.8605 C80.9235,18.85275 82.026,19.29375 83.45925,19.29375 C84.8925,19.29375 85.995,18.85275 86.76675,17.8605 C87.5385,16.9785 87.9795,15.6555 87.9795,13.8915 C87.9795,12.1275 87.5385,10.8045 86.76675,9.9225 C86.10525,9.0405 84.8925,8.48925 83.45925,8.48925 Z" id="path17"></path>
                        <path d="M107.604,8.93025 L107.604,6.94575 L104.076,6.94575 L104.076,2.8665 L101.871,3.63825 L101.871,7.056 L95.80725,7.056 L95.80725,4.851 C95.80725,2.8665 96.579,1.87425 98.1225,1.87425 C98.67375,1.87425 99.11475,1.9845 99.55575,2.205 L99.55575,0.2205 C99.11475,0.11025 98.5635,0 97.902,0 C96.68925,0 95.58675,0.441 94.70475,1.323 C93.82275,2.205 93.492,3.3075 93.492,4.74075 L93.492,6.94575 L91.0665,6.94575 L91.0665,8.82 L93.492,8.82 L93.492,20.9475 L95.697,20.9475 L95.697,8.93025 L101.76075,8.93025 L101.76075,17.199 C101.76075,19.95525 102.9735,21.27825 105.399,21.27825 C106.281,21.27825 106.9425,21.168 107.49375,20.83725 L107.49375,18.963 C107.05275,19.29375 106.61175,19.404 106.0605,19.404 C105.28875,19.404 104.84775,19.1835 104.517,18.85275 C104.18625,18.41175 104.076,17.75025 104.076,16.86825 L104.076,8.93025 L107.604,8.93025 Z" id="path19"></path>
                        <path d="M132.18975,20.9475 L129.654,20.9475 L127.55925,15.435 L119.2905,15.435 L117.306,20.9475 L114.77025,20.9475 L122.3775,1.43325 L124.69275,1.43325 L132.18975,20.9475 Z M126.89775,13.34025 L123.81075,5.0715 C123.7005,4.851 123.59025,4.41 123.48,3.7485 C123.36975,4.29975 123.2595,4.74075 123.14925,5.0715 L120.1725,13.34025 L126.89775,13.34025 Z" id="path21"></path>
                        <polygon id="path23" points="143.766 7.60725 135.49725 18.963 143.65575 18.963 143.65575 20.9475 132.3 20.9475 132.3 20.286 140.56875 8.93025 133.07175 8.93025 133.07175 6.94575 143.766 6.94575"></polygon>
                        <path d="M157.2165,20.9475 L155.0115,20.9475 L155.0115,18.7425 C154.1295,20.39625 152.69625,21.27825 150.71175,21.27825 C147.40425,21.27825 145.7505,19.29375 145.7505,15.32475 L145.7505,6.94575 L147.9555,6.94575 L147.9555,14.88375 C147.9555,17.8605 149.058,19.29375 151.37325,19.29375 C152.47575,19.29375 153.35775,18.85275 154.01925,18.081 C154.68075,17.30925 155.12175,16.20675 155.12175,14.88375 L155.12175,6.94575 L157.32675,6.94575 L157.32675,20.9475 L157.2165,20.9475 Z" id="path25"></path>
                        <path d="M168.2415,9.261 C167.8005,8.93025 167.24925,8.82 166.58775,8.82 C165.5955,8.82 164.82375,9.261 164.16225,10.143 C163.50075,11.025 163.17,12.23775 163.17,13.78125 L163.17,20.9475 L160.965,20.9475 L160.965,6.94575 L163.17,6.94575 L163.17,9.81225 C163.50075,8.82 163.94175,8.04825 164.60325,7.497 C165.26475,6.94575 166.0365,6.72525 166.80825,6.72525 C167.3595,6.72525 167.8005,6.8355 168.13125,6.94575 L168.13125,9.261 L168.2415,9.261 Z" id="path27"></path>
                        <path d="M180.81,14.44275 L170.99775,14.44275 C170.99775,15.98625 171.43875,17.199 172.2105,18.081 C172.98225,18.963 174.08475,19.29375 175.518,19.29375 C177.0615,19.29375 178.49475,18.7425 179.81775,17.75025 L179.81775,19.845 C178.605,20.727 176.95125,21.168 174.96675,21.168 C172.98225,21.168 171.43875,20.5065 170.33625,19.29375 C169.23375,18.081 168.6825,16.20675 168.6825,14.00175 C168.6825,11.79675 169.344,10.03275 170.55675,8.70975 C171.7695,7.38675 173.313,6.615 175.077,6.615 C176.841,6.615 178.27425,7.16625 179.2665,8.379 C180.25875,9.59175 180.81,11.2455 180.81,13.23 L180.81,14.44275 Z M178.49475,12.5685 C178.49475,11.2455 178.164,10.25325 177.61275,9.59175 C176.95125,8.93025 176.1795,8.48925 175.077,8.48925 C173.9745,8.48925 173.0925,8.82 172.431,9.59175 C171.65925,10.3635 171.21825,11.35575 171.108,12.5685 L178.49475,12.5685 Z" id="path29"></path>
                    </g>
                    <g id="AWS" transform="translate(65.000000, 0.000000)">
                        <path d="M52.8575855,22.2807746 C49.7036274,22.2807746 46.1828339,23.4960896 45.4450256,27.4954243 C45.366418,27.9201812 45.6474057,28.1229061 45.9190847,28.1849647 L49.1513055,28.5728312 C49.4505661,28.5576613 49.6536358,28.232543 49.7115572,27.926387 C49.9873733,26.5500643 51.1202883,25.900862 52.3835264,25.900862 C53.0661715,25.900862 53.8325957,26.1353057 54.2366664,26.7627875 C54.7000376,27.4619815 54.6676292,28.4125131 54.6676292,29.2192754 L54.6676292,29.6933345 C52.7465695,29.9139874 50.2169903,30.0474135 48.4186688,30.856934 C46.343152,31.7795391 44.884774,33.656813 44.884774,36.4163539 C44.884774,39.9523173 47.0509653,41.7171961 49.840846,41.7171961 C52.1963162,41.7171961 53.4978238,41.1638399 55.3140734,39.2607083 C55.9167317,40.1571109 56.109803,40.5639397 57.2103096,41.5017147 C57.455786,41.6341065 57.7667687,41.6210052 57.9860426,41.4155222 L57.9860426,41.4586185 C58.6480015,40.8559601 59.8515943,39.7564878 60.528723,39.1745157 C60.7990229,38.9483464 60.7397224,38.5770289 60.528723,38.2694939 C59.9233065,37.4117055 59.278931,36.7190621 59.278931,35.1234655 L59.278931,29.8226233 C59.278931,27.5774796 59.4688994,25.5074791 57.8567538,23.9615294 C56.5866203,22.710703 54.468352,22.2807746 52.8575855,22.2807746 Z M96.2986341,22.2807746 C93.143297,22.2807746 89.6252616,23.4960896 88.8860742,27.4954243 C88.8074666,27.9201812 89.0870753,28.1229061 89.3601333,28.1849647 L92.5923542,28.5728312 C92.8916147,28.5576613 93.0960635,28.232543 93.1526058,27.926387 C93.4298011,26.5500643 94.561337,25.900862 95.8245751,25.900862 C96.5085992,25.900862 97.2736443,26.1353057 97.677715,26.7627875 C98.1397071,27.4619815 98.0655815,28.4125131 98.0655815,29.2192754 L98.0655815,29.6933345 C96.1445218,29.9139874 93.658039,30.0474135 91.8597175,30.856934 C89.7828216,31.7795391 88.3258226,33.656813 88.3258226,36.4163539 C88.3258226,39.9523173 90.493393,41.7171961 93.2818946,41.7171961 C95.6346067,41.7171961 96.9361143,41.1638399 98.755122,39.2607083 C99.3550222,40.1571109 99.5508517,40.5639397 100.651358,41.5017147 C100.898214,41.6341065 101.207817,41.6210052 101.427091,41.4155222 L101.427091,41.4586185 C102.090429,40.8559601 103.292643,39.7564878 103.969772,39.1745157 C104.240072,38.9483464 104.178013,38.5770289 103.969772,38.2694939 C103.364355,37.4117055 102.71998,36.7190621 102.71998,35.1234655 L102.71998,29.8226233 C102.71998,27.5774796 102.865473,25.5074791 101.254706,23.9615294 C99.9831935,22.710703 97.9094006,22.2807746 96.2986341,22.2807746 Z M71.8630443,22.4531597 C69.8247627,22.4531597 68.3129452,23.4816093 67.5103201,25.6853806 L67.4672239,25.6853806 L67.4672239,23.4012778 C67.4465377,23.0827101 67.1865809,22.8144789 66.863876,22.7979299 L63.7609439,22.7979299 C63.4092783,22.7979299 63.1144997,23.0954666 63.1144997,23.4443741 L63.1144997,40.8983668 C63.1407023,41.20866 63.4020381,41.4796494 63.7178476,41.5017147 L67.0362611,41.5017147 C67.3906849,41.5017147 67.6813262,41.2069362 67.6827053,40.8552706 L67.6827053,31.5895707 C67.6827053,29.5692172 67.5851353,26.8058838 69.966808,26.8058838 C72.318141,26.8058838 71.9923331,29.6450666 71.9923331,31.5895707 L71.9923331,40.8552706 C71.9923331,41.1848709 72.2619434,41.4796494 72.595681,41.5017147 L75.9140944,41.5017147 C76.2671391,41.5017147 76.5605386,41.2069362 76.5605386,40.8552706 L76.5605386,31.5895707 C76.5605386,30.5980115 76.5202005,29.153769 76.8622126,28.2711573 C77.2028455,27.3885455 78.0392581,26.8058838 78.8446414,26.8058838 C79.8044817,26.8058838 80.5371184,27.1406557 80.7839739,28.3142535 C80.938431,29.0120685 80.8701665,30.8558997 80.8701665,31.5895707 L80.8701665,40.8552706 C80.8701665,41.1848709 81.1397768,41.4796494 81.4735144,41.5017147 L84.7919278,41.5017147 C85.1449725,41.5017147 85.438372,41.2069362 85.438372,40.8552706 L85.438372,29.8226233 C85.438372,27.9484523 85.6273061,25.8208753 84.5764464,24.3493959 C83.6483249,23.0282364 82.1309912,22.4531597 80.7408776,22.4531597 C78.7908572,22.4531597 76.9766763,23.4816093 76.1726721,25.6853806 C75.2445507,23.4829883 73.9358029,22.4531597 71.8630443,22.4531597 Z M128.276073,22.4531597 C123.481008,22.4531597 120.820417,26.66901 120.820417,32.106726 C120.820417,37.5072069 123.452048,41.846485 128.276073,41.846485 C132.91668,41.846485 135.861018,37.6065007 135.861018,32.2791112 C135.861018,26.771062 133.193875,22.4531597 128.276073,22.4531597 Z M147.195346,22.4531597 C144.904692,22.4531597 143.5956,23.5984864 142.670237,25.9870545 L142.627209,25.9870545 L142.627209,23.3150852 C142.567909,23.0447854 142.313455,22.8575752 142.023861,22.8410262 L138.964026,22.8410262 C138.630274,22.8410262 138.347921,23.0827101 138.317581,23.4012778 L138.317581,40.8552706 C138.317581,41.1848709 138.588571,41.4796494 138.920929,41.5017147 L142.196246,41.5017147 C142.549291,41.5017147 142.837161,41.2083153 142.842691,40.8552706 L142.842691,31.4602819 C142.842691,30.2825468 142.94226,29.207898 143.402942,28.1418684 C143.773915,27.2964918 144.493795,26.7627875 145.299179,26.7627875 C147.585695,26.7627875 147.3678,29.5488757 147.3678,31.4602819 L147.3678,40.9414631 C147.400898,41.2379655 147.66775,41.4824076 147.971148,41.5017147 L151.289561,41.5017147 C151.61639,41.5017147 151.897377,41.2531354 151.936005,40.9414631 L151.936005,29.9519121 C151.936005,28.262538 151.940143,25.9160318 151.07408,24.521781 C150.145958,23.0144456 148.676548,22.4531597 147.195415,22.4531597 L147.195346,22.4531597 Z M107.374378,22.7548336 C107.037882,22.7548336 106.772409,23.0220306 106.77103,23.4012778 L106.77103,25.900862 C106.772409,26.2745929 107.029607,26.544548 107.374378,26.5473061 L113.063086,26.5473061 L106.555548,36.1577762 C106.158373,36.7769835 106.124586,37.4789357 106.124586,37.8816274 L106.124586,40.4243078 C106.124586,40.7897642 106.52245,41.1886634 106.900319,40.9845594 C110.608667,38.9600686 115.0531,39.1403835 118.407025,40.9414631 C118.813854,41.1634951 119.225854,40.7466679 119.225854,40.3812115 L119.225854,37.7092422 C119.192756,37.3520603 119.05278,37.0079796 118.622506,36.7611241 C116.719375,35.6661339 114.510087,35.3310172 112.416642,35.3820432 L118.062255,27.1075577 C118.584926,26.3642331 118.876947,25.9160318 118.881084,25.5560917 L118.881084,23.4012778 C118.881084,23.030305 118.628023,22.7548336 118.277736,22.7548336 L107.374378,22.7548336 Z M128.276073,26.0301508 C129.326932,26.0301508 130.101631,26.4986935 130.473983,27.7109056 C130.905635,29.1079146 130.948042,30.8521072 130.948042,32.3222074 C130.948042,34.5618348 130.843921,38.2694939 128.276073,38.2694939 C125.679263,38.2694939 125.690296,33.6799126 125.690296,31.5464744 C125.690296,29.4185526 125.83372,26.0301508 128.276073,26.0301508 Z M54.6245329,32.4084 L54.6245329,33.1410367 C54.6245329,34.4663335 54.6721112,35.5820099 54.021185,36.7611241 C53.4943761,37.7195853 52.6665828,38.3125901 51.7370822,38.3125901 C50.4683278,38.3125901 49.7115572,37.2831062 49.7115572,35.813006 C49.7115572,32.915557 52.2290694,32.4084 54.6245329,32.4084 Z M98.0655815,32.4084 L98.0655815,33.1410367 C98.0655815,34.4663335 98.1131598,35.5820099 97.4622336,36.7611241 C96.9354247,37.7195853 96.1117687,38.3125901 95.1781309,38.3125901 C93.9079974,38.3125901 93.1526058,37.2831062 93.1526058,35.813006 C93.1526058,32.915557 95.6673598,32.4084 98.0655815,32.4084 Z" id="path243" fill="#FFFFFF"></path>
                        <path d="M119.570624,42.0619664 L119.570624,44.5615505 L121.251379,44.5615505 L121.251379,42.0619664 L119.570624,42.0619664 Z M70.8287336,42.4929291 L70.8287336,60.2916921 L72.3801996,60.2916921 L72.3801996,58.6971298 C72.711179,59.3287489 73.0873233,59.8007393 73.5437991,60.119307 C73.9988958,60.4378747 74.5215675,60.5933661 75.0952651,60.5933661 C76.234386,60.5933661 77.2180154,60.0110492 78.0689084,58.8264187 C78.9198013,57.6417882 79.3617967,55.9241429 79.3617967,53.7410578 C79.3617967,52.3109509 79.1780342,51.1249413 78.8015451,50.1209704 C78.425056,49.1183786 77.9220362,48.3736749 77.2931753,47.8799639 C76.6643145,47.3876321 75.9496058,47.1042309 75.1814577,47.1042309 C74.6325835,47.1042309 74.1199102,47.2483449 73.673088,47.5351937 C73.2248867,47.8220425 72.8625332,48.2892062 72.5094884,48.8711783 L72.5094884,42.4929291 L70.8287336,42.4929291 Z M86.7743566,46.6732681 C85.604896,46.6732681 84.6767745,47.0194175 84.0161948,47.7075788 C83.355615,48.3943611 83.0249804,49.2804206 83.0249804,50.3795481 C83.0249804,51.0180626 83.1687496,51.5583175 83.4128469,52.060303 C83.6569442,52.5622884 84.0072308,52.9677382 84.4471576,53.2669987 C84.8884635,53.5662593 85.7686618,53.9586078 87.0760305,54.387502 C87.9807076,54.6784881 88.5209626,54.9256883 88.7567854,55.1201387 C89.0987975,55.4028503 89.2739407,55.7734783 89.2739407,56.2837382 C89.2739407,56.8739849 89.0691472,57.3656272 88.6705928,57.7490117 C88.2720385,58.1337753 87.7179927,58.3092633 86.989838,58.3092633 C86.2616833,58.3092633 85.6628174,58.1055041 85.2228906,57.6628191 C84.7829638,57.2201342 84.5464514,56.5474875 84.4471576,55.6372941 L82.7664027,55.9820643 C83.147029,58.7471215 84.5261099,60.1206861 86.9036454,60.119307 C88.1723999,60.119307 89.1436176,59.7600564 89.8772886,58.9988038 C90.6109597,58.2375511 90.9977919,57.2135835 90.9977919,55.9820643 C90.9977919,55.3173473 90.88057,54.7408915 90.6530217,54.2582132 C90.4254733,53.7769139 90.1131115,53.4176633 89.7049035,53.1377099 C89.2953165,52.8591356 88.3827097,52.4874733 86.989838,52.0172067 C85.9775926,51.6627829 85.3852774,51.4028261 85.1797943,51.2414737 C84.8364032,50.9684156 84.662639,50.5967533 84.662639,50.1209704 C84.662639,49.636913 84.8226123,49.2245678 85.1797943,48.9142746 C85.5369763,48.6053605 86.0879191,48.4402156 86.8174529,48.4402156 C88.1027563,48.4402156 88.8205679,49.1452707 88.9722668,50.5519332 L90.6099254,50.2933555 C90.4968407,49.4038484 90.3030799,48.7018962 90.0065775,48.2247342 C89.7100751,47.7475722 89.2722169,47.3452253 88.7136891,47.0611347 C88.1537823,46.7784231 87.5121649,46.6732681 86.7743566,46.6732681 Z M97.0743671,46.6732681 C95.7283842,46.6732681 94.5899529,47.2290378 93.7128574,48.3971193 C92.8343829,49.5652008 92.4199691,51.2594017 92.4199691,53.4824801 C92.4199691,55.6241928 92.8426574,57.3021895 93.7128574,58.4385522 C94.5830575,59.5735357 95.7108009,60.119307 97.1174634,60.119307 C98.234519,60.119307 99.1629852,59.7841904 99.9187215,59.0849963 C100.675837,58.3858023 101.225056,57.357008 101.513284,55.9820643 L99.7894327,55.6803903 C99.2943426,57.4428557 98.3807015,58.3065052 97.1174634,58.3092633 C96.3120802,58.3092633 95.6546033,57.9669065 95.0919383,57.2318564 C94.5292733,56.4954272 94.2113952,55.4031951 94.1438202,53.9565392 L101.55638,53.9565392 L101.55638,53.3531913 C101.55638,51.1783807 101.122659,49.5458937 100.263492,48.3971193 C99.4029453,47.2483449 98.3596705,46.6732681 97.0743671,46.6732681 Z M107.288185,46.6732681 C106.885494,46.6732681 106.533483,46.8091076 106.210778,47.1042309 C105.888073,47.3993542 105.520893,48.0082185 105.133371,48.9142746 L105.133371,46.9318458 L103.625001,46.9318458 L103.625001,59.8176331 L105.305756,59.8176331 L105.305756,53.0946136 C105.305756,52.1568386 105.393673,51.2556092 105.60743,50.4226444 C105.728789,49.9454824 105.957372,49.5683037 106.253874,49.3021411 C106.550377,49.0359785 106.887907,48.9142746 107.245089,48.9142746 C107.640885,48.9142746 108.033923,49.0725242 108.451785,49.3883337 L109.012036,47.3628086 C108.425927,46.8939211 107.85085,46.6732681 107.288185,46.6732681 Z M127.888206,46.6732681 C126.557393,46.6732681 125.461024,47.2342093 124.612889,48.354023 C123.766133,49.4738367 123.320001,51.1566602 123.320001,53.3962876 C123.320001,55.619366 123.773029,57.3021895 124.612889,58.4385522 C125.454128,59.5735357 126.502919,60.119307 127.802014,60.119307 C128.87356,60.119307 129.796165,59.7207526 130.560175,58.9126112 C131.325565,58.1044698 131.792039,56.9150125 131.982353,55.3787164 L130.344694,55.1201387 C130.223335,56.2192662 129.936486,57.0094796 129.482769,57.5335303 C129.029051,58.0548229 128.483624,58.3092633 127.84511,58.3092633 C127.031452,58.3092633 126.339498,57.9303608 125.819585,57.1456638 C125.299671,56.3623458 125.043852,55.1073822 125.043852,53.3531913 C125.043852,51.6541636 125.319323,50.4274712 125.862681,49.6469114 C126.406039,48.8663516 127.102475,48.4402156 127.931302,48.4402156 C128.485693,48.4402156 128.959063,48.6563865 129.35348,49.0866597 C129.750655,49.516933 130.013715,50.2002676 130.172309,51.0690885 L131.809968,50.7243183 C131.612759,49.3659236 131.177314,48.3429904 130.473983,47.6644826 C129.769273,46.9845957 128.914242,46.6732681 127.888206,46.6732681 Z M137.498683,46.6732681 C136.152693,46.6732681 135.015641,47.2290378 134.137167,48.3971193 C133.258692,49.5652008 132.844278,51.2594017 132.844278,53.4824801 C132.844278,55.6241928 133.266967,57.3021895 134.137167,58.4385522 C135.008746,59.5735357 136.13511,60.119307 137.541779,60.119307 C138.657442,60.119307 139.585908,59.7841904 140.343038,59.0849963 C141.098774,58.3858023 141.647993,57.357008 141.9376,55.9820643 L140.213749,55.6803903 C139.718659,57.4428557 138.845356,58.3065052 137.584876,58.3092633 C136.779479,58.3092633 136.078913,57.9669065 135.516247,57.2318564 C134.953582,56.4954272 134.637083,55.4031951 134.568129,53.9565392 L141.980696,53.9565392 L141.980696,53.3531913 C141.980696,51.1783807 141.546975,49.5458937 140.687808,48.3971193 C139.830019,47.2483449 138.783987,46.6732681 137.498683,46.6732681 Z M147.453924,46.6732681 C146.28307,46.6732681 145.356341,47.0194175 144.695762,47.7075788 C144.033789,48.3943611 143.704547,49.2804206 143.704547,50.3795481 C143.704547,51.0180626 143.80522,51.5583175 144.049318,52.060303 C144.292036,52.5622884 144.642322,52.9677382 145.083628,53.2669987 C145.523555,53.5662593 146.405132,53.9586078 147.712501,54.387502 C148.615799,54.6784881 149.200516,54.9256883 149.436352,55.1201387 C149.778364,55.4028503 149.953508,55.7734783 149.953508,56.2837382 C149.953508,56.8739849 149.748714,57.3656272 149.35016,57.7490117 C148.952984,58.1337753 148.396181,58.3092633 147.669405,58.3092633 C146.939871,58.3092633 146.342384,58.1055041 145.902457,57.6628191 C145.46391,57.2201342 145.181529,56.5474875 145.083628,55.6372941 L143.402873,55.9820643 C143.782121,58.7471215 145.159822,60.1206861 147.540116,60.119307 C148.81025,60.119307 149.823185,59.7600564 150.556856,58.9988038 C151.290513,58.2375511 151.677359,57.2135835 151.677359,55.9820643 C151.677359,55.3173473 151.560137,54.7395124 151.332589,54.2582132 C151.105026,53.7769139 150.750947,53.4176633 150.341374,53.1377099 C149.933152,52.8591356 149.062277,52.4874733 147.669405,52.0172067 C146.65716,51.6627829 146.020355,51.4028261 145.816265,51.2414737 C145.472874,50.9684156 145.29911,50.5967533 145.29911,50.1209704 C145.29911,49.636913 145.502179,49.2231888 145.859361,48.9142746 C146.216543,48.6053605 146.768851,48.4402156 147.49702,48.4402156 C148.78093,48.4402156 149.500135,49.1452707 149.651834,50.5519332 L151.289492,50.2933555 C151.175029,49.4038484 150.984012,48.7018962 150.686144,48.2247342 C150.389628,47.7475722 149.951784,47.3452253 149.393256,47.0611347 C148.834728,46.7784231 148.190353,46.6732681 147.453924,46.6732681 Z M109.012036,46.9318458 L112.761412,59.8176331 L114.355975,59.8176331 L118.105351,46.9318458 L116.3815,46.9318458 L114.18359,54.8184648 C113.917427,55.7727888 113.681949,56.5950658 113.537145,57.2749526 C113.353728,56.4185434 113.177895,55.5190379 112.933798,54.6460797 L110.778984,46.9318458 L109.012036,46.9318458 Z M119.570624,46.9318458 L119.570624,59.8176331 L121.251379,59.8176331 L121.251379,46.9318458 L119.570624,46.9318458 Z M64.3211955,47.1042309 C62.9876243,47.1042309 61.9146994,47.7030968 61.0458784,48.8711783 C60.1756783,50.0392599 59.7098938,51.7334608 59.7098938,53.9565392 C59.7098938,56.0982519 60.1408565,57.7345314 61.0027821,58.8695149 C61.8647077,60.0044985 63.0145164,60.5933661 64.4073881,60.5933661 C65.513411,60.5933661 66.416709,60.2151531 67.1655499,59.5159591 C67.9130118,58.8167651 68.4301671,57.7879707 68.7170159,56.4130271 L67.0362611,56.1544494 C66.5466874,57.9169148 65.6568354,58.7805642 64.4073881,58.7833224 C63.6089003,58.7833224 62.9390117,58.4409655 62.381863,57.7059154 C61.8247143,56.9694862 61.5013199,55.8772541 61.4337449,54.4305983 L68.7601122,54.4305983 L68.8032085,53.8272504 C68.8032085,51.6524398 68.3612131,49.9768565 67.5103201,48.8280821 C66.6594272,47.6793077 65.5927081,47.1042309 64.3211955,47.1042309 Z M45.4019293,47.4059049 L48.4186688,60.2916921 L50.1856162,60.2916921 L52.168045,50.3795481 L52.5128153,52.5774583 L54.1073776,60.2916921 L55.8312287,60.2916921 L58.8910645,47.4059049 L57.2965022,47.4059049 L55.6157473,54.861561 L55.0554957,57.3611452 L54.5383403,54.861561 L53.0730669,47.4059049 L51.3492157,47.4059049 L49.7977497,54.9477536 L49.2805944,57.6197229 L48.6772465,54.861561 L47.1257805,47.4059049 L45.4019293,47.4059049 Z M152.668573,47.5351937 L152.668573,48.1385416 L154.306232,48.1385416 L154.306232,52.4481695 L154.952676,52.4481695 L154.952676,48.1385416 L156.590335,48.1385416 L156.590335,47.5351937 L152.668573,47.5351937 Z M157.236779,47.5351937 L157.236779,52.4481695 L157.840127,52.4481695 L157.840127,48.2678305 L159.262304,52.4481695 L159.865652,52.4481695 L161.287829,48.354023 L161.287829,52.4481695 L161.934273,52.4481695 L161.934273,47.5351937 L161.029251,47.5351937 L159.865652,50.982896 C159.74843,51.3276662 159.664995,51.5765903 159.607074,51.758629 L159.348496,51.0259923 L158.184897,47.5351937 L157.236779,47.5351937 Z M97.0312709,48.4402156 C97.868373,48.4402156 98.5592925,48.8456654 99.0998922,49.6469114 C99.4722441,50.1971646 99.7135832,51.0308191 99.7894327,52.1464955 L94.2300128,52.1464955 C94.2824178,51.0142701 94.6027094,50.1420014 95.1350346,49.4745262 C95.6673598,48.8070511 96.2796718,48.4402156 97.0312709,48.4402156 Z M137.455587,48.4402156 C138.289931,48.4402156 138.983609,48.8456654 139.524208,49.6469114 C139.895181,50.1971646 140.137885,51.0308191 140.213749,52.1464955 L134.654322,52.1464955 C134.706727,51.0142701 135.025639,50.1420014 135.559344,49.4745262 C136.09029,48.8070511 136.702595,48.4402156 137.455587,48.4402156 Z M64.3211955,48.9142746 C65.1486441,48.9142746 65.8130163,49.3197244 66.3467206,50.1209704 C66.7149352,50.6712237 66.9604116,51.5048781 67.0362611,52.6205546 L61.5630337,52.6205546 C61.6154388,51.4883291 61.8953922,50.5729642 62.4249593,49.905489 C62.9517682,49.2380139 63.5751128,48.9142746 64.3211955,48.9142746 Z M75.0090726,48.9142746 C75.7565344,48.9142746 76.3922907,49.329378 76.9053088,50.1209704 C77.4183269,50.9139419 77.6379456,52.1364972 77.6379456,53.8272504 C77.6379456,55.4766311 77.3945378,56.7047027 76.8622126,57.5335303 C76.3298873,58.3623579 75.6958549,58.7833224 75.0090726,58.7833224 C74.504329,58.7833224 74.045095,58.6136954 73.6299917,58.266167 C73.2135092,57.9186387 72.9080428,57.4197561 72.6818736,56.7577973 C72.4557043,56.0944594 72.3371033,55.074629 72.3371033,53.7410578 C72.3371033,52.1716637 72.616712,50.9928943 73.1559326,50.1640667 C73.6951533,49.3352391 74.3222903,48.9142746 75.0090726,48.9142746 Z" id="path257" fill="#FFFFFF" fill-rule="nonzero"></path>
                        <path d="M21.2464653,35.2527557 L14.8251198,38.0109176 L20.7724062,40.553598 L27.6678107,38.0109176 L21.2464653,35.2527557 Z M11.5928989,38.700458 L11.3774175,51.1121862 L20.7724062,55.2494289 L20.7724062,42.3636417 L11.5928989,38.700458 Z M30.9000316,38.700458 L22.4100648,41.9326789 L22.4100648,54.0858294 L30.9000316,50.6381271 L30.9000316,38.700458 Z" id="polygon287" fill="#F7A80D"></path>
                        <path d="M41.0276571,0.0861925568 L34.5632153,2.84435438 L40.553598,5.3870348 L47.4490025,2.84435438 L41.0276571,0.0861925568 Z M32.0636311,3.74937622 L32.0636311,16.1611044 L40.0795389,18.4883034 L40.3381166,7.1970785 L32.0636311,3.74937622 Z M49.991683,4.43891668 L42.406738,7.67113756 L42.406738,19.8673844 L49.991683,16.4196821 L49.991683,4.43891668 Z" id="polygon311" fill="#F7A80D"></path>
                        <path d="M10.6663289,17.5550104 L4.24498342,20.3131723 L10.1922698,22.8558527 L17.0876744,20.3131723 L10.6663289,17.5550104 Z M1.01276254,21.0027127 L0.797281151,33.4144409 L10.1922698,37.5516836 L10.1922698,24.6658964 L1.01276254,21.0027127 Z M20.3198953,21.0027127 L11.8299284,24.2349336 L11.8299284,36.3880841 L20.3198953,32.9403818 L20.3198953,21.0027127 Z" id="use3387" fill="#F7A80D"></path>
                        <path d="M31.3523702,17.0964647 L24.9310247,19.8546265 L30.8783111,22.3973069 L37.7737156,19.8546265 L31.3523702,17.0964647 Z M21.6988038,20.5441669 L21.4833224,32.9558951 L30.8783111,37.0931378 L30.8783111,24.2073506 L21.6988038,20.5441669 Z M41.0059365,20.5441669 L32.5159697,23.7763878 L32.5159697,35.9295383 L41.0059365,32.4818361 L41.0059365,20.5441669 Z" id="use3389" fill="#F7A80D"></path>
                        <path d="M61.2330886,0.0861925568 L54.8117431,2.84435438 L60.7590296,5.3870348 L67.6544341,2.84435438 L61.2330886,0.0861925568 Z M51.5795222,3.53389483 L51.3640409,15.945623 L60.7590296,20.0828657 L60.7590296,7.1970785 L51.5795222,3.53389483 Z M70.886655,3.53389483 L62.3966881,6.76611571 L62.3966881,18.9192662 L70.886655,15.471564 L70.886655,3.53389483 Z" id="use3391" fill="#F7A80D"></path>
                    </g>
                    <g id="GOOGLE" transform="translate(0.000000, 109.000000)">
                        <g id="Group" fill-rule="nonzero">
                            <path d="M12.6098437,6.40828125 L30.9044531,6.40828125 L27.9070312,1.2403125 C27.4935938,0.516796875 26.7700781,0 25.8398438,0 L10.3359375,0 C9.5090625,0 8.6821875,0.4134375 8.26875,1.2403125 L3.51421875,9.61242187 L12.6098438,25.4264062 L12.6098437,6.40828125 Z" id="Shape" fill="#547DBF"></path>
                            <path d="M12.6098437,6.40828125 L30.9044531,6.40828125 L27.9070312,1.2403125 C27.4935938,0.516796875 26.7700781,0 25.8398438,0 L10.3359375,0 C9.5090625,0 8.6821875,0.4134375 8.26875,1.2403125 L3.51421875,9.61242187 L12.6098438,25.4264062 L12.6098437,6.40828125 Z" id="Shape" fill="url(#linearGradient-1)"></path>
                            <polygon id="Shape" fill="url(#linearGradient-2)" points="3.51421875 9.61242187 8.16539063 14.1602344 7.33851563 16.3307812"></polygon>
                            <polygon id="Shape" fill-opacity="0.1" fill="#2D3079" points="7.54523438 16.2274219 4.03101563 10.1292187 3.51421875 9.61242187 7.33851562 16.3307812"></polygon>
                            <path d="M12.6098437,25.4264062 L3.51421875,9.61242187 L0.516796875,14.7803906 C0.103359375,15.5039062 0.103359375,16.4341406 0.516796875,17.1576562 L8.26875,30.594375 C8.6821875,31.3178906 9.5090625,31.8346875 10.3359375,31.8346875 L19.9483594,31.8346875 L29.1473437,15.9173437 L12.6098437,25.4264062 Z" id="Shape" fill="#FFCE40"></path>
                            <path d="M12.6098437,25.4264062 L3.51421875,9.61242187 L0.516796875,14.7803906 C0.103359375,15.5039062 0.103359375,16.4341406 0.516796875,17.1576562 L8.26875,30.594375 C8.6821875,31.3178906 9.5090625,31.8346875 10.3359375,31.8346875 L19.9483594,31.8346875 L29.1473437,15.9173437 L12.6098437,25.4264062 Z" id="Shape" fill="url(#linearGradient-3)"></path>
                            <path d="M30.9044531,6.40828125 L12.6098437,6.40828125 L29.0439844,15.9173437 L19.845,31.8346875 L25.8398438,31.8346875 C26.6667188,31.8346875 27.4935938,31.42125 27.9070313,30.594375 L35.6589844,17.0542969 C36.0724219,16.3307812 36.0724219,15.4005469 35.6589844,14.6770312 L30.9044531,6.40828125 Z" id="Shape" fill="#DB4436"></path>
                            <path d="M30.9044531,6.40828125 L12.6098437,6.40828125 L29.0439844,15.9173437 L19.845,31.8346875 L25.8398438,31.8346875 C26.6667188,31.8346875 27.4935938,31.42125 27.9070313,30.594375 L35.6589844,17.0542969 C36.0724219,16.3307812 36.0724219,15.4005469 35.6589844,14.6770312 L30.9044531,6.40828125 Z" id="Shape" fill="url(#linearGradient-4)"></path>
                            <polygon id="Shape" fill="url(#linearGradient-5)" points="23.5659375 6.40828125 35.9690625 18.8114062 35.9690625 31.8346875 19.9483594 31.8346875 23.5659375 25.4264062"></polygon>
                            <rect id="Rectangle-path" fill-opacity="0.05" fill="#3E2723" x="23.4625781" y="6.40828125" width="7.75195313" height="1"></rect>
                        </g>
                        <polyline id="Shape" fill="#EEEEEE" fill-rule="nonzero" points="23.5659375 6.40828125 29.0439844 15.9173438 23.5659375 25.4264063 12.6098438 25.4264063 7.13179688 15.9173438 12.6098438 6.40828125 23.5659375 6.40828125"></polyline>
                        <g id="Group" transform="translate(6.201563, 6.201562)">
                            <polyline id="Shape" fill="#EEEEEE" fill-rule="nonzero" points="17.364375 0.20671875 22.8424219 9.71578125 17.364375 19.2248437 6.40828125 19.2248437 0.930234375 9.71578125 6.40828125 0.20671875 17.364375 0.20671875"></polyline>
                            <polygon id="Shape" fill-opacity="0.4" fill="#FFFFFF" fill-rule="nonzero" points="17.364375 0.4134375 22.7390625 9.71578125 22.9457812 9.71578125 17.364375 0.20671875 6.40828125 0.20671875 0.930234375 9.71578125 1.03359375 9.71578125 6.40828125 0.4134375"></polygon>
                            <polygon id="Shape" fill-opacity="0.05" fill="#262626" fill-rule="nonzero" points="22.7390625 9.71578125 17.364375 19.018125 6.40828125 19.018125 1.03359375 9.71578125 0.930234375 9.71578125 6.40828125 19.2248437 17.364375 19.2248437 22.9457812 9.71578125"></polygon>
                            <polygon id="Shape" fill-opacity="0.05" fill="#BE3A26" fill-rule="nonzero" points="22.9457812 9.71578125 17.364375 19.2248437 6.40828125 19.2248437 0.930234375 9.71578125 0.930234375 9.9225 6.40828125 19.4315625 17.364375 19.4315625 22.9457812 9.9225"></polygon>
                            <ellipse id="Oval-2" fill="#FFFFFF" cx="12.1964064" cy="9.9224999" rx="4.9612502" ry="4.75453115"></ellipse>
                        </g>
                        <polygon id="Shape" fill="url(#linearGradient-6)" fill-rule="nonzero" points="12.6098438 25.4264062 19.018125 31.8346875 19.9483594 31.8346875 23.5659375 25.4264062"></polygon>
                        <path d="M3.51421875,9.81914062 L8.26875,1.44703125 C8.6821875,0.723515625 9.5090625,0.20671875 10.3359375,0.20671875 L25.8398438,0.20671875 C26.6667188,0.20671875 27.4935938,0.62015625 27.9070313,1.44703125 L30.9044531,6.615 L35.6589844,14.9871094 C35.8657031,15.2971875 35.9690625,15.710625 35.9690625,16.1240625 C35.9690625,15.710625 35.8657031,15.1938281 35.6589844,14.88375 L30.9044531,6.51164062 L27.9070313,1.34367188 C27.4935938,0.516796875 26.7700781,0 25.8398438,0 L10.3359375,0 C9.5090625,0 8.6821875,0.4134375 8.26875,1.2403125 L3.51421875,9.61242187 L0.516796875,14.7803906 C0.310078125,15.1938281 0.20671875,15.6072656 0.20671875,16.0207031 C0.20671875,15.6072656 0.310078125,15.2971875 0.516796875,14.88375 L3.51421875,9.81914062 Z M10.3359375,31.6279687 C9.5090625,31.6279687 8.6821875,31.2145312 8.26875,30.3876562 L3.51421875,22.0155469 L0.516796875,16.8475781 C0.310078125,16.5375 0.20671875,16.1240625 0.20671875,15.710625 C0.20671875,16.1240625 0.310078125,16.6408594 0.516796875,16.9509375 L3.51421875,22.1189062 L8.26875,30.594375 C8.6821875,31.3178906 9.5090625,31.8346875 10.3359375,31.8346875 L19.9483594,31.8346875 L20.0517188,31.6279687 L10.3359375,31.6279687 Z M35.9690625,15.8139844 C35.9690625,16.2274219 35.8657031,16.5375 35.6589844,16.9509375 L30.9044531,25.3230469 L27.9070313,30.4910156 C27.4935938,31.2145312 26.6667188,31.7313281 25.8398438,31.7313281 L20.0517188,31.7313281 L19.9483594,31.9380469 L25.8398438,31.9380469 C26.6667188,31.9380469 27.4935938,31.5246094 27.9070313,30.6977344 L30.9044531,25.5297656 L35.6589844,17.1576562 C35.8657031,16.7442187 35.9690625,16.2274219 35.9690625,15.8139844 Z" id="Shape" fill-opacity="0.2" fill="#FFFFFF" fill-rule="nonzero"></path>
                        <path d="M35.6589844,14.6770312 L30.9044531,6.30492187 L27.9070313,1.13695312 C27.4935938,0.516796875 26.7700781,0 25.8398438,0 L10.3359375,0 C9.5090625,0 8.6821875,0.4134375 8.26875,1.2403125 L3.51421875,9.61242187 L0.516796875,14.7803906 C0.103359375,15.5039062 0.103359375,16.4341406 0.516796875,17.1576562 L8.26875,30.594375 C8.6821875,31.3178906 9.5090625,31.8346875 10.3359375,31.8346875 L25.8398438,31.8346875 C26.6667188,31.8346875 27.4935938,31.42125 27.9070313,30.594375 L35.6589844,17.0542969 C36.0724219,16.3307812 36.0724219,15.5039062 35.6589844,14.6770312 Z M17.9845313,20.671875 C15.4005469,20.671875 13.23,18.5013281 13.23,15.9173437 C13.23,13.3333594 15.4005469,11.1628125 17.9845313,11.1628125 C20.5685156,11.1628125 22.7390625,13.3333594 22.7390625,15.9173437 C22.7390625,18.5013281 20.671875,20.671875 17.9845313,20.671875 Z" id="Shape" fill="url(#radialGradient-7)" fill-rule="nonzero"></path>
                        <g id="Group" transform="translate(45.478125, 4.134375)">
                            <rect id="Rectangle-path" x="0.103359375" y="0.826875" width="247.545703" height="26.9767969"></rect>
                            <g transform="translate(87.855469, 2.067187)" fill="#FFFFFF" fill-rule="nonzero" id="Shape">
                                <path d="M0.516796875,10.1292187 C0.516796875,4.75453125 4.65117188,0.62015625 10.0258594,0.62015625 C12.8165625,0.62015625 15.0904687,1.75710937 16.7442187,3.61757812 L15.0904687,5.16796875 C13.8501563,3.61757812 12.0930469,2.8940625 10.0258594,2.8940625 C6.2015625,2.8940625 2.99742187,5.68476562 2.99742187,10.1292187 C2.99742187,14.5736719 6.2015625,17.364375 10.0258594,17.364375 C12.2997656,17.364375 14.2635937,16.3307812 15.6072656,14.6770312 L17.2610156,16.3307812 C15.710625,18.19125 13.1266406,19.5349219 10.0258594,19.5349219 C4.65117188,19.6382812 0.516796875,15.6072656 0.516796875,10.1292187 Z M19.018125,19.2248437 L19.018125,1.03359375 L21.3953906,1.03359375 L21.3953906,19.2248437 L19.018125,19.2248437 Z M35.9690625,13.0232812 C35.9690625,16.8475781 33.2817188,19.6382812 29.5607813,19.6382812 C25.8398438,19.6382812 23.1525,16.7442187 23.1525,13.0232812 C23.1525,9.19898437 25.8398438,6.40828125 29.5607813,6.40828125 C33.2817187,6.40828125 35.9690625,9.19898437 35.9690625,13.0232812 Z M33.5917969,13.0232812 C33.5917969,10.1292187 31.6279688,8.47546875 29.5607813,8.47546875 C27.4935937,8.47546875 25.5297656,10.1292187 25.5297656,13.0232812 C25.5297656,15.9173437 27.4935937,17.5710937 29.5607813,17.5710937 C31.6279688,17.4677344 33.5917969,15.8139844 33.5917969,13.0232812 Z M46.5117188,19.2248437 L46.5117188,17.4677344 L46.4083594,17.4677344 C45.6848438,18.6046875 44.1344531,19.6382812 42.4807031,19.6382812 C39.2765625,19.6382812 37.7261719,17.4677344 37.7261719,14.3669531 L37.7261719,6.71835938 L40.1034375,6.71835938 L40.1034375,13.9535156 C40.1034375,16.5375 41.4471094,17.4677344 43.2042188,17.4677344 C45.2714063,17.4677344 46.5117188,15.5039062 46.5117188,13.6434375 L46.5117188,6.82171875 L48.8889844,6.82171875 L48.8889844,19.3282031 L46.5117188,19.3282031 L46.5117188,19.2248437 Z M50.6460938,13.0232812 C50.6460938,9.19898437 53.4367969,6.40828125 56.5375781,6.40828125 C58.5014063,6.40828125 60.0517969,7.441875 60.7753125,8.57882812 L60.8786719,8.57882812 L60.7753125,6.82171875 L60.7753125,1.03359375 L63.1525781,1.03359375 L63.1525781,19.2248437 L60.9820313,19.2248437 L60.9820313,17.4677344 L60.8786719,17.4677344 C60.1551563,18.6046875 58.6047656,19.6382812 56.6409375,19.6382812 C53.4367969,19.6382812 50.6460938,16.8475781 50.6460938,13.0232812 Z M60.9820313,13.0232812 C60.9820313,10.1292187 59.1215625,8.47546875 57.054375,8.47546875 C54.9871875,8.47546875 53.1267187,10.1292187 53.1267187,13.0232812 C53.1267187,15.8139844 54.9871875,17.5710937 57.054375,17.5710937 C59.0182031,17.4677344 60.9820313,15.8139844 60.9820313,13.0232812 Z M69.5608594,19.2248437 L69.5608594,1.03359375 L75.7624219,1.03359375 C78.7598438,1.03359375 81.4471875,3.3075 81.4471875,6.40828125 C81.4471875,9.5090625 78.7598438,11.7829687 75.7624219,11.7829687 L71.938125,11.7829687 L71.938125,19.1214844 L69.5608594,19.1214844 L69.5608594,19.2248437 Z M75.8657813,9.61242187 C77.9329688,9.61242187 79.0699219,7.8553125 79.0699219,6.40828125 C79.0699219,4.96125 77.9329688,3.20414062 75.8657813,3.20414062 L71.938125,3.20414062 L71.938125,9.61242187 L75.8657813,9.61242187 Z M83.1009375,19.2248437 L83.1009375,1.03359375 L85.4782031,1.03359375 L85.4782031,19.2248437 L83.1009375,19.2248437 Z M87.4420313,15.5039062 C87.4420313,12.7132031 90.0260156,11.1628125 92.9200781,11.1628125 C94.5738281,11.1628125 95.8141406,11.6796094 96.3309375,11.8863281 L96.3309375,11.57625 C96.3309375,9.71578125 94.7805469,8.57882812 93.1267969,8.57882812 C91.783125,8.57882812 90.5428125,9.19898437 90.129375,10.3359375 L87.9588281,9.40570312 C88.3722656,8.26875 89.9226563,6.40828125 93.0234375,6.40828125 C96.1242188,6.40828125 98.6048438,8.26875 98.6048438,11.7829687 L98.6048438,19.3282031 L96.3309375,19.3282031 L96.3309375,17.5710937 L96.2275781,17.5710937 C95.5040625,18.6046875 94.26375,19.7416406 92.0932031,19.7416406 C89.6125781,19.6382812 87.4420313,18.0878906 87.4420313,15.5039062 Z M96.3309375,13.8501562 C96.3309375,13.8501562 95.2973438,13.0232812 93.3335156,13.0232812 C90.8528906,13.0232812 89.9226562,14.3669531 89.9226562,15.5039062 C89.9226562,16.8475781 91.2663281,17.4677344 92.5066406,17.4677344 C94.3671094,17.4677344 96.3309375,15.9173437 96.3309375,13.8501562 Z M101.912344,15.5039062 L101.912344,8.99226562 L99.7417969,8.99226562 L99.7417969,6.82171875 L101.912344,6.82171875 L101.912344,2.99742187 L104.289609,2.99742187 L104.289609,6.82171875 L107.390391,6.82171875 L107.390391,8.99226562 L104.289609,8.99226562 L104.289609,15.4005469 C104.289609,16.8475781 104.909766,17.4677344 105.943359,17.4677344 C106.356797,17.4677344 106.666875,17.4677344 106.976953,17.2610156 L107.803828,19.2248437 C107.287031,19.4315625 106.666875,19.5349219 105.943359,19.5349219 C103.359375,19.4315625 101.912344,17.9845312 101.912344,15.5039062 Z M117.106172,1.2403125 L116.279297,3.20414062 C115.969219,3.10078125 115.659141,2.99742187 115.245703,2.99742187 C114.10875,2.99742187 113.178516,3.7209375 113.178516,5.16796875 L113.178516,6.71835937 L116.382656,6.71835937 L116.382656,8.88890625 L113.178516,8.88890625 L113.178516,19.2248437 L110.80125,19.2248437 L110.80125,8.88890625 L108.527344,8.88890625 L108.527344,6.71835937 L110.904609,6.71835937 L110.904609,5.16796875 C110.904609,2.58398437 112.661719,0.930234375 115.349063,0.930234375 C116.072578,0.930234375 116.589375,1.03359375 117.106172,1.2403125 Z M129.922734,13.0232812 C129.922734,16.8475781 127.235391,19.6382812 123.514453,19.6382812 C119.793516,19.6382812 117.106172,16.7442187 117.106172,13.0232812 C117.106172,9.19898437 119.793516,6.40828125 123.514453,6.40828125 C127.235391,6.40828125 129.922734,9.19898437 129.922734,13.0232812 Z M127.545469,13.0232812 C127.545469,10.1292187 125.581641,8.47546875 123.514453,8.47546875 C121.447266,8.47546875 119.483437,10.1292187 119.483437,13.0232812 C119.483437,15.9173437 121.447266,17.5710937 123.514453,17.5710937 C125.581641,17.4677344 127.545469,15.8139844 127.545469,13.0232812 Z M131.783203,19.2248437 L131.783203,6.82171875 L134.057109,6.82171875 L134.057109,8.88890625 L134.160469,8.88890625 C134.677266,7.441875 136.434375,6.51164063 137.778047,6.51164063 C138.501563,6.51164063 139.018359,6.615 139.535156,6.82171875 L138.604922,8.99226562 C138.294844,8.88890625 137.881406,8.78554688 137.364609,8.78554688 C135.710859,8.78554688 134.160469,10.1292187 134.160469,12.403125 L134.160469,19.2248437 L131.783203,19.2248437 Z M140.775469,6.82171875 L143.049375,6.82171875 L143.049375,8.57882812 L143.152734,8.57882812 C143.87625,7.33851562 145.53,6.40828125 146.977031,6.40828125 C148.940859,6.40828125 150.284531,7.33851562 150.904688,8.78554687 C151.834922,7.33851562 153.281953,6.40828125 155.245781,6.40828125 C158.346563,6.40828125 159.690234,8.57882812 159.690234,11.6796094 L159.690234,19.3282031 L157.312969,19.3282031 L157.312969,12.0930469 C157.312969,9.5090625 156.279375,8.6821875 154.522266,8.6821875 C152.661797,8.6821875 151.318125,10.6460156 151.318125,12.5064844 L151.318125,19.4315625 L148.940859,19.4315625 L148.940859,12.1964062 C148.940859,9.61242187 147.907266,8.78554687 146.150156,8.78554687 C144.289688,8.78554687 142.946016,10.749375 142.946016,12.6098437 L142.946016,19.5349219 L140.56875,19.5349219 L140.56875,6.82171875 L140.775469,6.82171875 Z"></path>
                            </g>
                            <g transform="translate(0.000000, 1.000000)" fill="#FFFFFF" fill-rule="nonzero" id="logo_x5F_dark-link">
                                <g transform="translate(41.561602, 13.507910) scale(-1, 1) rotate(-180.000000) translate(-41.561602, -13.507910) translate(0.061602, 0.007910)">
                                    <g id="logo_x5F_dark" transform="translate(0.000000, 0.000000)">
                                        <path d="M0,16.4487763 C0,22.2098212 4.82735827,26.878254 10.5884031,26.878254 C13.7669106,26.878254 16.0315972,25.6267167 17.740045,23.9977316 L15.7137465,21.9912988 C14.5019405,23.1435077 12.8530897,24.037463 10.5884031,24.037463 C6.39674634,24.037463 3.11891048,20.6602987 3.11891048,16.468642 C3.11891048,12.2769852 6.39674634,8.899821 10.5884031,8.899821 C13.3100002,8.899821 14.8595226,9.99243295 15.8528062,10.9857165 C16.6672987,11.8002091 17.2036718,12.9722837 17.4023286,14.5615375 L10.5884031,14.5615375 L10.5884031,17.4023286 L20.1835226,17.4023286 C20.282851,16.8858211 20.342448,16.2898509 20.342448,15.6144181 C20.342448,13.4689255 19.7663435,10.8267912 17.8791047,8.95941802 C16.0315972,7.05231352 13.6874479,6.03916425 10.5884031,6.03916425 C4.82735827,6.03916425 0,10.7075971 0,16.4487763 Z M28.0701944,19.4484928 C24.3553137,19.4484928 21.3357316,16.6275674 21.3357316,12.7338957 C21.3357316,8.86008966 24.3553137,6.01929858 28.0701944,6.01929858 C31.785075,6.01929858 34.8046571,8.86008966 34.8046571,12.7338957 C34.8046571,16.6275674 31.785075,19.4484928 28.0701944,19.4484928 Z M28.0701944,8.68129861 C26.0438958,8.68129861 24.275851,10.350015 24.275851,12.7537613 C24.275851,15.1773733 26.0240302,16.8262241 28.0701944,16.8262241 C30.0964929,16.8262241 31.8645377,15.1773733 31.8645377,12.7537613 C31.8645377,10.350015 30.0964929,8.68129861 28.0701944,8.68129861 Z M42.7707915,19.4484928 C39.0559109,19.4484928 36.0363288,16.6275674 36.0363288,12.7338957 C36.0363288,8.86008966 39.0559109,6.01929858 42.7707915,6.01929858 C46.4856722,6.01929858 49.5052543,8.86008966 49.5052543,12.7338957 C49.5052543,16.6275674 46.4856722,19.4484928 42.7707915,19.4484928 Z M42.7707915,8.68129861 C40.744493,8.68129861 38.9764482,10.350015 38.9764482,12.7537613 C38.9764482,15.1773733 40.7246273,16.8262241 42.7707915,16.8262241 C44.8169558,16.8262241 46.5651349,15.1773733 46.5651349,12.7537613 C46.5651349,10.350015 44.7970901,8.68129861 42.7707915,8.68129861 Z M60.8088216,19.0511793 L60.8088216,17.9585674 L60.7094933,17.9585674 C60.0539261,18.7531942 58.7825231,19.4683584 57.1734037,19.4683584 C53.8161051,19.4683584 50.736926,16.528239 50.736926,12.7338957 C50.736926,8.97928369 53.8161051,6.03916425 57.1734037,6.03916425 C58.7825231,6.03916425 60.0539261,6.75432844 60.7094933,7.56882098 L60.8088216,7.56882098 L60.8088216,6.59540306 C60.8088216,4.03273139 59.4380903,2.66200003 57.2330007,2.66200003 C55.4252245,2.66200003 54.3127469,3.9532687 53.8558365,5.04588066 L51.2931648,3.97313437 C52.0281946,2.18522391 53.9948962,0 57.2528663,0 C60.7094933,0 63.629747,2.02629853 63.629747,6.9927165 L63.629747,19.0511793 L60.8088216,19.0511793 Z M57.4316574,8.68129861 C55.4053589,8.68129861 53.6969111,10.3897464 53.6969111,12.7338957 C53.6969111,15.0979106 55.4053589,16.8262241 57.4316574,16.8262241 C59.4380903,16.8262241 61.0074783,15.0979106 61.0074783,12.7338957 C61.027344,10.3698807 59.4380903,8.68129861 57.4316574,8.68129861 Z" id="Shape"></path>
                                        <polygon id="Shape" points="69.0901194 7.23515625 66.15 7.23515625 66.15 26.9617684 69.0901194 26.9617684"></polygon>
                                        <path d="M76.9393751,8.86356253 C75.429584,8.86356253 74.3767034,9.55886105 73.6814049,10.8898611 L82.6606886,14.6047417 L82.3627035,15.3596372 C81.8064647,16.8694283 80.0980169,19.6307567 76.6215243,19.6307567 C73.1648974,19.6307567 70.284375,16.9091596 70.284375,12.9161596 C70.284375,9.16154761 73.1251661,6.2015625 76.9393751,6.2015625 C80.0185542,6.2015625 81.786599,8.08880133 82.5414945,9.18141328 L80.2569423,10.71107 C79.4821811,9.59859239 78.4491661,8.86356253 76.9393751,8.86356253 Z M76.7208527,17.0482193 C77.8929273,17.0482193 78.8862109,16.4721149 79.2040617,15.617891 L73.2046288,13.134682 C73.1251661,15.7172193 75.2110616,17.0482193 76.7208527,17.0482193 Z" id="Shape"></path>
                                    </g>
                                </g>
                            </g>
                        </g>
                    </g>
                </g>
            </g>
        </g>
    </g>
</svg>