<svg xmlns="http://www.w3.org/2000/svg" height="51" width="185"><g fill-rule="evenodd" fill="none"><path fill="#4A3F2D" d="M45.247 31.963a9.153 9.153 0 0 0 5.723 2.288c3.631 0 4.582-2.202 4.582-5.096V3.813h3.942v20.662c0 1.733 0 3.744-.104 5.546-.207 4.802-2.593 7.523-8.264 7.523a11.099 11.099 0 0 1-7.867-2.843l1.988-2.738zm37.484-7.228c0-5.998-1.729-10.192-6.57-10.192s-6.916 3.986-6.916 9.394c0 4.94 1.003 10.782 6.674 10.782 4.686 0 6.812-4.542 6.812-9.984zm-6.362-13.191c3.458 0 10.218 1.092 10.218 12.376 0 9.741-4.824 13.867-11.048 13.867-6.225 0-10.218-4.299-10.218-13.278 0-10.417 6.12-12.965 11.048-12.965zm34.021 24.475V12.203h-3.78v14.941a5.639 5.639 0 0 1-1.71 4.303 5.585 5.585 0 0 1-4.36 1.538c-5.274 0-5.619-2.894-5.619-6.69V12.203H91.03v15.08c0 5.685 2.749 7.748 6.916 8.181-2.438 1.595-5.481 4.489-5.481 8.545s2.438 6.292 7.521 6.292c4.654.419 8.864-2.779 9.714-7.384.48-2.268.71-4.581.69-6.898zm-9.95 11.284c4.53 0 6.12-3.952 6.12-9.378v-4.368c-5.99 2.496-10.377 5.2-10.377 9.932.103 2.462 1.556 3.814 4.287 3.814h-.03zm26.03-35.759c-7.57 0-11.55 6.084-11.55 13.485 0 7.402 3.29 12.74 11.07 12.74a12.92 12.92 0 0 0 8.13-2.842l-1.51-2.583a10.202 10.202 0 0 1-6.38 2.305c-5.27 0-7.28-4.298-7.47-8.389h1.3c4.82 0 13.69-1.196 13.69-8.667 0-3.605-2.61-6.049-7.28-6.049zm-.19 2.895c-5.32 0-7.36 5.044-7.52 8.996h1.01c3.45 0 10.37-.798 10.37-5.287a3.567 3.567 0 0 0-3.86-3.761v.052zm16.48 22.533V20.731a6.645 6.645 0 0 1 6.73-6.136c4.18 0 4.98 2.998 4.98 6.69v15.722h3.89V20.089c0-5.685-2.79-8.666-7.92-8.666a9.454 9.454 0 0 0-8.02 4.298l-.45-3.588h-3.34l.24 3.744v21.13h3.89v-.035zm21.32-34.667v27.907c0 3.64.21 7.488 6.83 7.488 2-.028 3.96-.629 5.64-1.733l-1.15-2.6a7.196 7.196 0 0 1-3.78 1.196c-2.34 0-3.63-1.04-3.63-4.351V15.548h7.07v-3.345h-7.09v-9.88h-3.89v-.018zm15.47 2.305a2.55 2.55 0 0 0 1.55 2.35c.94.398 2.03.186 2.76-.537.72-.722.94-1.812.55-2.76s-1.31-1.566-2.33-1.566a2.525 2.525 0 0 0-1.79.73 2.533 2.533 0 0 0-.74 1.783zm.45 0c.05-1.136 1-2.023 2.13-1.992 1.14.031 2.04.97 2.02 2.107a2.074 2.074 0 0 1-2.07 2.052c-.56-.004-1.1-.237-1.49-.646s-.59-.957-.57-1.52H180zm1.09 1.474h.45V4.8h.49l.79 1.265h.49l-.85-1.3a.76.76 0 0 0 .56-.229.756.756 0 0 0 .22-.568c.01-.261-.1-.513-.3-.68s-.47-.23-.72-.17h-1.14v2.947l.01.018zm.45-2.566h.61c.31 0 .64 0 .64.451 0 .45-.37.485-.78.485h-.49v-.953l.02.017z"/><path fill="#FD6512" d="M19.762 39.641C8.848 39.641 0 30.771 0 19.829S8.848.017 19.762.017s19.762 8.87 19.762 19.812-8.848 19.812-19.762 19.812zm-3.458-30.42l-.104-.017v7.089H9.129a.745.745 0 0 0-.743.746v5.564a.745.745 0 0 0 .795.745h7.106v7.089c0 .412.333.746.743.746h5.516c.41 0 .743-.334.743-.746v-7.09h7.106a.745.745 0 0 0 .744-.744v-5.564a.745.745 0 0 0-.744-.746h-7.071v-7.09a.745.745 0 0 0-.744-.745h-5.55a.746.746 0 0 0-.726.763z"/></g></svg>