<svg xmlns="http://www.w3.org/2000/svg" id="svg6517" width="78.01" height="75.736" xmlns:xlink="http://www.w3.org/1999/xlink"><defs id="defs6519"><linearGradient id="Background"><stop id="stop4178" offset="0" stop-color="#22779e"/><stop id="stop4180" offset="1" stop-color="#2991c0"/></linearGradient><filter id="filter1121" color-interpolation-filters="sRGB"><feFlood id="feFlood1123" flood-opacity=".6" flood-color="#000" result="flood"/><feComposite id="feComposite1125" in="flood" in2="SourceGraphic" operator="out" result="composite1"/><feGaussianBlur id="feGaussianBlur1127" in="composite1" stdDeviation="1" result="blur"/><feOffset id="feOffset1129" dy="2" result="offset"/><feComposite id="feComposite1131" in="offset" in2="SourceGraphic" operator="atop" result="composite2"/></filter><filter id="filter950" color-interpolation-filters="sRGB"><feFlood id="feFlood952" flood-opacity=".25" flood-color="#000" result="flood"/><feComposite id="feComposite954" in="flood" in2="SourceGraphic" operator="in" result="composite1"/><feGaussianBlur id="feGaussianBlur956" in="composite1" stdDeviation="1" result="blur"/><feOffset id="feOffset958" dy="1" result="offset"/><feComposite id="feComposite960" in="SourceGraphic" in2="offset" result="composite2"/></filter><clipPath id="clipPath873"/><style id="style867"><![CDATA[.fil0{fill:#1F1A17}]]></style><clipPath id="clipPath16"><path id="path18" d="M-9-9h614v231H-9z"/></clipPath><clipPath id="clipPath116"><path id="path118" d="M91.737 146.325l-9.704-1.577-8.855-3.88-7.52-4.732-7.157-8.733-4.04-4.282-3.91-1.44-1.03 2.53 1.81 2.61.41 3.68 1.21-.05 1.33-1.2-.35 3.75-1.46.99.05 1.43-3.47-1.96-3.14-3.71-.65-3.31 1.35-2.66 1.25-4.51 2.55-1.21 2.68.13 2.55 1.48-1.7-8.61 1.7-9.58-1.87-4.42-6.12-6.59 1.09-3.94 2.9-4.56 5.47-3.85 2.9-.4 3.23-.11-2.01-8.26 7.4-3.03 9.21-1.22L81 67.16l.24 5.58 3.51 5.82.24 4.61 8.49-.61 7.88.73-7.89-4.73 1.335-5.7 4.97-7.76 4.85-2.06 3.885 1.58 1.58 3.15 8.13 6.19 1.58-1.33 12.74-.48 2.55 2.07.24 3.64-.85 1.57-.606 9.83-4.24 8.49.73 3.76 2.55-1.332 7.16-6.67 3.52-.243 3.88 1.57 3.88 2.91 1.94 6.31 11.404-.73 6.91 2.67 5.58 5.214 4.004 7.52.97 8.86-.85 10.31-2.18 9.22-2.18 2.91-3.03.97-5.34-5.82-4.85-1.7-4.25 7.03-4.24 3.88-2.305 1.46-9.214 7.64-7.4 4-7.4.61-8.61-1.45-7.52-2.79-5.22-4.25-4.13-4.97-4.243-1.22"/></clipPath><clipPath id="clipPath128"><path id="path130" d="M91.737 146.325l-9.704-1.577-8.855-3.88-7.52-4.732-7.157-8.733-4.04-4.282-3.91-1.44-1.03 2.53 1.81 2.61.41 3.68 1.21-.05 1.33-1.2-.35 3.75-1.46.99.05 1.43-3.47-1.96-3.14-3.71-.65-3.31 1.35-2.66 1.25-4.51 2.55-1.21 2.68.13 2.55 1.48-1.7-8.61 1.7-9.58-1.87-4.42-6.12-6.59 1.09-3.94 2.9-4.56 5.47-3.85 2.9-.4 3.23-.11-2.01-8.26 7.4-3.03 9.21-1.22L81 67.16l.24 5.58 3.51 5.82.24 4.61 8.49-.61 7.88.73-7.89-4.73 1.335-5.7 4.97-7.76 4.85-2.06 3.885 1.58 1.58 3.15 8.13 6.19 1.58-1.33 12.74-.48 2.55 2.07.24 3.64-.85 1.57-.606 9.83-4.24 8.49.73 3.76 2.55-1.332 7.16-6.67 3.52-.243 3.88 1.57 3.88 2.91 1.94 6.31 11.404-.73 6.91 2.67 5.58 5.214 4.004 7.52.97 8.86-.85 10.31-2.18 9.22-2.18 2.91-3.03.97-5.34-5.82-4.85-1.7-4.25 7.03-4.24 3.88-2.305 1.46-9.214 7.64-7.4 4-7.4.61-8.61-1.45-7.52-2.79-5.22-4.25-4.13-4.97-4.243-1.22"/></clipPath><linearGradient id="linearGradient3850"><stop id="stop3852" offset="0"/><stop id="stop3854" offset="1" stop-opacity="0"/></linearGradient><clipPath id="clipPath3095"><path id="path3097" d="M976.648 389.55H134.246v840h842.402v-840"/></clipPath><clipPath id="clipPath3195"><path id="path3197" d="M611.836 756.738l-106.34 105.207c-8.473 8.29-13.617 20.102-13.598 33.38L598.3 790.205c-.03-13.417 5.095-25.03 13.536-33.47"/></clipPath><clipPath id="clipPath3235"><path id="path3237" d="M1095.64 1501.81c35.46-35.07 70.89-70.11 106.35-105.17 4.4-4.38 7.11-10.53 7.11-17.55l-106.37 105.21c0 7-2.71 13.11-7.09 17.51"/></clipPath><clipPath id="clipPath4591"><path id="path4593" fill="#f0f" d="M1106.6 730.437l-.035 21.648c-.01 3.51-2.868 6.614-6.404 6.926l-83.65 7.34c-3.52.31-6.38-2.3-6.36-5.81l.04-21.65 20.12-1.76-.01 4.64c0 1.84 1.49 3.2 3.33 3.04l49.53-4.34c1.84-.16 3.34-1.78 3.36-3.62l.01-4.63 20.1-1.75"/></clipPath><radialGradient id="radialGradient3856" cx="-26.509" cy="93.399" r="20.407" gradientUnits="userSpaceOnUse" gradientTransform="matrix(-1.4334 -2.27428 1.17318 -.7394 -174.08 98.374)" fy="93.399" fx="-26.509" xlink:href="#linearGradient3850"/><linearGradient id="linearGradient3895" x1="348.201" x2="-51.88" y1="593.116" y2="993.197" gradientTransform="translate(-318.48 212.32)" gradientUnits="userSpaceOnUse" xlink:href="#linearGradient3850"/><clipPath id="clipPath3906"><path id="rect3908" fill="#f0f" stroke-width="4" d="M357.982 1725.815H1377.12V706.678H357.98z" overflow="visible" color="#000" opacity=".8"/></clipPath></defs><g id="layer1" color="#000" font-family="sans-serif" white-space="normal" stroke-linejoin="round"><path id="path4809" fill="#326de6" stroke="#fff" stroke-width="2" d="M1.826 49.715a5.052 5.01 0 0 0 .287.396L20.4 72.85a5.052 5.01 0 0 0 3.95 1.886h29.327a5.052 5.01 0 0 0 3.95-1.88l18.282-22.75a5.052 5.01 0 0 0 .97-4.24l-6.53-28.35a5.052 5.01 0 0 0-2.74-3.4L41.2 1.496a5.052 5.01 0 0 0-4.38 0l-26.427 12.62a5.052 5.01 0 0 0-2.735 3.4L1.13 45.87a5.052 5.01 0 0 0 .68 3.843z" overflow="visible" style="line-height:normal;text-indent:0;text-align:start;text-decoration-line:none;text-decoration-style:solid;text-decoration-color:#000;text-transform:none;isolation:auto;mix-blend-mode:normal" solid-color="#000000"/><path id="path3847" fill="#fff" stroke-width="162.015" d="M39.01 10.65a1.58 1.757-.007 0 0-1.58 1.734 1.58 1.757-.007 0 0 0 .01 1.58 1.757-.007 0 0 0 .01c0 .13-.007.31 0 .43.02.56.14.99.215 1.5.133 1.1.245 2.02.176 2.87-.06.42-.31.59-.51.79l.04.02h-.04l-.04.67c-.95.08-1.91.22-2.85.44-3.98.9-7.57 2.97-10.34 5.89l-.54-.39-.02.03.01-.05c-.28.034-.57.123-.94-.09-.7-.48-1.35-1.138-2.13-1.93-.36-.38-.61-.743-1.04-1.108-.1-.09-.26-.208-.37-.295a1.757 1.58 38.564 0 0-2.34.16 1.757 1.58 38.564 0 0 .37 2.32 1.757 1.58 38.564 0 0 .02.01 1.757 1.58 38.564 0 0 .02.01c.11.08.24.2.34.27.45.33.86.5 1.31.77.95.59 1.73 1.07 2.36 1.65.29.32.27.62.3.9l.05-.01-.02.03.5.45c-.1.15-.2.3-.29.46a20.506 20.506 0 0 0-2.92 13.82l-.66.19.01.04-.03-.03c-.15.24-.26.52-.66.68-.81.25-1.73.35-2.83.46-.52.05-.97.02-1.52.13-.12.02-.3.07-.44.1l-.02.01a1.58 1.757 77.135 0 0-1.34 1.93 1.58 1.757 77.135 0 0 2.04 1.16h.01a1.58 1.757 77.135 0 0 .02 0 1.58 1.757 77.135 0 0 .01 0c.14-.03.31-.06.43-.09.54-.15.94-.36 1.42-.55 1.05-.37 1.92-.69 2.76-.81.43-.03.65.17.89.33l.02-.04.01.04.69-.12a20.59 20.59 0 0 0 8.63 11.1c.16.1.31.19.47.29l-.28.68.04.02-.04.008c.1.266.25.524.12.935-.3.8-.8 1.57-1.4 2.51-.29.43-.584.77-.85 1.26-.06.12-.14.3-.2.43a1.58 1.757 25.706 0 0 .68 2.25 1.58 1.757 25.706 0 0 2.176-.87 1.58 1.757 25.706 0 0 .01-.02 1.58 1.757 25.706 0 0 .01-.014c.06-.12.14-.276.19-.39.225-.51.3-.95.46-1.45.36-1.05.66-1.92 1.09-2.66.24-.356.536-.4.81-.488l-.03-.04.04.01.35-.64a20.59 20.59 0 0 0 11.887.85c.93-.21 1.84-.49 2.72-.82l.32.58.04-.02-.03.04c.27.09.565.13.81.49.43.74.72 1.61 1.08 2.66.16.5.236.94.46 1.45.05.12.136.28.196.41a1.757 1.58 64.277 0 0 0 .005l.01.02a1.757 1.58 64.277 0 0 2.17.87 1.757 1.58 64.277 0 0 .67-2.25v.007a1.757 1.58 64.277 0 0-.01-.02 1.757 1.58 64.277 0 0-.01-.013c-.05-.122-.13-.28-.18-.39-.26-.5-.56-.83-.85-1.26-.6-.94-1.09-1.71-1.4-2.51-.13-.41.02-.67.12-.932l-.05-.01.04-.02-.25-.617a20.488 20.488 0 0 0 9.13-11.465l.65.11.01-.04.02.04c.24-.16.455-.36.88-.325.85.123 1.715.436 2.76.81.49.19.88.403 1.42.55.124.03.304.07.44.1h.02a1.757 1.58 12.848 0 0 2.03-1.15 1.757 1.58 12.848 0 0-1.33-1.93h-.01a1.757 1.58 12.848 0 0-.02 0 1.757 1.58 12.848 0 0-.018-.01c-.13-.04-.3-.08-.42-.1-.55-.11-.99-.08-1.51-.13-1.104-.12-2.02-.21-2.834-.47-.4-.15-.51-.43-.66-.67l-.04.03.01-.04-.64-.18c.33-2.44.23-4.94-.33-7.39-.57-2.47-1.58-4.79-2.964-6.85l.54-.48-.03-.03.05.01c.03-.29 0-.58.3-.9.62-.586 1.41-1.07 2.35-1.65.45-.267.86-.44 1.32-.77.11-.08.26-.21.37-.298a1.58 1.757 51.42 0 0 .37-2.32 1.58 1.757 51.42 0 0-2.355-.13h-.006a1.58 1.757 51.42 0 0-.01.01 1.58 1.757 51.42 0 0-.02.01c-.106.082-.247.19-.34.27-.425.363-.68.73-1.04 1.11-.78.79-1.425 1.45-2.13 1.93-.37.21-.658.13-.94.09l.004.04-.02-.03-.594.422a21.158 21.158 0 0 0-3.97-3.26c-2.8-1.76-5.94-2.8-9.16-3.08l-.04-.69h-.04l.04-.02c-.21-.2-.46-.36-.52-.79-.07-.85.04-1.76.174-2.87.07-.51.19-.94.212-1.5.006-.13 0-.33 0-.47a1.58 1.757-.007 0 0-1.6-1.72zm-1.98 12.268l-.47 8.292-.034.017a1.393 1.393 0 0 1-2.21 1.068h-.002l-.017.007-6.79-4.812a16.306 16.306 0 0 1 9.524-4.572zm3.963.01a16.425 16.425 0 0 1 6.716 2.397 16.71 16.71 0 0 1 2.74 2.17l-6.75 4.78-.03-.01v-.004l-.01.01c-.6.43-1.44.33-1.91-.26-.19-.24-.29-.53-.3-.81v-.01L41 22.92zM25.04 30.593l6.2 5.544-.01.036a1.394 1.394 0 0 1-.543 2.394l-.008.03-7.96 2.297c-.39-3.59.42-7.21 2.32-10.3zm27.897 0a16.466 16.466 0 0 1 2.385 10.27l-7.99-2.305v-.03l.01-.002a1.384 1.384 0 1 1-.54-2.39v-.02l6.17-5.52zm-11.475.608l.01.01c.02.28.11.57.31.81.47.58 1.32.69 1.92.25l.02.01-1.03.73-.42-.53h-.71l-.07-1.28zm-4.9.02l-.07 1.27h-.73l-.44.55-1.02-.72.02-.01a1.406 1.406 0 0 0 2.22-1.08l.03-.02zm10.21 4.9l.01.02c-.21.19-.37.44-.44.74-.16.73.28 1.46.99 1.66l.01.03-1.18-.34.16-.68-.46-.58.94-.83zm-15.52.03l.93.83-.45.57.17.72-1.19.35.01-.03c.28-.07.53-.23.72-.47.47-.58.39-1.43-.17-1.92l.01-.03zm6.5.43h2.54l1.59 1.98-.56 2.47-2.31 1.1-2.29-1.09-.566-2.47 1.586-1.98zm7.28 6.57l1.21.21-.01.02c-.28-.05-.58-.02-.85.12-.67.33-.97 1.13-.67 1.81l-.01.01-.47-1.14.66-.31.16-.7zm-12.02.04l.15.67.676.33-.486 1.18-.02-.03c.11-.27.15-.56.08-.86-.16-.73-.88-1.2-1.61-1.06l-.01-.02 1.22-.21zm12.995.17c.07 0 .143.01.213.02l.01-.02 8.22 1.39c-.4 1.11-.92 2.19-1.55 3.2-1.3 2.06-3.02 3.79-5.04 5.07l-3.2-7.71.01-.02a1.397 1.397 0 0 1 1.31-1.95zm-13.94.04c.63.01 1.193.45 1.338 1.09.07.3.038.6-.075.86l.02.03L30.19 53a16.461 16.461 0 0 1-6.58-8.21l8.16-1.38.01.02c.09-.01.18-.02.27-.02zm7.59 2.97l.616 1.12h-.03a1.38 1.38 0 0 0-.626-.59 1.404 1.404 0 0 0-1.833.6h-.002l.61-1.1.62.3.65-.31zm-.693.39c.22 0 .443.04.654.14.277.14.49.35.624.6h.04l4.03 7.27c-.52.18-1.06.33-1.6.46-2.98.68-6.07.5-8.92-.47l4-7.25h.01v-.01c.24-.45.7-.72 1.18-.73z" overflow="visible" style="line-height:normal;text-indent:0;text-align:start;text-decoration-line:none;text-decoration-style:solid;text-decoration-color:#000;text-transform:none;isolation:auto;mix-blend-mode:normal" solid-color="#000000"/></g><style id="style4217"/><style id="style4285"/><style id="style4240"/><style id="style4812"/></svg>