<svg xmlns="http://www.w3.org/2000/svg" width="120" height="32"><g fill="none" fill-rule="evenodd"><path fill="#DD4814" d="M31.367 16c0 8.837-7.02 16-15.683 16C7.022 32 0 24.837 0 16S7.022 0 15.684 0c8.663 0 15.683 7.163 15.683 16z"/><path fill="#FFF" d="M25.088 21.12c.002.104.007.198.007.32 0 1.6-.21 1.6-2.51 1.6H8.783c-2.3 0-2.51 0-2.51-1.6 0-.12.004-.217.007-.32h18.808z"/><path fill="#DD4814" d="M14.155 21.76a.319.319 0 0 0-.28.353.315.315 0 0 0 .346.287h2.94a.32.32 0 0 0 .31-.324.317.317 0 0 0-.32-.316h-2.93a.32.32 0 0 0-.062 0z"/><path fill="#FFF" d="M17.566 7.68c5.647 0 6.274 0 6.274 3.84v8.96H7.528v-8.96c0-3.84.628-3.84 6.274-3.84h3.764z"/><path fill="#DD4814" d="M8.783 11.52v7.68h13.802v-7.68c0-2.56 0-2.56-5.02-2.56h-3.763c-5.02 0-5.02 0-5.02 2.56z"/><text fill="#333" font-family="Ubuntu" font-size="20"><tspan x="37" y="24">localhost</tspan></text></g></svg>