<svg xmlns="http://www.w3.org/2000/svg" xmlns:xlink="http://www.w3.org/1999/xlink" width="78" height="30"><defs><path id="a" d="M-111 121h320v386h-320z"/></defs><clipPath id="b"><use xlink:href="#a" overflow="visible"/></clipPath><g clip-path="url(#b)"><path fill-rule="evenodd" clip-rule="evenodd" d="M-66 180l450 450v-899.999z" opacity=".05"/></g><defs><path id="c" d="M409 121h320v382H409z"/></defs><clipPath id="d"><use xlink:href="#c" overflow="visible"/></clipPath><g clip-path="url(#d)"><path fill-rule="evenodd" clip-rule="evenodd" d="M4-269.999V630l450-450z" opacity=".05"/></g><path d="M15 0C6.716 0 0 6.716 0 15s6.716 15 15 15c8.284 0 15-6.716 15-15S23.284 0 15 0z" fill="#dd4814"/><path d="M7.72 24.275a.67.67 0 0 1-.477.197.67.67 0 0 1-.675-.675.672.672 0 0 1 1.152-.478.672.672 0 0 1 0 .956zm2.944-10.087a1.378 1.378 0 0 0-.291-.529 1.155 1.155 0 0 0-.448-.299c-.174-.065-.371-.098-.586-.098s-.41.033-.58.097c-.17.064-.319.165-.444.299a1.364 1.364 0 0 0-.291.529 2.697 2.697 0 0 0-.103.793v7.861H6.564V14.86c0-.403.055-.777.162-1.114.108-.338.278-.636.504-.886.227-.251.517-.448.862-.587.344-.138.76-.208 1.237-.208.477 0 .896.07 1.247.208.351.138.644.336.872.587.227.25.398.548.51.886.111.336.167.711.167 1.114v1.083h-1.357v-.963a2.736 2.736 0 0 0-.104-.792z" fill="#fff"/><path d="M16.327 19.699c0 .403-.056.778-.167 1.114a2.455 2.455 0 0 1-.51.886c-.227.251-.52.448-.872.587-.351.138-.77.208-1.247.208s-.892-.07-1.237-.208a2.3 2.3 0 0 1-.861-.586 2.402 2.402 0 0 1-.505-.886 3.643 3.643 0 0 1-.162-1.114v-3.43h1.357v3.31c0 .308.035.575.103.792.068.217.166.395.291.529.125.135.274.235.444.299.17.065.365.097.58.097.215 0 .412-.033.585-.097s.324-.165.449-.299c.125-.135.223-.313.291-.529a2.7 2.7 0 0 0 .103-.792v-3.31h1.357l.001 3.429zm-1.353-4.421a.676.676 0 1 1 1.352.002.676.676 0 0 1-1.352-.002zm4.096-9.574a1.378 1.378 0 0 0-.291-.529 1.159 1.159 0 0 0-.449-.299 1.67 1.67 0 0 0-.585-.097c-.215 0-.41.033-.58.097-.17.064-.319.165-.444.299a1.362 1.362 0 0 0-.29.529 2.697 2.697 0 0 0-.103.793v7.861H14.97V6.376c0-.403.054-.777.162-1.114.108-.338.278-.636.505-.886.227-.251.517-.448.862-.586.344-.138.76-.208 1.237-.208.477 0 .896.07 1.247.208.352.138.645.336.872.587.227.25.398.548.51.886.111.337.167.712.167 1.114V7.46h-1.357v-.963a2.76 2.76 0 0 0-.105-.793z" fill="#fff"/><path d="M24.733 11.215c0 .403-.056.778-.167 1.114a2.445 2.445 0 0 1-.509.886 2.3 2.3 0 0 1-.872.587c-.351.138-.771.208-1.247.208-.477 0-.893-.07-1.237-.208a2.291 2.291 0 0 1-.861-.586 2.402 2.402 0 0 1-.505-.886 3.652 3.652 0 0 1-.162-1.114v-3.43h1.357v3.31c0 .308.035.574.103.793.068.216.166.394.291.529.125.135.274.235.444.299.171.065.366.097.58.097.215 0 .412-.033.586-.097.173-.064.324-.164.449-.299.125-.134.223-.312.291-.529.068-.218.103-.485.103-.793v-3.31h1.357l-.001 3.429z" fill="#fff"/><path d="M35.743 26.565c-.221 0-.507-.028-.858-.083a4.429 4.429 0 0 1-.886-.221l.332-2.103c.185.055.397.101.636.138.24.037.461.055.664.055.886 0 1.517-.272 1.896-.816.378-.544.567-1.342.567-2.394V7h2.574v14.113c0 1.845-.42 3.214-1.259 4.109-.839.896-2.061 1.343-3.666 1.343zm20.285-5.59c-.591.148-1.37.304-2.338.471-.969.166-2.089.249-3.362.249-1.107 0-2.039-.162-2.795-.484-.757-.323-1.365-.779-1.826-1.37-.461-.59-.793-1.287-.996-2.089-.203-.803-.304-1.692-.304-2.67V7h2.574v7.527c0 1.753.277 3.007.83 3.764.554.757 1.485 1.135 2.795 1.135.277 0 .563-.009.858-.028.295-.018.572-.042.83-.069.258-.028.493-.055.706-.083.212-.028.364-.06.457-.097V7h2.574l-.003 13.975zm1.688 5.59c-.221 0-.507-.028-.858-.083a4.429 4.429 0 0 1-.886-.221l.332-2.103c.185.055.397.101.636.138.24.037.461.055.664.055.886 0 1.517-.272 1.896-.816.378-.544.567-1.342.567-2.394V7h2.574v14.113c0 1.845-.42 3.214-1.259 4.109-.839.896-2.061 1.343-3.666 1.343zM78 20.975c-.591.148-1.37.304-2.338.471-.969.166-2.089.249-3.362.249-1.107 0-2.039-.162-2.795-.484-.757-.323-1.366-.779-1.826-1.37-.461-.59-.793-1.287-.996-2.089-.203-.803-.304-1.692-.304-2.67V7h2.574v7.527c0 1.753.277 3.007.83 3.764.553.757 1.485 1.135 2.795 1.135.277 0 .563-.009.858-.028.295-.018.572-.042.83-.069.258-.028.493-.055.706-.083.212-.028.364-.06.457-.097V7H78v13.975z" fill="#333"/></svg>