<svg xmlns="http://www.w3.org/2000/svg" width="97" height="32"><g fill="none" fill-rule="evenodd"><path fill="#DD4814" d="M16.04.002C7.2.002.01 7.165.01 15.968c0 8.804 7.19 15.967 16.03 15.967 8.842 0 16.033-7.163 16.033-15.967 0-8.803-7.19-15.966-16.032-15.966z"/><path fill="#FFF" d="M22.767 8.268H9.315c-1.16 0-1.735.414-1.735.92v.46c0 .563.573.92 1.734.92h13.454c1.16 0 1.735-.357 1.735-.92v-.46c0-.506-.574-.92-1.735-.92zm0 4.368H9.315c-1.16 0-1.735.413-1.735.92v.46c0 .562.573.92 1.734.92h13.454c1.16 0 1.735-.358 1.735-.92v-.46c0-.507-.574-.92-1.735-.92zm0 4.366H9.315c-1.16 0-1.735.414-1.735.92v.46c0 .563.573.92 1.734.92h13.454c1.16 0 1.735-.357 1.735-.92v-.46c0-.506-.574-.92-1.735-.92zm0 4.368H9.315c-1.16 0-1.735.413-1.735.918v.46c0 .564.573.92 1.734.92h13.454c1.16 0 1.735-.356 1.735-.92v-.46c0-.505-.574-.92-1.735-.92z"/><path fill="#333" d="M45.34 21.393a57.138 57.138 0 0 0-.574-1.318c-.238-.535-.496-1.11-.77-1.73a79.8 79.8 0 0 0-.88-1.91l-.88-1.864c-.274-.58-.53-1.1-.77-1.56-.238-.46-.43-.81-.576-1.06-.158 1.71-.29 3.55-.39 5.53-.1 1.98-.188 3.98-.26 6h-2.063a435.7 435.7 0 0 1 .196-3.92 221.594 221.594 0 0 1 .554-7.622c.107-1.21.227-2.36.357-3.436h1.846c.39.63.81 1.38 1.257 2.246.45.864.9 1.77 1.347 2.715.448.94.884 1.886 1.303 2.83l1.15 2.584 1.15-2.582c.42-.943.856-1.89 1.304-2.83.45-.944.9-1.85 1.35-2.715.45-.867.87-1.616 1.26-2.247h1.85c.498 4.83.867 9.82 1.11 14.98h-2.07c-.07-2.016-.16-4.017-.26-5.997-.102-1.98-.23-3.822-.39-5.526-.142.246-.335.602-.572 1.063-.24.462-.5.98-.77 1.563-.276.583-.567 1.204-.88 1.862-.31.655-.604 1.292-.88 1.91l-.77 1.73c-.24.533-.43.973-.575 1.32h-1.7zm22.468 2.075a75.486 75.486 0 0 1-.69-1.914c-.22-.626-.444-1.263-.674-1.91H59.63l-1.37 3.824h-2.193c.58-1.587 1.123-3.05 1.626-4.398a189.51 189.51 0 0 1 1.49-3.838c.487-1.21.963-2.366 1.445-3.47.48-1.1.974-2.196 1.497-3.274h1.93a81.283 81.283 0 0 1 1.5 3.275c.48 1.103.956 2.258 1.44 3.47.487 1.21.985 2.487 1.49 3.837a516.87 516.87 0 0 1 1.628 4.398h-2.305zm-1.972-5.554c-.464-1.253-.926-2.47-1.38-3.646a65.383 65.383 0 0 0-1.418-3.38 51.467 51.467 0 0 0-1.443 3.38c-.46 1.177-.91 2.393-1.36 3.646h5.6zm17.29 5.554a60.209 60.209 0 0 1-.693-1.914 192.17 192.17 0 0 0-.677-1.91H74.94l-1.363 3.824h-2.193c.576-1.587 1.122-3.05 1.626-4.398.508-1.35 1-2.627 1.486-3.838.485-1.21.967-2.366 1.442-3.47.48-1.1.982-2.196 1.5-3.274h1.933a94.148 94.148 0 0 1 1.5 3.275c.48 1.103.96 2.258 1.45 3.47.48 1.21.98 2.487 1.49 3.837s1.05 2.81 1.627 4.398h-2.3zm-1.98-5.554c-.46-1.253-.917-2.47-1.377-3.646a69.09 69.09 0 0 0-1.42-3.38c-.51 1.08-.99 2.206-1.45 3.38-.46 1.177-.91 2.393-1.36 3.646h5.6zm10.36 4.063c2.203 0 3.303-.75 3.303-2.246 0-.46-.1-.85-.3-1.18-.2-.32-.46-.6-.8-.84s-.713-.44-1.138-.61c-.43-.17-.883-.34-1.36-.52-.55-.182-1.067-.4-1.564-.632-.49-.24-.917-.52-1.28-.844a3.492 3.492 0 0 1-.855-1.152c-.21-.445-.317-.99-.317-1.625 0-1.306.45-2.33 1.343-3.065.897-.734 2.132-1.1 3.712-1.1.91 0 1.74.1 2.483.29.742.195 1.29.404 1.636.64l-.67 1.702c-.304-.186-.76-.368-1.36-.548-.6-.183-1.3-.27-2.09-.27-.406 0-.785.042-1.13.13-.35.083-.652.216-.912.384-.26.173-.47.393-.618.66-.157.263-.23.582-.23.94 0 .407.08.74.24 1.016.16.275.38.516.672.724.29.21.624.404 1.007.57.385.178.81.35 1.274.523.65.26 1.245.52 1.785.775.546.26 1.014.576 1.414.937.397.358.703.79.92 1.284.217.5.326 1.1.326 1.81 0 1.302-.48 2.313-1.44 3.02-.962.703-2.317 1.06-4.073 1.06-.59 0-1.136-.04-1.634-.12-.498-.08-.944-.176-1.334-.286a6.944 6.944 0 0 1-1.01-.344 7.84 7.84 0 0 1-.668-.31l.63-1.73c.336.186.844.4 1.52.627.683.23 1.515.348 2.494.348"/></g></svg>