<svg viewBox="0 0 1956 944" xmlns="http://www.w3.org/2000/svg" fill-rule="evenodd" clip-rule="evenodd" stroke-linejoin="round" stroke-miterlimit="1.414"><g fill-rule="nonzero"><path d="M1926.51 870.492c-12.071 0-21.888-9.816-21.888-21.883 0-12.07 9.817-21.888 21.888-21.888 12.067 0 21.883 9.817 21.883 21.888 0 12.067-9.816 21.883-21.883 21.883zm29.012-21.883c0-16-13.016-29.017-29.012-29.017-16 0-29.017 13.017-29.017 29.017 0 15.996 13.017 29.013 29.017 29.013 15.996 0 29.012-13.017 29.012-29.013z" fill="#4e4540"/><path d="M1931.46 843.509c0 2.558-1.625 4.267-4.633 4.267h-4.342v-8.571h4.225c3.004 0 4.75 1.425 4.75 4.262v.042zm5.933-.162v-.163c0-2.8-.854-5.033-2.4-6.58-1.787-1.787-4.425-2.72-7.712-2.72h-10.684v28.43h5.888v-9.338h3.696l5.237 9.337h6.746l-6.054-10.558c3.129-1.38 5.283-4.104 5.283-8.408zM49.404 763.076v-2.621c0-43.292 22.296-75.2 56.838-75.2 33.662 0 57.708 32.35 57.708 75.633v2.62c0 43.284-22.296 75.639-56.833 75.639-33.671 0-57.713-32.788-57.713-76.071zm163.95.87v-3.937c0-68.642-45.029-118.48-106.237-118.48C45.467 641.53 0 692.247 0 760.456v3.929C0 833.026 45.03 882.43 106.242 882.43c61.641 0 107.112-50.28 107.112-118.484zm76.48 0v-4.37c0-45.471 25.362-74.321 55.087-74.321 29.733 0 53.78 28.416 53.78 74.754v3.937c0 46.346-23.613 74.33-53.78 74.33-29.725 0-55.087-28.863-55.087-74.33zm158.712.88v-6.121c0-78.267-43.725-117.175-90.067-117.175-33.229 0-53.341 19.237-67.766 41.537v-37.166h-49.409v297.741h49.409V842.647c13.987 20.545 34.1 39.345 67.766 39.345 46.775 0 90.067-39.345 90.067-117.166zM574.3 683.067c28.859 0 45.471 26.667 48.096 63.392h-97.933c3.496-39.346 22.733-63.392 49.837-63.392zm88.317 163.517l-25.796-30.613c-15.3 14.867-31.479 24.488-53.337 24.488-30.167 0-54.217-20.988-58.588-59.896h145.155c.433-6.996.433-13.996.433-17.054 0-69.513-33.225-121.98-96.184-121.98-56.837 0-98.808 49.838-98.808 119.36v3.495c0 72.575 46.342 118.046 105.808 118.046 34.538 0 60.334-13.554 81.317-35.846zM815.559 641.53c-31.48 0-50.28 17.929-63.396 38.475V645.9H702.76v231.72h49.404V737.28c0-31.917 17.925-51.154 43.721-51.154 26.233 0 41.533 17.92 41.533 50.275v141.22h49.405V722.414c0-49.404-26.671-80.883-71.263-80.883zm270.413 170.07v-.437c0-36.287-27.113-52.896-62.963-69.075-27.104-12.246-45.467-20.108-45.467-35.412v-.88c0-12.679 10.93-22.729 29.292-22.729 18.363 0 37.6 8.746 55.088 20.546l20.987-36.292c-21.858-15.733-49.404-24.912-75.2-24.912-43.283 0-76.508 26.229-76.508 67.762v.88c0 38.029 28.854 53.775 63.391 68.633 27.542 11.808 45.471 19.237 45.471 35.854v.433c0 14.43-11.804 25.359-32.354 25.359-20.546 0-42.846-10.059-63.83-27.1l-23.174 35.408c26.67 22.296 58.587 32.354 86.13 32.354 44.595 0 79.137-24.925 79.137-70.391zm152.975 59.463v-40.662c-8.309 4.375-17.05 6.558-26.671 6.558-15.742 0-24.92-7.43-24.92-25.358V688.313h52.028v-42.412h-52.029V583.38h-49.404v62.52h-25.358l8.116 42.413h17.242v133.346c0 45.033 25.796 59.463 59.9 59.463 16.612 0 29.73-3.938 41.096-10.059zm164.817-71.263c0 26.23-21.863 45.467-50.28 45.034-21.42-.437-37.595-13.563-37.595-36.725v-.88c0-24.483 16.608-38.912 45.025-38.912 16.616 0 31.483 3.5 42.85 8.309V799.8zm24.483-132.912c-14.867-15.3-38.038-23.608-68.204-23.608-31.042 0-54.213 7.437-76.513 18.366l13.992 39.346c15.304-6.996 33.667-13.996 55.962-13.996 31.48 0 49.842 16.18 49.842 47.217v9.625c-15.742-5.25-31.48-9.18-53.342-9.18-48.962 0-82.191 24.48-82.191 74.322v2.183c0 45.034 32.354 70.83 70.829 70.83 30.167 0 50.712-13.117 64.267-32.788v28.417h48.529V733.78c0-28.854-7.871-51.592-23.171-66.892zm233.179 180.567l-26.666-32.788c-13.555 13.55-27.113 23.609-47.221 23.609-33.667 0-57.271-30.167-57.271-75.2v-2.188c0-43.725 23.604-74.762 55.962-74.762 20.984 0 34.538 10.491 46.78 23.175l27.545-36.292c-19.237-19.238-41.104-31.48-74.325-31.48-60.775 0-105.808 49.838-105.808 118.926v4.37c0 69.08 43.72 117.605 104.058 117.605 35.413 0 58.584-14.425 76.946-34.975zm151.213-90.105l-34.68 37.28 46.517 82.992h57.271L1812.64 757.35z" fill="#4e4540"/><path d="M1820.976 645.9l-79.133 101.876V561.955h-49.404v315.667h49.404V810.73l137.721-164.83h-58.588z" fill="#4e4540"/><path d="M1187.538 151.042h-109.375v-17.325c0-13.442-10.895-24.342-24.337-24.342H836.93c-13.442 0-24.338 10.9-24.338 24.342v17.325H703.217V45c0-24.75 20.246-45 45-45h394.321c24.75 0 45 20.25 45 45v106.042zm-45 322.963h-394.32c-24.75 0-45-20.25-45-45V322.967h109.374v17.325c0 13.446 10.896 24.342 24.338 24.342h216.896c13.442 0 24.337-10.896 24.337-24.342v-17.325h109.375v106.038c0 24.75-20.245 45-45 45zM703.217 182.317h109.375v109.375H703.217zm374.946 0h109.375v109.375h-109.375z" fill="#ee2146"/></g></svg>