<svg xmlns="http://www.w3.org/2000/svg" class="nicermediapages-SVG hovered" viewBox="-1.468 -1.468 106.998 16.311" width="768.1" version="1" height="116.98"><path fill="#717074" d="M44.475 13.649L39.786.592c-.061-.18-.15-.419-.15-.627 0-.567.479-1.104 1.163-1.104.598 0 .988.388 1.167.954l3.885 11.251L49.763-.216c.178-.535.538-.923 1.133-.923h.12c.63 0 1.018.388 1.196.923l3.882 11.282L60.04-.243c.15-.479.476-.895 1.105-.895.657 0 1.135.505 1.135 1.074 0 .209-.09.446-.149.627L57.412 13.65c-.241.684-.717 1.043-1.256 1.043h-.089c-.598 0-1.047-.359-1.257-1.043L50.96 2.553l-3.886 11.095c-.209.684-.658 1.043-1.254 1.043h-.062c-.567 0-1.044-.359-1.283-1.043M78.655 0c0-.63.508-1.169 1.135-1.169.66 0 1.168.509 1.168 1.168v2.65c1.137-2.574 3.656-3.788 5.326-3.788.691 0 1.14.509 1.14 1.166 0 .63-.419 1.076-1.02 1.167-2.993.36-5.446 2.604-5.446 7.064v5.246c0 .628-.479 1.165-1.136 1.165a1.15 1.15 0 0 1-1.167-1.165V0m20.647 5.959c-.234-2.785-1.82-5.212-4.839-5.212-2.639 0-4.634 2.22-4.922 5.212h9.761zm-4.486 8.857c-4.164 0-7.565-3.23-7.565-7.968v-.062c0-4.41 3.079-7.965 7.272-7.965 4.484 0 7.037 3.7 7.037 7.76a1.06 1.06 0 0 1-1.057 1.067H89.541c.32 3.315 2.635 5.182 5.335 5.182 1.876 0 3.252-.741 4.368-1.778.174-.146.38-.265.645-.265.556 0 .996.445.996.98a.972.972 0 0 1-.352.737c-1.436 1.391-3.138 2.312-5.717 2.312M73.689 8.827V7.335a16.113 16.113 0 0 0-4.536-.658c-2.89 0-4.505 1.256-4.505 3.193v.06c0 1.938 1.79 3.072 3.88 3.072 2.832 0 5.161-1.731 5.161-4.175m-11.367 1.194V9.96c0-3.252 2.686-4.983 6.592-4.983 1.97 0 3.371.268 4.747.658v-.539c0-2.773-1.705-4.206-4.596-4.206-1.553 0-2.456.197-3.591.703-.148.06-.298.09-.415.09-.537 0-1.016-.448-1.016-.984 0-.476.208-.77.628-.957 1.518-.659 2.664-.878 4.632-.878 2.177 0 3.848.564 4.98 1.699 1.044 1.044 1.583 2.536 1.583 4.505v8.513c0 .654-.477 1.132-1.107 1.132-.654 0-1.098-.478-1.098-1.074v-1.472c-1.075 1.404-2.867 2.656-5.577 2.656-2.866 0-5.762-1.64-5.762-4.802M2.682-.17C2.177-1.28.928-1.78-.238-1.262-1.405-.743-1.835.55-1.308 1.66L3.589 12.3c.77 1.669 1.582 2.543 3.104 2.543 1.627 0 2.336-.952 3.106-2.543 0 0 4.27-9.297 4.312-9.394a.618.618 0 0 1 .615-.397.681.681 0 0 1 .677.689v9.094c0 1.401.777 2.551 2.273 2.551 1.494 0 2.302-1.15 2.302-2.551v-7.44c0-1.435 1.028-2.365 2.429-2.365 1.401 0 2.334.963 2.334 2.365v7.44c0 1.401.78 2.551 2.273 2.551 1.494 0 2.306-1.15 2.306-2.551v-7.44c0-1.435 1.024-2.365 2.427-2.365 1.399 0 2.335.963 2.335 2.365v7.44c0 1.401.779 2.551 2.273 2.551 1.493 0 2.303-1.15 2.303-2.551V3.824c0-3.112-2.501-5.292-5.512-5.292-3.008 0-4.892 2.081-4.892 2.081-1-1.298-2.381-2.079-4.717-2.079-2.464 0-4.621 2.08-4.621 2.08-1.002-1.299-2.708-2.08-4.12-2.08-2.184 0-3.918.961-4.977 3.38l-3.126 7.37L2.682-.17M105.2.739V.733c0-.856-.662-1.558-1.543-1.558A1.55 1.55 0 0 0 102.112.74v.01c0 .854.664 1.556 1.545 1.556.872 0 1.543-.714 1.543-1.566m-3.45.012V.74c0-1.041.845-1.918 1.907-1.918 1.077 0 1.91.868 1.91 1.91V.74a1.918 1.918 0 0 1-1.91 1.92A1.9 1.9 0 0 1 101.75.752"/><path fill="#717074" d="M103.74.678c.198 0 .308-.104.308-.262V.41c0-.172-.118-.264-.315-.264h-.406v.532h.413zm-.82-.694c0-.114.09-.204.205-.204h.637c.24 0 .425.067.54.19a.572.572 0 0 1 .16.42v.006a.566.566 0 0 1-.368.562l.28.344c.039.05.066.092.066.154a.19.19 0 0 1-.193.188c-.09 0-.151-.046-.2-.105l-.396-.5h-.324v.402a.2.2 0 0 1-.203.203.202.202 0 0 1-.205-.203V-.016"/></svg>