<svg viewBox="0 0 419 207" xmlns="http://www.w3.org/2000/svg" fill-rule="evenodd" clip-rule="evenodd"><path d="M262.6 0c-27.614 0-50 22.386-50 50s22.386 50 50 50a49.997 49.997 0 0 0 50-50c0-27.614-22.386-50-50-50z" fill="#62c1f1" fill-rule="nonzero"/><path d="M232.175 57.345l-.962 2.617-2.381 2.358c-.868.86-1.054.854-.85 2.07.239 1.428.926 2.901 2.19 4.168 1.33 1.333 4.121 3.219 6.13 2.33a14.176 14.176 0 0 1-.75 2.075c-1.347 2.953 1.935 3.531 4.233 4.153 1.909.516 6.594 1.892 7.27-.618.304-1.129.352-1.735.243-2.813.594-1.326.784-1.538 1.276-2.267.675-1.001.626-1.382.479-2.624a32.587 32.587 0 0 0-.104-.775c2.274.342 4.459.338 6.687.062-.676.394-1.354.739-2.249 1.199-2.124 1.092-.123 4.312.793 5.722 1.92 2.96 3.643 4.996 6.887 3.241 1.09-.59 1.174-1.219 1.855-2.235.375-.206 2.312-1.853 3.463-2.783.437.524 1.272.62 2.539.712.638.046 3.138.03 3.801.034 1.988.013 3.182-.193 3.337-2.36.074-1.028.03-1.246-.476-2.145l-.091-3.4c-.034-1.277-.278-2.06-.779-3.253-.456-1.083-.711-2.008-1.243-3.058.073-.412.131-.837.17-1.281l2.028 1.954c1.289 1.241 2.353 2.255 4.318 2.162 2.046-.097 4.389-1.709 4.989-3.68l.599-1.975c3.086.584 6.692.45 9.379-.983 3.951-2.109 5.8-6.349 6.255-10.834.367-3.629-.34-9.73-2.07-13.04-.509-.974-2.806-2.206-3.813-1.185-.758.769-1.279 1.94-2.098 2.64-.635.542-1.421.81-2.109 1.094-.533-1.439-1.299-2.558-2.237-3.675-.746-.889-1.449-1.331-2.433-1.947-1.944-1.218-3.453-2.755-5.221-4.213-5.353-4.413-9.95-4.278-16.619-1.471-3.181 1.339-4.716 3.157-6.668 5.768-1.179.061-1.989.289-3.236 1.39a42.833 42.833 0 0 0-2.606 2.513c-6.234.993-10.105 2.181-14.202 5.813-1.666 1.477-2.878 3.115-3.823 4.956-.877.969-1.75 1.963-2.908 2.409-.816.314-.801.313-1.088-.454.97-.729.954-2.101 1.044-3.342.612.029.841.715 1.257 1.24.246-1.098.388-2.803-.767-3.401.187-.502.4-1.009.595-1.562-1.705.295-7.547 4.234-4.43 7.237.205.835.367 1.409.638 1.973.713 1.483 2.317 1.738 3.715 1.193-.383 1.756-.461 3.666-.23 6.349.055.643.148 1.291.273 1.942"/><path d="M232.545 57.481l-.387 1.052-.74-.271.386-1.052.741.271zm-.387 1.052l-.575 1.565-.74-.271.575-1.565.74.271zm-.575 1.565l-.092.144-.278-.279.37.135zm-.092.144l-1.262 1.249-.555-.558 1.261-1.249.556.558zm-1.262 1.249L229.11 62.6l-.556-.559 1.12-1.108.555.558zM229.11 62.6l-.28.274-.546-.571.27-.262.556.559zm-.28.274c-.505.486-.605.582-.46 1.451l-.777.13c-.215-1.28-.065-1.425.691-2.152l.546.571zm-.46 1.451c.118.7.35 1.414.715 2.108l-.7.368a7.812 7.812 0 0 1-.792-2.346l.777-.13zm.715 2.108a7.665 7.665 0 0 0 1.366 1.848l-.558.555a8.457 8.457 0 0 1-1.508-2.035l.7-.368zm1.366 1.848c.737.739 1.94 1.654 3.192 2.13l-.278.737c-1.368-.52-2.674-1.512-3.472-2.312l.558-.555zm3.192 2.13c.871.331 1.758.445 2.5.116l.318.722c-.957.424-2.048.298-3.096-.101l.278-.737zm2.5.116l.762-.337-.222.803-.381-.105-.159-.361zm.54.466c-.099.359-.215.726-.348 1.094l-.744-.268c.127-.35.236-.697.33-1.035l.762.209zm-.348 1.094c-.125.344-.265.693-.424 1.04l-.719-.328c.147-.322.28-.651.399-.98l.744.268zm-.424 1.04c-.667 1.462.032 2.233 1.116 2.727l-.327.719c-1.483-.676-2.436-1.739-1.508-3.774l.719.328zm1.116 2.727c.693.316 1.531.534 2.31.737l-.198.762c-.818-.213-1.699-.443-2.439-.78l.327-.719zm2.31.737c.205.053.405.105.548.144l-.201.762c-.21-.057-.378-.101-.545-.144l.198-.762zm.548.144c.939.254 2.563.72 4.022.812l-.049.79c-1.53-.097-3.204-.578-4.174-.84l.201-.762zm4.022.812c1.319.084 2.495-.139 2.767-1.149l.762.201c-.403 1.499-1.909 1.844-3.578 1.738l.049-.79zm2.767-1.149c.144-.535.228-.948.263-1.358l.789.065c-.037.445-.13.9-.29 1.494l-.762-.201zm.263-1.358c.035-.411.02-.811-.03-1.318l.783-.074c.057.571.074 1.014.036 1.457l-.789-.065zm-.03-1.318l.03-.197.361.16-.391.037zm.03-.197c.532-1.186.751-1.507 1.137-2.073l.651.444c-.357.524-.56.82-1.066 1.949l-.722-.32zm1.137-2.073c.04-.058.074-.107.173-.255l.654.441a22.31 22.31 0 0 1-.176.258l-.651-.444zm.173-.255c.301-.447.44-.746.484-1.055l.781.109c-.063.442-.238.834-.611 1.387l-.654-.441zm.484-1.055c.047-.324 0-.711-.07-1.303l.783-.09c.078.65.129 1.075.068 1.502l-.781-.109zm-.07-1.303c-.019-.162-.035-.29-.047-.373l.781-.099c.024.178.04.303.049.382l-.783.09zm-.047-.373c-.008-.067-.028-.202-.055-.389l.78-.115c.013.084.031.215.056.405l-.781.099zm-.055-.389l-.077-.527.526.079-.059.39-.39.058zm.449-.448c1.117.168 2.213.251 3.303.258l-.003.79a23.896 23.896 0 0 1-3.418-.267l.118-.781zm3.303.258a25.258 25.258 0 0 0 3.279-.198l.093.784c-1.131.14-2.251.211-3.375.204l.003-.79zm3.279-.198l.244.734-.198-.342-.046-.392zm.244.734c-.638.372-1.274.699-2.085 1.116l-.361-.704a42.7 42.7 0 0 0 2.051-1.097l.395.685zm-2.085 1.116l-.182.093-.361-.703.182-.094.361.704zm-.182.093c-.834.429-.841 1.329-.547 2.272l-.753.235c-.403-1.292-.349-2.548.939-3.21l.361.703zm-.547 2.272c.334 1.071 1.044 2.197 1.49 2.884l-.661.429c-.469-.724-1.218-1.913-1.582-3.078l.753-.235zm1.49 2.884c.932 1.437 1.812 2.648 2.822 3.267l-.41.672c-1.142-.7-2.085-1.988-3.073-3.51l.661-.429zm2.822 3.267c.955.585 2.071.639 3.549-.161l.373.697c-1.766.956-3.134.87-4.332.136l.41-.672zm3.549-.161c.698-.378.932-.788 1.248-1.342l.688.389c-.381.668-.665 1.164-1.563 1.65l-.373-.697zm1.248-1.342c.126-.22.264-.461.466-.762l.654.438c-.162.241-.303.488-.432.713l-.688-.389zm.466-.762l.137-.128.19.347-.327-.219zm.137-.128c.23-.127 1.215-.94 2.173-1.732l.503.608c-.99.818-2.009 1.66-2.297 1.818l-.379-.694zm2.173-1.732c.493-.407.98-.809 1.232-1.013l.497.617c-.462.373-.842.687-1.226 1.004l-.503-.608zm1.232-1.013l.303-.245.249.3-.304.253-.248-.308zm.552.055c.158.189.407.306.745.387l-.182.768c-.504-.12-.892-.314-1.17-.649l.607-.506zm.745.387c.389.093.9.139 1.518.183l-.055.79c-.649-.047-1.19-.096-1.645-.205l.182-.768zm1.518.183c.485.035 2.035.034 3.036.034v.79c-1.023 0-2.606.001-3.091-.034l.055-.79zm3.036.034l.739.001-.004.79-.736-.001v-.79h.001zm.739.001c.932.006 1.671-.036 2.159-.312l.389.688c-.644.365-1.496.42-2.551.414l.003-.79zm2.159-.312c.446-.253.715-.751.781-1.682l.79.056c-.089 1.235-.495 1.925-1.182 2.314l-.389-.688zm.781-1.682c.034-.478.042-.763-.011-1.008l.771-.17c.076.346.069.685.03 1.234l-.79-.056zm-.011-1.008c-.054-.245-.181-.498-.415-.916l.691-.385c.27.481.419.786.495 1.131l-.771.17zm-.415-.916l-.05-.183.395-.009-.345.192zm-.05-.183l-.045-1.7.789-.019.046 1.7-.79.019zm-.045-1.7l-.046-1.701.79-.018.045 1.7-.789.019zm-.046-1.701a6.963 6.963 0 0 0-.202-1.571l.765-.191c.135.533.209 1.076.227 1.744l-.79.018zm-.202-1.571c-.122-.478-.302-.957-.546-1.538l.728-.305c.256.611.448 1.121.583 1.652l-.765.191zm-.546-1.538c-.173-.411-.321-.81-.466-1.202l.74-.271c.139.373.28.754.454 1.168l-.728.305zm.274-1.475v.002l-.37.136.37-.138zm-.74.275c-.226-.609-.445-1.199-.766-1.834l.706-.354c.338.665.566 1.28.8 1.913l-.74.275zm-.766-1.834l-.036-.245.389.068-.353.177zm-.036-.245c.039-.22.072-.425.096-.61l.781.099c-.032.241-.065.455-.099.647l-.778-.136zm.096-.61c.023-.168.046-.378.068-.635l.79.064a15.41 15.41 0 0 1-.077.67l-.781-.099zm.068-.635l.074-.826.594.573-.273.285-.395-.032zm.668-.253l1.161 1.118-.547.57-1.16-1.118.546-.57zm1.161 1.118l.867.835-.546.571-.868-.836.547-.57zm.867.835c.626.604 1.198 1.152 1.833 1.526l-.401.682c-.711-.419-1.316-.999-1.978-1.637l.546-.571zm1.833 1.526c.611.361 1.299.569 2.194.527l.037.79c-1.07.05-1.897-.201-2.632-.635l.401-.682zm2.194.527c.965-.045 2.008-.46 2.874-1.099l.469.635c-.987.729-2.186 1.201-3.306 1.254l-.037-.79zm2.874-1.099c.827-.61 1.487-1.419 1.755-2.3l.756.228c-.32 1.052-1.087 2.003-2.042 2.707l-.469-.635zm1.755-2.3l.277-.913.756.229-.277.912-.756-.228zm.277-.913l.322-1.062.756.229-.322 1.062-.756-.229zm.322-1.062l.103-.338.348.066-.073.387-.378-.115zm.451-.272c1.599.302 3.34.407 5.013.232l.078.784c-1.75.183-3.568.073-5.236-.242l.145-.774zm5.013.232c1.471-.154 2.889-.527 4.108-1.178l.37.698c-1.31.698-2.828 1.099-4.4 1.264l-.078-.784zm4.108-1.178c1.785-.953 3.126-2.36 4.091-4.032l.685.391c-1.037 1.797-2.481 3.311-4.406 4.339l-.37-.698zm4.091-4.032v-.002l.343.197-.343-.196v.001zm0-.002c1.104-1.911 1.722-4.166 1.957-6.488l.783.074c-.246 2.435-.895 4.801-2.055 6.809l-.685-.395zm1.957-6.488c.191-1.893.085-4.474-.311-6.971l.778-.123c.406 2.56.514 5.215.316 7.168l-.783-.074zm-.311-6.971c-.349-2.202-.924-4.332-1.717-5.85l.7-.364c.832 1.593 1.433 3.809 1.795 6.091l-.778.123zm-1.717-5.85a1.656 1.656 0 0 0-.298-.38l.552-.565c.19.189.345.386.446.581l-.7.364zm-.298-.38a3.775 3.775 0 0 0-1.363-.829l.256-.747a4.602 4.602 0 0 1 1.659 1.011l-.552.565zm-1.363-.829c-.483-.167-.97-.213-1.318-.031l-.364-.7c.561-.293 1.268-.247 1.938-.016l-.256.747zm-1.318-.031a.8.8 0 0 0-.201.149l-.565-.552c.121-.123.256-.221.402-.297l.364.7zm-.201.149c-.323.327-.607.741-.891 1.156l-.65-.444c.306-.449.613-.896.976-1.264l.565.552zm-.891 1.156c-.373.546-.748 1.094-1.234 1.509l-.512-.602c.41-.351.754-.852 1.096-1.351l.65.444zm-1.234 1.509c-.595.508-1.285.785-1.925 1.041l-.293-.734c.582-.233 1.209-.485 1.706-.909l.512.602zm-1.925 1.041l-.291.118-.299-.731.297-.121.293.734zm-.291.118l-.377.155-.142-.385.37-.136.149.366zm-.519-.23a10.172 10.172 0 0 0-.932-1.884l.67-.42c.388.62.725 1.283 1.002 2.032l-.74.272zm-.932-1.884a14.863 14.863 0 0 0-1.238-1.674l.605-.506c.481.573.919 1.147 1.303 1.76l-.67.42zm-1.238-1.674a6.438 6.438 0 0 0-1.064-1.016l.478-.626c.415.316.798.667 1.191 1.136l-.605.506zm-1.064-1.016c-.368-.28-.787-.544-1.276-.85l.42-.669c.494.31.919.577 1.334.893l-.478.626zm-1.276-.85c-1.377-.862-2.531-1.874-3.708-2.907l.518-.595c1.153 1.011 2.282 2.002 3.61 2.833l-.42.669zm-3.708-2.907a65.698 65.698 0 0 0-1.555-1.334l.503-.611c.517.427 1.046.89 1.57 1.35l-.518.595zm-1.555-1.334c-2.608-2.151-5.023-3.192-7.589-3.354l.05-.79c2.738.173 5.298 1.27 8.042 3.533l-.503.611zm-7.589-3.354c-2.584-.163-5.346.561-8.625 1.941l-.306-.728c3.39-1.427 6.262-2.174 8.981-2.003l-.05.79zm-8.625 1.941c-1.545.651-2.689 1.416-3.681 2.333l-.534-.58c1.058-.978 2.273-1.792 3.909-2.481l.306.728zm-3.681 2.333c-1 .925-1.86 2.017-2.823 3.307l-.633-.472c.987-1.321 1.872-2.443 2.922-3.415l.534.58zm-2.823 3.307l-.112.149-.185.01-.02-.395.317.236zm-.297.159c-.549.028-1.009.095-1.466.277l-.293-.734c.554-.221 1.089-.3 1.719-.333l.04.79zm-1.466.277c-.464.186-.943.497-1.529 1.014l-.521-.592c.659-.583 1.21-.937 1.757-1.156l.293.734zm-1.529 1.014c-.451.398-.891.806-1.323 1.224l-.55-.567c.434-.42.883-.836 1.352-1.249l.521.592zm-1.323 1.224l-.002.002-.273-.286.275.284zm-.002.002a46.77 46.77 0 0 0-1.256 1.264l-.571-.546a47.15 47.15 0 0 1 1.281-1.289l.546.571zm-1.256 1.264l-.224.116-.062-.389.286.273zm-.224.116c-3.087.492-5.588 1.032-7.823 1.897l-.283-.737c2.284-.885 4.836-1.436 7.983-1.938l.123.778zm-7.823 1.897c-2.215.858-4.169 2.041-6.18 3.823l-.521-.592c2.085-1.849 4.115-3.076 6.418-3.968l.283.737zm-6.18 3.823a16.114 16.114 0 0 0-2.13 2.285l-.626-.478a16.878 16.878 0 0 1 2.235-2.399l.521.592zm-2.13 2.285a16.867 16.867 0 0 0-1.602 2.554l-.704-.358a17.636 17.636 0 0 1 1.68-2.674l.626.478zm-1.602 2.554l-.059.085-.293-.264.352.179zm-.059.085c-.449.496-.897.999-1.378 1.431l-.527-.589c.464-.418.891-.897 1.319-1.37l.586.528zm-1.378 1.431c-.504.454-1.05.84-1.681 1.083l-.284-.737c.527-.203.997-.538 1.438-.935l.527.589zm-1.681 1.083h-.002l-.14-.369.142.369zm-.002 0c-.507.195-.754.292-1.035.173l.306-.728c.012.006.14-.064.448-.182l.281.737zm-1.035.173l-.001-.001.154-.363-.153.364zm-.001-.001c-.296-.126-.379-.369-.562-.858l.74-.274c.104.278.102.395.13.407l-.308.725zm-.562-.858l-.103-.275.237-.178.236.316-.37.137zm.134-.453c.726-.545.795-1.631.861-2.677l.789.049c-.077 1.223-.157 2.493-1.178 3.26l-.472-.632zm.861-2.677l.024-.377.79.056-.025.37-.789-.049zm.024-.377l.028-.385.386.018-.019.395-.395-.028zm.414-.367c.651.031.948.491 1.268.986l-.663.426c-.205-.316-.395-.61-.642-.622l.037-.79zm1.268.986c.089.139.181.281.279.404l-.617.491a5.504 5.504 0 0 1-.325-.469l.663-.426zm.356.734l-.181.808-.513-.647.308-.246.386.085zm-.771-.17c.133-.596.235-1.378.091-2.018l.768-.173c.176.782.063 1.684-.088 2.361l-.771-.17zm.091-2.018c-.092-.407-.288-.757-.654-.946l.361-.704c.604.313.921.856 1.061 1.477l-.768.173zm-.654-.946l-.312-.162.122-.327.371.137-.181.352zm-.19-.489c.059-.156.144-.373.231-.595l.734.287c-.068.174-.137.349-.224.582l-.741-.274zm.231-.595c.116-.297.236-.602.361-.96l.747.259c-.112.32-.245.658-.374.988l-.734-.287zm.668-1.219l.663-.115-.223.633-.373-.129-.067-.389zm.133.778c-.765.132-2.449 1.077-3.671 2.346l-.571-.546c1.334-1.384 3.228-2.425 4.109-2.578l.133.778zm-3.671 2.346c-.443.46-.819.956-1.056 1.463l-.715-.331c.279-.596.705-1.164 1.2-1.678l.571.546zm-1.056 1.463c-.226.482-.329.976-.246 1.456l-.778.133c-.113-.65.018-1.299.309-1.92l.715.331zm-.246 1.456c.075.436.309.874.75 1.298l-.546.571c-.571-.551-.878-1.138-.982-1.736l.778-.133zm.75 1.298l.11.192-.383.094.273-.286zm.11.192c.1.407.19.752.288 1.064l-.753.234a17.785 17.785 0 0 1-.3-1.11l.765-.188zm.288 1.064c.093.298.195.566.323.833l-.712.339a6.848 6.848 0 0 1-.364-.938l.753-.234zm.323.833c.284.59.734.95 1.251 1.116l-.24.753c-.716-.23-1.335-.723-1.723-1.53l.712-.339zm1.251 1.116c.605.194 1.308.135 1.964-.121l.287.734c-.821.32-1.711.39-2.491.14l.24-.753zm1.964-.121l.686-.268-.157.718-.385-.083-.144-.367zm.529.45a15.431 15.431 0 0 0-.335 2.758l-.79-.028c.039-1.054.158-1.994.354-2.896l.771.166zm-.335 2.758c-.038 1.01 0 2.144.115 3.475l-.79.065c-.116-1.35-.154-2.514-.115-3.568l.79.028zm.115 3.475c.029.339.064.652.104.937l-.781.105a18.734 18.734 0 0 1-.113-.977l.79-.065zm.104.937c.044.315.098.637.161.964l-.774.148c-.064-.331-.12-.667-.168-1.007l.781-.105zm.161.964l-.017.21-.37-.136.387-.074z" fill-rule="nonzero"/><path d="M252.318 33.621l-5.199.844-4.744 2.08-4.03 2.535-3.834 4.679-2.166 2.294-2.095.772-.554-1.354.969-1.398.218-1.972.649.026.708.647-.191-2.009-.786-.527.024-.765-1.861 1.053-1.686 1.989-.351 1.777.721 1.424.672 2.418 1.367.647 1.439-.071 1.363-.792-.909 4.614.909 5.134-1.001 2.371-3.28 3.534.583 2.111 1.554 2.447 2.93 2.062 1.554.213 1.728.058-1.078 4.426 3.964 1.625 4.939.649 1.69-1.104.13-2.99 1.885-3.119.13-2.47 4.549.325 4.224-.39-4.224 2.535.715 3.054 2.664 4.159 2.6 1.105 2.079-.845.845-1.689 4.354-3.315.845.715 6.824.26 1.365-1.105.13-1.949-.455-.845-.325-5.264-2.275-4.549.39-2.015 1.365.715 3.834 3.574 1.885.13 2.079-.845 2.08-1.559 1.04-3.38 6.109.39 3.704-1.429 2.989-2.795 2.145-4.029.52-4.744-.455-5.524-1.17-4.939-1.17-1.56-1.624-.52-2.86 3.119-2.599.91-2.275-3.769-2.274-2.08-1.235-.779-4.939-4.095-3.965-2.144-3.964-.325-4.614.78-4.029 1.494-2.795 2.275-2.209 2.664-2.275.65-3.964 3.77z" fill="#ff0"/><path d="M237.239 45.351c-4.453 5.194-3.464 11.494-2.23 17.666l-1.976-4.993-.728-4.576.208-4.681 1.872-4.472 2.809-4.161 4.368-3.64 4.785-1.976 5.616-.728-5.2 5.928c-4.176 1.355-6.639 2.267-9.524 5.633" fill="#ffc"/><path d="M258.204 29.525c-3.096 3.021-4.787 5.299-6.757 8.835-1.41 2.531-2.99 4.967-4.472 7.462-.75 1.262-.82 2.321-1.044 3.777l-2.185-2.6 1.041-3.12 3.536-6.345 7.489-7.385 2.392-.624M273.494 22.035c-2.48.93-6.598 1.236-6.884 4.082-.203 2.021.153 3.037 1.371 5.175-3.009-3.114-3.753-2.632-9.569-1.664l2.496-3.537 4.369-2.704 5.617-1.248 2.6-.104" fill="#ffc"/><path d="M280.336 60.534c.826.509.808.878.67 1.228l1.953-.782 1.266-1.699.939-2.421-1.2-.903-5.247.67-.39 1.06.111 1.507.503.893.781.391.614.056M279.848 51.56c-2.63.759-2.61.968-3.386 3.577 1.025-1.645 1.784-2.475 3.386-3.577M297.334 32.036c-.467.216-.922.32-1.215.748-.629.92-1.168 1.695-2.208 2.341-.524.326-1.066.536-1.622.71-.461.143-.738.015-1.13.297l.698.122h1.54l1.897-1.172 1.117-1.172.923-1.874M255.442 37.872c-1.034 2.831-1.938 5.258-3.506 7.821 2.009-2.163 3.226-4.003 4.377-6.449.446-.95.531-2.066 1.775-1.651.056.949.257 1.898.313 2.847.672-4.821 2.569-6.837 6.977-8.707l-3.74.446-3.516.781-1.731 2.512-.949 2.4M263.982 37.761c.951 4.474 2.319 8.768 2.914 13.313.386 2.954.428 4.373-1.058 6.921-1.624-.105-2.632.078-4.203.593-6.253 2.05-9.84 5.064-14.053-1.009l4.035 1.901 2.877-.565 5.079-2.958 3.963-.782 1.283-5.358-.948-7.088-.112-3.349.223-1.619M274.755 65.444c-.526 3.635 1.209 5.59.491 6.593-.204.285-.479.78-.787.916-1.099.486-2.61-.09-2.718.194h-3.628l-1.452-.614 2.233-2.623 2.177-4.745 1.395-4.8h.726l1.563 5.079" fill="#cc0"/><path d="M268.657 54.877c.294 1.65.806 2.042 1.583 3.64-.517 2.606-1.347 5.706-2.346 8.006-.422.97-.762 1.504-1.504 2.254a38.716 38.716 0 0 1-3.945 3.467c-1.023.789-1.738.393-3.001.214-.537.974-.685 1.515-1.674 2.009-1.521.761-2.881-.878-4.075-1.841l2.585 4.037 1.786 1.674 1.507.224 2.009-1.228 1.061-2.01 2.232-1.674 2.735-2.344 1.731-2.456 1.562-2.903 2.01-6.028.167-2.288-2.512-1.116c-.614-.577-1.297-1.061-1.911-1.637M248.633 66.504c2.817 0 5.792-.156 8.372-1.339a22.956 22.956 0 0 1 2.345-2.958c-.813 1.535-1.068 2.404-1.284 4.13l-.837 1.228-6.363.167-2.065-.223-.224-.223.056-.782M248.242 64.552l-.218-1.981c-.482 2.897-.366 4.838-1.699 7.433-.996 1.154-2.222 2.204-3.627 2.766.119.711.154 1.156.085 1.678-.247 1.876-4.001 1.047-5.545.972l7.432 1.914 1.675-.67.558-3.237 1.563-2.902.279-1.787-.503-4.186M244.056 48.198c-.078 1.409-.169 1.996.453 3.24.789 1.581 1.759 3.067 2.617 4.63l.279-3.126-3.349-4.744M232.599 58.838l-.725 1.543c.665 2.24 1.256 3.659 2.522 5.615-.22.793-.385 1.14-.893 1.786-1.114-.171-2.104-.221-3.233-.217l3.74 2.902 1.842-.335 1.841-1.842-2.623-4.074-2.471-5.378M297.342 31.294c.76 3.416 1.739 6.567 1.648 10.066-.112 4.291-.948 9.713-4.925 12.301-4.453 2.898-9.68 1.527-14.566.285l5.972 2.456 5.582.279 3.795-1.116 2.958-2.456 2.233-4.688.837-5.414-.67-5.303-1.228-5.246-1.636-1.164M230.886 41.476c-2.022 1.316-2.816 1.893-2.594 4.332l.604 2.191.856.579 1.058.353 1.915-.453.982-3.048-2.72 1.335h-.63l-.705-1.083.856-1.259.453-2.393.58.176.705.554-.101-1.259-.478-.806-.479-.403-.302 1.184M276.242 22.258c1.795 1.666 3.997 3.114 5.432 5.15.555.788 1.172 1.192-.01 2.305 1.249-.357 1.713-.318 2.713-.197 1.818.22 3.523 2.805 3.632 4.658-.022.173-.506.566-1.912.954-.027.054-.793-.105-.774-.053.146.4.341.461.639.648.065.445.107 1.131.41 1.617.884-.016 1.749.081 2.615.252.292.484.248.967.224 1.451l1.004-.167-.279-2.288.893-1.507-1.283-2.903-2.456-2.344-.237-.012-2.761-1.695-4.505-3.685-3.345-2.184M279.265 36.01c-.095.165-.238.43-.421.613.748.707 1.116 1.18 1.383 2.18l-2.535 1.258-2.144 2.056c-.941-.506-1.176-.895-1.631-1.861-.53.141-1.033.276-1.47.115.277.002.448-.067.726-.239l1.364-1.418 2.411-1.825 1.577-.514c.201-.083.539-.283.74-.365" fill="#cc0"/><path d="M281.597 38.533c-2.688 1.447-5.262 2.903-6.637 5.651 0-3.489 3.503-5.024 6.637-5.651M274.427 31.67c-1.996 1.36-3.407 4.106-3.23 6.783-.65-2.318-.42-4.507 1.576-6.108l1.011-.491.643-.184" fill="#cc0"/><path d="M278.242 52.329c.412-.225 1.161-.534 1.573-.758-.424.072-1.185.228-1.609.299-1.133.191-1.267.464-1.443 1.58-.083.525-.197 1.177-.28 1.703.223-.594.49-1.285.749-1.852.274-.599.428-.656 1.01-.972zm-21.03-28.741c.89-1.336 1.403-1.77 2.774-2.617-1.861.449-2.216.793-2.774 2.617zm-.293 2.944c1.558-3.134 2.738-4.287 6.002-5.826-3.691.904-4.776 1.548-6.002 5.826zM223.54 42.841c.342-1.569.661-2.161 1.629-3.449-1.57 1.097-1.774 1.547-1.629 3.449zm34.937 26.26l-.142-1.142a9.032 9.032 0 0 1-.027-1.945l.159-2.016c-.196.683-.587 1.366-.783 2.049-.078.274-.143.495-.18.699-2.921.597-5.82.634-8.741.113a55.543 55.543 0 0 0-.604-3.016c-.058.905-.02 3.406-.025 4.807-.004 1.085-.05 1.456-.609 2.379-.524.865-.746 1.061-1.479 2.521.061.921.062 1.53-.183 2.405-.407 1.454-4.514.327-5.597.031-1.334-.365-4.092-.908-3.399-2.687.611-1.565.998-3.215 1.296-5.406-2.444-3.521-4.717-8.346-5.153-12.621-.339-3.32-.136-5.363.582-7.394 1.139-3.217 2.731-6.002 5.286-8.244 3.447-3.025 6.669-4.239 11.713-5.007-1.213 1.358-2.413 2.794-3.721 4.333-1.324 1.559-2.112 3.134-2.952 4.839-1.162 2.355-1.137 3.251.403 5.318 1.327 1.782 2.043 2.584 2.623 4.327-.479.986-.653 1.82-.814 3.167 1.625 1.776 2.833 2.993 4.41 3.368 1.548.367 2.84.296 4.224-.411 3.075-1.573 5.92-3.602 9.389-3.686 1.605-3.946 1.442-7.242.672-11.059-.526-2.606-.737-5.075-.901-7.732-.65 2.737-.772 5.143-.29 7.87.582 3.285 1.034 6.915-.584 9.802-3.137.24-5.825 2.148-8.651 3.612-1.137.589-2.32.646-3.577.301-1.168-.321-1.956-1.093-3.213-2.543-.02-1.457.309-2.129.977-3.448 1.075-2.117 2.261-4.089 3.562-6.173-1.593 1.924-3.103 3.531-4.357 5.465-.48-1.367-1.165-2.06-2.301-3.598-1.109-1.502-1.225-2.16-.396-3.898.834-1.747 1.541-3.283 2.961-4.815 2.452-2.649 4.699-5.597 7.381-8.205 1.456-1.416 2.047-1.367 3.979-1.66a67.785 67.785 0 0 0 5.231-1.012c-1.722.16-3.387.219-5.063.261l-.052.001c1.649-2.106 2.607-3.28 5.285-4.444 6.596-2.865 10.786-3.174 15.967 1.181 1.343 1.128 2.515 2.224 3.877 3.198a4.904 4.904 0 0 0-1.482.352c.685-.131 1.476-.001 2.186.128.2.13.405.256.615.38.961.566 1.507.879 2.157 1.785a19.317 19.317 0 0 1 1.764 2.967c-.331-.118-.608-.218-.855-.291a1.842 1.842 0 0 0-1.735.107l-.04.019c-.532.259-1.355.554-1.906.643.281.097.902.134 1.196.018a.836.836 0 0 1 .12-.038 1.845 1.845 0 0 0-.049 1.78l.002.003c.05.117.119.225.195.303-.252.093-.509.199-.774.314 1.229-.187 2.337-.219 3.537-.061.079.378.159.778.232 1.186l-.445.035-.036.003c-.568-.454-1.2-.377-2.064-.18-2.627.599-2.01 2.073-3.218 4.294 1.255-1.534 1.162-3.139 3.207-3.623.476-.113.8-.254 1.123-.206-.581.292-1.083.776-1.282 1.339-.561 1.585-.213 2.92-.829 4.401.764-1.324.81-2.615 1.493-4.008.245-.5 1.155-1.301 1.714-1.313l.46-.01c.135.881.217 1.756.165 2.482-.096 1.324-.44 3.289-.646 4.041.692-.89 1.008-2.774 1.311-4.099.317-1.381.237-3.038-.04-4.522-.38-2.035 1.716-1.704 2.933-2.663.894-.705 1.51-1.831 2.33-2.629.814-.791 2.095.371 2.414 1.145 1.388 3.356 2.02 8.637 1.654 12.021-.412 3.797-2.246 7.942-5.595 9.811-4.269 2.383-9.303.927-13.544-.502-.905-.305-1.535-.749-2.331-1.25.217.975.315 2.008.027 2.982-.457 1.546-1.196 4.075.903 4.542.799.178 1.161.152 2.289-.43-.913.206-1.373.156-2.001.04-.568-.105-.87-.466-1.029-.892.199.143.523.221 1.076.355 1.557.375 3.039-.374 3.329-1.453.17-.631.141-.962.499-1.821.322.099.655.19.996.273l-.578 1.885c-.5 1.632-2.448 2.947-4.169 2.917-1.59-.028-2.599-1.024-3.697-2.001-.756-.673-1.484-1.317-2.205-1.955-1.98-.624-3.566-1.354-5.403-2.714 1.307 1.536 2.194 2.387 4.017 3.151-.265 2.705-1.205 4.677-2.007 7.265-.362 1.171-3.226 5.861-4.019 6.318-.566.326-4.11 3.311-4.777 3.705-.497.66-.932 1.571-1.679 1.965-2.275 1.203-3.736-1.1-4.961-3.045-.557-.887-2.105-3.439-.755-4.154 1.275-.676 1.99-1.158 3.291-2.013.191.349.52.685.734 1.033h-.001zm7.909 4.124c-1.152.931-3.089 2.578-3.464 2.784-.681 1.015-.765 1.644-1.855 2.234-3.245 1.756-4.967-.281-6.887-3.241-.916-1.41-2.917-4.63-.793-5.722.895-.46 1.573-.804 2.249-1.198-2.228.276-4.414.279-6.687-.063.04.275.075.536.103.775.148 1.242.197 1.623-.478 2.624-.492.73-.682.941-1.276 2.267.108 1.078.062 1.685-.243 2.814-.676 2.509-5.361 1.134-7.27.617-2.298-.621-5.58-1.199-4.233-4.153.315-.692.563-1.4.75-2.075-2.009.89-4.8-.996-6.13-2.329-1.264-1.268-1.951-2.74-2.19-4.169-.204-1.216-.018-1.21.85-2.069l2.381-2.358.962-2.616a18.845 18.845 0 0 1-.273-1.944c-.231-2.682-.153-4.592.23-6.348-1.398.545-3.002.29-3.715-1.194-.271-.564-.433-1.138-.638-1.972-3.117-3.004 2.725-6.942 4.43-7.238-.195.553-.409 1.06-.597 1.562 1.156.599 1.015 2.304.769 3.401-.416-.524-.645-1.211-1.257-1.24-.09 1.241-.074 2.613-1.044 3.342.287.767.272.768 1.088.454 1.159-.446 2.031-1.439 2.908-2.409.946-1.841 2.157-3.479 3.824-4.956 4.095-3.631 7.966-4.819 14.2-5.813a43.156 43.156 0 0 1 2.607-2.513c1.247-1.1 2.057-1.329 3.236-1.39 1.951-2.611 3.487-4.428 6.668-5.768 6.669-2.807 11.266-2.942 16.619 1.471 1.768 1.459 3.277 2.996 5.221 4.213.984.616 1.687 1.059 2.433 1.947.937 1.118 1.704 2.235 2.237 3.674.689-.283 1.474-.551 2.109-1.093.819-.7 1.34-1.871 2.098-2.64 1.007-1.02 3.304.212 3.813 1.185 1.73 3.311 2.437 9.412 2.07 13.04-.455 4.485-2.304 8.725-6.255 10.834-2.687 1.433-6.293 1.567-9.379.984l-.599 1.974c-.6 1.972-2.943 3.584-4.989 3.68-1.964.093-3.029-.921-4.318-2.162l-2.028-1.953c-.04.443-.098.869-.171 1.28.533 1.051.788 1.975 1.244 3.058.501 1.193.745 1.976.779 3.253l.091 3.401c.506.898.55 1.116.476 2.144-.155 2.167-1.349 2.373-3.337 2.361-.662-.004-3.163.011-3.8-.035-1.268-.092-2.103-.188-2.539-.712zm6.704-11.817c-.4 1.428-.937 2.777-1.428 4.322-.465 1.464-2.847 5.712-4.249 6.742.273.203.774.283 1.666.36.632.054 3.121.066 3.746.077 1.376.024 1.898-.08 2.037-1.647.068-.767.008-.91-.376-1.582l-.102-3.598c-.032-1.137-.25-1.792-.697-2.851-.267-.634-.413-1.226-.597-1.823zm-41.909-19.624c.308-.035.5.127.738.365-.044-.57-.149-.993-.55-1.226a8.225 8.225 0 0 0-.079.28 4.433 4.433 0 0 0-.109.581zm1.94 4.121a30.45 30.45 0 0 0-.716 2.086c-1.174.498-2.719.815-3.311-.42-.287-.599-.449-1.187-.658-1.945-1.935-2.004.957-4.651 2.532-5.6-.228.49-.389.861-.5 1.243-.479 1.656.217 3.133-1.286 4.333.706 1.425.674 1.993 2.317 1.335a5.385 5.385 0 0 0 1.622-1.032zm-.452 13.489c.89 3.08 2.407 6.107 4.088 8.651v.044c-.106.437-.228.864-.483 1.206-1.202 1.608-4.259-.752-5.144-1.656-.967-.987-1.614-2.157-1.768-3.254-.112-.8-.004-.82.555-1.386l2.257-2.285.495-1.32zm56.906-24.721c.172.17.31.372.406.595.051-.048.107-.093.165-.136-.07-.158-.142-.315-.215-.469l-.356.01zm-14.72 5.541a2.407 2.407 0 0 1-.235-1.018c-.577.46-1.204.897-1.854 1.15.898-.803 2.118-2.695 3.003-3.292 1.003-.678 2.365-.546 3.535-1.088-.399.363-.911.656-1.432.934a2.413 2.413 0 0 1 1.573 2.002c.786-.258 1.558-.38 2.21-.371-2.332.655-4.813 2.186-6.524 4.214a5.435 5.435 0 0 1 .784-1.432 2.409 2.409 0 0 1-1.06-1.099zm-10.816-8.438c-1.288.503-2.462.88-3.718 1.195-1.145 1.506-1.843 2.286-2.107 4.304-.31-1.985-.375-2.354.509-3.836-.256.131-.494.31-.835.601-1.235 1.056-2.844 5.204-3.487 6.687.408-1.785 1.686-6.247 3.001-7.547.865-.856 1.062-.836 2.282-.952 1.453-.137 2.903-.288 4.355-.452zm26.882 4.328c1.045.099 1.642.26 2.578-.202 1.744-.863 3.027-2.272 3.859-3.957-.509 2.01-1.534 3.718-3.658 4.476-1.044.372-1.716-.012-2.779-.317zm-20.051.197c.394-1.743 1.093-3.423 3.8-4.722-3.588.898-4.261 2.405-3.8 4.722zm-46.529 9.388c.308-3.486.986-4.991 3.463-7.615-3.107 2.189-3.882 3.184-3.463 7.615z"/><path d="M275.323 40.775a1.01 1.01 0 0 1 .477-1.345 1.013 1.013 0 0 1 1.404.622c-.48.356-.92.776-1.289 1.262a1.101 1.101 0 0 1-.592-.539M286.557 36.429a.743.743 0 0 1 .809-.682.76.76 0 0 1 .614 1.075c-.38.064-.76.176-1.152.32-.164-.168-.294-.474-.271-.713" fill="#ffc"/><g><g transform="translate(0 .24)"><clipPath id="a"><path d="M0 0h100v100H0z"/></clipPath><g clip-path="url(#a)"><circle cx="50" cy="50" r="50" fill="#fff" transform="rotate(-180 50 50)"/><path d="M55.531 55.873c1.61 0-.49 5.624-7.367 8.355-6.877 2.731-11.9.975-12.973.732-1.072-.243-.519-1.35.878-2.049 3.123-1.555 3.853-6.829 8.291-6.973 4.438-.143 9.562-.065 11.171-.065m21.895-4.475c.211.32 7.469.968 7.43 9.392 0 .908-.505 1.678-.967.459-.462-1.219-1.536-1.096-2.268-1.683-.732-.586-.732-.706-3.463-.561-2.731.146-2.557-1.683-2.829-1.951-.218.585-.097 2.415-1.73 2.078-1.634-.338-1.293 1.072-1.829.536-.535-.535-.585.609-1.072.464-.487-.145-1.146.487-1.119 1.024.027.537-.463 1.22-.877.553-3.283-5.274 3.706-6.941 3.219-9.624 1.118.846 2.876 2.672 3.73 3.765.479.624.844.175.593-.159-3.953-5.198-9.056-7.582-13.697-7.561-5.812.025-10.642 5.135-12.967 6.976-.689.545-2.859.121-5.525.339-4.937.402-5.225 5.245-8.68 7.204-1.804 1.023-1.697 2.373-.845 2.731.852.358 2.819.755 3.645.867-4.341 4.975-10.548 6.982-12.327 8.206-2.194 1.512-4.192 3.503-6.925 3.516-1.658 0-1.853-1.072-1.853-1.072-.48-.104-1.52-1.26-1.357-2.3.163-1.04-.983-3.65-.398-7.42.783-5.041 3.788-11.331 6.129-15.232 2.357-3.929 7.831-10.889 8.339-11.558 1.582-2.091-2.877-14.338 2.958-17.087.83-.39 1.186-.016 1.186.521s.655 11.165 5.413 10.779c2.194-.179 12.453-2.405 21.428 1.235 7.386 2.997 13.392 10.548 16.663 15.574m-44.889 7.277c-3.764.132-6.118 3.495-6.145 6.047-.032 3.056 2.21.716 4.551-.748s1.886-3.869 2.113-4.032c.227-.163 1.012-1.322-.519-1.267m-5.81 8.583c-.452.368-.673.844-.495 1.065.177.22.69.102 1.142-.264.453-.366.675-.844.496-1.064-.179-.221-.691-.103-1.143.263m9.672-.289c-1.438-.129-2.627-.673-3.602-1.234-.975-.561-1.648 1.838-3.676 3.804-2.178 2.113-5.162 2.853-6.567 4.902-1.169 1.706-2.752 2.114-3.624 2.478-.377.16-.221.299-.058.32 1.143.171 3.115-.742 5.391-2.535 2.602-2.049 9.439-4.618 12.138-7.74m24.931-20.709c-1.328 0-.754-.844-.226-1.008 2.654-.825 6.371.032 8.858 1.56-1.17-2-5.705-5.115-12.24-3.609-6.535 1.505-7.315 8.291-10.436 11.412h1.652c1.825-1.903 4.847-4.685 7.555-6.007 2.237-1.093 5.979-2.137 11.826-.138-1.633-2.096-4.863-2.216-6.998-2.21m21.459 12.72c.358.553.703.16.439-.593-.305-.869-1.199-4.13-5.479-5.462-3.675-1.146-3.055-.472-2.373.569.357.541 1.664 1.724 1.758 2.529.088.739-.769.977-1.355.654-.841-.463-2.004-2.284-3.308-3.294-.274 1.426-3.9 4.315-3.719 5.792.121 1.001.84.537 1.011.134.16-.369.571-.812 1.062-.799 1.535.024 3.407-.222 3.835-1.293.46-1.134.98-.402 1.146 0 .48 1.146 1.862.774 3.983.735 2.284-.041 2.64.491 2.992 1.033m-65.206-.561c.618-1.691 2.536-5.626 4.193-7.868-1.106.098-1.622-2.889-2.584-2.015-2.511 2.276-3.024 7.006-1.609 9.885" fill-rule="nonzero"/></g></g></g><g><g transform="translate(106.3)"><clipPath id="b"><path d="M0 0h100v100H0z"/></clipPath><g clip-path="url(#b)"><circle cx="50" cy="50" r="50" fill="#e5e2e1" transform="rotate(-180 50 50)"/><g transform="translate(13.029 17.426) scale(.06697)"><clipPath id="c"><path d="M0 0h1000v900H0z"/></clipPath><g clip-path="url(#c)"><g stroke="#fdee21" stroke-width="5.13"><path d="M596.797 704.59v192.85h47.346v-88.632l9.767.183v88.45h47.881v-192.85h-47.88v71.552h-9.768v-71.552l-47.346-.001zM760.717 704.59h-46.116v192.85h46.116V704.59zM768.267 704.59l36.43 192.85h54.983l36.43-192.85h-48.952l-12.067 82.517c-1.006 3.161-4.402 3.161-5.009 0l-12.06-82.52-49.755.003zM997.437 704.59H905.9v192.85h91.538v-50.569l-50.898-.434v-21.679h24.248v-50.204H946.54v-19.397h50.898V704.59z"/></g><path d="M503.127 119.752c-7.71-21.115-272.92-124.22-276.31-112.9-48.7 12.695-68.52 68.826-102.02 104.38l-74.393-4.261C17.634 149.113.437 192.17 12.146 236.921c42.002 56.906 90.76 105.33 121.15 176.81 2.402 33.692 145.82 3.533 176.56-3.136-41.992 30.059-78.56 76.651-62.846 210.84 14.346 63.014 24.16 133.37 151.4 204.64 16.75 9.381 51.407 20.207 72.838 28.098 20.495 9.401 44.461 13.264 112.07-7.413 39.124-16.863 81.365-27.022 119.65-43.844l-46.017 2.16c-63.369 1.378-112.29 6.105-127.38-11.6l-58.32-100.68 34-66.04c47.056 4.826 62.675 42.986 104.15 57.518l48.885-36.215c141.99 83.816 198.48-53.12 214.67-159.77-1.728-43.392-93.952 13.611-88.362-6.679 2.166-46.644-35.854-107.67-60.42-155.22l28.43-110.01c12.9-11.49-59.72-133.86-119.02-149.12-52.03-13.391-130.46 52.492-130.46 52.492h.003z" fill="#fdee21"/><g fill="#c8c037"><path d="M736.387 353.55c.51 11.816.452 26.187 1.594 35.15-.197 6.838-5.323 7.089-9.564 8.521l27.631 10.119c5.485 9.232 9.894 18.463 14.347 27.694 5.165 22.708 1.31 23.357-2.126 25.031-10.027.102-20.025.121-29.358-1.864 4.181 2.207 5.101 3.815 5.543 6.642.816 5.212-2.54 12.329-8.067 19.188 8.172 4.534 23.071 8.97 34.14 13.181l12.62-28.093c-5.715-41.271-23.045-79.309-46.76-115.57v.001zM787.957 491.98c15.324 6.387 36.495 4.515 65.848-10.613 4.365-3.104 8.431-1.248.62 3.858-38.5 34.547-56.928 17.265-66.468 6.755z"/><path d="M856.747 476.84c4.552 8.717 1.794 15.805.266 23.167-4.754 37.449-16.423 67.056-39.32 97.994-74.479 119.74-149.67 44.817-209.62-3.945l-24.799 62.136c-1.317 5.447-6.79 9.688 31.937 26.739l39.452-27.867c150.46 114.48 257.08-160.24 202.08-178.22l.004-.004zM626.217 583.84c-10.15.724-40.36 10.997-41.706 16.946l13.902-20.712 27.804 3.766zM606.477 456.87c1.86 0 10.788 2.397 9.83 1.864-1.37-.763-.153 12.519 2.657 19.439l-10.893 23.7c20.865-24.063 53.858-22.462 84.486-25.564l-14.612-9.054c2.538-8.466-.45-15.165-1.86-22.368l-69.608 11.983zM657.747 385.51c-22.387 6.863-43.816 18.075-58.203 41.976 10.976-39.395 13.213-37.899 16.757-39.846 15.351-6.865 27.922-2.586 41.446-2.13z"/></g><g fill="#fcf6a0"><path d="M538.197 847.25c-27.07 29.87-87.47-2.26-137.63-18.64-127.46-81.05-152.36-157.35-154.09-232.2-6.553-107.22 26.37-169.52 68.014-184.27-27.56 53.129-40.41 148.5-27.63 219.42 10.314 39.455 10.528 106 76.544 141.62 32.327 18.199 23.571 32.368 45.431 49.413 23.955 18.679 90.747 36.437 129.36 24.658l.001-.001zM578.637 351.74c-45.83-64.991-110.29-89.387-182.98-92.053 14.568-4.749 29.136-7.222 43.704-14.246 3.567-3.748 2.401-10.344 1.063-17.042-69.97-18.27-114.13-40.85-170.03-61.781l150.91 36.215c101.91 3.872 93.158 29.032 157.34 148.91l-.007-.003z"/><path d="M627.707 320.4c-33.87-48.35-66.72-107.03-111.31-144.35-107.64-48.584-214.12-84.666-338.91-117.5l39.827-51.216c132.42 30.227 256.8 80.808 368.21 164.19 18.85 47.66 31.42 95.383 42.173 148.87l.01.006zM695.987 234.96S677 192.361 667.754 176.094c-21.446-23.766-32.29-68.054-76.213-88.922 13.892 3.752 23.4-.718 51.76 24.992l44.668 84.734 8.018 38.062z"/><path d="M719.607 308.76c4.38-36.908 12.695-96.11 3.152-119.5-26.55-35.624-53.29-72.446-80.04-106.63-4.43-4.123-7.62-9.719-11.11-14.084 37.61 9.744 76.86 35.894 129.79 139.13L719.607 308.76z"/></g><path d="M561.487 313.12c-14.98-11.79-28.33-53.49-51.03-62.16-21.01-1.758-28.715-8.368-56.344-2.739 10.021-5.021 19.482-11.446 30.134-14.885 7.215-1.703 13.983.184 20.867 1.134 1.7-.804 2.814-1.803 2.398-3.313-27.812-17.187-84.866-17.432-123.38-27.243 44.7 1.496 94.156-.982 127.75 9.791 27.013 23.973 35.788 69.119 49.605 99.415zM643.397 112.027c6.201.563 39.574 53.353 41.142 62.137 2.775 19.202 9.62 40.728 11.46 60.819-5.497-19.269-11.486-38.537-18.974-57.806-2.19-5.306-7.724-17.302-23.107-34.269-7.163-11.959-8.709-21.359-10.52-30.88v-.001zM756.487 399.55H742.21l15.781 4.142-1.503-4.142zM659.067 385.29c-14.358-1.765-29.09-1.999-43.448 1.157-5.852 7.86-6.255 15.856-8.813 23.245 17.454-19.236 24.38-20.412 52.261-24.401v-.001zM854.887 484.57c-7.99 6.377-8.788 12.379-32.413 19.572-17.228 4.074-26.96-2.831-35.07-12.116 12.294 3.522 14.26 12.81 47.225 2.397l20.258-9.853zM783.287 488.56c-5.75 15.812-11.949 31.791-18.199 46.6-14.883 17.454-8.54 7.508-30.819 34.617 7.13-10.998 16.4-21.566 21.254-33.02 3.41-7.542 7.653-15.543 9.532-22.244-5.907-2.95-17.999-3.183-19.639-2.125-19.808 11.683-23.382 24.047-35.059 36.086 8.464-13.53 15.693-28.298 25.505-40.476 1.118-1.58 8.383-1.886 12.85-2.819-6.94-1.19-19.787-3.684-20.82-3.572-12.923 3.106-20.164 14.361-29.757 21.836 6.994-10.098 13.436-20.612 22.317-29.292.88-1.02 24.883 1.083 37.324 6.047l.247 4.949 7.063 2.851 5.314-13.314 12.887-6.124zM626.537 583.89c-3.188-1.089-31.35-4.711-31.35-3.861-10.813 7.696-12.453 15.059-12.22 21.436 17.988-17.697 17.318-17.747 43.571-17.575zM605.147 456.61s20.322-2.963 19.926-1.065c-1.472 7.05 2.488 24.233 2.923 21.836l-11.424 9.32c23.926-12.029 49.113-9.612 74.656-11.45 0 0-21.507-5.938-20.192-6.125 4.797-.68-1.278-22.43-2.923-22.901 4.092-1.384 8.087-2.428 12.221-3.461-30.756-8.049-48.54-3.306-75.188 13.847l.001-.001z"/><path d="M781.027 471.78l-4.517 2.263c-.64-13.231-14.85-12.26-26.834-12.382l-9.83-2.396c2.99 2.766 12.23 2.549 8.502 8.521-3.137 1.677-4.58 8.87-6.376 14.912l-5.314.266c9.387 3.669 18.095 6.884 28.428 11.184l6.111.932 14.612-7.855-4.782-15.445z"/><g fill="#fff"><path d="M646.327 462.86c-2.287-4.525-13.794-3.882-16.275-.955-2.016 2.379-.125 17.642 2.46 15.068 3.736-3.285 8.617-4.659 14.48-4.394.74-2.82.477-5.864-.665-9.719zM756.677 485.6c1.082-.791 3.37-8.443 2.63-10.733-1.512-5.403-12.212-4.266-12.212-4.266-2.61 1.536-4.899 9.96-3.945 12.739.456 2.353 11.81 3.103 13.526 2.26h.001z"/></g><g><path d="M299.107 749.64l6.76.661c40.071 19.675 106.05 48.847 201.57 33.171l14.988 23.584c-42.067 20.442-87.312 15.738-129.71 17.172l-93.608-74.588zM241.577 594.1l20.073 84.268c53.74 33.593 145.54 72.07 222.06 68.965l-16.91-38.8c-159.73-33.92-173.24-76.8-225.22-114.44l-.003.007zM291.527 421.49c9.811 65.302 22.907 114.81 79.69 156.28 34.804 25.03 69.351 49.954 111.37 70.524 0 0-3.684 19.171-6.763 18.829-125.05-13.89-216.6-117.58-227.69-164.94 10.741-36.329 26.15-59.021 43.39-80.693h.003zM351.637 384.49c16.664 72.376 56.397 145.68 95.89 212.18 14.476 18.369 18.265 26.475 40.578 37.659 30.16 9.549 51.486 7.112 73.377 5.676-5.998-11.102-11.329-22.706-18.217-33.14-49.018-38.765-26.364-74.06-13.344-96.406-27.256-6.887-63.37-21.525-68.345-40.778-7.999-62.271-3.937-82.025 4.068-114.01-36.909 7.782-74.309 15.494-114.01 28.82l.003-.001z"/><path d="M216.237.058c-12.13 7.925-23.818 19.256-36.39 32.135-20.844 21.575-34.7 42.621-55.916 58.224-4.243 3.659-16.15 9.551-31.12 10.425-7.053.352-11.647 1.519-24.605-.108-11.428-6.188-22.285-2.164-32.88 10.51-11.62 16.709-26.335 48.437-32.454 68.41-12.61 50.937 19.541 92.905 50.374 125.25 27.43 26.796 43.243 43.542 54.505 68.107 8.527 15.933 14.844 37.799 21.683 53.13 2.466 4.861 1.953 4.835 8.591 6.3 14.333 3.059 34.215 3.083 51.915 4.604 7.66.107 18.175-.178 28.14-1.217 13.731-2.592 29.863-5.133 43.384-9.809 13.213-3.254 24.985-7.76 35.597-11.907-1.368 4.644-11.478 9.115-15.268 15.002-35.97 51.49-45.823 97.308-39.56 169.6 3.542 32.042 10.895 58.605 21.991 88.997 5.078 13.908 15.882 35.934 26.236 50.565 30.79 43.506 99.672 99.374 195.56 120.88 16.73 2.286 35.715 1.067 53.571-3.689 47.326-14.346 143.78-48.275 143.78-48.275s-85.619 7.083-124.83 3.206c-9.077-1.419-19.08-1.901-25.405-8.087-1.06-1.37-4.914-9.132-2.425-9.202 3.395-.095 13.142-4.14 28.191-5.482-32.129-3.459-31.67-3.418-34.016-9.27-3.648-9.085-9.23-21.502-14.977-32.367 14.118 1.191 45.376 2.945 55.984-8.003 0 0-18.497 2.136-34.843.219-5.508-.646-14.89-3.995-17.71-5.03-7.339-2.858-13.38-3.746-14.788-5.609-2.549-6.486-4.276-8.667-7.35-17.356-4.167-11.504-4.497-24.337-5.29-36.083 10.692 13.18 24.317 24.275 42.355 29.941.232-.488 23.4 10.072 40.226 4.642l3.49-1.126c0 .312-11.149.977-15.238-1.047-34.219-14.545-39.37-27.276-44.895-33.599l-14.777-22.133c4.494-8.961 7.035-9.301 12.99-9.384 18.01 2 25.847 3.54 36.806.896 7.405 15.24 9.406 30.571 26.265 41.662 56.166 16.672 68.37-4.951 81.973-24.057 40.412 29.658 106.2 38.803 151.89.514 58.086-67.212 76.476-173.17 71.325-179.22-7.254-12.307-16.772-24.999-24.945-23.245-29.13 7.952-39.87 22.73-68.735 19.359 3.438-.194 9.22-.287 9.263-.615 2.224-24.441-.179-36.267-1.252-38.297-8.759-19.317-20.26-39.646-28.278-54.881-2.067-3.16-8.137-27.165-18.308-36.648-4.362-3.724-15.039-13.546-15.039-13.546l-.905 10.439s4.174.631 5.763 7.098c6.022 24.517 36.687 82.485 38.938 85.263 10.868 17.545 1.104 39.401 9.367 51.663.794 1.557 16.857-.137 29.307.628 20.473-4.403 19.61-13.426 37.294-14.782 11.913-.913 13.108 21.46 12.951 23.196-2.22 24.704-9.735 53.427-21.236 79.658-23.912 46.069-50.69 87.446-88.67 93.216-46.326 8.095-70.399-12.158-95.512-25.055l-9.607 8.194c-32.637 32.501-71.389 29.614-87.239-12.851-7.89-16.473-18.172-26.569-26.976-40.7l-46.688 33.627c-3.886 7.97-8.665 20.54-14.47 34.58-4.036 9.761-7.42 26.525-7.199 40.456-5.985 10.195 20.73 51.542 37.61 76.692 4.98 7.421 14.278 20.385 14.59 21.193 3.346 8.683 10.678 16.349 11.123 17.284 31.337 40.872-39.53 31.46-54.167 28.991-28.876-4.601-57.12-16.663-83.67-32.792a343.805 343.805 0 0 1-4.605-2.848c-31.55-19.866-60.58-45.283-85.264-70.423-14.718-16.666-28.732-50.827-39.083-75.045-15.513-58.226-37.776-159.15 22.532-235.63 3.823-4.372 7.948-11.65 11.46-13.09 17.918-12.119 37.375-20.379 58.298-24.966l-2.112-13.563c-10.449 2.374-45.633 15.243-55.58 20.629-22.624 6.558-41.389 13.406-70.22 20.625-9.374 1.146-18.593 1.167-27.58-.054-20.74-2.818-56.094-.301-58.349-2.396-14.044-19.585-17.889-54.676-30.703-73.456l-.152-.187-.162-.178c-7.47-10.04-16.177-18.23-24.752-26.75C54.652 291.5 28.37 262 21.012 230.74c-1.85-9.23-6.614-18.79-4.082-46.1l.047-.134.044-.133c7.388-25.513 19.407-46.31 39.806-67.153 21.228.342 42.24.809 58.607 3.935 7.51 1.256 23.124 3.296 39.252 9.304 40.822 15.207 94.76 40.209 94.76 40.209-40.488-22.236-85.76-51.115-114.35-56.943-4.253-.602-6.868-2.543-8.13-5.93 42.998-25.264 50.864-55.009 79.146-81.686 12.925-5.626 17.965-8.498 28.947-9.692 101.57 16.06 165.51 56.515 216.09 83.566 20.53 11.164 39.191 19.606 57.015 29.773 15.624 5.139 62.771 40.734 76.57 59.925 14.016 29.595 24.25 61.563 33.584 92.411 6.693 31.375 12.564 44.102 12.564 44.102s-5.688-26.243-4.74-30.958c5.898 2.204 19.841 6.558 25.621 5.881 0 0-25.818-13.346-29.2-25.141-10.857-37.847-21.745-96.765-24.68-99.837-8.275-10.411-42.778-36.816-63.942-49.03-8.006-4.62-12.333-7.486-12.67-9.518 6.76-6.83 15.11-15.865 22.597-21.606 7.177-5.503 13.711-11.709 23.713-15.423 43.963-19.8 69.101 7.618 75.066 2.066 0 0-9.458-10.841-5.257-9.056 4.302 2.33 18.323 5.078 19.862 6.509 16.023 12.534 57.913 58.344 83.161 106.68 6.064 11.84 8.53 19.636 5.716 33.893-2.82 14.27-5 22.117-8.077 31.647-2.779 6.371-18.498 49.988-18.437 55.848-3.167 23.932 10.264 53.893 10.264 53.893.127-8.133-.5-12.466.236-18.282l.904-10.393s-.573-2.764-.469-3.86c.682-7.187 2.445-13.229 2.963-17.345 5.047-31.255 13.822-53.755 23.775-81.182 2.958-6.922 6.828-10.771 6.63-16.041.163-9.352-8.205-21.904-14.252-34.163-6.1-12.39-13.39-26.202-22.96-40.76-21.82-31.376-40.42-55.925-74.48-71.289-9.53-4.182-47.03-8.271-59.98-5.841-15.71 3.273-29.22 6.5-39.99 13.398-16.95 10.854-30.27 27.659-45.89 37.561-34.56-17.282-51.24-30.216-54.35-31.999-20.54-11.006-45.2-23.778-71.73-35.89-12.72-11.862-91.71-40.233-164.04-45.892l-.009-.006zm442.08 644.59c-21.3-16.65-39.23-33.79-51.05-51.44-3.858 20.758-17.864 35.542-28.688 50.083-2.155 3.41-3.708 8.06 6.902 22.879 2.86 3.948 13.207 4.623 20.192 4.261-7.106-5.372-17.918-11.053-19.66-15.977 12.501 8.511 24.076 10.957 34.538 9.586 2.391-.269 5.36-2.804 7.656-6.706 4.663-10.02 8.315-12.433 12.005-15.13l8.501 10.651 9.604-8.207z" stroke="#000" stroke-width=".11"/></g></g></g></g></g></g><g><g transform="translate(318.65 106.05)"><clipPath id="d"><path d="M0 0h100v100H0z"/></clipPath><g clip-path="url(#d)"><path d="M50 0C22.386 0 0 22.386 0 50s22.386 50 50 50a49.997 49.997 0 0 0 50-50c0-27.614-22.386-50-50-50z" fill="#fff" fill-rule="nonzero"/><path d="M40.333 33c-5.522 0-10-4.477-10-10s4.477-10 10-10 10 4.477 10 10-4.477 10-10 10zm.278-5a4.722 4.722 0 1 0 0-9.444 4.722 4.722 0 0 0 0 9.444z"/><path d="M38.111 31.889h4.444v6.667h-4.444zM38.111 62.444h4.444v6.667h-4.444zM55.551 39.11l2.222 3.849-5.774 3.333-2.222-3.848zM54.996 61.849L57.218 58l-5.774-3.333-2.222 3.848z"/><path d="M39.778 63C32.721 63 27 57.279 27 50.222s5.721-12.778 12.778-12.778 12.778 5.721 12.778 12.778S46.835 63 39.778 63zm.355-6.389a6.034 6.034 0 1 0 0-12.068 6.034 6.034 0 0 0 0 12.068zM40.333 88c-5.522 0-10-4.477-10-10s4.477-10 10-10 10 4.477 10 10-4.477 10-10 10zm.278-5a4.722 4.722 0 1 0 0-9.444 4.722 4.722 0 0 0 0 9.444zM63.667 46.889c-5.523 0-10-4.477-10-10s4.477-10 10-10 10 4.477 10 10-4.477 10-10 10zm.277-5a4.723 4.723 0 1 0 0-9.445 4.723 4.723 0 0 0 0 9.445zM63.667 74.111c-5.523 0-10-4.477-10-10s4.477-10 10-10 10 4.477 10 10-4.477 10-10 10zm.277-5a4.723 4.723 0 1 0 0-9.445 4.723 4.723 0 0 0 0 9.445z"/></g></g></g><g><g transform="translate(212.35 106.05)"><clipPath id="e"><path d="M0 0h100v100H0z"/></clipPath><g clip-path="url(#e)"><path d="M50 0C22.386 0 0 22.386 0 50s22.386 50 50 50a49.997 49.997 0 0 0 50-50c0-27.614-22.386-50-50-50z" fill="#e77215" fill-rule="nonzero"/><path d="M55.063 59.209l10.96 2.9c-2.103-4.015-3.922-7.714-5.971-11.281-.783-1.364-.638-2.171.351-3.286 3.086-3.484 6.06-7.066 9.545-11.159-4.737 1.235-8.827 2.177-12.832 3.399-2.066.631-3.245.361-4.316-1.675-1.751-3.328-3.847-6.474-6.123-10.235-.854 4.748-1.779 8.84-2.26 12.985-.258 2.23-1.296 3.02-3.246 3.567-4.041 1.136-8.021 2.493-12.759 3.991l11.873 4.796c-2.768 1.793-5.198 3.388-7.658 4.933-.311.195-.865.306-1.167.162-3.724-1.776-7.856-2.799-11.135-5.376-3.742-2.941-3.154-7.185 1.339-8.977 4.516-1.801 9.219-3.148 13.888-4.532 1.866-.555 2.76-1.465 3.021-3.456.493-3.785 1.237-7.539 1.977-11.287.243-1.229.639-2.481 1.233-3.578 2.233-4.129 6.154-4.408 8.804-.518 2.207 3.24 4.201 6.637 6.097 10.071.953 1.727 1.981 2.052 3.824 1.516 4.582-1.335 9.224-2.466 13.847-3.659 2.142-.553 4.41-.799 5.781 1.287 1.5 2.281.056 4.269-1.399 6.012-3.268 3.914-6.557 7.814-9.935 11.632-1.12 1.267-1.438 2.194-.468 3.823 2.11 3.546 3.905 7.281 5.815 10.945 1.165 2.231 1.485 4.472-.329 6.521-1.732 1.956-3.941 2.362-6.39 1.642-1.833-.54-3.658-1.109-5.486-1.664-6.698-2.032-6.698-2.031-6.881-9.499z" fill="#fff"/></g></g></g></svg>