<svg xmlns="http://www.w3.org/2000/svg" xmlns:xlink="http://www.w3.org/1999/xlink" width="682.797" height="467.693"><g opacity=".5"><defs><path id="a" d="M289.066 138.481h208.809v46.521H289.066z"/></defs><clipPath id="b"><use xlink:href="#a" overflow="visible"/></clipPath><path clip-path="url(#b)" fill="none" stroke="#888" stroke-width="2" stroke-miterlimit="10" d="M494.115 181.242l-201.289-39"/><path clip-path="url(#b)" fill="#888" d="M494.83 177.551a3.76 3.76 0 1 1-1.431 7.383 3.76 3.76 0 0 1 1.431-7.383M293.541 138.551a3.76 3.76 0 1 0-1.43 7.383 3.76 3.76 0 0 0 1.43-7.383"/></g><g opacity=".5"><defs><path id="c" d="M387.116 177.482h110.758v145.442H387.116z"/></defs><clipPath id="d"><use xlink:href="#c" overflow="visible"/></clipPath><path clip-path="url(#d)" fill="none" stroke="#888" stroke-width="2" stroke-miterlimit="10" d="M494.115 181.242L390.876 319.164"/><path clip-path="url(#d)" fill="#888" d="M491.104 178.989a3.76 3.76 0 1 1 6.02 4.508 3.76 3.76 0 0 1-6.02-4.508M387.866 316.911a3.762 3.762 0 0 0 .757 5.264 3.761 3.761 0 1 0-.757-5.264"/></g><defs><path id="e" d="M0 0h293.104v293.105H0z"/></defs><clipPath id="f"><use xlink:href="#e" overflow="visible"/></clipPath><path clip-path="url(#f)" fill="#FFF" d="M284.665 115.861V98.026c0-78.387-11.187-89.586-89.497-89.586h-17.924a7.672 7.672 0 0 0-7.673-7.673h-46.037a7.672 7.672 0 0 0-7.673 7.673h-17.93c-78.31 0-89.491 11.2-89.491 89.586v17.834a7.673 7.673 0 0 0-7.673 7.673V169.57a7.672 7.672 0 0 0 7.673 7.673v17.835c0 78.384 11.181 89.586 89.491 89.586h17.93a7.672 7.672 0 0 0 7.673 7.673h46.037a7.672 7.672 0 0 0 7.673-7.673h17.924c78.31 0 89.497-11.202 89.497-89.586v-17.835a7.672 7.672 0 0 0 7.673-7.673V123.533a7.672 7.672 0 0 0-7.673-7.672"/><path clip-path="url(#f)" fill="none" stroke="#D4D4D4" stroke-width="1.535" stroke-miterlimit="10" d="M284.665 115.861V98.026c0-78.387-11.187-89.586-89.497-89.586h-17.924a7.672 7.672 0 0 0-7.673-7.673h-46.037a7.672 7.672 0 0 0-7.673 7.673h-17.93c-78.31 0-89.491 11.2-89.491 89.586v17.834a7.673 7.673 0 0 0-7.673 7.673V169.57a7.672 7.672 0 0 0 7.673 7.673v17.835c0 78.384 11.181 89.586 89.491 89.586h17.93a7.672 7.672 0 0 0 7.673 7.673h46.037a7.672 7.672 0 0 0 7.673-7.673h17.924c78.31 0 89.497-11.202 89.497-89.586v-17.835a7.672 7.672 0 0 0 7.673-7.673V123.533a7.672 7.672 0 0 0-7.673-7.672z"/><defs><path id="g" d="M121.581 76.831c-39.154 0-44.747 5.6-44.747 44.794v48.526c0 39.194 5.593 44.793 44.747 44.793H170.2c39.153 0 44.747-5.599 44.747-44.793v-48.526c0-39.194-5.594-44.794-44.747-44.794h-48.619z"/></defs><clipPath id="h"><use xlink:href="#g" overflow="visible"/></clipPath><linearGradient id="i" gradientUnits="userSpaceOnUse" x1="-36.714" y1="467.692" x2="-35.714" y2="467.692" gradientTransform="rotate(-90 -34652.267 29796.346) scale(138.113)"><stop offset="0" stop-color="#eb9696"/><stop offset="1" stop-color="#f3b3b3"/></linearGradient><path clip-path="url(#h)" fill="url(#i)" d="M76.833 76.831h138.113v138.113H76.833z"/><defs><path id="j" d="M121.581 76.831c-39.154 0-44.747 5.6-44.747 44.794v48.526c0 39.194 5.593 44.793 44.747 44.793H170.2c39.153 0 44.747-5.599 44.747-44.793v-48.526c0-39.194-5.594-44.794-44.747-44.794h-48.619z"/></defs><clipPath id="k"><use xlink:href="#j" overflow="visible"/></clipPath><g opacity=".096" clip-path="url(#k)"><defs><path id="l" d="M-36.715-24.902h288.996v279.149H-36.715z"/></defs><clipPath id="m"><use xlink:href="#l" overflow="visible"/></clipPath><g clip-path="url(#m)"><defs><path id="n" d="M178.874 45.832L33.868 203.822l-70.583-164.24L89.118-24.902l75.603 31.029z"/></defs><clipPath id="p"><use xlink:href="#n" overflow="visible"/></clipPath><defs><filter id="o" filterUnits="userSpaceOnUse" x="-150.47" y="-132.124" width="443.099" height="443.169"><feColorMatrix values="1 0 0 0 0 0 1 0 0 0 0 0 1 0 0 0 0 0 1 0"/></filter></defs><mask maskUnits="userSpaceOnUse" x="-150.47" y="-132.124" width="443.099" height="443.169" id="r"><g filter="url(#o)"><linearGradient id="q" gradientUnits="userSpaceOnUse" x1="-36.715" y1="467.615" x2="-35.715" y2="467.615" gradientTransform="rotate(-137.953 -10145.14 21457.516) scale(94.4528)"><stop offset="0" stop-color="#fff"/><stop offset="1"/></linearGradient><path clip-path="url(#p)" fill="url(#q)" d="M292.628 77.691L59.986-132.124-150.47 101.229 82.172 311.045z"/></g></mask><linearGradient id="s" gradientUnits="userSpaceOnUse" x1="-36.715" y1="467.615" x2="-35.715" y2="467.615" gradientTransform="rotate(-137.953 -10145.139 21457.516) scale(94.4528)"><stop offset="0" stop-color="#fff"/><stop offset="1" stop-color="#fff"/></linearGradient><path clip-path="url(#p)" mask="url(#r)" fill="url(#s)" d="M292.628 77.691L59.986-132.124-150.47 101.229 82.172 311.045z"/></g><g clip-path="url(#m)"><defs><path id="t" d="M178.874 45.832L33.868 203.822l79.479 50.425 138.934-94.822z"/></defs><clipPath id="v"><use xlink:href="#t" overflow="visible"/></clipPath><defs><filter id="u" filterUnits="userSpaceOnUse" x="-69.811" y="-62.82" width="425.769" height="425.718"><feColorMatrix values="1 0 0 0 0 0 1 0 0 0 0 0 1 0 0 0 0 0 1 0"/></filter></defs><mask maskUnits="userSpaceOnUse" x="-69.811" y="-62.82" width="425.769" height="425.718" id="x"><g filter="url(#u)"><linearGradient id="w" gradientUnits="userSpaceOnUse" x1="-36.715" y1="467.603" x2="-35.715" y2="467.603" gradientTransform="rotate(42.11 38552.08 18677.219) scale(65.6288)"><stop offset="0" stop-color="#fff"/><stop offset="1"/></linearGradient><path clip-path="url(#v)" fill="url(#w)" d="M-69.811 160.533l223.882 202.365 201.887-223.352L132.077-62.82z"/></g></mask><linearGradient id="y" gradientUnits="userSpaceOnUse" x1="-36.715" y1="467.603" x2="-35.715" y2="467.603" gradientTransform="rotate(42.11 38552.08 18677.219) scale(65.6288)"><stop offset="0" stop-color="#e93549"/><stop offset="1" stop-color="#ef6b6b"/></linearGradient><path clip-path="url(#v)" mask="url(#x)" fill="url(#y)" d="M-69.811 160.533l223.882 202.365 201.887-223.352L132.077-62.82z"/></g></g><g opacity=".061" clip-path="url(#k)"><defs><path id="z" d="M32.188-19.488h276.526v297.212H32.188z"/></defs><clipPath id="A"><use xlink:href="#z" overflow="visible"/></clipPath><g clip-path="url(#A)"><defs><path id="B" d="M95.949 62.277l168.479 132.677-158.449 82.771-73.791-120.612 25.238-77.727z"/></defs><clipPath id="D"><use xlink:href="#B" overflow="visible"/></clipPath><defs><filter id="C" filterUnits="userSpaceOnUse" x="-72.077" y="-50.114" width="440.77" height="440.23"><feColorMatrix values="1 0 0 0 0 0 1 0 0 0 0 0 1 0 0 0 0 0 1 0"/></filter></defs><mask maskUnits="userSpaceOnUse" x="-72.077" y="-50.114" width="440.77" height="440.23" id="F"><g filter="url(#C)"><linearGradient id="E" gradientUnits="userSpaceOnUse" x1="-36.715" y1="467.586" x2="-35.715" y2="467.586" gradientTransform="scale(-94.4527) rotate(-52.279 -497.113 197.619)"><stop offset="0" stop-color="#fff"/><stop offset="1"/></linearGradient><path clip-path="url(#D)" fill="url(#E)" d="M119.119-50.114L-72.077 197.079l249.573 193.037 191.197-247.193z"/></g></mask><linearGradient id="G" gradientUnits="userSpaceOnUse" x1="-36.715" y1="467.586" x2="-35.715" y2="467.586" gradientTransform="scale(-94.4527) rotate(-52.279 -497.113 197.619)"><stop offset="0" stop-color="#fff"/><stop offset="1" stop-color="#fff"/></linearGradient><path clip-path="url(#D)" mask="url(#F)" fill="url(#G)" d="M119.119-50.114L-72.077 197.079l249.573 193.037 191.197-247.193z"/></g><g clip-path="url(#A)"><defs><path id="H" d="M95.949 62.277l168.479 132.677 44.286-83.057L203.683-19.488z"/></defs><clipPath id="J"><use xlink:href="#H" overflow="visible"/></clipPath><defs><filter id="I" filterUnits="userSpaceOnUse" x="-7.889" y="-122.514" width="420.44" height="420.494"><feColorMatrix values="1 0 0 0 0 0 1 0 0 0 0 0 1 0 0 0 0 0 1 0"/></filter></defs><mask maskUnits="userSpaceOnUse" x="-7.889" y="-122.514" width="420.44" height="420.494" id="L"><g filter="url(#I)"><linearGradient id="K" gradientUnits="userSpaceOnUse" x1="-36.715" y1="467.58" x2="-35.715" y2="467.58" gradientTransform="rotate(-52.216 -32299.97 12769.126) scale(65.6287)"><stop offset="0" stop-color="#fff"/><stop offset="1"/></linearGradient><path clip-path="url(#J)" fill="url(#K)" d="M228.843 297.98L412.551 61.012 175.819-122.514-7.889 114.455z"/></g></mask><linearGradient id="M" gradientUnits="userSpaceOnUse" x1="-36.715" y1="467.58" x2="-35.715" y2="467.58" gradientTransform="rotate(-52.216 -32299.97 12769.126) scale(65.6287)"><stop offset="0" stop-color="#e93549"/><stop offset="1" stop-color="#ef6b6b"/></linearGradient><path clip-path="url(#J)" mask="url(#L)" fill="url(#M)" d="M228.843 297.98L412.551 61.012 175.819-122.514-7.889 114.455z"/></g></g><g><path fill="#DE8585" d="M101.895 111.901a4.034 4.034 0 0 0-2.332 1.048c-.874.788-1.225 1.565-1.545 2.305l-.006.016-.031.082-4.521 11.161c-.018.043-.037.086-.053.129l-.003.011c-.474 1.332-1.026 2.969-.186 4.951.461 1.087 1.371 1.964 2.366 2.423.929.428 1.804.514 2.552.514h.011l.104-.003 2.307-.073-.276 3.422c-.287 2.391-.424 4.806-.432 6.48a.228.228 0 0 0 0 .037l1.244 26.632v.017a.745.745 0 0 0 .079.284c.103 1.567.644 3.169 1.866 4.285 1.315 1.201 2.96 1.576 4.35 1.576h5.291c.057 0 .114-.014.171-.017.19.457.326.97.908 1.447 1.127.925 2.533 1.262 3.773 1.262H120c1.252.038 2.674-.396 3.72-1.427 1.031-1.018 1.478-2.36 1.559-3.58v-.003l.647-9.321 7.851.026.289 6.066c.043 1.088.24 2.713 1.554 4.01 1.308 1.291 2.919 1.492 4.094 1.534l.126.003H143.732c.942-.008 2.21-.032 3.501-.882.884-.582 1.34-1.294 1.672-1.95l.295.927h.003c.003.009.011.019.014.028.003.01.011.021.014.031.391 1.21 1.082 2.488 2.299 3.377 1.238.906 2.671 1.161 3.863 1.161h5.404c1.295 0 2.911-.448 4.069-1.779 1.165-1.339 1.439-3.124 1.219-4.675l-.77-6.449 16.464-1.489h.002l.124-.014c2.275-.286 4.419-1.045 6.37-2.628l3.706-3.006.003-.003c.041-.033.079-.067.118-.101 1.355-1.202 2.327-2.55 2.987-4.052l3.428-7.798.003-.003c.027-.063.052-.126.076-.191v-.003c.472-1.268.568-2.927-.287-4.403-.865-1.494-2.447-2.276-3.88-2.439h-.003l-.098-.011h-.003l-2.366-.2h-.003a4.864 4.864 0 0 0-.205-.011h-.003c-.654-.017-.808-.031-.826-.039-.009-.004-.27-.194-.379-.275l4.175-1.998a.73.73 0 0 0 .245-.2c.459-.23.931-.456 1.388-.927.614-.634 1.294-1.741 1.191-3.172-.105-1.462-1.004-2.539-1.829-3.094-.588-.396-1.125-.508-1.647-.63a.728.728 0 0 0-.295-.145c-.006-.002-.013-.002-.02-.003-4.463-.979-9.468-2.091-13.659-3.004l-.008-.003-.011-.003c-1.6-.398-2.308-.365-3.389-1.239l-14.086-11.397-.003-.003c-1.867-1.526-4.259-2.237-6.648-2.178l-34.787.871h-.017a.738.738 0 0 0-.18.031c-.899-.002-1.845-.034-2.998.329-1.301.41-2.378 1.253-3.24 2.167l-5.493 5.825-3.08-.877.191-2.768v-.006-.005l.006-.045v-.02a.764.764 0 0 0-.011-.185c.042-.63.058-1.251-.04-1.891-.088-.581-.192-1.697-1.374-2.807-.708-.666-1.829-1.158-3.029-1.043zm47.412 63.6l.104.112a.09.09 0 0 0-.009-.005l-.095-.107z"/><path fill="#FAECEC" d="M101.318 116.684l-4.526 11.178c-.757 2.127-.389 3.082 1.343 3.082l3.714-.12.911-13.245c.176-1.991-.494-3.081-1.442-.895m54.718-.763l-34.803.871c-1.915 0-2.618.049-3.893 1.401l-5.797 6.147c-.809.998-1.376 1.241-2.547.881l-3.997-1.138-1.133 14.094 11.444 36.388c.279 1.111.919 1.729 2.222 1.729h2.577c.86.026 1.507-.521 1.582-1.652l.878-12.69 25.365.087c.493 0 .902.316 1.048.773l3.649 11.399c.481 1.53 1.323 2.083 2.763 2.083h5.403c1.073 0 1.968-.662 1.728-2.354l-2.699-22.601a1.107 1.107 0 0 1 .202-.784l15.28-21.139-14.987-12.127c-1.41-1.153-2.331-1.417-4.285-1.368m20.366 15.774l-12.609 17.447 29.37-14.064c1.077-.459 1.087-1.196-.164-1.41l-13.776-3.032c-1.152-.286-1.965-.105-2.821 1.059m9.165 9.483l-3.97 1.903a3.074 3.074 0 0 1 1.026 2.284 3.074 3.074 0 0 1-6.143.166l-14.291 6.842 1.332 11.167 17.933-1.624c1.976-.248 2.994-.588 4.554-1.854l3.706-3.006c1.13-1.002 1.547-1.59 2.083-2.809l3.428-7.799c.388-1.04-.066-1.889-1.206-2.018l-2.365-.2c-1.693-.045-2.4-.414-3.648-1.307l-2.439-1.745zm-82.125 3.057l1.247 26.649c.013 1.93 1.154 2.718 2.698 2.718h5.291l-9.236-29.367zm33.865 19.934l.352 7.336c.059 1.522.515 2.038 2.191 2.097h3.85c1.538-.013 1.844-.287 2.281-1.429l2.119-4.829-.989-3.091-9.804-.084z"/><g opacity=".3" enable-background="new"><defs><path id="N" d="M76.833 76.832h138.111v47.562H76.833z"/></defs><clipPath id="O"><use xlink:href="#N" overflow="visible"/></clipPath><path clip-path="url(#O)" d="M170.197 76.831H121.58c-39.155 0-44.747 5.599-44.747 44.793v2.769c0-39.193 5.604-44.8 44.756-44.8h48.599c39.155 0 44.756 5.607 44.756 44.8v-2.769c.001-39.194-5.592-44.793-44.747-44.793"/></g><defs><path id="P" d="M493.619 86.686h189.179v189.178H493.619z"/></defs><clipPath id="Q"><use xlink:href="#P" overflow="visible"/></clipPath><path clip-path="url(#Q)" fill="#FFF" d="M677.349 161.466v-11.511c0-50.593-7.22-57.821-57.764-57.821h-11.568a4.952 4.952 0 0 0-4.952-4.952h-29.714a4.952 4.952 0 0 0-4.952 4.952h-11.573c-50.543 0-57.76 7.229-57.76 57.821v11.511a4.952 4.952 0 0 0-4.952 4.952v29.714a4.952 4.952 0 0 0 4.952 4.953v11.511c0 50.591 7.217 57.821 57.76 57.821h11.573a4.952 4.952 0 0 0 4.952 4.952h29.714a4.952 4.952 0 0 0 4.952-4.952h11.568c50.544 0 57.764-7.23 57.764-57.821v-11.511a4.952 4.952 0 0 0 4.953-4.953v-29.714a4.952 4.952 0 0 0-4.953-4.952"/><path clip-path="url(#Q)" fill="none" stroke="#D4D4D4" stroke-width=".991" stroke-miterlimit="10" d="M677.349 161.466v-11.511c0-50.593-7.22-57.821-57.764-57.821h-11.568a4.952 4.952 0 0 0-4.952-4.952h-29.714a4.952 4.952 0 0 0-4.952 4.952h-11.573c-50.543 0-57.76 7.229-57.76 57.821v11.511a4.952 4.952 0 0 0-4.952 4.952v29.714a4.952 4.952 0 0 0 4.952 4.953v11.511c0 50.591 7.217 57.821 57.76 57.821h11.573a4.952 4.952 0 0 0 4.952 4.952h29.714a4.952 4.952 0 0 0 4.952-4.952h11.568c50.544 0 57.764-7.23 57.764-57.821v-11.511a4.952 4.952 0 0 0 4.953-4.953v-29.714a4.952 4.952 0 0 0-4.953-4.952z"/></g><g><defs><path id="R" d="M572.089 136.274c-25.271 0-28.881 3.614-28.881 28.911v31.321c0 25.296 3.61 28.911 28.881 28.911h31.38c25.271 0 28.882-3.614 28.882-28.911v-31.321c0-25.297-3.61-28.911-28.882-28.911h-31.38z"/></defs><clipPath id="S"><use xlink:href="#R" overflow="visible"/></clipPath><linearGradient id="T" gradientUnits="userSpaceOnUse" x1="-36.716" y1="467.692" x2="-35.716" y2="467.692" gradientTransform="rotate(-90 -22075.478 19028.03) scale(89.1424)"><stop offset="0" stop-color="#69be28"/><stop offset="1" stop-color="#83d445"/></linearGradient><path clip-path="url(#S)" fill="url(#T)" d="M543.208 136.274h89.143v89.143h-89.143z"/></g><g><defs><path id="U" d="M572.089 136.274c-25.271 0-28.881 3.614-28.881 28.911v31.321c0 25.296 3.61 28.911 28.881 28.911h31.38c25.271 0 28.882-3.614 28.882-28.911v-31.321c0-25.297-3.61-28.911-28.882-28.911h-31.38z"/></defs><clipPath id="V"><use xlink:href="#U" overflow="visible"/></clipPath><g opacity=".134" clip-path="url(#V)"><defs><path id="W" d="M520.181 69.202h153.511v199.249H520.181z"/></defs><clipPath id="X"><use xlink:href="#W" overflow="visible"/></clipPath><g clip-path="url(#X)"><defs><path id="Y" d="M537.122 148.149l136.014 25.643-65.972 94.659-78.226-46.999-8.757-52.014z"/></defs><clipPath id="aa"><use xlink:href="#Y" overflow="visible"/></clipPath><defs><filter id="Z" filterUnits="userSpaceOnUse" x="499.259" y="121.548" width="194.8" height="173.504"><feColorMatrix values="1 0 0 0 0 0 1 0 0 0 0 0 1 0 0 0 0 0 1 0"/></filter></defs><mask maskUnits="userSpaceOnUse" x="499.259" y="121.548" width="194.8" height="173.504" id="ac"><g filter="url(#Z)"><linearGradient id="ab" gradientUnits="userSpaceOnUse" x1="-36.715" y1="467.586" x2="-35.715" y2="467.586" gradientTransform="rotate(100.177 11037.145 15523.157) scale(60.9627)"><stop offset="0" stop-color="#fff"/><stop offset="1"/></linearGradient><path clip-path="url(#aa)" fill="url(#ab)" d="M524.957 121.548l-25.698 143.147 169.102 30.358 25.698-143.148z"/></g></mask><linearGradient id="ad" gradientUnits="userSpaceOnUse" x1="-36.715" y1="467.588" x2="-35.715" y2="467.588" gradientTransform="rotate(100.177 11037.145 15523.157) scale(60.9627)"><stop offset="0" stop-color="#4d9a35"/><stop offset="1" stop-color="#4d9a35"/></linearGradient><path clip-path="url(#aa)" mask="url(#ac)" fill="url(#ad)" d="M524.957 121.548l-25.698 143.147 169.102 30.358 25.698-143.148z"/></g><g clip-path="url(#X)"><defs><path id="ae" d="M537.122 148.149l136.014 25.643.556-60.749-99.32-43.841z"/></defs><clipPath id="ag"><use xlink:href="#ae" overflow="visible"/></clipPath><defs><filter id="af" filterUnits="userSpaceOnUse" x="518.824" y="45.309" width="173.166" height="152.376"><feColorMatrix values="1 0 0 0 0 0 1 0 0 0 0 0 1 0 0 0 0 0 1 0"/></filter></defs><mask maskUnits="userSpaceOnUse" x="518.824" y="45.309" width="173.166" height="152.376" id="ai"><g filter="url(#af)"><linearGradient id="ah" gradientUnits="userSpaceOnUse" x1="-36.715" y1="467.535" x2="-35.715" y2="467.535" gradientTransform="rotate(-79.759 -12234.098 8693.154) scale(42.3588)"><stop offset="0" stop-color="#fff"/><stop offset="1"/></linearGradient><path clip-path="url(#ag)" fill="url(#ah)" d="M669.375 197.686L691.99 72.508 541.438 45.309l-22.614 125.177z"/></g></mask><linearGradient id="aj" gradientUnits="userSpaceOnUse" x1="-36.715" y1="467.535" x2="-35.715" y2="467.535" gradientTransform="rotate(-79.759 -12234.097 8693.154) scale(42.3588)"><stop offset="0" stop-color="#c7df6e"/><stop offset="1" stop-color="#c7df6e"/></linearGradient><path clip-path="url(#ag)" mask="url(#ai)" fill="url(#aj)" d="M669.375 197.686L691.99 72.508 541.438 45.309l-22.614 125.177z"/></g></g><g opacity=".138" clip-path="url(#V)"><defs><path id="ak" d="M469.538 82.835h194.631V259.71H469.538z"/></defs><clipPath id="al"><use xlink:href="#ak" overflow="visible"/></clipPath><g clip-path="url(#al)"><defs><path id="am" d="M525.583 221.537l80.325-112.72 58.26 99.591-75.474 51.302-50.891-13.866z"/></defs><clipPath id="ao"><use xlink:href="#am" overflow="visible"/></clipPath><defs><filter id="an" filterUnits="userSpaceOnUse" x="454.708" y="43.724" width="280.334" height="281.08"><feColorMatrix values="1 0 0 0 0 0 1 0 0 0 0 0 1 0 0 0 0 0 1 0"/></filter></defs><mask maskUnits="userSpaceOnUse" x="454.708" y="43.724" width="280.334" height="281.08" id="aq"><g filter="url(#an)"><linearGradient id="ap" gradientUnits="userSpaceOnUse" x1="-36.715" y1="467.57" x2="-35.715" y2="467.57" gradientTransform="scale(60.9627) rotate(34.975 724.039 308.19)"><stop offset="0" stop-color="#fff"/><stop offset="1"/></linearGradient><path clip-path="url(#ao)" fill="url(#ap)" d="M454.708 210.131l163.925 114.673 116.409-166.407L571.119 43.724z"/></g></mask><linearGradient id="ar" gradientUnits="userSpaceOnUse" x1="-36.715" y1="467.57" x2="-35.715" y2="467.57" gradientTransform="scale(60.9627) rotate(34.975 724.039 308.19)"><stop offset="0" stop-color="#4d9a35"/><stop offset="1" stop-color="#4d9a35"/></linearGradient><path clip-path="url(#ao)" mask="url(#aq)" fill="url(#ar)" d="M454.708 210.131l163.925 114.673 116.409-166.407L571.119 43.724z"/></g><g clip-path="url(#al)"><defs><path id="as" d="M525.583 221.537l80.325-112.72-54.915-25.982-81.455 71.775z"/></defs><clipPath id="au"><use xlink:href="#as" overflow="visible"/></clipPath><defs><filter id="at" filterUnits="userSpaceOnUse" x="404.337" y="18.731" width="266.771" height="266.91"><feColorMatrix values="1 0 0 0 0 0 1 0 0 0 0 0 1 0 0 0 0 0 1 0"/></filter></defs><mask maskUnits="userSpaceOnUse" x="404.337" y="18.731" width="266.771" height="266.91" id="aw"><g filter="url(#at)"><linearGradient id="av" gradientUnits="userSpaceOnUse" x1="-36.715" y1="467.565" x2="-35.715" y2="467.565" gradientTransform="scale(-42.3588) rotate(35.038 721.945 268.896)"><stop offset="0" stop-color="#fff"/><stop offset="1"/></linearGradient><path clip-path="url(#au)" fill="url(#av)" d="M671.108 128.554L514.488 18.731 404.337 175.819l156.621 109.823z"/></g></mask><linearGradient id="ax" gradientUnits="userSpaceOnUse" x1="-36.715" y1="467.565" x2="-35.715" y2="467.565" gradientTransform="scale(-42.3588) rotate(35.038 721.945 268.896)"><stop offset="0" stop-color="#c7df6e"/><stop offset="1" stop-color="#c7df6e"/></linearGradient><path clip-path="url(#au)" mask="url(#aw)" fill="url(#ax)" d="M671.108 128.554L514.488 18.731 404.337 175.819l156.621 109.823z"/></g></g></g><g><path fill="#5AA223" d="M586.483 156.231a.44.44 0 0 0-.16.033c-.389-.01-.802.01-1.275.19-.875.332-1.351 1.026-1.651 1.616a2.324 2.324 0 0 0-.317.6l-.006.018-1.093 3.225-14.976 3.435a.468.468 0 0 0-.187.092c-.383.086-.795.171-1.223.463-.526.359-.817.776-.997 1.025l-5.888 8.152.017-.02c-.636.785-.975 1.66-1.16 2.357l-3.425 12.79.055.002c-.542 0-1.533.138-2.224.992-.524.649-.583 1.267-.583 1.599a2.212 2.212 0 0 0-.014.234v.947c0 .422.061 1.38.876 2.117.793.716 1.66.694 1.972.694h2.529l-.337 4.783-.004.031h.002l-.002.016a.458.458 0 0 0 .016.152c-.08.802-.054 1.841.788 2.713.931.964 2.048.958 2.643.958h3.252c.718 0 1.686-.143 2.474-.84.774-.685 1.018-1.545 1.143-2.151l.004-.021.002-.017.656-3.4 1.28 3.826.001.006a.508.508 0 0 0 .077.136c.232.673.638 1.412 1.385 1.891.809.518 1.627.57 2.225.57h3.85c.764 0 1.81-.307 2.469-1.183.629-.833.682-1.75.625-2.462l-.687-8.727 3.676-.993.021-.005h.003l.028-.007.758-.216-.64 9.851a.45.45 0 0 0 .012.127c-.046.644-.054 1.633.741 2.534.857.971 2.004 1.081 2.789 1.081h2.574c.757 0 1.903-.238 2.635-1.13.668-.814.735-1.56.836-2.084l.687-3.56 2.21 4.073c.331.651.746 1.419 1.593 1.999.861.59 1.833.702 2.651.702h3.169c.39 0 .868-.042 1.392-.267a2.887 2.887 0 0 0 1.415-1.322c.554-1.099.287-2.01.141-2.559l-.003-.007c0-.003 0-.006-.002-.009l-4.509-16.546 1.493.055-.013-.002.028.002.029.002 1.897.03c.321.006.707-.007 1.165-.137.171-.049.26-.179.396-.267l.468 5.706.003.012c.059.668.158 1.359.551 2.064.352.634.863.988 1.291 1.266a.47.47 0 0 0 .165.178l.015.009.003.002.026.014 3.272 2.012a.091.091 0 0 1 .014.007c1.074.618 1.947.812 3.049.956a.42.42 0 0 0 .036.001l3.834.193c.064.004.123.004.176.003h.001c.305-.007.743-.013 1.278-.181.445-.14.797-.426 1.128-.702a.467.467 0 0 0 .223-.109l1.65-1.492a.008.008 0 0 1 .004-.004l.079-.078c.354-.354.721-.847 1.026-1.921a4.22 4.22 0 0 0 .072-1.98l-.798-4.998a3.056 3.056 0 0 0-.688-1.551c-.468-.565-1.283-1.05-2.225-1.048l-1.761.003c-.039 0-.077 0-.116.002h-.004c-.41.022-1.162.11-1.841.729-.181.165-.241.368-.359.557l.209-6.942v-.024l.041-1.828v-.022c.012-.876-.21-1.504-.529-2.136l-.002-.002c-.018-.035-.037-.068-.056-.102v-.002l-5.439-9.525v-.002l-.011-.021c-.526-.906-1.563-1.591-2.572-1.825a1.269 1.269 0 0 0-.103-.023l-.007-.002-9.232-1.665h-.002c-.142-.026-.286-.01-.429-.009-.191-.346-.373-.74-.827-1.056-.693-.482-1.336-.597-1.836-.705h-.002l-7.921-1.723c-.32-.08-.683-.187-1.112-.221h-.002c-.014-.002-.029-.002-.044-.002zm.674 4.867l7.422 1.616.021.003 7.338 17.415-6.359-.229-11.752-8.975 3.33-9.83zm14.891 4.179l1.046.189c-.122.334-.283.648-.283 1.037 0 .4.105.773.231 1.134l-.994-2.36zm-22.988 2.071l-1.295 3.824a2.94 2.94 0 0 0 .992 3.27l.002.002.003.002 13.998 10.689c.482.37 1.068.58 1.676.603h.016l1.819.065 4.086 15h-1.184c-.03-.054-.044-.065-.088-.152l-.004-.007-.026-.055-.002-.002-5.334-9.833a2.512 2.512 0 0 0-.215-.316l-1.884-3.456-.002-.002c-.008-.014-.018-.026-.024-.04l-.003-.002a2.938 2.938 0 0 0-2.63-1.485h-.002c-.205.005-.4.046-.595.092h-.003a.516.516 0 0 0-.124.018l-7.153 2.035-4.364 1.177-.059.015-.011.003c-.731.222-1.665.637-2.247 1.585-.541.882-.517 1.745-.464 2.364-.004.03-.006.061-.004.092l.002.024.002.012.624 7.933h-1.682l-6.343-18.968a2.924 2.924 0 0 0-.65-1.087l-1.579-1.674a2.934 2.934 0 0 0-2.056-.91c.028-.035.006-.086.08-.178.026-.033.054-.069.078-.103l.002-.002 5.814-8.049 10.833-2.484zm24.171.735c.593 1.154 1.766 1.977 3.136 1.977.832 0 1.54-.365 2.138-.853l3.419 5.989.033.139.007.024-.035 1.636-.398 13.207-.64-.394c-.003-.034-.004-.032-.01-.082l-.003-.018-.868-10.566v-.001l-.002-.022v-.004c-.13-1.358-.99-2.688-2.302-3.236a.522.522 0 0 0-.042-.016h-.002l-1.395-.575-3.036-7.205zm-40.55 20.723l1.238 3.705-1.602 8.292h-1.195l.66-9.358c.288-.838.579-1.693.899-2.639m47.961 1.382l-.006.011-.008-.006a.078.078 0 0 1 .014-.005zm-22.906 1.937l1.128 2.071-1.269 6.607h-.424l.565-8.678z"/><path fill="#F2FAEB" d="M585.271 159.431l-3.941 11.637c-.246.573.082.929.486 1.245l12.424 9.486c.405.335.676.403 1.204.422l6.922.25 1.897.031c.792.013 1.043-.259.703-1.105l-.354-.892-7.968-18.906c-.376-.832-.62-.946-1.573-1.154l-7.979-1.736c-1.147-.286-1.501-.181-1.821.722zm12.976 2.802l6.252 14.837 2.312.953c.495.207.824.664.886 1.311l.873 10.6c.096 1.084.313 1.38.91 1.733l3.317 2.036c.479.297.967.433.963-.362l.488-16.284.041-1.833c.004-.292-.111-.722-.281-1.06l-5.444-9.535c-.222-.382-.521-.6-1.086-.731l-9.231-1.665zm-15.657 1.923l-15.068 3.456c-.581.099-.722.232-1.043.675l-5.947 8.236c-.425.523-.569.916-.725 1.495l-3.56 13.307 1.818.021c.396-1.152.826-2.417 1.288-3.786 1.131-3.346 2.237-6.666 2.237-6.666a.616.616 0 0 1 1.03-.227l1.582 1.676a.626.626 0 0 1 .136.227l6.534 19.544c.229.804.644 1.01 1.484 1.01h3.85c.535 0 .846-.307.78-1.14l-.736-9.333c-.089-.942.082-1.335 1.074-1.635l4.381-1.18 7.168-2.04a.618.618 0 0 1 .708.297l2.085 3.826.011-.058 5.334 9.833c.568 1.119.937 1.43 2.175 1.43h3.169c.799 0 .923-.416.704-1.232l-4.998-18.346-3.542-.128a.617.617 0 0 1-.35-.126l-13.999-10.69a.614.614 0 0 1-.209-.685l2.629-7.761zm23.777 1.113a1.234 1.234 0 1 1-1.235 1.235 1.234 1.234 0 0 1 1.235-1.235m-43.937 16.987c-.256.768-.944 2.837-1.911 5.698a722.103 722.103 0 0 1-1.031 3.027l-.76 10.804c-.16 1.124.207 1.339 1.132 1.339h3.251c.878 0 1.17-.306 1.342-1.139l1.861-9.631-3.098-9.267-.786-.831zm58.014 2.844l-1.763.002c-.359.02-.53.149-.515.497l.302 4.302 3.394.857-.805-5.041c-.04-.265-.231-.619-.613-.617zm-31.706 4.013l-3.19.907-.769 11.836c-.076.909.136 1.268 1.223 1.268h2.575c.846 0 .995-.304 1.191-1.329l1.533-7.978-2.563-4.704zm26.248.939l-.191 4.277 3.839.192c.533-.014.794-.057 1.127-.392l1.65-1.494c.38-.379.434-.672-.03-.828l-6.395-1.755zm-61.288 2.988v.942c0 .397.12.49.525.49h2.731a.66.66 0 0 1 .074-.195c.009-.019.021-.051.04-.098.038-.1.095-.251.163-.44.104-.286.259-.729.412-1.169l-3.446-.038c-.448 0-.499.173-.499.508z"/><g opacity=".3" enable-background="new"><defs><path id="ay" d="M543.208 136.274h89.142v30.698h-89.142z"/></defs><clipPath id="az"><use xlink:href="#ay" overflow="visible"/></clipPath><path clip-path="url(#az)" d="M603.468 136.274h-31.379c-25.271 0-28.881 3.614-28.881 28.911v1.787c0-25.297 3.616-28.915 28.887-28.915h31.367c25.271 0 28.887 3.618 28.887 28.915v-1.787c.001-25.296-3.609-28.911-28.881-28.911"/></g><defs><path id="aA" d="M316.464 318.774h148.919v148.919H316.464z"/></defs><clipPath id="aB"><use xlink:href="#aA" overflow="visible"/></clipPath><path clip-path="url(#aB)" fill="#FFF" d="M461.095 377.641v-9.062c0-39.826-5.685-45.516-45.471-45.516h-9.107a3.896 3.896 0 0 0-3.898-3.898H379.23a3.897 3.897 0 0 0-3.898 3.898h-9.11c-39.787 0-45.467 5.689-45.467 45.516v9.062a3.897 3.897 0 0 0-3.898 3.898v23.391a3.897 3.897 0 0 0 3.898 3.897v9.062c0 39.825 5.68 45.517 45.467 45.517h9.11a3.898 3.898 0 0 0 3.898 3.898H402.619a3.897 3.897 0 0 0 3.898-3.898h9.107c39.786 0 45.471-5.691 45.471-45.517v-9.062a3.897 3.897 0 0 0 3.898-3.897v-23.391a3.896 3.896 0 0 0-3.898-3.898"/><path clip-path="url(#aB)" fill="none" stroke="#D4D4D4" stroke-width=".78" stroke-miterlimit="10" d="M461.095 377.641v-9.062c0-39.826-5.685-45.516-45.471-45.516h-9.107a3.896 3.896 0 0 0-3.898-3.898H379.23a3.897 3.897 0 0 0-3.898 3.898h-9.11c-39.787 0-45.467 5.689-45.467 45.516v9.062a3.897 3.897 0 0 0-3.898 3.898v23.391a3.897 3.897 0 0 0 3.898 3.897v9.062c0 39.825 5.68 45.517 45.467 45.517h9.11a3.898 3.898 0 0 0 3.898 3.898H402.619a3.897 3.897 0 0 0 3.898-3.898h9.107c39.786 0 45.471-5.691 45.471-45.517v-9.062a3.897 3.897 0 0 0 3.898-3.897v-23.391a3.896 3.896 0 0 0-3.898-3.898z"/></g><g><defs><path id="aC" d="M378.236 357.811c-19.894 0-22.735 2.845-22.735 22.759v24.654c0 19.913 2.842 22.758 22.735 22.758h24.702c19.893 0 22.734-2.845 22.734-22.758V380.57c0-19.914-2.842-22.759-22.734-22.759h-24.702z"/></defs><clipPath id="aD"><use xlink:href="#aC" overflow="visible"/></clipPath><linearGradient id="aE" gradientUnits="userSpaceOnUse" x1="-36.715" y1="467.693" x2="-35.715" y2="467.693" gradientTransform="rotate(-90 -17288.286 15139.917) scale(70.1716)"><stop offset="0" stop-color="#69be28"/><stop offset="1" stop-color="#83d445"/></linearGradient><path clip-path="url(#aD)" fill="url(#aE)" d="M355.5 357.811h70.172v70.171H355.5z"/></g><g><defs><path id="aF" d="M378.236 357.811c-19.894 0-22.735 2.844-22.735 22.759v24.654c0 19.913 2.842 22.758 22.735 22.758h24.702c19.893 0 22.734-2.845 22.734-22.758V380.57c0-19.915-2.842-22.759-22.734-22.759h-24.702z"/></defs><clipPath id="aG"><use xlink:href="#aF" overflow="visible"/></clipPath><g opacity=".134" clip-path="url(#aG)"><defs><path id="aH" d="M337.375 305.012h120.841v156.846H337.375z"/></defs><clipPath id="aI"><use xlink:href="#aH" overflow="visible"/></clipPath><g clip-path="url(#aI)"><defs><path id="aJ" d="M350.709 367.158l107.07 20.186-51.934 74.513-61.578-36.996-6.892-40.946z"/></defs><clipPath id="aL"><use xlink:href="#aJ" overflow="visible"/></clipPath><defs><filter id="aK" filterUnits="userSpaceOnUse" x="320.905" y="346.219" width="153.342" height="136.578"><feColorMatrix values="1 0 0 0 0 0 1 0 0 0 0 0 1 0 0 0 0 0 1 0"/></filter></defs><mask maskUnits="userSpaceOnUse" x="320.905" y="346.219" width="153.342" height="136.578" id="aN"><g filter="url(#aK)"><linearGradient id="aM" gradientUnits="userSpaceOnUse" x1="-36.715" y1="467.587" x2="-35.715" y2="467.587" gradientTransform="scale(-47.989) rotate(-79.823 -306.785 212.934)"><stop offset="0" stop-color="#fff"/><stop offset="1"/></linearGradient><path clip-path="url(#aL)" fill="url(#aM)" d="M341.133 346.219L320.905 458.9l133.114 23.897 20.229-112.682z"/></g></mask><linearGradient id="aO" gradientUnits="userSpaceOnUse" x1="-36.715" y1="467.588" x2="-35.715" y2="467.588" gradientTransform="scale(-47.989) rotate(-79.823 -306.784 212.934)"><stop offset="0" stop-color="#4d9a35"/><stop offset="1" stop-color="#4d9a35"/></linearGradient><path clip-path="url(#aL)" mask="url(#aN)" fill="url(#aO)" d="M341.133 346.219L320.905 458.9l133.114 23.897 20.229-112.682z"/></g><g clip-path="url(#aI)"><defs><path id="aP" d="M350.709 367.158l107.07 20.186.436-47.821-78.183-34.511z"/></defs><clipPath id="aR"><use xlink:href="#aP" overflow="visible"/></clipPath><defs><filter id="aQ" filterUnits="userSpaceOnUse" x="336.305" y="286.203" width="136.314" height="119.949"><feColorMatrix values="1 0 0 0 0 0 1 0 0 0 0 0 1 0 0 0 0 0 1 0"/></filter></defs><mask maskUnits="userSpaceOnUse" x="336.305" y="286.203" width="136.314" height="119.949" id="aT"><g filter="url(#aQ)"><linearGradient id="aS" gradientUnits="userSpaceOnUse" x1="-36.715" y1="467.534" x2="-35.715" y2="467.534" gradientTransform="rotate(-79.759 -9516.63 7011.529) scale(33.3443)"><stop offset="0" stop-color="#fff"/><stop offset="1"/></linearGradient><path clip-path="url(#aR)" fill="url(#aS)" d="M454.818 406.152l17.802-98.539-118.512-21.41-17.803 98.538z"/></g></mask><linearGradient id="aU" gradientUnits="userSpaceOnUse" x1="-36.715" y1="467.534" x2="-35.715" y2="467.534" gradientTransform="rotate(-79.759 -9516.63 7011.529) scale(33.3443)"><stop offset="0" stop-color="#c7df6e"/><stop offset="1" stop-color="#c7df6e"/></linearGradient><path clip-path="url(#aR)" mask="url(#aT)" fill="url(#aU)" d="M454.818 406.152l17.802-98.539-118.512-21.41-17.803 98.538z"/></g></g><g opacity=".138" clip-path="url(#aG)"><defs><path id="aV" d="M297.509 315.743h153.209v139.234H297.509z"/></defs><clipPath id="aW"><use xlink:href="#aV" overflow="visible"/></clipPath><g clip-path="url(#aW)"><defs><path id="aX" d="M341.626 424.928l63.231-88.732 45.861 78.398-59.411 40.384-40.06-10.916z"/></defs><clipPath id="aZ"><use xlink:href="#aX" overflow="visible"/></clipPath><defs><filter id="aY" filterUnits="userSpaceOnUse" x="285.836" y="284.956" width="220.673" height="221.262"><feColorMatrix values="1 0 0 0 0 0 1 0 0 0 0 0 1 0 0 0 0 0 1 0"/></filter></defs><mask maskUnits="userSpaceOnUse" x="285.836" y="284.956" width="220.673" height="221.262" id="bb"><g filter="url(#aY)"><linearGradient id="ba" gradientUnits="userSpaceOnUse" x1="-36.715" y1="467.57" x2="-35.715" y2="467.57" gradientTransform="scale(47.989) rotate(34.975 715 308.416)"><stop offset="0" stop-color="#fff"/><stop offset="1"/></linearGradient><path clip-path="url(#aZ)" fill="url(#ba)" d="M285.836 415.949l129.038 90.269 91.635-130.993-129.038-90.269z"/></g></mask><linearGradient id="bc" gradientUnits="userSpaceOnUse" x1="-36.715" y1="467.57" x2="-35.715" y2="467.57" gradientTransform="scale(47.989) rotate(34.975 715 308.416)"><stop offset="0" stop-color="#4d9a35"/><stop offset="1" stop-color="#4d9a35"/></linearGradient><path clip-path="url(#aZ)" mask="url(#bb)" fill="url(#bc)" d="M285.836 415.949l129.038 90.269 91.635-130.993-129.038-90.269z"/></g><g clip-path="url(#aW)"><defs><path id="bd" d="M341.626 424.928l63.231-88.732-43.229-20.453-64.119 56.501z"/></defs><clipPath id="bf"><use xlink:href="#bd" overflow="visible"/></clipPath><defs><filter id="be" filterUnits="userSpaceOnUse" x="246.184" y="265.282" width="209.997" height="210.106"><feColorMatrix values="1 0 0 0 0 0 1 0 0 0 0 0 1 0 0 0 0 0 1 0"/></filter></defs><mask maskUnits="userSpaceOnUse" x="246.184" y="265.282" width="209.997" height="210.106" id="bh"><g filter="url(#be)"><linearGradient id="bg" gradientUnits="userSpaceOnUse" x1="-36.715" y1="467.565" x2="-35.715" y2="467.565" gradientTransform="rotate(-144.962 -2826.822 7735.595) scale(33.3443)"><stop offset="0" stop-color="#fff"/><stop offset="1"/></linearGradient><path clip-path="url(#bf)" fill="url(#bg)" d="M456.181 351.732l-123.289-86.45-86.708 123.656 123.289 86.451z"/></g></mask><linearGradient id="bi" gradientUnits="userSpaceOnUse" x1="-36.715" y1="467.565" x2="-35.715" y2="467.565" gradientTransform="rotate(-144.962 -2826.821 7735.596) scale(33.3443)"><stop offset="0" stop-color="#c7df6e"/><stop offset="1" stop-color="#c7df6e"/></linearGradient><path clip-path="url(#bf)" mask="url(#bh)" fill="url(#bi)" d="M456.181 351.732l-123.289-86.45-86.708 123.656 123.289 86.451z"/></g></g></g><g><path fill="#5AA223" d="M389.565 373.52a.382.382 0 0 0-.125.026 2.525 2.525 0 0 0-1.004.149c-.688.263-1.063.809-1.3 1.272a1.81 1.81 0 0 0-.246.461l-.004.012-.005.014-.86 2.538-11.788 2.704a.383.383 0 0 0-.147.073c-.301.067-.625.134-.962.364-.414.283-.644.61-.785.807l-4.634 6.417.013-.016c-.501.618-.767 1.307-.914 1.855l-2.695 10.068.042.001c-.426 0-1.207.109-1.75.781a1.962 1.962 0 0 0-.459 1.26 1.56 1.56 0 0 0-.01.184v.745c0 .332.047 1.086.689 1.666.624.564 1.307.547 1.552.547h1.992l-.267 3.765-.003.024h.002l-.002.014c-.003.04.001.08.013.118-.063.633-.042 1.449.621 2.137.731.759 1.61.754 2.079.754h2.56c.564 0 1.328-.113 1.948-.661.608-.539.801-1.217.898-1.693l.003-.017.001-.013.518-2.678 1.008 3.013.002.005a.338.338 0 0 0 .06.106c.184.53.501 1.112 1.091 1.489.636.407 1.28.448 1.751.448h3.03c.601 0 1.423-.242 1.943-.932.494-.655.536-1.378.492-1.938l-.541-6.87 2.894-.781.017-.005h.002a.108.108 0 0 0 .021-.005l.597-.17-.503 7.755a.318.318 0 0 0 .01.101c-.036.507-.042 1.284.584 1.993.674.766 1.577.852 2.194.852h2.026c.596 0 1.498-.188 2.074-.89.525-.641.579-1.228.659-1.641l.539-2.802 1.74 3.206c.26.512.586 1.117 1.253 1.574.679.464 1.443.552 2.087.552h2.494c.309 0 .685-.033 1.098-.21a2.272 2.272 0 0 0 1.112-1.041c.436-.865.227-1.582.11-2.015l-.001-.006-.002-.007-3.549-13.023 1.175.043-.01-.002.022.002.023.001 1.493.023c.254.005.556-.005.917-.107.135-.039.204-.142.312-.21l.369 4.49.001.011c.047.525.126 1.069.434 1.625.278.499.681.776 1.018.995a.36.36 0 0 0 .13.141l.011.008.003.001.021.011 2.577 1.584a.031.031 0 0 0 .01.005c.846.487 1.533.64 2.399.754l.028.001 3.019.151c.051.003.097.003.139.002h.001c.239-.005.584-.01 1.005-.142.353-.111.628-.336.888-.553a.386.386 0 0 0 .177-.086l1.299-1.175.003-.003.062-.062c.278-.279.567-.666.809-1.513.115-.408.177-.952.057-1.559l-.628-3.934a2.431 2.431 0 0 0-.541-1.222 2.326 2.326 0 0 0-1.752-.824l-1.386.003-.092.001h-.004c-.322.017-.914.087-1.448.573-.143.131-.19.29-.282.439l.164-5.465v-.02l.033-1.438v-.018c.008-.689-.166-1.184-.417-1.682l-.002-.002-.044-.08v-.001l-4.282-7.498v-.001a.142.142 0 0 0-.008-.018c-.414-.713-1.231-1.252-2.025-1.437a1.176 1.176 0 0 0-.081-.018l-.006-.002-7.266-1.311h-.003c-.111-.02-.225-.009-.338-.008-.149-.271-.294-.582-.65-.83-.545-.38-1.052-.47-1.445-.556h-.001l-6.236-1.356c-.252-.062-.537-.146-.875-.174h-.002c-.014.008-.025.007-.038.007zm.532 3.831l5.842 1.272.016.003 5.775 13.708-5.005-.181-9.251-7.064 2.623-7.738zm11.723 3.291l.821.148c-.096.263-.222.51-.222.816 0 .315.084.608.182.893l-.781-1.857zm-18.098 1.629l-1.019 3.01a2.315 2.315 0 0 0 .78 2.574l.002.002.003.001 11.019 8.415c.38.291.841.456 1.319.474h.013l1.432.052 3.217 11.808h-.932c-.024-.042-.035-.051-.069-.12l-.004-.005c-.008-.017-.015-.033-.021-.043l-.001-.002-4.199-7.74a1.732 1.732 0 0 0-.169-.249l-1.482-2.721-.002-.001-.02-.032-.002-.001a2.314 2.314 0 0 0-2.07-1.169h-.001a2.226 2.226 0 0 0-.472.073.361.361 0 0 0-.097.014l-5.631 1.603-3.437.926-.045.012-.009.002c-.575.175-1.312.502-1.77 1.248-.426.694-.407 1.373-.365 1.86a.446.446 0 0 0-.003.073l.001.019.002.01.491 6.244h-1.322l-4.993-14.931a2.315 2.315 0 0 0-.513-.856l-1.243-1.316a2.308 2.308 0 0 0-1.617-.718c.021-.027.004-.067.062-.14l.062-.081.001-.002 4.577-6.336 8.527-1.957zm19.028.579c.466.909 1.389 1.556 2.468 1.556.655 0 1.212-.287 1.684-.671l2.69 4.714c.006.026.013.061.026.11l.006.019-.029 1.288-.312 10.396-.504-.311c-.003-.026-.005-.024-.008-.063l-.003-.015-.684-8.317v-.001l-.002-.019v-.002c-.102-1.069-.779-2.115-1.812-2.547-.011-.005-.021-.01-.032-.013h-.002l-1.098-.453-2.388-5.671zm-31.92 16.311l.975 2.917-1.26 6.527h-.941l.52-7.366c.224-.659.454-1.332.706-2.078m37.753 1.089l-.004.009-.006-.004.01-.005zm-18.031 1.524l.888 1.63-.999 5.201h-.333l.444-6.831z"/><path fill="#F2FAEB" d="M388.613 376.038l-3.104 9.161c-.192.451.065.73.385.979l9.778 7.467c.32.265.532.318.947.333l5.45.196 1.494.024c.624.011.82-.203.553-.869l-.279-.702-6.271-14.883c-.296-.655-.489-.745-1.239-.908l-6.28-1.367c-.904-.224-1.182-.142-1.434.569zm10.213 2.206l4.922 11.68 1.82.75c.39.162.647.522.697 1.032l.687 8.344c.075.854.247 1.086.717 1.364l2.611 1.603c.377.234.761.342.758-.284l.384-12.819.033-1.443c.002-.229-.088-.567-.222-.834l-4.285-7.506c-.175-.3-.411-.472-.854-.575l-7.268-1.312zm-12.325 1.514l-11.86 2.72c-.458.079-.569.184-.821.532l-4.682 6.483c-.334.412-.448.721-.57 1.177l-2.803 10.475 1.432.017c.311-.906.651-1.902 1.014-2.98.891-2.634 1.762-5.247 1.762-5.247a.484.484 0 0 1 .81-.179l1.245 1.319a.458.458 0 0 1 .106.179l5.145 15.385c.18.633.507.795 1.168.795h3.031c.421 0 .666-.241.613-.897l-.578-7.347c-.071-.74.063-1.051.844-1.286l3.449-.931 5.643-1.604a.485.485 0 0 1 .557.233l1.643 3.012.009-.045 4.198 7.74c.448.88.736 1.125 1.713 1.125h2.494c.628 0 .726-.327.554-.97l-3.935-14.442-2.787-.1a.488.488 0 0 1-.276-.099l-11.02-8.415a.484.484 0 0 1-.164-.54l2.066-6.11zm18.717.876a.974.974 0 0 1 0 1.945.973.973 0 0 1 0-1.945m-34.586 13.372a873.007 873.007 0 0 1-2.317 6.868l-.598 8.505c-.128.884.163 1.054.891 1.054h2.559c.691 0 .921-.24 1.058-.896l1.465-7.581-2.439-7.295-.619-.655zm45.667 2.238l-1.387.003c-.284.015-.418.116-.406.391l.237 3.387 2.672.675-.633-3.97c-.031-.209-.182-.487-.483-.486zm-24.959 3.159l-2.511.714-.605 9.317c-.06.716.107.998.964.998h2.025c.666 0 .783-.238.939-1.046l1.206-6.281-2.018-3.702zm20.662.74l-.149 3.366 3.021.152c.419-.011.625-.045.888-.31l1.299-1.175c.299-.299.342-.53-.024-.652l-5.035-1.381zm-48.245 2.352v.741c0 .312.096.386.414.386h2.15a.499.499 0 0 1 .058-.153 13.27 13.27 0 0 0 .161-.424c.081-.225.203-.574.324-.92l-2.714-.03c-.353 0-.393.135-.393.4z"/><g opacity=".3" enable-background="new"><defs><path id="bj" d="M355.5 357.811h70.171v24.165H355.5z"/></defs><clipPath id="bk"><use xlink:href="#bj" overflow="visible"/></clipPath><path clip-path="url(#bk)" d="M402.937 357.811h-24.701c-19.894 0-22.735 2.845-22.735 22.758v1.407c0-19.913 2.847-22.763 22.739-22.763h24.692c19.894 0 22.739 2.85 22.739 22.763v-1.407c0-19.914-2.84-22.758-22.734-22.758"/></g><path fill="#F6F6F6" d="M396.924 161.742a6 6 0 1 1-12 0 6 6 0 0 1 12 0"/><circle fill="none" stroke="#C2C2C2" stroke-width="2" stroke-miterlimit="10" cx="390.924" cy="161.742" r="6"/><path fill="#F6F6F6" d="M446.495 252.203a6 6 0 1 1-12 0 6 6 0 0 1 12 0"/><circle fill="none" stroke="#C2C2C2" stroke-width="2" stroke-miterlimit="10" cx="440.495" cy="252.203" r="6"/></g></svg>