<svg xmlns="http://www.w3.org/2000/svg" xmlns:xlink="http://www.w3.org/1999/xlink" width="713.083" height="624.374"><g fill="#888" opacity=".5"><path d="M293.223 254.046l92.787 181.197-1.78.911-92.786-181.197z"/><path d="M388.47 433.977a3.76 3.76 0 1 1-6.695 3.426 3.76 3.76 0 0 1 6.695-3.426M295.684 252.783a3.76 3.76 0 1 0-6.693 3.428 3.76 3.76 0 0 0 6.693-3.428"/></g><g opacity=".5"><path fill="none" stroke="#888" stroke-width="2" stroke-miterlimit="10" d="M566.436 292.337L385.124 435.691"/><path fill="#888" d="M564.104 289.388a3.76 3.76 0 1 1 4.664 5.899 3.76 3.76 0 0 1-4.664-5.899M382.792 432.741a3.76 3.76 0 1 0 4.664 5.897 3.76 3.76 0 0 0-4.664-5.897"/></g><path fill="#FFF" d="M284.664 223.856v-17.835c0-78.386-11.187-89.586-89.497-89.586h-17.924a7.672 7.672 0 0 0-7.673-7.673h-46.037a7.672 7.672 0 0 0-7.673 7.673H97.93c-78.31 0-89.491 11.2-89.491 89.586v17.835a7.673 7.673 0 0 0-7.673 7.673v46.038a7.673 7.673 0 0 0 7.673 7.673v17.834c0 78.384 11.181 89.586 89.491 89.586h17.93a7.673 7.673 0 0 0 7.673 7.673h46.037a7.672 7.672 0 0 0 7.673-7.673h17.924c78.31 0 89.497-11.202 89.497-89.586V285.24a7.673 7.673 0 0 0 7.673-7.673v-46.038a7.673 7.673 0 0 0-7.673-7.673"/><path fill="none" stroke="#D4D4D4" stroke-width="1.535" stroke-miterlimit="10" d="M284.664 223.856v-17.835c0-78.386-11.187-89.586-89.497-89.586h-17.924a7.672 7.672 0 0 0-7.673-7.673h-46.037a7.672 7.672 0 0 0-7.673 7.673H97.93c-78.31 0-89.491 11.2-89.491 89.586v17.835a7.673 7.673 0 0 0-7.673 7.673v46.038a7.673 7.673 0 0 0 7.673 7.673v17.834c0 78.384 11.181 89.586 89.491 89.586h17.93a7.673 7.673 0 0 0 7.673 7.673h46.037a7.672 7.672 0 0 0 7.673-7.673h17.924c78.31 0 89.497-11.202 89.497-89.586V285.24a7.673 7.673 0 0 0 7.673-7.673v-46.038a7.673 7.673 0 0 0-7.673-7.673z"/><defs><path id="a" d="M121.58 184.827c-39.154 0-44.747 5.599-44.747 44.793v48.526c0 39.194 5.593 44.793 44.747 44.793h48.618c39.154 0 44.748-5.6 44.748-44.793V229.62c0-39.194-5.594-44.793-44.748-44.793H121.58z"/></defs><clipPath id="b"><use xlink:href="#a" overflow="visible"/></clipPath><linearGradient id="c" gradientUnits="userSpaceOnUse" x1="-26.158" y1="624.375" x2="-25.158" y2="624.375" gradientTransform="rotate(-90 -44689.05 41399.193) scale(138.113)"><stop offset="0" stop-color="#ddc1ab"/><stop offset="1" stop-color="#edddd1"/></linearGradient><path clip-path="url(#b)" fill="url(#c)" d="M76.833 184.827h138.113v138.112H76.833z"/><defs><path id="d" d="M121.58 184.827c-39.154 0-44.747 5.599-44.747 44.793v48.526c0 39.194 5.593 44.793 44.747 44.793h48.618c39.154 0 44.748-5.6 44.748-44.793V229.62c0-39.194-5.594-44.793-44.748-44.793H121.58z"/></defs><clipPath id="e"><use xlink:href="#d" overflow="visible"/></clipPath><g opacity=".105" clip-path="url(#e)"><defs><path id="f" d="M-26.159 100.021h289.521v279.04H-26.159z"/></defs><clipPath id="g"><use xlink:href="#f" overflow="visible"/></clipPath><g clip-path="url(#g)"><defs><path id="h" d="M47.747 308.723l144.309-158.628 71.306 163.929-125.548 65.036-75.739-30.696z"/></defs><clipPath id="j"><use xlink:href="#h" overflow="visible"/></clipPath><defs><filter id="i" filterUnits="userSpaceOnUse" x="-66.02" y="42.961" width="443.149" height="443.232"><feColorMatrix values="1 0 0 0 0 0 1 0 0 0 0 0 1 0 0 0 0 0 1 0"/></filter></defs><mask maskUnits="userSpaceOnUse" x="-66.02" y="42.961" width="443.149" height="443.232" id="l"><g filter="url(#i)"><linearGradient id="k" gradientUnits="userSpaceOnUse" x1="-26.159" y1="624.292" x2="-25.159" y2="624.292" gradientTransform="scale(94.4529) rotate(41.794 801.877 349.306)"><stop offset="0" stop-color="#fff"/><stop offset="1"/></linearGradient><path clip-path="url(#j)" fill="url(#k)" d="M-66.02 277.361l233.613 208.833 209.536-234.4L143.517 42.961z"/></g></mask><linearGradient id="m" gradientUnits="userSpaceOnUse" x1="-26.159" y1="624.292" x2="-25.159" y2="624.292" gradientTransform="scale(94.4529) rotate(41.794 801.877 349.306)"><stop offset="0" stop-color="#ab784f"/><stop offset="1" stop-color="#ab784f"/></linearGradient><path clip-path="url(#j)" mask="url(#l)" fill="url(#m)" d="M-66.02 277.361l233.613 208.833 209.536-234.4L143.517 42.961z"/></g><g clip-path="url(#g)"><defs><path id="n" d="M47.747 308.723l144.309-158.628-79.7-50.074-138.515 95.432z"/></defs><clipPath id="p"><use xlink:href="#n" overflow="visible"/></clipPath><defs><filter id="o" filterUnits="userSpaceOnUse" x="-129.883" y="-8.431" width="425.664" height="425.606"><feColorMatrix values="1 0 0 0 0 0 1 0 0 0 0 0 1 0 0 0 0 0 1 0"/></filter></defs><mask maskUnits="userSpaceOnUse" x="-129.883" y="-8.431" width="425.664" height="425.606" id="r"><g filter="url(#o)"><linearGradient id="q" gradientUnits="userSpaceOnUse" x1="-26.159" y1="624.283" x2="-25.159" y2="624.283" gradientTransform="rotate(-138.142 -8590.208 20251.944) scale(65.6288)"><stop offset="0" stop-color="#fff"/><stop offset="1"/></linearGradient><path clip-path="url(#p)" fill="url(#q)" d="M295.781 192.95L71.006-8.431l-200.889 224.225L94.892 417.175z"/></g></mask><linearGradient id="s" gradientUnits="userSpaceOnUse" x1="-26.159" y1="624.283" x2="-25.159" y2="624.283" gradientTransform="rotate(-138.142 -8590.208 20251.944) scale(65.6288)"><stop offset="0" stop-color="#fff"/><stop offset="1" stop-color="#fff"/></linearGradient><path clip-path="url(#p)" mask="url(#r)" fill="url(#s)" d="M295.781 192.95L71.006-8.431l-200.889 224.225L94.892 417.175z"/></g></g><g opacity=".082" clip-path="url(#e)"><defs><path id="t" d="M70.449 68.088h241.493v403.184H70.449z"/></defs><clipPath id="u"><use xlink:href="#t" overflow="visible"/></clipPath><g clip-path="url(#u)"><defs><path id="v" d="M89.568 163.916l222.373 219.572-70.348 87.784-139.19-184.79-31.955-105.5z"/></defs><clipPath id="x"><use xlink:href="#v" overflow="visible"/></clipPath><defs><filter id="w" filterUnits="userSpaceOnUse" x="45.873" y="-96.643" width="290.643" height="828.472"><feColorMatrix values="1 0 0 0 0 0 1 0 0 0 0 0 1 0 0 0 0 0 1 0"/></filter></defs><mask maskUnits="userSpaceOnUse" x="45.873" y="-96.643" width="290.643" height="828.472" id="z"><g filter="url(#w)"><linearGradient id="y" gradientUnits="userSpaceOnUse" x1="-26.159" y1="624.391" x2="-25.159" y2="624.391" gradientTransform="matrix(4.1173 95.1487 -97.9111 -95.8835 61431.305 62622.46)"><stop offset="0" stop-color="#fff"/><stop offset="1"/></linearGradient><path clip-path="url(#x)" fill="url(#y)" d="M45.873-96.643l24.575 567.915L336.516 731.83l-24.575-567.914z"/></g></mask><linearGradient id="A" gradientUnits="userSpaceOnUse" x1="-26.159" y1="624.39" x2="-25.159" y2="624.39" gradientTransform="matrix(4.1173 95.1487 -97.9111 -95.8835 61431.309 62622.465)"><stop offset="0" stop-color="#ab784f"/><stop offset="1" stop-color="#ab784f"/></linearGradient><path clip-path="url(#x)" mask="url(#z)" fill="url(#A)" d="M45.873-96.643l24.575 567.915L336.516 731.83l-24.575-567.914z"/></g><g clip-path="url(#u)"><defs><path id="B" d="M89.568 163.916l222.373 219.572-20.407-109.502L120.356 68.088z"/></defs><clipPath id="D"><use xlink:href="#B" overflow="visible"/></clipPath><defs><filter id="C" filterUnits="userSpaceOnUse" x="66.101" y="-172.916" width="269.309" height="797.407"><feColorMatrix values="1 0 0 0 0 0 1 0 0 0 0 0 1 0 0 0 0 0 1 0"/></filter></defs><mask maskUnits="userSpaceOnUse" x="66.101" y="-172.916" width="269.309" height="797.407" id="F"><g filter="url(#C)"><linearGradient id="E" gradientUnits="userSpaceOnUse" x1="-26.159" y1="624.405" x2="-25.159" y2="624.405" gradientTransform="matrix(-2.7853 -66.0383 68.0348 66.6962 -42351.223 -43097.129)"><stop offset="0" stop-color="#fff"/><stop offset="1"/></linearGradient><path clip-path="url(#D)" fill="url(#E)" d="M335.409 624.492L311.941 68.088 66.101-172.915l23.467 556.403z"/></g></mask><linearGradient id="G" gradientUnits="userSpaceOnUse" x1="-26.159" y1="624.404" x2="-25.159" y2="624.404" gradientTransform="matrix(-2.7853 -66.0384 68.0348 66.6962 -42351.227 -43097.133)"><stop offset="0" stop-color="#fff"/><stop offset="1" stop-color="#fff"/></linearGradient><path clip-path="url(#D)" mask="url(#F)" fill="url(#G)" d="M335.409 624.492L311.941 68.088 66.101-172.916l23.467 556.404z"/></g></g><g><path fill="#C39A7A" d="M101.825 226.072c-1.111 0-2.597.18-3.872 1.296-1.314 1.149-1.698 2.807-1.698 4.046v3.293c0 1.231.409 2.942 1.799 4.044 1.319 1.046 2.699 1.09 3.574 1.09h8.031l-11.425 12.572-.006.005-.003.003-.031.034-.031.031-.011.014a.73.73 0 0 0-.169.326c-1.203 1.471-1.728 3.364-1.728 4.532v4.086c0 1.314.589 2.887 1.849 3.804 1.162.845 2.32.899 2.962.899h3.717c.419 0 .82-.127 1.212-.269.391.142.792.269 1.211.269h17.435a.693.693 0 0 0 .247-.045c1.038-.014 2.244-.236 3.28-1.14 1.192-1.043 1.587-2.523 1.587-3.639v-1.599l4.544 4.544c.943.952 2.696 1.879 4.521 1.879h12.001c.331 0 .658-.053.975-.143 1.161.221 2.368-.064 3.215-.91l4.217-4.218.003-.003 2.153-2.18 2.936 2.711 2.863 2.864c.943.952 2.696 1.879 4.521 1.879h12.002c.126 0 .248-.041.373-.056v-.272c0-.638.512-1.15 1.15-1.15h3.09l5.182-5.178-.031.019a.718.718 0 0 0 .079-.067c1.094-1.104 1.975-3.033 1.975-4.754v-16.804l-.011-1.896a3.604 3.604 0 0 0-1.043-2.288l-5.813-5.811-.006-.008a5.163 5.163 0 0 0-.129-.127.04.04 0 0 1-.009-.005c-1.074-.966-2.852-1.678-4.456-1.678h-11.864l-1.795.006h-.034a3.604 3.604 0 0 0-2.357 1.051l-6.458 6.496-1.036-.997-4.741-4.738-.005-.008c-.043-.043-.085-.085-.13-.127l-.008-.005c-1.075-.966-2.853-1.678-4.457-1.678h-11.866l-1.902.012-.059.002a3.605 3.605 0 0 0-2.22 1.04l-5.37 5.373V231.4c0-.935-.142-2.496-1.377-3.779-1.238-1.288-2.867-1.549-4.108-1.549h-22.445zm39.44 13.769h7.606v12.538h-7.606v-12.538zm32.883 0h7.606v12.538h-7.606v-12.538zm-56.262 1.644h.396l-14.833 17.112v-1.231l.022-.022.003-.006 14.412-15.853zm9.61.351V253.3c-.962-.601-2.005-.921-2.891-.921h-6.247l9.138-10.543z"/><path fill="#C39A7A" d="M121.874 253.099h7.795v2.188h-7.795z"/><path fill="#FFF" d="M101.824 229.67c-1.375 0-1.972.503-1.972 1.745v3.293c0 1.213.571 1.537 1.776 1.537h24.53V231.4c0-1.126-.358-1.73-1.888-1.73h-22.446zm35.843 0l-5.699 5.698c-.67.616-.876 1.238-.876 2.383v16.581h6.575V229.67zm1.645 0v6.575h19.731l-5.82-5.82c-.629-.565-1.064-.755-2.051-.755h-11.86zm31.24 0l-5.698 5.698c-.67.616-.877 1.238-.877 2.383v16.581h6.575V229.67zm1.644 0v6.575h19.731l-5.819-5.82c-.629-.565-1.065-.755-2.051-.755h-11.861zm-55.904 8.219l-15.48 17.03c-.949.981-.961 1.437-.961 2.439v4.086c0 .91.579 1.107 1.214 1.107h3.717l21.375-24.662h-9.865zm36.176 0v24.662l5.639-5.639c.747-.755.936-1.119.936-2.223v-16.8h-6.575zm32.884 0v24.662l5.64-5.639c.747-.755.935-1.119.935-2.223v-16.8h-6.575zm-72.348 18.087l-5.8 6.575h17.436c1.072.05 1.517-.437 1.517-1.228v-3.866c0-.94-.419-1.481-1.554-1.481h-11.599zm18.089 0l5.76 5.76c.517.523.993.815 1.967.815h12.001v-6.575h-19.728zm32.884 0l5.76 5.76c.517.523.994.815 1.967.815h12.001v-6.575h-19.728z"/><path fill="#C39A7A" d="M96.255 262.505V281.2h4.089v-5.752l1.759-1.967 4.476 7.719h4.822l-6.637-10.672 6.372-8.023h-4.751l-6.041 8.301v-8.301h-4.089zm17.031 0V281.2h13.982v-3.161h-9.894v-4.724h8.481v-3.161h-8.481v-4.49h9.324v-3.159h-13.412zm17.017 0V281.2h13.979v-3.161h-9.894v-4.724h8.481v-3.161h-8.481v-4.49h9.327v-3.159h-13.412zm17 0V281.2h4.088v-6.598h2.732c1.228 0 2.29-.16 3.186-.483.896-.333 1.635-.783 2.217-1.346a5.248 5.248 0 0 0 1.29-1.967 6.73 6.73 0 0 0 .43-2.397c0-.914-.149-1.737-.444-2.467a4.609 4.609 0 0 0-1.332-1.857c-.601-.508-1.356-.896-2.271-1.164-.914-.277-1.995-.416-3.242-.416h-6.654zm17.031 0V281.2h13.982v-3.161h-9.894v-4.724h8.48v-3.161h-8.48v-4.49h9.326v-3.159h-13.414zm17.017 0V281.2h4.088v-7.137h2.397l4.018 7.137h4.6l-4.836-8.053a6.224 6.224 0 0 0 1.554-.692 5.258 5.258 0 0 0 1.219-1.081c.342-.425.61-.916.804-1.47.194-.554.289-1.171.289-1.855 0-1.792-.605-3.165-1.815-4.116-1.21-.952-3.035-1.428-5.473-1.428h-6.845zm-29.96 3.173h2.108c1.21 0 2.114.218 2.714.652.61.425.916 1.142.916 2.149 0 .98-.282 1.723-.846 2.231-.563.499-1.455.748-2.675.748h-2.217v-5.78zm34.048.379h2.327c.572 0 1.082.048 1.525.141.453.083.831.226 1.136.429.304.194.537.453.694.776.166.323.25.531.25 1.002 0 .868-.278 1.343-.832 1.805-.554.453-1.442.68-2.661.68h-2.439v-4.833z"/><path fill="#C39A7A" d="M96.974 262.552h86.732v3.595H96.974z"/><path fill="#C39A7A" d="M96.255 259.47h2.075v10.073h-2.075zM127.695 259.656h1.34v4.764h-1.34z"/><g opacity=".3" enable-background="new"><defs><path id="H" d="M76.833 184.826h138.111v47.563H76.833z"/></defs><clipPath id="I"><use xlink:href="#H" overflow="visible"/></clipPath><path clip-path="url(#I)" d="M170.196 184.826h-48.617c-39.155 0-44.747 5.599-44.747 44.793v2.769c0-39.193 5.604-44.8 44.756-44.8h48.599c39.155 0 44.756 5.607 44.756 44.8v-2.769c.001-39.194-5.592-44.793-44.747-44.793"/></g><path fill="#FFF" d="M704.643 115.861V98.026c0-78.386-11.188-89.585-89.497-89.585h-17.924a7.672 7.672 0 0 0-7.673-7.673h-46.037a7.672 7.672 0 0 0-7.673 7.673h-17.931c-78.31 0-89.49 11.199-89.49 89.585v17.835a7.672 7.672 0 0 0-7.673 7.673v46.038a7.673 7.673 0 0 0 7.673 7.673v17.835c0 78.383 11.181 89.585 89.49 89.585h17.931a7.671 7.671 0 0 0 7.673 7.673h46.037a7.672 7.672 0 0 0 7.673-7.673h17.924c78.31 0 89.497-11.202 89.497-89.585v-17.835a7.673 7.673 0 0 0 7.673-7.673v-46.038a7.672 7.672 0 0 0-7.673-7.673"/><path fill="none" stroke="#D4D4D4" stroke-width="1.535" stroke-miterlimit="10" d="M704.643 115.861V98.026c0-78.386-11.188-89.585-89.497-89.585h-17.924a7.672 7.672 0 0 0-7.673-7.673h-46.037a7.672 7.672 0 0 0-7.673 7.673h-17.931c-78.31 0-89.49 11.199-89.49 89.585v17.835a7.672 7.672 0 0 0-7.673 7.673v46.038a7.673 7.673 0 0 0 7.673 7.673v17.835c0 78.383 11.181 89.585 89.49 89.585h17.931a7.671 7.671 0 0 0 7.673 7.673h46.037a7.672 7.672 0 0 0 7.673-7.673h17.924c78.31 0 89.497-11.202 89.497-89.585v-17.835a7.673 7.673 0 0 0 7.673-7.673v-46.038a7.672 7.672 0 0 0-7.673-7.673z"/></g><g><defs><path id="J" d="M541.558 76.832c-39.152 0-44.747 5.599-44.747 44.793v48.526c0 39.194 5.595 44.793 44.747 44.793h48.619c39.154 0 44.747-5.599 44.747-44.793v-48.526c0-39.194-5.593-44.793-44.747-44.793h-48.619z"/></defs><clipPath id="K"><use xlink:href="#J" overflow="visible"/></clipPath><linearGradient id="L" gradientUnits="userSpaceOnUse" x1="-26.159" y1="624.375" x2="-25.159" y2="624.375" gradientTransform="rotate(-90 -44533.05 41135.193) scale(138.113)"><stop offset="0" stop-color="#39b1ed"/><stop offset="1" stop-color="#44cdf2"/></linearGradient><path clip-path="url(#K)" fill="url(#L)" d="M496.811 76.832h138.113v138.112H496.811z"/></g><g><defs><path id="M" d="M541.558 76.832c-39.152 0-44.747 5.599-44.747 44.793v48.526c0 39.194 5.595 44.793 44.747 44.793h48.619c39.154 0 44.747-5.599 44.747-44.793v-48.526c0-39.194-5.593-44.793-44.747-44.793h-48.619z"/></defs><clipPath id="N"><use xlink:href="#M" overflow="visible"/></clipPath><g opacity=".082" clip-path="url(#N)"><defs><path id="O" d="M428.873-35.949h283.851v279.907H428.873z"/></defs><clipPath id="P"><use xlink:href="#O" overflow="visible"/></clipPath><g clip-path="url(#P)"><defs><path id="Q" d="M497.57 169.613L648.918 17.686l63.805 166.991-128.366 59.281-74.269-34.097z"/></defs><clipPath id="S"><use xlink:href="#Q" overflow="visible"/></clipPath><defs><filter id="R" filterUnits="userSpaceOnUse" x="384.459" y="-89.867" width="441.375" height="441.378"><feColorMatrix values="1 0 0 0 0 0 1 0 0 0 0 0 1 0 0 0 0 0 1 0"/></filter></defs><mask maskUnits="userSpaceOnUse" x="384.459" y="-89.867" width="441.375" height="441.378" id="U"><g filter="url(#R)"><linearGradient id="T" gradientUnits="userSpaceOnUse" x1="-26.159" y1="624.313" x2="-25.159" y2="624.313" gradientTransform="rotate(44.391 71194.146 33262.554) scale(94.4528)"><stop offset="0" stop-color="#fff"/><stop offset="1"/></linearGradient><path clip-path="url(#S)" fill="url(#T)" d="M384.459 133.226L607.433 351.51l218.401-223.092L602.861-89.867z"/></g></mask><linearGradient id="V" gradientUnits="userSpaceOnUse" x1="-26.159" y1="624.313" x2="-25.159" y2="624.313" gradientTransform="rotate(44.391 71194.137 33262.546) scale(94.4528)"><stop offset="0" stop-color="#247eca"/><stop offset="1" stop-color="#247eca"/></linearGradient><path clip-path="url(#S)" mask="url(#U)" fill="url(#V)" d="M384.459 133.226l222.974 218.285 218.401-223.093L602.861-89.867z"/></g><g clip-path="url(#P)"><defs><path id="W" d="M497.57 169.613L648.918 17.686l-77.35-53.635L428.873 53.11z"/></defs><clipPath id="Y"><use xlink:href="#W" overflow="visible"/></clipPath><defs><filter id="X" filterUnits="userSpaceOnUse" x="326.11" y="-145.952" width="425.57" height="425.567"><feColorMatrix values="1 0 0 0 0 0 1 0 0 0 0 0 1 0 0 0 0 0 1 0"/></filter></defs><mask maskUnits="userSpaceOnUse" x="326.11" y="-145.952" width="425.57" height="425.567" id="aa"><g filter="url(#X)"><linearGradient id="Z" gradientUnits="userSpaceOnUse" x1="-26.159" y1="624.299" x2="-25.159" y2="624.299" gradientTransform="scale(-65.6288) rotate(44.455 748.244 332.792)"><stop offset="0" stop-color="#fff"/><stop offset="1"/></linearGradient><path clip-path="url(#Y)" fill="url(#Z)" d="M751.68 64.876L536.801-145.952 326.11 68.788l214.879 210.828z"/></g></mask><linearGradient id="ab" gradientUnits="userSpaceOnUse" x1="-26.159" y1="624.299" x2="-25.159" y2="624.299" gradientTransform="scale(-65.6288) rotate(44.455 748.244 332.792)"><stop offset="0" stop-color="#b6e2f3"/><stop offset="1" stop-color="#b6e2f3"/></linearGradient><path clip-path="url(#Y)" mask="url(#aa)" fill="url(#ab)" d="M751.68 64.876L536.801-145.952 326.11 68.788l214.879 210.828z"/></g></g><g opacity=".122" clip-path="url(#N)"><defs><path id="ac" d="M474.932-29.193h278.592v291.401H474.932z"/></defs><clipPath id="ad"><use xlink:href="#ac" overflow="visible"/></clipPath><g clip-path="url(#ad)"><defs><path id="ae" d="M684.654 186.479L523.711 44.753l162.755-73.946 67.058 124.48-29.468 76.225z"/></defs><clipPath id="ag"><use xlink:href="#ae" overflow="visible"/></clipPath><defs><filter id="af" filterUnits="userSpaceOnUse" x="416.995" y="-142.907" width="443.246" height="443.1"><feColorMatrix values="1 0 0 0 0 0 1 0 0 0 0 0 1 0 0 0 0 0 1 0"/></filter></defs><mask maskUnits="userSpaceOnUse" x="416.995" y="-142.907" width="443.246" height="443.1" id="ai"><g filter="url(#af)"><linearGradient id="ah" gradientUnits="userSpaceOnUse" x1="-26.159" y1="624.288" x2="-25.159" y2="624.288" gradientTransform="rotate(-49.132 -65303.1 26173.274) scale(94.4528)"><stop offset="0" stop-color="#fff"/><stop offset="1"/></linearGradient><path clip-path="url(#ag)" fill="url(#ah)" d="M655.134 300.193l205.107-237.05-238.14-206.05L416.995 94.144z"/></g></mask><linearGradient id="aj" gradientUnits="userSpaceOnUse" x1="-26.159" y1="624.288" x2="-25.159" y2="624.288" gradientTransform="rotate(-49.132 -65303.1 26173.274) scale(94.4528)"><stop offset="0" stop-color="#247eca"/><stop offset="1" stop-color="#247eca"/></linearGradient><path clip-path="url(#ag)" mask="url(#ai)" fill="url(#aj)" d="M655.134 300.193l205.107-237.05-238.14-206.05L416.995 94.144z"/></g><g clip-path="url(#ad)"><defs><path id="ak" d="M684.654 186.479L523.711 44.753l-48.779 80.5 97.66 136.955z"/></defs><clipPath id="am"><use xlink:href="#ak" overflow="visible"/></clipPath><defs><filter id="al" filterUnits="userSpaceOnUse" x="367.3" y="-59.051" width="424.985" height="425.063"><feColorMatrix values="1 0 0 0 0 0 1 0 0 0 0 0 1 0 0 0 0 0 1 0"/></filter></defs><mask maskUnits="userSpaceOnUse" x="367.3" y="-59.051" width="424.985" height="425.063" id="ao"><g filter="url(#al)"><linearGradient id="an" gradientUnits="userSpaceOnUse" x1="-26.159" y1="624.276" x2="-25.159" y2="624.276" gradientTransform="rotate(130.931 8769.247 21075.94) scale(65.6288)"><stop offset="0" stop-color="#fff"/><stop offset="1"/></linearGradient><path clip-path="url(#am)" fill="url(#an)" d="M564.951-59.051L367.3 168.87l227.335 197.142 197.651-227.921z"/></g></mask><linearGradient id="ap" gradientUnits="userSpaceOnUse" x1="-26.159" y1="624.276" x2="-25.159" y2="624.276" gradientTransform="rotate(130.931 8769.245 21075.936) scale(65.6288)"><stop offset="0" stop-color="#b6e2f3"/><stop offset="1" stop-color="#b6e2f3"/></linearGradient><path clip-path="url(#am)" mask="url(#ao)" fill="url(#ap)" d="M564.951-59.051L367.3 168.87l227.335 197.142 197.651-227.921z"/></g></g></g><g><path fill="#1498D7" d="M567.186 103.716c-2.149 0-4.403.883-5.985 2.383l-9.34 8.854c-.337-.343-.658-.724-1.043-.947l-.003-.003-.105-.059-.007-.003-4.363-2.324-.021-.011a.718.718 0 0 0-.415-.079c-1.183-.57-2.493-.977-3.718-.977h-9.222c-.639 0-1.573.016-2.595.477-1.019.461-1.647 1.153-2.067 1.627l-4.1 4.639-.003.006-.003.003c-1.504 1.661-2.122 3.927-2.122 5.822v10.504c0 .842.155 1.978.811 2.989.621.96 1.374 1.439 1.823 1.74a1.716 1.716 0 0 0 .11.076l13.954 8.705.025.017a.705.705 0 0 0 .245.092c1.334.788 2.915 1.207 4.323 1.209l12.384.016-8.196 15.775c-.464.855-.855 1.765-.961 2.88-.115 1.205.232 2.632 1.158 3.673 1.684 1.895 3.708 1.829 5.041 1.829h2.624l-5.33 17.248a.575.575 0 0 0-.028.143c-.202.647-.375 1.268-.428 2.015-.026.381-.047.924.144 1.61.213.766.793 1.847 1.992 2.45 1.179.593 2.33.421 3.007.197a4.754 4.754 0 0 0 1.368-.725c.638-.47 1.122-.983 1.635-1.574h.003l25.102-28.082.003-.003c.031-.035.06-.071.09-.107l.006-.003c.972-1.18 1.762-3.228.778-5.187-.968-1.928-2.933-2.506-4.355-2.506h-3.357l7.232-6.896a.012.012 0 0 1 .005-.005l.034-.034.025-.025 2.833-2.631 9.682.015h.003c2.345 0 4.899-.771 6.902-2.667l4.29-4.06c.052-.049.1-.098.148-.149l.003-.003c1.363-1.452 2.459-3.713 2.459-6.264v-11.374c0-1.059-.155-2.283-.733-3.428-.567-1.125-1.366-1.926-2.16-2.63l-13.255-11.751c-1.815-1.682-4.258-2.487-6.657-2.487h-19.67z"/><path fill="#0C5A80" d="M563.674 108.71l-30.785 29.181c-.556.577-.452 1.02.18 1.449l7.636 4.763c.938.615 1.53.754 2.663.756l52.49.072c1.979 0 2.879-.214 4.429-1.681l4.289-4.062c1.032-1.099 1.487-1.926 1.487-3.801v-11.374c0-1.499-.37-2.202-1.683-3.366l-13.314-11.804c-1.356-1.258-2.239-1.53-4.212-1.53h-19.667c-1.688 0-2.278.226-3.513 1.397m-32.676 6.326l-4.131 4.675c-1.069 1.178-1.192 1.829-1.192 3.413v10.505c0 .943.267 1.228 1.048 1.752l2.269 1.415c.73.461 1.231.684 2.073-.148l18.155-17.21c.808-.822 1.033-1.604-.205-2.321l-4.382-2.334c-.855-.49-1.473-.636-2.446-.636h-9.221c-1.024 0-1.292.123-1.968.889"/><path fill="#E3F8FE" d="M559.923 148.241l-9.206 17.714c-1.331 2.443-.105 3.077 2.075 3.077h5.238c1.064 0 1.556-.205 2.403-1.014l20.356-19.411c.861-.86.413-1.743-.904-1.743h-16.652c-1.97 0-2.599.142-3.31 1.377m9.585 14.107l-9.422 8.986c-.583.512-.796.939-1.022 1.67l-5.544 17.937c-.725 2.273-.172 2.678 1.569.665l25.112-28.094c.838-1.017.332-1.811-.802-1.811h-8.279c-.835 0-1.076.171-1.612.647"/><g opacity=".3" enable-background="new"><defs><path id="aq" d="M496.811 76.832h138.111v47.562H496.811z"/></defs><clipPath id="ar"><use xlink:href="#aq" overflow="visible"/></clipPath><path clip-path="url(#ar)" d="M590.175 76.831h-48.617c-39.155 0-44.747 5.599-44.747 44.793v2.769c0-39.193 5.604-44.8 44.756-44.8h48.6c39.154 0 44.756 5.607 44.756 44.8v-2.769c0-39.194-5.592-44.793-44.748-44.793"/></g><path fill="#FFF" d="M474.327 509.975v-11.511c0-50.593-7.221-57.821-57.765-57.821h-11.568a4.952 4.952 0 0 0-4.952-4.952h-29.714a4.952 4.952 0 0 0-4.952 4.952h-11.573c-50.543 0-57.76 7.229-57.76 57.821v11.511a4.951 4.951 0 0 0-4.952 4.953v29.714a4.951 4.951 0 0 0 4.952 4.952v11.511c0 50.591 7.216 57.821 57.76 57.821h11.573a4.952 4.952 0 0 0 4.952 4.952h29.714a4.952 4.952 0 0 0 4.952-4.952h11.568c50.544 0 57.765-7.23 57.765-57.821v-11.511a4.952 4.952 0 0 0 4.952-4.952v-29.714a4.952 4.952 0 0 0-4.952-4.953"/><path fill="none" stroke="#D4D4D4" stroke-width=".991" stroke-miterlimit="10" d="M474.327 509.975v-11.511c0-50.593-7.221-57.821-57.765-57.821h-11.568a4.952 4.952 0 0 0-4.952-4.952h-29.714a4.952 4.952 0 0 0-4.952 4.952h-11.573c-50.543 0-57.76 7.229-57.76 57.821v11.511a4.951 4.951 0 0 0-4.952 4.953v29.714a4.951 4.951 0 0 0 4.952 4.952v11.511c0 50.591 7.216 57.821 57.76 57.821h11.573a4.952 4.952 0 0 0 4.952 4.952h29.714a4.952 4.952 0 0 0 4.952-4.952h11.568c50.544 0 57.765-7.23 57.765-57.821v-11.511a4.952 4.952 0 0 0 4.952-4.952v-29.714a4.952 4.952 0 0 0-4.952-4.953z"/></g><g><defs><path id="as" d="M369.066 484.785c-25.271 0-28.881 3.613-28.881 28.911v31.319c0 25.298 3.61 28.911 28.881 28.911h31.379c25.272 0 28.883-3.613 28.883-28.911v-31.319c0-25.298-3.61-28.911-28.883-28.911h-31.379z"/></defs><clipPath id="at"><use xlink:href="#as" overflow="visible"/></clipPath><linearGradient id="au" gradientUnits="userSpaceOnUse" x1="-26.159" y1="624.374" x2="-25.159" y2="624.374" gradientTransform="rotate(-90 -28515.634 26757.722) scale(89.1424)"><stop offset="0" stop-color="#69be28"/><stop offset="1" stop-color="#83d445"/></linearGradient><path clip-path="url(#at)" fill="url(#au)" d="M340.185 484.785h89.143v89.142h-89.143z"/></g><g><defs><path id="av" d="M369.066 484.785c-25.271 0-28.881 3.613-28.881 28.911v31.319c0 25.298 3.61 28.911 28.881 28.911h31.379c25.272 0 28.883-3.613 28.883-28.911v-31.319c0-25.298-3.61-28.911-28.883-28.911h-31.379z"/></defs><clipPath id="aw"><use xlink:href="#av" overflow="visible"/></clipPath><g opacity=".134" clip-path="url(#aw)"><defs><path id="ax" d="M317.158 417.711h153.51V616.96h-153.51z"/></defs><clipPath id="ay"><use xlink:href="#ax" overflow="visible"/></clipPath><g clip-path="url(#ay)"><defs><path id="az" d="M334.098 496.659l136.017 25.642-65.975 94.659-78.225-46.999-8.757-52.013z"/></defs><clipPath id="aB"><use xlink:href="#az" overflow="visible"/></clipPath><defs><filter id="aA" filterUnits="userSpaceOnUse" x="296.236" y="470.057" width="194.8" height="173.505"><feColorMatrix values="1 0 0 0 0 0 1 0 0 0 0 0 1 0 0 0 0 0 1 0"/></filter></defs><mask maskUnits="userSpaceOnUse" x="296.236" y="470.057" width="194.8" height="173.505" id="aD"><g filter="url(#aA)"><linearGradient id="aC" gradientUnits="userSpaceOnUse" x1="-26.159" y1="624.266" x2="-25.159" y2="624.266" gradientTransform="rotate(100.177 15106.45 20119.156) scale(60.9627)"><stop offset="0" stop-color="#fff"/><stop offset="1"/></linearGradient><path clip-path="url(#aB)" fill="url(#aC)" d="M321.934 470.057l-25.698 143.148 169.103 30.357 25.698-143.147z"/></g></mask><linearGradient id="aE" gradientUnits="userSpaceOnUse" x1="-26.159" y1="624.266" x2="-25.159" y2="624.266" gradientTransform="rotate(100.177 15106.45 20119.155) scale(60.9627)"><stop offset="0" stop-color="#4d9a35"/><stop offset="1" stop-color="#4d9a35"/></linearGradient><path clip-path="url(#aB)" mask="url(#aD)" fill="url(#aE)" d="M321.934 470.057l-25.698 143.148 169.103 30.357 25.698-143.147z"/></g><g clip-path="url(#ay)"><defs><path id="aF" d="M334.098 496.659l136.017 25.642.553-60.749-99.32-43.841z"/></defs><clipPath id="aH"><use xlink:href="#aF" overflow="visible"/></clipPath><defs><filter id="aG" filterUnits="userSpaceOnUse" x="315.8" y="393.818" width="173.167" height="152.377"><feColorMatrix values="1 0 0 0 0 0 1 0 0 0 0 0 1 0 0 0 0 0 1 0"/></filter></defs><mask maskUnits="userSpaceOnUse" x="315.8" y="393.818" width="173.167" height="152.377" id="aJ"><g filter="url(#aG)"><linearGradient id="aI" gradientUnits="userSpaceOnUse" x1="-26.159" y1="624.213" x2="-25.159" y2="624.213" gradientTransform="rotate(-79.759 -15875.105 12574.904) scale(42.3588)"><stop offset="0" stop-color="#fff"/><stop offset="1"/></linearGradient><path clip-path="url(#aH)" fill="url(#aI)" d="M466.352 546.195l22.614-125.178-150.551-27.199L315.8 518.996z"/></g></mask><linearGradient id="aK" gradientUnits="userSpaceOnUse" x1="-26.159" y1="624.213" x2="-25.159" y2="624.213" gradientTransform="rotate(-79.759 -15875.102 12574.902) scale(42.3588)"><stop offset="0" stop-color="#c7df6e"/><stop offset="1" stop-color="#c7df6e"/></linearGradient><path clip-path="url(#aH)" mask="url(#aJ)" fill="url(#aK)" d="M466.352 546.195l22.614-125.178-150.551-27.199L315.8 518.996z"/></g></g><g opacity=".138" clip-path="url(#aw)"><defs><path id="aL" d="M266.514 431.344h194.631V608.22H266.514z"/></defs><clipPath id="aM"><use xlink:href="#aL" overflow="visible"/></clipPath><g clip-path="url(#aM)"><defs><path id="aN" d="M322.559 570.046l80.325-112.719 58.261 99.59-75.474 51.303-50.891-13.868z"/></defs><clipPath id="aP"><use xlink:href="#aN" overflow="visible"/></clipPath><defs><filter id="aO" filterUnits="userSpaceOnUse" x="251.685" y="392.234" width="280.334" height="281.08"><feColorMatrix values="1 0 0 0 0 0 1 0 0 0 0 0 1 0 0 0 0 0 1 0"/></filter></defs><mask maskUnits="userSpaceOnUse" x="251.685" y="392.234" width="280.334" height="281.08" id="aR"><g filter="url(#aO)"><linearGradient id="aQ" gradientUnits="userSpaceOnUse" x1="-26.159" y1="624.25" x2="-25.159" y2="624.25" gradientTransform="scale(60.9627) rotate(34.975 967.235 367.35)"><stop offset="0" stop-color="#fff"/><stop offset="1"/></linearGradient><path clip-path="url(#aP)" fill="url(#aQ)" d="M251.685 558.641L415.61 673.314l116.409-166.407-163.924-114.673z"/></g></mask><linearGradient id="aS" gradientUnits="userSpaceOnUse" x1="-26.159" y1="624.25" x2="-25.159" y2="624.25" gradientTransform="scale(60.9627) rotate(34.975 967.235 367.35)"><stop offset="0" stop-color="#4d9a35"/><stop offset="1" stop-color="#4d9a35"/></linearGradient><path clip-path="url(#aP)" mask="url(#aR)" fill="url(#aS)" d="M251.685 558.641L415.61 673.314l116.409-166.407-163.924-114.673z"/></g><g clip-path="url(#aM)"><defs><path id="aT" d="M322.559 570.046l80.325-112.719-54.915-25.983-81.455 71.776z"/></defs><clipPath id="aV"><use xlink:href="#aT" overflow="visible"/></clipPath><defs><filter id="aU" filterUnits="userSpaceOnUse" x="201.314" y="367.241" width="266.771" height="266.91"><feColorMatrix values="1 0 0 0 0 0 1 0 0 0 0 0 1 0 0 0 0 0 1 0"/></filter></defs><mask maskUnits="userSpaceOnUse" x="201.314" y="367.241" width="266.771" height="266.91" id="aX"><g filter="url(#aU)"><linearGradient id="aW" gradientUnits="userSpaceOnUse" x1="-26.159" y1="624.245" x2="-25.159" y2="624.245" gradientTransform="scale(-42.3588) rotate(35.038 990.826 333.993)"><stop offset="0" stop-color="#fff"/><stop offset="1"/></linearGradient><path clip-path="url(#aV)" fill="url(#aW)" d="M468.084 477.063l-156.62-109.822-110.15 157.087 156.621 109.823z"/></g></mask><linearGradient id="aY" gradientUnits="userSpaceOnUse" x1="-26.159" y1="624.245" x2="-25.159" y2="624.245" gradientTransform="scale(-42.3588) rotate(35.038 990.826 333.993)"><stop offset="0" stop-color="#c7df6e"/><stop offset="1" stop-color="#c7df6e"/></linearGradient><path clip-path="url(#aV)" mask="url(#aX)" fill="url(#aY)" d="M468.084 477.063l-156.62-109.822-110.15 157.087 156.621 109.823z"/></g></g></g><g><path fill="#5AA223" d="M383.459 504.741a.467.467 0 0 0-.16.033c-.389-.01-.802.01-1.274.19-.875.332-1.352 1.025-1.652 1.615a2.33 2.33 0 0 0-.318.601l-.006.018-1.093 3.226-14.975 3.435a.48.48 0 0 0-.188.092c-.383.086-.795.171-1.223.463-.526.359-.817.776-.997 1.025l-5.887 8.152.016-.021c-.636.785-.974 1.66-1.16 2.357l-3.425 12.79.055.002c-.542 0-1.533.138-2.224.992-.524.648-.583 1.267-.583 1.599a2.216 2.216 0 0 0-.013.234v.946c0 .422.06 1.38.876 2.117.793.716 1.66.694 1.971.694h2.53l-.337 4.783-.004.03h.002l-.002.017a.45.45 0 0 0 .015.151c-.08.803-.053 1.842.789 2.713.93.965 2.047.958 2.642.958h3.252c.717 0 1.686-.143 2.474-.84.774-.685 1.017-1.545 1.142-2.15l.004-.021.002-.017.656-3.4 1.281 3.826.001.006a.505.505 0 0 0 .076.136c.232.674.638 1.412 1.386 1.892.808.518 1.626.569 2.224.569h3.85c.764 0 1.81-.307 2.469-1.183.629-.833.682-1.75.626-2.462l-.688-8.727 3.677-.993.02-.005h.003l.028-.008.758-.216-.639 9.852a.489.489 0 0 0 .011.127c-.045.644-.053 1.633.742 2.534.856.971 2.004 1.08 2.789 1.08h2.573c.758 0 1.903-.237 2.636-1.13.668-.813.734-1.56.836-2.084l.686-3.56 2.21 4.073c.331.65.746 1.419 1.593 1.999.861.59 1.833.701 2.651.701h3.169c.39 0 .868-.041 1.392-.267a2.887 2.887 0 0 0 1.415-1.322c.554-1.099.287-2.01.141-2.559l-.002-.007-.002-.009-4.509-16.547 1.492.056-.013-.002.029.002.028.002 1.897.03a3.84 3.84 0 0 0 1.165-.138c.171-.049.26-.179.396-.267l.469 5.706a.05.05 0 0 0 .002.012c.059.668.159 1.359.551 2.064.352.634.864.987 1.291 1.266a.47.47 0 0 0 .165.178l.015.009.003.002.026.015 3.272 2.012.014.007c1.075.618 1.948.812 3.049.956l.036.001 3.834.193c.064.004.123.004.176.003h.001c.305-.007.743-.013 1.278-.181.445-.141.797-.427 1.128-.702a.482.482 0 0 0 .223-.109l1.65-1.492a1.458 1.458 0 0 0 .083-.082c.354-.354.721-.847 1.026-1.921.148-.519.227-1.21.072-1.979l-.798-4.998a3.063 3.063 0 0 0-.687-1.551c-.469-.565-1.284-1.051-2.226-1.049l-1.761.003c-.039 0-.077 0-.116.003h-.004c-.41.021-1.162.109-1.841.729-.181.165-.241.368-.359.557l.209-6.941v-.025l.041-1.828v-.022c.012-.876-.21-1.504-.529-2.136l-.002-.002a2.608 2.608 0 0 0-.056-.103v-.002l-5.438-9.525v-.002l-.012-.021c-.525-.906-1.563-1.591-2.571-1.825-.035-.008-.07-.017-.104-.022l-.007-.003-9.232-1.664h-.002c-.142-.026-.286-.011-.429-.01-.191-.346-.373-.739-.827-1.056-.692-.482-1.336-.596-1.836-.705h-.002l-7.921-1.723c-.32-.08-.682-.188-1.112-.222h-.002c-.011.002-.027.002-.042.002zm.674 4.866l7.422 1.616.021.003 7.338 17.415-6.359-.229-11.752-8.975 3.33-9.83zm14.893 4.18l1.045.189c-.122.334-.283.648-.283 1.037 0 .399.106.772.232 1.134l-.994-2.36zm-22.989 2.07l-1.295 3.824a2.94 2.94 0 0 0 .992 3.27l.002.002.003.002 13.998 10.689c.482.37 1.068.58 1.675.603h.017l1.819.065 4.086 15H396.151c-.031-.054-.044-.065-.088-.152l-.005-.007-.026-.055-.002-.002-5.334-9.833a2.504 2.504 0 0 0-.214-.316l-1.885-3.456-.002-.002c-.008-.014-.018-.025-.024-.04l-.002-.002a2.938 2.938 0 0 0-2.63-1.484h-.002a2.891 2.891 0 0 0-.596.092h-.003a.516.516 0 0 0-.124.018l-7.152 2.035-4.365 1.177-.059.016-.011.003c-.73.222-1.665.637-2.247 1.585-.541.882-.517 1.745-.464 2.364a.466.466 0 0 0-.004.092l.002.023.002.013.624 7.933h-1.681l-6.343-18.968a2.94 2.94 0 0 0-.651-1.087l-1.579-1.674a2.928 2.928 0 0 0-2.055-.91c.028-.035.005-.086.08-.179.026-.032.053-.068.078-.103l.002-.002 5.814-8.049 10.832-2.485zm24.171.736c.593 1.153 1.766 1.977 3.136 1.977.832 0 1.54-.365 2.139-.853l3.419 5.988c.007.032.016.075.032.14a.601.601 0 0 0 .008.023l-.036 1.637-.398 13.207-.64-.395-.009-.082-.003-.018-.869-10.566v-.001l-.002-.021v-.004c-.129-1.358-.99-2.688-2.302-3.236l-.042-.017h-.002l-1.395-.574-3.036-7.205zm-40.55 20.722l1.239 3.705-1.602 8.292H358.1l.66-9.358c.286-.837.577-1.692.898-2.639m47.961 1.382l-.006.012-.007-.007a.07.07 0 0 0 .013-.005zm-22.907 1.937l1.128 2.07-1.269 6.607h-.423l.564-8.677z"/><path fill="#F2FAEB" d="M382.249 507.94l-3.942 11.638c-.246.572.082.928.487 1.244l12.423 9.486c.406.335.676.403 1.204.422l6.922.25 1.897.031c.792.013 1.043-.259.703-1.105l-.354-.892-7.967-18.906c-.376-.832-.621-.945-1.574-1.153l-7.979-1.736c-1.148-.287-1.501-.181-1.82.721zm12.974 2.803l6.252 14.837 2.312.953c.494.206.823.663.885 1.311l.873 10.6c.096 1.083.313 1.38.911 1.733l3.316 2.036c.479.297.967.433.963-.362l.489-16.284.04-1.833c.004-.292-.111-.723-.281-1.06l-5.443-9.535c-.223-.382-.522-.6-1.086-.73l-9.231-1.666zm-15.656 1.923l-15.067 3.456c-.582.099-.723.231-1.043.675l-5.948 8.236c-.424.522-.569.915-.723 1.494l-3.561 13.308 1.818.021c.396-1.151.827-2.417 1.289-3.786 1.13-3.346 2.237-6.666 2.237-6.666a.616.616 0 0 1 1.029-.227l1.582 1.676a.616.616 0 0 1 .136.228l6.534 19.544c.229.804.645 1.01 1.484 1.01h3.85c.535 0 .846-.307.78-1.14l-.736-9.333c-.089-.942.082-1.335 1.074-1.636l4.381-1.18 7.168-2.04a.615.615 0 0 1 .708.297l2.085 3.826.011-.058 5.334 9.833c.568 1.118.937 1.43 2.176 1.43h3.169c.798 0 .922-.416.704-1.232l-4.998-18.346-3.542-.128a.623.623 0 0 1-.351-.126l-13.999-10.69a.614.614 0 0 1-.209-.685l2.628-7.761zm23.776 1.112a1.235 1.235 0 1 1-.002 2.47 1.235 1.235 0 0 1 .002-2.47m-43.936 16.987c-.256.769-.945 2.837-1.911 5.698-.369 1.093-.704 2.069-1.032 3.027l-.759 10.804c-.161 1.124.207 1.339 1.131 1.339h3.251c.878 0 1.17-.306 1.342-1.139l1.862-9.632-3.098-9.267-.786-.83zm58.013 2.844l-1.763.002c-.359.021-.53.149-.515.497l.302 4.303 3.394.856-.804-5.041c-.039-.265-.232-.619-.614-.617zm-31.706 4.014l-3.19.906-.769 11.837c-.076.908.136 1.268 1.223 1.268h2.575c.846 0 .995-.304 1.192-1.329l1.532-7.978-2.563-4.704zm26.248.938l-.191 4.277 3.839.191c.533-.014.794-.057 1.127-.392l1.65-1.494c.38-.379.434-.672-.03-.828l-6.395-1.754zm-61.288 2.988v.942c0 .396.12.489.526.489h2.731a.654.654 0 0 1 .074-.194l.04-.099c.039-.1.095-.251.164-.439.103-.286.258-.729.412-1.169l-3.447-.038c-.449.001-.5.173-.5.508z"/><g opacity=".3" enable-background="new"><defs><path id="aZ" d="M340.185 484.785h89.142v30.698h-89.142z"/></defs><clipPath id="ba"><use xlink:href="#aZ" overflow="visible"/></clipPath><path clip-path="url(#ba)" d="M400.445 484.785h-31.379c-25.271 0-28.881 3.613-28.881 28.91v1.787c0-25.297 3.617-28.915 28.887-28.915h31.367c25.271 0 28.887 3.618 28.887 28.915v-1.787c.001-25.297-3.609-28.91-28.881-28.91"/></g><path fill="#EDEDED" d="M348.185 352.093a6 6 0 1 1-12 0 6 6 0 0 1 12 0"/><circle fill="none" stroke="#C2C2C2" stroke-width="2" stroke-miterlimit="10" cx="342.185" cy="352.093" r="6"/><path fill="#EDEDED" d="M482.78 361.988a6 6 0 1 1-12 0 6 6 0 0 1 12 0"/><circle fill="none" stroke="#C2C2C2" stroke-width="2" stroke-miterlimit="10" cx="476.78" cy="361.988" r="6"/></g></svg>