<svg xmlns="http://www.w3.org/2000/svg" xmlns:xlink="http://www.w3.org/1999/xlink" width="717.267" height="375.388"><g opacity=".5"><defs><path id="a" d="M184.922 90.796h243.769v60.78H184.922z"/></defs><clipPath id="b"><use xlink:href="#a" overflow="visible"/></clipPath><path clip-path="url(#b)" fill="none" stroke="#888" stroke-width="2" stroke-miterlimit="10" d="M424.929 147.816L188.683 94.557"/><path clip-path="url(#b)" fill="#888" d="M425.756 144.148a3.76 3.76 0 1 1-1.655 7.337 3.76 3.76 0 0 1 1.655-7.337M189.51 90.889a3.76 3.76 0 1 0-1.653 7.334 3.76 3.76 0 0 0 1.653-7.334"/></g><g opacity=".5"><defs><path id="c" d="M90.769 184.923h125.834v119.739H90.769z"/></defs><clipPath id="d"><use xlink:href="#c" overflow="visible"/></clipPath><path clip-path="url(#d)" fill="none" stroke="#888" stroke-width="2" stroke-miterlimit="10" d="M94.528 188.683l118.315 112.22"/><path clip-path="url(#d)" fill="#888" d="M91.94 191.411a3.76 3.76 0 1 1 5.175-5.455 3.76 3.76 0 0 1-5.175 5.455M210.255 303.631a3.76 3.76 0 0 0 5.315-.142 3.759 3.759 0 1 0-5.315.142"/></g><defs><path id="e" d="M424.163 1.314h293.104v293.104H424.163z"/></defs><clipPath id="f"><use xlink:href="#e" overflow="visible"/></clipPath><path clip-path="url(#f)" fill="#FFF" d="M708.827 117.175V99.34c0-78.386-11.187-89.585-89.496-89.585h-17.924a7.672 7.672 0 0 0-7.673-7.673h-46.038a7.672 7.672 0 0 0-7.673 7.673h-17.93c-78.31 0-89.49 11.199-89.49 89.585v17.835a7.672 7.672 0 0 0-7.673 7.673v46.038a7.672 7.672 0 0 0 7.673 7.673v17.835c0 78.383 11.181 89.586 89.49 89.586h17.93a7.673 7.673 0 0 0 7.673 7.673h46.038a7.673 7.673 0 0 0 7.673-7.673h17.924c78.31 0 89.496-11.203 89.496-89.586v-17.835a7.673 7.673 0 0 0 7.674-7.673v-46.038a7.673 7.673 0 0 0-7.674-7.673"/><path clip-path="url(#f)" fill="none" stroke="#D4D4D4" stroke-width="1.535" stroke-miterlimit="10" d="M708.827 117.175V99.34c0-78.386-11.187-89.585-89.496-89.585h-17.924a7.672 7.672 0 0 0-7.673-7.673h-46.038a7.672 7.672 0 0 0-7.673 7.673h-17.93c-78.31 0-89.49 11.199-89.49 89.585v17.835a7.672 7.672 0 0 0-7.673 7.673v46.038a7.672 7.672 0 0 0 7.673 7.673v17.835c0 78.383 11.181 89.586 89.49 89.586h17.93a7.673 7.673 0 0 0 7.673 7.673h46.038a7.673 7.673 0 0 0 7.673-7.673h17.924c78.31 0 89.496-11.203 89.496-89.586v-17.835a7.673 7.673 0 0 0 7.674-7.673v-46.038a7.673 7.673 0 0 0-7.674-7.673z"/><defs><path id="g" d="M545.743 78.145c-39.153 0-44.747 5.599-44.747 44.793v48.526c0 39.193 5.594 44.794 44.747 44.794h48.619c39.153 0 44.747-5.601 44.747-44.794v-48.526c0-39.194-5.594-44.793-44.747-44.793h-48.619z"/></defs><clipPath id="h"><use xlink:href="#g" overflow="visible"/></clipPath><linearGradient id="i" gradientUnits="userSpaceOnUse" x1="-24.081" y1="375.388" x2="-23.081" y2="375.388" gradientTransform="rotate(-90 -27192.824 24083.114) scale(138.113)"><stop offset="0" stop-color="#ec8b0e"/><stop offset="1" stop-color="#eca40e"/></linearGradient><path clip-path="url(#h)" fill="url(#i)" d="M500.996 78.145h138.113v138.113H500.996z"/><defs><path id="j" d="M545.743 78.145c-39.153 0-44.747 5.599-44.747 44.793v48.526c0 39.193 5.594 44.794 44.747 44.794h48.619c39.153 0 44.747-5.601 44.747-44.794v-48.526c0-39.194-5.594-44.793-44.747-44.793h-48.619z"/></defs><clipPath id="k"><use xlink:href="#j" overflow="visible"/></clipPath><g opacity=".094" clip-path="url(#k)"><defs><path id="l" d="M407.954 27.043h278.895v262.341H407.954z"/></defs><clipPath id="m"><use xlink:href="#l" overflow="visible"/></clipPath><g clip-path="url(#m)"><defs><path id="n" d="M493.848 78.537l128.945 171.352-174.347 39.495-40.492-135.472 44.277-68.688z"/></defs><clipPath id="p"><use xlink:href="#n" overflow="visible"/></clipPath><defs><filter id="o" filterUnits="userSpaceOnUse" x="306.159" y="-25.185" width="418.429" height="418.291"><feColorMatrix values="1 0 0 0 0 0 1 0 0 0 0 0 1 0 0 0 0 0 1 0"/></filter></defs><mask maskUnits="userSpaceOnUse" x="306.159" y="-25.185" width="418.429" height="418.291" id="r"><g filter="url(#o)"><linearGradient id="q" gradientUnits="userSpaceOnUse" x1="-24.081" y1="375.394" x2="-23.081" y2="375.394" gradientTransform="scale(-94.4527) rotate(-37.461 -570.96 159.935)"><stop offset="0" stop-color="#fff"/><stop offset="1"/></linearGradient><path clip-path="url(#p)" fill="url(#q)" d="M543.315-25.185L306.159 156.538l181.272 236.568 237.156-181.723z"/></g></mask><linearGradient id="s" gradientUnits="userSpaceOnUse" x1="-24.081" y1="375.392" x2="-23.081" y2="375.392" gradientTransform="rotate(142.539 5122.22 18286.101) scale(94.4528)"><stop offset="0" stop-color="#ea5420"/><stop offset="1" stop-color="#ea5420"/></linearGradient><path clip-path="url(#p)" mask="url(#r)" fill="url(#s)" d="M543.316-25.185L306.159 156.538l181.272 236.568 237.157-181.723z"/></g><g clip-path="url(#m)"><defs><path id="t" d="M493.848 78.537l128.945 171.352 64.055-68.968-67.936-153.878z"/></defs><clipPath id="v"><use xlink:href="#t" overflow="visible"/></clipPath><defs><filter id="u" filterUnits="userSpaceOnUse" x="386.326" y="-66.079" width="408.046" height="409.09"><feColorMatrix values="1 0 0 0 0 0 1 0 0 0 0 0 1 0 0 0 0 0 1 0"/></filter></defs><mask maskUnits="userSpaceOnUse" x="386.326" y="-66.079" width="408.046" height="409.09" id="x"><g filter="url(#u)"><linearGradient id="w" gradientUnits="userSpaceOnUse" x1="-24.081" y1="375.373" x2="-23.081" y2="375.373" gradientTransform="scale(65.6288) rotate(-37.398 -558.643 140.803)"><stop offset="0" stop-color="#fff"/><stop offset="1"/></linearGradient><path clip-path="url(#v)" fill="url(#w)" d="M565.041 343.011l229.331-175.323L615.657-66.079 386.326 109.244z"/></g></mask><linearGradient id="y" gradientUnits="userSpaceOnUse" x1="-24.081" y1="375.373" x2="-23.081" y2="375.373" gradientTransform="scale(65.6288) rotate(-37.398 -558.643 140.803)"><stop offset="0" stop-color="#fff"/><stop offset="1" stop-color="#fdf3cb"/></linearGradient><path clip-path="url(#v)" mask="url(#x)" fill="url(#y)" d="M565.041 343.011l229.331-175.323L615.657-66.079 386.326 109.244z"/></g></g><g opacity=".059" clip-path="url(#k)"><defs><path id="z" d="M375.113-15.87h304.386v271.734H375.113z"/></defs><clipPath id="A"><use xlink:href="#z" overflow="visible"/></clipPath><g clip-path="url(#A)"><defs><path id="B" d="M588.949 39.677L470.935 218.733 375.113 67.818 489.08-15.87l79.577 18.602z"/></defs><clipPath id="D"><use xlink:href="#B" overflow="visible"/></clipPath><defs><filter id="C" filterUnits="userSpaceOnUse" x="268.138" y="-113.375" width="427.786" height="429.614"><feColorMatrix values="1 0 0 0 0 0 1 0 0 0 0 0 1 0 0 0 0 0 1 0"/></filter></defs><mask maskUnits="userSpaceOnUse" x="268.138" y="-113.375" width="427.786" height="429.614" id="F"><g filter="url(#C)"><linearGradient id="E" gradientUnits="userSpaceOnUse" x1="-24.081" y1="375.254" x2="-23.081" y2="375.254" gradientTransform="scale(-94.4527) rotate(32.889 623.184 218.297)"><stop offset="0" stop-color="#fff"/><stop offset="1"/></linearGradient><path clip-path="url(#D)" fill="url(#E)" d="M695.923 53.306L438.165-113.375 268.138 149.558l257.758 166.681z"/></g></mask><linearGradient id="G" gradientUnits="userSpaceOnUse" x1="-24.081" y1="375.254" x2="-23.081" y2="375.254" gradientTransform="scale(-94.4527) rotate(32.889 623.184 218.297)"><stop offset="0" stop-color="#ea5420"/><stop offset="1" stop-color="#ea5420"/></linearGradient><path clip-path="url(#D)" mask="url(#F)" fill="url(#G)" d="M695.923 53.306L438.165-113.375 268.138 149.558l257.758 166.681z"/></g><g clip-path="url(#A)"><defs><path id="H" d="M588.949 39.677L470.935 218.733l86.491 37.132 122.073-115.724z"/></defs><clipPath id="J"><use xlink:href="#H" overflow="visible"/></clipPath><defs><filter id="I" filterUnits="userSpaceOnUse" x="372.259" y="-55.518" width="405.915" height="406.579"><feColorMatrix values="1 0 0 0 0 0 1 0 0 0 0 0 1 0 0 0 0 0 1 0"/></filter></defs><mask maskUnits="userSpaceOnUse" x="372.259" y="-55.518" width="405.915" height="406.579" id="L"><g filter="url(#I)"><linearGradient id="K" gradientUnits="userSpaceOnUse" x1="-24.081" y1="375.25" x2="-23.081" y2="375.25" gradientTransform="scale(65.6288) rotate(32.953 623.278 243.04)"><stop offset="0" stop-color="#fff"/><stop offset="1"/></linearGradient><path clip-path="url(#J)" fill="url(#K)" d="M372.259 191.901l245.531 159.16 160.384-247.419-245.53-159.161z"/></g></mask><linearGradient id="M" gradientUnits="userSpaceOnUse" x1="-24.081" y1="375.252" x2="-23.081" y2="375.252" gradientTransform="scale(65.6288) rotate(32.953 623.278 243.04)"><stop offset="0" stop-color="#fdf3cb"/><stop offset="1" stop-color="#fdf3cb"/></linearGradient><path clip-path="url(#J)" mask="url(#L)" fill="url(#M)" d="M372.259 191.901l245.531 159.16 160.384-247.419-245.53-159.16z"/></g></g><g><path fill="#CD750A" d="M553.114 98.495a5.24 5.24 0 0 0-.989.081 3.61 3.61 0 0 0-1.647.787c-.962.576-1.779 1.3-2.338 2.111l-.011.014a.275.275 0 0 0-.019.028l-15.386 23.061-.019.028a.725.725 0 0 0-.116.312c-.109.19-.215.378-.3.576h-7.373c-1.311 0-2.389 1.077-2.389 2.388s1.076 2.391 2.389 2.391h7.37c.292.587.614 1.156.871 1.498l.006.009.019.025 8.513 11.04H511.67c-1.312 0-2.389 1.08-2.389 2.391s1.076 2.391 2.389 2.391h33.713l3.324 4.314h-12.779c-1.312 0-2.389 1.08-2.389 2.391s1.076 2.391 2.389 2.391h16.47l2.27 2.942c1.071 1.501 2.767 2.514 4.254 2.97l14.963 4.594.054.017.014.003 4.12 1.178c.618.177 1.309.332 2.146.32.878-.013 2.031-.265 2.998-1.085.188-.16.156-.37.307-.548l-2.065 11.81c-.25.001-.5-.05-.745.003h-.003l-3.759.829.885-7.137.003-.022.005-.068v-.008c.104-1.062-.122-2.595-1.235-3.724-1.061-1.074-2.3-1.298-3.063-1.379h-.003a3.514 3.514 0 0 0-.177-.014l-3.979-.225c-1.586-.089-3.006.657-3.849 1.571a5.323 5.323 0 0 0-1.329 2.616v.005l-.003.003-2.417 11.237v.003c-.195.915-.28 1.655-.18 2.63.053.51.146.979.259 1.438.384 1.559.835 2.586 1.545 3.377h.003c.041.046.083.093.127.136l3.518 3.543.003.003.017.017c.095.094.213.16.343.191.586.559 1.226 1.125 2.023 1.422.937.349 1.741.408 2.402.461.103.008.205.012.307.011l7.845-.051 2.743.048h.005l7.475.068c1.422.018 3.163-.082 4.758-1.197 1.601-1.121 2.366-2.789 2.891-4.443l4.491-14.169 10.522 3.226.107.03.008.003c.973.263 1.935.415 3.004.287 1.111-.133 2.819-.732 3.616-2.525.8-1.8.09-3.492-.581-4.412-.517-.708-1.171-1.162-1.835-1.615a.71.71 0 0 0-.197-.225l-.021-.014-9.757-7.121-.762-.584.995-3.136.003-.009.02-.064.003-.014 1.161-3.962.008-.026.003-.014c.426-1.514.351-2.831.066-4.186a2.454 2.454 0 0 0-.042-.18l-6.308-23.994-.006-.014-.002-.011v-.003c-.5-1.846-1.969-3.527-3.724-4.462l-.007-.003c-.05-.026-.1-.052-.15-.076l-.006-.003-19.169-9.028h-.004l-1.404-.652c-.232-.957-.525-1.957-1.263-2.833-.971-1.155-2.068-1.691-3.093-2.219l-16.303-8.402c-.985-.546-1.945-1.064-3.251-1.281a5.48 5.48 0 0 0-.882-.081"/><path fill="#FEF9EE" d="M552.765 102.117c-.598.108-1.089.557-1.664 1.393l-14.703 22.044h16.909a2.303 2.303 0 1 1 0 4.603h-16.854l9.812 12.723h32.253l-3.858-27.987c-.335-2.035-.799-2.426-2.759-3.436l-16.399-8.455c-.877-.487-1.545-.788-2.099-.88a1.851 1.851 0 0 0-.638-.005m25.015 15.097l3.54 25.666h5.755a2.303 2.303 0 0 1 0 4.605h-5.12l.795 5.764 4.491 3.433c.959.741 1.41 1.928 1.166 3.378l-5.626 32.182 7.475.067c2.36.033 3.338-.451 4.187-3.127l9.591-30.257 1.163-3.979c.178-.634.18-1.642.005-2.479l-6.306-23.993c-.26-.964-.789-1.613-1.943-2.229l-19.173-9.031zm15.391 11.282a2.789 2.789 0 0 1 2.525 3.51c-.399 1.488-1.924 2.371-3.412 1.972a2.791 2.791 0 0 1 .887-5.482m-43.353 18.989l3.465 4.496h11.062a2.302 2.302 0 1 1 0 4.603h-7.511l.762.989c.691.968 1.239 1.271 2.38 1.621l14.964 4.595 4.121 1.177c1.723.493 2.428.047 2.181-1.998l-.253-2.155-1.837-13.328h-29.334zm55.284 19.144l-1.807 5.991 10.641 3.262c2.735.738 3.34-.64.947-2.113l-9.781-7.14zm-35.916 4.139c-.86-.048-1.338.728-1.459 1.321l-2.425 11.276 7.762-1.52 1.199-9.672c.078-.784-.291-1.093-1.101-1.18l-3.976-.225zm12.297 11.67l-15.222 3.352c-1.065.295-.981.964-.172 1.866l3.544 3.569c.711.798 1.297.924 2.498 1.02l7.851-.051 1.501-9.756z"/><g opacity=".3" enable-background="new"><defs><path id="N" d="M500.995 78.145h138.111v47.562H500.995z"/></defs><clipPath id="O"><use xlink:href="#N" overflow="visible"/></clipPath><path clip-path="url(#O)" d="M594.359 78.145h-48.617c-39.155 0-44.747 5.599-44.747 44.793v2.769c0-39.193 5.604-44.8 44.756-44.8h48.6c39.154 0 44.756 5.607 44.756 44.8v-2.769c0-39.194-5.593-44.793-44.748-44.793"/></g><defs><path id="P" d="M0 0h189.178v189.178H0z"/></defs><clipPath id="Q"><use xlink:href="#P" overflow="visible"/></clipPath><path clip-path="url(#Q)" fill="#FFF" d="M183.731 74.78V63.269c0-50.593-7.221-57.821-57.764-57.821h-11.568a4.952 4.952 0 0 0-4.952-4.952H79.732a4.952 4.952 0 0 0-4.952 4.952H63.208c-50.543 0-57.76 7.229-57.76 57.821V74.78a4.952 4.952 0 0 0-4.952 4.952v29.714a4.952 4.952 0 0 0 4.952 4.953v11.511c0 50.591 7.217 57.821 57.76 57.821H74.78a4.952 4.952 0 0 0 4.952 4.952h29.714a4.952 4.952 0 0 0 4.952-4.952h11.568c50.543 0 57.764-7.23 57.764-57.821v-11.511a4.952 4.952 0 0 0 4.952-4.953V79.732a4.95 4.95 0 0 0-4.951-4.952"/><path clip-path="url(#Q)" fill="none" stroke="#D4D4D4" stroke-width=".991" stroke-miterlimit="10" d="M183.731 74.78V63.269c0-50.593-7.221-57.821-57.764-57.821h-11.568a4.952 4.952 0 0 0-4.952-4.952H79.732a4.952 4.952 0 0 0-4.952 4.952H63.208c-50.543 0-57.76 7.229-57.76 57.821V74.78a4.952 4.952 0 0 0-4.952 4.952v29.714a4.952 4.952 0 0 0 4.952 4.953v11.511c0 50.591 7.217 57.821 57.76 57.821H74.78a4.952 4.952 0 0 0 4.952 4.952h29.714a4.952 4.952 0 0 0 4.952-4.952h11.568c50.543 0 57.764-7.23 57.764-57.821v-11.511a4.952 4.952 0 0 0 4.952-4.953V79.732a4.95 4.95 0 0 0-4.951-4.952z"/></g><g><defs><path id="R" d="M78.47 49.589c-25.271 0-28.882 3.613-28.882 28.911v31.32c0 25.297 3.611 28.911 28.882 28.911h31.38c25.271 0 28.881-3.614 28.881-28.911V78.5c0-25.298-3.61-28.911-28.881-28.911H78.47z"/></defs><clipPath id="S"><use xlink:href="#R" overflow="visible"/></clipPath><linearGradient id="T" gradientUnits="userSpaceOnUse" x1="-24.082" y1="375.387" x2="-23.082" y2="375.387" gradientTransform="rotate(-90 -17688.405 15680.42) scale(89.1424)"><stop offset="0" stop-color="#69be28"/><stop offset="1" stop-color="#83d445"/></linearGradient><path clip-path="url(#S)" fill="url(#T)" d="M49.588 49.589h89.143v89.142H49.588z"/></g><g><defs><path id="U" d="M78.469 49.589c-25.27 0-28.881 3.613-28.881 28.911v31.32c0 25.297 3.611 28.911 28.881 28.911h31.381c25.271 0 28.881-3.614 28.881-28.911V78.5c0-25.298-3.61-28.911-28.881-28.911H78.469z"/></defs><clipPath id="V"><use xlink:href="#U" overflow="visible"/></clipPath><g opacity=".134" clip-path="url(#V)"><defs><path id="W" d="M26.563-17.484h153.509v199.249H26.563z"/></defs><clipPath id="X"><use xlink:href="#W" overflow="visible"/></clipPath><g clip-path="url(#X)"><defs><path id="Y" d="M43.502 61.463l136.017 25.643-65.975 94.659-78.226-46.999-8.756-52.014z"/></defs><clipPath id="aa"><use xlink:href="#Y" overflow="visible"/></clipPath><defs><filter id="Z" filterUnits="userSpaceOnUse" x="5.64" y="34.862" width="194.8" height="173.504"><feColorMatrix values="1 0 0 0 0 0 1 0 0 0 0 0 1 0 0 0 0 0 1 0"/></filter></defs><mask maskUnits="userSpaceOnUse" x="5.64" y="34.862" width="194.8" height="173.504" id="ac"><g filter="url(#Z)"><linearGradient id="ab" gradientUnits="userSpaceOnUse" x1="-24.081" y1="375.282" x2="-23.081" y2="375.282" gradientTransform="rotate(100.177 8858.207 12137.66) scale(60.9627)"><stop offset="0" stop-color="#fff"/><stop offset="1"/></linearGradient><path clip-path="url(#aa)" fill="url(#ab)" d="M31.338 34.862L5.64 178.009l169.103 30.358L200.44 65.219z"/></g></mask><linearGradient id="ad" gradientUnits="userSpaceOnUse" x1="-24.081" y1="375.283" x2="-23.081" y2="375.283" gradientTransform="rotate(100.177 8858.207 12137.66) scale(60.9627)"><stop offset="0" stop-color="#4d9a35"/><stop offset="1" stop-color="#4d9a35"/></linearGradient><path clip-path="url(#aa)" mask="url(#ac)" fill="url(#ad)" d="M31.338 34.862L5.64 178.009l169.103 30.358L200.44 65.219z"/></g><g clip-path="url(#X)"><defs><path id="ae" d="M43.502 61.463l136.017 25.643.553-60.749-99.32-43.841z"/></defs><clipPath id="ag"><use xlink:href="#ae" overflow="visible"/></clipPath><defs><filter id="af" filterUnits="userSpaceOnUse" x="25.204" y="-41.377" width="173.167" height="152.376"><feColorMatrix values="1 0 0 0 0 0 1 0 0 0 0 0 1 0 0 0 0 0 1 0"/></filter></defs><mask maskUnits="userSpaceOnUse" x="25.204" y="-41.377" width="173.167" height="152.376" id="ai"><g filter="url(#af)"><linearGradient id="ah" gradientUnits="userSpaceOnUse" x1="-24.081" y1="375.23" x2="-23.081" y2="375.23" gradientTransform="rotate(-79.759 -9925.392 7310.486) scale(42.3588)"><stop offset="0" stop-color="#fff"/><stop offset="1"/></linearGradient><path clip-path="url(#ag)" fill="url(#ah)" d="M175.756 111l22.615-125.178L47.819-41.377 25.204 83.8z"/></g></mask><linearGradient id="aj" gradientUnits="userSpaceOnUse" x1="-24.081" y1="375.23" x2="-23.081" y2="375.23" gradientTransform="rotate(-79.759 -9925.392 7310.486) scale(42.3588)"><stop offset="0" stop-color="#c7df6e"/><stop offset="1" stop-color="#c7df6e"/></linearGradient><path clip-path="url(#ag)" mask="url(#ai)" fill="url(#aj)" d="M175.756 111l22.615-125.178L47.819-41.377 25.204 83.8z"/></g></g><g opacity=".138" clip-path="url(#V)"><defs><path id="ak" d="M-24.082-3.851h194.631v176.876H-24.082z"/></defs><clipPath id="al"><use xlink:href="#ak" overflow="visible"/></clipPath><g clip-path="url(#al)"><defs><path id="am" d="M31.963 134.851l80.326-112.72 58.26 99.591-75.475 51.303-50.889-13.868z"/></defs><clipPath id="ao"><use xlink:href="#am" overflow="visible"/></clipPath><defs><filter id="an" filterUnits="userSpaceOnUse" x="-38.911" y="-42.962" width="280.334" height="281.081"><feColorMatrix values="1 0 0 0 0 0 1 0 0 0 0 0 1 0 0 0 0 0 1 0"/></filter></defs><mask maskUnits="userSpaceOnUse" x="-38.911" y="-42.962" width="280.334" height="281.081" id="aq"><g filter="url(#an)"><linearGradient id="ap" gradientUnits="userSpaceOnUse" x1="-24.081" y1="375.265" x2="-23.081" y2="375.265" gradientTransform="scale(60.9627) rotate(34.975 582.073 228.427)"><stop offset="0" stop-color="#fff"/><stop offset="1"/></linearGradient><path clip-path="url(#ao)" fill="url(#ap)" d="M-38.911 123.445l163.925 114.674L241.423 71.711 77.499-42.962z"/></g></mask><linearGradient id="ar" gradientUnits="userSpaceOnUse" x1="-24.081" y1="375.265" x2="-23.081" y2="375.265" gradientTransform="scale(60.9627) rotate(34.975 582.073 228.427)"><stop offset="0" stop-color="#4d9a35"/><stop offset="1" stop-color="#4d9a35"/></linearGradient><path clip-path="url(#ao)" mask="url(#aq)" fill="url(#ar)" d="M-38.911 123.445l163.925 114.674L241.423 71.711 77.499-42.962z"/></g><g clip-path="url(#al)"><defs><path id="as" d="M31.963 134.851l80.326-112.72L57.374-3.851l-81.456 71.775z"/></defs><clipPath id="au"><use xlink:href="#as" overflow="visible"/></clipPath><defs><filter id="at" filterUnits="userSpaceOnUse" x="-89.282" y="-67.955" width="266.771" height="266.91"><feColorMatrix values="1 0 0 0 0 0 1 0 0 0 0 0 1 0 0 0 0 0 1 0"/></filter></defs><mask maskUnits="userSpaceOnUse" x="-89.282" y="-67.955" width="266.771" height="266.91" id="aw"><g filter="url(#at)"><linearGradient id="av" gradientUnits="userSpaceOnUse" x1="-24.081" y1="375.259" x2="-23.081" y2="375.259" gradientTransform="scale(-42.3588) rotate(35.038 584.64 222.214)"><stop offset="0" stop-color="#fff"/><stop offset="1"/></linearGradient><path clip-path="url(#au)" fill="url(#av)" d="M177.489 41.868L20.868-67.955-89.282 89.133 67.339 198.956z"/></g></mask><linearGradient id="ax" gradientUnits="userSpaceOnUse" x1="-24.081" y1="375.258" x2="-23.081" y2="375.258" gradientTransform="scale(-42.3588) rotate(35.038 584.64 222.214)"><stop offset="0" stop-color="#c7df6e"/><stop offset="1" stop-color="#c7df6e"/></linearGradient><path clip-path="url(#au)" mask="url(#aw)" fill="url(#ax)" d="M177.489 41.868L20.868-67.955-89.282 89.133 67.339 198.956z"/></g></g></g><g><path fill="#5AA223" d="M92.864 69.546a.44.44 0 0 0-.16.033c-.389-.01-.802.01-1.275.19-.875.332-1.351 1.026-1.652 1.616-.13.18-.238.376-.312.586l-.005.014-.006.018-1.093 3.225-14.975 3.435a.462.462 0 0 0-.187.092c-.383.086-.795.171-1.223.463-.526.359-.817.776-.997 1.025l-5.887 8.152.016-.02c-.636.785-.974 1.66-1.16 2.357l-3.424 12.79.054.002c-.542 0-1.533.138-2.224.992-.524.649-.583 1.267-.583 1.599a2.216 2.216 0 0 0-.013.234v.947c0 .422.06 1.38.876 2.117.793.716 1.66.694 1.971.694h2.53l-.337 4.783-.004.031h.002l-.002.016a.458.458 0 0 0 .015.152c-.08.802-.053 1.841.789 2.713.93.964 2.047.958 2.642.958h3.252c.717 0 1.686-.143 2.474-.84.774-.685 1.017-1.545 1.142-2.151l.004-.021.002-.017.656-3.4 1.281 3.826.001.006a.482.482 0 0 0 .077.136c.232.673.637 1.412 1.385 1.891.808.518 1.626.57 2.224.57h3.85c.763 0 1.809-.307 2.468-1.183.629-.833.682-1.75.626-2.462l-.687-8.727 3.676-.993.02-.005h.003l.028-.007.758-.216-.639 9.851a.489.489 0 0 0 .011.127c-.045.644-.053 1.633.742 2.534.857.971 2.004 1.081 2.789 1.081h2.574c.757 0 1.903-.238 2.635-1.13.668-.814.735-1.56.836-2.084l.686-3.56 2.21 4.073c.331.651.746 1.419 1.593 1.999.861.59 1.833.702 2.651.702h3.169c.39 0 .868-.041 1.392-.267a2.887 2.887 0 0 0 1.415-1.322c.553-1.099.287-2.01.14-2.559l-.002-.007-.002-.009-4.509-16.546 1.493.055-.013-.002.029.002.029.002 1.897.03c.322.006.707-.007 1.165-.137.171-.049.26-.179.397-.267l.468 5.706a.05.05 0 0 0 .002.012c.059.668.159 1.359.551 2.064.352.634.864.988 1.291 1.266a.47.47 0 0 0 .165.178l.015.009.003.002.026.014 3.273 2.012a.054.054 0 0 1 .013.007c1.075.618 1.948.812 3.049.956l.036.001 3.834.193c.065.004.123.004.176.003h.001c.305-.007.743-.013 1.277-.181.447-.14.798-.426 1.129-.702a.463.463 0 0 0 .223-.109l1.65-1.492a1.95 1.95 0 0 0 .083-.082c.355-.354.721-.847 1.027-1.921.148-.519.226-1.21.072-1.98l-.798-4.998a3.063 3.063 0 0 0-.687-1.551c-.468-.565-1.284-1.05-2.225-1.048l-1.761.003c-.039 0-.077 0-.116.002h-.004c-.41.022-1.162.11-1.841.729-.18.165-.241.368-.359.557l.209-6.942v-.024l.041-1.828v-.022c.012-.876-.21-1.504-.529-2.136l-.002-.002c-.018-.035-.037-.068-.056-.102v-.002l-5.439-9.525v-.002l-.011-.021c-.526-.906-1.564-1.591-2.572-1.825-.035-.008-.07-.017-.103-.023l-.007-.002-9.232-1.665h-.002c-.142-.026-.286-.01-.429-.009-.191-.346-.373-.74-.827-1.056-.693-.482-1.336-.597-1.836-.705h-.002l-7.921-1.723c-.32-.08-.682-.187-1.112-.221h-.002c-.015-.002-.03-.002-.045-.002zm.674 4.866l7.422 1.616.02.003 7.338 17.415-6.359-.229-11.752-8.975 3.331-9.83zm14.892 4.18l1.045.189c-.122.334-.283.648-.283 1.037 0 .4.106.773.232 1.134l-.994-2.36zm-22.989 2.07l-1.295 3.824a2.94 2.94 0 0 0 .992 3.27l.002.002.003.002 13.998 10.689c.483.37 1.069.58 1.675.603h.017l1.819.065 4.086 15H105.555c-.031-.054-.044-.065-.088-.152l-.004-.007-.027-.055-.002-.002-5.334-9.833a2.402 2.402 0 0 0-.214-.316l-1.884-3.456-.002-.002-.026-.04-.001-.002a2.94 2.94 0 0 0-2.63-1.485h-.002a2.871 2.871 0 0 0-.595.092h-.003a.516.516 0 0 0-.124.018l-7.153 2.035-4.365 1.177-.058.015-.011.003c-.731.222-1.665.637-2.247 1.585-.541.882-.517 1.745-.464 2.364-.004.03-.006.061-.004.092l.002.024.002.012.624 7.933h-1.681l-6.343-18.968a2.927 2.927 0 0 0-.651-1.087l-1.579-1.674a2.932 2.932 0 0 0-2.055-.91c.028-.035.005-.086.08-.178l.078-.103.002-.002 5.814-8.049 10.831-2.484zm24.171.736c.593 1.154 1.766 1.977 3.136 1.977.832 0 1.54-.365 2.138-.853l3.419 5.989c.007.032.016.075.033.139l.007.024-.036 1.636-.398 13.207-.64-.394-.009-.082-.003-.018-.869-10.566v-.001l-.002-.022v-.004c-.129-1.358-.99-2.688-2.301-3.236l-.042-.016h-.002l-1.395-.575-3.036-7.205zm-40.55 20.722l1.239 3.705-1.602 8.292h-1.195l.66-9.358c.287-.837.578-1.692.898-2.639m47.961 1.381l-.006.011-.007-.006a.024.024 0 0 0 .013-.005zm-22.906 1.937l1.128 2.071-1.269 6.607h-.423l.564-8.678z"/><path fill="#F2FAEB" d="M91.652 72.745L87.71 84.382c-.246.573.082.928.487 1.245l12.423 9.486c.406.335.676.403 1.203.422l6.923.25 1.898.031c.792.013 1.043-.259.703-1.105l-.354-.892-7.967-18.906c-.376-.832-.621-.946-1.574-1.154l-7.978-1.736c-1.149-.286-1.502-.181-1.822.721v.001zm12.975 2.802l6.252 14.837 2.312.953c.495.207.824.664.885 1.311l.873 10.6c.096 1.083.314 1.38.911 1.733l3.317 2.036c.479.297.967.433.963-.362l.488-16.284.041-1.833c.004-.292-.111-.723-.282-1.06l-5.443-9.535c-.222-.382-.522-.6-1.086-.731l-9.231-1.665zM88.971 77.47l-15.068 3.456c-.582.099-.722.232-1.043.675l-5.948 8.236c-.424.523-.569.916-.724 1.495l-3.56 13.307 1.818.021c.396-1.152.827-2.417 1.289-3.786 1.13-3.346 2.237-6.666 2.237-6.666a.616.616 0 0 1 1.029-.227l1.582 1.676a.612.612 0 0 1 .136.227l6.534 19.544c.228.804.644 1.01 1.484 1.01h3.85c.535 0 .846-.307.78-1.14l-.736-9.333c-.089-.942.082-1.335 1.074-1.635l4.381-1.18 7.168-2.04a.616.616 0 0 1 .708.297l2.085 3.826.011-.058 5.334 9.833c.568 1.119.936 1.43 2.175 1.43h3.169c.798 0 .922-.416.704-1.232l-4.998-18.346-3.542-.128a.617.617 0 0 1-.35-.126l-13.999-10.69a.614.614 0 0 1-.209-.685l2.629-7.761zm23.777 1.113a1.234 1.234 0 1 1 0 2.468 1.234 1.234 0 0 1 0-2.468M68.812 95.57c-.256.768-.945 2.837-1.911 5.698-.369 1.093-.704 2.069-1.032 3.027l-.759 10.804c-.161 1.123.207 1.339 1.131 1.339h3.251c.878 0 1.17-.306 1.342-1.139l1.862-9.631-3.098-9.267-.786-.831zm58.012 2.844l-1.762.002c-.36.02-.531.149-.515.497l.302 4.302 3.393.857-.804-5.041c-.04-.265-.231-.619-.614-.617zm-31.706 4.013l-3.19.907-.769 11.836c-.076.909.136 1.268 1.223 1.268h2.575c.846 0 .995-.304 1.192-1.329l1.533-7.978-2.564-4.704zm26.248.939l-.191 4.277 3.839.192c.532-.014.794-.057 1.127-.392l1.65-1.494c.38-.379.434-.672-.03-.828l-6.395-1.755zm-61.288 2.988v.942c0 .397.12.49.526.49h2.731a.66.66 0 0 1 .074-.195 24.167 24.167 0 0 0 .204-.538c.103-.286.258-.729.412-1.169l-3.447-.038c-.449 0-.5.173-.5.508z"/><g opacity=".3" enable-background="new"><defs><path id="ay" d="M49.589 49.589h89.141v30.698H49.589z"/></defs><clipPath id="az"><use xlink:href="#ay" overflow="visible"/></clipPath><path clip-path="url(#az)" d="M109.849 49.589H78.47c-25.271 0-28.881 3.614-28.881 28.911v1.787c0-25.297 3.617-28.915 28.887-28.915h31.367c25.272 0 28.887 3.618 28.887 28.915V78.5c.001-25.297-3.609-28.911-28.881-28.911"/></g><defs><path id="aA" d="M212.453 226.469h148.918v148.919H212.453z"/></defs><clipPath id="aB"><use xlink:href="#aA" overflow="visible"/></clipPath><path clip-path="url(#aB)" fill="#FFF" d="M357.083 285.335v-9.062c0-39.826-5.684-45.516-45.471-45.516h-9.106a3.897 3.897 0 0 0-3.898-3.898h-23.39a3.896 3.896 0 0 0-3.898 3.898h-9.11c-39.787 0-45.468 5.689-45.468 45.516v9.062a3.898 3.898 0 0 0-3.898 3.898v23.391a3.897 3.897 0 0 0 3.898 3.897v9.062c0 39.825 5.681 45.517 45.468 45.517h9.11a3.898 3.898 0 0 0 3.898 3.898h23.39a3.898 3.898 0 0 0 3.898-3.898h9.106c39.788 0 45.471-5.691 45.471-45.517v-9.062a3.897 3.897 0 0 0 3.898-3.897v-23.391a3.897 3.897 0 0 0-3.898-3.898"/><path clip-path="url(#aB)" fill="none" stroke="#D4D4D4" stroke-width=".78" stroke-miterlimit="10" d="M357.083 285.335v-9.062c0-39.826-5.684-45.516-45.471-45.516h-9.106a3.897 3.897 0 0 0-3.898-3.898h-23.39a3.896 3.896 0 0 0-3.898 3.898h-9.11c-39.787 0-45.468 5.689-45.468 45.516v9.062a3.898 3.898 0 0 0-3.898 3.898v23.391a3.897 3.897 0 0 0 3.898 3.897v9.062c0 39.825 5.681 45.517 45.468 45.517h9.11a3.898 3.898 0 0 0 3.898 3.898h23.39a3.898 3.898 0 0 0 3.898-3.898h9.106c39.788 0 45.471-5.691 45.471-45.517v-9.062a3.897 3.897 0 0 0 3.898-3.897v-23.391a3.897 3.897 0 0 0-3.898-3.898z"/></g><g><defs><path id="aC" d="M274.224 265.505c-19.893 0-22.735 2.845-22.735 22.759v24.654c0 19.913 2.842 22.758 22.735 22.758h24.702c19.893 0 22.735-2.845 22.735-22.758v-24.654c0-19.914-2.842-22.759-22.735-22.759h-24.702z"/></defs><clipPath id="aD"><use xlink:href="#aC" overflow="visible"/></clipPath><linearGradient id="aE" gradientUnits="userSpaceOnUse" x1="-24.081" y1="375.387" x2="-23.081" y2="375.387" gradientTransform="rotate(-90 -13704.566 12350.426) scale(70.1716)"><stop offset="0" stop-color="#69be28"/><stop offset="1" stop-color="#83d445"/></linearGradient><path clip-path="url(#aD)" fill="url(#aE)" d="M251.488 265.505h70.172v70.171h-70.172z"/></g><g><defs><path id="aF" d="M274.224 265.505c-19.893 0-22.735 2.845-22.735 22.759v24.654c0 19.913 2.842 22.758 22.735 22.758h24.702c19.893 0 22.735-2.845 22.735-22.758v-24.654c0-19.914-2.842-22.759-22.735-22.759h-24.702z"/></defs><clipPath id="aG"><use xlink:href="#aF" overflow="visible"/></clipPath><g opacity=".134" clip-path="url(#aG)"><defs><path id="aH" d="M233.363 212.708h120.84v156.845h-120.84z"/></defs><clipPath id="aI"><use xlink:href="#aH" overflow="visible"/></clipPath><g clip-path="url(#aI)"><defs><path id="aJ" d="M246.697 274.853l107.07 20.186-51.934 74.514-61.579-36.997-6.891-40.945z"/></defs><clipPath id="aL"><use xlink:href="#aJ" overflow="visible"/></clipPath><defs><filter id="aK" filterUnits="userSpaceOnUse" x="216.894" y="253.914" width="153.343" height="136.579"><feColorMatrix values="1 0 0 0 0 0 1 0 0 0 0 0 1 0 0 0 0 0 1 0"/></filter></defs><mask maskUnits="userSpaceOnUse" x="216.894" y="253.914" width="153.343" height="136.579" id="aN"><g filter="url(#aK)"><linearGradient id="aM" gradientUnits="userSpaceOnUse" x1="-24.081" y1="375.282" x2="-23.081" y2="375.282" gradientTransform="scale(-47.989) rotate(-79.823 -243.059 174)"><stop offset="0" stop-color="#fff"/><stop offset="1"/></linearGradient><path clip-path="url(#aL)" fill="url(#aM)" d="M237.123 253.914l-20.229 112.682 133.114 23.897 20.229-112.683z"/></g></mask><linearGradient id="aO" gradientUnits="userSpaceOnUse" x1="-24.081" y1="375.281" x2="-23.081" y2="375.281" gradientTransform="scale(-47.989) rotate(-79.823 -243.058 174)"><stop offset="0" stop-color="#4d9a35"/><stop offset="1" stop-color="#4d9a35"/></linearGradient><path clip-path="url(#aL)" mask="url(#aN)" fill="url(#aO)" d="M237.123 253.914l-20.229 112.682 133.114 23.897 20.229-112.683z"/></g><g clip-path="url(#aI)"><defs><path id="aP" d="M246.697 274.853l107.07 20.186.437-47.821-78.183-34.51z"/></defs><clipPath id="aR"><use xlink:href="#aP" overflow="visible"/></clipPath><defs><filter id="aQ" filterUnits="userSpaceOnUse" x="232.293" y="193.899" width="136.314" height="119.948"><feColorMatrix values="1 0 0 0 0 0 1 0 0 0 0 0 1 0 0 0 0 0 1 0"/></filter></defs><mask maskUnits="userSpaceOnUse" x="232.293" y="193.899" width="136.314" height="119.948" id="aT"><g filter="url(#aQ)"><linearGradient id="aS" gradientUnits="userSpaceOnUse" x1="-24.081" y1="375.229" x2="-23.081" y2="375.229" gradientTransform="rotate(-79.759 -7571.381 5740.799) scale(33.3443)"><stop offset="0" stop-color="#fff"/><stop offset="1"/></linearGradient><path clip-path="url(#aR)" fill="url(#aS)" d="M350.805 313.847l17.803-98.538-118.513-21.41-17.802 98.537z"/></g></mask><linearGradient id="aU" gradientUnits="userSpaceOnUse" x1="-24.081" y1="375.229" x2="-23.081" y2="375.229" gradientTransform="rotate(-79.759 -7571.381 5740.799) scale(33.3443)"><stop offset="0" stop-color="#c7df6e"/><stop offset="1" stop-color="#c7df6e"/></linearGradient><path clip-path="url(#aR)" mask="url(#aT)" fill="url(#aU)" d="M350.805 313.847l17.803-98.538-118.513-21.41-17.802 98.537z"/></g></g><g opacity=".138" clip-path="url(#aG)"><defs><path id="aV" d="M193.497 223.438h153.211v139.234H193.497z"/></defs><clipPath id="aW"><use xlink:href="#aV" overflow="visible"/></clipPath><g clip-path="url(#aW)"><defs><path id="aX" d="M237.614 332.623l63.23-88.732 45.864 78.398-59.414 40.383-40.06-10.916z"/></defs><clipPath id="aZ"><use xlink:href="#aX" overflow="visible"/></clipPath><defs><filter id="aY" filterUnits="userSpaceOnUse" x="181.824" y="192.651" width="220.675" height="221.262"><feColorMatrix values="1 0 0 0 0 0 1 0 0 0 0 0 1 0 0 0 0 0 1 0"/></filter></defs><mask maskUnits="userSpaceOnUse" x="181.824" y="192.651" width="220.675" height="221.262" id="bb"><g filter="url(#aY)"><linearGradient id="ba" gradientUnits="userSpaceOnUse" x1="-24.081" y1="375.263" x2="-23.081" y2="375.263" gradientTransform="scale(47.989) rotate(34.975 576.796 237.812)"><stop offset="0" stop-color="#fff"/><stop offset="1"/></linearGradient><path clip-path="url(#aZ)" fill="url(#ba)" d="M181.824 323.644l129.038 90.269 91.637-130.994-129.04-90.268z"/></g></mask><linearGradient id="bc" gradientUnits="userSpaceOnUse" x1="-24.081" y1="375.263" x2="-23.081" y2="375.263" gradientTransform="scale(47.989) rotate(34.975 576.796 237.812)"><stop offset="0" stop-color="#4d9a35"/><stop offset="1" stop-color="#4d9a35"/></linearGradient><path clip-path="url(#aZ)" mask="url(#bb)" fill="url(#bc)" d="M181.824 323.644l129.038 90.269 91.637-130.994-129.04-90.268z"/></g><g clip-path="url(#aW)"><defs><path id="bd" d="M237.614 332.623l63.23-88.732-43.227-20.453-64.12 56.501z"/></defs><clipPath id="bf"><use xlink:href="#bd" overflow="visible"/></clipPath><defs><filter id="be" filterUnits="userSpaceOnUse" x="142.172" y="172.977" width="209.998" height="210.107"><feColorMatrix values="1 0 0 0 0 0 1 0 0 0 0 0 1 0 0 0 0 0 1 0"/></filter></defs><mask maskUnits="userSpaceOnUse" x="142.172" y="172.977" width="209.998" height="210.107" id="bh"><g filter="url(#be)"><linearGradient id="bg" gradientUnits="userSpaceOnUse" x1="-24.081" y1="375.259" x2="-23.081" y2="375.259" gradientTransform="rotate(-144.962 -2196.978 6233.424) scale(33.3443)"><stop offset="0" stop-color="#fff"/><stop offset="1"/></linearGradient><path clip-path="url(#bf)" fill="url(#bg)" d="M352.169 259.427l-123.289-86.45-86.708 123.656 123.289 86.45z"/></g></mask><linearGradient id="bi" gradientUnits="userSpaceOnUse" x1="-24.081" y1="375.258" x2="-23.081" y2="375.258" gradientTransform="rotate(-144.962 -2196.978 6233.425) scale(33.3443)"><stop offset="0" stop-color="#c7df6e"/><stop offset="1" stop-color="#c7df6e"/></linearGradient><path clip-path="url(#bf)" mask="url(#bh)" fill="url(#bi)" d="M352.169 259.427l-123.289-86.45-86.708 123.656 123.289 86.45z"/></g></g></g><g><path fill="#5AA223" d="M285.553 281.214a.382.382 0 0 0-.125.026 2.543 2.543 0 0 0-1.004.149c-.689.263-1.064.809-1.3 1.272a1.81 1.81 0 0 0-.246.461l-.004.012-.005.015-.86 2.537-11.788 2.704a.387.387 0 0 0-.148.073c-.301.067-.625.134-.962.364-.414.283-.643.611-.785.807l-4.634 6.417.013-.016c-.501.618-.767 1.307-.914 1.855l-2.695 10.068.043.001c-.427 0-1.208.109-1.751.781a1.956 1.956 0 0 0-.459 1.26 1.56 1.56 0 0 0-.01.184v.745c0 .332.047 1.086.689 1.666.624.564 1.307.547 1.552.547h1.992l-.266 3.765-.003.024h.002l-.002.014c-.003.04.001.08.012.119-.063.632-.042 1.448.621 2.136.732.759 1.611.754 2.08.754h2.559c.565 0 1.328-.113 1.948-.661.609-.539.801-1.217.899-1.693l.003-.017.001-.013.517-2.678 1.008 3.013.002.005a.338.338 0 0 0 .06.106c.183.53.501 1.112 1.09 1.489.636.407 1.281.448 1.751.448h3.031c.6 0 1.423-.242 1.943-.931.494-.656.536-1.379.492-1.938l-.541-6.87 2.894-.781.016-.005h.002l.022-.005.597-.17-.503 7.755a.349.349 0 0 0 .009.101c-.036.507-.042 1.284.584 1.993.674.766 1.577.852 2.195.852h2.026c.596 0 1.498-.188 2.074-.889.526-.642.579-1.229.659-1.642l.539-2.802 1.741 3.206c.259.512.586 1.117 1.253 1.574.678.464 1.443.552 2.087.552h2.494c.308 0 .684-.033 1.097-.21a2.274 2.274 0 0 0 1.113-1.041c.435-.865.226-1.582.11-2.014l-.001-.007-.002-.007-3.549-13.023 1.175.043-.01-.002.023.002.023.001 1.493.023c.254.005.556-.005.917-.107.135-.039.204-.142.312-.21l.369 4.49.001.011c.047.525.126 1.069.434 1.625.278.499.68.776 1.017.996.03.058.075.105.13.14l.011.008.003.001.02.011 2.577 1.584c.003.002.006.005.01.006.846.486 1.533.639 2.4.753l.028.001 3.018.151c.051.003.097.003.139.002h.001c.239-.005.584-.01 1.005-.142.352-.111.628-.336.888-.553a.378.378 0 0 0 .176-.086l1.299-1.175.003-.003.063-.062c.278-.279.567-.666.808-1.512a3.36 3.36 0 0 0 .057-1.56l-.628-3.934a2.431 2.431 0 0 0-.541-1.222 2.326 2.326 0 0 0-1.752-.824l-1.386.003-.092.001h-.003c-.323.017-.914.087-1.449.574-.142.13-.19.289-.282.438l.164-5.466v-.019l.033-1.438v-.017c.008-.69-.166-1.185-.417-1.683l-.002-.002-.044-.08v-.001l-4.282-7.498v-.001a.142.142 0 0 0-.008-.018c-.414-.713-1.231-1.252-2.025-1.437a1.176 1.176 0 0 0-.081-.018l-.006-.002-7.266-1.311h-.002c-.112-.021-.225-.009-.338-.008-.15-.271-.294-.582-.651-.83-.545-.38-1.051-.47-1.445-.556h-.001l-6.236-1.356c-.252-.062-.537-.146-.875-.174h-.002c-.011.007-.024.006-.036.006zm.532 3.831l5.842 1.272.015.003 5.776 13.708-5.005-.181-9.251-7.064 2.623-7.738zm11.723 3.291l.822.148c-.096.263-.222.51-.222.816 0 .315.084.608.182.893l-.782-1.857zm-18.098 1.628l-1.019 3.011a2.314 2.314 0 0 0 .781 2.574l.001.002.003.001 11.019 8.415c.38.291.841.456 1.319.475h.013l1.432.051 3.216 11.808h-.931c-.025-.042-.035-.051-.07-.12l-.003-.005c-.008-.017-.015-.033-.021-.043l-.001-.002-4.199-7.74a1.817 1.817 0 0 0-.169-.249l-1.483-2.721-.001-.001-.02-.032-.002-.001a2.314 2.314 0 0 0-2.07-1.169h-.001a2.28 2.28 0 0 0-.469.072h-.002a.408.408 0 0 0-.098.015l-5.63 1.603-3.437.926-.045.012-.009.002c-.575.175-1.311.502-1.769 1.248-.426.694-.407 1.373-.365 1.86a.446.446 0 0 0-.003.073l.001.019.002.01.491 6.244h-1.323l-4.993-14.931a2.326 2.326 0 0 0-.512-.856l-1.244-1.316a2.308 2.308 0 0 0-1.617-.718c.022-.027.004-.067.062-.14.021-.025.042-.054.062-.081l.001-.002 4.577-6.336 8.526-1.958zm19.028.58c.466.909 1.389 1.556 2.468 1.556.655 0 1.212-.286 1.683-.671l2.691 4.714c.006.026.013.061.026.11l.006.02-.029 1.287-.312 10.396-.504-.311c-.003-.026-.004-.024-.007-.063l-.003-.015-.684-8.317v-.001l-.002-.018v-.004c-.101-1.068-.779-2.114-1.811-2.546-.011-.005-.022-.01-.033-.013h-.002l-1.097-.453-2.39-5.671zm-31.921 16.313l.975 2.917-1.26 6.526h-.941l.519-7.366c.226-.658.455-1.332.707-2.077m37.754 1.088l-.004.009-.006-.004.01-.005zm-18.03 1.524l.888 1.63-.999 5.201h-.333l.444-6.831z"/><path fill="#F2FAEB" d="M284.601 283.733l-3.104 9.161c-.193.451.065.73.384.979l9.779 7.468c.32.264.532.317.947.333l5.45.195 1.494.024c.623.011.82-.203.553-.869l-.279-.702-6.271-14.883c-.296-.655-.489-.745-1.239-.908l-6.28-1.367c-.904-.224-1.182-.142-1.434.569zm10.213 2.206l4.922 11.68 1.82.75c.39.162.648.522.697 1.032l.687 8.344c.075.854.247 1.086.717 1.364l2.611 1.603c.377.234.761.342.758-.284l.384-12.819.033-1.443c.002-.229-.088-.567-.222-.834l-4.285-7.506c-.175-.3-.411-.472-.855-.575l-7.267-1.312zm-12.324 1.514l-11.861 2.721c-.458.078-.569.183-.821.531l-4.682 6.483c-.334.412-.448.721-.57 1.177l-2.803 10.476 1.432.016c.311-.906.651-1.902 1.014-2.98.89-2.634 1.761-5.247 1.761-5.247a.482.482 0 0 1 .81-.179l1.245 1.319a.48.48 0 0 1 .107.179l5.144 15.385c.18.634.507.795 1.168.795h3.031c.421 0 .666-.241.614-.897l-.579-7.346c-.071-.741.064-1.052.844-1.287l3.449-.931 5.643-1.604a.485.485 0 0 1 .557.233l1.642 3.012.009-.045 4.198 7.74c.448.881.737 1.125 1.712 1.125h2.495c.628 0 .726-.326.554-.97l-3.935-14.441-2.788-.101a.49.49 0 0 1-.275-.099l-11.02-8.415a.483.483 0 0 1-.164-.54l2.069-6.11zm18.716.876a.973.973 0 0 1 0 1.945.972.972 0 0 1 0-1.945m-34.585 13.372c-.202.605-.744 2.233-1.505 4.485-.291.861-.554 1.629-.812 2.383l-.598 8.505c-.127.884.164 1.054.891 1.054h2.559c.691 0 .921-.24 1.057-.896l1.465-7.581-2.439-7.295-.618-.655zm45.667 2.239l-1.387.002c-.284.015-.418.116-.406.391l.237 3.387 2.672.675-.633-3.969c-.031-.209-.183-.488-.483-.486zm-24.959 3.158l-2.511.714-.606 9.318c-.059.715.108.997.964.997h2.026c.666 0 .783-.238.939-1.046l1.206-6.28-2.018-3.703zm20.662.739l-.15 3.366 3.021.152c.42-.011.626-.045.888-.309l1.299-1.176c.299-.299.342-.529-.024-.652l-5.034-1.381zm-48.245 2.353v.741c0 .312.095.386.414.386h2.15a.499.499 0 0 1 .058-.153l.031-.077c.031-.078.076-.197.13-.347.081-.225.203-.574.324-.92l-2.714-.03c-.353 0-.393.136-.393.4z"/><g opacity=".3" enable-background="new"><defs><path id="bj" d="M251.489 265.505h70.17v24.165h-70.17z"/></defs><clipPath id="bk"><use xlink:href="#bj" overflow="visible"/></clipPath><path clip-path="url(#bk)" d="M298.925 265.505h-24.701c-19.893 0-22.735 2.845-22.735 22.758v1.407c0-19.913 2.847-22.762 22.739-22.762h24.693c19.893 0 22.739 2.849 22.739 22.762v-1.407c0-19.913-2.842-22.758-22.735-22.758"/></g></g><g><path fill="#FAFAFA" d="M308.739 120.186a6 6 0 1 1-12 0 6 6 0 0 1 12 0"/><circle fill="none" stroke="#C2C2C2" stroke-width="2" stroke-miterlimit="10" cx="302.739" cy="120.186" r="6"/><path fill="#FAFAFA" d="M156.739 242.302a6 6 0 1 1-12 0 6 6 0 0 1 12 0"/><circle fill="none" stroke="#C2C2C2" stroke-width="2" stroke-miterlimit="10" cx="150.739" cy="242.302" r="6"/></g></svg>