<svg xmlns="http://www.w3.org/2000/svg" xmlns:xlink="http://www.w3.org/1999/xlink" width="713.016" height="296.419"><g opacity=".5"><defs><path id="a" d="M288.576 90.796h239.518v62.78H288.576z"/></defs><clipPath id="b"><use xlink:href="#a" overflow="visible"/></clipPath><path clip-path="url(#b)" fill="none" stroke="#888" stroke-width="2" stroke-miterlimit="10" d="M524.333 94.556l-231.995 55.259"/><path clip-path="url(#b)" fill="#888" d="M523.462 90.899a3.76 3.76 0 1 1 1.742 7.314 3.76 3.76 0 0 1-1.742-7.314M291.466 146.158a3.76 3.76 0 1 0 1.743 7.315 3.76 3.76 0 0 0-1.743-7.315"/></g><defs><path id="c" d="M0 3.314h293.105v293.105H0z"/></defs><clipPath id="d"><use xlink:href="#c" overflow="visible"/></clipPath><path clip-path="url(#d)" fill="#FFF" d="M284.665 119.175V101.34c0-78.386-11.187-89.585-89.497-89.585h-17.924a7.672 7.672 0 0 0-7.673-7.673h-46.038a7.672 7.672 0 0 0-7.673 7.673H97.93c-78.31 0-89.49 11.199-89.49 89.585v17.835a7.672 7.672 0 0 0-7.673 7.673v46.037a7.671 7.671 0 0 0 7.673 7.673v17.835c0 78.384 11.181 89.586 89.49 89.586h17.93a7.673 7.673 0 0 0 7.673 7.673h46.038a7.673 7.673 0 0 0 7.673-7.673h17.924c78.31 0 89.497-11.202 89.497-89.586v-17.835a7.671 7.671 0 0 0 7.673-7.673v-46.037a7.672 7.672 0 0 0-7.673-7.673"/><path clip-path="url(#d)" fill="none" stroke="#D4D4D4" stroke-width="1.535" d="M284.665 119.175V101.34c0-78.386-11.187-89.585-89.497-89.585h-17.924a7.672 7.672 0 0 0-7.673-7.673h-46.038a7.672 7.672 0 0 0-7.673 7.673H97.93c-78.31 0-89.49 11.199-89.49 89.585v17.835a7.672 7.672 0 0 0-7.673 7.673v46.037a7.671 7.671 0 0 0 7.673 7.673v17.835c0 78.384 11.181 89.586 89.49 89.586h17.93a7.673 7.673 0 0 0 7.673 7.673h46.038a7.673 7.673 0 0 0 7.673-7.673h17.924c78.31 0 89.497-11.202 89.497-89.586v-17.835a7.671 7.671 0 0 0 7.673-7.673v-46.037a7.672 7.672 0 0 0-7.673-7.673z"/><defs><path id="e" d="M121.581 80.145c-39.155 0-44.747 5.599-44.747 44.793v48.527c0 39.195 5.592 44.793 44.747 44.793h48.618c39.154 0 44.748-5.598 44.748-44.793v-48.527c0-39.194-5.594-44.793-44.748-44.793h-48.618z"/></defs><clipPath id="f"><use xlink:href="#e" overflow="visible"/></clipPath><linearGradient id="g" gradientUnits="userSpaceOnUse" x1="-37.309" y1="296.419" x2="-36.309" y2="296.419" gradientTransform="rotate(-90 -22864.062 17929.407) scale(138.1133)"><stop offset="0" stop-color="#69be28"/><stop offset="1" stop-color="#83d445"/></linearGradient><path clip-path="url(#f)" fill="url(#g)" d="M76.833 80.145h138.113v138.113H76.833z"/><g><defs><path id="h" d="M121.581 80.145c-39.155 0-44.747 5.599-44.747 44.793v48.527c0 39.195 5.592 44.793 44.747 44.793h48.618c39.154 0 44.748-5.598 44.748-44.793v-48.527c0-39.194-5.594-44.793-44.748-44.793h-48.618z"/></defs><clipPath id="i"><use xlink:href="#h" overflow="visible"/></clipPath><g opacity=".134" clip-path="url(#i)"><defs><path id="j" d="M41.157-23.774h237.842v308.708H41.157z"/></defs><clipPath id="k"><use xlink:href="#j" overflow="visible"/></clipPath><g clip-path="url(#k)"><defs><path id="l" d="M67.402 98.544l210.737 39.73-102.217 146.66-121.201-72.818-13.565-80.589z"/></defs><clipPath id="n"><use xlink:href="#l" overflow="visible"/></clipPath><defs><filter id="m" filterUnits="userSpaceOnUse" x="8.741" y="57.33" width="301.813" height="268.819"><feColorMatrix values="1 0 0 0 0 0 1 0 0 0 0 0 1 0 0 0 0 0 1 0"/></filter></defs><mask maskUnits="userSpaceOnUse" x="8.741" y="57.33" width="301.813" height="268.819" id="p"><g filter="url(#m)"><linearGradient id="o" gradientUnits="userSpaceOnUse" x1="-37.31" y1="296.313" x2="-36.31" y2="296.313" gradientTransform="rotate(100.177 9978.869 15600.315) scale(94.453)"><stop offset="0" stop-color="#fff"/><stop offset="1"/></linearGradient><path clip-path="url(#n)" fill="url(#o)" d="M48.555 57.33L8.741 279.115l261.999 47.033 39.814-221.785z"/></g></mask><linearGradient id="q" gradientUnits="userSpaceOnUse" x1="-37.31" y1="296.313" x2="-36.31" y2="296.313" gradientTransform="rotate(100.177 9978.87 15600.314) scale(94.453)"><stop offset="0" stop-color="#4d9a35"/><stop offset="1" stop-color="#4d9a35"/></linearGradient><path clip-path="url(#n)" mask="url(#p)" fill="url(#q)" d="M48.555 57.33L8.741 279.115l261.999 47.033 39.814-221.785z"/></g><g clip-path="url(#k)"><defs><path id="r" d="M67.402 98.544l210.737 39.73.86-94.122-153.884-67.926z"/></defs><clipPath id="t"><use xlink:href="#r" overflow="visible"/></clipPath><defs><filter id="s" filterUnits="userSpaceOnUse" x="39.052" y="-60.793" width="268.297" height="236.086"><feColorMatrix values="1 0 0 0 0 0 1 0 0 0 0 0 1 0 0 0 0 0 1 0"/></filter></defs><mask maskUnits="userSpaceOnUse" x="39.052" y="-60.793" width="268.297" height="236.086" id="v"><g filter="url(#s)"><linearGradient id="u" gradientUnits="userSpaceOnUse" x1="-37.31" y1="296.259" x2="-36.31" y2="296.259" gradientTransform="rotate(-79.759 -12708.632 8217.368) scale(65.6289)"><stop offset="0" stop-color="#fff"/><stop offset="1"/></linearGradient><path clip-path="url(#t)" fill="url(#u)" d="M272.311 175.293l35.038-193.945L74.09-60.793 39.052 133.152z"/></g></mask><linearGradient id="w" gradientUnits="userSpaceOnUse" x1="-37.31" y1="296.259" x2="-36.31" y2="296.259" gradientTransform="rotate(-79.759 -12708.632 8217.368) scale(65.6289)"><stop offset="0" stop-color="#c7df6e"/><stop offset="1" stop-color="#c7df6e"/></linearGradient><path clip-path="url(#t)" mask="url(#v)" fill="url(#w)" d="M272.311 175.293l35.038-193.945L74.09-60.793 39.052 133.152z"/></g></g><g opacity=".138" clip-path="url(#i)"><defs><path id="x" d="M-37.31-2.652h301.553v274.043H-37.31z"/></defs><clipPath id="y"><use xlink:href="#x" overflow="visible"/></clipPath><g clip-path="url(#y)"><defs><path id="z" d="M49.524 212.247L173.977 37.604l90.267 154.302-116.937 79.486-78.849-21.486z"/></defs><clipPath id="B"><use xlink:href="#z" overflow="visible"/></clipPath><defs><filter id="A" filterUnits="userSpaceOnUse" x="-60.285" y="-63.249" width="434.337" height="435.493"><feColorMatrix values="1 0 0 0 0 0 1 0 0 0 0 0 1 0 0 0 0 0 1 0"/></filter></defs><mask maskUnits="userSpaceOnUse" x="-60.285" y="-63.249" width="434.337" height="435.493" id="D"><g filter="url(#A)"><linearGradient id="C" gradientUnits="userSpaceOnUse" x1="-37.31" y1="296.296" x2="-36.31" y2="296.296" gradientTransform="scale(94.453) rotate(34.975 450.08 209.953)"><stop offset="0" stop-color="#fff"/><stop offset="1"/></linearGradient><path clip-path="url(#B)" fill="url(#C)" d="M-60.285 194.575l253.977 177.669L374.053 114.42 120.075-63.249z"/></g></mask><linearGradient id="E" gradientUnits="userSpaceOnUse" x1="-37.31" y1="296.296" x2="-36.31" y2="296.296" gradientTransform="scale(94.453) rotate(34.975 450.08 209.953)"><stop offset="0" stop-color="#4d9a35"/><stop offset="1" stop-color="#4d9a35"/></linearGradient><path clip-path="url(#B)" mask="url(#D)" fill="url(#E)" d="M-60.285 194.575l253.977 177.669L374.053 114.42 120.075-63.249z"/></g><g clip-path="url(#y)"><defs><path id="F" d="M49.524 212.247L173.977 37.604 88.894-2.652-37.31 108.554z"/></defs><clipPath id="H"><use xlink:href="#F" overflow="visible"/></clipPath><defs><filter id="G" filterUnits="userSpaceOnUse" x="-138.328" y="-101.972" width="413.323" height="413.54"><feColorMatrix values="1 0 0 0 0 0 1 0 0 0 0 0 1 0 0 0 0 0 1 0"/></filter></defs><mask maskUnits="userSpaceOnUse" x="-138.328" y="-101.972" width="413.323" height="413.54" id="J"><g filter="url(#G)"><linearGradient id="I" gradientUnits="userSpaceOnUse" x1="-37.31" y1="296.29" x2="-36.31" y2="296.29" gradientTransform="rotate(-144.962 -4219.123 9385.188) scale(65.629)"><stop offset="0" stop-color="#fff"/><stop offset="1"/></linearGradient><path clip-path="url(#H)" fill="url(#I)" d="M274.995 68.182L32.334-101.972l-170.662 243.385 242.661 170.154z"/></g></mask><linearGradient id="K" gradientUnits="userSpaceOnUse" x1="-37.31" y1="296.29" x2="-36.31" y2="296.29" gradientTransform="rotate(-144.962 -4219.123 9385.188) scale(65.629)"><stop offset="0" stop-color="#c7df6e"/><stop offset="1" stop-color="#c7df6e"/></linearGradient><path clip-path="url(#H)" mask="url(#J)" fill="url(#K)" d="M274.995 68.182L32.334-101.972l-170.662 243.385 242.661 170.154z"/></g></g></g><g><path fill="#5AA223" d="M143.88 111.065a.725.725 0 0 0-.247.05c-.603-.014-1.243.017-1.975.295-1.356.515-2.094 1.591-2.56 2.504a3.57 3.57 0 0 0-.483.908l-.009.022-.008.028-1.695 4.996-23.201 5.322a.74.74 0 0 0-.29.144c-.592.132-1.231.264-1.894.716-.814.556-1.267 1.202-1.545 1.588l-9.121 12.63.025-.031c-.986 1.218-1.509 2.572-1.798 3.653l-5.305 19.816.084.003c-.84 0-2.376.213-3.445 1.537-.813 1.006-.904 1.964-.905 2.478a3.538 3.538 0 0 0-.019.363v1.466c0 .654.094 2.139 1.357 3.28 1.228 1.108 2.572 1.075 3.054 1.075h3.92l-.523 7.41-.005.047h.003l-.003.026a.723.723 0 0 0 .022.236c-.123 1.243-.082 2.851 1.223 4.203 1.441 1.493 3.172 1.483 4.094 1.483h5.038c1.112 0 2.613-.222 3.833-1.301 1.199-1.061 1.576-2.395 1.77-3.333l.005-.033.003-.025 1.018-5.269 1.983 5.929.003.009a.732.732 0 0 0 .118.211c.36 1.043.988 2.188 2.147 2.931 1.252.802 2.52.882 3.445.882h5.965c1.183 0 2.802-.476 3.825-1.832.973-1.291 1.056-2.712.969-3.815l-1.065-13.521 5.696-1.537.031-.009h.005a.54.54 0 0 0 .043-.011l1.174-.334-.989 15.263a.727.727 0 0 0 .017.197c-.069.997-.082 2.529 1.149 3.925 1.328 1.505 3.105 1.675 4.322 1.675h3.987c1.173 0 2.948-.369 4.083-1.751 1.035-1.261 1.139-2.416 1.295-3.228l1.062-5.517 3.426 6.312c.511 1.007 1.155 2.198 2.467 3.096 1.335.915 2.841 1.088 4.108 1.088h4.909c.605 0 1.346-.063 2.158-.413a4.476 4.476 0 0 0 2.192-2.049c.856-1.702.444-3.114.216-3.964l-.003-.012-.003-.015-6.985-25.635 2.312.085-.019-.003.045.003.045.003 2.939.047a5.9 5.9 0 0 0 1.804-.213c.265-.076.403-.276.615-.413l.725 8.841.003.019c.092 1.034.247 2.106.854 3.198.546.981 1.339 1.529 2.001 1.961a.712.712 0 0 0 .256.275l.022.015.006.003.039.021 5.072 3.116a.352.352 0 0 0 .02.012c1.665.957 3.018 1.258 4.723 1.48a.54.54 0 0 0 .056.003l5.94.298c.101.006.191.007.273.006h.002c.472-.012 1.15-.021 1.979-.28.692-.218 1.236-.661 1.748-1.089a.704.704 0 0 0 .345-.168l2.558-2.312a.012.012 0 0 1 .005-.005c.043-.04.084-.081.124-.121.549-.549 1.116-1.312 1.59-2.977.23-.805.35-1.876.113-3.067l-1.237-7.745a4.758 4.758 0 0 0-1.065-2.402c-.726-.876-1.989-1.627-3.448-1.624l-2.728.005c-.06 0-.12 0-.18.004h-.005c-.636.033-1.801.171-2.852 1.13-.28.255-.374.569-.557.862l.323-10.757V143.402l.065-2.833v-.034c.017-1.358-.326-2.33-.821-3.311l-.003-.003c-.027-.053-.057-.105-.087-.157v-.003l-8.427-14.758v-.003l-.017-.033c-.814-1.404-2.422-2.465-3.984-2.827l-.16-.037-.011-.002-14.303-2.58h-.003c-.22-.039-.443-.016-.666-.014-.295-.535-.578-1.145-1.281-1.635-1.073-.748-2.069-.925-2.844-1.093h-.003l-12.273-2.67c-.496-.124-1.057-.289-1.723-.343h-.002c-.024-.001-.047-.002-.071-.001zm1.046 7.539l11.498 2.503.031.006 11.369 26.981-9.852-.354-18.208-13.906 5.162-15.23zm23.072 6.478l1.618.292c-.189.517-.438 1.004-.438 1.607 0 .62.165 1.197.36 1.756l-1.54-3.655zm-35.619 3.206l-2.006 5.926a4.557 4.557 0 0 0 1.537 5.065l.003.003.006.004 21.687 16.562a4.555 4.555 0 0 0 2.596.933h.025l2.819.102 6.33 23.241h-1.832c-.048-.084-.069-.102-.137-.236l-.006-.012-.042-.084-.003-.003-8.264-15.235a3.506 3.506 0 0 0-.332-.489l-2.919-5.355-.003-.003c-.012-.021-.027-.04-.039-.062l-.003-.003a4.554 4.554 0 0 0-4.074-2.301h-.003a4.476 4.476 0 0 0-.922.144h-.006a.69.69 0 0 0-.191.028l-11.082 3.152-6.764 1.823-.089.023a.084.084 0 0 0-.017.005c-1.133.343-2.58.987-3.482 2.456-.838 1.367-.801 2.702-.719 3.661a.695.695 0 0 0-.006.144l.003.036.003.021.967 12.29h-2.605l-9.826-29.389a4.563 4.563 0 0 0-1.009-1.684l-2.448-2.593a4.535 4.535 0 0 0-3.183-1.411c.043-.055.008-.133.123-.275.041-.051.082-.105.121-.16l.003-.003 9.009-12.471 16.78-3.85zm37.451 1.141c.917 1.788 2.735 3.062 4.858 3.062 1.29 0 2.386-.564 3.313-1.32l5.297 9.277c.011.052.025.117.051.218l.011.036-.056 2.534-.616 20.461-.992-.608c-.005-.055-.007-.049-.014-.127a.274.274 0 0 0-.005-.028l-1.346-16.37v-.003l-.003-.034v-.006c-.2-2.104-1.533-4.164-3.566-5.013a.727.727 0 0 0-.065-.025h-.003l-2.16-.891-4.704-11.163zm-62.827 32.105l1.919 5.741-2.481 12.847h-1.852l1.023-14.499c.444-1.296.895-2.621 1.391-4.089m74.308 2.142l-.008.017-.011-.009a.154.154 0 0 0 .019-.008zm-35.489 3.001l1.748 3.209-1.967 10.236h-.655l.874-13.445z"/><path fill="#F2FAEB" d="M142.004 116.021l-6.108 18.03c-.381.888.128 1.439.755 1.929l19.247 14.698c.629.519 1.047.624 1.865.654l10.726.387 2.939.047c1.228.021 1.616-.401 1.089-1.712l-.548-1.381-12.343-29.292c-.583-1.289-.962-1.466-2.44-1.788l-12.36-2.689c-1.779-.444-2.326-.281-2.822 1.117zm20.102 4.343l9.688 22.988 3.582 1.476c.766.32 1.276 1.028 1.371 2.032l1.352 16.422c.149 1.68.486 2.14 1.411 2.686l5.139 3.154c.742.462 1.499.672 1.493-.561l.756-25.23.063-2.84c.006-.45-.172-1.119-.436-1.642l-8.434-14.772c-.344-.593-.809-.93-1.683-1.133l-14.302-2.58zm-24.257 2.979l-23.345 5.355c-.901.154-1.119.359-1.616 1.046l-9.216 12.761c-.657.81-.881 1.418-1.121 2.314l-5.516 20.618 2.817.032c.613-1.785 1.281-3.744 1.997-5.865 1.751-5.185 3.466-10.329 3.466-10.329a.95.95 0 0 1 1.595-.35l2.449 2.596a.962.962 0 0 1 .212.352l10.123 30.28c.354 1.246.998 1.566 2.299 1.566h5.965c.83 0 1.311-.478 1.21-1.768l-1.141-14.459c-.138-1.46.127-2.068 1.663-2.533l6.788-1.829 11.106-3.159a.952.952 0 0 1 1.097.46l3.23 5.927.018-.089 8.264 15.235c.88 1.731 1.45 2.215 3.37 2.215h4.909c1.237 0 1.43-.646 1.091-1.909l-7.744-28.425-5.487-.198a.946.946 0 0 1-.543-.195l-21.69-16.562a.951.951 0 0 1-.322-1.062l4.072-12.025zm36.838 1.724a1.913 1.913 0 1 1-.002 3.826 1.913 1.913 0 0 1 .002-3.826m-68.072 26.32c-.397 1.189-1.465 4.395-2.961 8.828-.573 1.693-1.091 3.205-1.599 4.688l-1.177 16.74c-.249 1.741.322 2.075 1.753 2.075h5.037c1.361 0 1.813-.476 2.08-1.766l2.884-14.923-4.8-14.355-1.217-1.287zm89.883 4.406l-2.73.004c-.558.028-.823.229-.799.769l.468 6.665 5.257 1.328-1.246-7.81c-.061-.41-.359-.959-.95-.958v.002zm-49.125 6.217l-4.942 1.406-1.192 18.338c-.117 1.407.211 1.965 1.896 1.965h3.989c1.311 0 1.541-.472 1.847-2.061l2.375-12.36-3.973-7.288zm40.668 1.456l-.296 6.625 5.948.299c.825-.021 1.23-.088 1.747-.608l2.556-2.313c.588-.588.672-1.042-.047-1.283l-9.908-2.72zm-94.957 4.629v1.459c0 .616.186.76.815.76h4.232a.955.955 0 0 1 .114-.302 32.946 32.946 0 0 0 .316-.834c.16-.443.4-1.13.638-1.812l-5.341-.059c-.696.001-.774.268-.774.788z"/><g opacity=".3" enable-background="new"><defs><path id="L" d="M76.833 80.145h138.111v47.562H76.833z"/></defs><clipPath id="M"><use xlink:href="#L" overflow="visible"/></clipPath><path clip-path="url(#M)" d="M170.196 80.145H121.58c-39.155 0-44.747 5.599-44.747 44.793v2.769c0-39.193 5.604-44.8 44.756-44.8h48.599c39.155 0 44.756 5.607 44.756 44.8v-2.769c0-39.194-5.592-44.793-44.748-44.793"/></g><defs><path id="N" d="M523.838 0h189.178v189.179H523.838z"/></defs><clipPath id="O"><use xlink:href="#N" overflow="visible"/></clipPath><path clip-path="url(#O)" fill="#FFF" d="M707.568 74.78V63.269c0-50.593-7.221-57.821-57.764-57.821h-11.568a4.952 4.952 0 0 0-4.952-4.952h-29.715a4.952 4.952 0 0 0-4.952 4.952h-11.572c-50.543 0-57.76 7.229-57.76 57.821V74.78a4.952 4.952 0 0 0-4.952 4.952v29.714a4.952 4.952 0 0 0 4.952 4.953v11.511c0 50.59 7.217 57.821 57.76 57.821h11.572a4.951 4.951 0 0 0 4.952 4.952h29.715a4.951 4.951 0 0 0 4.952-4.952h11.568c50.543 0 57.764-7.23 57.764-57.821v-11.511a4.952 4.952 0 0 0 4.952-4.953V79.732a4.95 4.95 0 0 0-4.952-4.952"/><path clip-path="url(#O)" fill="none" stroke="#D4D4D4" stroke-width=".991" d="M707.568 74.78V63.269c0-50.593-7.221-57.821-57.764-57.821h-11.568a4.952 4.952 0 0 0-4.952-4.952h-29.715a4.952 4.952 0 0 0-4.952 4.952h-11.572c-50.543 0-57.76 7.229-57.76 57.821V74.78a4.952 4.952 0 0 0-4.952 4.952v29.714a4.952 4.952 0 0 0 4.952 4.953v11.511c0 50.59 7.217 57.821 57.76 57.821h11.572a4.951 4.951 0 0 0 4.952 4.952h29.715a4.951 4.951 0 0 0 4.952-4.952h11.568c50.543 0 57.764-7.23 57.764-57.821v-11.511a4.952 4.952 0 0 0 4.952-4.953V79.732a4.95 4.95 0 0 0-4.952-4.952z"/></g><g><defs><path id="P" d="M602.308 49.589c-25.271 0-28.881 3.614-28.881 28.91v31.321c0 25.297 3.609 28.911 28.881 28.911h31.381c25.271 0 28.881-3.613 28.881-28.911V78.499c0-25.296-3.61-28.91-28.881-28.91h-31.381z"/></defs><clipPath id="Q"><use xlink:href="#P" overflow="visible"/></clipPath><linearGradient id="R" gradientUnits="userSpaceOnUse" x1="-37.31" y1="296.418" x2="-36.31" y2="296.418" gradientTransform="rotate(-90 -14496.308 11309.176) scale(89.1424)"><stop offset="0" stop-color="#69be28"/><stop offset="1" stop-color="#83d445"/></linearGradient><path clip-path="url(#Q)" fill="url(#R)" d="M573.427 49.589h89.143v89.142h-89.143z"/></g><g><defs><path id="S" d="M602.308 49.589c-25.271 0-28.881 3.614-28.881 28.91v31.321c0 25.297 3.609 28.911 28.881 28.911h31.381c25.271 0 28.881-3.613 28.881-28.911V78.499c0-25.296-3.61-28.91-28.881-28.91h-31.381z"/></defs><clipPath id="T"><use xlink:href="#S" overflow="visible"/></clipPath><g opacity=".134" clip-path="url(#T)"><defs><path id="U" d="M550.4-17.484h153.51v199.249H550.4z"/></defs><clipPath id="V"><use xlink:href="#U" overflow="visible"/></clipPath><g clip-path="url(#V)"><defs><path id="W" d="M567.341 61.464l136.014 25.642-65.972 94.659-78.228-46.999-8.755-52.014z"/></defs><clipPath id="Y"><use xlink:href="#W" overflow="visible"/></clipPath><defs><filter id="X" filterUnits="userSpaceOnUse" x="529.479" y="34.863" width="194.799" height="173.503"><feColorMatrix values="1 0 0 0 0 0 1 0 0 0 0 0 1 0 0 0 0 0 1 0"/></filter></defs><mask maskUnits="userSpaceOnUse" x="529.479" y="34.863" width="194.799" height="173.503" id="aa"><g filter="url(#X)"><linearGradient id="Z" gradientUnits="userSpaceOnUse" x1="-37.31" y1="296.313" x2="-36.31" y2="296.313" gradientTransform="rotate(100.177 6703.463 10286.926) scale(60.9627)"><stop offset="0" stop-color="#fff"/><stop offset="1"/></linearGradient><path clip-path="url(#Y)" fill="url(#Z)" d="M555.176 34.863l-25.697 143.146 169.101 30.357L724.277 65.22z"/></g></mask><linearGradient id="ab" gradientUnits="userSpaceOnUse" x1="-37.31" y1="296.313" x2="-36.31" y2="296.313" gradientTransform="rotate(100.177 6703.463 10286.925) scale(60.9627)"><stop offset="0" stop-color="#4d9a35"/><stop offset="1" stop-color="#4d9a35"/></linearGradient><path clip-path="url(#Y)" mask="url(#aa)" fill="url(#ab)" d="M555.176 34.863l-25.697 143.146 169.101 30.357L724.277 65.22z"/></g><g clip-path="url(#V)"><defs><path id="ac" d="M567.341 61.464l136.014 25.642.555-60.748-99.32-43.842z"/></defs><clipPath id="ae"><use xlink:href="#ac" overflow="visible"/></clipPath><defs><filter id="ad" filterUnits="userSpaceOnUse" x="549.042" y="-41.377" width="173.167" height="152.377"><feColorMatrix values="1 0 0 0 0 0 1 0 0 0 0 0 1 0 0 0 0 0 1 0"/></filter></defs><mask maskUnits="userSpaceOnUse" x="549.042" y="-41.377" width="173.167" height="152.377" id="ag"><g filter="url(#ad)"><linearGradient id="af" gradientUnits="userSpaceOnUse" x1="-37.31" y1="296.26" x2="-36.31" y2="296.26" gradientTransform="rotate(-79.759 -7941.876 4989.175) scale(42.3588)"><stop offset="0" stop-color="#fff"/><stop offset="1"/></linearGradient><path clip-path="url(#ae)" fill="url(#af)" d="M699.594 111l22.615-125.178-150.552-27.199L549.042 83.8z"/></g></mask><linearGradient id="ah" gradientUnits="userSpaceOnUse" x1="-37.31" y1="296.26" x2="-36.31" y2="296.26" gradientTransform="rotate(-79.759 -7941.875 4989.174) scale(42.3588)"><stop offset="0" stop-color="#c7df6e"/><stop offset="1" stop-color="#c7df6e"/></linearGradient><path clip-path="url(#ae)" mask="url(#ag)" fill="url(#ah)" d="M699.594 111l22.615-125.178-150.552-27.199L549.042 83.8z"/></g></g><g opacity=".138" clip-path="url(#T)"><defs><path id="ai" d="M499.757-3.851h194.631v176.876H499.757z"/></defs><clipPath id="aj"><use xlink:href="#ai" overflow="visible"/></clipPath><g clip-path="url(#aj)"><defs><path id="ak" d="M555.802 134.851l80.324-112.72 58.262 99.592-75.476 51.302-50.891-13.868z"/></defs><clipPath id="am"><use xlink:href="#ak" overflow="visible"/></clipPath><defs><filter id="al" filterUnits="userSpaceOnUse" x="484.928" y="-42.962" width="280.334" height="281.08"><feColorMatrix values="1 0 0 0 0 0 1 0 0 0 0 0 1 0 0 0 0 0 1 0"/></filter></defs><mask maskUnits="userSpaceOnUse" x="484.928" y="-42.962" width="280.334" height="281.08" id="ao"><g filter="url(#al)"><linearGradient id="an" gradientUnits="userSpaceOnUse" x1="-37.31" y1="296.296" x2="-36.31" y2="296.296" gradientTransform="scale(60.9627) rotate(34.975 454.43 223.572)"><stop offset="0" stop-color="#fff"/><stop offset="1"/></linearGradient><path clip-path="url(#am)" fill="url(#an)" d="M484.928 123.445l163.924 114.673 116.41-166.407L601.337-42.962z"/></g></mask><linearGradient id="ap" gradientUnits="userSpaceOnUse" x1="-37.31" y1="296.296" x2="-36.31" y2="296.296" gradientTransform="scale(60.9627) rotate(34.975 454.43 223.572)"><stop offset="0" stop-color="#4d9a35"/><stop offset="1" stop-color="#4d9a35"/></linearGradient><path clip-path="url(#am)" mask="url(#ao)" fill="url(#ap)" d="M484.928 123.445l163.924 114.673 116.41-166.407L601.337-42.962z"/></g><g clip-path="url(#aj)"><defs><path id="aq" d="M555.802 134.851l80.324-112.72-54.914-25.982-81.455 71.776z"/></defs><clipPath id="as"><use xlink:href="#aq" overflow="visible"/></clipPath><defs><filter id="ar" filterUnits="userSpaceOnUse" x="434.557" y="-67.955" width="266.77" height="266.91"><feColorMatrix values="1 0 0 0 0 0 1 0 0 0 0 0 1 0 0 0 0 0 1 0"/></filter></defs><mask maskUnits="userSpaceOnUse" x="434.557" y="-67.955" width="266.77" height="266.91" id="au"><g filter="url(#ar)"><linearGradient id="at" gradientUnits="userSpaceOnUse" x1="-37.31" y1="296.289" x2="-36.31" y2="296.289" gradientTransform="scale(-42.3588) rotate(35.038 446.759 184.094)"><stop offset="0" stop-color="#fff"/><stop offset="1"/></linearGradient><path clip-path="url(#as)" fill="url(#at)" d="M701.326 41.868L544.706-67.955 434.557 89.132l156.62 109.823z"/></g></mask><linearGradient id="av" gradientUnits="userSpaceOnUse" x1="-37.31" y1="296.288" x2="-36.31" y2="296.288" gradientTransform="scale(-42.3588) rotate(35.038 446.759 184.094)"><stop offset="0" stop-color="#c7df6e"/><stop offset="1" stop-color="#c7df6e"/></linearGradient><path clip-path="url(#as)" mask="url(#au)" fill="url(#av)" d="M701.326 41.868L544.706-67.955 434.557 89.132l156.62 109.823z"/></g></g></g><g><path fill="#5AA223" d="M616.701 69.546a.444.444 0 0 0-.16.033c-.389-.01-.802.01-1.274.19-.875.332-1.352 1.026-1.652 1.616a2.324 2.324 0 0 0-.318.6l-.006.018-1.093 3.225-14.975 3.435a.472.472 0 0 0-.188.092c-.383.086-.795.171-1.223.463-.526.359-.817.776-.997 1.025l-5.887 8.152.016-.02c-.636.785-.974 1.66-1.16 2.357l-3.424 12.79.054.002c-.542 0-1.533.138-2.224.992-.524.649-.583 1.267-.583 1.599a2.216 2.216 0 0 0-.013.234v.947c0 .422.06 1.38.876 2.117.793.716 1.659.694 1.971.694h2.53l-.337 4.783-.005.031h.003l-.003.016a.486.486 0 0 0 .016.152c-.08.802-.053 1.841.789 2.713.93.964 2.047.958 2.642.958h3.252c.718 0 1.687-.143 2.475-.84.773-.685 1.017-1.545 1.142-2.151l.004-.021.002-.017.656-3.4 1.281 3.826.001.006a.505.505 0 0 0 .076.136c.232.673.638 1.412 1.386 1.891.808.518 1.626.57 2.224.57h3.85c.764 0 1.81-.307 2.469-1.183.629-.833.682-1.75.626-2.462l-.688-8.727 3.677-.993.02-.005h.003l.028-.007.758-.216-.639 9.851a.489.489 0 0 0 .011.127c-.045.644-.053 1.633.742 2.534.856.971 2.004 1.081 2.789 1.081h2.573c.758 0 1.903-.238 2.636-1.13.668-.814.734-1.56.836-2.084l.686-3.56 2.21 4.073c.331.651.746 1.419 1.593 1.999.861.59 1.833.702 2.651.702h3.169c.39 0 .868-.041 1.392-.267a2.887 2.887 0 0 0 1.415-1.322c.554-1.099.287-2.01.141-2.559l-.002-.007-.002-.009-4.509-16.546 1.492.055-.013-.002.029.002.028.002 1.897.03c.322.006.707-.007 1.165-.137.171-.049.26-.179.396-.267l.469 5.706a.05.05 0 0 0 .002.012c.059.668.159 1.359.551 2.064.352.634.864.988 1.291 1.266a.47.47 0 0 0 .165.178l.015.009.003.002.026.014 3.273 2.012a.054.054 0 0 1 .013.007c1.075.618 1.948.812 3.049.956l.036.001 3.834.193c.064.004.123.004.176.003h.001c.305-.007.743-.013 1.278-.181.445-.14.797-.426 1.128-.702a.463.463 0 0 0 .223-.109l1.65-1.492a1.95 1.95 0 0 0 .083-.082c.354-.354.721-.847 1.026-1.921.148-.519.227-1.21.073-1.98l-.799-4.998a3.063 3.063 0 0 0-.687-1.551c-.469-.565-1.284-1.05-2.226-1.048l-1.761.003c-.039 0-.077 0-.116.002h-.004c-.41.022-1.162.11-1.841.729-.181.165-.241.368-.359.557l.209-6.942v-.024l.041-1.828a.02.02 0 0 0 0-.011v-.011c.013-.876-.21-1.504-.528-2.136l-.003-.002a2.02 2.02 0 0 0-.056-.102v-.002l-5.438-9.525v-.002l-.012-.021c-.525-.906-1.563-1.591-2.571-1.825-.035-.008-.07-.017-.104-.023l-.007-.002-9.232-1.665h-.001c-.143-.026-.287-.01-.43-.009-.191-.346-.373-.74-.827-1.056-.692-.482-1.336-.596-1.836-.705h-.002l-7.921-1.723c-.32-.08-.682-.187-1.112-.221h-.002c-.013-.002-.028-.002-.043-.002zm.675 4.866l7.421 1.616.021.003 7.338 17.415-6.359-.229-11.752-8.975 3.331-9.83zm14.892 4.18l1.045.189c-.122.334-.283.648-.283 1.037 0 .4.106.773.232 1.134l-.994-2.36zm-22.99 2.07l-1.295 3.824a2.94 2.94 0 0 0 .992 3.27l.002.002.003.002 13.998 10.689c.482.37 1.068.58 1.676.603h.016l1.819.065 4.086 15H629.392c-.031-.054-.044-.065-.088-.152l-.005-.007-.026-.055-.002-.002-5.334-9.833a2.504 2.504 0 0 0-.214-.316l-1.885-3.456-.002-.002c-.008-.014-.018-.026-.024-.04l-.002-.002a2.94 2.94 0 0 0-2.63-1.485h-.002a2.891 2.891 0 0 0-.596.092h-.003a.516.516 0 0 0-.124.018l-7.152 2.035-4.365 1.177-.059.015-.011.003c-.73.222-1.665.637-2.247 1.585-.541.882-.517 1.745-.464 2.364-.004.03-.006.061-.004.092l.002.024.002.012.624 7.933H603.1l-6.343-18.968a2.94 2.94 0 0 0-.651-1.087l-1.579-1.674a2.932 2.932 0 0 0-2.055-.91c.027-.035.005-.086.08-.178.025-.033.053-.069.077-.103l.003-.002 5.813-8.049 10.833-2.484zm24.171.735c.593 1.154 1.767 1.977 3.136 1.977.832 0 1.54-.365 2.139-.853l3.419 5.989c.007.032.016.075.032.139l.008.024-.036 1.636-.398 13.207-.64-.394-.009-.082-.003-.018-.869-10.566v-.001l-.002-.022v-.003c-.129-1.358-.99-2.688-2.301-3.236a.749.749 0 0 0-.043-.016h-.002l-1.395-.575-3.036-7.206zm-40.55 20.723l1.239 3.705-1.603 8.292h-1.195l.66-9.358c.288-.837.579-1.693.899-2.639m47.961 1.381l-.006.011-.007-.006c.005 0 .009-.003.013-.005zm-22.906 1.937l1.128 2.071-1.269 6.607h-.423l.564-8.678z"/><path fill="#F2FAEB" d="M615.49 72.745l-3.942 11.637c-.246.573.082.928.487 1.245l12.423 9.486c.406.335.676.403 1.203.422l6.923.25 1.898.031c.792.013 1.042-.259.702-1.105l-.354-.892-7.967-18.906c-.376-.832-.621-.946-1.574-1.154l-7.979-1.736c-1.147-.286-1.5-.181-1.82.722zm12.975 2.802l6.252 14.837 2.312.953c.495.207.823.664.885 1.311l.873 10.6c.096 1.083.313 1.38.911 1.733l3.316 2.036c.479.297.968.433.963-.362l.488-16.284.041-1.833c.004-.292-.111-.723-.282-1.06l-5.442-9.535c-.223-.382-.522-.6-1.086-.731l-9.231-1.665zm-15.656 1.923l-15.067 3.456c-.582.099-.723.232-1.043.675l-5.948 8.236c-.424.523-.569.916-.724 1.495l-3.561 13.307 1.818.021c.396-1.152.827-2.417 1.289-3.786a1952.27 1952.27 0 0 0 2.236-6.666.616.616 0 0 1 1.03-.227l1.582 1.676a.6.6 0 0 1 .136.227l6.534 19.544c.229.804.645 1.01 1.484 1.01h3.85c.535 0 .846-.307.78-1.14l-.736-9.333c-.089-.942.082-1.335 1.073-1.635l4.382-1.18 7.168-2.04a.618.618 0 0 1 .708.297l2.085 3.826.011-.058 5.334 9.833c.568 1.119.937 1.43 2.176 1.43h3.169c.798 0 .922-.416.704-1.232L628.28 96.86l-3.542-.128a.623.623 0 0 1-.351-.126l-13.999-10.69a.614.614 0 0 1-.209-.685l2.63-7.761zm23.776 1.113a1.234 1.234 0 1 1 0 2.468 1.234 1.234 0 0 1 0-2.468M592.649 95.57c-.257.768-.945 2.837-1.911 5.698-.369 1.093-.704 2.069-1.032 3.027l-.759 10.804c-.161 1.123.207 1.339 1.131 1.339h3.251c.878 0 1.17-.306 1.342-1.139l1.862-9.631-3.099-9.267-.785-.831zm58.013 2.844l-1.762.002c-.36.02-.531.149-.516.497l.302 4.302 3.394.857-.804-5.041c-.04-.265-.232-.619-.614-.617zm-31.706 4.013l-3.19.907-.769 11.836c-.076.909.136 1.268 1.223 1.268h2.575c.846 0 .995-.304 1.192-1.329l1.532-7.978-2.563-4.704zm26.248.939l-.191 4.277 3.839.192c.532-.014.794-.057 1.128-.392l1.649-1.494c.38-.379.435-.672-.03-.828l-6.395-1.755zm-61.288 2.988v.942c0 .397.12.49.526.49h2.73a.66.66 0 0 1 .074-.195c.009-.019.021-.051.04-.098.039-.1.095-.251.164-.44.103-.286.258-.729.412-1.169l-3.447-.038c-.448 0-.499.173-.499.508z"/><g opacity=".3" enable-background="new"><defs><path id="aw" d="M573.427 49.589h89.141v30.698h-89.141z"/></defs><clipPath id="ax"><use xlink:href="#aw" overflow="visible"/></clipPath><path clip-path="url(#ax)" d="M633.687 49.589h-31.379c-25.271 0-28.881 3.614-28.881 28.911v1.787c0-25.297 3.617-28.915 28.887-28.915h31.367c25.271 0 28.887 3.618 28.887 28.915V78.5c0-25.297-3.609-28.911-28.881-28.911"/></g></g><g><path fill="#EDEDED" d="M419.335 121.186a6 6 0 1 1-12 0 6 6 0 0 1 12 0"/><circle fill="none" stroke="#C2C2C2" stroke-width="2" stroke-miterlimit="10" cx="413.335" cy="121.186" r="6"/></g></svg>