<svg xmlns="http://www.w3.org/2000/svg" xmlns:xlink="http://www.w3.org/1999/xlink" width="608.105" height="654.736"><g opacity=".5"><defs><path id="a" d="M207.581 142.74h111.947v42.263H207.581z"/></defs><clipPath id="b"><use xlink:href="#a" overflow="visible"/></clipPath><path clip-path="url(#b)" fill="none" stroke="#888" stroke-width="2" stroke-miterlimit="10" d="M315.767 146.501l-104.426 34.742"/><path clip-path="url(#b)" fill="#888" d="M314.581 142.934a3.76 3.76 0 1 1 2.372 7.136 3.76 3.76 0 0 1-2.372-7.136M210.154 177.675a3.76 3.76 0 1 0 2.374 7.136 3.76 3.76 0 0 0-2.374-7.136"/></g><g opacity=".5"><defs><path id="c" d="M288.578 288.577h176.64v223.315h-176.64z"/></defs><clipPath id="d"><use xlink:href="#c" overflow="visible"/></clipPath><path clip-path="url(#d)" fill="none" stroke="#888" stroke-width="2" stroke-miterlimit="10" d="M461.458 292.337L292.337 508.133"/><path clip-path="url(#d)" fill="#888" d="M458.499 290.018a3.76 3.76 0 1 1 5.918 4.64 3.76 3.76 0 0 1-5.918-4.64M289.378 505.813a3.76 3.76 0 1 0 5.918 4.638 3.76 3.76 0 0 0-5.918-4.638"/></g><g opacity=".5"><defs><path id="e" d="M113.426 271.608h309.2v183.64h-309.2z"/></defs><clipPath id="f"><use xlink:href="#e" overflow="visible"/></clipPath><path clip-path="url(#f)" fill="none" stroke="#888" stroke-width="2" stroke-miterlimit="10" d="M117.186 275.369l301.679 176.118"/><path clip-path="url(#f)" fill="#888" d="M115.291 278.616a3.76 3.76 0 1 1 3.793-6.494 3.76 3.76 0 0 1-3.793 6.494M416.969 454.734a3.762 3.762 0 0 0 5.144-1.351 3.762 3.762 0 0 0-1.353-5.143 3.76 3.76 0 1 0-3.791 6.494"/></g><defs><path id="g" d="M315 0h293.105v293.105H315z"/></defs><clipPath id="h"><use xlink:href="#g" overflow="visible"/></clipPath><path clip-path="url(#h)" fill="#FFF" d="M599.665 115.861V98.026c0-78.387-11.188-89.586-89.497-89.586h-17.924a7.673 7.673 0 0 0-7.673-7.673h-46.037a7.673 7.673 0 0 0-7.673 7.673H412.93c-78.31 0-89.49 11.199-89.49 89.586v17.834a7.673 7.673 0 0 0-7.673 7.673V169.57a7.673 7.673 0 0 0 7.673 7.673v17.835c0 78.383 11.181 89.586 89.49 89.586h17.931a7.673 7.673 0 0 0 7.673 7.673h46.037a7.673 7.673 0 0 0 7.673-7.673h17.924c78.31 0 89.497-11.203 89.497-89.586v-17.835a7.673 7.673 0 0 0 7.673-7.673V123.533a7.672 7.672 0 0 0-7.673-7.672"/><path clip-path="url(#h)" fill="none" stroke="#D4D4D4" stroke-width="1.535" stroke-miterlimit="10" d="M599.665 115.861V98.026c0-78.387-11.188-89.586-89.497-89.586h-17.924a7.673 7.673 0 0 0-7.673-7.673h-46.037a7.673 7.673 0 0 0-7.673 7.673H412.93c-78.31 0-89.49 11.199-89.49 89.586v17.834a7.673 7.673 0 0 0-7.673 7.673V169.57a7.673 7.673 0 0 0 7.673 7.673v17.835c0 78.383 11.181 89.586 89.49 89.586h17.931a7.673 7.673 0 0 0 7.673 7.673h46.037a7.673 7.673 0 0 0 7.673-7.673h17.924c78.31 0 89.497-11.203 89.497-89.586v-17.835a7.673 7.673 0 0 0 7.673-7.673V123.533a7.672 7.672 0 0 0-7.673-7.672z"/><defs><path id="i" d="M436.581 76.831c-39.155 0-44.748 5.599-44.748 44.793v48.526c0 39.194 5.593 44.794 44.748 44.794h48.618c39.154 0 44.747-5.6 44.747-44.794v-48.526c0-39.194-5.593-44.793-44.747-44.793h-48.618z"/></defs><clipPath id="j"><use xlink:href="#i" overflow="visible"/></clipPath><linearGradient id="k" gradientUnits="userSpaceOnUse" x1="-1.423" y1="654.735" x2="-.423" y2="654.735" gradientTransform="rotate(-90 -44974.18 44992.585) scale(138.113)"><stop offset="0" stop-color="#e89d00"/><stop offset="1" stop-color="#fac82e"/></linearGradient><path clip-path="url(#j)" fill="url(#k)" d="M391.833 76.831h138.113v138.113H391.833z"/><defs><path id="l" d="M436.581 76.831c-39.155 0-44.748 5.599-44.748 44.793v48.526c0 39.194 5.593 44.794 44.748 44.794h48.618c39.154 0 44.747-5.6 44.747-44.794v-48.526c0-39.194-5.593-44.793-44.747-44.793h-48.618z"/></defs><clipPath id="m"><use xlink:href="#l" overflow="visible"/></clipPath><g opacity=".092" clip-path="url(#m)"><defs><path id="n" d="M367.052-43.354h225.714V257.46H367.052z"/></defs><clipPath id="o"><use xlink:href="#n" overflow="visible"/></clipPath><g clip-path="url(#o)"><defs><path id="p" d="M379.228 105.471c1.978-.024 197.357 111.24 197.357 111.24s-172.398 41.294-173.536 40.742c-1.136-.551-35.997-58.334-35.997-58.334l12.176-93.648z"/></defs><clipPath id="r"><use xlink:href="#p" overflow="visible"/></clipPath><defs><filter id="q" filterUnits="userSpaceOnUse" x="298.391" y="11.143" width="346.857" height="341.168"><feColorMatrix values="1 0 0 0 0 0 1 0 0 0 0 0 1 0 0 0 0 0 1 0"/></filter></defs><mask maskUnits="userSpaceOnUse" x="298.391" y="11.143" width="346.857" height="341.168" id="t"><g filter="url(#q)"><linearGradient id="s" gradientUnits="userSpaceOnUse" x1="-1.423" y1="654.644" x2="-.423" y2="654.644" gradientTransform="scale(-63.3695) rotate(-57.912 -598.452 331.61)"><stop offset="0" stop-color="#fff"/><stop offset="1"/></linearGradient><path clip-path="url(#r)" fill="url(#s)" d="M426.183 11.143l-127.792 203.81 219.064 137.358L645.248 148.5z"/></g></mask><linearGradient id="u" gradientUnits="userSpaceOnUse" x1="-1.423" y1="654.646" x2="-.423" y2="654.646" gradientTransform="scale(-63.3695) rotate(-57.912 -598.452 331.61)"><stop offset="0" stop-color="#f37e40"/><stop offset="1" stop-color="#f37e40"/></linearGradient><path clip-path="url(#r)" mask="url(#t)" fill="url(#u)" d="M426.183 11.143l-127.792 203.81 219.064 137.358L645.248 148.5z"/></g><g clip-path="url(#o)"><defs><path id="v" d="M379.228 105.471l197.357 111.24L592.766 7.195s-166.136-50.59-169.524-50.55c-3.39.04-49.091 53.403-49.918 55.108-.828 1.705 5.904 93.718 5.904 93.718"/></defs><clipPath id="x"><use xlink:href="#v" overflow="visible"/></clipPath><defs><filter id="w" filterUnits="userSpaceOnUse" x="247.437" y="-149.3" width="470.388" height="471.917"><feColorMatrix values="1 0 0 0 0 0 1 0 0 0 0 0 1 0 0 0 0 0 1 0"/></filter></defs><mask maskUnits="userSpaceOnUse" x="247.437" y="-149.3" width="470.388" height="471.917" id="z"><g filter="url(#w)"><linearGradient id="y" gradientUnits="userSpaceOnUse" x1="-1.423" y1="654.648" x2="-.423" y2="654.648" gradientTransform="rotate(-52.965 -77472.483 38189.124) scale(118.3367)"><stop offset="0" stop-color="#fff"/><stop offset="1"/></linearGradient><path clip-path="url(#x)" fill="url(#y)" d="M512.858 322.617L717.825 50.964 452.403-149.3 247.437 122.353z"/></g></mask><linearGradient id="A" gradientUnits="userSpaceOnUse" x1="-1.423" y1="654.648" x2="-.423" y2="654.648" gradientTransform="rotate(-52.965 -77472.472 38189.12) scale(118.3367)"><stop offset="0" stop-color="#fdf3cb"/><stop offset="1" stop-color="#fdf3cb"/></linearGradient><path clip-path="url(#x)" mask="url(#z)" fill="url(#A)" d="M512.858 322.617L717.825 50.964 452.403-149.3 247.437 122.353z"/></g></g><g opacity=".134" clip-path="url(#m)"><defs><path id="B" d="M314.178 11.731h301.998v292.096H314.178z"/></defs><clipPath id="C"><use xlink:href="#B" overflow="visible"/></clipPath><g clip-path="url(#C)"><defs><path id="D" d="M510.657 70.057c-.99 1.711-196.479 112.785-196.479 112.785s52.614-169.288 53.67-169.983c1.055-.695 68.537-1.128 68.537-1.128l74.272 58.326z"/></defs><clipPath id="F"><use xlink:href="#D" overflow="visible"/></clipPath><defs><filter id="E" filterUnits="userSpaceOnUse" x="244.654" y="-68.1" width="335.527" height="330.774"><feColorMatrix values="1 0 0 0 0 0 1 0 0 0 0 0 1 0 0 0 0 0 1 0"/></filter></defs><mask maskUnits="userSpaceOnUse" x="244.654" y="-68.1" width="335.527" height="330.774" id="H"><g filter="url(#E)"><linearGradient id="G" gradientUnits="userSpaceOnUse" x1="-1.423" y1="654.947" x2="-.423" y2="654.947" gradientTransform="rotate(-117.177 -12469.551 20654.571) scale(63.3695)"><stop offset="0" stop-color="#fff"/><stop offset="1"/></linearGradient><path clip-path="url(#F)" fill="url(#G)" d="M580.181 147.147L469.67-68.1 244.654 47.426l110.511 215.248z"/></g></mask><linearGradient id="I" gradientUnits="userSpaceOnUse" x1="-1.423" y1="654.947" x2="-.423" y2="654.947" gradientTransform="rotate(-117.177 -12469.551 20654.571) scale(63.3695)"><stop offset="0" stop-color="#f37e40"/><stop offset="1" stop-color="#f37e40"/></linearGradient><path clip-path="url(#F)" mask="url(#H)" fill="url(#I)" d="M580.181 147.147L469.67-68.1 244.654 47.426l110.511 215.248z"/></g><g clip-path="url(#C)"><defs><path id="J" d="M510.657 70.057L314.178 182.842l171.818 120.985s128.39-116.945 130.088-119.879-20.812-69.488-21.855-71.07c-1.042-1.583-83.572-42.821-83.572-42.821"/></defs><clipPath id="L"><use xlink:href="#J" overflow="visible"/></clipPath><defs><filter id="K" filterUnits="userSpaceOnUse" x="232.312" y="-36.266" width="467.338" height="446.417"><feColorMatrix values="1 0 0 0 0 0 1 0 0 0 0 0 1 0 0 0 0 0 1 0"/></filter></defs><mask maskUnits="userSpaceOnUse" x="232.312" y="-36.266" width="467.338" height="446.417" id="N"><g filter="url(#K)"><linearGradient id="M" gradientUnits="userSpaceOnUse" x1="-1.423" y1="654.769" x2="-.423" y2="654.769" gradientTransform="rotate(67.77 57735.035 39248.95) scale(118.3367)"><stop offset="0" stop-color="#fff"/><stop offset="1"/></linearGradient><path clip-path="url(#L)" fill="url(#M)" d="M232.312 103.517L357.633 410.15 699.65 270.368 574.328-36.266z"/></g></mask><linearGradient id="O" gradientUnits="userSpaceOnUse" x1="-1.423" y1="654.769" x2="-.423" y2="654.769" gradientTransform="rotate(67.77 57735.03 39248.892) scale(118.3367)"><stop offset="0" stop-color="#fdf3cb"/><stop offset="1" stop-color="#fdf3cb"/></linearGradient><path clip-path="url(#L)" mask="url(#N)" fill="url(#O)" d="M232.312 103.517l125.321 306.634L699.65 270.368 574.328-36.266z"/></g></g><g><path fill="#FFD976" d="M461.043 99.813a.7.7 0 0 0-.358.095c-1.209.037-2.411.278-3.462.885l-17.118 9.883-.003.003a.844.844 0 0 0-.062.042 7.341 7.341 0 0 0-3.599 6.311v19.756c0 .751-.09 1.043-.229 1.228-.136.183-.46.391-1.101.703l-.014.008c-.018.007-.033.015-.049.023l-17.114 9.882a7.341 7.341 0 0 0-3.667 6.353v19.76a7.341 7.341 0 0 0 3.667 6.353l17.114 9.882a7.34 7.34 0 0 0 7.334 0l17.118-9.882c.012-.007.022-.015.033-.023.468-.305.867-.479 1.256-.505.391-.027.823.071 1.442.497a.566.566 0 0 0 .048.031l17.118 9.882a7.343 7.343 0 0 0 7.331 0l17.118-9.882a7.346 7.346 0 0 0 3.667-6.353v-19.76a7.346 7.346 0 0 0-3.667-6.353l-17.118-9.882a.539.539 0 0 0-.034-.017h-.003c-.517-.266-.845-.529-1.045-.812-.201-.284-.31-.609-.31-1.135v-19.757a7.34 7.34 0 0 0-3.568-6.286.67.67 0 0 0-.054-.039l-.006-.003a.61.61 0 0 0-.032-.022l-.004-.003-17.12-9.883a7.338 7.338 0 0 0-3.49-.98h-.019zm-.153 7.193h.003a.141.141 0 0 1 .063.02l17.121 9.882c.054.033.067.057.067.118v19.765c0 .061-.014.086-.067.118l-17.121 9.883c-.058.033-.079.033-.137 0l-17.034-9.832.064.064a.726.726 0 0 0-.146-.112c-.057-.034-.07-.058-.07-.121v-19.765c0-.064.014-.087.07-.121l17.116-9.879a.149.149 0 0 1 .071-.02m-22.174 37.959h.006c.03.001.053.008.067.017l17.115 9.883c.057.032.07.055.07.12v5.244c-.111-1.881-1.614-3.414-3.521-3.414h-8.297c-.311-.518-.627-1.048-1.155-1.355l-.003-.003-2.467-1.427v.003a3.581 3.581 0 0 0-1.711-.486h-.003a3.603 3.603 0 0 0-1.886.48l-2.473 1.428v.002c-.529.308-.849.838-1.161 1.358h-8.316c-1.907 0-3.41 1.533-3.521 3.414v-5.244c0-.065.014-.088.07-.12l17.113-9.883a.138.138 0 0 1 .073-.017m44.35 0h.005a.12.12 0 0 1 .064.017l17.115 9.883c.058.032.07.055.07.12v19.76c0 .065-.013.088-.07.121l-17.118 9.882c-.058.034-.079.034-.138 0l-17.118-9.882c-.057-.033-.069-.056-.069-.121v-19.76c0-.065.013-.088.069-.12l17.116-9.883a.137.137 0 0 1 .074-.017m-61.606 19.429c.099 1.164.698 2.238 1.721 2.83l2.891 1.671a3.598 3.598 0 0 0 3.6.003l2.087-1.205c.002.015.001.03.004.045a3.28 3.28 0 0 0-.028.357v2.529a3.6 3.6 0 0 0 1.798 3.116l3.4 1.964a3.6 3.6 0 0 0 3.6-.003l3.394-1.964a3.604 3.604 0 0 0 1.797-3.113v-2.529c-.001-.125-.015-.25-.028-.374v-.021l2.071 1.197a3.599 3.599 0 0 0 3.599-.005v.002l2.892-1.671c1.021-.592 1.621-1.666 1.72-2.83v10.352c0 .065-.014.088-.07.121l-17.118 9.882c-.057.033-.084.033-.141 0l-17.115-9.882c-.057-.033-.07-.056-.07-.121v-10.351z"/><path fill="#7D5134" d="M460.976 103.41a3.74 3.74 0 0 0-1.956.5l-17.117 9.883a3.736 3.736 0 0 0-1.865 3.237v19.759a3.736 3.736 0 0 0 1.865 3.237l17.117 9.883a3.74 3.74 0 0 0 3.735 0l17.121-9.883a3.736 3.736 0 0 0 1.865-3.237V117.03a3.736 3.736 0 0 0-1.865-3.237l-17.121-9.883a3.735 3.735 0 0 0-1.779-.5m-22.173 37.959a3.748 3.748 0 0 0-1.956.498l-17.114 9.882a3.737 3.737 0 0 0-1.868 3.237v19.759a3.734 3.734 0 0 0 1.868 3.237l17.114 9.883a3.737 3.737 0 0 0 3.738 0l17.118-9.883a3.736 3.736 0 0 0 1.868-3.237v-19.759a3.739 3.739 0 0 0-1.868-3.237l-17.118-9.882a3.736 3.736 0 0 0-1.782-.498m44.35 0a3.743 3.743 0 0 0-1.956.498l-17.118 9.882a3.737 3.737 0 0 0-1.868 3.237v19.759a3.734 3.734 0 0 0 1.868 3.237l17.118 9.883a3.734 3.734 0 0 0 3.734 0l17.118-9.883a3.734 3.734 0 0 0 1.868-3.237v-19.759a3.737 3.737 0 0 0-1.868-3.237l-17.118-9.882a3.743 3.743 0 0 0-1.778-.498m-44.422 15.775l2.467 1.428v1.011H436.257v-1.011l2.474-1.428zm-13.75 3.268h12.184l-.908.526-8.385 4.844-2.892-1.672v-3.698zm15.289 0h12.185v3.698l-2.893 1.672-8.364-4.833-.928-.537zm-1.554.065l3.408 1.967v1.818l-3.394 1.958-3.4-1.958v-1.83l3.386-1.955zm-3.385 4.549l3.4 1.964 3.394-1.964v2.31l-3.394 1.958-3.4-1.958v-2.31zm0 3.074l3.4 1.961 3.394-1.961v2.523l-3.394 1.964-3.4-1.964V168.1z"/><g opacity=".3" enable-background="new"><defs><path id="P" d="M391.833 76.83h138.111v47.563H391.833z"/></defs><clipPath id="Q"><use xlink:href="#P" overflow="visible"/></clipPath><path clip-path="url(#Q)" d="M485.197 76.831H436.58c-39.155 0-44.747 5.599-44.747 44.793v2.769c0-39.193 5.604-44.8 44.756-44.8h48.599c39.155 0 44.757 5.607 44.757 44.8v-2.769c0-39.194-5.594-44.793-44.748-44.793"/></g><defs><path id="R" d="M0 361.632h293.104v293.104H0z"/></defs><clipPath id="S"><use xlink:href="#R" overflow="visible"/></clipPath><path clip-path="url(#S)" fill="#FFF" d="M284.665 477.492v-17.835c0-78.386-11.187-89.585-89.497-89.585h-17.924a7.672 7.672 0 0 0-7.673-7.674h-46.037a7.672 7.672 0 0 0-7.673 7.674h-17.93c-78.31 0-89.491 11.199-89.491 89.585v17.835a7.673 7.673 0 0 0-7.673 7.673v46.038a7.673 7.673 0 0 0 7.673 7.673v17.835c0 78.383 11.181 89.585 89.491 89.585h17.93a7.671 7.671 0 0 0 7.673 7.673h46.037a7.671 7.671 0 0 0 7.673-7.673h17.924c78.31 0 89.497-11.202 89.497-89.585v-17.835a7.673 7.673 0 0 0 7.673-7.673v-46.038a7.673 7.673 0 0 0-7.673-7.673"/><path clip-path="url(#S)" fill="none" stroke="#D4D4D4" stroke-width="1.535" stroke-miterlimit="10" d="M284.665 477.492v-17.835c0-78.386-11.187-89.585-89.497-89.585h-17.924a7.672 7.672 0 0 0-7.673-7.674h-46.037a7.672 7.672 0 0 0-7.673 7.674h-17.93c-78.31 0-89.491 11.199-89.491 89.585v17.835a7.673 7.673 0 0 0-7.673 7.673v46.038a7.673 7.673 0 0 0 7.673 7.673v17.835c0 78.383 11.181 89.585 89.491 89.585h17.93a7.671 7.671 0 0 0 7.673 7.673h46.037a7.671 7.671 0 0 0 7.673-7.673h17.924c78.31 0 89.497-11.202 89.497-89.585v-17.835a7.673 7.673 0 0 0 7.673-7.673v-46.038a7.673 7.673 0 0 0-7.673-7.673z"/></g><g><defs><path id="T" d="M121.581 438.462c-39.155 0-44.748 5.6-44.748 44.793v48.527c0 39.194 5.593 44.793 44.748 44.793h48.618c39.154 0 44.747-5.599 44.747-44.793v-48.527c0-39.193-5.593-44.793-44.747-44.793h-48.618z"/></defs><clipPath id="U"><use xlink:href="#T" overflow="visible"/></clipPath><linearGradient id="V" gradientUnits="userSpaceOnUse" x1="-1.423" y1="654.736" x2="-.423" y2="654.736" gradientTransform="rotate(-90 -44950.81 45330.839) scale(138.113)"><stop offset="0" stop-color="#0f76a1"/><stop offset="1" stop-color="#35a0cd"/></linearGradient><path clip-path="url(#U)" fill="url(#V)" d="M76.833 438.462h138.113v138.113H76.833z"/></g><g><path fill="#FFF" d="M120.323 477.277c-1.067-.019-1.822.117-2.62.291v.146h.145c.51 1.046 1.408 1.719 2.038 2.62l1.456 3.057.145-.145c.902-.636 1.315-1.652 1.31-3.203-.361-.38-.414-.857-.727-1.311-.417-.603-1.222-.946-1.747-1.455m65.068 55.463c-5.119-.14-9.03.337-12.373 1.747-.95.4-2.465.41-2.62 1.602.522.547.603 1.364 1.018 2.038.799 1.291 2.146 3.021 3.348 3.93 1.314.992 2.668 2.053 4.077 2.911 2.505 1.528 5.302 2.4 7.715 3.931 1.421.902 2.834 2.038 4.221 3.057.685.504 1.147 1.286 2.038 1.602v-.146c-.469-.597-.589-1.415-1.019-2.038l-1.893-1.893c-1.85-2.456-4.199-4.612-6.696-6.404-1.99-1.43-6.447-3.36-7.278-5.678a10.048 10.048 0 0 0-.146-.146c1.412-.159 3.065-.67 4.368-1.02 2.189-.587 4.145-.435 6.405-1.019 1.019-.291 2.037-.583 3.057-.873v-.582c-1.143-1.173-1.957-2.724-3.203-3.785-3.26-2.775-6.817-5.549-10.481-7.86-2.032-1.283-4.543-2.116-6.696-3.203-.724-.365-1.996-.556-2.475-1.165-1.131-1.442-1.747-3.27-2.619-4.949-1.828-3.52-3.622-7.362-5.241-11.063-1.104-2.524-1.826-5.014-3.202-7.278-6.61-10.867-13.725-17.426-24.746-23.873-2.345-1.371-5.169-1.913-8.153-2.62l-4.803-.292c-.978-.408-1.995-1.604-2.912-2.183-3.651-2.308-13.016-7.324-15.72-.729-1.708 4.164 2.552 8.226 4.075 10.336 1.07 1.48 2.439 3.139 3.203 4.803.502 1.095.589 2.191 1.019 3.35 1.058 2.851 1.979 5.953 3.348 8.588.692 1.333 1.454 2.738 2.329 3.93.536.732 1.455 1.054 1.601 2.185-.899 1.258-.95 3.21-1.456 4.804-2.275 7.173-1.417 16.09 1.893 21.398 1.015 1.631 3.407 5.125 6.696 3.784 2.876-1.171 2.234-4.802 3.057-8.006.186-.726.072-1.26.436-1.747v.146l2.621 5.239c1.939 3.123 5.38 6.388 8.297 8.59 1.512 1.142 2.703 3.116 4.658 3.784v-.146h-.146c-.379-.591-.971-.835-1.455-1.31-1.14-1.117-2.406-2.506-3.348-3.785-2.653-3.602-4.997-7.543-7.133-11.646-1.02-1.959-1.906-4.121-2.766-6.114-.332-.769-.328-1.931-1.018-2.329-.942 1.461-2.329 2.643-3.057 4.367-1.165 2.758-1.316 6.12-1.747 9.607-.255.092-.142.029-.292.145-2.027-.488-2.74-2.575-3.493-4.365-1.906-4.528-2.26-11.82-.583-17.032.434-1.348 2.395-5.596 1.602-6.841-.379-1.244-1.63-1.962-2.329-2.912-.866-1.175-1.73-2.72-2.33-4.076-1.559-3.531-2.288-7.494-3.93-11.063-.784-1.705-2.112-3.433-3.202-4.948-1.207-1.682-2.558-2.918-3.494-4.95-.332-.722-.784-1.878-.291-2.62.157-.501.378-.71.874-.874.844-.651 3.196.217 4.075.582 2.335.97 4.283 1.893 6.26 3.203.95.629 1.909 1.847 3.057 2.184h1.31c2.049.472 4.345.146 6.259.728 3.384 1.028 6.416 2.628 9.171 4.367 8.39 5.298 15.25 12.84 19.943 21.836.755 1.447 1.081 2.831 1.746 4.366 1.342 3.099 3.032 6.286 4.367 9.316 1.332 3.023 2.63 6.074 4.513 8.589.99 1.322 4.813 2.032 6.55 2.767 1.218.515 3.214 1.051 4.367 1.745 2.204 1.33 4.339 2.912 6.406 4.368 1.033.727 4.208 2.323 4.366 3.638z"/><path fill="none" stroke="#FFF" stroke-width=".719" d="M120.323 477.277c-1.067-.019-1.822.117-2.62.291v.146h.145c.51 1.046 1.408 1.719 2.038 2.62l1.456 3.057.145-.145c.902-.636 1.315-1.652 1.31-3.203-.361-.38-.414-.857-.727-1.311-.417-.603-1.222-.946-1.747-1.455zm65.068 55.463c-5.119-.14-9.03.337-12.373 1.747-.95.4-2.465.41-2.62 1.602.522.547.603 1.364 1.018 2.038.799 1.291 2.146 3.021 3.348 3.93 1.314.992 2.668 2.053 4.077 2.911 2.505 1.528 5.302 2.4 7.715 3.931 1.421.902 2.834 2.038 4.221 3.057.685.504 1.147 1.286 2.038 1.602v-.146c-.469-.597-.589-1.415-1.019-2.038l-1.893-1.893c-1.85-2.456-4.199-4.612-6.696-6.404-1.99-1.43-6.447-3.36-7.278-5.678a10.048 10.048 0 0 0-.146-.146c1.412-.159 3.065-.67 4.368-1.02 2.189-.587 4.145-.435 6.405-1.019 1.019-.291 2.037-.583 3.057-.873v-.582c-1.143-1.173-1.957-2.724-3.203-3.785-3.26-2.775-6.817-5.549-10.481-7.86-2.032-1.283-4.543-2.116-6.696-3.203-.724-.365-1.996-.556-2.475-1.165-1.131-1.442-1.747-3.27-2.619-4.949-1.828-3.52-3.622-7.362-5.241-11.063-1.104-2.524-1.826-5.014-3.202-7.278-6.61-10.867-13.725-17.426-24.746-23.873-2.345-1.371-5.169-1.913-8.153-2.62l-4.803-.292c-.978-.408-1.995-1.604-2.912-2.183-3.651-2.308-13.016-7.324-15.72-.729-1.708 4.164 2.552 8.226 4.075 10.336 1.07 1.48 2.439 3.139 3.203 4.803.502 1.095.589 2.191 1.019 3.35 1.058 2.851 1.979 5.953 3.348 8.588.692 1.333 1.454 2.738 2.329 3.93.536.732 1.455 1.054 1.601 2.185-.899 1.258-.95 3.21-1.456 4.804-2.275 7.173-1.417 16.09 1.893 21.398 1.015 1.631 3.407 5.125 6.696 3.784 2.876-1.171 2.234-4.802 3.057-8.006.186-.726.072-1.26.436-1.747v.146l2.621 5.239c1.939 3.123 5.38 6.388 8.297 8.59 1.512 1.142 2.703 3.116 4.658 3.784v-.146h-.146c-.379-.591-.971-.835-1.455-1.31-1.14-1.117-2.406-2.506-3.348-3.785-2.653-3.602-4.997-7.543-7.133-11.646-1.02-1.959-1.906-4.121-2.766-6.114-.332-.769-.328-1.931-1.018-2.329-.942 1.461-2.329 2.643-3.057 4.367-1.165 2.758-1.316 6.12-1.747 9.607-.255.092-.142.029-.292.145-2.027-.488-2.74-2.575-3.493-4.365-1.906-4.528-2.26-11.82-.583-17.032.434-1.348 2.395-5.596 1.602-6.841-.379-1.244-1.63-1.962-2.329-2.912-.866-1.175-1.73-2.72-2.33-4.076-1.559-3.531-2.288-7.494-3.93-11.063-.784-1.705-2.112-3.433-3.202-4.948-1.207-1.682-2.558-2.918-3.494-4.95-.332-.722-.784-1.878-.291-2.62.157-.501.378-.71.874-.874.844-.651 3.196.217 4.075.582 2.335.97 4.283 1.893 6.26 3.203.95.629 1.909 1.847 3.057 2.184h1.31c2.049.472 4.345.146 6.259.728 3.384 1.028 6.416 2.628 9.171 4.367 8.39 5.298 15.25 12.84 19.943 21.836.755 1.447 1.081 2.831 1.746 4.366 1.342 3.099 3.032 6.286 4.367 9.316 1.332 3.023 2.63 6.074 4.513 8.589.99 1.322 4.813 2.032 6.55 2.767 1.218.515 3.214 1.051 4.367 1.745 2.204 1.33 4.339 2.912 6.406 4.368 1.033.727 4.208 2.323 4.366 3.638z"/><g opacity=".3" enable-background="new"><defs><path id="W" d="M76.833 438.462h138.111v47.562H76.833z"/></defs><clipPath id="X"><use xlink:href="#W" overflow="visible"/></clipPath><path clip-path="url(#X)" d="M170.196 438.462H121.58c-39.155 0-44.747 5.6-44.747 44.793v2.77c0-39.193 5.604-44.8 44.756-44.8h48.599c39.155 0 44.756 5.606 44.756 44.8v-2.77c0-39.193-5.592-44.793-44.748-44.793"/></g><defs><path id="Y" d="M22.658 86.686h189.179v189.178H22.658z"/></defs><clipPath id="Z"><use xlink:href="#Y" overflow="visible"/></clipPath><path clip-path="url(#Z)" fill="#FFF" d="M206.389 161.466v-11.511c0-50.593-7.22-57.821-57.764-57.821h-11.569a4.951 4.951 0 0 0-4.952-4.952H102.39a4.951 4.951 0 0 0-4.952 4.952H85.865c-50.543 0-57.76 7.229-57.76 57.821v11.511a4.951 4.951 0 0 0-4.952 4.952v29.714a4.951 4.951 0 0 0 4.952 4.953v11.511c0 50.591 7.216 57.821 57.76 57.821h11.573a4.951 4.951 0 0 0 4.952 4.953h29.713a4.951 4.951 0 0 0 4.952-4.953h11.569c50.543 0 57.764-7.23 57.764-57.821v-11.511a4.952 4.952 0 0 0 4.953-4.953v-29.714a4.951 4.951 0 0 0-4.952-4.952"/><path clip-path="url(#Z)" fill="none" stroke="#D4D4D4" stroke-width=".991" stroke-miterlimit="10" d="M206.389 161.466v-11.511c0-50.593-7.22-57.821-57.764-57.821h-11.569a4.951 4.951 0 0 0-4.952-4.952H102.39a4.951 4.951 0 0 0-4.952 4.952H85.865c-50.543 0-57.76 7.229-57.76 57.821v11.511a4.951 4.951 0 0 0-4.952 4.952v29.714a4.951 4.951 0 0 0 4.952 4.953v11.511c0 50.591 7.216 57.821 57.76 57.821h11.573a4.951 4.951 0 0 0 4.952 4.953h29.713a4.951 4.951 0 0 0 4.952-4.953h11.569c50.543 0 57.764-7.23 57.764-57.821v-11.511a4.952 4.952 0 0 0 4.953-4.953v-29.714a4.951 4.951 0 0 0-4.952-4.952z"/></g><g><defs><path id="aa" d="M101.128 136.274c-25.271 0-28.882 3.614-28.882 28.911v31.321c0 25.297 3.611 28.91 28.882 28.91h31.38c25.271 0 28.881-3.613 28.881-28.91v-31.321c0-25.297-3.61-28.911-28.881-28.911h-31.38z"/></defs><clipPath id="ab"><use xlink:href="#aa" overflow="visible"/></clipPath><linearGradient id="ac" gradientUnits="userSpaceOnUse" x1="-1.424" y1="654.736" x2="-.424" y2="654.736" gradientTransform="rotate(-90 -29074.687 29173.23) scale(89.1424)"><stop offset="0" stop-color="#69be28"/><stop offset="1" stop-color="#83d445"/></linearGradient><path clip-path="url(#ab)" fill="url(#ac)" d="M72.247 136.274h89.143v89.142H72.247z"/></g><g><defs><path id="ad" d="M101.127 136.274c-25.27 0-28.881 3.614-28.881 28.911v31.321c0 25.297 3.611 28.91 28.881 28.91h31.381c25.271 0 28.881-3.613 28.881-28.91v-31.321c0-25.297-3.61-28.911-28.881-28.911h-31.381z"/></defs><clipPath id="ae"><use xlink:href="#ad" overflow="visible"/></clipPath><g opacity=".134" clip-path="url(#ae)"><defs><path id="af" d="M49.221 69.202H202.73v199.249H49.221z"/></defs><clipPath id="ag"><use xlink:href="#af" overflow="visible"/></clipPath><g clip-path="url(#ag)"><defs><path id="ah" d="M66.161 148.149l136.016 25.643-65.974 94.659-78.226-46.999-8.756-52.014z"/></defs><clipPath id="aj"><use xlink:href="#ah" overflow="visible"/></clipPath><defs><filter id="ai" filterUnits="userSpaceOnUse" x="28.298" y="121.548" width="194.8" height="173.504"><feColorMatrix values="1 0 0 0 0 0 1 0 0 0 0 0 1 0 0 0 0 0 1 0"/></filter></defs><mask maskUnits="userSpaceOnUse" x="28.298" y="121.548" width="194.8" height="173.504" id="al"><g filter="url(#ai)"><linearGradient id="ak" gradientUnits="userSpaceOnUse" x1="-1.423" y1="654.63" x2="-.423" y2="654.63" gradientTransform="rotate(100.177 16646.383 20127.69) scale(60.9627)"><stop offset="0" stop-color="#fff"/><stop offset="1"/></linearGradient><path clip-path="url(#aj)" fill="url(#ak)" d="M53.996 121.548L28.298 264.695l169.103 30.357 25.698-143.147z"/></g></mask><linearGradient id="am" gradientUnits="userSpaceOnUse" x1="-1.423" y1="654.631" x2="-.423" y2="654.631" gradientTransform="rotate(100.177 16646.383 20127.69) scale(60.9627)"><stop offset="0" stop-color="#4d9a35"/><stop offset="1" stop-color="#4d9a35"/></linearGradient><path clip-path="url(#aj)" mask="url(#al)" fill="url(#am)" d="M53.996 121.548L28.298 264.695l169.103 30.357 25.698-143.147z"/></g><g clip-path="url(#ag)"><defs><path id="an" d="M66.161 148.149l136.016 25.643.553-60.749-99.319-43.841z"/></defs><clipPath id="ap"><use xlink:href="#an" overflow="visible"/></clipPath><defs><filter id="ao" filterUnits="userSpaceOnUse" x="47.862" y="45.309" width="173.167" height="152.376"><feColorMatrix values="1 0 0 0 0 0 1 0 0 0 0 0 1 0 0 0 0 0 1 0"/></filter></defs><mask maskUnits="userSpaceOnUse" x="47.862" y="45.309" width="173.167" height="152.376" id="ar"><g filter="url(#ao)"><linearGradient id="aq" gradientUnits="userSpaceOnUse" x1="-1.423" y1="654.578" x2="-.423" y2="654.578" gradientTransform="rotate(-79.759 -16463.409 13831.045) scale(42.3588)"><stop offset="0" stop-color="#fff"/><stop offset="1"/></linearGradient><path clip-path="url(#ap)" fill="url(#aq)" d="M198.414 197.686l22.615-125.178L70.478 45.309 47.862 170.486z"/></g></mask><linearGradient id="as" gradientUnits="userSpaceOnUse" x1="-1.423" y1="654.578" x2="-.423" y2="654.578" gradientTransform="rotate(-79.759 -16463.388 13831.06) scale(42.3588)"><stop offset="0" stop-color="#c7df6e"/><stop offset="1" stop-color="#c7df6e"/></linearGradient><path clip-path="url(#ap)" mask="url(#ar)" fill="url(#as)" d="M198.414 197.686l22.615-125.178L70.478 45.309 47.862 170.486z"/></g></g><g opacity=".138" clip-path="url(#ae)"><defs><path id="at" d="M-1.423 82.835h194.631V259.71H-1.423z"/></defs><clipPath id="au"><use xlink:href="#at" overflow="visible"/></clipPath><g clip-path="url(#au)"><defs><path id="av" d="M54.622 221.537l80.325-112.72 58.261 99.591-75.476 51.302-50.889-13.867z"/></defs><clipPath id="ax"><use xlink:href="#av" overflow="visible"/></clipPath><defs><filter id="aw" filterUnits="userSpaceOnUse" x="-16.252" y="43.724" width="280.333" height="281.08"><feColorMatrix values="1 0 0 0 0 0 1 0 0 0 0 0 1 0 0 0 0 0 1 0"/></filter></defs><mask maskUnits="userSpaceOnUse" x="-16.252" y="43.724" width="280.333" height="281.08" id="az"><g filter="url(#aw)"><linearGradient id="ay" gradientUnits="userSpaceOnUse" x1="-1.423" y1="654.613" x2="-.423" y2="654.613" gradientTransform="scale(60.9627) rotate(34.975 1034.664 333.442)"><stop offset="0" stop-color="#fff"/><stop offset="1"/></linearGradient><path clip-path="url(#ax)" fill="url(#ay)" d="M-16.252 210.131l163.924 114.673 116.409-166.407L100.157 43.724z"/></g></mask><linearGradient id="aA" gradientUnits="userSpaceOnUse" x1="-1.423" y1="654.613" x2="-.423" y2="654.613" gradientTransform="scale(60.9627) rotate(34.975 1034.664 333.442)"><stop offset="0" stop-color="#4d9a35"/><stop offset="1" stop-color="#4d9a35"/></linearGradient><path clip-path="url(#ax)" mask="url(#az)" fill="url(#aA)" d="M-16.252 210.131l163.924 114.673 116.409-166.407L100.157 43.724z"/></g><g clip-path="url(#au)"><defs><path id="aB" d="M54.622 221.537l80.325-112.72-54.915-25.982-81.455 71.775z"/></defs><clipPath id="aD"><use xlink:href="#aB" overflow="visible"/></clipPath><defs><filter id="aC" filterUnits="userSpaceOnUse" x="-66.624" y="18.731" width="266.771" height="266.91"><feColorMatrix values="1 0 0 0 0 0 1 0 0 0 0 0 1 0 0 0 0 0 1 0"/></filter></defs><mask maskUnits="userSpaceOnUse" x="-66.624" y="18.731" width="266.771" height="266.91" id="aF"><g filter="url(#aC)"><linearGradient id="aE" gradientUnits="userSpaceOnUse" x1="-1.423" y1="654.608" x2="-.423" y2="654.608" gradientTransform="scale(-42.3588) rotate(35.038 1041.417 324.127)"><stop offset="0" stop-color="#fff"/><stop offset="1"/></linearGradient><path clip-path="url(#aD)" fill="url(#aE)" d="M200.147 128.554L43.526 18.731l-110.15 157.088L89.997 285.641z"/></g></mask><linearGradient id="aG" gradientUnits="userSpaceOnUse" x1="-1.423" y1="654.606" x2="-.423" y2="654.606" gradientTransform="scale(-42.3588) rotate(35.038 1041.418 324.127)"><stop offset="0" stop-color="#c7df6e"/><stop offset="1" stop-color="#c7df6e"/></linearGradient><path clip-path="url(#aD)" mask="url(#aF)" fill="url(#aG)" d="M200.147 128.554L43.526 18.731l-110.15 157.088L89.997 285.641z"/></g></g></g><g><path fill="#5AA223" d="M115.522 156.231a.44.44 0 0 0-.16.033c-.389-.01-.802.01-1.275.19-.875.332-1.351 1.026-1.652 1.616-.13.18-.238.376-.312.586l-.005.014-.006.018-1.093 3.225-14.975 3.435a.462.462 0 0 0-.187.092c-.383.086-.795.171-1.223.463-.526.359-.817.776-.997 1.025l-5.887 8.152.016-.02c-.636.785-.974 1.66-1.16 2.357l-3.424 12.79.054.002c-.542 0-1.533.138-2.224.992-.524.65-.583 1.267-.583 1.599a2.216 2.216 0 0 0-.013.234v.947c0 .422.06 1.38.876 2.117.793.716 1.66.694 1.971.694h2.53l-.337 4.783-.004.031h.002l-.002.016a.458.458 0 0 0 .015.152c-.08.803-.053 1.841.789 2.713.93.964 2.047.958 2.642.958h3.252c.717 0 1.686-.143 2.474-.84.774-.685 1.017-1.545 1.142-2.151l.004-.021.002-.017.656-3.4 1.281 3.826.001.006a.482.482 0 0 0 .077.136c.232.673.637 1.412 1.385 1.891.808.518 1.626.57 2.224.57h3.85c.763 0 1.809-.307 2.468-1.183.629-.833.682-1.75.626-2.462l-.687-8.727 3.676-.992.02-.006h.003l.028-.007.758-.216-.639 9.851a.489.489 0 0 0 .011.127c-.045.644-.053 1.633.742 2.534.857.971 2.004 1.081 2.789 1.081h2.574c.757 0 1.903-.238 2.635-1.13.668-.814.735-1.56.836-2.084l.686-3.56 2.21 4.073c.331.651.746 1.419 1.593 1.999.861.59 1.833.702 2.651.702h3.169c.39 0 .868-.041 1.392-.267a2.887 2.887 0 0 0 1.415-1.322c.553-1.099.287-2.01.14-2.559l-.002-.007-.002-.009-4.509-16.546 1.493.055-.013-.002.029.002.029.002 1.897.03c.322.006.707-.007 1.165-.137.171-.049.26-.179.397-.267l.468 5.706a.05.05 0 0 0 .002.012c.059.668.159 1.359.551 2.064.352.634.864.988 1.291 1.266a.47.47 0 0 0 .165.178l.015.009.003.002.026.014 3.273 2.012a.054.054 0 0 1 .013.007c1.075.618 1.948.812 3.049.956l.036.001 3.834.193c.065.004.123.004.176.003h.001c.305-.007.743-.013 1.277-.181.447-.14.798-.426 1.129-.702a.463.463 0 0 0 .223-.109l1.65-1.492a1.95 1.95 0 0 0 .083-.082c.355-.354.721-.847 1.027-1.921.148-.519.226-1.21.072-1.98l-.798-4.998a3.063 3.063 0 0 0-.687-1.551c-.468-.565-1.284-1.05-2.225-1.048l-1.761.003c-.039 0-.077 0-.116.002h-.004c-.41.022-1.162.11-1.841.729-.18.165-.241.368-.359.557l.209-6.942v-.024l.041-1.828v-.022c.012-.876-.21-1.504-.529-2.136l-.002-.002c-.018-.035-.037-.068-.056-.102v-.002l-5.439-9.525v-.002l-.011-.021c-.526-.906-1.564-1.591-2.572-1.825-.035-.008-.07-.017-.103-.023l-.007-.002-9.232-1.665h-.002c-.142-.026-.286-.01-.429-.009-.191-.346-.373-.74-.827-1.056-.693-.482-1.336-.596-1.836-.705h-.002l-7.921-1.723c-.32-.08-.682-.187-1.112-.221h-.002c-.015-.002-.03-.002-.045-.002zm.674 4.867l7.422 1.616.02.003 7.338 17.415-6.359-.229-11.752-8.975 3.331-9.83zm14.892 4.179l1.045.189c-.122.334-.283.648-.283 1.037 0 .4.106.773.232 1.134l-.994-2.36zm-22.989 2.071l-1.295 3.824a2.94 2.94 0 0 0 .992 3.27l.002.002.003.002 13.998 10.689c.483.37 1.069.58 1.675.603h.017l1.819.065 4.086 15H128.213c-.031-.054-.044-.065-.088-.152l-.004-.007-.027-.055-.002-.002-5.334-9.833a2.402 2.402 0 0 0-.214-.316l-1.884-3.456-.002-.002-.026-.04-.001-.002a2.94 2.94 0 0 0-2.63-1.485h-.002a2.871 2.871 0 0 0-.595.092h-.003a.516.516 0 0 0-.124.018l-7.153 2.035-4.365 1.177-.058.015-.011.003c-.731.222-1.665.637-2.247 1.586-.541.881-.517 1.744-.464 2.363-.004.03-.006.061-.004.092l.002.024.002.012.624 7.933h-1.681l-6.343-18.968a2.927 2.927 0 0 0-.651-1.087l-1.579-1.674a2.932 2.932 0 0 0-2.055-.91c.028-.035.005-.086.08-.178.026-.033.053-.068.078-.103l.002-.002 5.814-8.049 10.831-2.484zm24.171.735c.593 1.154 1.766 1.977 3.136 1.977.832 0 1.54-.365 2.138-.853l3.419 5.989c.007.032.016.075.033.139l.007.024-.036 1.636-.398 13.207-.64-.394-.009-.082-.003-.018-.869-10.566v-.001l-.002-.022v-.004c-.129-1.358-.99-2.688-2.301-3.236l-.042-.016h-.002l-1.395-.575-3.036-7.205zm-40.55 20.723l1.239 3.705-1.602 8.292h-1.195l.66-9.358c.287-.838.578-1.693.898-2.639m47.961 1.382l-.006.011-.007-.006a.07.07 0 0 1 .013-.005zm-22.906 1.937l1.128 2.071-1.269 6.607h-.423l.564-8.678z"/><path fill="#F2FAEB" d="M114.311 159.431l-3.942 11.637c-.246.573.082.929.487 1.245l12.423 9.486c.406.335.676.403 1.203.422l6.923.25 1.898.031c.792.013 1.043-.259.703-1.105l-.354-.892-7.967-18.906c-.376-.832-.621-.946-1.574-1.154l-7.978-1.736c-1.15-.286-1.503-.181-1.822.722zm12.975 2.801l6.252 14.837 2.312.953c.495.207.824.664.885 1.311l.873 10.6c.096 1.084.314 1.38.911 1.733l3.317 2.036c.479.297.967.433.963-.362l.488-16.284.041-1.833c.004-.292-.111-.723-.282-1.06l-5.443-9.535c-.222-.382-.522-.6-1.086-.731l-9.231-1.665zm-15.657 1.924l-15.068 3.456c-.582.099-.722.232-1.043.675l-5.948 8.236c-.424.523-.569.916-.724 1.495l-3.56 13.307 1.818.021c.396-1.152.827-2.417 1.289-3.786 1.13-3.346 2.237-6.666 2.237-6.666a.616.616 0 0 1 1.029-.227l1.582 1.676a.612.612 0 0 1 .136.227l6.534 19.544c.228.804.644 1.01 1.484 1.01h3.85c.535 0 .846-.307.78-1.14l-.736-9.333c-.089-.942.082-1.335 1.074-1.635l4.381-1.18 7.168-2.04a.616.616 0 0 1 .708.297l2.085 3.826.011-.058 5.334 9.833c.568 1.119.936 1.43 2.175 1.43h3.169c.798 0 .922-.416.704-1.232l-4.998-18.346-3.542-.128a.617.617 0 0 1-.35-.126l-13.999-10.69a.614.614 0 0 1-.209-.685l2.629-7.761zm23.777 1.113a1.234 1.234 0 1 1 0 2.468 1.234 1.234 0 0 1 0-2.468M91.47 182.256c-.256.768-.945 2.837-1.911 5.698-.369 1.093-.704 2.069-1.032 3.027l-.759 10.804c-.161 1.124.207 1.339 1.131 1.339h3.251c.878 0 1.17-.306 1.342-1.139l1.862-9.631-3.098-9.267-.786-.831zm58.012 2.844l-1.762.002c-.36.02-.531.149-.515.497l.302 4.302 3.393.857-.804-5.041c-.039-.265-.231-.619-.614-.617zm-31.706 4.013l-3.19.907-.769 11.836c-.076.909.136 1.268 1.223 1.268h2.575c.846 0 .995-.304 1.192-1.329l1.533-7.978-2.564-4.704zm26.248.939l-.191 4.277 3.839.192c.532-.014.794-.057 1.127-.392l1.65-1.494c.38-.379.434-.672-.03-.828l-6.395-1.755zm-61.288 2.988v.942c0 .397.12.49.526.49h2.731a.66.66 0 0 1 .074-.195 24.167 24.167 0 0 0 .204-.538c.103-.286.258-.729.412-1.169l-3.447-.038c-.448 0-.5.173-.5.508z"/><g opacity=".3" enable-background="new"><defs><path id="aH" d="M72.248 136.274h89.141v30.698H72.248z"/></defs><clipPath id="aI"><use xlink:href="#aH" overflow="visible"/></clipPath><path clip-path="url(#aI)" d="M132.507 136.274h-31.379c-25.271 0-28.881 3.614-28.881 28.911v1.787c0-25.297 3.617-28.915 28.887-28.915h31.367c25.272 0 28.887 3.618 28.887 28.915v-1.787c.001-25.296-3.609-28.911-28.881-28.911"/></g><defs><path id="aJ" d="M418.475 380.561h148.919v148.918H418.475z"/></defs><clipPath id="aK"><use xlink:href="#aJ" overflow="visible"/></clipPath><path clip-path="url(#aK)" fill="#FFF" d="M563.106 439.426v-9.062c0-39.826-5.685-45.516-45.472-45.516h-9.106a3.898 3.898 0 0 0-3.898-3.898h-23.39a3.898 3.898 0 0 0-3.898 3.898h-9.109c-39.787 0-45.468 5.689-45.468 45.516v9.062a3.898 3.898 0 0 0-3.898 3.898v23.391a3.898 3.898 0 0 0 3.898 3.898v9.062c0 39.824 5.681 45.516 45.468 45.516h9.109a3.898 3.898 0 0 0 3.898 3.898h23.39a3.898 3.898 0 0 0 3.898-3.898h9.106c39.787 0 45.472-5.691 45.472-45.516v-9.062a3.897 3.897 0 0 0 3.897-3.898v-23.391a3.897 3.897 0 0 0-3.897-3.898"/><path clip-path="url(#aK)" fill="none" stroke="#D4D4D4" stroke-width=".78" stroke-miterlimit="10" d="M563.106 439.426v-9.062c0-39.826-5.685-45.516-45.472-45.516h-9.106a3.898 3.898 0 0 0-3.898-3.898h-23.39a3.898 3.898 0 0 0-3.898 3.898h-9.109c-39.787 0-45.468 5.689-45.468 45.516v9.062a3.898 3.898 0 0 0-3.898 3.898v23.391a3.898 3.898 0 0 0 3.898 3.898v9.062c0 39.824 5.681 45.516 45.468 45.516h9.109a3.898 3.898 0 0 0 3.898 3.898h23.39a3.898 3.898 0 0 0 3.898-3.898h9.106c39.787 0 45.472-5.691 45.472-45.516v-9.062a3.897 3.897 0 0 0 3.897-3.898v-23.391a3.897 3.897 0 0 0-3.897-3.898z"/></g><g><defs><path id="aL" d="M480.246 419.596c-19.893 0-22.735 2.845-22.735 22.759v24.655c0 19.912 2.843 22.758 22.735 22.758h24.702c19.893 0 22.735-2.846 22.735-22.758v-24.655c0-19.914-2.843-22.759-22.735-22.759h-24.702z"/></defs><clipPath id="aM"><use xlink:href="#aL" overflow="visible"/></clipPath><linearGradient id="aN" gradientUnits="userSpaceOnUse" x1="-1.423" y1="654.736" x2="-.423" y2="654.736" gradientTransform="matrix(0 -70.1716 70.1716 0 -45451.332 389.92)"><stop offset="0" stop-color="#69be28"/><stop offset="1" stop-color="#83d445"/></linearGradient><path clip-path="url(#aM)" fill="url(#aN)" d="M457.51 419.596h70.172v70.172H457.51z"/></g><g><defs><path id="aO" d="M480.246 419.596c-19.893 0-22.735 2.845-22.735 22.759v24.655c0 19.912 2.843 22.758 22.735 22.758h24.702c19.893 0 22.735-2.846 22.735-22.758v-24.655c0-19.914-2.843-22.759-22.735-22.759h-24.702z"/></defs><clipPath id="aP"><use xlink:href="#aO" overflow="visible"/></clipPath><g opacity=".134" clip-path="url(#aP)"><defs><path id="aQ" d="M439.385 366.797h120.841v156.847H439.385z"/></defs><clipPath id="aR"><use xlink:href="#aQ" overflow="visible"/></clipPath><g clip-path="url(#aR)"><defs><path id="aS" d="M452.719 428.943l107.071 20.186-51.933 74.515-61.579-36.998-6.893-40.945z"/></defs><clipPath id="aU"><use xlink:href="#aS" overflow="visible"/></clipPath><defs><filter id="aT" filterUnits="userSpaceOnUse" x="422.917" y="408.004" width="153.343" height="136.579"><feColorMatrix values="1 0 0 0 0 0 1 0 0 0 0 0 1 0 0 0 0 0 1 0"/></filter></defs><mask maskUnits="userSpaceOnUse" x="422.917" y="408.004" width="153.343" height="136.579" id="aW"><g filter="url(#aT)"><linearGradient id="aV" gradientUnits="userSpaceOnUse" x1="-1.423" y1="654.631" x2="-.423" y2="654.631" gradientTransform="scale(-47.989) rotate(-79.823 -402.777 328.179)"><stop offset="0" stop-color="#fff"/><stop offset="1"/></linearGradient><path clip-path="url(#aU)" fill="url(#aV)" d="M443.145 408.004l-20.228 112.683 133.114 23.896L576.259 431.9z"/></g></mask><linearGradient id="aX" gradientUnits="userSpaceOnUse" x1="-1.423" y1="654.629" x2="-.423" y2="654.629" gradientTransform="scale(-47.989) rotate(-79.823 -402.776 328.178)"><stop offset="0" stop-color="#4d9a35"/><stop offset="1" stop-color="#4d9a35"/></linearGradient><path clip-path="url(#aU)" mask="url(#aW)" fill="url(#aX)" d="M443.145 408.004l-20.228 112.683 133.114 23.896L576.259 431.9z"/></g><g clip-path="url(#aR)"><defs><path id="aY" d="M452.719 428.943l107.071 20.186.436-47.82-78.184-34.512z"/></defs><clipPath id="ba"><use xlink:href="#aY" overflow="visible"/></clipPath><defs><filter id="aZ" filterUnits="userSpaceOnUse" x="438.315" y="347.989" width="136.314" height="119.948"><feColorMatrix values="1 0 0 0 0 0 1 0 0 0 0 0 1 0 0 0 0 0 1 0"/></filter></defs><mask maskUnits="userSpaceOnUse" x="438.315" y="347.989" width="136.314" height="119.948" id="bc"><g filter="url(#aZ)"><linearGradient id="bb" gradientUnits="userSpaceOnUse" x1="-1.423" y1="654.576" x2="-.423" y2="654.576" gradientTransform="rotate(-79.759 -12572.535 10803.993) scale(33.3443)"><stop offset="0" stop-color="#fff"/><stop offset="1"/></linearGradient><path clip-path="url(#ba)" fill="url(#bb)" d="M556.828 467.938l17.801-98.539-118.511-21.41-17.803 98.538z"/></g></mask><linearGradient id="bd" gradientUnits="userSpaceOnUse" x1="-1.423" y1="654.576" x2="-.423" y2="654.576" gradientTransform="rotate(-79.759 -12572.535 10803.993) scale(33.3443)"><stop offset="0" stop-color="#c7df6e"/><stop offset="1" stop-color="#c7df6e"/></linearGradient><path clip-path="url(#ba)" mask="url(#bc)" fill="url(#bd)" d="M556.828 467.938l17.801-98.539-118.511-21.41-17.803 98.538z"/></g></g><g opacity=".138" clip-path="url(#aP)"><defs><path id="be" d="M399.519 377.528H552.73v139.234H399.519z"/></defs><clipPath id="bf"><use xlink:href="#be" overflow="visible"/></clipPath><g clip-path="url(#bf)"><defs><path id="bg" d="M443.636 486.713l63.232-88.732 45.862 78.397-59.413 40.385-40.061-10.916z"/></defs><clipPath id="bi"><use xlink:href="#bg" overflow="visible"/></clipPath><defs><filter id="bh" filterUnits="userSpaceOnUse" x="387.846" y="346.741" width="220.674" height="221.262"><feColorMatrix values="1 0 0 0 0 0 1 0 0 0 0 0 1 0 0 0 0 0 1 0"/></filter></defs><mask maskUnits="userSpaceOnUse" x="387.846" y="346.741" width="220.674" height="221.262" id="bk"><g filter="url(#bh)"><linearGradient id="bj" gradientUnits="userSpaceOnUse" x1="-1.423" y1="654.613" x2="-.423" y2="654.613" gradientTransform="scale(47.989) rotate(34.975 1028.51 349.945)"><stop offset="0" stop-color="#fff"/><stop offset="1"/></linearGradient><path clip-path="url(#bi)" fill="url(#bj)" d="M387.846 477.734l129.038 90.269L608.52 437.01l-129.038-90.269z"/></g></mask><linearGradient id="bl" gradientUnits="userSpaceOnUse" x1="-1.423" y1="654.613" x2="-.423" y2="654.613" gradientTransform="scale(47.989) rotate(34.975 1028.51 349.945)"><stop offset="0" stop-color="#4d9a35"/><stop offset="1" stop-color="#4d9a35"/></linearGradient><path clip-path="url(#bi)" mask="url(#bk)" fill="url(#bl)" d="M387.846 477.734l129.038 90.269L608.52 437.01l-129.038-90.269z"/></g><g clip-path="url(#bf)"><defs><path id="bm" d="M443.636 486.713l63.232-88.732-43.229-20.453-64.12 56.501z"/></defs><clipPath id="bo"><use xlink:href="#bm" overflow="visible"/></clipPath><defs><filter id="bn" filterUnits="userSpaceOnUse" x="348.194" y="327.066" width="209.999" height="210.109"><feColorMatrix values="1 0 0 0 0 0 1 0 0 0 0 0 1 0 0 0 0 0 1 0"/></filter></defs><mask maskUnits="userSpaceOnUse" x="348.194" y="327.066" width="209.999" height="210.109" id="bq"><g filter="url(#bn)"><linearGradient id="bp" gradientUnits="userSpaceOnUse" x1="-1.423" y1="654.608" x2="-.423" y2="654.608" gradientTransform="rotate(-144.962 -3162.043 11054.532) scale(33.3443)"><stop offset="0" stop-color="#fff"/><stop offset="1"/></linearGradient><path clip-path="url(#bo)" fill="url(#bp)" d="M558.193 413.518l-123.29-86.452-86.709 123.659 123.29 86.451z"/></g></mask><linearGradient id="br" gradientUnits="userSpaceOnUse" x1="-1.423" y1="654.607" x2="-.423" y2="654.607" gradientTransform="rotate(-144.962 -3162.044 11054.534) scale(33.3443)"><stop offset="0" stop-color="#c7df6e"/><stop offset="1" stop-color="#c7df6e"/></linearGradient><path clip-path="url(#bo)" mask="url(#bq)" fill="url(#br)" d="M558.193 413.518l-123.29-86.452-86.709 123.659 123.29 86.451z"/></g></g></g><g><path fill="#5AA223" d="M491.576 435.305a.382.382 0 0 0-.125.026 2.543 2.543 0 0 0-1.004.149c-.689.263-1.064.809-1.3 1.272a1.78 1.78 0 0 0-.246.461l-.004.012-.005.015-.86 2.537-11.788 2.704a.383.383 0 0 0-.147.073c-.302.067-.625.134-.963.364-.413.283-.643.611-.784.807l-4.635 6.417.014-.016c-.501.618-.768 1.307-.914 1.855l-2.695 10.068.042.001c-.426 0-1.207.109-1.75.781a1.956 1.956 0 0 0-.459 1.26 1.56 1.56 0 0 0-.01.184v.745c0 .332.047 1.086.688 1.666.624.564 1.308.547 1.553.547h1.991l-.266 3.765-.003.024h.002l-.002.014c-.003.04.001.08.012.119-.062.632-.042 1.448.621 2.136.732.759 1.611.754 2.08.754h2.56c.564 0 1.327-.113 1.947-.661.609-.539.801-1.217.899-1.693l.003-.017.001-.013.517-2.678 1.009 3.013.002.005a.32.32 0 0 0 .06.106c.183.53.501 1.112 1.09 1.489.636.407 1.281.448 1.751.448h3.031c.6 0 1.423-.242 1.943-.931.493-.656.535-1.378.491-1.938l-.541-6.87 2.895-.781.016-.005h.002a.12.12 0 0 0 .022-.005l.597-.17-.503 7.755a.349.349 0 0 0 .009.101c-.036.507-.042 1.285.584 1.994.674.765 1.577.851 2.195.851h2.026c.596 0 1.498-.188 2.073-.889.526-.642.579-1.229.659-1.642l.539-2.802 1.741 3.206c.259.512.586 1.117 1.253 1.574.678.464 1.443.552 2.087.552h2.494c.308 0 .684-.033 1.097-.21a2.274 2.274 0 0 0 1.113-1.041c.435-.865.226-1.582.11-2.014l-.001-.007-.002-.007-3.55-13.023 1.176.043-.011-.002.023.002.022.001 1.493.023c.254.005.557-.005.917-.107.136-.039.204-.142.312-.21l.369 4.49.001.011c.047.525.126 1.069.434 1.625.278.499.68.776 1.017.996a.36.36 0 0 0 .131.14l.011.008.003.001.02.011 2.577 1.584a.02.02 0 0 0 .011.006c.846.486 1.532.639 2.399.753l.028.001 3.018.151c.051.003.098.003.14.002h.001c.238-.005.584-.01 1.005-.142.352-.111.628-.336.888-.553a.378.378 0 0 0 .176-.086l1.299-1.175.003-.003.063-.062c.278-.279.567-.666.808-1.512.116-.409.178-.953.058-1.56l-.628-3.934a2.433 2.433 0 0 0-.542-1.222 2.324 2.324 0 0 0-1.751-.824l-1.387.003-.092.001h-.003c-.323.017-.914.087-1.449.574-.142.13-.189.29-.281.438l.164-5.465v-.02l.032-1.438v-.017c.008-.69-.166-1.185-.417-1.683l-.002-.002-.044-.08v-.001l-4.282-7.498v-.001a.142.142 0 0 0-.008-.018c-.414-.713-1.23-1.252-2.024-1.437a1.323 1.323 0 0 0-.081-.018l-.006-.002-7.267-1.311h-.002c-.112-.02-.225-.009-.338-.008-.15-.271-.294-.582-.651-.83-.545-.38-1.051-.47-1.444-.556h-.001l-6.236-1.356c-.252-.062-.537-.146-.875-.174h-.002c-.013.007-.026.006-.037.006zm.532 3.831l5.842 1.272.015.003 5.776 13.708-5.005-.181-9.251-7.064 2.623-7.738zm11.722 3.291l.822.148c-.096.263-.222.51-.222.816 0 .315.084.608.182.893l-.782-1.857zm-18.097 1.629l-1.02 3.01a2.316 2.316 0 0 0 .781 2.574l.001.002.003.001 11.02 8.415c.38.291.841.456 1.318.475h.014l1.432.051 3.216 11.808h-.931c-.025-.042-.035-.051-.07-.12l-.003-.005c-.008-.017-.015-.033-.021-.043l-.001-.002-4.199-7.74a1.817 1.817 0 0 0-.169-.249l-1.483-2.721-.001-.001-.02-.032-.002-.001a2.318 2.318 0 0 0-2.07-1.169h-.001a2.216 2.216 0 0 0-.469.073h-.002a.376.376 0 0 0-.099.014l-5.63 1.603-3.437.926-.045.012-.01.002c-.574.176-1.311.502-1.769 1.248-.426.694-.407 1.373-.365 1.86a.45.45 0 0 0-.003.073l.001.019.002.01.491 6.244h-1.323l-4.993-14.931a2.3 2.3 0 0 0-.512-.856l-1.244-1.316a2.303 2.303 0 0 0-1.617-.717c.022-.028.004-.068.062-.141.021-.025.042-.054.062-.081l.001-.002 4.577-6.336 8.528-1.957zm19.028.579c.466.909 1.389 1.556 2.468 1.556.654 0 1.212-.286 1.683-.671l2.691 4.714.025.11.007.02-.029 1.287-.312 10.396-.504-.31c-.003-.027-.004-.025-.007-.064l-.003-.015-.684-8.317v-.001l-.002-.018v-.002c-.102-1.07-.779-2.116-1.812-2.548-.011-.005-.021-.01-.033-.013h-.002l-1.097-.453-2.389-5.671zm-31.922 16.312l.976 2.917-1.26 6.526h-.941l.519-7.366a473.8 473.8 0 0 0 .706-2.077m37.755 1.088l-.005.009-.006-.004.011-.005zm-18.031 1.525l.888 1.63-.999 5.201h-.333l.444-6.831z"/><path fill="#F2FAEB" d="M490.624 437.823l-3.104 9.161c-.193.451.065.731.384.979l9.779 7.468c.32.264.532.317.947.333l5.45.195 1.493.024c.623.011.82-.203.554-.869l-.279-.702-6.271-14.883c-.296-.655-.488-.745-1.238-.908l-6.28-1.367c-.906-.224-1.184-.142-1.435.569zm10.212 2.206l4.922 11.68 1.82.75c.39.162.647.522.696 1.032l.688 8.344c.075.854.247 1.086.717 1.364l2.611 1.604c.377.233.761.341.758-.285l.384-12.819.032-1.443c.003-.229-.087-.567-.222-.834l-4.284-7.506c-.176-.3-.411-.472-.855-.574l-7.267-1.313zm-12.324 1.514l-11.861 2.721c-.458.079-.568.183-.82.531l-4.683 6.483c-.334.412-.448.721-.569 1.177l-2.804 10.476 1.433.016c.311-.906.65-1.902 1.014-2.979.89-2.635 1.761-5.247 1.761-5.247a.483.483 0 0 1 .811-.18l1.245 1.319a.466.466 0 0 1 .106.179l5.145 15.386c.18.633.507.795 1.168.795h3.03c.421 0 .666-.242.614-.898l-.579-7.346c-.071-.741.064-1.051.844-1.287l3.449-.93 5.644-1.605a.482.482 0 0 1 .556.234l1.642 3.011.01-.045 4.197 7.741c.448.88.737 1.125 1.712 1.125h2.495c.628 0 .727-.327.555-.971l-3.936-14.441-2.788-.101a.487.487 0 0 1-.274-.099l-11.021-8.415a.485.485 0 0 1-.164-.54l2.068-6.11zm18.716.876a.973.973 0 0 1 0 1.945.972.972 0 1 1 0-1.945m-34.585 13.372c-.202.605-.744 2.233-1.505 4.485-.291.861-.554 1.629-.812 2.383l-.598 8.505c-.127.885.164 1.055.892 1.055h2.559c.691 0 .921-.241 1.057-.897l1.465-7.581-2.438-7.295-.62-.655zm45.667 2.238l-1.387.003c-.284.015-.418.116-.406.392l.237 3.386 2.672.675-.633-3.969c-.031-.208-.183-.488-.483-.487zm-24.959 3.159l-2.511.714-.606 9.318c-.059.715.107.998.964.998h2.026c.666 0 .783-.239.939-1.047l1.206-6.28-2.018-3.703zm20.662.741l-.15 3.365 3.021.152c.42-.011.626-.045.888-.309l1.299-1.176c.299-.299.342-.529-.023-.652l-5.035-1.38zm-48.245 2.351v.741c0 .312.095.386.414.386h2.15a.483.483 0 0 1 .058-.153l.031-.076c.03-.079.076-.198.13-.348.081-.225.203-.574.324-.92l-2.715-.03c-.352 0-.392.137-.392.4z"/><g opacity=".3" enable-background="new"><defs><path id="bs" d="M457.511 419.596h70.171v24.165h-70.171z"/></defs><clipPath id="bt"><use xlink:href="#bs" overflow="visible"/></clipPath><path clip-path="url(#bt)" d="M504.947 419.596h-24.701c-19.893 0-22.734 2.845-22.734 22.758v1.407c0-19.913 2.847-22.762 22.738-22.762h24.693c19.894 0 22.739 2.849 22.739 22.762v-1.407c0-19.914-2.842-22.758-22.735-22.758"/></g><path fill="#F1F1F1" d="M269.554 163.872a6 6 0 1 1-12 0 6 6 0 0 1 12 0"/><circle fill="none" stroke="#C2C2C2" stroke-width="2" stroke-miterlimit="10" cx="263.554" cy="163.872" r="6"/><path fill="#E8E8E8" d="M383.864 398.428a6 6 0 1 1-12 0 6 6 0 0 1 12 0"/><circle fill="none" stroke="#C2C2C2" stroke-width="2" stroke-miterlimit="10" cx="377.864" cy="398.428" r="6"/><path fill="#E8E8E8" d="M274.025 362.398a6 6 0 1 1-12 0 6 6 0 0 1 12 0"/><circle fill="none" stroke="#C2C2C2" stroke-width="2" stroke-miterlimit="10" cx="268.025" cy="362.398" r="6"/></g></svg>