<svg width="502" viewBox="0 0 534 319" xmlns="http://www.w3.org/2000/svg" fill-rule="evenodd" clip-rule="evenodd" stroke-linejoin="round" stroke-miterlimit="1.414"><g fill-rule="nonzero"><path d="M158.995 0C130.98 0 108.27 22.71 108.27 50.725s22.71 50.725 50.725 50.725a50.725 50.725 0 0 0 50.725-50.725C209.72 22.71 187.01 0 158.995 0z" fill="#ed1843"/><path d="M134.904 21.135c-3.025 0-5.499 2.475-5.499 5.499v31.544l8.587-6.297a5.228 5.228 0 0 1-.132-1.156 5.283 5.283 0 1 1 10.551.413l7.313 3.901a5.285 5.285 0 0 1 3.271-1.144c.602.002 1.2.107 1.767.31l9.232-9.847a5.28 5.28 0 1 1 10.066-2.9l8.525 2.243V26.634c0-3.024-2.475-5.499-5.499-5.499h-48.182zm44.087 24.411a5.287 5.287 0 0 1-4.144 2.009 5.292 5.292 0 0 1-1.767-.31l-9.233 9.847a5.284 5.284 0 1 1-10.119 1.674l-7.311-3.901a5.283 5.283 0 0 1-3.274 1.144 5.287 5.287 0 0 1-2.65-.72l-11.088 8.132v11.395c0 3.024 2.475 5.499 5.499 5.499h48.182c3.025 0 5.499-2.475 5.499-5.499V48.071l-9.594-2.525z" fill="#fff"/></g><g fill-rule="nonzero"><path d="M267.465 0C239.45 0 216.74 22.71 216.74 50.725s22.71 50.725 50.725 50.725a50.725 50.725 0 0 0 50.725-50.725C318.19 22.71 295.48 0 267.465 0z" fill="#ed1843"/><path d="M243.374 21.135c-3.025 0-5.499 2.475-5.499 5.499v11.41h59.18v-11.41c0-3.024-2.475-5.499-5.499-5.499h-48.182zm-5.499 21.136v16.908h59.18V42.271h-59.18zm0 21.135v11.41c0 3.024 2.475 5.499 5.499 5.499h48.182c3.025 0 5.499-2.475 5.499-5.499v-11.41h-59.18z" fill="#fff"/></g><g transform="translate(324.63)"><path d="M50.725 0C22.71 0 0 22.71 0 50.725s22.71 50.725 50.725 50.725a50.725 50.725 0 0 0 50.725-50.725C101.45 22.71 78.74 0 50.725 0z" fill="#ed1843" fill-rule="nonzero"/><path d="M26.634 21.135c-3.025 0-5.499 2.475-5.499 5.499v48.182c0 3.024 2.475 5.499 5.499 5.499h48.182c3.025 0 5.499-2.475 5.499-5.499V26.634c0-3.024-2.475-5.499-5.499-5.499H26.634zm24.091 16.909c13.949 0 23.249 12.681 23.249 12.681s-9.3 12.681-23.249 12.681c-13.949 0-23.249-12.681-23.249-12.681s9.3-12.681 23.249-12.681z" fill="#fff" fill-rule="nonzero"/><circle cx="50.725" cy="50.725" r="8.454" fill="#fff"/></g><g fill-rule="nonzero"><path d="M50.725 0C22.71 0 0 22.71 0 50.725s22.71 50.725 50.725 50.725a50.725 50.725 0 0 0 50.725-50.725C101.45 22.71 78.74 0 50.725 0z" fill="#ed1843"/><path d="M26.634 21.135c-3.025 0-5.499 2.475-5.499 5.499v48.182c0 3.024 2.475 5.499 5.499 5.499h48.182c3.025 0 5.499-2.475 5.499-5.499V26.634c0-3.024-2.475-5.499-5.499-5.499H26.634zm24.091 6.341s12.681 9.3 12.681 23.249c0 9.714-6.142 17.163-9.876 20.797 1.699-2.045 3.536-5.093 3.536-8.855 0-6.974-6.341-11.624-6.341-11.624s-6.341 4.65-6.341 11.624c0 3.762 1.837 6.81 3.536 8.855-3.734-3.634-9.876-11.083-9.876-20.797 0-13.949 12.681-23.249 12.681-23.249z" fill="#fff"/></g><g fill-rule="nonzero"><path d="M158.995 108.28c-28.015 0-50.725 22.71-50.725 50.725s22.71 50.725 50.725 50.725 50.725-22.71 50.725-50.725-22.71-50.725-50.725-50.725z" fill="#ed1843"/><path d="M134.904 129.415c-3.025 0-5.499 2.475-5.499 5.499v21.977h14.962a14.795 14.795 0 0 1 14.628-12.681 14.795 14.795 0 0 1 14.623 12.681h14.967v-21.977c0-3.024-2.475-5.499-5.499-5.499h-48.182zm24.091 19.022c-5.836 0-10.568 4.732-10.568 10.568v2.114h-19.022v21.977c0 3.024 2.475 5.499 5.499 5.499h48.182c3.025 0 5.499-2.475 5.499-5.499v-21.977h-19.022v-2.114c0-5.836-4.732-10.568-10.568-10.568z" fill="#fff"/></g><g fill-rule="nonzero"><path d="M266.775 107.74c-28.015 0-50.725 22.71-50.725 50.725s22.71 50.725 50.725 50.725a50.725 50.725 0 0 0 50.725-50.725c0-28.015-22.71-50.725-50.725-50.725z" fill="#ed1843"/><path d="M242.684 128.875c-3.025 0-5.499 2.475-5.499 5.499v48.182c0 3.024 2.475 5.499 5.499 5.499h48.182c3.025 0 5.499-2.475 5.499-5.499V134.374c0-3.024-2.475-5.499-5.499-5.499h-48.182zm24.091 12.682c5.836 0 10.568 4.731 10.568 10.567a10.569 10.569 0 0 1-6.341 9.672v13.577h-8.454v-13.568a10.57 10.57 0 0 1-6.341-9.681c0-5.836 4.732-10.567 10.568-10.567z" fill="#fff"/></g><g fill-rule="nonzero"><path d="M374.355 108.39c-28.015 0-50.725 22.71-50.725 50.725s22.71 50.725 50.725 50.725a50.725 50.725 0 0 0 50.725-50.725c0-28.015-22.71-50.725-50.725-50.725z" fill="#ed1843"/><path d="M350.264 129.525c-3.025 0-5.499 2.475-5.499 5.499v21.977h27.476v-14.794h31.704v-7.183c0-3.024-2.475-5.499-5.499-5.499h-48.182zm26.205 16.909v25.362h27.476v-25.362h-27.476zm-31.704 14.795v21.977c0 3.024 2.475 5.499 5.499 5.499h48.182c3.025 0 5.499-2.475 5.499-5.499v-7.183h-31.704v-14.794h-27.476z" fill="#fff"/></g><g fill-rule="nonzero"><path d="M481.825 109.72c-28.015 0-50.725 22.71-50.725 50.725s22.71 50.725 50.725 50.725a50.725 50.725 0 0 0 50.725-50.725c0-28.015-22.71-50.725-50.725-50.725z" fill="#ed1843"/><path d="M457.734 130.855c-3.025 0-5.499 2.475-5.499 5.499v21.977h21.417a8.452 8.452 0 0 1 8.173-6.34 8.454 8.454 0 0 1 0 16.908 8.455 8.455 0 0 1-8.18-6.34h-21.41v21.977c0 3.024 2.475 5.499 5.499 5.499h48.182c3.025 0 5.499-2.475 5.499-5.499V136.354c0-3.024-2.475-5.499-5.499-5.499h-48.182z" fill="#fff"/></g><g fill-rule="nonzero"><path d="M268.315 215.35c-28.015 0-50.725 22.71-50.725 50.725S240.3 316.8 268.315 316.8a50.725 50.725 0 0 0 50.725-50.725c0-28.015-22.71-50.725-50.725-50.725z" fill="#ed1843"/><path d="M244.224 236.485c-3.025 0-5.499 2.475-5.499 5.499v21.977h14.795v4.228h-14.795v21.977c0 3.024 2.475 5.499 5.499 5.499h21.977V280.87h4.228v14.795h21.977c3.025 0 5.499-2.475 5.499-5.499v-21.977H283.11v-4.228h14.795v-21.977c0-3.024-2.475-5.499-5.499-5.499h-21.977v14.795h-4.228v-14.795h-21.977zm24.091 21.136a8.454 8.454 0 1 1 0 16.908 8.454 8.454 0 0 1 0-16.908z" fill="#fff"/></g><g fill-rule="nonzero"><path d="M376.355 216.35c-28.015 0-50.725 22.71-50.725 50.725s22.71 50.725 50.725 50.725a50.725 50.725 0 0 0 50.725-50.725c0-28.015-22.71-50.725-50.725-50.725z" fill="#ed1843"/><path d="M352.264 237.485c-3.025 0-5.499 2.475-5.499 5.499v11.41h16.909v-16.909h-11.41zm15.637 0v16.909h16.908v-16.909h-16.908zm21.135 0v16.909h16.909v-11.41c0-3.024-2.475-5.499-5.499-5.499h-11.41zm-42.271 21.136v16.908h16.909v-16.908h-16.909zm21.136 0v16.908h16.908v-16.908h-16.908zm21.135 0v16.908h16.909v-16.908h-16.909zm-42.271 21.135v11.41c0 3.024 2.475 5.499 5.499 5.499h11.41v-16.909h-16.909zm21.136 0v16.909h16.908v-16.909h-16.908zm21.135 0v16.909h11.41c3.025 0 5.499-2.475 5.499-5.499v-11.41h-16.909z" fill="#fff"/></g></svg>
