<svg xmlns="http://www.w3.org/2000/svg" xmlns:xlink="http://www.w3.org/1999/xlink" width="203" height="203" viewBox="0 0 53.71 53.71"><defs><path id="a" d="M0 0h760v596.308H0z"/><clipPath id="e"><use height="100%" width="100%" xlink:href="#a" overflow="visible"/></clipPath><path id="b" d="M0 0h760v596.308H0z"/><clipPath id="i"><use overflow="visible" xlink:href="#b" width="100%" height="100%"/></clipPath><path id="c" d="M0 0h760v596.308H0z"/><clipPath id="d"><use overflow="visible" xlink:href="#c" width="100%" height="100%"/></clipPath><clipPath id="j"/><filter id="k"><feGaussianBlur stdDeviation=".72"/></filter></defs><path clip-path="url(#d)" d="M397.546 2.77h-35.094c-28.262 0-32.298 4.042-32.298 32.332V70.13c0 28.289 4.036 32.332 32.298 32.332h35.094c28.263 0 32.3-4.043 32.3-32.332V35.102c0-28.29-4.037-32.332-32.3-32.332" fill="#fff" transform="matrix(.51041 0 0 .51041 -167.1 0)"/><g clip-path="url(#e)" transform="matrix(.51041 0 0 .51041 -167.1 0)"><defs><path d="M336.488 96.121c-3.31-3.313-5.227-8.629-5.227-25.992V35.102c0-13.148.856-21.616 5.227-25.992 3.311-3.315 8.621-5.232 25.964-5.232h35.093c13.135 0 21.594.856 25.966 5.232 3.311 3.314 5.228 8.629 5.228 25.992v35.027c0 13.148-.855 21.616-5.228 25.992-3.311 3.314-8.621 5.233-25.966 5.233h-35.093c-13.133 0-21.592-.856-25.964-5.233M362.452 2.77c-28.262 0-32.298 4.042-32.298 32.332v35.027c0 28.29 4.036 32.333 32.298 32.333h35.093c28.264 0 32.301-4.043 32.301-32.333V35.102c0-28.29-4.037-32.332-32.301-32.332h-35.093z" id="f"/></defs><clipPath id="g"><use overflow="visible" xlink:href="#f" width="100%" height="100%"/></clipPath><linearGradient gradientTransform="matrix(0 99.6923 99.6923 0 -59067.332 2.746)" y2="596.308" x2="1" y1="596.308" gradientUnits="userSpaceOnUse" id="h"><stop offset="0" stop-color="#eaeaea"/><stop offset="1" stop-color="#b1b1b1"/></linearGradient><path clip-path="url(#g)" fill="url(#h)" d="M330.154 2.77h99.692v99.692h-99.692z"/></g><path clip-path="url(#i)" d="M432.615 60.923V44.308a2.77 2.77 0 0 0-2.769-2.77v22.154a2.768 2.768 0 0 0 2.769-2.769M388.308 0H371.693a2.77 2.77 0 0 0-2.77 2.769h22.154A2.77 2.77 0 0 0 388.308 0M327.385 44.308V60.923a2.77 2.77 0 0 0 2.769 2.77V41.539a2.769 2.769 0 0 0-2.769 2.769M371.692 105.231H388.307a2.77 2.77 0 0 0 2.77-2.769h-22.154a2.769 2.769 0 0 0 2.769 2.769" fill="#cdcdcd" transform="matrix(.51041 0 0 .51041 -167.1 0)"/><g><path style="marker:none" d="M14.155 31.317v-8.924c0-7.208 1.029-8.238 8.23-8.238h8.94c7.202 0 8.23 1.03 8.23 8.238v8.924c0 7.208-1.028 8.238-8.23 8.238h-8.94c-7.201 0-8.23-1.03-8.23-8.238z" color="#000" overflow="visible" fill="#dc4a26" enable-background="accumulate"/><path fill="#fff" d="M23.164 19.473h2.215v11.073h6.644v3.691H21.688V19.473h.738V33.5h8.858v-2.215h-6.643V20.211h-.739v11.812h6.644v.738h-7.382z"/></g></svg>