<svg xmlns="http://www.w3.org/2000/svg" width="16.002" height="15.996"><g transform="matrix(.66648 0 0 -.66648 -74.646 328.15)" fill="#df382c"><path style="marker:none" color="#000" overflow="visible" fill="none" d="M136 468.362v24h-24v-24z"/><circle transform="scale(1 -1)" r="3" cy="-489.362" cx="124" style="marker:none" color="#000" overflow="visible" fill="gray"/><path style="marker:none" color="#000" overflow="visible" fill="gray" d="M118.004 484.867h12v-1.5h-12z"/><path style="marker:none" color="#000" overflow="visible" fill="gray" d="M122.505 487.868h3.001v-18.005h-3.001z"/><path style="line-height:125%;-inkscape-font-specification:'Ubuntu Medium';text-align:end" d="M124.006 471.338q3.05 0 5.704.918 2.678.918 4.91 2.554l1.39-2.108q-2.407-2.009-5.482-3.174-3.05-1.166-6.522-1.166-3.472 0-6.548 1.166-3.05 1.165-5.456 3.174l1.39 2.108q2.206-1.636 4.885-2.554 2.678-.918 5.729-.918z" font-weight="500" font-family="Ubuntu" letter-spacing="0" word-spacing="0" text-anchor="end" fill="gray"/></g></svg>