<svg xmlns="http://www.w3.org/2000/svg" width="16" height="16"><g color="#000"><path d="M14.755 7C15.435 7 16 6.436 16 5.756V2.244C16 1.564 15.436 1 14.755 1h-3.51C10.564 1 10 1.564 10 2.244v3.512C10 6.436 10.564 7 11.244 7zm0-1.067h-3.51c-.108 0-.178-.07-.178-.177V2.244c0-.107.07-.177.177-.177h3.511c.108 0 .178.07.178.177v3.512c0 .107-.07.177-.178.177zM6.755 15C7.435 15 8 14.436 8 13.756v-3.512C8 9.564 7.436 9 6.755 9h-3.51C2.564 9 2 9.564 2 10.244v3.512C2 14.436 2.564 15 3.244 15zm0-1.067h-3.51c-.108 0-.179-.07-.179-.177v-3.512c0-.107.07-.177.178-.177h3.511c.108 0 .178.07.178.177v3.512c0 .107-.07.177-.178.177zM4.755 7C5.435 7 6 6.436 6 5.756V2.244C6 1.564 5.436 1 4.755 1h-3.51C.564 1 0 1.564 0 2.244v3.512C0 6.436.564 7 1.244 7zm0-1.067h-3.51c-.108 0-.178-.07-.178-.177V2.244c0-.107.07-.177.177-.177h3.511c.108 0 .178.07.178.177v3.512c0 .107-.07.177-.178.177z" style="line-height:normal;-inkscape-font-specification:sans-serif;text-indent:0;text-align:start;text-decoration-line:none;text-transform:none;block-progression:tb;marker:none" font-weight="400" font-size="xx-small" font-family="sans-serif" overflow="visible" fill="gray"/><path d="M10.667 4.5H6M7 10l4-4" style="marker:none" overflow="visible" fill="none" stroke="gray" stroke-width=".99999"/><path style="marker:none" overflow="visible" fill="none" d="M16 0H0v16h16z"/></g></svg>