<svg xmlns="http://www.w3.org/2000/svg" width="90" height="90"><g transform="translate(0 -962.362)"><path style="marker:none" color="#000" fill="none" overflow="visible" d="M0 962.362h90v90H0z"/><path d="M35.914 968.362v9c0 4.837-4.078 8.914-8.914 8.914-4.836 0-8.914-4.077-8.914-8.914v-8.547C7.559 969.892 6 973.59 6 986.362v42c0 18 3 18 30 18h18c27 0 30 0 30-18v-42c0-12.773-1.56-16.47-12.086-17.547v8.547c0 4.837-4.078 8.914-8.914 8.914-4.836 0-8.914-4.077-8.914-8.914v-9H35.914zm.086 24h18c24 0 24 0 24 12v24c0 12 0 12-24 12H36c-24 0-24 0-24-12v-24c0-12 0-12 24-12z" fill="#aea79f"/><rect style="marker:none" width="6" height="18" x="24" y="962.362" ry="3" color="#000" fill="#aea79f" overflow="visible"/><rect ry="3" y="962.362" x="60" height="18" width="6" style="marker:none" color="#000" fill="#aea79f" overflow="visible"/><path style="text-align:center;line-height:125%;-inkscape-font-specification:Ubuntu Medium" d="M33.336 1001.364v.01c-1.8 0-3.5.348-5.087 1.043a13.672 13.672 0 0 0-4.077 2.664l-.353.335 3.061 4.335.474-.473c.158-.158.425-.388.787-.673l.009-.013.009-.012a9.292 9.292 0 0 1 1.196-.859 8.708 8.708 0 0 1 1.607-.71 5.953 5.953 0 0 1 1.895-.289c1.048 0 1.885.259 2.579.768.627.46.965 1.222.965 2.497 0 .56-.115 1.102-.352 1.648a8.361 8.361 0 0 1-1.005 1.635h-.002a16.552 16.552 0 0 1-1.466 1.658c-.582.582-1.192 1.176-1.827 1.785h-.002c-.827.8-1.653 1.613-2.48 2.44a21.459 21.459 0 0 0-2.292 2.704h-.002c-.692.968-1.26 2.02-1.702 3.151h-.002c-.425 1.134-.634 2.372-.634 3.707v.719c0 .31.015.584.046.829l.062.493h18.65v-5.197H31.386c.072-.144.057-.21.181-.392l.005-.012h.002a15.01 15.01 0 0 1 1.192-1.576c.47-.547.966-1.095 1.488-1.644l.008-.01c.527-.553.998-1.027 1.413-1.416h.007c.8-.773 1.6-1.56 2.4-2.36h.007c.814-.842 1.535-1.7 2.164-2.574h.002a15.057 15.057 0 0 0 1.613-2.773h.002a7.71 7.71 0 0 0 .644-3.055c0-2.528-.756-4.605-2.281-6.102-1.523-1.549-3.86-2.28-6.898-2.28zm16.626.635v.01l-.024.539c-.106 2.309-.24 4.618-.399 6.927a163.942 163.942 0 0 1-.677 7.233l-.07.628h.632c2.187 0 3.982.121 5.371.353h.003c1.42.232 2.518.58 3.283 1.011h.007c.805.44 1.317.945 1.6 1.512.303.606.459 1.297.459 2.1 0 .514-.092.994-.276 1.457-.175.415-.457.792-.877 1.142H58.98c-.376.332-.9.614-1.583.835-.677.193-1.514.298-2.51.298-1.48 0-2.72-.145-3.718-.419-1.012-.312-1.79-.598-2.301-.842l-.637-.304-1.17 5.188.394.198c.32.16.74.312 1.287.476.553.166 1.168.314 1.847.45.703.162 1.431.298 2.184.406.77.11 1.527.163 2.273.163 1.826 0 3.44-.214 4.84-.661h.008c1.386-.472 2.56-1.118 3.502-1.947a7.744 7.744 0 0 0 2.105-2.966c.454-1.135.679-2.365.679-3.678 0-2.868-1.022-5.22-3.033-6.892-1.888-1.617-4.76-2.472-8.434-2.75.033-.269.064-.51.097-.834.053-.534.094-1.095.121-1.68l.002-.024c.052-.575.09-1.138.117-1.688l.002-.027c.035-.38.054-.693.077-1.019h10.055v-5.196H49.962z" font-size="35.345" font-weight="500" letter-spacing="0" word-spacing="0" text-anchor="middle" fill="#aea79f" font-family="Ubuntu"/></g></svg>