<svg xmlns="http://www.w3.org/2000/svg" width="16" height="16"><defs><clipPath id="a"><path d="M0 595.28h841.89V0H0v595.28z"/></clipPath></defs><path style="marker:none" color="#000" overflow="visible" fill="none" d="M0 16h16V0H0z"/><g clip-path="url(#a)" transform="matrix(.1415 0 0 .12121 -41.073 -32.325)"><path d="M358.835 350.662c-3.87 6.84-8.238 13.885-13.107 21.136a331.589 331.589 0 0 1-15.658 21.4 252.21 252.21 0 0 1-4.486 5.486V378.34a280.304 280.304 0 0 0 8.972-12.505 233.13 233.13 0 0 0 9.589-15.436c2.99-5.261 6.661-12.688 9.007-17.715-2.346-5.027-6.017-12.454-9.007-17.716a232.848 232.848 0 0 0-9.589-15.435 279.761 279.761 0 0 0-8.972-12.506v-20.343a254.639 254.639 0 0 1 4.486 5.485 331.866 331.866 0 0 1 15.658 21.4c4.869 7.252 9.238 14.295 13.107 21.136 3.87 6.84 6.922 12.834 9.149 17.979-2.227 5.144-5.28 11.137-9.149 17.978" fill="#7f8183"/></g></svg>