<svg xmlns="http://www.w3.org/2000/svg" width="16" height="16"><path opacity=".212" fill="none" d="M0 0h16v16H0z"/><path style="line-height:125%;-inkscape-font-specification:Ubuntu;text-align:center" d="M2.666 2C.888 2 0 2.001 0 4.068v8.866C0 15 .888 15 2.666 15h10.668C15.112 15 16 15 16 12.934v-8.8C16 2.002 15.112 2 13.334 2H2.666zm1.28 1.89h1.1v1.143c.34.028.643.078.911.149.268.063.48.128.635.191L6.328 6.42a6.585 6.585 0 0 0-.73-.223 3.858 3.858 0 0 0-.953-.105c-.382 0-.67.071-.86.213a.646.646 0 0 0-.285.56c0 .141.028.26.084.36a.876.876 0 0 0 .256.254c.113.07.25.142.412.212.162.064.346.131.55.202.29.113.561.232.815.359.261.12.487.266.678.436.19.162.34.356.445.582.113.225.17.494.17.804 0 .466-.144.868-.433 1.207-.29.34-.767.558-1.43.657v1.324H3.945v-1.293c-.508-.036-.922-.103-1.24-.201-.31-.106-.542-.2-.697-.286l.36-1.005c.225.113.496.214.814.306.324.092.692.139 1.101.139.487 0 .823-.072 1.006-.213a.703.703 0 0 0 .287-.582.764.764 0 0 0-.117-.424 1.09 1.09 0 0 0-.328-.318 2.834 2.834 0 0 0-.508-.254 18.25 18.25 0 0 0-.637-.242 8.511 8.511 0 0 1-.656-.266 2.867 2.867 0 0 1-.582-.36 1.784 1.784 0 0 1-.412-.529 1.622 1.622 0 0 1-.16-.752c0-.487.146-.901.435-1.24.29-.346.734-.567 1.334-.666V3.891zM8 11.987h3.99v.996H8v-.996z" font-weight="400" font-size="15" font-family="Ubuntu" letter-spacing="0" word-spacing="0" text-anchor="middle" fill="gray"/></svg>