<svg xmlns="http://www.w3.org/2000/svg" width="96" height="96"><g fill="#BBB"><path d="M88.646 21.111c-1.216-.097-2.471.066-3.68.36-2.419.585-5.067 1.705-8.368 3.237l-16.007 7.433c-6.601 3.065-11.006 5.6-13.643 9.928-2.637 4.33-3.016 9.536-3.016 17.28V78.25c0 3.871.097 6.922.537 9.467.44 2.545 1.257 4.904 3.369 6.41 2.111 1.505 4.709 1.435 7.128.85s5.067-1.707 8.368-3.239l16.007-7.433c6.601-3.065 11.006-5.599 13.643-9.928C95.621 70.05 96 64.842 96 57.1V38.196c0-3.87-.097-6.922-.537-9.467-.44-2.545-1.257-4.904-3.369-6.41-1.055-.753-2.232-1.11-3.448-1.208zm-.33 6.508c-.033-.024.424.423.734 2.218s.442 4.618.442 8.358v18.903c0 7.48-.547 11.398-2.066 13.891-1.518 2.493-4.499 4.476-10.827 7.414l-15.35 7.128h-.007l-.651.305c-3.164 1.47-5.596 2.437-7.16 2.816-1.564.38-1.848.151-1.815.175.033.024-.424-.423-.734-2.218s-.442-4.618-.442-8.358V59.348c0-7.479.547-11.398 2.066-13.89 1.518-2.494 4.499-4.477 10.827-7.415L79.34 30.61c3.164-1.469 5.596-2.437 7.16-2.816s1.849-.15 1.816-.175z"/><path d="M73.084 14.378c-.923.02-1.855.165-2.762.385-2.419.586-5.067 1.706-8.368 3.238l-16.007 7.433c-6.601 3.065-11.006 5.6-13.643 9.928s-3.016 9.536-3.016 17.28v18.902c0 3.871.097 6.922.537 9.467.44 2.545 1.257 4.904 3.369 6.41 2.111 1.505 4.709 1.435 7.128.85 2.097-.509 4.449-1.483 7.166-2.715-.01-.088-.023-.16-.032-.25l-.137.028V83.52c-.085-1.438-.118-3.112-.124-4.967l-.591.273h-.007l-.651.305c-3.164 1.47-5.596 2.437-7.16 2.816-1.564.38-1.848.151-1.815.175.033.024-.424-.423-.734-2.218s-.442-4.618-.442-8.358V52.642c0-7.479.547-11.398 2.066-13.89 1.518-2.494 4.499-4.477 10.827-7.415l16.007-7.433c3.164-1.469 5.596-2.436 7.16-2.816 1.564-.379 1.848-.15 1.815-.175-.033-.024.424.423.734 2.218.23 1.328.335 3.397.388 5.806l3.175-1.475a87.231 87.231 0 0 1 3.267-1.427c-.081-1.47-.207-2.805-.416-4.014-.44-2.545-1.257-4.904-3.369-6.41-1.056-.753-2.232-1.11-3.448-1.208a9.325 9.325 0 0 0-.917-.025z"/><path d="M58.44 7.475c-.923.02-1.855.165-2.762.385-2.419.586-5.067 1.706-8.368 3.238l-16.007 7.433c-6.601 3.065-11.006 5.6-13.643 9.928-2.637 4.33-3.016 9.536-3.016 17.28V64.64c0 3.871.097 6.922.537 9.467.44 2.545 1.257 4.904 3.369 6.41 2.111 1.505 4.709 1.435 7.128.85 2.097-.509 4.449-1.483 7.166-2.715-.01-.088-.023-.16-.032-.25l-.137.028v-1.815c-.085-1.438-.118-3.112-.124-4.967l-.591.273h-.007l-.651.305c-3.164 1.47-5.596 2.437-7.16 2.816-1.564.38-1.848.151-1.815.175.033.024-.424-.423-.734-2.218s-.442-4.618-.442-8.358V45.738c0-7.479.547-11.398 2.066-13.89 1.518-2.494 4.499-4.477 10.827-7.415L50.051 17c3.164-1.469 5.596-2.437 7.16-2.816s1.848-.15 1.815-.175c-.033-.024.424.423.734 2.218.23 1.328.335 3.397.388 5.806l3.175-1.475a87.231 87.231 0 0 1 3.267-1.427c-.081-1.47-.207-2.805-.416-4.014-.44-2.545-1.257-4.904-3.369-6.41-1.056-.753-2.232-1.11-3.448-1.208a9.646 9.646 0 0 0-.917-.024z"/><path d="M43.796.637c-.923.02-1.855.165-2.762.385-2.419.586-5.067 1.706-8.368 3.238l-16.007 7.433c-6.601 3.065-11.006 5.6-13.643 9.928C.379 25.951 0 31.157 0 38.901v18.902c0 3.871.097 6.922.537 9.467.44 2.545 1.257 4.904 3.369 6.41 2.111 1.505 4.709 1.435 7.128.85 2.097-.509 4.449-1.483 7.166-2.715-.01-.088-.023-.16-.032-.25l-.137.028v-1.815c-.085-1.438-.118-3.112-.124-4.967l-.591.273h-.007l-.651.305c-3.164 1.47-5.596 2.436-7.16 2.816-1.564.38-1.848.151-1.815.175.033.024-.424-.423-.734-2.218s-.442-4.618-.442-8.358V38.901c0-7.479.547-11.398 2.066-13.89 1.518-2.494 4.499-4.477 10.827-7.415l16.007-7.433c3.164-1.469 5.596-2.437 7.16-2.816s1.848-.15 1.815-.175c-.033-.024.424.423.734 2.218.23 1.328.335 3.397.388 5.806l3.175-1.475a87.231 87.231 0 0 1 3.267-1.427c-.081-1.47-.207-2.805-.416-4.014-.44-2.545-1.257-4.904-3.369-6.41-1.056-.753-2.232-1.11-3.448-1.208a9.325 9.325 0 0 0-.917-.025z"/></g></svg>