<svg xmlns="http://www.w3.org/2000/svg" xmlns:xlink="http://www.w3.org/1999/xlink" width="160" height="160"><defs><linearGradient xlink:href="#a" id="d" gradientUnits="userSpaceOnUse" x1="89.274" y1="1041.689" x2="89.274" y2="898.441"/><linearGradient id="a"><stop offset="0" stop-color="#dd4814"/><stop offset="1" stop-color="#ef774d"/></linearGradient><linearGradient xlink:href="#b" id="f" gradientUnits="userSpaceOnUse" x1="79.093" y1="1043.704" x2="79.093" y2="899.765"/><linearGradient id="b"><stop offset="0" stop-color="#505050"/><stop offset="1" stop-color="#646464"/></linearGradient><linearGradient id="c"><stop offset="0" stop-color="#b8b8b8"/><stop offset="1" stop-color="#c9c9c9"/></linearGradient><filter id="e" color-interpolation-filters="sRGB"><feFlood flood-opacity=".6" flood-color="#000" result="flood"/><feComposite in="flood" in2="SourceGraphic" operator="out" result="composite1"/><feGaussianBlur in="composite1" stdDeviation="1" result="blur"/><feOffset dy="2" result="offset"/><feComposite in="offset" in2="SourceGraphic" operator="atop" result="composite2"/></filter><filter id="g" color-interpolation-filters="sRGB"><feFlood flood-opacity=".25" flood-color="#000" result="flood"/><feComposite in="flood" in2="SourceGraphic" operator="in" result="composite1"/><feGaussianBlur in="composite1" stdDeviation="1" result="blur"/><feOffset dy="1" result="offset"/><feComposite in="SourceGraphic" in2="offset" result="composite2"/></filter><clipPath id="h"><path d="M668 615v33h82v-33zm24 17v-13l18.164-.08v13L726 632v13h-17.946v-13" style="marker:none" color="#000" fill="#0ff" stroke-width="6" overflow="visible" enable-background="accumulate"/></clipPath></defs><path d="M46.703 898.228h50.594c40.865 0 46.703 5.837 46.703 46.698v50.738c0 40.861-5.838 46.698-46.703 46.698H46.703C5.838 1042.362 0 1036.525 0 995.664v-50.738c0-40.861 5.838-46.698 46.703-46.698z" fill="url(#f)" transform="matrix(1.11111 0 0 1.11007 0 -997.1)" filter="url(#e)"/><g transform="matrix(1.66667 0 0 1.66667 -1278.61 -901.136)" filter="url(#g)" color="#000" fill="none" stroke="#fff" stroke-width="6"><rect transform="rotate(90 783.742 663.424)" style="marker:none" width="58" height="16" x="680" y="624" ry="8" clip-path="url(#h)" overflow="visible" enable-background="accumulate"/><rect clip-path="url(#h)" ry="7.669" y="624" x="680" height="16" width="58" style="marker:none" transform="rotate(180 762.083 610.34)" overflow="visible" enable-background="accumulate"/></g></svg>