<svg xmlns="http://www.w3.org/2000/svg" width="16" height="16"><path opacity=".212" fill="none" d="M0 0h16v16H0z"/><path d="M8.578 2.064S12.205.627 15.998-.01v.005L16-.001 16 .001c-.707 3.964-2.08 7.407-2.08 7.407z" style="marker:none" color="#000" overflow="visible" fill="#9fa097"/><path d="M7.867 8.124l4.444-4.444" style="marker:none" color="#000" overflow="visible" fill="none" stroke="#9fa097" stroke-width="2.00001" stroke-linejoin="round"/><path d="M1.5 2C.678 2 0 2.676 0 3.5v11C0 15.32.678 16 1.5 16h11c.822 0 1.5-.679 1.5-1.5V9h-2v4.5c0 .285-.214.5-.5.5h-9a.488.488 0 0 1-.5-.5v-9c0-.287.214-.5.5-.5H7V2z" style="line-height:normal;text-indent:0;text-align:start;text-decoration-line:none;text-decoration-style:solid;text-decoration-color:#000;text-transform:none;block-progression:tb;isolation:auto;mix-blend-mode:normal;marker:none" color="#000" font-weight="400" font-family="sans-serif" overflow="visible" fill="#9fa097"/></svg>