<svg xmlns="http://www.w3.org/2000/svg" width="127" height="127"><path fill="#fafbfb" d="M63.5 126.5c-34.738 0-63-28.262-63-63s28.262-63 63-63 63 28.262 63 63-28.262 63-63 63z"/><path fill="#cecdcd" d="M63.5 1C97.962 1 126 29.038 126 63.5S97.962 126 63.5 126 1 97.962 1 63.5 29.038 1 63.5 1m0-1C28.43 0 0 28.43 0 63.5S28.43 127 63.5 127 127 98.57 127 63.5 98.57 0 63.5 0z"/><circle cx="63.5" cy="63.5" r="32.5" fill="#0E8420"/><path fill="none" stroke="#fff" stroke-width="2" stroke-miterlimit="10" d="M63.5 54.5v18m9-9h-18"/></svg>