<svg xmlns="http://www.w3.org/2000/svg" width="16" height="16"><g color="#000"><path style="marker:none" overflow="visible" fill="none" d="M0 0h16v16H0z"/><path style="marker:none" overflow="visible" fill="none" d="M0 0h16v16H0z"/><path d="M4.849 11.151L11.15 4.85" style="marker:none" overflow="visible" fill="none" stroke="gray" stroke-width="1.46267398"/><path d="M12.152.001a1.984 1.984 0 0 0-.33.039c-.867.173-1.419.781-1.898 1.26L8.487 2.738c-.48.479-1.087 1.03-1.26 1.898-.075.37-.044.76.096 1.167l1.77-1.77c.102-.113.215-.23.337-.352l1.437-1.437c.48-.48.886-.83 1.217-.896a.877.877 0 0 1 .277-.011c.31.036.736.247 1.396.907.88.88.961 1.342.895 1.673-.066.33-.417.736-.896 1.216L12.32 6.57c-.123.123-.241.237-.355.34l-1.767 1.768c.407.14.797.17 1.168.096.867-.173 1.419-.781 1.898-1.26L14.7 6.076c.48-.479 1.087-1.03 1.26-1.898.174-.867-.223-1.841-1.26-2.878C13.923.522 13.18.105 12.492.017a2.125 2.125 0 0 0-.34-.016zM4.965 7.188a1.984 1.984 0 0 0-.33.038c-.867.174-1.419.782-1.898 1.26L1.3 9.925c-.48.479-1.087 1.031-1.26 1.898-.174.868.223 1.842 1.26 2.879 1.037 1.036 2.01 1.433 2.878 1.26.867-.174 1.419-.782 1.898-1.26l1.437-1.438c.48-.48 1.087-1.03 1.26-1.898.075-.37.044-.761-.096-1.168l-1.765 1.765c-.104.114-.218.233-.342.357l-1.437 1.438c-.48.479-.886.829-1.217.895-.33.066-.793-.016-1.673-.895-.88-.88-.961-1.343-.895-1.673.066-.33.417-.737.896-1.216L3.68 9.43c.123-.122.24-.236.354-.34l1.767-1.767a2.498 2.498 0 0 0-.497-.119 2.125 2.125 0 0 0-.34-.016z" style="line-height:normal;text-indent:0;text-align:start;text-decoration-line:none;text-decoration-style:solid;text-decoration-color:#000;text-transform:none;block-progression:tb;isolation:auto;marker:none" font-weight="400" font-family="sans-serif" overflow="visible" fill="gray"/></g></svg>