<svg xmlns="http://www.w3.org/2000/svg" width="179" height="89"><path d="M157.001 81.008c-7.737 0-14.009-6.27-14.009-14.009 0-7.737 6.272-14.008 14.009-14.008s14.008 6.271 14.008 14.008c0 7.74-6.271 14.009-14.008 14.009zM179 67c0 12.15-9.85 22-22 22-12.151 0-22-9.85-22-22 0-12.151 9.849-22 22-22 12.15 0 22 9.849 22 22zm-22-16.648c-9.195 0-16.648 7.454-16.648 16.648 0 9.196 7.453 16.648 16.648 16.648 9.196 0 16.648-7.452 16.648-16.648.001-9.194-7.452-16.648-16.648-16.648z" fill="#DD4813"/><g color="#000"><path style="marker:none" d="M112 45a22 22 0 0 0-22 22 22 22 0 0 0 22 22 22 22 0 0 0 22-22 22 22 0 0 0-22-22z" overflow="visible" fill="#3c599b"/><path style="marker:none" d="M121.69 58.75c-4.016 0-6.765 2.452-6.765 6.954v3.529h-4.542v5.26h4.542v14.286a22 22 0 0 0 5.429-1.438V74.492h4.532l.677-5.26h-5.209v-3.005c0-1.522.492-3.088 2.612-2.564h2.785v-4.705c-.482-.064-2.137-.207-4.06-.207z" overflow="visible" fill="#fff"/></g><path style="marker:none" d="M66.958 45a22 22 0 0 0-22 22 22 22 0 0 0 22 22 22 22 0 0 0 22-22 22 22 0 0 0-22-22z" color="#000" overflow="visible" fill="#dc4a38"/><path d="M66.016 52.563c-1.986 0-4.848.48-6.944 2.249-1.579 1.394-2.35 3.317-2.35 5.047 0 2.937 2.204 5.914 6.097 5.914.368 0 .769-.039 1.174-.077-.182.452-.363.83-.363 1.47 0 1.166.583 1.881 1.1 2.559-1.655.116-4.742.302-7.018 1.734-2.168 1.318-2.827 3.237-2.827 4.592 0 2.789 2.571 5.386 7.899 5.386 6.318 0 9.66-3.576 9.66-7.116 0-2.601-1.467-3.88-3.083-5.273l-1.326-1.05c-.403-.343-.955-.796-.955-1.622 0-.83.551-1.358 1.03-1.847 1.542-1.241 3.083-2.562 3.083-5.347 0-2.863-1.76-4.368-2.604-5.082h2.277l2.39-1.537h-7.24zm-2.679 1.424c3.047 0 4.624 4.214 4.624 6.926 0 .679-.072 1.884-.916 2.753-.59.603-1.581 1.05-2.499 1.05-3.16 0-4.593-4.179-4.593-6.7 0-.982.182-1.997.808-2.788.589-.754 1.618-1.24 2.576-1.24zm14.606 7.673v3.56h-3.479V67h3.48v3.585h1.72V67h3.492v-1.78h-3.493v-3.56h-1.72zm-12.808 9.122c.367 0 .55-.002.842.035 2.794 2.034 4.008 3.048 4.008 4.973 0 2.332-1.873 4.068-5.4 4.068-3.93 0-6.468-1.922-6.468-4.596 0-2.674 2.353-3.578 3.162-3.877 1.542-.531 3.524-.603 3.856-.603z" fill="#fff"/><g><path style="marker:none" d="M22 45A22 22 0 0 0 0 67a22 22 0 0 0 22 22 22 22 0 0 0 22-22 22 22 0 0 0-22-22z" color="#000" overflow="visible" fill="#55acee"/><path d="M25.183 55.953c-2.06.636-4.04 3.464-3.42 6.664-6.833-.419-9.851-4.143-11.666-5.926-1.85 3.321.047 6.55 1.704 7.594-.875.049-1.932-.336-2.457-.67-.2 3.064 2.255 5.188 4.343 5.738-.667.203-1.296.23-2.372.067.916 3.082 3.377 3.906 5.21 4.042-2.36 2.083-5.194 2.537-8.275 2.384 7.989 4.97 16.056 1.912 19.983-1.989 3.297-3.276 4.77-8.181 4.822-12.57.754-.624 2.28-1.946 2.695-2.981-.602.235-1.792.795-3.035.846 1.023-.682 2.196-2.049 2.319-3.117-1.133.628-2.444 1.172-3.567 1.345-2.117-2.078-4.178-2.077-6.284-1.427z" fill="#fff"/></g><g><path d="M157.001 36.008c-7.737 0-14.009-6.27-14.009-14.009 0-7.737 6.272-14.008 14.009-14.008s14.008 6.271 14.008 14.008c0 7.74-6.271 14.009-14.008 14.009zM179 22c0 12.15-9.85 22-22 22-12.151 0-22-9.85-22-22 0-12.151 9.849-22 22-22 12.15 0 22 9.849 22 22zM157 5.352c-9.195 0-16.648 7.454-16.648 16.648 0 9.196 7.453 16.648 16.648 16.648 9.196 0 16.648-7.452 16.648-16.648.001-9.194-7.452-16.648-16.648-16.648z" fill="#aea79f"/><g color="#000"><path d="M112 0a22 22 0 0 0-22 22 22 22 0 0 0 22 22 22 22 0 0 0 22-22 22 22 0 0 0-22-22z" style="marker:none" overflow="visible" fill="#aea79f"/><path d="M121.69 13.75c-4.016 0-6.765 2.452-6.765 6.954v3.529h-4.542v5.26h4.542v14.286a22 22 0 0 0 5.429-1.438V29.492h4.532l.677-5.26h-5.209v-3.005c0-1.522.492-3.088 2.612-2.564h2.785v-4.705c-.482-.064-2.137-.207-4.06-.207z" style="marker:none" overflow="visible" fill="#fff"/></g><path d="M66.958 0a22 22 0 0 0-22 22 22 22 0 0 0 22 22 22 22 0 0 0 22-22 22 22 0 0 0-22-22z" style="marker:none" color="#000" overflow="visible" fill="#aea79f"/><path d="M66.016 7.563c-1.986 0-4.848.48-6.944 2.249-1.579 1.394-2.35 3.317-2.35 5.047 0 2.937 2.204 5.914 6.097 5.914.368 0 .769-.039 1.174-.077-.182.452-.363.83-.363 1.47 0 1.166.583 1.881 1.1 2.559-1.655.116-4.742.302-7.018 1.734-2.168 1.318-2.827 3.237-2.827 4.592 0 2.789 2.571 5.386 7.899 5.386 6.318 0 9.66-3.576 9.66-7.116 0-2.601-1.467-3.88-3.083-5.273l-1.326-1.05c-.403-.343-.955-.796-.955-1.622 0-.83.551-1.358 1.03-1.847 1.542-1.241 3.083-2.562 3.083-5.347 0-2.863-1.76-4.368-2.604-5.082h2.277l2.39-1.537h-7.24zm-2.679 1.424c3.047 0 4.624 4.214 4.624 6.926 0 .679-.072 1.884-.916 2.753-.59.603-1.581 1.05-2.499 1.05-3.16 0-4.593-4.179-4.593-6.7 0-.982.182-1.997.808-2.788.589-.754 1.618-1.24 2.576-1.24zm14.606 7.673v3.56h-3.479V22h3.48v3.585h1.72V22h3.492v-1.78h-3.493v-3.56h-1.72zm-12.808 9.122c.367 0 .55-.002.842.035 2.794 2.034 4.008 3.048 4.008 4.973 0 2.332-1.873 4.068-5.4 4.068-3.93 0-6.468-1.922-6.468-4.596 0-2.674 2.353-3.578 3.162-3.877 1.542-.531 3.524-.603 3.856-.603z" fill="#fff"/><g><path d="M22 0A22 22 0 0 0 0 22a22 22 0 0 0 22 22 22 22 0 0 0 22-22A22 22 0 0 0 22 0z" style="marker:none" color="#000" overflow="visible" fill="#aea79f"/><path d="M25.183 10.953c-2.06.636-4.04 3.464-3.42 6.664-6.833-.419-9.851-4.143-11.666-5.926-1.85 3.321.047 6.55 1.704 7.594-.875.049-1.932-.336-2.457-.67-.2 3.064 2.255 5.188 4.343 5.738-.667.203-1.296.23-2.372.067.916 3.082 3.377 3.906 5.21 4.042-2.36 2.083-5.194 2.537-8.275 2.384 7.989 4.97 16.056 1.912 19.983-1.989 3.297-3.276 4.77-8.181 4.822-12.57.754-.624 2.28-1.946 2.695-2.981-.602.235-1.792.795-3.035.846 1.023-.682 2.196-2.049 2.319-3.117-1.133.628-2.444 1.172-3.567 1.345-2.117-2.078-4.178-2.077-6.284-1.427z" fill="#fff"/></g></g></svg>