<svg xmlns="http://www.w3.org/2000/svg" width="90" height="90"><g color="#000"><path style="marker:none" d="M45 0C30.088 0 18 12.088 18 27c0 .562.029 1.103.063 1.656.013.248.012.497.03.75.021.229.069.46.095.688C20.22 51.854 41.922 90 45 90c3.078 0 24.78-38.146 26.813-59.906.021-.232.076-.46.093-.688.022-.248.016-.5.031-.75.03-.561.063-1.12.063-1.656C72 12.088 59.912 0 45 0zm0 18a9 9 0 1 1 0 18 9 9 0 0 1 0-18z" fill="#aea79f" overflow="visible"/><path style="marker:none" fill="none" overflow="visible" d="M0 0h90v90H0z"/></g></svg>