<svg xmlns="http://www.w3.org/2000/svg" width="16" height="16"><path style="marker:none" color="#000" overflow="visible" fill="none" d="M16 .007V16H0V.007z"/><path style="line-height:125%;-inkscape-font-specification:Ubuntu;text-align:center" d="M12.303 9.877a16.89 16.89 0 0 1-1.773 2.136h.002c-1.078 1.064-2.527 2.335-2.527 2.335S6.47 13.1 5.47 12.015h.002A16.902 16.902 0 0 1 3.699 9.88l-.076.028c-1.366.518-2.571 1.206-3.617 2.065V16h15.988v-4.026a12.854 12.854 0 0 0-3.6-2.065l-.09-.032z" font-weight="400" font-size="15.003" font-family="Ubuntu" letter-spacing="0" word-spacing="0" text-anchor="middle" fill="gray"/><path d="M8 .018c-1.266 0-2.49.534-3.385 1.476a5.19 5.19 0 0 0-1.401 3.562v.004c.002.513.048 1.103.29 1.701.63 1.56 1.575 2.773 2.438 3.71H5.94c.239.272.51.548.781.814h2.526c.274-.268.554-.546.814-.816h-.002c.862-.936 1.807-2.148 2.437-3.708.242-.598.288-1.188.29-1.701v-.004a5.19 5.19 0 0 0-1.402-3.562A4.68 4.68 0 0 0 8 .018z" style="line-height:125%;-inkscape-font-specification:Ubuntu;text-align:center" font-weight="400" font-size="121.63" font-family="Ubuntu" letter-spacing="0" word-spacing="0" text-anchor="middle" fill="gray"/></svg>