<svg xmlns="http://www.w3.org/2000/svg" width="120" height="48"><path fill="#201c1d" fill-rule="evenodd" d="M39.328 18.156c-2.287 0-4.84.88-5.375 3.78-.057.31.147.456.344.5l2.344.283c.22-.02.37-.25.41-.47.2-1 1.02-1.47 1.94-1.47.5 0 1.05.17 1.35.62.34.5.32 1.19.32 1.78v.34c-1.39.16-3.22.25-4.53.84-1.5.67-2.56 2.03-2.56 4.03 0 2.56 1.57 3.84 3.59 3.84 1.71 0 2.65-.4 3.97-1.78.44.65.58.94 1.38 1.62.18.09.41.08.57-.07v.03c.48-.44 1.35-1.24 1.85-1.66.2-.17.16-.43 0-.66-.44-.62-.9-1.12-.9-2.28V23.6c0-1.626.14-3.13-1.03-4.25-.92-.905-2.46-1.22-3.622-1.22zm31.5 0c-2.288 0-4.84.88-5.375 3.78-.057.31.146.456.344.5l2.344.283c.22-.02.37-.25.41-.47.2-1 1.02-1.47 1.94-1.47.5 0 1.05.17 1.35.62.34.5.28 1.19.28 1.78v.34c-1.39.16-3.19.25-4.5.84-1.5.67-2.56 2.03-2.56 4.03 0 2.56 1.57 3.84 3.6 3.84 1.71 0 2.65-.4 3.97-1.78.44.65.58.94 1.38 1.62.18.09.41.08.57-.07v.03c.48-.44 1.35-1.24 1.84-1.66.2-.17.15-.43 0-.66-.44-.62-.9-1.12-.9-2.28V23.6c0-1.626.11-3.13-1.06-4.25-.92-.905-2.42-1.22-3.59-1.22zm-17.72.125c-1.477 0-2.573.75-3.155 2.35h-.03v-1.66a.482.482 0 0 0-.44-.44h-2.25a.477.477 0 0 0-.467.47v12.66c.02.23.208.43.437.44h2.406c.25 0 .46-.21.46-.47v-6.72c0-1.46-.07-3.47 1.65-3.47 1.7 0 1.47 2.06 1.47 3.47v6.72c0 .24.19.46.43.47h2.4c.25 0 .47-.21.47-.47v-6.72c0-.72-.03-1.76.21-2.4.25-.64.85-1.06 1.44-1.06.69 0 1.23.25 1.4 1.1.11.51.06 1.85.06 2.38v6.72c0 .24.19.45.44.47h2.4c.25 0 .47-.21.47-.47v-8c0-1.35.13-2.9-.63-3.96-.68-.96-1.78-1.38-2.78-1.38-1.42 0-2.73.75-3.32 2.35-.676-1.6-1.625-2.34-3.128-2.34zm40.908 0c-3.477 0-5.407 3.06-5.407 7 0 3.92 1.9 7.07 5.4 7.07 3.36 0 5.5-3.07 5.5-6.94 0-3.99-1.94-7.12-5.5-7.12zm13.718 0c-1.66 0-2.61.84-3.28 2.57h-.032v-1.94c-.043-.19-.228-.33-.438-.34h-2.218a.468.468 0 0 0-.47.41v12.65c0 .24.197.46.438.47h2.375c.25 0 .46-.21.46-.47v-6.81c0-.85.07-1.63.4-2.4.27-.61.79-1 1.37-1 1.65 0 1.5 2.02 1.5 3.41v6.87c.02.22.21.39.43.41h2.4c.23 0 .44-.18.47-.4v-7.97c0-1.23 0-2.93-.63-3.94-.68-1.09-1.74-1.5-2.82-1.5zm-28.875.22c-.25 0-.44.2-.44.47v1.81c0 .28.18.47.43.47h4.12l-4.72 6.97c-.29.45-.32.96-.32 1.25v1.85c0 .27.29.56.56.41 2.69-1.47 5.91-1.34 8.34-.03.29.16.59-.14.59-.4v-1.94c-.03-.26-.13-.51-.44-.69-1.38-.79-2.98-1.03-4.5-1l4.09-6c.38-.54.59-.86.59-1.12v-1.56c0-.27-.19-.47-.44-.47h-7.9zm15.15 2.38c.76 0 1.32.34 1.59 1.22.31 1.01.34 2.28.34 3.34 0 1.63-.08 4.32-1.94 4.32-1.89 0-1.88-3.32-1.88-4.87 0-1.54.1-4 1.87-4zm-53.4 4.62v.53c0 .97.03 1.77-.44 2.63-.38.7-.98 1.13-1.66 1.13-.92 0-1.47-.74-1.47-1.81 0-2.1 1.82-2.47 3.56-2.47zm31.5 0v.53c0 .97.03 1.77-.44 2.63-.38.7-.98 1.13-1.66 1.13-.92 0-1.47-.74-1.47-1.81 0-2.1 1.82-2.47 3.56-2.47z"/><path d="M87.703 32.5v1.812h1.22V32.5h-1.22zm-35.344.312V45.72h1.12v-1.16c.24.458.51.8.84 1.032.33.23.71.343 1.12.343.82 0 1.54-.422 2.15-1.28.61-.86.93-2.105.93-3.688 0-1.038-.14-1.898-.41-2.626-.28-.72-.64-1.26-1.1-1.62-.45-.36-.97-.56-1.53-.56-.4 0-.77.11-1.09.32-.33.21-.59.55-.85.97v-4.63h-1.22zm11.56 3.032c-.85 0-1.52.25-2 .75-.48.498-.72 1.14-.72 1.937 0 .47.1.86.28 1.22s.43.66.75.88c.32.22.96.5 1.9.81.65.21 1.04.39 1.22.53.24.21.37.48.37.85 0 .43-.15.79-.44 1.07-.29.28-.69.41-1.22.41s-.96-.14-1.28-.46c-.32-.32-.49-.81-.57-1.47l-1.21.24c.27 2.01 1.27 3 3 3 .92 0 1.62-.26 2.15-.81.53-.55.81-1.29.81-2.18 0-.48-.08-.9-.25-1.25-.16-.35-.39-.61-.68-.81-.3-.2-.96-.47-1.97-.81-.73-.26-1.16-.45-1.31-.57a.987.987 0 0 1-.38-.81c0-.35.11-.65.37-.88.26-.22.66-.34 1.19-.34.932 0 1.453.51 1.563 1.53l1.19-.18c-.08-.64-.22-1.15-.435-1.5-.214-.34-.53-.64-.94-.84-.4-.205-.87-.28-1.4-.28zm7.47 0c-.98 0-1.81.403-2.44 1.25-.64.847-.94 2.075-.94 3.687 0 1.56.3 2.77.93 3.6.63.83 1.45 1.22 2.47 1.22.81 0 1.48-.24 2.03-.75.55-.51.94-1.25 1.15-2.25l-1.25-.22c-.36 1.28-1.02 1.91-1.94 1.91-.59 0-1.06-.24-1.47-.78-.41-.53-.64-1.32-.69-2.37h5.37v-.44c0-1.57-.32-2.76-.94-3.59-.63-.83-1.38-1.25-2.32-1.25zm7.4 0c-.29 0-.55.098-.78.312-.24.214-.5.656-.79 1.313v-1.44h-1.09v9.34h1.22V40.5c0-.68.06-1.334.21-1.938.09-.346.25-.62.47-.812.21-.193.46-.28.72-.28.28 0 .57.113.87.342l.41-1.468c-.43-.34-.84-.5-1.25-.5zm14.93 0c-.97 0-1.76.406-2.38 1.218-.62.812-.94 2.033-.94 3.657 0 1.61.32 2.83.93 3.65.61.82 1.37 1.22 2.31 1.22.77 0 1.44-.29 2-.88.55-.59.89-1.45 1.03-2.57l-1.19-.19c-.09.79-.3 1.37-.63 1.75-.33.37-.73.56-1.19.56-.59 0-1.09-.28-1.47-.85-.38-.57-.56-1.48-.56-2.75 0-1.23.2-2.12.59-2.69.39-.57.9-.88 1.5-.88.4 0 .74.15 1.03.47.29.31.48.8.59 1.43l1.19-.25c-.14-.98-.46-1.73-.97-2.22-.51-.5-1.13-.72-1.88-.72zm6.97 0c-.98 0-1.8.403-2.44 1.25-.64.847-.94 2.075-.94 3.687 0 1.56.31 2.77.94 3.6.63.83 1.44 1.22 2.46 1.22.81 0 1.48-.24 2.03-.75.55-.51.94-1.25 1.15-2.25l-1.25-.22c-.36 1.28-.99 1.91-1.91 1.91-.59 0-1.09-.24-1.5-.78-.41-.53-.64-1.32-.69-2.37h5.37v-.44c0-1.57-.31-2.76-.94-3.59-.62-.83-1.38-1.25-2.31-1.25zm7.22 0c-.85 0-1.52.25-2 .75-.48.498-.72 1.14-.72 1.937 0 .47.07.86.25 1.22.17.37.43.66.75.88.32.22.96.5 1.9.81.65.21 1.08.39 1.25.53.24.21.37.48.37.85 0 .43-.15.79-.44 1.07-.29.28-.69.41-1.22.41s-.96-.14-1.28-.46c-.32-.32-.53-.81-.6-1.47l-1.22.25c.28 2.01 1.28 3 3 3 .92 0 1.66-.26 2.19-.81s.81-1.29.81-2.18c0-.48-.08-.9-.25-1.25-.16-.35-.42-.61-.72-.81-.3-.2-.93-.47-1.94-.81-.74-.26-1.2-.45-1.35-.56a.974.974 0 0 1-.38-.81c0-.35.143-.65.402-.87.26-.224.66-.344 1.19-.344.93 0 1.454.51 1.564 1.53l1.19-.18c-.08-.645-.22-1.154-.435-1.5a2.33 2.33 0 0 0-.94-.844c-.405-.205-.872-.28-1.406-.28zm-27.88.187l2.72 9.35h1.15l2.72-9.34h-1.25l-1.6 5.72c-.2.69-.37 1.29-.47 1.78-.13-.62-.26-1.27-.44-1.9l-1.56-5.59h-1.28zm7.65 0v9.35h1.22v-9.35h-1.2zm-40.06.13c-.97 0-1.75.44-2.38 1.28-.63.85-.97 2.08-.97 3.69 0 1.55.31 2.74.93 3.56s1.46 1.25 2.47 1.25c.8 0 1.46-.27 2-.78.54-.5.92-1.25 1.12-2.25l-1.22-.18c-.36 1.28-1 1.91-1.91 1.91-.58 0-1.066-.25-1.47-.78-.4-.53-.638-1.32-.687-2.37h5.317l.03-.44c0-1.57-.32-2.79-.94-3.62-.62-.83-1.39-1.25-2.31-1.25zm-13.72.22l2.19 9.35h1.28l1.43-7.19.25 1.6 1.15 5.6h1.25l2.22-9.34h-1.15l-1.22 5.41-.41 1.82-.38-1.81-1.06-5.4H38.2l-1.1 5.45-.374 1.94-.438-2-1.125-5.4h-1.25zm77.78.1v.44h1.19v3.13h.47v-3.13h1.18v-.43h-2.84zm3.31 0v3.56h.43V37l1.03 3.03h.44l1.03-2.968v2.97h.47V36.47h-.66l-.85 2.5-.19.56-.19-.53-.847-2.53H115zm-43.66.66c.6 0 1.1.3 1.5.88.27.4.44 1.01.5 1.82H69.3c.04-.82.27-1.45.655-1.93s.83-.75 1.376-.75zm29.31 0c.6 0 1.11.3 1.5.88.27.4.44 1.01.5 1.82h-4.03c.03-.82.27-1.45.65-1.93s.83-.75 1.37-.75zm-53.03.35c.6 0 1.08.29 1.46.88.27.4.44 1.01.5 1.81H45.6c.04-.82.244-1.48.63-1.97s.835-.71 1.376-.71zm7.75 0c.54 0 1 .3 1.37.88.37.58.53 1.46.53 2.69 0 1.2-.18 2.09-.57 2.69-.39.6-.85.91-1.34.91-.37 0-.7-.12-1-.37-.3-.25-.53-.61-.69-1.09-.17-.48-.25-1.22-.25-2.19 0-1.14.2-1.993.59-2.594.39-.6.84-.91 1.34-.91z"/><path fill="#f7a80d" fill-rule="evenodd" d="M16.406 27.563l-4.656 2 4.313 1.843 5-1.843-4.657-2zm-7 2.5l-.156 9 6.813 3V32.72l-6.657-2.66zm14 0l-6.156 2.343v8.813l6.156-2.5v-8.66zm7.344-28l-4.688 2 4.344 1.843 5-1.843-4.656-2zm-6.5 2.656v9l5.813 1.68.187-8.19-6-2.5zm13 .5l-5.5 2.34v8.84l5.5-2.5V5.22zM8.734 14.73l-4.656 2 4.313 1.843 5-1.843-4.65-2zm-7 2.5l-.156 9 6.813 3v-9.344L1.74 17.23zm14 0l-6.156 2.343v8.813l6.156-2.5V17.23zm8-2.833l-4.656 2 4.313 1.844 5-1.84-4.65-2zm-7 2.5l-.156 9 6.813 3v-9.344l-6.65-2.656zm14 0l-6.156 2.344v8.82l6.156-2.5V16.9zM45.4 2.063l-4.655 2 4.313 1.843 5-1.843-4.657-2zm-7 2.5l-.155 9 6.813 3V7.22L38.4 4.562zm14 0l-6.155 2.343v8.813l6.156-2.5V4.56z"/></svg>