<svg xmlns="http://www.w3.org/2000/svg" width="157" height="19"><path fill="#29A5DE" d="M17.208 18.164h-1.912V6.788c0-.86 0-2.008.096-3.25-.192.764-.383 1.338-.478 1.624L9.082 18.164h-.956L2.39 5.258c-.19-.382-.287-.956-.478-1.72v14.626H0V1.244h2.58L7.745 13c.382.86.67 1.625.764 2.007h.09c.38-.957.57-1.626.86-2.104l5.25-11.76h2.49V18.16zm4.59-15.2c-.384 0-.67-.096-.86-.383-.193-.28-.384-.57-.384-.86 0-.28.096-.66.382-.86.287-.28.574-.38.86-.38.383 0 .67.1.86.38.288.29.384.58.384.86 0 .39-.096.67-.383.86-.19.29-.478.39-.86.39zm.955 15.2H20.84V6.024h1.913v12.14zm11.472-.574c-.956.574-2.008.86-3.346.86-1.73 0-3.16-.573-4.21-1.72-1.05-1.147-1.63-2.58-1.63-4.398 0-2.007.57-3.537 1.72-4.78 1.34-1.147 2.77-1.816 4.68-1.816 1.05 0 2.01.19 2.87.67v2.007c-.86-.67-1.82-.956-2.87-.956-1.24 0-2.2.478-3.06 1.338-.77.86-1.15 2.008-1.15 3.442 0 1.434.38 2.485 1.14 3.346.76.86 1.72 1.243 2.96 1.243 1.05 0 2-.383 2.96-1.052v1.816h-.09zm8.7-9.56c-.383-.286-.86-.382-1.53-.382-.86 0-1.53.382-2.103 1.147-.574.765-.86 1.817-.86 3.155v6.214H36.52V6.024h1.91v2.484c.287-.86.67-1.53 1.243-2.007.574-.47 1.243-.66 1.912-.66.478 0 .86.1 1.147.19v2h.19zm6.213 10.42c-1.816 0-3.25-.573-4.302-1.72-1.05-1.147-1.625-2.58-1.625-4.493 0-2.008.58-3.633 1.63-4.78 1.05-1.147 2.68-1.72 4.59-1.72 1.82 0 3.25.573 4.21 1.624 1.05 1.15 1.53 2.68 1.53 4.59s-.57 3.45-1.62 4.59c-1.14 1.25-2.58 1.91-4.4 1.91zm.096-11.09c-1.243 0-2.2.384-2.964 1.244-.764.86-1.05 2.008-1.05 3.537 0 1.44.38 2.59 1.05 3.35.765.86 1.72 1.25 2.964 1.25 1.243 0 2.2-.38 2.868-1.24.67-.76 1.052-1.91 1.052-3.44s-.383-2.67-1.052-3.44c-.67-.76-1.625-1.24-2.868-1.24zm7.648 10.326v-2.103c1.052.765 2.2 1.147 3.442 1.147 1.72 0 2.58-.574 2.58-1.72 0-.288-.095-.574-.19-.86l-.574-.575c-.287-.19-.574-.287-.86-.478-.287-.095-.67-.287-1.052-.382a6.519 6.519 0 0 1-1.434-.67 4.22 4.22 0 0 1-1.052-.764c-.286-.28-.478-.57-.573-.95-.1-.38-.2-.76-.2-1.24 0-.57.09-1.05.38-1.53.19-.19.47-.57.95-.86.48-.28.95-.48 1.43-.67.57-.19 1.14-.28 1.72-.28 1.05 0 2 .19 2.77.58v1.91c-.86-.57-1.92-.86-3.06-.86-.38 0-.67 0-.96.1-.29.1-.57.19-.77.39-.19.19-.38.29-.48.58-.1.19-.19.48-.19.67 0 .29.09.58.19.77.1.19.29.38.48.578.19.19.48.288.76.48.29.097.67.29 1.05.48.57.19 1.05.38 1.43.67.38.19.76.477 1.05.763.283.288.57.575.67.957.19.38.282.76.282 1.24 0 .572-.095 1.15-.38 1.53-.29.48-.576.763-1.05 1.05-.48.29-.96.48-1.53.67-.578.094-1.15.19-1.82.19-1.05 0-2.197-.287-3.057-.76zm15.392.764c-1.817 0-3.25-.573-4.302-1.72-1.052-1.147-1.626-2.58-1.626-4.493 0-2.008.574-3.633 1.626-4.78 1.242-1.147 2.676-1.72 4.588-1.72 1.817 0 3.25.573 4.207 1.624 1.05 1.15 1.53 2.68 1.53 4.59s-.574 3.45-1.626 4.59c-1.14 1.25-2.58 1.91-4.39 1.91zm.095-11.09c-1.25 0-2.2.384-2.97 1.244s-1.05 2.008-1.05 3.537c0 1.44.38 2.59 1.05 3.35.76.86 1.72 1.25 2.96 1.25s2.2-.38 2.86-1.24c.67-.76 1.05-1.91 1.05-3.44s-.38-2.68-1.05-3.44c-.58-.76-1.63-1.24-2.87-1.24zm20.93.384v-1.72h-3.06v-3.54l-1.91.67v2.963h-5.26v-1.91c0-1.72.67-2.58 2-2.58.48 0 .86.094 1.24.285V.192A5.524 5.524 0 0 0 84.89 0c-1.052 0-2.01.382-2.773 1.147-.763.765-1.05 1.72-1.05 2.964v1.92h-2.1v1.62h2.103v10.52h1.91V7.75h5.26v7.17c0 2.39 1.05 3.533 3.15 3.533.766 0 1.34-.09 1.818-.38v-1.62c-.383.29-.766.388-1.244.388-.67 0-1.05-.19-1.338-.48-.288-.38-.384-.95-.384-1.72V7.75h3.06zm21.32 10.42h-2.2l-1.82-4.78h-7.17l-1.73 4.78h-2.19l6.59-16.92h2.01l6.5 16.92zm-4.59-6.596l-2.68-7.17c-.1-.192-.2-.574-.29-1.148-.1.478-.19.86-.29 1.148l-2.58 7.17h5.83zm14.62-4.972l-7.17 9.847h7.07v1.72h-9.85v-.573l7.17-9.846h-6.5v-1.72h9.27v.572m11.66 11.568h-1.91v-1.912c-.77 1.434-2.01 2.2-3.73 2.2-2.87 0-4.3-1.722-4.3-5.164V6.023h1.91v6.883c0 2.58.95 3.824 2.96 3.824.95 0 1.72-.382 2.29-1.052.57-.67.95-1.625.95-2.772V6.023h1.91v12.14h-.1zm9.56-10.134c-.39-.286-.86-.382-1.44-.382-.86 0-1.53.382-2.1 1.147-.57.765-.86 1.817-.86 3.155v6.214h-1.91V6.024h1.91v2.484c.28-.86.67-1.53 1.24-2.007.57-.47 1.24-.66 1.91-.66.48 0 .86.1 1.15.19v2h.1zm10.9 4.494h-8.51c0 1.338.38 2.39 1.05 3.154.67.765 1.62 1.052 2.87 1.052 1.34 0 2.58-.478 3.73-1.338v1.816c-1.06.765-2.49 1.147-4.21 1.147-1.72 0-3.06-.573-4.02-1.625-.96-1.052-1.43-2.677-1.43-4.59 0-1.91.57-3.44 1.62-4.588 1.05-1.147 2.39-1.816 3.92-1.816 1.53 0 2.77.478 3.63 1.53.86 1.05 1.33 2.485 1.33 4.206v1.052zm-2.01-1.626c0-1.147-.29-2.007-.77-2.58-.57-.574-1.24-.957-2.2-.957-.96 0-1.72.29-2.29.96-.67.67-1.05 1.53-1.15 2.58h6.41z"/></svg>