<svg width="300" xmlns="http://www.w3.org/2000/svg" xmlns:xlink="http://www.w3.org/1999/xlink" viewBox="0 0 286 36"><symbol id="p" viewBox="0 -136 416 136"><path d="M.7-52.6C.7-23.6 25-.1 54-.1c16 0 27.4-6.3 36-14.5L79.8-24.7C73.7-18.9 65.4-14.4 54-14.4c-21.1 0-37.6-17-37.6-38.1S32.9-90.6 54-90.6c13.7 0 21.5 5.5 26.5 10.5 4.1 4.1 6.8 10 7.8 18H54v14.3h48.3c.5-2.6.8-5.6.8-9 0-10.8-2.9-24.1-12.4-33.5C81.4-99.9 69.6-105 54-105 25-105 .7-81.5.7-52.6zM142-37.5c-18.7 0-33.9-14.2-33.9-33.8 0-19.5 15.2-33.8 33.9-33.8s33.9 14.3 33.9 33.8c0 19.6-15.2 33.8-33.9 33.8zm0-54.2c-10.2 0-19.1 8.4-19.1 20.5 0 12.2 8.8 20.5 19.1 20.5 10.2 0 19.1-8.3 19.1-20.5 0-12.1-8.9-20.5-19.1-20.5zm74 54.2c-18.7 0-33.9-14.2-33.9-33.8 0-19.5 15.2-33.8 33.9-33.8s33.9 14.3 33.9 33.8c0 19.6-15.2 33.8-33.9 33.8zm0-54.2c-10.2 0-19.1 8.4-19.1 20.5 0 12.2 8.8 20.5 19.1 20.5s19.1-8.3 19.1-20.5c0-12.1-8.9-20.5-19.1-20.5zm90.8 52.2V-45h-.5c-3.3 4-9.7 7.6-17.8 7.6-16.9 0-32.4-14.8-32.4-33.9 0-18.9 15.5-33.7 32.4-33.7 8.1 0 14.5 3.6 17.8 7.7h.5v-4.9c0-12.9-6.9-19.8-18-19.8-9.1 0-14.7 6.5-17 12l-12.9-5.4c3.7-9 13.6-20 30-20 17.4 0 32.1 10.2 32.1 35.2v60.7h-14.2zm-17-52.2c-10.2 0-18.8 8.6-18.8 20.4 0 11.9 8.6 20.6 18.8 20.6 10.1 0 18-8.7 18-20.6.1-11.9-7.9-20.4-18-20.4zM346-103h-14.8v99.3H346zM386.7-91.7c-7.6 0-12.9 3.5-16.4 10.2l45.2 18.7L414-59c-2.8 7.6-11.4 21.5-28.9 21.5-17.4 0-31.9-13.7-31.9-33.8 0-18.9 14.3-33.8 33.5-33.8 15.5 0 24.4 9.5 28.2 15l-11.5 7.7c-3.9-5.6-9.1-9.3-16.7-9.3zm-1.1 41.2c5.9 0 10.9-2.9 12.5-7.2l-30.2-12.5c-.4 13 10.1 19.7 17.7 19.7z"/><path fill="none" d="M0-136h416V0H0z"/></symbol><path fill="none" d="M1.2-.1h283.3v36.9H1.2z"/><defs><path id="a" d="M35.5 17.2l-4.6-8.1-2.9-5c-.4-.6-1.1-1.1-2-1.1H11c-.8 0-1.6.4-2 1.2l-4.6 8.1-2.9 5c-.4.7-.4 1.6 0 2.3l7.5 13c.4.7 1.2 1.2 2 1.2h15c.8 0 1.6-.4 2-1.2l7.5-13.1c.4-.7.4-1.5 0-2.3zM18.4 23c-2.5 0-4.6-2.1-4.6-4.6s2.1-4.6 4.6-4.6 4.6 2.1 4.6 4.6-2 4.6-4.6 4.6z"/></defs><clipPath id="b"><use xlink:href="#a"/></clipPath><g clip-path="url(#b)"><path d="M13.2 9.2h17.7l-2.9-5c-.4-.7-1.1-1.2-2-1.2H11c-.8 0-1.6.4-2 1.2l-4.6 8.1 8.8 15.3V9.2z" fill="#547dbf"/><linearGradient id="c" gradientUnits="userSpaceOnUse" x1="7.566" y1="17.777" x2="15.222" y2="13.347"><stop offset="0" stop-color="#2d3079" stop-opacity=".2"/><stop offset=".66" stop-color="#2d3079" stop-opacity="0"/></linearGradient><path d="M13.2 9.2h17.7l-2.9-5c-.4-.7-1.1-1.2-2-1.2H11c-.8 0-1.6.4-2 1.2l-4.6 8.1 8.8 15.3V9.2z" fill="url(#c)"/><linearGradient id="d" gradientUnits="userSpaceOnUse" x1="3.678" y1="12.932" x2="8.196" y2="17.449"><stop offset="0" stop-color="#2d3079" stop-opacity=".2"/><stop offset="1" stop-color="#2d3079" stop-opacity=".04"/></linearGradient><path fill="url(#d)" d="M4.4 12.3l4.5 4.4-.8 2.1z"/><path fill="#2d3079" fill-opacity=".1" d="M8.3 18.7l-3.4-5.9-.5-.5 3.7 6.5z"/><path d="M13.2 27.6L4.4 12.3l-2.9 5c-.4.7-.4 1.6 0 2.3l7.5 13c.4.7 1.2 1.2 2 1.2h9.3l8.9-15.4-16 9.2z" fill="#ffce40"/><linearGradient id="e" gradientUnits="userSpaceOnUse" x1="23.497" y1="28.256" x2="15.911" y2="23.814"><stop offset="0" stop-color="#be3a26" stop-opacity=".15"/><stop offset=".66" stop-color="#be3a26" stop-opacity="0"/></linearGradient><path d="M13.2 27.6L4.4 12.3l-2.9 5c-.4.7-.4 1.6 0 2.3l7.5 13c.4.7 1.2 1.2 2 1.2h9.3l8.9-15.4-16 9.2z" fill="url(#e)"/><path d="M30.9 9.2H13.2l15.9 9.2-8.9 15.4H26c.8 0 1.6-.4 2-1.2l7.5-13.1c.4-.7.4-1.6 0-2.3l-4.6-8z" fill="#db4436"/><linearGradient id="f" gradientUnits="userSpaceOnUse" x1="24.528" y1="9.404" x2="24.528" y2="18.202"><stop offset="0" stop-color="#a52822" stop-opacity=".2"/><stop offset=".66" stop-color="#a52822" stop-opacity="0"/></linearGradient><path d="M30.9 9.2H13.2l15.9 9.2-8.9 15.4H26c.8 0 1.6-.4 2-1.2l7.5-13.1c.4-.7.4-1.6 0-2.3l-4.6-8z" fill="url(#f)"/><linearGradient id="g" gradientUnits="userSpaceOnUse" x1="18.701" y1="18.095" x2="30.012" y2="29.406"><stop offset="0" stop-color="#3e2723" stop-opacity=".15"/><stop offset="1" stop-color="#3e2723" stop-opacity="0"/></linearGradient><path fill="url(#g)" d="M23.8 9.2l12 12v12.6H20.3l3.5-6.2z"/><path fill="#3e2723" fill-opacity=".05" d="M23.7 9.2h7.5v.2h-7.5z"/></g><g clip-path="url(#b)"><defs><path id="h" d="M30.9 9.2H13.2l15.9 9.2-8.9 15.4H26c.8 0 1.6-.4 2-1.2l7.5-13.1c.4-.7.4-1.6 0-2.3l-4.6-8z"/></defs><clipPath id="i"><use xlink:href="#h"/></clipPath><g clip-path="url(#i)"><path d="M23.8 9.2l5.3 9.2-5.3 9.2H13.2l-5.3-9.2 5.3-9.2h10.6" fill="#eee"/></g><g clip-path="url(#i)"><path d="M13.2 9.2h17.7l-2.9-5c-.4-.7-1.1-1.2-2-1.2H11c-.8 0-1.6.4-2 1.2l-4.6 8.1 8.8 15.3V9.2z" fill="#547dbf"/></g></g><g clip-path="url(#b)"><defs><path id="j" d="M13.2 27.6L4.4 12.3l-2.9 5c-.4.7-.4 1.6 0 2.3l7.5 13c.4.7 1.2 1.2 2 1.2h9.3l8.9-15.4-16 9.2z"/></defs><clipPath id="k"><use xlink:href="#j"/></clipPath><g clip-path="url(#k)"><path d="M23.8 9.2l5.3 9.2-5.3 9.2H13.2l-5.3-9.2 5.3-9.2h10.6" fill="#eee"/></g></g><g clip-path="url(#b)"><path d="M23.8 9.2l5.3 9.2-5.3 9.2H13.2l-5.3-9.2 5.3-9.2h10.6" fill="#eee"/><path fill="#fff" fill-opacity=".4" d="M23.8 9.4l5.2 9h.2l-5.4-9.2H13.2l-5.3 9.2H8l5.2-9z"/><path fill="#262626" fill-opacity=".05" d="M29 18.4l-5.2 9H13.2l-5.2-9h-.1l5.3 9.2h10.6l5.4-9.2z"/><path fill="#be3a26" fill-opacity=".05" d="M29.2 18.4l-5.4 9.2H13.2l-5.3-9.2v.2l5.3 9.2h10.6l5.4-9.2z"/><path d="M18.4 13.6c-2.5 0-4.6 2.1-4.6 4.6H23c.1-2.5-2-4.6-4.6-4.6zm-4.6 5c0 2.5 2.1 4.6 4.6 4.6s4.6-2.1 4.6-4.6h-9.2z" fill="#262626" fill-opacity=".1"/></g><linearGradient id="l" gradientUnits="userSpaceOnUse" x1="18.533" y1="27.618" x2="18.533" y2="33.738"><stop offset="0" stop-color="#3e2723" stop-opacity=".15"/><stop offset=".035" stop-color="#462823" stop-opacity=".145"/><stop offset=".252" stop-color="#712e24" stop-opacity=".112"/><stop offset=".463" stop-color="#923325" stop-opacity=".081"/><stop offset=".662" stop-color="#aa3726" stop-opacity=".051"/><stop offset=".846" stop-color="#b93926" stop-opacity=".023"/><stop offset="1" stop-color="#be3a26" stop-opacity="0"/></linearGradient><path clip-path="url(#b)" fill="url(#l)" d="M13.2 27.6l6.2 6.2h.9l3.5-6.2z"/><g clip-path="url(#b)"><path d="M4.4 12.5L9 4.4c.4-.7 1.2-1.2 2-1.2h15c.8 0 1.6.4 2 1.2l2.9 5 4.6 8.1c.2.3.3.7.3 1.1 0-.4-.1-.9-.3-1.2l-4.6-8.1-2.9-5c-.4-.8-1.1-1.3-2-1.3H11c-.8 0-1.6.4-2 1.2l-4.6 8.1-2.9 5c-.2.4-.3.8-.3 1.2 0-.4.1-.7.3-1.1l2.9-4.9zM11 33.6c-.8 0-1.6-.4-2-1.2l-4.6-8.1-2.9-5c-.2-.3-.3-.7-.3-1.1 0 .4.1.9.3 1.2l2.9 5L9 32.6c.4.7 1.2 1.2 2 1.2h9.3l.1-.2H11zm24.8-15.3c0 .4-.1.7-.3 1.1l-4.6 8.1-2.9 5c-.4.7-1.2 1.2-2 1.2h-5.6l-.1.2H26c.8 0 1.6-.4 2-1.2l2.9-5 4.6-8.1c.2-.4.3-.9.3-1.3z" fill="#fff" fill-opacity=".2"/></g><radialGradient id="m" cx="9.863" cy="3.529" r="34.568" gradientTransform="matrix(.00646 0 0 .00646 2212.62 -4568.31)" gradientUnits="userSpaceOnUse"><stop offset="0" stop-color="#fff" stop-opacity=".1"/><stop offset="1" stop-color="#fff" stop-opacity="0"/></radialGradient><path d="M35.5 17.2l-4.6-8.1-2.9-5c-.4-.6-1.1-1.1-2-1.1H11c-.8 0-1.6.4-2 1.2l-4.6 8.1-2.9 5c-.4.7-.4 1.6 0 2.3l7.5 13c.4.7 1.2 1.2 2 1.2h15c.8 0 1.6-.4 2-1.2l7.5-13.1c.4-.7.4-1.5 0-2.3zM18.4 23c-2.5 0-4.6-2.1-4.6-4.6s2.1-4.6 4.6-4.6 4.6 2.1 4.6 4.6-2 4.6-4.6 4.6z" fill="url(#m)"/><path fill="none" d="M1.2-.1h34.6v36.9H1.2z"/><g opacity=".54"><defs><path id="n" opacity=".54" d="M45.1-.1h239.5v36.9H45.1z"/></defs><clipPath id="o"><use xlink:href="#n"/></clipPath><path clip-path="url(#o)" fill="none" d="M45.1 7.8h239.5v26.1H45.1z"/><g clip-path="url(#o)"><path d="M130.5 18.8c0-5.2 4-9.2 9.2-9.2 2.7 0 4.9 1.1 6.5 2.9l-1.6 1.5c-1.2-1.5-2.9-2.2-4.9-2.2-3.7 0-6.8 2.7-6.8 7s3.1 7 6.8 7c2.2 0 4.1-1 5.4-2.6l1.6 1.6c-1.5 1.8-4 3.1-7 3.1-5.2.1-9.2-3.8-9.2-9.1zm17.9 8.8V10h2.3v17.6h-2.3zm16.4-6c0 3.7-2.6 6.4-6.2 6.4s-6.2-2.8-6.2-6.4c0-3.7 2.6-6.4 6.2-6.4s6.2 2.7 6.2 6.4zm-2.3 0c0-2.8-1.9-4.4-3.9-4.4s-3.9 1.6-3.9 4.4c0 2.8 1.9 4.4 3.9 4.4 2-.1 3.9-1.7 3.9-4.4zm12.5 6v-1.7h-.1c-.7 1.1-2.2 2.1-3.8 2.1-3.1 0-4.6-2.1-4.6-5.1v-7.4h2.3v7c0 2.5 1.3 3.4 3 3.4 2 0 3.2-1.9 3.2-3.7v-6.6h2.3v12.1H175zm4-6c0-3.7 2.7-6.4 5.7-6.4 1.9 0 3.4 1 4.1 2.1h.1l-.1-1.7V10h2.3v17.6H189v-1.7h-.1c-.7 1.1-2.2 2.1-4.1 2.1-3.1 0-5.8-2.7-5.8-6.4zm10 0c0-2.8-1.8-4.4-3.8-4.4-2 0-3.8 1.6-3.8 4.4 0 2.7 1.8 4.4 3.8 4.4 1.9-.1 3.8-1.7 3.8-4.4zm8.3 6V10h6c2.9 0 5.5 2.2 5.5 5.2s-2.6 5.2-5.5 5.2h-3.7v7.1h-2.3zm6.1-9.3c2 0 3.1-1.7 3.1-3.1 0-1.4-1.1-3.1-3.1-3.1h-3.8v6.2h3.8zm7 9.3V10h2.3v17.6h-2.3zm4.2-3.6c0-2.7 2.5-4.2 5.3-4.2 1.6 0 2.8.5 3.3.7v-.3c0-1.8-1.5-2.9-3.1-2.9-1.3 0-2.5.6-2.9 1.7l-2.1-.9c.4-1.1 1.9-2.9 4.9-2.9 3 0 5.4 1.8 5.4 5.2v7.3h-2.2V26h-.1c-.7 1-1.9 2.1-4 2.1-2.4-.1-4.5-1.6-4.5-4.1zm8.6-1.6s-1-.8-2.9-.8c-2.4 0-3.3 1.3-3.3 2.4 0 1.3 1.3 1.9 2.5 1.9 1.8 0 3.7-1.5 3.7-3.5zm5.4 1.6v-6.3h-2.1v-2.1h2.1v-3.7h2.3v3.7h3v2.1h-3v6.2c0 1.4.6 2 1.6 2 .4 0 .7 0 1-.2l.8 1.9c-.5.2-1.1.3-1.8.3-2.5-.1-3.9-1.5-3.9-3.9zm14.7-13.8l-.8 1.9c-.3-.1-.6-.2-1-.2-1.1 0-2 .7-2 2.1v1.5h3.1v2.1h-3.1v10h-2.3v-10H235v-2.1h2.3V14c0-2.5 1.7-4.1 4.3-4.1.7 0 1.2.1 1.7.3zm12.4 11.4c0 3.7-2.6 6.4-6.2 6.4s-6.2-2.8-6.2-6.4c0-3.7 2.6-6.4 6.2-6.4s6.2 2.7 6.2 6.4zm-2.3 0c0-2.8-1.9-4.4-3.9-4.4s-3.9 1.6-3.9 4.4c0 2.8 1.9 4.4 3.9 4.4 2-.1 3.9-1.7 3.9-4.4zm4.1 6v-12h2.2v2h.1c.5-1.4 2.2-2.3 3.5-2.3.7 0 1.2.1 1.7.3l-.9 2.1c-.3-.1-.7-.2-1.2-.2-1.6 0-3.1 1.3-3.1 3.5v6.6h-2.3zm8.7-12h2.2v1.7h.1c.7-1.2 2.3-2.1 3.7-2.1 1.9 0 3.2.9 3.8 2.3.9-1.4 2.3-2.3 4.2-2.3 3 0 4.3 2.1 4.3 5.1v7.4h-2.3v-7c0-2.5-1-3.3-2.7-3.3-1.8 0-3.1 1.9-3.1 3.7v6.7h-2.3v-7c0-2.5-1-3.3-2.7-3.3-1.8 0-3.1 1.9-3.1 3.7v6.7H266V15.6z"/></g><g clip-path="url(#o)"><use xlink:href="#p" width="416" height="136" y="-136" transform="matrix(.1922 0 0 -.1922 45.06 7.82)"/></g></g></svg>