<svg width="294" height="212" xmlns="http://www.w3.org/2000/svg"><defs><linearGradient x1="11.949%" y1="60.07%" x2="40.836%" y2="42.062%" id="a"><stop stop-color="#2D3079" stop-opacity=".2" offset="0%"/><stop stop-color="#2D3079" stop-opacity="0" offset="66%"/></linearGradient><linearGradient x1="-16.04%" y1="9.717%" x2="84.356%" y2="79.22%" id="b"><stop stop-color="#2D3079" stop-opacity=".2" offset="0%"/><stop stop-color="#2D3079" stop-opacity=".04" offset="100%"/></linearGradient><linearGradient x1="79.633%" y1="74.213%" x2="52.539%" y2="53.554%" id="c"><stop stop-color="#BE3A26" stop-opacity=".15" offset="0%"/><stop stop-color="#BE3A26" stop-opacity="0" offset="66%"/></linearGradient><linearGradient x1="50.123%" y1=".831%" x2="50.123%" y2="36.594%" id="d"><stop stop-color="#A52822" stop-opacity=".2" offset="0%"/><stop stop-color="#A52822" stop-opacity="0" offset="66%"/></linearGradient><linearGradient x1="-10.315%" y1="36.159%" x2="62.657%" y2="82.138%" id="e"><stop stop-color="#3E2723" stop-opacity=".15" offset="0%"/><stop stop-color="#3E2723" stop-opacity="0" offset="100%"/></linearGradient><linearGradient x1="50.31%" y1=".295%" x2="50.31%" y2="99.006%" id="f"><stop stop-color="#3E2723" stop-opacity=".15" offset="0%"/><stop stop-color="#462823" stop-opacity=".145" offset="3.547%"/><stop stop-color="#712E24" stop-opacity=".112" offset="25.22%"/><stop stop-color="#923325" stop-opacity=".081" offset="46.25%"/><stop stop-color="#AA3726" stop-opacity=".051" offset="66.19%"/><stop stop-color="#B93926" stop-opacity=".023" offset="84.59%"/><stop stop-color="#BE3A26" stop-opacity="0" offset="100%"/></linearGradient><radialGradient cx="6391.57%" cy="-14841.84%" fx="6391.57%" fy="-14841.84%" r="112.232%" gradientTransform="matrix(.89017 0 0 1 7.02 0)" id="g"><stop stop-color="#FFF" stop-opacity=".1" offset="0%"/><stop stop-color="#FFF" stop-opacity="0" offset="100%"/></radialGradient></defs><g fill="none" fill-rule="evenodd"><g fill="#29A5DE" fill-rule="nonzero"><path d="M75.845 210.947H73.64v-13.12c0-.992 0-2.315.11-3.748-.22.882-.44 1.544-.551 1.874l-6.725 14.994H65.37l-6.615-14.883c-.22-.441-.33-1.103-.551-1.985v16.869H56v-19.515h2.977l5.953 13.561c.441.992.772 1.874.882 2.315h.11c.441-1.102.662-1.874.993-2.425l6.063-13.561h2.867v19.624zM81.137 193.418c-.441 0-.772-.11-.992-.441-.22-.331-.441-.662-.441-.992 0-.331.11-.772.44-.993.331-.33.662-.44.993-.44.441 0 .772.11.992.44.331.331.441.662.441.992 0 .441-.11.772-.44.993-.221.33-.552.44-.993.44zm1.102 17.53h-2.205v-14.002h2.205v14.002zM95.47 210.286c-1.103.662-2.316.992-3.86.992-1.984 0-3.638-.661-4.85-1.984-1.213-1.323-1.875-2.977-1.875-5.072 0-2.315.662-4.079 1.985-5.512 1.543-1.323 3.197-2.095 5.402-2.095 1.213 0 2.315.22 3.308.772v2.315c-.993-.772-2.095-1.102-3.308-1.102-1.433 0-2.536.55-3.528 1.543-.882.992-1.323 2.315-1.323 3.969s.441 2.867 1.323 3.859c.882.992 1.985 1.433 3.418 1.433 1.213 0 2.315-.441 3.418-1.213v2.095h-.11zM105.502 199.261c-.44-.33-.992-.441-1.764-.441-.992 0-1.764.441-2.425 1.323-.662.882-.992 2.095-.992 3.638v7.166h-2.205v-14.001h2.205v2.866c.33-.992.771-1.764 1.433-2.315.661-.551 1.433-.772 2.205-.772.551 0 .992.11 1.323.22v2.316h.22zM112.668 211.278c-2.094 0-3.748-.661-4.96-1.984-1.214-1.323-1.875-2.977-1.875-5.182 0-2.315.661-4.19 1.874-5.512 1.213-1.323 3.087-1.985 5.292-1.985 2.095 0 3.749.662 4.851 1.874 1.213 1.323 1.764 3.087 1.764 5.292 0 2.205-.661 3.97-1.874 5.292-1.323 1.434-2.977 2.205-5.072 2.205zm.11-12.789c-1.433 0-2.535.441-3.417 1.434-.882.992-1.213 2.315-1.213 4.079 0 1.654.441 2.977 1.213 3.859.882.992 1.984 1.433 3.418 1.433 1.433 0 2.536-.441 3.307-1.434.772-.882 1.213-2.205 1.213-3.969 0-1.763-.441-3.086-1.213-3.968-.771-.882-1.874-1.434-3.307-1.434zM121.599 210.396v-2.425c1.212.882 2.535 1.323 3.969 1.323 1.984 0 2.977-.662 2.977-1.985 0-.33-.11-.661-.221-.992l-.662-.662c-.33-.22-.661-.33-.992-.55-.33-.111-.771-.331-1.212-.442a7.6 7.6 0 0 1-1.654-.772 4.895 4.895 0 0 1-1.213-.881c-.33-.331-.551-.662-.661-1.103-.11-.441-.221-.882-.221-1.433 0-.662.11-1.213.441-1.764.22-.22.551-.662 1.103-.992.55-.331 1.102-.552 1.653-.772a6.243 6.243 0 0 1 1.985-.331c1.213 0 2.315.22 3.197.662v2.205c-.992-.662-2.205-.993-3.528-.993-.441 0-.772 0-1.102.11-.331.11-.662.221-.882.442-.221.22-.441.33-.552.661-.11.22-.22.551-.22.772 0 .33.11.661.22.882.11.22.331.44.552.661.22.22.55.331.882.551.33.11.771.331 1.212.552.662.22 1.213.44 1.654.772.441.22.882.55 1.213.882.33.33.661.661.772 1.102.22.441.33.882.33 1.433 0 .662-.11 1.323-.44 1.764-.332.551-.662.882-1.214 1.213-.55.33-1.102.551-1.764.772-.661.11-1.323.22-2.094.22-1.213 0-2.536-.33-3.528-.882zM139.349 211.278c-2.095 0-3.749-.661-4.961-1.984-1.213-1.323-1.875-2.977-1.875-5.182 0-2.315.662-4.19 1.875-5.512 1.433-1.323 3.087-1.985 5.292-1.985 2.094 0 3.748.662 4.85 1.874 1.213 1.323 1.765 3.087 1.765 5.292 0 2.205-.662 3.97-1.875 5.292-1.323 1.434-2.976 2.205-5.071 2.205zm.11-12.789c-1.433 0-2.535.441-3.418 1.434-.882.992-1.212 2.315-1.212 4.079 0 1.654.44 2.977 1.212 3.859.882.992 1.985 1.433 3.418 1.433s2.536-.441 3.308-1.434c.772-.882 1.213-2.205 1.213-3.969 0-1.763-.441-3.086-1.213-3.968-.662-.882-1.874-1.434-3.308-1.434zM163.604 198.93v-1.984h-3.528v-4.08l-2.205.772v3.418h-6.064v-2.205c0-1.985.772-2.977 2.316-2.977.55 0 .992.11 1.433.331v-1.985a6.673 6.673 0 0 0-1.654-.22 4.415 4.415 0 0 0-3.197 1.323c-.882.882-1.213 1.985-1.213 3.418v2.205h-2.425v1.874h2.425v12.128h2.205V198.93h6.064v8.269c0 2.756 1.213 4.08 3.638 4.08.882 0 1.543-.111 2.095-.442v-1.874c-.441.33-.882.441-1.433.441-.772 0-1.213-.22-1.544-.551-.33-.441-.441-1.103-.441-1.985v-7.938h3.528zM188.19 210.947h-2.536l-2.095-5.512h-8.268l-1.985 5.513h-2.536l7.608-19.515h2.315l7.497 19.514zm-5.292-7.607l-3.087-8.269c-.11-.22-.22-.661-.331-1.323-.11.552-.22.993-.33 1.323l-2.978 8.27h6.726zM199.766 197.607l-8.269 11.356h8.159v1.985H188.3v-.662l8.269-11.356h-7.497v-1.984h10.694zM213.216 210.947h-2.204v-2.205c-.882 1.654-2.316 2.536-4.3 2.536-3.308 0-4.962-1.984-4.962-5.953v-8.38h2.206v7.939c0 2.977 1.102 4.41 3.417 4.41 1.103 0 1.985-.441 2.646-1.213.662-.772 1.103-1.874 1.103-3.197v-7.938h2.205v14.002h-.11zM224.242 199.261c-.441-.33-.993-.441-1.654-.441-.993 0-1.764.441-2.426 1.323-.661.882-.992 2.095-.992 3.638v7.166h-2.205v-14.001h2.205v2.866c.33-.992.772-1.764 1.433-2.315.662-.551 1.433-.772 2.205-.772.552 0 .993.11 1.323.22v2.316h.11zM236.81 204.443h-9.812c0 1.543.44 2.756 1.213 3.638.771.882 1.874 1.213 3.307 1.213 1.543 0 2.977-.552 4.3-1.544v2.095c-1.213.882-2.867 1.323-4.851 1.323-1.985 0-3.528-.662-4.63-1.874-1.103-1.213-1.654-3.087-1.654-5.292 0-2.205.661-3.97 1.874-5.292 1.213-1.323 2.756-2.095 4.52-2.095 1.764 0 3.197.551 4.19 1.764.992 1.213 1.543 2.867 1.543 4.851v1.213zm-2.315-1.875c0-1.323-.331-2.315-.882-2.976-.662-.662-1.434-1.103-2.536-1.103s-1.984.331-2.646 1.103c-.772.771-1.213 1.764-1.323 2.976h7.387z"/></g><path d="M117.858 22.28c-3.154 0-6.675 1.216-7.413 5.215-.079.425.202.628.474.69l3.232.388c.3-.015.503-.34.56-.647.276-1.376 1.41-2.025 2.673-2.025.682 0 1.449.234 1.853.862.463.699.43 1.65.43 2.456v.474c-1.92.221-4.45.354-6.248 1.164-2.076.923-3.534 2.8-3.534 5.56 0 3.535 2.166 5.3 4.956 5.3 2.355 0 3.657-.553 5.473-2.456.603.896.796 1.303 1.896 2.24.246.133.557.12.776-.085v.043c.662-.603 1.866-1.703 2.543-2.284.27-.227.21-.598 0-.906-.606-.857-1.25-1.55-1.25-3.146v-5.3c0-2.246.19-4.316-1.422-5.861-1.27-1.251-3.389-1.681-5-1.681zm43.44 0c-3.155 0-6.673 1.216-7.412 5.215-.079.425.201.628.474.69l3.232.388c.3-.015.504-.34.56-.647.278-1.376 1.41-2.025 2.673-2.025.684 0 1.449.234 1.853.862.462.699.388 1.65.388 2.456v.474c-1.921.221-4.408.354-6.206 1.164-2.077.923-3.534 2.8-3.534 5.56 0 3.535 2.167 5.3 4.956 5.3 2.353 0 3.654-.553 5.473-2.456.6.896.796 1.303 1.896 2.24.247.133.557.12.776-.085v.043c.663-.603 1.866-1.703 2.543-2.284.27-.227.208-.598 0-.906-.606-.857-1.25-1.55-1.25-3.146v-5.3c0-2.246.145-4.316-1.465-5.861-1.272-1.251-3.346-1.681-4.956-1.681zm-24.435.173c-2.038 0-3.55 1.029-4.353 3.232h-.043v-2.284a.648.648 0 0 0-.603-.603h-3.103a.655.655 0 0 0-.647.646v17.454a.67.67 0 0 0 .604.604h3.318a.653.653 0 0 0 .647-.647V31.59c0-2.02-.098-4.784 2.284-4.784 2.351 0 2.025 2.84 2.025 4.784v9.265c0 .33.27.625.604.647h3.318a.653.653 0 0 0 .647-.647V31.59c0-.992-.04-2.436.301-3.319.34-.882 1.177-1.465 1.983-1.465.96 0 1.692.335 1.939 1.508.154.698.086 2.542.086 3.276v9.265c0 .33.27.625.604.647h3.318a.653.653 0 0 0 .646-.647V29.823c0-1.875.19-4.002-.862-5.474-.928-1.32-2.445-1.896-3.835-1.896-1.95 0-3.764 1.029-4.568 3.232-.928-2.202-2.237-3.232-4.31-3.232zm56.413 0c-4.795 0-7.456 4.216-7.456 9.654 0 5.4 2.632 9.74 7.456 9.74 4.64 0 7.585-4.24 7.585-9.568 0-5.508-2.667-9.826-7.585-9.826zm18.92 0c-2.291 0-3.6 1.145-4.526 3.534h-.043v-2.672c-.06-.27-.314-.457-.603-.474h-3.06c-.334 0-.616.242-.646.56v17.454c0 .33.27.625.603.647h3.275c.353 0 .641-.294.647-.647V31.46c0-1.177.1-2.252.56-3.318.37-.846 1.09-1.38 1.896-1.38 2.287 0 2.069 2.787 2.069 4.698v9.481c.033.297.3.541.603.56h3.319a.654.654 0 0 0 .646-.56v-10.99c0-1.688.004-4.035-.862-5.43-.928-1.507-2.397-2.068-3.879-2.068zm-39.822.302c-.336 0-.602.267-.603.646v2.5c.001.374.259.644.603.646h5.69l-6.508 9.61c-.398.62-.431 1.322-.431 1.725v2.542c0 .366.397.765.775.56 3.709-2.024 8.153-1.844 11.507-.043.407.222.819-.194.819-.56V37.71c-.033-.357-.173-.701-.603-.948-1.904-1.095-4.113-1.43-6.206-1.379l5.645-8.274c.523-.744.815-1.192.82-1.552v-2.155c0-.37-.254-.646-.604-.646h-10.904zm20.902 3.275c1.05 0 1.826.469 2.198 1.68.432 1.398.474 3.142.474 4.612 0 2.24-.104 5.947-2.672 5.947-2.597 0-2.586-4.59-2.586-6.723 0-2.127.144-5.516 2.586-5.516zm-73.651 6.378v.733c0 1.325.047 2.441-.604 3.62-.527.959-1.354 1.552-2.284 1.552-1.269 0-2.025-1.03-2.025-2.5 0-2.897 2.517-3.405 4.913-3.405zm43.44 0v.733c0 1.325.048 2.441-.603 3.62-.527.959-1.35 1.552-2.284 1.552-1.27 0-2.025-1.03-2.025-2.5 0-2.897 2.514-3.405 4.913-3.405z" fill="#FFF"/><path d="M184.57 42.062v2.5h1.681v-2.5h-1.68zm-48.741.43v17.8h1.551v-1.595c.331.632.707 1.104 1.164 1.422.455.319.978.474 1.551.474 1.14 0 2.123-.582 2.974-1.767.85-1.184 1.293-2.902 1.293-5.085 0-1.43-.184-2.616-.56-3.62-.377-1.003-.88-1.747-1.509-2.241-.629-.492-1.343-.776-2.112-.776-.548 0-1.061.144-1.508.431-.448.287-.81.754-1.164 1.336v-6.378h-1.68zm15.945 4.181c-1.17 0-2.097.346-2.758 1.035-.66.686-.991 1.572-.991 2.672 0 .638.144 1.178.388 1.68.244.502.594.908 1.034 1.207.441.3 1.322.692 2.629 1.12.905.291 1.445.539 1.68.733.343.283.518.653.518 1.164 0 .59-.205 1.082-.603 1.465-.399.385-.953.56-1.681.56-.728 0-1.327-.203-1.767-.646-.44-.443-.677-1.116-.776-2.026l-1.68.345c.38 2.765 1.76 4.139 4.137 4.137 1.268 0 2.24-.359 2.973-1.12.734-.761 1.12-1.785 1.12-3.017 0-.665-.116-1.241-.344-1.724a2.73 2.73 0 0 0-.948-1.12c-.41-.279-1.322-.65-2.715-1.12-1.012-.355-1.605-.615-1.81-.777-.344-.273-.517-.644-.517-1.12 0-.484.16-.896.517-1.207.357-.309.908-.474 1.637-.474 1.286 0 2.004.705 2.155 2.112l1.638-.259c-.113-.89-.307-1.591-.603-2.068a3.22 3.22 0 0 0-1.293-1.164c-.56-.283-1.202-.388-1.94-.388zm10.3 0c-1.346 0-2.484.556-3.361 1.724-.879 1.168-1.293 2.862-1.293 5.085 0 2.142.423 3.82 1.293 4.957.87 1.135 1.998 1.68 3.404 1.68 1.118 0 2.046-.335 2.802-1.034.757-.7 1.306-1.728 1.594-3.103l-1.724-.302c-.495 1.763-1.408 2.627-2.672 2.63-.805 0-1.462-.343-2.025-1.078-.563-.737-.88-1.829-.948-3.275h7.412v-.604c0-2.175-.433-3.807-1.293-4.956-.86-1.149-1.903-1.724-3.189-1.724zm10.214 0c-.403 0-.755.136-1.077.431-.323.295-.69.904-1.078 1.81v-1.982h-1.508v12.886h1.68v-6.723c0-.938.089-1.84.302-2.672.122-.478.35-.855.647-1.12.296-.267.634-.389.991-.389.396 0 .789.159 1.207.474l.56-2.025c-.586-.47-1.161-.69-1.724-.69zm20.6 0c-1.33 0-2.427.561-3.275 1.681-.847 1.12-1.293 2.803-1.293 5.042 0 2.223.453 3.906 1.293 5.043.841 1.135 1.89 1.68 3.189 1.68 1.072 0 1.994-.398 2.758-1.206.766-.809 1.232-1.998 1.422-3.534l-1.637-.259c-.122 1.1-.409 1.89-.862 2.414-.454.52-1 .775-1.638.775-.814 0-1.506-.379-2.025-1.163-.52-.784-.776-2.039-.776-3.793 0-1.699.275-2.926.819-3.706.543-.78 1.24-1.207 2.068-1.207.555 0 1.028.216 1.422.647.398.43.66 1.113.82 1.982l1.637-.345c-.197-1.358-.633-2.381-1.336-3.06-.705-.68-1.56-.99-2.586-.99zm9.61 0c-1.345 0-2.482.556-3.36 1.724-.88 1.168-1.294 2.862-1.294 5.085 0 2.142.423 3.82 1.293 4.957.872 1.135 1.998 1.68 3.405 1.68 1.115 0 2.044-.335 2.801-1.034.756-.7 1.305-1.728 1.595-3.103l-1.724-.302c-.495 1.763-1.369 2.627-2.63 2.63-.805 0-1.505-.343-2.068-1.078-.562-.737-.879-1.829-.948-3.275h7.413v-.604c0-2.175-.434-3.807-1.293-4.956-.858-1.149-1.904-1.724-3.19-1.724zm9.956 0c-1.17 0-2.098.346-2.758 1.035-.662.686-.991 1.572-.991 2.672 0 .638.1 1.178.344 1.68a3.03 3.03 0 0 0 1.035 1.207c.44.3 1.321.692 2.629 1.12.903.291 1.488.539 1.723.733.342.283.518.653.518 1.164 0 .59-.205 1.082-.604 1.465-.397.385-.954.56-1.68.56-.73 0-1.328-.203-1.768-.646-.438-.443-.72-1.116-.818-2.026l-1.681.345c.38 2.765 1.757 4.139 4.137 4.137 1.27 0 2.283-.359 3.017-1.12.734-.761 1.12-1.785 1.12-3.017 0-.665-.117-1.242-.344-1.724-.228-.481-.582-.84-.992-1.12-.408-.279-1.279-.65-2.672-1.12-1.012-.355-1.649-.615-1.853-.777-.343-.273-.517-.644-.517-1.12 0-.484.203-.898.56-1.207.358-.309.91-.474 1.638-.474 1.284 0 2.003.705 2.155 2.112l1.637-.259c-.114-.89-.305-1.591-.603-2.068a3.22 3.22 0 0 0-1.293-1.164c-.558-.283-1.203-.388-1.94-.388zm-38.442.259l3.75 12.886h1.594l3.75-12.886h-1.725l-2.197 7.886c-.267.955-.502 1.777-.647 2.457-.183-.856-.36-1.756-.603-2.629l-2.155-7.714h-1.767zm10.559 0v12.886h1.68V46.932h-1.68zm-55.25.172c-1.333 0-2.406.6-3.275 1.767-.87 1.168-1.336 2.862-1.336 5.086 0 2.141.43 3.778 1.293 4.913.862 1.134 2.012 1.723 3.404 1.723 1.106 0 2.01-.378 2.759-1.077.747-.7 1.264-1.728 1.551-3.103l-1.68-.259c-.49 1.763-1.38 2.627-2.63 2.63-.798 0-1.468-.343-2.025-1.078-.557-.737-.88-1.829-.948-3.275h7.326l.043-.604c0-2.175-.442-3.85-1.293-4.999-.85-1.149-1.917-1.724-3.189-1.724zm-18.92.302l3.018 12.886h1.767l1.982-9.912.345 2.197 1.594 7.715h1.724l3.06-12.886h-1.594l-1.681 7.456-.56 2.5-.518-2.5-1.465-7.456h-1.724l-1.551 7.542-.517 2.672-.604-2.758-1.551-7.456h-1.724zm107.268.13v.603h1.637v4.31h.647v-4.31h1.637v-.604h-3.921zm4.568 0v4.912h.603v-4.18l1.422 4.18h.604l1.422-4.094v4.094h.646v-4.913h-.905l-1.163 3.448c-.118.345-.201.594-.259.776l-.259-.733-1.163-3.49h-.948zm-60.206.904c.837 0 1.528.406 2.069 1.207.372.55.614 1.384.69 2.5h-5.56c.052-1.133.373-2.005.905-2.672.532-.668 1.145-1.035 1.896-1.035zm40.425 0c.834 0 1.528.406 2.068 1.207.371.55.614 1.384.69 2.5h-5.56c.053-1.133.372-2.005.905-2.672.531-.668 1.144-1.035 1.897-1.035zm-73.135.474c.828 0 1.492.406 2.026 1.207.368.55.613 1.384.69 2.5h-5.474c.052-1.133.332-2.048.862-2.716.527-.667 1.15-.99 1.896-.99zm10.688 0c.748 0 1.383.415 1.896 1.207.513.793.733 2.015.733 3.706 0 1.65-.243 2.878-.776 3.707-.532.828-1.166 1.25-1.853 1.25-.505 0-.964-.17-1.379-.518-.416-.347-.722-.846-.948-1.508-.226-.664-.345-1.683-.345-3.017 0-1.57.28-2.748.819-3.577.54-.829 1.166-1.25 1.853-1.25z" fill="#FFF" fill-rule="nonzero"/><path d="M86.246 35.253l-6.42 2.758 5.946 2.543 6.896-2.543-6.422-2.758zM76.593 38.7l-.216 12.412 9.395 4.137V42.364l-9.18-3.664zm19.307 0l-8.49 3.233v12.153l8.49-3.448V38.7zM106.028.086l-6.465 2.758 5.99 2.543 6.896-2.543-6.421-2.758zM97.064 3.75v12.412l8.016 2.327.258-11.29-8.274-3.449zm17.928.69l-7.585 3.232v12.196l7.585-3.447V4.439zM75.666 17.555l-6.421 2.758 5.947 2.543 6.896-2.543-6.422-2.758zm-9.653 3.448l-.216 12.411 9.395 4.138V24.666l-9.18-3.663zm19.307 0l-8.49 3.232v12.153l8.49-3.448V21.003zM96.352 17.096l-6.421 2.759 5.947 2.542 6.896-2.542-6.422-2.759zM86.7 20.544l-.216 12.412 9.395 4.137V24.207l-9.18-3.663zm19.307 0l-8.49 3.232V35.93l8.49-3.448V20.544zM126.233.086l-6.421 2.758 5.947 2.543 6.895-2.543-6.42-2.758zm-9.653 3.448l-.216 12.412 9.395 4.137V7.197l-9.18-3.663zm19.307 0l-8.49 3.232V18.92l8.49-3.447V3.534z" fill="#F7A80D"/><g><g fill-rule="nonzero"><path d="M12.61 115.408h18.294l-2.997-5.168c-.413-.723-1.137-1.24-2.067-1.24H10.336c-.827 0-1.654.413-2.067 1.24l-4.755 8.372 9.096 15.814v-19.018z" fill="#547DBF"/><path d="M12.61 6.408h18.294L27.907 1.24C27.494.517 26.77 0 25.84 0H10.336c-.827 0-1.654.413-2.067 1.24L3.514 9.612l9.096 15.814V6.408z" fill="url(#a)" transform="translate(0 109)"/><path fill="url(#b)" d="M3.514 9.612l4.651 4.548-.826 2.17z" transform="translate(0 109)"/><path fill-opacity=".1" fill="#2D3079" d="M7.545 125.227l-3.514-6.098-.517-.517 3.825 6.719z"/><path d="M12.61 134.426l-9.096-15.814-2.997 5.168a2.433 2.433 0 0 0 0 2.378l7.752 13.436c.413.724 1.24 1.24 2.067 1.24h9.612l9.2-15.917-16.538 9.51z" fill="#FFCE40"/><path d="M12.61 25.426L3.514 9.612.517 14.78a2.433 2.433 0 0 0 0 2.378l7.752 13.436c.413.724 1.24 1.24 2.067 1.24h9.612l9.2-15.917-16.538 9.51z" fill="url(#c)" transform="translate(0 109)"/><path d="M30.904 115.408H12.61l16.434 9.51-9.199 15.917h5.995c.827 0 1.654-.414 2.067-1.24l7.752-13.54a2.433 2.433 0 0 0 0-2.378l-4.755-8.269z" fill="#DB4436"/><path d="M30.904 6.408H12.61l16.434 9.51-9.199 15.917h5.995c.827 0 1.654-.414 2.067-1.24l7.752-13.54a2.433 2.433 0 0 0 0-2.378l-4.755-8.269z" fill="url(#d)" transform="translate(0 109)"/><path fill="url(#e)" d="M23.566 6.408l12.403 12.403v13.024H19.95l3.617-6.409z" transform="translate(0 109)"/><path fill-opacity=".05" fill="#3E2723" d="M23.463 115.408h7.752v1h-7.752z"/></g><path fill="#EEE" fill-rule="nonzero" d="M23.566 115.408l5.478 9.51-5.478 9.508H12.61l-5.478-9.509 5.478-9.509h10.956"/><g transform="translate(6.202 115.202)"><path fill="#EEE" fill-rule="nonzero" d="M17.364.207l5.478 9.509-5.478 9.509H6.408L.93 9.715 6.408.208h10.956"/><path fill-opacity=".4" fill="#FFF" fill-rule="nonzero" d="M17.364.413l5.375 9.303h.207L17.364.206H6.408L.93 9.717h.104L6.408.413z"/><path fill-opacity=".05" fill="#262626" fill-rule="nonzero" d="M22.74 9.716l-5.376 9.302H6.408L1.034 9.716H.93l5.478 9.509h10.956l5.582-9.51z"/><path fill-opacity=".05" fill="#BE3A26" fill-rule="nonzero" d="M22.946 9.716l-5.582 9.509H6.408L.93 9.715v.207l5.478 9.51h10.956l5.582-9.51z"/><ellipse fill="#FFF" cx="12.196" cy="9.922" rx="4.961" ry="4.755"/></g><path fill="url(#f)" fill-rule="nonzero" d="M12.61 25.426l6.408 6.409h.93l3.618-6.409z" transform="translate(0 109)"/><path d="M3.514 118.82l4.755-8.373c.413-.723 1.24-1.24 2.067-1.24H25.84c.827 0 1.654.413 2.067 1.24l2.997 5.168 4.755 8.372c.207.31.31.724.31 1.137 0-.413-.103-.93-.31-1.24l-4.755-8.372-2.997-5.168c-.413-.827-1.137-1.344-2.067-1.344H10.336c-.827 0-1.654.413-2.067 1.24l-4.755 8.372-2.997 5.168c-.207.414-.31.827-.31 1.24 0-.413.103-.723.31-1.136l2.997-5.065zm6.822 21.808c-.827 0-1.654-.413-2.067-1.24l-4.755-8.372-2.997-5.168c-.207-.31-.31-.724-.31-1.137 0 .413.103.93.31 1.24l2.997 5.168 4.755 8.475c.413.724 1.24 1.24 2.067 1.24h9.612l.104-.206h-9.716zm25.633-15.814c0 .413-.103.724-.31 1.137l-4.755 8.372-2.997 5.168c-.413.724-1.24 1.24-2.067 1.24h-5.788l-.104.207h5.892c.827 0 1.654-.413 2.067-1.24l2.997-5.168 4.755-8.372c.207-.414.31-.93.31-1.344z" fill-opacity=".2" fill="#FFF" fill-rule="nonzero"/><path d="M35.659 14.677l-4.755-8.372-2.997-5.168C27.494.517 26.77 0 25.84 0H10.336c-.827 0-1.654.413-2.067 1.24L3.514 9.612.517 14.78a2.433 2.433 0 0 0 0 2.378l7.752 13.436c.413.724 1.24 1.24 2.067 1.24H25.84c.827 0 1.654-.413 2.067-1.24l7.752-13.54c.413-.723.413-1.55 0-2.377zm-17.674 5.995c-2.584 0-4.755-2.17-4.755-4.755 0-2.584 2.17-4.754 4.755-4.754 2.584 0 4.754 2.17 4.754 4.754a4.742 4.742 0 0 1-4.754 4.755z" fill="url(#g)" fill-rule="nonzero" transform="translate(0 109)"/><path d="M45.581 113.961h247.546v26.977H45.581z"/><path d="M133.85 125.33c0-5.374 4.135-9.508 9.51-9.508 2.79 0 5.064 1.137 6.718 2.997l-1.654 1.55c-1.24-1.55-2.997-2.273-5.065-2.273-3.824 0-7.028 2.79-7.028 7.235 0 4.444 3.204 7.235 7.028 7.235 2.274 0 4.238-1.034 5.582-2.687l1.654 1.653c-1.55 1.86-4.135 3.204-7.236 3.204-5.374.104-9.509-3.927-9.509-9.405zm18.502 9.096v-18.19h2.377v18.19h-2.377zm16.95-6.201c0 3.824-2.687 6.615-6.408 6.615-3.72 0-6.408-2.894-6.408-6.615 0-3.824 2.687-6.615 6.408-6.615 3.721 0 6.409 2.79 6.409 6.615zm-2.377 0c0-2.894-1.963-4.548-4.03-4.548-2.068 0-4.032 1.654-4.032 4.548s1.964 4.548 4.031 4.548c2.068-.104 4.031-1.757 4.031-4.548zm12.92 6.201v-1.757h-.103c-.724 1.137-2.274 2.17-3.928 2.17-3.204 0-4.754-2.17-4.754-5.27v-7.65h2.377v7.236c0 2.584 1.344 3.514 3.1 3.514 2.068 0 3.308-1.964 3.308-3.824v-6.822h2.378v12.507h-2.378v-.104zm4.135-6.201c0-3.824 2.79-6.615 5.891-6.615 1.964 0 3.514 1.033 4.238 2.17h.103l-.103-1.757v-5.788h2.377v18.191h-2.17v-1.757h-.104c-.723 1.137-2.274 2.17-4.237 2.17-3.205 0-5.995-2.79-5.995-6.614zm10.336 0c0-2.894-1.86-4.548-3.928-4.548-2.067 0-3.928 1.654-3.928 4.548 0 2.79 1.86 4.548 3.928 4.548 1.964-.104 3.928-1.757 3.928-4.548zm8.578 6.201v-18.19h6.202c2.997 0 5.685 2.273 5.685 5.374 0 3.1-2.688 5.375-5.685 5.375h-3.824v7.338h-2.378v.103zm6.305-9.612c2.068 0 3.205-1.757 3.205-3.204 0-1.447-1.137-3.204-3.205-3.204h-3.927v6.408h3.927zm7.236 9.612v-18.19h2.377v18.19h-2.377zm4.34-3.72c0-2.791 2.585-4.342 5.479-4.342 1.653 0 2.894.517 3.41.724v-.31c0-1.86-1.55-2.998-3.204-2.998-1.343 0-2.584.62-2.997 1.757l-2.17-.93c.413-1.137 1.963-2.997 5.064-2.997 3.1 0 5.581 1.86 5.581 5.375v7.545h-2.273v-1.757h-.104c-.723 1.033-1.964 2.17-4.134 2.17-2.48-.103-4.651-1.654-4.651-4.238zm8.89-1.654s-1.034-.827-2.998-.827c-2.48 0-3.41 1.344-3.41 2.48 0 1.344 1.343 1.964 2.583 1.964 1.86 0 3.825-1.55 3.825-3.617zm5.58 1.653v-6.511h-2.17v-2.17h2.17v-3.825h2.378v3.824h3.101v2.17h-3.1v6.41c0 1.446.62 2.066 1.653 2.066.413 0 .723 0 1.034-.206l.826 1.963c-.516.207-1.137.31-1.86.31-2.584-.103-4.031-1.55-4.031-4.03zm15.195-14.263l-.827 1.964c-.31-.104-.62-.207-1.034-.207-1.137 0-2.067.723-2.067 2.17v1.55h3.204v2.171h-3.204v10.336h-2.377V124.09h-2.274v-2.17h2.377v-1.55c0-2.584 1.757-4.238 4.445-4.238.723 0 1.24.103 1.757.31zm12.816 11.783c0 3.824-2.687 6.615-6.408 6.615-3.72 0-6.408-2.894-6.408-6.615 0-3.824 2.687-6.615 6.408-6.615 3.721 0 6.408 2.79 6.408 6.615zm-2.377 0c0-2.894-1.964-4.548-4.031-4.548-2.067 0-4.031 1.654-4.031 4.548s1.964 4.548 4.031 4.548c2.067-.104 4.031-1.757 4.031-4.548zm4.238 6.201v-12.403h2.274v2.067h.103c.517-1.447 2.274-2.377 3.618-2.377.723 0 1.24.104 1.757.31l-.93 2.17a3.855 3.855 0 0 0-1.24-.206c-1.655 0-3.205 1.344-3.205 3.618v6.821h-2.377zm8.992-12.403h2.274v1.757h.103c.724-1.24 2.378-2.17 3.825-2.17 1.963 0 3.307.93 3.927 2.377.93-1.447 2.378-2.377 4.341-2.377 3.101 0 4.445 2.17 4.445 5.271v7.649h-2.377v-7.235c0-2.584-1.034-3.411-2.791-3.411-1.86 0-3.204 1.964-3.204 3.824v6.925h-2.378v-7.235c0-2.584-1.033-3.41-2.79-3.41-1.86 0-3.204 1.963-3.204 3.823v6.925h-2.378v-12.713h.207z" fill="#FFF" fill-rule="nonzero"/><g fill="#FFF" fill-rule="nonzero"><path d="M45.54 124.694c0-5.762 4.827-10.43 10.588-10.43 3.179 0 5.443 1.252 7.152 2.88l-2.027 2.007c-1.211-1.152-2.86-2.046-5.125-2.046-4.192 0-7.47 3.377-7.47 7.569 0 4.191 3.278 7.568 7.47 7.568 2.722 0 4.271-1.092 5.265-2.085.814-.815 1.35-1.987 1.55-3.576h-6.815v-2.841h9.595c.1.516.16 1.112.16 1.788 0 2.145-.577 4.787-2.464 6.655-1.848 1.907-4.192 2.92-7.29 2.92-5.762 0-10.59-4.668-10.59-10.41zm28.07-3c-3.715 0-6.735 2.82-6.735 6.714 0 3.874 3.02 6.715 6.735 6.715 3.715 0 6.734-2.84 6.734-6.715 0-3.893-3.02-6.714-6.734-6.714zm0 10.767c-2.026 0-3.794-1.669-3.794-4.072 0-2.424 1.748-4.073 3.794-4.073 2.026 0 3.794 1.649 3.794 4.073 0 2.403-1.768 4.072-3.794 4.072zm14.7-10.767c-3.714 0-6.734 2.82-6.734 6.714 0 3.874 3.02 6.715 6.735 6.715 3.714 0 6.734-2.84 6.734-6.715 0-3.893-3.02-6.714-6.734-6.714zm0 10.767c-2.026 0-3.794-1.669-3.794-4.072 0-2.424 1.748-4.073 3.795-4.073 2.046 0 3.794 1.649 3.794 4.073 0 2.403-1.768 4.072-3.794 4.072zm18.039-10.37v1.093h-.1c-.655-.795-1.927-1.51-3.536-1.51-3.357 0-6.436 2.94-6.436 6.734 0 3.755 3.079 6.695 6.436 6.695 1.61 0 2.88-.715 3.536-1.53h.1v.974c0 2.563-1.371 3.933-3.576 3.933-1.808 0-2.92-1.291-3.377-2.384l-2.563 1.073c.735 1.788 2.702 3.973 5.96 3.973 3.456 0 6.376-2.026 6.376-6.992V122.09h-2.82zm-3.378 10.37c-2.026 0-3.734-1.708-3.734-4.053 0-2.364 1.708-4.092 3.734-4.092 2.007 0 3.576 1.728 3.576 4.092.02 2.364-1.57 4.053-3.576 4.053zM114.63 133.907h-2.94v-19.726h2.94zM122.48 132.279c-1.51 0-2.564-.696-3.259-2.027l8.98-3.714-.299-.755c-.556-1.51-2.264-4.271-5.74-4.271-3.457 0-6.338 2.721-6.338 6.714 0 3.755 2.84 6.715 6.655 6.715 3.08 0 4.847-1.888 5.602-2.98l-2.284-1.53c-.775 1.113-1.808 1.848-3.318 1.848zm-.22-8.185c1.173 0 2.166.576 2.484 1.43l-6 2.484c-.08-2.583 2.007-3.914 3.517-3.914z"/></g></g></g></svg>