<svg width="227" height="150" xmlns="http://www.w3.org/2000/svg" preserveAspectRatio="xMinYMid" viewBox="0 0 293 194" version="1"><path d="M291.287 55.059c-13.78-67.175-143.762-71.429-227.55-20.25v5.651C147.416-2.732 266.15-2.456 276.954 59.422c3.64 20.499-7.826 41.818-28.386 54.086v16.053c24.75-9.081 50.05-38.473 42.72-74.502M138.927 172.67c-57.824 5.351-118.074-3.073-126.509-48.434-4.188-22.337 6.009-46.044 19.46-60.753v-7.876C7.623 76.958-5.552 103.96 2.056 135.844c9.7 40.916 61.406 64.075 140.343 56.364 31.255-3.017 72.157-13.116 100.543-28.782v-22.258c-25.797 15.449-68.463 28.212-104.016 31.503z" fill="#127cc1"/><path d="M238.311 45.348h-15.158v67.812c0 7.964 3.805 14.891 15.158 15.99M57.73 70.13H42.57v44.292c0 7.967 3.805 14.892 15.16 15.99M42.571 47.408H57.73v14.426H42.571zM148.571 129.699c-12.29 0-17.472-8.574-17.472-17.036V53.838h14.993V70.13h11.354v12.2h-11.354v29.426c0 3.461 1.654 5.36 5.235 5.36h6.12v12.583h-8.876M188.425 81.589c-5.125 0-9.093 2.664-10.747 6.264-.992 2.17-1.323 3.82-1.487 6.486h23.207c-.332-6.513-3.255-12.75-10.973-12.75m-12.234 23.025c0 7.721 4.848 13.406 13.337 13.406 6.672 0 9.979-1.868 13.837-5.684l9.261 8.929c-5.953 5.878-12.182 9.45-23.206 9.45-14.386 0-28.168-7.885-28.168-30.856 0-19.644 12.016-30.744 27.837-30.744 16.04 0 25.245 12.996 25.245 30.059v5.44H176.19M98.576 82.33c4.41 0 6.229 2.17 6.229 5.715v41.736h15.049V87.99c0-8.491-4.52-17.861-17.694-17.861H71.125v59.65H86.12V82.33" fill="#127cc1"/><text style="text-align:start;line-height:125%" x="244.261" y="55.858" transform="scale(1.0108 .98932)" font-size="14.035" font-weight="400" fill="#127cc1" font-family="Arial"><tspan x="244.261" y="55.858">®</tspan></text></svg>