<svg version="1" xmlns="http://www.w3.org/2000/svg" width="156.405" height="43.221" overflow="visible"><path fill="#1514A0" d="M156.155 34.658v6.403c-4.229 1.159-8.926 1.847-14.251 1.909h-1.421c-8.101-.051-15.716-.524-21.756-2.6-4.331-1.492-7.807-3.801-10.088-7.312-1.832-2.821-2.814-6.442-2.907-11.023-.044-2.335.188-4.459.626-6.338.548-2.365 1.444-4.366 2.633-6.061 1.197-1.712 2.707-3.101 4.443-4.262a21.357 21.357 0 0 1 2.222-1.266c.771-.387 1.597-.715 2.448-1.033C124.022.862 131.623.341 139.643.248h2.711c4.815.092 9.113.7 13.021 1.695v5.575c.003.012 0 .018-.009.021-1.68-.384-3.512-.557-5.399-.721-.938-.083-1.897-.137-2.865-.197-2.851-.173-6.02-.217-8.891-.039-3.817.238-7.231.932-9.766 2.466-1.274.771-2.341 1.716-3.208 2.907-.852 1.173-1.474 2.588-1.879 4.229-.202.81-.343 1.688-.44 2.621-.194 1.843-.155 4.023.106 5.772.402 2.665 1.264 4.807 2.681 6.489.706.84 1.504 1.546 2.448 2.145 2.782 1.77 6.66 2.49 11.053 2.692 1.951.09 3.991.077 5.975 0a99.644 99.644 0 0 0 5.712-.399c1.861-.182 3.664-.372 5.262-.846zM103.416 35.213v6.18c0 .012-.003.018-.013.021-9.408.015-18.956.009-28.413.009-.438 0-.867-.029-1.295-.047a54.773 54.773 0 0 1-7.244-.811c-1.513-.277-2.945-.635-4.229-1.141-.655-.259-1.257-.539-1.775-.917-.519-.376-.926-.85-1.326-1.364-1.158-1.504-2.001-3.378-2.213-5.847-.068-.822-.026-1.71-.026-2.612 0-8.949-.009-17.896-.012-26.855 0-.012 0-.027.012-.03h45.333c.128 0 .271-.018.351 0 .03.009.042-.009.057 0 .021.012.013.077.013.119-.003 1.996.009 4.172-.013 6.1H73.159v9.31c9.03.021 18.099.003 27.147.009 0 1.918-.003 4.107 0 6.025 0 .047.006.107 0 .155-.003.018.015.048-.03.039H74.037c-.283 0-.575-.027-.84 0-.012 0-.042-.015-.039.021v5.361c0 .217-.021.426-.021.631 0 .632.078 1.228.197 1.767.235 1.045.664 1.956 1.257 2.65.11.128.199.232.331.321.128.084.265.155.429.224.593.253 1.332.414 2.088.527.372.057.769.131 1.167.137 1.277.019 2.603 0 3.91 0h20.878c.019-.004.019.005.022.018zM8.015 12.908c.003-.003.003-.006.003-.006s-.003.003-.003.006zm.062.066c-.006-.003-.021-.018-.048-.042a.07.07 0 0 1-.015-.021c0 .006-.003.012-.006.021-.012.027 0 .086 0 .116v28.336c-.003.054-.039.026-.06.029-.149.015-.315 0-.476 0H.249V1.799h9.075c.733 0 1.427.068 2.115.128 1.709.149 3.342.405 4.873.742.325.071.646.125.878.253.227.123.447.292.665.459.208.161.42.336.613.506 1.209 1.045 2.302 2.225 3.41 3.333.375.373.739.766 1.093 1.15.36.393.735.771 1.09 1.161.715.784 1.43 1.561 2.145 2.347 1.427 1.566 2.826 3.166 4.232 4.756 4.214 4.78 8.345 9.632 12.456 14.504.024.045.018.003.021-.018.018-.131 0-.298 0-.449V1.799h7.758v39.233c0 .113.018.235 0 .313-.018.068.015.065-.039.068h-2.38c-.739 0-1.486.024-2.222 0-1.111-.038-2.234.054-3.285-.038-3.077-.274-6.097-.593-8.87-1.123a8.04 8.04 0 0 1-.896-.206c-.268-.08-.5-.244-.711-.398a13.599 13.599 0 0 1-1.209-1.013c-1.552-1.433-2.987-2.949-4.414-4.456-1.445-1.519-2.838-3.085-4.241-4.637a424.055 424.055 0 0 1-6.228-7.089c-1.367-1.578-2.731-3.145-4.104-4.765-1.161-1.37-2.406-2.809-3.568-4.202-.125-.146-.292-.36-.426-.509 0-.003 0-.003-.003-.003zm-.009-.013c-.006-.008-.012-.014 0 0z"/><path fill="#242424" d="M8.077 12.974c.003 0 .003 0 .003.003l-.003-.003z"/></svg>