<svg xmlns:rdf="http://www.w3.org/1999/02/22-rdf-syntax-ns#" xmlns="http://www.w3.org/2000/svg" height="20" width="165" xmlns:cc="http://creativecommons.org/ns#" xmlns:dc="http://purl.org/dc/elements/1.1/"><svg fill="#29A5DE" viewBox="0 0 165 20"><path d="M18 19h-2V7.1c0-.9 0-2.1.1-3.4-.2.8-.4 1.4-.5 1.7L9.5 19h-1l-6-13.5c-.2-.4-.3-1-.5-1.8V19H0V1.3h2.7l5.4 12.3c.4.9.7 1.7.8 2.1H9c.4-1 .6-1.7.9-2.2l5.5-12.3H18V19zM22.8 3.1c-.4 0-.7-.1-.9-.4s-.4-.6-.4-.9.1-.7.4-.9c.3-.3.6-.4.9-.4.4 0 .7.1.9.4.3.3.4.6.4.9 0 .4-.1.7-.4.9-.2.3-.5.4-.9.4zm1 15.9h-2V6.3h2V19zM35.8 18.4c-1 .6-2.1.9-3.5.9-1.8 0-3.3-.6-4.4-1.8s-1.7-2.7-1.7-4.6c0-2.1.6-3.7 1.8-5C29.4 6.7 30.9 6 32.9 6c1.1 0 2.1.2 3 .7v2.1c-.9-.7-1.9-1-3-1-1.3 0-2.3.5-3.2 1.4-.8.9-1.2 2.1-1.2 3.6s.4 2.6 1.2 3.5 1.8 1.3 3.1 1.3c1.1 0 2.1-.4 3.1-1.1v1.9zM44.9 8.4c-.4-.3-.9-.4-1.6-.4-.9 0-1.6.4-2.2 1.2s-.9 1.9-.9 3.3V19h-2V6.3h2v2.6c.3-.9.7-1.6 1.3-2.1s1.3-.7 2-.7c.5 0 .9.1 1.2.2v2.1zM51.4 19.3c-1.9 0-3.4-.6-4.5-1.8s-1.7-2.7-1.7-4.7c0-2.1.6-3.8 1.7-5S49.7 6 51.7 6c1.9 0 3.4.6 4.4 1.7 1.1 1.2 1.6 2.8 1.6 4.8s-.6 3.6-1.7 4.8c-1.2 1.3-2.7 2-4.6 2zm.1-11.6c-1.3 0-2.3.4-3.1 1.3s-1.1 2.1-1.1 3.7c0 1.5.4 2.7 1.1 3.5.8.9 1.8 1.3 3.1 1.3s2.3-.4 3-1.3c.7-.8 1.1-2 1.1-3.6s-.4-2.8-1.1-3.6-1.7-1.3-3-1.3zM59.5 18.5v-2.2c1.1.8 2.3 1.2 3.6 1.2 1.8 0 2.7-.6 2.7-1.8 0-.3-.1-.6-.2-.9l-.6-.6c-.3-.2-.6-.3-.9-.5-.3-.1-.7-.3-1.1-.4-.6-.2-1-.4-1.5-.7-.4-.2-.8-.5-1.1-.8s-.5-.6-.6-1-.2-.8-.2-1.3c0-.6.1-1.1.4-1.6.2-.2.5-.6 1-.9s1-.5 1.5-.7c.6-.2 1.2-.3 1.8-.3 1.1 0 2.1.2 2.9.6v2c-.9-.6-2-.9-3.2-.9-.4 0-.7 0-1 .1s-.6.2-.8.4-.4.3-.5.6c-.1.2-.2.5-.2.7 0 .3.1.6.2.8s.3.4.5.6.5.3.8.5c.3.1.7.3 1.1.5.6.2 1.1.4 1.5.7.4.2.8.5 1.1.8s.6.6.7 1c.2.4.3.8.3 1.3 0 .6-.1 1.2-.4 1.6-.3.5-.6.8-1.1 1.1s-1 .5-1.6.7c-.6.1-1.2.2-1.9.2-1.1 0-2.3-.3-3.2-.8zM75.6 19.3c-1.9 0-3.4-.6-4.5-1.8s-1.7-2.7-1.7-4.7c0-2.1.6-3.8 1.7-5C72.4 6.6 73.9 6 75.9 6c1.9 0 3.4.6 4.4 1.7 1.1 1.2 1.6 2.8 1.6 4.8s-.6 3.6-1.7 4.8c-1.2 1.3-2.7 2-4.6 2zm.1-11.6c-1.3 0-2.3.4-3.1 1.3s-1.1 2.1-1.1 3.7c0 1.5.4 2.7 1.1 3.5.8.9 1.8 1.3 3.1 1.3s2.3-.4 3-1.3c.7-.8 1.1-2 1.1-3.6s-.4-2.8-1.1-3.6c-.6-.8-1.7-1.3-3-1.3zM97.6 8.1V6.3h-3.2V2.6l-2 .7v3.1h-5.5v-2c0-1.8.7-2.7 2.1-2.7.5 0 .9.1 1.3.3V.2c-.4-.1-.9-.2-1.5-.2-1.1 0-2.1.4-2.9 1.2S84.8 3 84.8 4.3v2h-2.2V8h2.2v11h2V8.1h5.5v7.5c0 2.5 1.1 3.7 3.3 3.7.8 0 1.4-.1 1.9-.4v-1.7c-.4.3-.8.4-1.3.4-.7 0-1.1-.2-1.4-.5-.3-.4-.4-1-.4-1.8V8.1h3.2zM119.9 19h-2.3l-1.9-5h-7.5l-1.8 5h-2.3L111 1.3h2.1l6.8 17.7zm-4.8-6.9l-2.8-7.5c-.1-.2-.2-.6-.3-1.2-.1.5-.2.9-.3 1.2l-2.7 7.5h6.1zM130.4 6.9l-7.5 10.3h7.4V19H120v-.6l7.5-10.3h-6.8V6.3h9.7v.6zM142.6 19h-2v-2c-.8 1.5-2.1 2.3-3.9 2.3-3 0-4.5-1.8-4.5-5.4V6.3h2v7.2c0 2.7 1 4 3.1 4 1 0 1.8-.4 2.4-1.1s1-1.7 1-2.9V6.3h2V19zM152.6 8.4c-.4-.3-.9-.4-1.5-.4-.9 0-1.6.4-2.2 1.2s-.9 1.9-.9 3.3V19h-2V6.3h2v2.6c.3-.9.7-1.6 1.3-2.1s1.3-.7 2-.7c.5 0 .9.1 1.2.2v2.1zM164 13.1h-8.9c0 1.4.4 2.5 1.1 3.3s1.7 1.1 3 1.1c1.4 0 2.7-.5 3.9-1.4V18c-1.1.8-2.6 1.2-4.4 1.2s-3.2-.6-4.2-1.7-1.5-2.8-1.5-4.8.6-3.6 1.7-4.8 2.5-1.9 4.1-1.9 2.9.5 3.8 1.6 1.4 2.6 1.4 4.4v1.1zm-2.1-1.7c0-1.2-.3-2.1-.8-2.7-.6-.6-1.3-1-2.3-1s-1.8.3-2.4 1c-.7.7-1.1 1.6-1.2 2.7h6.7z"/></svg></svg>