<svg xmlns="http://www.w3.org/2000/svg" width="240" height="240"><g fill="#0083ca"><path d="M116.28.36h7.44c36.188 2.041 61.99 15.782 81.12 35.04s33.27 44.658 35.16 81v7.2c-1.837 36.923-16.228 61.292-35.16 81.12-19.887 18.834-44.336 33.104-81.24 34.92h-7.32c-36.184-2.045-61.991-15.781-81.12-35.04-19.129-19.258-33.27-44.658-35.16-81v-7.2c.094-.026.14-.1.12-.24 1.809-36.203 16.027-61.867 35.04-80.88C54.261 16.179 80.33 2.339 116.28.36zM92.76 17.52c-7.13 1.909-13.524 4.334-19.32 7.2-17.641 8.723-32.188 21.203-42.36 37.2-9.929 15.615-18.524 35.701-17.28 62.04.785 16.605 4.574 30.573 10.56 42.48 11.82 23.51 29.816 40.832 54.72 51.361 12.315 5.206 27.576 8.858 44.76 8.04 16.484-.785 30.766-4.49 42.6-10.44 23.193-11.661 41.471-29.654 51.601-54.48 5.123-12.558 8.997-27.065 8.16-44.64-1.585-33.292-15.128-55.866-33-73.08-8.843-8.518-19.492-15.763-32.04-21-12.175-5.081-28.025-8.848-45.001-8.04-8.344.396-16.216 1.435-23.4 3.359z"/><path d="M108.96 88.92c3.802 2.518 7.691 4.949 11.28 7.68-8.108 5.091-16.057 10.343-24.12 15.48 1.224.936 2.616 1.704 3.84 2.64 8.13-5.15 16.262-10.298 24.36-15.48 3.632 2.248 7.208 4.552 10.56 7.08-8.115 5.126-15.958 10.522-24 15.72 1.192.969 2.652 1.668 3.96 2.52 8.312-5.087 16.418-10.382 24.6-15.6V91.919h18v33.96c5.079.28 10.68.04 15.96.12v15.96h-33.96v-16.2c-9.978 6.062-20.203 12.917-30.24 19.32-10.452-6.787-20.526-13.955-30.96-20.76-3.022 9.58-10.201 16.789-22.08 17.64-7.409.53-15.827-.395-24.36 0v-50.04c10.669.707 22.382-1.427 30.84 1.2 7.478 2.323 12.78 8.289 15.24 15.72 10.442-6.557 20.716-13.282 31.08-19.919zm-60 19.08v18c4.288.021 7.549.27 10.08-1.68 3.765-2.901 4.524-10.09 1.2-13.921-2.218-2.556-5.963-3.093-11.16-2.76-.14.021-.131.191-.12.361zM178.081 91.92h18V126h15.84v15.96h-33.96V92.28c-.011-.17-.021-.34.12-.36z"/></g></svg>