<svg width="300" height="67" xmlns="http://www.w3.org/2000/svg" preserveAspectRatio="xMinYMid" viewBox="0 0 285 64"><g fill-rule="evenodd" fill="none"><circle cy="17.017" cx="267.36" r="16.966" fill="#DD4814"/><path fill="#fff" d="M256.78 14.978c-1.12 0-2.03.912-2.03 2.039a2.036 2.036 0 1 0 4.07 0c0-1.127-.91-2.039-2.04-2.039zm14.56 9.266a2.031 2.031 0 0 0-.75 2.779 2.043 2.043 0 0 0 2.79.748c.97-.562 1.3-1.809.74-2.783a2.031 2.031 0 0 0-2.78-.744zm-10.13-7.227c0-2.016 1-3.797 2.53-4.873l-1.49-2.498a8.876 8.876 0 0 0-3.66 5.148 2.835 2.835 0 0 1 1.05 2.223c0 .893-.4 1.691-1.05 2.219a8.875 8.875 0 0 0 3.66 5.146l1.49-2.496a5.94 5.94 0 0 1-2.53-4.869zm5.95-5.957c3.12 0 5.67 2.385 5.94 5.43l2.9-.047a8.799 8.799 0 0 0-2.63-5.742c-.78.291-1.67.25-2.45-.199a2.849 2.849 0 0 1-1.39-2.02 8.927 8.927 0 0 0-2.37-.322c-1.4 0-2.74.332-3.92.918l1.42 2.537a5.888 5.888 0 0 1 2.5-.555zm0 11.908c-.89 0-1.74-.197-2.5-.553l-1.42 2.537a8.79 8.79 0 0 0 3.92.916c.82 0 1.62-.111 2.37-.32a2.857 2.857 0 0 1 3.84-2.216 8.809 8.809 0 0 0 2.63-5.746l-2.9-.041a5.957 5.957 0 0 1-5.94 5.423zm4.18-13.179c.97.561 2.22.229 2.78-.748a2.04 2.04 0 0 0-.74-2.781 2.044 2.044 0 0 0-2.79.746c-.56.974-.23 2.22.75 2.783z"/><g fill="#333"><path d="M34.798 61.53c-1.725.432-3.999.889-6.826 1.374-2.83.483-6.102.726-9.817.726-3.23 0-5.952-.472-8.159-1.413-2.209-.941-3.986-2.274-5.332-3.998-1.348-1.724-2.316-3.757-2.908-6.101-.594-2.341-.889-4.939-.889-7.795V20.734H8.38v21.973c0 5.117.808 8.779 2.424 10.986 1.616 2.211 4.334 3.314 8.159 3.314.809 0 1.642-.029 2.505-.083a55.36 55.36 0 0 0 2.425-.202 92.775 92.775 0 0 0 2.059-.242c.619-.08 1.064-.173 1.334-.283V20.734H34.8V61.53h-.002zM53.134 22.591c.915-.592 2.304-1.211 4.161-1.857s3.999-.969 6.422-.969c3.016 0 5.696.539 8.039 1.615 2.342 1.078 4.322 2.584 5.938 4.523 1.614 1.939 2.839 4.256 3.675 6.947.834 2.695 1.253 5.656 1.253 8.888 0 3.392-.5 6.45-1.494 9.168-.999 2.72-2.412 5.021-4.242 6.907-1.832 1.885-4.039 3.34-6.625 4.362-2.584 1.023-5.493 1.535-8.725 1.535-3.502 0-6.598-.244-9.289-.728-2.693-.485-4.902-.97-6.625-1.454V1.347L53.135.054v22.537h-.001zm0 33.606c.755.216 1.818.42 3.192.605 1.373.191 3.082.284 5.129.284 4.039 0 7.271-1.334 9.693-3.999 2.425-2.666 3.637-6.45 3.637-11.349 0-2.153-.216-4.173-.646-6.062-.432-1.883-1.132-3.514-2.102-4.885-.969-1.375-2.222-2.451-3.756-3.232s-3.38-1.172-5.533-1.172c-2.049 0-3.932.352-5.654 1.051-1.727.701-3.045 1.428-3.96 2.182v26.577zM124.55 61.53c-1.73.432-4 .889-6.83 1.374-2.83.483-6.1.726-9.82.726-3.23 0-5.95-.472-8.154-1.413-2.209-.941-3.986-2.274-5.331-3.998-1.348-1.724-2.315-3.757-2.909-6.101-.593-2.341-.889-4.939-.889-7.795V20.734h7.512v21.973c0 5.117.809 8.779 2.421 10.986 1.62 2.211 4.34 3.314 8.16 3.314.81 0 1.65-.029 2.51-.083.86-.053 1.66-.122 2.42-.202.76-.081 1.44-.161 2.06-.242.62-.08 1.06-.173 1.33-.283V20.734h7.52V61.53zM135.37 21.947c1.72-.432 4.01-.889 6.87-1.375 2.85-.484 6.14-.727 9.85-.727 3.34 0 6.11.473 8.32 1.414 2.21.943 3.97 2.262 5.29 3.959 1.32 1.695 2.25 3.729 2.79 6.098.54 2.373.81 4.984.81 7.837v23.588h-7.52V40.768c0-2.584-.17-4.791-.52-6.624s-.93-3.313-1.74-4.442c-.8-1.133-1.88-1.953-3.23-2.465-1.34-.514-3.02-.768-5.01-.768-.81 0-1.64.027-2.5.08-.86.055-1.68.121-2.46.203-.79.08-1.48.176-2.1.281-.62.109-1.07.189-1.34.242v35.464h-7.51V21.947zM186.66 20.734h15.92v6.301h-15.92v19.388c0 2.1.17 3.84.49 5.212s.81 2.451 1.45 3.229a5.264 5.264 0 0 0 2.43 1.656c.97.324 2.1.487 3.39.487 2.31 0 4.15-.258 5.49-.771 1.35-.511 2.27-.874 2.75-1.09l1.62 6.141c-.76.378-2.09.863-4 1.453-1.92.593-4.08.889-6.51.889-2.85 0-5.21-.362-7.07-1.089-1.85-.729-3.35-1.817-4.48-3.273-1.13-1.453-1.92-3.243-2.38-5.372-.46-2.126-.69-4.59-.69-7.391V9.021l7.51-1.293v13.006zM243.46 61.53c-1.73.432-4 .889-6.83 1.374-2.83.483-6.1.726-9.81.726-3.24 0-5.96-.472-8.17-1.413s-3.98-2.274-5.33-3.998c-1.34-1.724-2.31-3.757-2.91-6.101-.59-2.341-.89-4.939-.89-7.795V20.734h7.52v21.973c0 5.117.81 8.779 2.42 10.986 1.62 2.211 4.34 3.314 8.16 3.314.81 0 1.64-.029 2.51-.083.86-.053 1.66-.122 2.42-.202.75-.081 1.44-.161 2.06-.242.62-.08 1.06-.173 1.33-.283V20.734h7.52V61.53z"/></g></g></svg>