<svg width="300" height="68" xmlns="http://www.w3.org/2000/svg" preserveAspectRatio="xMinYMid" viewBox="0 0 400 90"><g clip-rule="evenodd" fill-rule="evenodd"><path fill="#A2A2A2" d="M0 41.248h17.752v17.754H0V41.248zM53.245 41.248h17.752v17.754H53.245V41.248zM106.49 41.248h17.75v17.754h-17.75V41.248z"/><path d="M149.22 69.778c0 11.794 2.03 13.695 14.708 13.824v4.945h-43.111v-4.945c12.681-.128 14.708-2.03 14.708-13.824V4.983c-14.581.255-23.078 9.892-24.345 27.515l-4.692-.758.89-30.94h69.994l.887 30.94-4.692.758c-1.267-17.623-9.889-27.26-24.345-27.515v64.795z" fill="#DD007E"/><path fill="#A2A2A2" d="M160.37 41.248h17.75v17.754h-17.75V41.248zM213.14 8.006c0-2.818-.164-3.847-.814-4.498-.486-.488-1.623-.812-2.87-.812h-.704V.962h12.838c5.959 0 10.129 1.735 13.327 5.581 2.762 3.304 4.228 7.53 4.228 12.405 0 5.582-1.847 10.402-5.259 13.708-3.032 3.032-7.041 4.44-12.296 4.44h-12.85v-1.731h.704c1.247 0 2.384-.327 2.87-.812.65-.655.814-1.682.814-4.498V8.006h.01zm4.98 22.264c0 4.116.651 4.879 4.44 4.879 7.802 0 10.784-4.444 10.784-16.201 0-11.43-3.09-16.089-10.673-16.089-2.008 0-3.25.379-3.901 1.083-.543.65-.651 1.301-.651 3.576V30.27zM247.75 24.472c.05 7.91 1.896 11.273 6.17 11.273 2.928 0 4.824-1.574 6.718-5.583l1.628.866c-2.328 4.717-5.148 6.829-9.207 6.829-6.287 0-10.349-5.201-10.349-13.385 0-7.582 4.116-13.053 9.802-13.053 5.906 0 9.807 5.036 10.08 13.053h-14.84zm9.8-1.897c.055-5.794-1.735-9.262-4.766-9.262-3.032 0-4.928 3.576-4.986 9.262h9.76zM283.22 31.517c-1.838 4.228-4.332 6.121-7.852 6.121-2.385 0-4.224-.919-5.255-2.655-1.031-1.731-1.355-3.412-1.355-7.475V18.19c0-3.576-.488-4.334-2.762-4.334h-.596v-1.679l7.91-.379v17.118c0 2.332.162 3.413.651 4.444.43 1.085 1.515 1.79 2.708 1.79 1.838 0 3.574-1.193 4.713-3.364 1.027-1.838 1.408-3.788 1.408-6.878V18.19c0-3.576-.489-4.334-2.762-4.334h-.816v-1.679l8.129-.379v19.23c0 3.574.485 4.389 2.764 4.389h.595v1.678l-7.479.381v-5.959zM300.56 29.024c0 2.224.108 3.196.381 4.228.378 1.301 1.408 2.112 2.651 2.112 2.058 0 3.304-2.22 3.304-6.072v-.754h1.789v1.027c0 5.31-2.17 8.072-6.448 8.072-2.058 0-3.739-.65-4.713-1.843-1.189-1.408-1.516-2.978-1.516-6.77V14.02h-3.901v-1.518c4.713-1.137 6.283-3.305 6.936-9.697h1.516v9.372h7.314v1.843h-7.314v15.004zM326.4 20.033h-1.628c-.919-4.605-2.978-6.827-6.34-6.827-2.327 0-4.058 1.626-4.058 3.791 0 2.058 1.081 3.036 4.498 4.12 3.462 1.135 4.928 1.785 6.121 2.709 1.947 1.516 2.87 3.412 2.87 5.847 0 4.659-3.358 7.964-8.128 7.964-2.163 0-3.413-.435-6.064-2.004-.273-.161-.488-.216-.596-.216-.381 0-.704.377-.92 1.081l-.166.597h-1.516v-9.153h1.516c.704 2.542 1.247 3.901 2.112 5.036 1.354 1.843 3.412 2.924 5.633 2.924 2.493 0 4.336-1.893 4.336-4.385 0-1.57-.813-2.978-2.22-3.848-1.193-.757-1.247-.757-4.766-1.95-4.336-1.408-6.341-3.735-6.341-7.259 0-4.007 2.978-6.825 7.314-6.825 1.735 0 3.573.543 5.093 1.462.324.164.593.273.812.273.327 0 .651-.435.812-1.193h1.628v7.856h.02zM350.18 30.759c-1.95 4.875-4.713 7.098-8.884 7.098-6.228 0-10.511-5.416-10.511-13.327 0-7.695 4.552-13.111 11.05-13.111 4.497 0 8.018 3.088 8.018 6.991 0 2.001-1.301 3.412-3.085 3.412-1.569 0-2.762-1.25-2.762-2.928 0-1.516 1.085-2.762 2.543-2.762.219 0 .327 0 .547.161-.812-1.897-2.601-2.979-4.771-2.979-4.17 0-6.282 3.737-6.282 11.216 0 7.637 2.005 11.264 6.121 11.264 2.708 0 4.767-1.838 6.282-5.739l1.72.704zM369.62 20.952c0-3.139-.161-4.39-.812-5.363-.596-1.082-1.569-1.625-2.708-1.625-1.789 0-3.467 1.193-4.497 3.253-.974 2.004-1.355 4.116-1.355 7.852v5.96c0 3.632.489 4.389 2.762 4.389h.866v1.678h-11.807v-1.678h.866c2.277 0 2.762-.815 2.762-4.389V6.975c0-3.574-.485-4.332-2.762-4.332h-.596V.962l7.909-.379V16.67c1.732-3.518 3.848-5.036 6.991-5.036 2.273 0 4.116.814 5.201 2.329 1.35 1.895 1.731 3.63 1.731 8.343v8.722c0 3.632.489 4.389 2.762 4.389h.596v1.678h-7.91V20.952h.01zM385.16 24.472c.058 7.91 1.896 11.273 6.179 11.273 2.923 0 4.819-1.574 6.717-5.583l1.624.866c-2.328 4.717-5.144 6.829-9.211 6.829-6.282 0-10.345-5.201-10.345-13.385 0-7.582 4.117-13.053 9.807-13.053 5.905 0 9.807 5.036 10.072 13.053h-14.84zm9.8-1.897c.053-5.794-1.731-9.262-4.767-9.262-3.035 0-4.932 3.576-4.981 9.262h9.75zM224.3 81.617c0 2.87.162 3.848.816 4.494.538.489 1.624.812 2.866.812h1.251v1.734h-14.842v-1.734h1.242c1.247 0 2.327-.323 2.874-.812.646-.645.812-1.624.812-4.494V54.26h-1.139c-3.197 0-5.796 1.73-7.043 4.712-.704 1.624-1.03 3.251-1.301 6.176l-1.572-.109.272-12.514h26.709l.215 12.514-1.624.109c-1.03-7.911-3.47-10.888-8.721-10.888h-.816v27.357zM243.03 76.04c.053 7.905 1.896 11.264 6.175 11.264 2.928 0 4.821-1.57 6.717-5.578l1.627.864c-2.331 4.714-5.151 6.827-9.21 6.827-6.285 0-10.349-5.203-10.349-13.377 0-7.588 4.117-13.058 9.803-13.058 5.905 0 9.807 5.036 10.079 13.058h-14.84zm9.81-1.898c.05-5.797-1.739-9.268-4.771-9.268s-4.929 3.577-4.982 9.268h9.75zM268.7 82.59c0 3.63.488 4.39 2.762 4.39h.87v1.677H260.52V86.98h.866c2.273 0 2.762-.761 2.762-4.39V58.539c0-3.574-.489-4.331-2.762-4.331h-.593v-1.682l7.907-.381V82.59h-.01zM279.91 76.04c.053 7.905 1.896 11.264 6.175 11.264 2.927 0 4.824-1.57 6.721-5.578l1.624.864c-2.328 4.714-5.148 6.827-9.21 6.827-6.287 0-10.345-5.203-10.345-13.377 0-7.588 4.116-13.058 9.802-13.058 5.906 0 9.807 5.036 10.076 13.058h-14.83zm9.81-1.898c.053-5.797-1.735-9.268-4.771-9.268-3.032 0-4.928 3.577-4.982 9.268h9.75zM315.55 88.657l-7.798-12.568-2.167 1.897v4.604c0 3.63.485 4.39 2.759 4.39h1.032v1.677h-11.973V86.98h.87c2.274 0 2.758-.811 2.758-4.39V58.539c0-3.574-.484-4.331-2.758-4.331h-.596v-1.682l7.909-.381v23.241l7.314-6.282c.973-.865 1.57-1.788 1.57-2.493 0-.813-.704-1.193-2.332-1.193h-.811V63.74H322v1.677h-.542c-1.57 0-2.273.381-4.498 2.386l-5.955 5.309 6.551 10.457c1.628 2.601 2.658 3.412 4.39 3.412h.431v1.677h-6.82v-.001zM346.64 76.198c0 7.909-4.391 13.219-11 13.219-6.555 0-10.941-5.31-10.941-13.162 0-8.075 4.386-13.273 11.103-13.273 6.45 0 10.84 5.363 10.84 13.216zm-15.44-8.235c-.866 1.951-1.247 4.499-1.247 8.127 0 7.802 1.843 11.595 5.69 11.595 3.843 0 5.739-3.793 5.739-11.487 0-3.736-.377-6.338-1.242-8.235-.924-2.057-2.601-3.25-4.551-3.25-1.79-.001-3.52 1.301-4.39 3.25zM378.76 73.438c0-3.469-.22-5.258-.704-6.232-.597-1.081-1.57-1.677-2.762-1.677-1.516 0-2.875.973-3.794 2.708-.919 1.731-1.139 3.085-1.139 7.584v6.769c0 3.63.489 4.39 2.762 4.39h.762v1.677h-8.075V74.251c0-4.605-.108-5.69-.758-6.936-.592-1.14-1.57-1.786-2.817-1.786-1.519 0-2.87.973-3.739 2.708-.865 1.785-1.081 3.355-1.081 7.584v6.769c0 3.686.435 4.39 2.762 4.39h.758v1.677h-11.699V86.98h.865c2.22 0 2.762-.869 2.762-4.39V69.754c0-3.467-.542-4.337-2.762-4.337h-.596V63.74l7.582-.381v4.444c1.031-2.763 3.579-4.605 6.341-4.605 3.035 0 4.982 1.515 6.34 4.932 1.565-3.362 3.736-4.932 6.717-4.932 2.328 0 4.386 1.081 5.467 2.87 1.031 1.573 1.358 3.362 1.358 6.775v9.748c0 3.579.489 4.39 2.762 4.39h.592v1.677h-7.906v-15.22h.01z"/></g></svg>