<svg width="268" height="150" xmlns="http://www.w3.org/2000/svg" xmlns:xlink="http://www.w3.org/1999/xlink" preserveAspectRatio="xMinYMid" viewBox="0 0 400 224"><path d="M190.295 203.816H170.19l8.927-50.714h20.154m-71.257 29.908h-38.41c-1.048 5.995 2.911 9.97 8.225 9.97 3.162 0 6.315-1.452 8.323-4.454h19.258c-5.718 12.582-19.209 16.741-31.04 16.741-16.249 0-27.176-9.289-24.169-26.321 2.904-16.653 17.299-27.297 33.548-27.297 18.749.003 27.828 12.973 24.265 31.361zM91.41 172.75h18.305c.799-4.648-2.612-8.809-7.37-8.809-5.968 0-9.982 3.39-10.935 8.809zm158.255 6.287c3.113-17.61 16.451-27.385 33.547-27.385 17.951 0 27.129 10.546 24.322 26.323-3.258 18.583-17.403 27.295-33.645 27.295-16.298-.002-27.281-8.908-24.224-26.233zm32.346-13.839c-6.87 0-10.177 7.065-11.185 12.775-1.652 9.58 1.153 13.749 6.323 13.749 5.411 0 9.426-4.169 11.129-13.749 1.305-7.454-1.002-13.067-6.267-12.775zm-153.545 38.618l8.975-50.714h18.305l-1.805 10.261h.153c4.21-7.942 9.823-11.713 17.647-11.713.902 0 1.756.195 2.612.293l-3.565 20.124c-1.354-.188-2.702-.576-4.056-.576-8.225 0-13.089 3.869-15.001 14.803l-3.104 17.52h-20.161v.002zm178.867 0l8.927-50.714h18.402l-1.403 7.933c5.613-6.1 11.13-9.385 18.751-9.385 13.393 0 18.305 7.837 15.847 21.772l-5.365 30.394h-20.159l4.766-26.809c.853-5.037.298-9.483-5.419-9.483-6.162 0-8.525 3.967-9.678 10.449l-4.563 25.842h-20.106v.001zm-278.607 0l-8.671-50.714h20.152l3.267 32.032 14.436-32.032h19.361l-26.079 50.714H28.726zm151.544-57.201l2.502-14.352h20.159l-2.555 14.352H180.27z"/><defs><path id="a" d="M54.903 125.224l5.37-1.965 3.51 9.649-14.993 5.482L0 4.408 9.678.928l45.225 124.296"/></defs><clipPath id="b"><use xlink:href="#a" overflow="visible"/></clipPath><linearGradient id="c" gradientUnits="userSpaceOnUse" x1="3793.041" y1="3163.871" x2="3796.242" y2="3163.871" gradientTransform="matrix(-7.0595 -19.3951 2.6758 -.9741 18340.129 76710.164)"><stop offset="0" stop-color="#ed1b34"/><stop offset="1" stop-color="#fff"/></linearGradient><path clip-path="url(#b)" fill="url(#c)" d="M7.461 158.897L-44.184 17.009 56.32-19.58l51.645 141.886z"/><g><defs><path id="d" d="M54.903 125.224L396.492.892 400 10.535 48.79 138.39l-5.015-13.805 9.627-3.522 1.501 4.161"/></defs><clipPath id="e"><use xlink:href="#d" overflow="visible"/></clipPath><linearGradient id="f" gradientUnits="userSpaceOnUse" x1="3519.885" y1="2184.582" x2="3522.731" y2="2184.582" gradientTransform="matrix(49.9357 -18.1751 .9107 2.5024 -177499.234 58563.992)"><stop offset="0" stop-color="#ed1b34"/><stop offset="1" stop-color="#fff"/></linearGradient><path clip-path="url(#e)" fill="url(#f)" d="M-.416 16.974L358.33-113.595l85.859 235.901L85.443 252.884z"/></g><g><defs><path id="g" d="M192.804 223.108l2.305-12.97 32.144-42.328h-25.176l2.661-14.707h48.088l-2.355 12.971-32.299 42.321h143.466l-2.556 14.713H192.804"/></defs><clipPath id="h"><use xlink:href="#g" overflow="visible"/></clipPath><linearGradient id="i" gradientUnits="userSpaceOnUse" x1="3383.595" y1="3719.026" x2="3387.152" y2="3719.026" gradientTransform="matrix(23.3227 4.1124 -2.0414 11.578 -71040.773 -56784.672)"><stop offset="0" stop-color="#ed1b34"/><stop offset="1" stop-color="#fff"/></linearGradient><path clip-path="url(#h)" fill="url(#i)" d="M197.895 124.23l175.712 30.984-17.061 96.766-175.713-30.982z"/></g></svg>