<svg xmlns="http://www.w3.org/2000/svg" width="306" height="274"><path d="M244.03 0H61.98C24.4 27.71 0 72.11 0 122.06 0 205.83 68.65 274 153.01 274 237.37 274 306 205.83 306 122.06 306 72.1 281.61 27.71 244.03 0zM20.63 122.55a18.801 18.801 0 0 1 0-18.96c15.35-26.33 43.88-42.68 74.46-42.68 21.66 0 42.31 8.21 57.95 22.36l-.05.06c15.65-14.16 36.31-22.39 57.99-22.39 10.52 0 19.06 8.48 19.06 18.93 0 10.46-8.54 18.93-19.06 18.93-12.98 0-25.29 5.3-34.2 14.31 8.91 9.01 21.22 14.31 34.2 14.31 10.52 0 19.06 8.48 19.06 18.92 0 10.46-8.54 18.93-19.06 18.93-21.68 0-42.32-8.21-57.96-22.38v.01c-15.66 14.13-36.27 22.33-57.93 22.33-30.59.01-59.11-16.35-74.46-42.68zm217.76 90.3c-7.68 13.16-21.94 21.34-37.23 21.34-10.83 0-21.14-4.1-28.97-11.17l.04-.03c-7.83 7.09-18.17 11.21-29.01 11.21-5.26 0-9.54-4.23-9.54-9.46 0-5.22 4.28-9.46 9.54-9.46 6.48 0 12.64-2.64 17.09-7.16-4.45-4.5-10.61-7.15-17.09-7.15-5.26 0-9.54-4.24-9.54-9.46 0-5.23 4.28-9.47 9.54-9.47 10.86 0 21.21 4.14 29.03 11.24l-.06-.08c7.82-7.07 18.13-11.17 28.97-11.17 15.29 0 29.55 8.17 37.23 21.34 1.7 2.93 1.7 6.55 0 9.48zm-13.52-9.41c0 5.25-4.29 9.5-9.56 9.5-5.29 0-9.57-4.25-9.57-9.5s4.28-9.5 9.57-9.5c5.27 0 9.56 4.25 9.56 9.5zm-138.95-99.7c0 10.49-8.56 19-19.13 19-10.56 0-19.12-8.51-19.12-19s8.56-18.99 19.12-18.99c10.57 0 19.13 8.5 19.13 18.99z" fill="#DD4713"/></svg>