<svg xmlns="http://www.w3.org/2000/svg" width="75" height="100"><path d="M64.29 92.21C56.36 97.27 47.16 100 37.53 100c-9.64 0-18.86-2.74-26.8-7.82a6.255 6.255 0 0 0 1.81-4.39v-12.9H9.38c-1.73 0-3.13-1.4-3.13-3.13s1.4-3.13 3.13-3.13h3.16V56.1h15.63c3.35 0 6.08-2.64 6.24-5.96.01-.11.01-.22.01-.32 0-17.77-9.28-33.39-23.23-42.29C19.02 2.63 28.07 0 37.53 0c9.45 0 18.49 2.62 26.31 7.51-13.97 8.9-23.26 24.53-23.26 42.31 0 .1 0 .21.01.32.16 3.31 2.89 5.95 6.24 5.95h15.63v12.54h3.17c1.72 0 3.12 1.4 3.12 3.13s-1.4 3.13-3.12 3.13h-3.17v12.89c0 1.68.67 3.27 1.83 4.43zM75 34.13C75 32.4 73.6 31 71.87 31c-1.72 0-3.12 1.4-3.12 3.13s1.4 3.13 3.12 3.13c1.73 0 3.13-1.4 3.13-3.13zM3.13 31C1.4 31 0 32.4 0 34.13s1.4 3.13 3.13 3.13c1.72 0 3.12-1.4 3.12-3.13S4.85 31 3.13 31z" fill="#DD4713"/></svg>